  0
SECTION
  2
HEADER
  9
$ANGBASE
  50
0.0
  9
$ANGDIR
  70
1
  9
$MEASUREMENT
  70
0
  0
ENDSEC
  0
SECTION
  2
TABLES
  0
TABLE
  2
LTYPE
  70
4
  0
LTYPE
  5
40F
  2
CONTINUOUS
  70
0
  3
Solid line
  72
65
  73
0
  40
0.0
  0
LTYPE
  5
410
  2
DASHDOT
 70
0
  3
Dash Dot ____ _ ____ _
 72
65
 73
4
 40
2.0
 49
1.25
 49
-0.25
 49
0.25
 49
-0.25
  0
LTYPE
  5
411
  2
DASHED
 70
0
  3
Dashed __ __ __ __ __
 72
65
 73
2
 40
0.75
 49
0.5
 49
-0.25
  0
LTYPE
  5
43B
  2
DOTTED
 70
0
  3
Dotted .  .  .  .
 72
65
 73
2
 40
0.2
 49
0.0
 49
-0.2
  0
ENDTAB
  0
TABLE
  2
STYLE
  70
4
  0
STYLE
  2
KICAD
  70
0
  40
0
  41
1
  42
1
  50
0
  71
0
  3
isocp.shx
  0
STYLE
  2
KICADB
  70
0
  40
0
  41
1
  42
1
  50
0
  71
0
  3
isocp.shx
  0
STYLE
  2
KICADI
  70
0
  40
0
  41
1
  42
1
  50
15
  71
0
  3
isocp.shx
  0
STYLE
  2
KICADBI
  70
0
  40
0
  41
1
  42
1
  50
15
  71
0
  3
isocp.shx
  0
ENDTAB
  0
TABLE
  2
LAYER
  70
1
  0
LAYER
  2
BLACK
  70
0
  62
7
  6
CONTINUOUS
  0
ENDTAB
  0
ENDSEC
  0
SECTION
  2
ENTITIES
0
LINE
8
BLACK
6
CONTINUOUS
10
-0.1084381496062992
20
0.5842507874015748
11
-0.105245
21
0.5821172047244094
0
LINE
8
BLACK
6
CONTINUOUS
10
-0.105245
20
0.5821172047244094
11
-0.1031114173228346
21
0.5789240551181102
0
LINE
8
BLACK
6
CONTINUOUS
10
-0.1031114173228346
20
0.5789240551181102
11
-0.1023622047244094
21
0.5751574803149606
0
LINE
8
BLACK
6
CONTINUOUS
10
-0.1023622047244094
20
0.5751574803149606
11
-0.1023622047244094
21
0.4885433070866141
0
LINE
8
BLACK
6
CONTINUOUS
10
-0.1023622047244094
20
0.4885433070866141
11
-0.1031114173228346
21
0.4847767322834646
0
LINE
8
BLACK
6
CONTINUOUS
10
-0.1031114173228346
20
0.4847767322834646
11
-0.105245
21
0.4815835826771653
0
LINE
8
BLACK
6
CONTINUOUS
10
-0.105245
20
0.4815835826771653
11
-0.1084381496062992
21
0.47945
0
LINE
8
BLACK
6
CONTINUOUS
10
-0.1084381496062992
20
0.47945
11
-0.1122047244094488
21
0.4787007874015748
0
LINE
8
BLACK
6
CONTINUOUS
10
-0.1122047244094488
20
0.4787007874015748
11
-0.1318897637795275
21
0.4787007874015748
0
LINE
8
BLACK
6
CONTINUOUS
10
-0.1318897637795275
20
0.4787007874015748
11
-0.1356563385826772
21
0.47945
0
LINE
8
BLACK
6
CONTINUOUS
10
-0.1356563385826772
20
0.47945
11
-0.1388494881889764
21
0.4815835826771653
0
LINE
8
BLACK
6
CONTINUOUS
10
-0.1388494881889764
20
0.4815835826771653
11
-0.1409830708661417
21
0.4847767322834646
0
LINE
8
BLACK
6
CONTINUOUS
10
-0.1409830708661417
20
0.4847767322834646
11
-0.1417322834645669
21
0.4885433070866141
0
LINE
8
BLACK
6
CONTINUOUS
10
-0.1417322834645669
20
0.4885433070866141
11
-0.1417322834645669
21
0.5751574803149606
0
LINE
8
BLACK
6
CONTINUOUS
10
-0.1417322834645669
20
0.5751574803149606
11
-0.1409830708661417
21
0.5789240551181102
0
LINE
8
BLACK
6
CONTINUOUS
10
-0.1409830708661417
20
0.5789240551181102
11
-0.1388494881889764
21
0.5821172047244094
0
LINE
8
BLACK
6
CONTINUOUS
10
-0.1388494881889764
20
0.5821172047244094
11
-0.1356563385826772
21
0.5842507874015748
0
LINE
8
BLACK
6
CONTINUOUS
10
-0.1356563385826772
20
0.5842507874015748
11
-0.1318897637795275
21
0.585
0
LINE
8
BLACK
6
CONTINUOUS
10
-0.1318897637795275
20
0.585
11
-0.1122047244094488
21
0.585
0
LINE
8
BLACK
6
CONTINUOUS
10
-0.1122047244094488
20
0.585
11
-0.1084381496062992
21
0.5842507874015748
0
LINE
8
BLACK
6
CONTINUOUS
10
0.184868937007874
20
0.5842507874015748
11
0.1880620866141732
21
0.5821172047244094
0
LINE
8
BLACK
6
CONTINUOUS
10
0.1880620866141732
20
0.5821172047244094
11
0.1901956692913386
21
0.5789240551181102
0
LINE
8
BLACK
6
CONTINUOUS
10
0.1901956692913386
20
0.5789240551181102
11
0.1909448818897638
21
0.5751574803149606
0
LINE
8
BLACK
6
CONTINUOUS
10
0.1909448818897638
20
0.5751574803149606
11
0.1909448818897638
21
0.4885433070866141
0
LINE
8
BLACK
6
CONTINUOUS
10
0.1909448818897638
20
0.4885433070866141
11
0.1901956692913386
21
0.4847767322834646
0
LINE
8
BLACK
6
CONTINUOUS
10
0.1901956692913386
20
0.4847767322834646
11
0.1880620866141732
21
0.4815835826771653
0
LINE
8
BLACK
6
CONTINUOUS
10
0.1880620866141732
20
0.4815835826771653
11
0.184868937007874
21
0.47945
0
LINE
8
BLACK
6
CONTINUOUS
10
0.184868937007874
20
0.47945
11
0.1811023622047244
21
0.4787007874015748
0
LINE
8
BLACK
6
CONTINUOUS
10
0.1811023622047244
20
0.4787007874015748
11
0.1614173228346457
21
0.4787007874015748
0
LINE
8
BLACK
6
CONTINUOUS
10
0.1614173228346457
20
0.4787007874015748
11
0.1576507480314961
21
0.47945
0
LINE
8
BLACK
6
CONTINUOUS
10
0.1576507480314961
20
0.47945
11
0.1544575984251969
21
0.4815835826771653
0
LINE
8
BLACK
6
CONTINUOUS
10
0.1544575984251969
20
0.4815835826771653
11
0.1523240157480315
21
0.4847767322834646
0
LINE
8
BLACK
6
CONTINUOUS
10
0.1523240157480315
20
0.4847767322834646
11
0.1515748031496063
21
0.4885433070866141
0
LINE
8
BLACK
6
CONTINUOUS
10
0.1515748031496063
20
0.4885433070866141
11
0.1515748031496063
21
0.5751574803149606
0
LINE
8
BLACK
6
CONTINUOUS
10
0.1515748031496063
20
0.5751574803149606
11
0.1523240157480315
21
0.5789240551181102
0
LINE
8
BLACK
6
CONTINUOUS
10
0.1523240157480315
20
0.5789240551181102
11
0.1544575984251969
21
0.5821172047244094
0
LINE
8
BLACK
6
CONTINUOUS
10
0.1544575984251969
20
0.5821172047244094
11
0.1576507480314961
21
0.5842507874015748
0
LINE
8
BLACK
6
CONTINUOUS
10
0.1576507480314961
20
0.5842507874015748
11
0.1614173228346457
21
0.585
0
LINE
8
BLACK
6
CONTINUOUS
10
0.1614173228346457
20
0.585
11
0.1811023622047244
21
0.585
0
LINE
8
BLACK
6
CONTINUOUS
10
0.1811023622047244
20
0.585
11
0.184868937007874
21
0.5842507874015748
0
LINE
8
BLACK
6
CONTINUOUS
10
0.2823492519685039
20
0.5842507874015748
11
0.2855424015748032
21
0.5821172047244094
0
LINE
8
BLACK
6
CONTINUOUS
10
0.2855424015748032
20
0.5821172047244094
11
0.2876759842519685
21
0.5789240551181102
0
LINE
8
BLACK
6
CONTINUOUS
10
0.2876759842519685
20
0.5789240551181102
11
0.2884251968503937
21
0.5751574803149606
0
LINE
8
BLACK
6
CONTINUOUS
10
0.2884251968503937
20
0.5751574803149606
11
0.2884251968503937
21
0.4885433070866141
0
LINE
8
BLACK
6
CONTINUOUS
10
0.2884251968503937
20
0.4885433070866141
11
0.2876759842519685
21
0.4847767322834646
0
LINE
8
BLACK
6
CONTINUOUS
10
0.2876759842519685
20
0.4847767322834646
11
0.2855424015748032
21
0.4815835826771653
0
LINE
8
BLACK
6
CONTINUOUS
10
0.2855424015748032
20
0.4815835826771653
11
0.2823492519685039
21
0.47945
0
LINE
8
BLACK
6
CONTINUOUS
10
0.2823492519685039
20
0.47945
11
0.2785826771653543
21
0.4787007874015748
0
LINE
8
BLACK
6
CONTINUOUS
10
0.2785826771653543
20
0.4787007874015748
11
0.2588976377952756
21
0.4787007874015748
0
LINE
8
BLACK
6
CONTINUOUS
10
0.2588976377952756
20
0.4787007874015748
11
0.255131062992126
21
0.47945
0
LINE
8
BLACK
6
CONTINUOUS
10
0.255131062992126
20
0.47945
11
0.2519379133858268
21
0.4815835826771653
0
LINE
8
BLACK
6
CONTINUOUS
10
0.2519379133858268
20
0.4815835826771653
11
0.2498043307086614
21
0.4847767322834646
0
LINE
8
BLACK
6
CONTINUOUS
10
0.2498043307086614
20
0.4847767322834646
11
0.2490551181102362
21
0.4885433070866141
0
LINE
8
BLACK
6
CONTINUOUS
10
0.2490551181102362
20
0.4885433070866141
11
0.2490551181102362
21
0.5751574803149606
0
LINE
8
BLACK
6
CONTINUOUS
10
0.2490551181102362
20
0.5751574803149606
11
0.2498043307086614
21
0.5789240551181102
0
LINE
8
BLACK
6
CONTINUOUS
10
0.2498043307086614
20
0.5789240551181102
11
0.2519379133858268
21
0.5821172047244094
0
LINE
8
BLACK
6
CONTINUOUS
10
0.2519379133858268
20
0.5821172047244094
11
0.255131062992126
21
0.5842507874015748
0
LINE
8
BLACK
6
CONTINUOUS
10
0.255131062992126
20
0.5842507874015748
11
0.2588976377952756
21
0.585
0
LINE
8
BLACK
6
CONTINUOUS
10
0.2588976377952756
20
0.585
11
0.2785826771653543
21
0.585
0
LINE
8
BLACK
6
CONTINUOUS
10
0.2785826771653543
20
0.585
11
0.2823492519685039
21
0.5842507874015748
0
LINE
8
BLACK
6
CONTINUOUS
10
0.6740815354330708
20
0.5842507874015748
11
0.6772746850393701
21
0.5821172047244094
0
LINE
8
BLACK
6
CONTINUOUS
10
0.6772746850393701
20
0.5821172047244094
11
0.6794082677165354
21
0.5789240551181102
0
LINE
8
BLACK
6
CONTINUOUS
10
0.6794082677165354
20
0.5789240551181102
11
0.6801574803149606
21
0.5751574803149606
0
LINE
8
BLACK
6
CONTINUOUS
10
0.6801574803149606
20
0.5751574803149606
11
0.6801574803149606
21
0.4885433070866141
0
LINE
8
BLACK
6
CONTINUOUS
10
0.6801574803149606
20
0.4885433070866141
11
0.6794082677165354
21
0.4847767322834646
0
LINE
8
BLACK
6
CONTINUOUS
10
0.6794082677165354
20
0.4847767322834646
11
0.6772746850393701
21
0.4815835826771653
0
LINE
8
BLACK
6
CONTINUOUS
10
0.6772746850393701
20
0.4815835826771653
11
0.6740815354330708
21
0.47945
0
LINE
8
BLACK
6
CONTINUOUS
10
0.6740815354330708
20
0.47945
11
0.6703149606299212
21
0.4787007874015748
0
LINE
8
BLACK
6
CONTINUOUS
10
0.6703149606299212
20
0.4787007874015748
11
0.6506299212598425
21
0.4787007874015748
0
LINE
8
BLACK
6
CONTINUOUS
10
0.6506299212598425
20
0.4787007874015748
11
0.6468633464566929
21
0.47945
0
LINE
8
BLACK
6
CONTINUOUS
10
0.6468633464566929
20
0.47945
11
0.6436701968503937
21
0.4815835826771653
0
LINE
8
BLACK
6
CONTINUOUS
10
0.6436701968503937
20
0.4815835826771653
11
0.6415366141732284
21
0.4847767322834646
0
LINE
8
BLACK
6
CONTINUOUS
10
0.6415366141732284
20
0.4847767322834646
11
0.6407874015748032
21
0.4885433070866141
0
LINE
8
BLACK
6
CONTINUOUS
10
0.6407874015748032
20
0.4885433070866141
11
0.6407874015748032
21
0.5751574803149606
0
LINE
8
BLACK
6
CONTINUOUS
10
0.6407874015748032
20
0.5751574803149606
11
0.6415366141732284
21
0.5789240551181102
0
LINE
8
BLACK
6
CONTINUOUS
10
0.6415366141732284
20
0.5789240551181102
11
0.6436701968503937
21
0.5821172047244094
0
LINE
8
BLACK
6
CONTINUOUS
10
0.6436701968503937
20
0.5821172047244094
11
0.6468633464566929
21
0.5842507874015748
0
LINE
8
BLACK
6
CONTINUOUS
10
0.6468633464566929
20
0.5842507874015748
11
0.6506299212598425
21
0.585
0
LINE
8
BLACK
6
CONTINUOUS
10
0.6506299212598425
20
0.585
11
0.6703149606299212
21
0.585
0
LINE
8
BLACK
6
CONTINUOUS
10
0.6703149606299212
20
0.585
11
0.6740815354330708
21
0.5842507874015748
0
LINE
8
BLACK
6
CONTINUOUS
10
-1.1399999999999999
20
0.505
11
-1.2
21
0.505
0
LINE
8
BLACK
6
CONTINUOUS
10
-1.2
20
0.505
11
-1.2
21
0.5649999999999999
0
LINE
8
BLACK
6
CONTINUOUS
10
-1.2
20
0.5649999999999999
11
-1.1399999999999999
21
0.5649999999999999
0
LINE
8
BLACK
6
CONTINUOUS
10
-1.1399999999999999
20
0.5649999999999999
11
-1.1399999999999999
21
0.505
0
LINE
8
BLACK
6
CONTINUOUS
10
-1.04
20
0.505
11
-1.0999999999999999
21
0.505
0
LINE
8
BLACK
6
CONTINUOUS
10
-1.0999999999999999
20
0.505
11
-1.0999999999999999
21
0.5649999999999999
0
LINE
8
BLACK
6
CONTINUOUS
10
-1.0999999999999999
20
0.5649999999999999
11
-1.04
21
0.5649999999999999
0
LINE
8
BLACK
6
CONTINUOUS
10
-1.04
20
0.5649999999999999
11
-1.04
21
0.505
0
LINE
8
BLACK
6
CONTINUOUS
10
-0.9399999999999999
20
0.505
11
-1.
21
0.505
0
LINE
8
BLACK
6
CONTINUOUS
10
-1.
20
0.505
11
-1.
21
0.5649999999999999
0
LINE
8
BLACK
6
CONTINUOUS
10
-1.
20
0.5649999999999999
11
-0.9399999999999999
21
0.5649999999999999
0
LINE
8
BLACK
6
CONTINUOUS
10
-0.9399999999999999
20
0.5649999999999999
11
-0.9399999999999999
21
0.505
0
LINE
8
BLACK
6
CONTINUOUS
10
-0.84
20
0.505
11
-0.9
21
0.505
0
LINE
8
BLACK
6
CONTINUOUS
10
-0.9
20
0.505
11
-0.9
21
0.5649999999999999
0
LINE
8
BLACK
6
CONTINUOUS
10
-0.9
20
0.5649999999999999
11
-0.84
21
0.5649999999999999
0
LINE
8
BLACK
6
CONTINUOUS
10
-0.84
20
0.5649999999999999
11
-0.84
21
0.505
0
LINE
8
BLACK
6
CONTINUOUS
10
-0.74
20
0.505
11
-0.7999999999999999
21
0.505
0
LINE
8
BLACK
6
CONTINUOUS
10
-0.7999999999999999
20
0.505
11
-0.7999999999999999
21
0.5649999999999999
0
LINE
8
BLACK
6
CONTINUOUS
10
-0.7999999999999999
20
0.5649999999999999
11
-0.74
21
0.5649999999999999
0
LINE
8
BLACK
6
CONTINUOUS
10
-0.74
20
0.5649999999999999
11
-0.74
21
0.505
0
LINE
8
BLACK
6
CONTINUOUS
10
-0.61
20
0.505
11
-0.67
21
0.505
0
LINE
8
BLACK
6
CONTINUOUS
10
-0.67
20
0.505
11
-0.67
21
0.5649999999999999
0
LINE
8
BLACK
6
CONTINUOUS
10
-0.67
20
0.5649999999999999
11
-0.61
21
0.5649999999999999
0
LINE
8
BLACK
6
CONTINUOUS
10
-0.61
20
0.5649999999999999
11
-0.61
21
0.505
0
LINE
8
BLACK
6
CONTINUOUS
10
-0.51
20
0.505
11
-0.57
21
0.505
0
LINE
8
BLACK
6
CONTINUOUS
10
-0.57
20
0.505
11
-0.57
21
0.5649999999999999
0
LINE
8
BLACK
6
CONTINUOUS
10
-0.57
20
0.5649999999999999
11
-0.51
21
0.5649999999999999
0
LINE
8
BLACK
6
CONTINUOUS
10
-0.51
20
0.5649999999999999
11
-0.51
21
0.505
0
LINE
8
BLACK
6
CONTINUOUS
10
-0.41
20
0.505
11
-0.47
21
0.505
0
LINE
8
BLACK
6
CONTINUOUS
10
-0.47
20
0.505
11
-0.47
21
0.5649999999999999
0
LINE
8
BLACK
6
CONTINUOUS
10
-0.47
20
0.5649999999999999
11
-0.41
21
0.5649999999999999
0
LINE
8
BLACK
6
CONTINUOUS
10
-0.41
20
0.5649999999999999
11
-0.41
21
0.505
0
LINE
8
BLACK
6
CONTINUOUS
10
-0.31
20
0.505
11
-0.37
21
0.505
0
LINE
8
BLACK
6
CONTINUOUS
10
-0.37
20
0.505
11
-0.37
21
0.5649999999999999
0
LINE
8
BLACK
6
CONTINUOUS
10
-0.37
20
0.5649999999999999
11
-0.31
21
0.5649999999999999
0
LINE
8
BLACK
6
CONTINUOUS
10
-0.31
20
0.5649999999999999
11
-0.31
21
0.505
0
LINE
8
BLACK
6
CONTINUOUS
10
-0.21
20
0.505
11
-0.27
21
0.505
0
LINE
8
BLACK
6
CONTINUOUS
10
-0.27
20
0.505
11
-0.27
21
0.5649999999999999
0
LINE
8
BLACK
6
CONTINUOUS
10
-0.27
20
0.5649999999999999
11
-0.21
21
0.5649999999999999
0
LINE
8
BLACK
6
CONTINUOUS
10
-0.21
20
0.5649999999999999
11
-0.21
21
0.505
0
LINE
8
BLACK
6
CONTINUOUS
10
0.85
20
0.505
11
0.79
21
0.505
0
LINE
8
BLACK
6
CONTINUOUS
10
0.79
20
0.505
11
0.79
21
0.5649999999999999
0
LINE
8
BLACK
6
CONTINUOUS
10
0.79
20
0.5649999999999999
11
0.85
21
0.5649999999999999
0
LINE
8
BLACK
6
CONTINUOUS
10
0.85
20
0.5649999999999999
11
0.85
21
0.505
0
LINE
8
BLACK
6
CONTINUOUS
10
0.95
20
0.505
11
0.89
21
0.505
0
LINE
8
BLACK
6
CONTINUOUS
10
0.89
20
0.505
11
0.89
21
0.5649999999999999
0
LINE
8
BLACK
6
CONTINUOUS
10
0.89
20
0.5649999999999999
11
0.95
21
0.5649999999999999
0
LINE
8
BLACK
6
CONTINUOUS
10
0.95
20
0.5649999999999999
11
0.95
21
0.505
0
LINE
8
BLACK
6
CONTINUOUS
10
1.05
20
0.505
11
0.99
21
0.505
0
LINE
8
BLACK
6
CONTINUOUS
10
0.99
20
0.505
11
0.99
21
0.5649999999999999
0
LINE
8
BLACK
6
CONTINUOUS
10
0.99
20
0.5649999999999999
11
1.05
21
0.5649999999999999
0
LINE
8
BLACK
6
CONTINUOUS
10
1.05
20
0.5649999999999999
11
1.05
21
0.505
0
LINE
8
BLACK
6
CONTINUOUS
10
1.1799999999999999
20
0.505
11
1.1199999999999999
21
0.505
0
LINE
8
BLACK
6
CONTINUOUS
10
1.1199999999999999
20
0.505
11
1.1199999999999999
21
0.5649999999999999
0
LINE
8
BLACK
6
CONTINUOUS
10
1.1199999999999999
20
0.5649999999999999
11
1.1799999999999999
21
0.5649999999999999
0
LINE
8
BLACK
6
CONTINUOUS
10
1.1799999999999999
20
0.5649999999999999
11
1.1799999999999999
21
0.505
0
LINE
8
BLACK
6
CONTINUOUS
10
1.28
20
0.505
11
1.22
21
0.505
0
LINE
8
BLACK
6
CONTINUOUS
10
1.22
20
0.505
11
1.22
21
0.5649999999999999
0
LINE
8
BLACK
6
CONTINUOUS
10
1.22
20
0.5649999999999999
11
1.28
21
0.5649999999999999
0
LINE
8
BLACK
6
CONTINUOUS
10
1.28
20
0.5649999999999999
11
1.28
21
0.505
0
LINE
8
BLACK
6
CONTINUOUS
10
1.3799999999999999
20
0.505
11
1.3200000000000001
21
0.505
0
LINE
8
BLACK
6
CONTINUOUS
10
1.3200000000000001
20
0.505
11
1.3200000000000001
21
0.5649999999999999
0
LINE
8
BLACK
6
CONTINUOUS
10
1.3200000000000001
20
0.5649999999999999
11
1.3799999999999999
21
0.5649999999999999
0
LINE
8
BLACK
6
CONTINUOUS
10
1.3799999999999999
20
0.5649999999999999
11
1.3799999999999999
21
0.505
0
LINE
8
BLACK
6
CONTINUOUS
10
-1.9694903543307085
20
0.7413158661417323
11
-1.956125590551181
21
0.7381483858267717
0
LINE
8
BLACK
6
CONTINUOUS
10
-1.956125590551181
20
0.7381483858267717
11
-1.9432189370078741
21
0.7334507086614173
0
LINE
8
BLACK
6
CONTINUOUS
10
-1.9432189370078741
20
0.7334507086614173
11
-1.9309448818897637
21
0.7272864566929134
0
LINE
8
BLACK
6
CONTINUOUS
10
-1.9309448818897637
20
0.7272864566929134
11
-1.9194694488188977
21
0.7197389763779527
0
LINE
8
BLACK
6
CONTINUOUS
10
-1.9194694488188977
20
0.7197389763779527
11
-1.9089478346456692
21
0.7109102755905512
0
LINE
8
BLACK
6
CONTINUOUS
10
-1.9089478346456692
20
0.7109102755905512
11
-1.8995223228346456
21
0.7009198031496063
0
LINE
8
BLACK
6
CONTINUOUS
10
-1.8995223228346456
20
0.7009198031496063
11
-1.8913203543307087
21
0.6899026377952756
0
LINE
8
BLACK
6
CONTINUOUS
10
-1.8913203543307087
20
0.6899026377952756
11
-1.8844528346456693
21
0.6780077952755905
0
LINE
8
BLACK
6
CONTINUOUS
10
-1.8844528346456693
20
0.6780077952755905
11
-1.8790126771653544
21
0.6653960629921259
0
LINE
8
BLACK
6
CONTINUOUS
10
-1.8790126771653544
20
0.6653960629921259
11
-1.8750734251968504
21
0.6522381102362205
0
LINE
8
BLACK
6
CONTINUOUS
10
-1.8750734251968504
20
0.6522381102362205
11
-1.8726883858267716
21
0.6387117716535433
0
LINE
8
BLACK
6
CONTINUOUS
10
-1.8726883858267716
20
0.6387117716535433
11
-1.8718897637795275
21
0.625
0
LINE
8
BLACK
6
CONTINUOUS
10
-1.8718897637795275
20
0.625
11
-1.8726883858267716
21
0.6112882283464567
0
LINE
8
BLACK
6
CONTINUOUS
10
-1.8726883858267716
20
0.6112882283464567
11
-1.8750734251968504
21
0.5977618897637795
0
LINE
8
BLACK
6
CONTINUOUS
10
-1.8750734251968504
20
0.5977618897637795
11
-1.8790126771653544
21
0.5846039370078741
0
LINE
8
BLACK
6
CONTINUOUS
10
-1.8790126771653544
20
0.5846039370078741
11
-1.8844528346456693
21
0.5719922047244095
0
LINE
8
BLACK
6
CONTINUOUS
10
-1.8844528346456693
20
0.5719922047244095
11
-1.8913203543307087
21
0.5600973622047244
0
LINE
8
BLACK
6
CONTINUOUS
10
-1.8913203543307087
20
0.5600973622047244
11
-1.8995223228346456
21
0.5490801968503937
0
LINE
8
BLACK
6
CONTINUOUS
10
-1.8995223228346456
20
0.5490801968503937
11
-1.9089478346456692
21
0.5390897244094488
0
LINE
8
BLACK
6
CONTINUOUS
10
-1.9089478346456692
20
0.5390897244094488
11
-1.9194694488188977
21
0.5302610236220472
0
LINE
8
BLACK
6
CONTINUOUS
10
-1.9194694488188977
20
0.5302610236220472
11
-1.9309448818897637
21
0.5227135433070866
0
LINE
8
BLACK
6
CONTINUOUS
10
-1.9309448818897637
20
0.5227135433070866
11
-1.9432189370078741
21
0.5165492913385826
0
LINE
8
BLACK
6
CONTINUOUS
10
-1.9432189370078741
20
0.5165492913385826
11
-1.956125590551181
21
0.5118516141732283
0
LINE
8
BLACK
6
CONTINUOUS
10
-1.956125590551181
20
0.5118516141732283
11
-1.9694903543307085
21
0.5086841338582677
0
LINE
8
BLACK
6
CONTINUOUS
10
-1.9694903543307085
20
0.5086841338582677
11
-1.9831325196850393
21
0.5070896062992126
0
LINE
8
BLACK
6
CONTINUOUS
10
-1.9831325196850393
20
0.5070896062992126
11
-1.9968674803149606
21
0.5070896062992126
0
LINE
8
BLACK
6
CONTINUOUS
10
-1.9968674803149606
20
0.5070896062992126
11
-2.0105096456692912
21
0.5086841338582677
0
LINE
8
BLACK
6
CONTINUOUS
10
-2.0105096456692912
20
0.5086841338582677
11
-2.023874409448819
21
0.5118516141732283
0
LINE
8
BLACK
6
CONTINUOUS
10
-2.023874409448819
20
0.5118516141732283
11
-2.0367810629921261
21
0.5165492913385826
0
LINE
8
BLACK
6
CONTINUOUS
10
-2.0367810629921261
20
0.5165492913385826
11
-2.0490551181102363
21
0.5227135433070866
0
LINE
8
BLACK
6
CONTINUOUS
10
-2.0490551181102363
20
0.5227135433070866
11
-2.0605305511811025
21
0.5302610236220472
0
LINE
8
BLACK
6
CONTINUOUS
10
-2.0605305511811025
20
0.5302610236220472
11
-2.0710521653543306
21
0.5390897244094488
0
LINE
8
BLACK
6
CONTINUOUS
10
-2.0710521653543306
20
0.5390897244094488
11
-2.0804776771653541
21
0.5490801968503937
0
LINE
8
BLACK
6
CONTINUOUS
10
-2.0804776771653541
20
0.5490801968503937
11
-2.0886796456692913
21
0.5600973622047244
0
LINE
8
BLACK
6
CONTINUOUS
10
-2.0886796456692913
20
0.5600973622047244
11
-2.0955471653543305
21
0.5719922047244095
0
LINE
8
BLACK
6
CONTINUOUS
10
-2.0955471653543305
20
0.5719922047244095
11
-2.1009873228346456
21
0.5846039370078741
0
LINE
8
BLACK
6
CONTINUOUS
10
-2.1009873228346456
20
0.5846039370078741
11
-2.1049265748031494
21
0.5977618897637795
0
LINE
8
BLACK
6
CONTINUOUS
10
-2.1049265748031494
20
0.5977618897637795
11
-2.1073116141732284
21
0.6112882283464567
0
LINE
8
BLACK
6
CONTINUOUS
10
-2.1073116141732284
20
0.6112882283464567
11
-2.1081102362204724
21
0.625
0
LINE
8
BLACK
6
CONTINUOUS
10
-2.1081102362204724
20
0.625
11
-2.1073116141732284
21
0.6387117716535433
0
LINE
8
BLACK
6
CONTINUOUS
10
-2.1073116141732284
20
0.6387117716535433
11
-2.1049265748031494
21
0.6522381102362205
0
LINE
8
BLACK
6
CONTINUOUS
10
-2.1049265748031494
20
0.6522381102362205
11
-2.1009873228346456
21
0.6653960629921259
0
LINE
8
BLACK
6
CONTINUOUS
10
-2.1009873228346456
20
0.6653960629921259
11
-2.0955471653543305
21
0.6780077952755905
0
LINE
8
BLACK
6
CONTINUOUS
10
-2.0955471653543305
20
0.6780077952755905
11
-2.0886796456692913
21
0.6899026377952756
0
LINE
8
BLACK
6
CONTINUOUS
10
-2.0886796456692913
20
0.6899026377952756
11
-2.0804776771653541
21
0.7009198031496063
0
LINE
8
BLACK
6
CONTINUOUS
10
-2.0804776771653541
20
0.7009198031496063
11
-2.0710521653543306
21
0.7109102755905512
0
LINE
8
BLACK
6
CONTINUOUS
10
-2.0710521653543306
20
0.7109102755905512
11
-2.0605305511811025
21
0.7197389763779527
0
LINE
8
BLACK
6
CONTINUOUS
10
-2.0605305511811025
20
0.7197389763779527
11
-2.0490551181102363
21
0.7272864566929134
0
LINE
8
BLACK
6
CONTINUOUS
10
-2.0490551181102363
20
0.7272864566929134
11
-2.0367810629921261
21
0.7334507086614173
0
LINE
8
BLACK
6
CONTINUOUS
10
-2.0367810629921261
20
0.7334507086614173
11
-2.023874409448819
21
0.7381483858267717
0
LINE
8
BLACK
6
CONTINUOUS
10
-2.023874409448819
20
0.7381483858267717
11
-2.0105096456692912
21
0.7413158661417323
0
LINE
8
BLACK
6
CONTINUOUS
10
-2.0105096456692912
20
0.7413158661417323
11
-1.9968674803149606
21
0.7429103937007874
0
LINE
8
BLACK
6
CONTINUOUS
10
-1.9968674803149606
20
0.7429103937007874
11
-1.9831325196850393
21
0.7429103937007874
0
LINE
8
BLACK
6
CONTINUOUS
10
-1.9831325196850393
20
0.7429103937007874
11
-1.9694903543307085
21
0.7413158661417323
0
LINE
8
BLACK
6
CONTINUOUS
10
1.6305096456692914
20
0.7413158661417323
11
1.6438744094488189
21
0.7381483858267717
0
LINE
8
BLACK
6
CONTINUOUS
10
1.6438744094488189
20
0.7381483858267717
11
1.656781062992126
21
0.7334507086614173
0
LINE
8
BLACK
6
CONTINUOUS
10
1.656781062992126
20
0.7334507086614173
11
1.6690551181102362
21
0.7272864566929134
0
LINE
8
BLACK
6
CONTINUOUS
10
1.6690551181102362
20
0.7272864566929134
11
1.6805305511811024
21
0.7197389763779527
0
LINE
8
BLACK
6
CONTINUOUS
10
1.6805305511811024
20
0.7197389763779527
11
1.6910521653543307
21
0.7109102755905512
0
LINE
8
BLACK
6
CONTINUOUS
10
1.6910521653543307
20
0.7109102755905512
11
1.7004776771653543
21
0.7009198031496063
0
LINE
8
BLACK
6
CONTINUOUS
10
1.7004776771653543
20
0.7009198031496063
11
1.7086796456692912
21
0.6899026377952756
0
LINE
8
BLACK
6
CONTINUOUS
10
1.7086796456692912
20
0.6899026377952756
11
1.7155471653543306
21
0.6780077952755905
0
LINE
8
BLACK
6
CONTINUOUS
10
1.7155471653543306
20
0.6780077952755905
11
1.7209873228346457
21
0.6653960629921259
0
LINE
8
BLACK
6
CONTINUOUS
10
1.7209873228346457
20
0.6653960629921259
11
1.7249265748031495
21
0.6522381102362205
0
LINE
8
BLACK
6
CONTINUOUS
10
1.7249265748031495
20
0.6522381102362205
11
1.7273116141732283
21
0.6387117716535433
0
LINE
8
BLACK
6
CONTINUOUS
10
1.7273116141732283
20
0.6387117716535433
11
1.7281102362204723
21
0.625
0
LINE
8
BLACK
6
CONTINUOUS
10
1.7281102362204723
20
0.625
11
1.7273116141732283
21
0.6112882283464567
0
LINE
8
BLACK
6
CONTINUOUS
10
1.7273116141732283
20
0.6112882283464567
11
1.7249265748031495
21
0.5977618897637795
0
LINE
8
BLACK
6
CONTINUOUS
10
1.7249265748031495
20
0.5977618897637795
11
1.7209873228346457
21
0.5846039370078741
0
LINE
8
BLACK
6
CONTINUOUS
10
1.7209873228346457
20
0.5846039370078741
11
1.7155471653543306
21
0.5719922047244095
0
LINE
8
BLACK
6
CONTINUOUS
10
1.7155471653543306
20
0.5719922047244095
11
1.7086796456692912
21
0.5600973622047244
0
LINE
8
BLACK
6
CONTINUOUS
10
1.7086796456692912
20
0.5600973622047244
11
1.7004776771653543
21
0.5490801968503937
0
LINE
8
BLACK
6
CONTINUOUS
10
1.7004776771653543
20
0.5490801968503937
11
1.6910521653543307
21
0.5390897244094488
0
LINE
8
BLACK
6
CONTINUOUS
10
1.6910521653543307
20
0.5390897244094488
11
1.6805305511811024
21
0.5302610236220472
0
LINE
8
BLACK
6
CONTINUOUS
10
1.6805305511811024
20
0.5302610236220472
11
1.6690551181102362
21
0.5227135433070866
0
LINE
8
BLACK
6
CONTINUOUS
10
1.6690551181102362
20
0.5227135433070866
11
1.656781062992126
21
0.5165492913385826
0
LINE
8
BLACK
6
CONTINUOUS
10
1.656781062992126
20
0.5165492913385826
11
1.6438744094488189
21
0.5118516141732283
0
LINE
8
BLACK
6
CONTINUOUS
10
1.6438744094488189
20
0.5118516141732283
11
1.6305096456692914
21
0.5086841338582677
0
LINE
8
BLACK
6
CONTINUOUS
10
1.6305096456692914
20
0.5086841338582677
11
1.6168674803149605
21
0.5070896062992126
0
LINE
8
BLACK
6
CONTINUOUS
10
1.6168674803149605
20
0.5070896062992126
11
1.6031325196850392
21
0.5070896062992126
0
LINE
8
BLACK
6
CONTINUOUS
10
1.6031325196850392
20
0.5070896062992126
11
1.5894903543307086
21
0.5086841338582677
0
LINE
8
BLACK
6
CONTINUOUS
10
1.5894903543307086
20
0.5086841338582677
11
1.5761255905511811
21
0.5118516141732283
0
LINE
8
BLACK
6
CONTINUOUS
10
1.5761255905511811
20
0.5118516141732283
11
1.563218937007874
21
0.5165492913385826
0
LINE
8
BLACK
6
CONTINUOUS
10
1.563218937007874
20
0.5165492913385826
11
1.5509448818897638
21
0.5227135433070866
0
LINE
8
BLACK
6
CONTINUOUS
10
1.5509448818897638
20
0.5227135433070866
11
1.5394694488188976
21
0.5302610236220472
0
LINE
8
BLACK
6
CONTINUOUS
10
1.5394694488188976
20
0.5302610236220472
11
1.5289478346456693
21
0.5390897244094488
0
LINE
8
BLACK
6
CONTINUOUS
10
1.5289478346456693
20
0.5390897244094488
11
1.5195223228346457
21
0.5490801968503937
0
LINE
8
BLACK
6
CONTINUOUS
10
1.5195223228346457
20
0.5490801968503937
11
1.5113203543307085
21
0.5600973622047244
0
LINE
8
BLACK
6
CONTINUOUS
10
1.5113203543307085
20
0.5600973622047244
11
1.5044528346456694
21
0.5719922047244095
0
LINE
8
BLACK
6
CONTINUOUS
10
1.5044528346456694
20
0.5719922047244095
11
1.4990126771653542
21
0.5846039370078741
0
LINE
8
BLACK
6
CONTINUOUS
10
1.4990126771653542
20
0.5846039370078741
11
1.4950734251968503
21
0.5977618897637795
0
LINE
8
BLACK
6
CONTINUOUS
10
1.4950734251968503
20
0.5977618897637795
11
1.4926883858267717
21
0.6112882283464567
0
LINE
8
BLACK
6
CONTINUOUS
10
1.4926883858267717
20
0.6112882283464567
11
1.4918897637795274
21
0.625
0
LINE
8
BLACK
6
CONTINUOUS
10
1.4918897637795274
20
0.625
11
1.4926883858267717
21
0.6387117716535433
0
LINE
8
BLACK
6
CONTINUOUS
10
1.4926883858267717
20
0.6387117716535433
11
1.4950734251968503
21
0.6522381102362205
0
LINE
8
BLACK
6
CONTINUOUS
10
1.4950734251968503
20
0.6522381102362205
11
1.4990126771653542
21
0.6653960629921259
0
LINE
8
BLACK
6
CONTINUOUS
10
1.4990126771653542
20
0.6653960629921259
11
1.5044528346456694
21
0.6780077952755905
0
LINE
8
BLACK
6
CONTINUOUS
10
1.5044528346456694
20
0.6780077952755905
11
1.5113203543307085
21
0.6899026377952756
0
LINE
8
BLACK
6
CONTINUOUS
10
1.5113203543307085
20
0.6899026377952756
11
1.5195223228346457
21
0.7009198031496063
0
LINE
8
BLACK
6
CONTINUOUS
10
1.5195223228346457
20
0.7009198031496063
11
1.5289478346456693
21
0.7109102755905512
0
LINE
8
BLACK
6
CONTINUOUS
10
1.5289478346456693
20
0.7109102755905512
11
1.5394694488188976
21
0.7197389763779527
0
LINE
8
BLACK
6
CONTINUOUS
10
1.5394694488188976
20
0.7197389763779527
11
1.5509448818897638
21
0.7272864566929134
0
LINE
8
BLACK
6
CONTINUOUS
10
1.5509448818897638
20
0.7272864566929134
11
1.563218937007874
21
0.7334507086614173
0
LINE
8
BLACK
6
CONTINUOUS
10
1.563218937007874
20
0.7334507086614173
11
1.5761255905511811
21
0.7381483858267717
0
LINE
8
BLACK
6
CONTINUOUS
10
1.5761255905511811
20
0.7381483858267717
11
1.5894903543307086
21
0.7413158661417323
0
LINE
8
BLACK
6
CONTINUOUS
10
1.5894903543307086
20
0.7413158661417323
11
1.6031325196850392
21
0.7429103937007874
0
LINE
8
BLACK
6
CONTINUOUS
10
1.6031325196850392
20
0.7429103937007874
11
1.6168674803149605
21
0.7429103937007874
0
LINE
8
BLACK
6
CONTINUOUS
10
1.6168674803149605
20
0.7429103937007874
11
1.6305096456692914
21
0.7413158661417323
0
LINE
8
BLACK
6
CONTINUOUS
10
-1.1399999999999999
20
0.605
11
-1.2
21
0.605
0
LINE
8
BLACK
6
CONTINUOUS
10
-1.2
20
0.605
11
-1.2
21
0.665
0
LINE
8
BLACK
6
CONTINUOUS
10
-1.2
20
0.665
11
-1.1399999999999999
21
0.665
0
LINE
8
BLACK
6
CONTINUOUS
10
-1.1399999999999999
20
0.665
11
-1.1399999999999999
21
0.605
0
LINE
8
BLACK
6
CONTINUOUS
10
-1.04
20
0.605
11
-1.0999999999999999
21
0.605
0
LINE
8
BLACK
6
CONTINUOUS
10
-1.0999999999999999
20
0.605
11
-1.0999999999999999
21
0.665
0
LINE
8
BLACK
6
CONTINUOUS
10
-1.0999999999999999
20
0.665
11
-1.04
21
0.665
0
LINE
8
BLACK
6
CONTINUOUS
10
-1.04
20
0.665
11
-1.04
21
0.605
0
LINE
8
BLACK
6
CONTINUOUS
10
-0.9399999999999999
20
0.605
11
-1.
21
0.605
0
LINE
8
BLACK
6
CONTINUOUS
10
-1.
20
0.605
11
-1.
21
0.665
0
LINE
8
BLACK
6
CONTINUOUS
10
-1.
20
0.665
11
-0.9399999999999999
21
0.665
0
LINE
8
BLACK
6
CONTINUOUS
10
-0.9399999999999999
20
0.665
11
-0.9399999999999999
21
0.605
0
LINE
8
BLACK
6
CONTINUOUS
10
-0.84
20
0.605
11
-0.9
21
0.605
0
LINE
8
BLACK
6
CONTINUOUS
10
-0.9
20
0.605
11
-0.9
21
0.665
0
LINE
8
BLACK
6
CONTINUOUS
10
-0.9
20
0.665
11
-0.84
21
0.665
0
LINE
8
BLACK
6
CONTINUOUS
10
-0.84
20
0.665
11
-0.84
21
0.605
0
LINE
8
BLACK
6
CONTINUOUS
10
-0.74
20
0.605
11
-0.7999999999999999
21
0.605
0
LINE
8
BLACK
6
CONTINUOUS
10
-0.7999999999999999
20
0.605
11
-0.7999999999999999
21
0.665
0
LINE
8
BLACK
6
CONTINUOUS
10
-0.7999999999999999
20
0.665
11
-0.74
21
0.665
0
LINE
8
BLACK
6
CONTINUOUS
10
-0.74
20
0.665
11
-0.74
21
0.605
0
LINE
8
BLACK
6
CONTINUOUS
10
-0.61
20
0.605
11
-0.67
21
0.605
0
LINE
8
BLACK
6
CONTINUOUS
10
-0.67
20
0.605
11
-0.67
21
0.665
0
LINE
8
BLACK
6
CONTINUOUS
10
-0.67
20
0.665
11
-0.61
21
0.665
0
LINE
8
BLACK
6
CONTINUOUS
10
-0.61
20
0.665
11
-0.61
21
0.605
0
LINE
8
BLACK
6
CONTINUOUS
10
-0.51
20
0.605
11
-0.57
21
0.605
0
LINE
8
BLACK
6
CONTINUOUS
10
-0.57
20
0.605
11
-0.57
21
0.665
0
LINE
8
BLACK
6
CONTINUOUS
10
-0.57
20
0.665
11
-0.51
21
0.665
0
LINE
8
BLACK
6
CONTINUOUS
10
-0.51
20
0.665
11
-0.51
21
0.605
0
LINE
8
BLACK
6
CONTINUOUS
10
-0.41
20
0.605
11
-0.47
21
0.605
0
LINE
8
BLACK
6
CONTINUOUS
10
-0.47
20
0.605
11
-0.47
21
0.665
0
LINE
8
BLACK
6
CONTINUOUS
10
-0.47
20
0.665
11
-0.41
21
0.665
0
LINE
8
BLACK
6
CONTINUOUS
10
-0.41
20
0.665
11
-0.41
21
0.605
0
LINE
8
BLACK
6
CONTINUOUS
10
-0.31
20
0.605
11
-0.37
21
0.605
0
LINE
8
BLACK
6
CONTINUOUS
10
-0.37
20
0.605
11
-0.37
21
0.665
0
LINE
8
BLACK
6
CONTINUOUS
10
-0.37
20
0.665
11
-0.31
21
0.665
0
LINE
8
BLACK
6
CONTINUOUS
10
-0.31
20
0.665
11
-0.31
21
0.605
0
LINE
8
BLACK
6
CONTINUOUS
10
-0.21
20
0.605
11
-0.27
21
0.605
0
LINE
8
BLACK
6
CONTINUOUS
10
-0.27
20
0.605
11
-0.27
21
0.665
0
LINE
8
BLACK
6
CONTINUOUS
10
-0.27
20
0.665
11
-0.21
21
0.665
0
LINE
8
BLACK
6
CONTINUOUS
10
-0.21
20
0.665
11
-0.21
21
0.605
0
LINE
8
BLACK
6
CONTINUOUS
10
-0.041047125984252
20
0.6908496850393701
11
-0.0391312598425197
21
0.6895695275590551
0
LINE
8
BLACK
6
CONTINUOUS
10
-0.0391312598425197
20
0.6895695275590551
11
-0.0378511023622047
21
0.6876536614173229
0
LINE
8
BLACK
6
CONTINUOUS
10
-0.0378511023622047
20
0.6876536614173229
11
-0.0374015748031496
21
0.6853937007874016
0
LINE
8
BLACK
6
CONTINUOUS
10
-0.0374015748031496
20
0.6853937007874016
11
-0.0374015748031496
21
0.6302755905511811
0
LINE
8
BLACK
6
CONTINUOUS
10
-0.0374015748031496
20
0.6302755905511811
11
-0.0378511023622047
21
0.6280156299212598
0
LINE
8
BLACK
6
CONTINUOUS
10
-0.0378511023622047
20
0.6280156299212598
11
-0.0391312598425197
21
0.6260997637795276
0
LINE
8
BLACK
6
CONTINUOUS
10
-0.0391312598425197
20
0.6260997637795276
11
-0.041047125984252
21
0.6248196062992126
0
LINE
8
BLACK
6
CONTINUOUS
10
-0.041047125984252
20
0.6248196062992126
11
-0.0433070866141732
21
0.6243700787401575
0
LINE
8
BLACK
6
CONTINUOUS
10
-0.0433070866141732
20
0.6243700787401575
11
-0.0551181102362205
21
0.6243700787401575
0
LINE
8
BLACK
6
CONTINUOUS
10
-0.0551181102362205
20
0.6243700787401575
11
-0.0573780708661417
21
0.6248196062992126
0
LINE
8
BLACK
6
CONTINUOUS
10
-0.0573780708661417
20
0.6248196062992126
11
-0.059293937007874
21
0.6260997637795276
0
LINE
8
BLACK
6
CONTINUOUS
10
-0.059293937007874
20
0.6260997637795276
11
-0.060574094488189
21
0.6280156299212598
0
LINE
8
BLACK
6
CONTINUOUS
10
-0.060574094488189
20
0.6280156299212598
11
-0.0610236220472441
21
0.6302755905511811
0
LINE
8
BLACK
6
CONTINUOUS
10
-0.0610236220472441
20
0.6302755905511811
11
-0.0610236220472441
21
0.6853937007874016
0
LINE
8
BLACK
6
CONTINUOUS
10
-0.0610236220472441
20
0.6853937007874016
11
-0.060574094488189
21
0.6876536614173229
0
LINE
8
BLACK
6
CONTINUOUS
10
-0.060574094488189
20
0.6876536614173229
11
-0.059293937007874
21
0.6895695275590551
0
LINE
8
BLACK
6
CONTINUOUS
10
-0.059293937007874
20
0.6895695275590551
11
-0.0573780708661417
21
0.6908496850393701
0
LINE
8
BLACK
6
CONTINUOUS
10
-0.0573780708661417
20
0.6908496850393701
11
-0.0551181102362205
21
0.6912992125984252
0
LINE
8
BLACK
6
CONTINUOUS
10
-0.0551181102362205
20
0.6912992125984252
11
-0.0433070866141732
21
0.6912992125984252
0
LINE
8
BLACK
6
CONTINUOUS
10
-0.0433070866141732
20
0.6912992125984252
11
-0.041047125984252
21
0.6908496850393701
0
LINE
8
BLACK
6
CONTINUOUS
10
0.0081654724409449
20
0.6908496850393701
11
0.0100813385826772
21
0.6895695275590551
0
LINE
8
BLACK
6
CONTINUOUS
10
0.0100813385826772
20
0.6895695275590551
11
0.0113614960629921
21
0.6876536614173229
0
LINE
8
BLACK
6
CONTINUOUS
10
0.0113614960629921
20
0.6876536614173229
11
0.0118110236220472
21
0.6853937007874016
0
LINE
8
BLACK
6
CONTINUOUS
10
0.0118110236220472
20
0.6853937007874016
11
0.0118110236220472
21
0.6302755905511811
0
LINE
8
BLACK
6
CONTINUOUS
10
0.0118110236220472
20
0.6302755905511811
11
0.0113614960629921
21
0.6280156299212598
0
LINE
8
BLACK
6
CONTINUOUS
10
0.0113614960629921
20
0.6280156299212598
11
0.0100813385826772
21
0.6260997637795276
0
LINE
8
BLACK
6
CONTINUOUS
10
0.0100813385826772
20
0.6260997637795276
11
0.0081654724409449
21
0.6248196062992126
0
LINE
8
BLACK
6
CONTINUOUS
10
0.0081654724409449
20
0.6248196062992126
11
0.0059055118110236
21
0.6243700787401575
0
LINE
8
BLACK
6
CONTINUOUS
10
0.0059055118110236
20
0.6243700787401575
11
-0.0059055118110236
21
0.6243700787401575
0
LINE
8
BLACK
6
CONTINUOUS
10
-0.0059055118110236
20
0.6243700787401575
11
-0.0081654724409449
21
0.6248196062992126
0
LINE
8
BLACK
6
CONTINUOUS
10
-0.0081654724409449
20
0.6248196062992126
11
-0.0100813385826772
21
0.6260997637795276
0
LINE
8
BLACK
6
CONTINUOUS
10
-0.0100813385826772
20
0.6260997637795276
11
-0.0113614960629921
21
0.6280156299212598
0
LINE
8
BLACK
6
CONTINUOUS
10
-0.0113614960629921
20
0.6280156299212598
11
-0.0118110236220472
21
0.6302755905511811
0
LINE
8
BLACK
6
CONTINUOUS
10
-0.0118110236220472
20
0.6302755905511811
11
-0.0118110236220472
21
0.6853937007874016
0
LINE
8
BLACK
6
CONTINUOUS
10
-0.0118110236220472
20
0.6853937007874016
11
-0.0113614960629921
21
0.6876536614173229
0
LINE
8
BLACK
6
CONTINUOUS
10
-0.0113614960629921
20
0.6876536614173229
11
-0.0100813385826772
21
0.6895695275590551
0
LINE
8
BLACK
6
CONTINUOUS
10
-0.0100813385826772
20
0.6895695275590551
11
-0.0081654724409449
21
0.6908496850393701
0
LINE
8
BLACK
6
CONTINUOUS
10
-0.0081654724409449
20
0.6908496850393701
11
-0.0059055118110236
21
0.6912992125984252
0
LINE
8
BLACK
6
CONTINUOUS
10
-0.0059055118110236
20
0.6912992125984252
11
0.0059055118110236
21
0.6912992125984252
0
LINE
8
BLACK
6
CONTINUOUS
10
0.0059055118110236
20
0.6912992125984252
11
0.0081654724409449
21
0.6908496850393701
0
LINE
8
BLACK
6
CONTINUOUS
10
0.0573780708661417
20
0.6908496850393701
11
0.059293937007874
21
0.6895695275590551
0
LINE
8
BLACK
6
CONTINUOUS
10
0.059293937007874
20
0.6895695275590551
11
0.060574094488189
21
0.6876536614173229
0
LINE
8
BLACK
6
CONTINUOUS
10
0.060574094488189
20
0.6876536614173229
11
0.0610236220472441
21
0.6853937007874016
0
LINE
8
BLACK
6
CONTINUOUS
10
0.0610236220472441
20
0.6853937007874016
11
0.0610236220472441
21
0.6302755905511811
0
LINE
8
BLACK
6
CONTINUOUS
10
0.0610236220472441
20
0.6302755905511811
11
0.060574094488189
21
0.6280156299212598
0
LINE
8
BLACK
6
CONTINUOUS
10
0.060574094488189
20
0.6280156299212598
11
0.059293937007874
21
0.6260997637795276
0
LINE
8
BLACK
6
CONTINUOUS
10
0.059293937007874
20
0.6260997637795276
11
0.0573780708661417
21
0.6248196062992126
0
LINE
8
BLACK
6
CONTINUOUS
10
0.0573780708661417
20
0.6248196062992126
11
0.0551181102362205
21
0.6243700787401575
0
LINE
8
BLACK
6
CONTINUOUS
10
0.0551181102362205
20
0.6243700787401575
11
0.0433070866141732
21
0.6243700787401575
0
LINE
8
BLACK
6
CONTINUOUS
10
0.0433070866141732
20
0.6243700787401575
11
0.041047125984252
21
0.6248196062992126
0
LINE
8
BLACK
6
CONTINUOUS
10
0.041047125984252
20
0.6248196062992126
11
0.0391312598425197
21
0.6260997637795276
0
LINE
8
BLACK
6
CONTINUOUS
10
0.0391312598425197
20
0.6260997637795276
11
0.0378511023622047
21
0.6280156299212598
0
LINE
8
BLACK
6
CONTINUOUS
10
0.0378511023622047
20
0.6280156299212598
11
0.0374015748031496
21
0.6302755905511811
0
LINE
8
BLACK
6
CONTINUOUS
10
0.0374015748031496
20
0.6302755905511811
11
0.0374015748031496
21
0.6853937007874016
0
LINE
8
BLACK
6
CONTINUOUS
10
0.0374015748031496
20
0.6853937007874016
11
0.0378511023622047
21
0.6876536614173229
0
LINE
8
BLACK
6
CONTINUOUS
10
0.0378511023622047
20
0.6876536614173229
11
0.0391312598425197
21
0.6895695275590551
0
LINE
8
BLACK
6
CONTINUOUS
10
0.0391312598425197
20
0.6895695275590551
11
0.041047125984252
21
0.6908496850393701
0
LINE
8
BLACK
6
CONTINUOUS
10
0.041047125984252
20
0.6908496850393701
11
0.0433070866141732
21
0.6912992125984252
0
LINE
8
BLACK
6
CONTINUOUS
10
0.0433070866141732
20
0.6912992125984252
11
0.0551181102362205
21
0.6912992125984252
0
LINE
8
BLACK
6
CONTINUOUS
10
0.0551181102362205
20
0.6912992125984252
11
0.0573780708661417
21
0.6908496850393701
0
LINE
8
BLACK
6
CONTINUOUS
10
0.1065906692913386
20
0.6908496850393701
11
0.1085065354330709
21
0.6895695275590551
0
LINE
8
BLACK
6
CONTINUOUS
10
0.1085065354330709
20
0.6895695275590551
11
0.1097866929133858
21
0.6876536614173229
0
LINE
8
BLACK
6
CONTINUOUS
10
0.1097866929133858
20
0.6876536614173229
11
0.1102362204724409
21
0.6853937007874016
0
LINE
8
BLACK
6
CONTINUOUS
10
0.1102362204724409
20
0.6853937007874016
11
0.1102362204724409
21
0.6302755905511811
0
LINE
8
BLACK
6
CONTINUOUS
10
0.1102362204724409
20
0.6302755905511811
11
0.1097866929133858
21
0.6280156299212598
0
LINE
8
BLACK
6
CONTINUOUS
10
0.1097866929133858
20
0.6280156299212598
11
0.1085065354330709
21
0.6260997637795276
0
LINE
8
BLACK
6
CONTINUOUS
10
0.1085065354330709
20
0.6260997637795276
11
0.1065906692913386
21
0.6248196062992126
0
LINE
8
BLACK
6
CONTINUOUS
10
0.1065906692913386
20
0.6248196062992126
11
0.1043307086614173
21
0.6243700787401575
0
LINE
8
BLACK
6
CONTINUOUS
10
0.1043307086614173
20
0.6243700787401575
11
0.0925196850393701
21
0.6243700787401575
0
LINE
8
BLACK
6
CONTINUOUS
10
0.0925196850393701
20
0.6243700787401575
11
0.0902597244094488
21
0.6248196062992126
0
LINE
8
BLACK
6
CONTINUOUS
10
0.0902597244094488
20
0.6248196062992126
11
0.0883438582677165
21
0.6260997637795276
0
LINE
8
BLACK
6
CONTINUOUS
10
0.0883438582677165
20
0.6260997637795276
11
0.0870637007874016
21
0.6280156299212598
0
LINE
8
BLACK
6
CONTINUOUS
10
0.0870637007874016
20
0.6280156299212598
11
0.0866141732283465
21
0.6302755905511811
0
LINE
8
BLACK
6
CONTINUOUS
10
0.0866141732283465
20
0.6302755905511811
11
0.0866141732283465
21
0.6853937007874016
0
LINE
8
BLACK
6
CONTINUOUS
10
0.0866141732283465
20
0.6853937007874016
11
0.0870637007874016
21
0.6876536614173229
0
LINE
8
BLACK
6
CONTINUOUS
10
0.0870637007874016
20
0.6876536614173229
11
0.0883438582677165
21
0.6895695275590551
0
LINE
8
BLACK
6
CONTINUOUS
10
0.0883438582677165
20
0.6895695275590551
11
0.0902597244094488
21
0.6908496850393701
0
LINE
8
BLACK
6
CONTINUOUS
10
0.0902597244094488
20
0.6908496850393701
11
0.0925196850393701
21
0.6912992125984252
0
LINE
8
BLACK
6
CONTINUOUS
10
0.0925196850393701
20
0.6912992125984252
11
0.1043307086614173
21
0.6912992125984252
0
LINE
8
BLACK
6
CONTINUOUS
10
0.1043307086614173
20
0.6912992125984252
11
0.1065906692913386
21
0.6908496850393701
0
LINE
8
BLACK
6
CONTINUOUS
10
0.3497402755905512
20
0.6908496850393701
11
0.3516561417322834
21
0.6895695275590551
0
LINE
8
BLACK
6
CONTINUOUS
10
0.3516561417322834
20
0.6895695275590551
11
0.3529362992125984
21
0.6876536614173229
0
LINE
8
BLACK
6
CONTINUOUS
10
0.3529362992125984
20
0.6876536614173229
11
0.3533858267716535
21
0.6853937007874016
0
LINE
8
BLACK
6
CONTINUOUS
10
0.3533858267716535
20
0.6853937007874016
11
0.3533858267716535
21
0.6302755905511811
0
LINE
8
BLACK
6
CONTINUOUS
10
0.3533858267716535
20
0.6302755905511811
11
0.3529362992125984
21
0.6280156299212598
0
LINE
8
BLACK
6
CONTINUOUS
10
0.3529362992125984
20
0.6280156299212598
11
0.3516561417322834
21
0.6260997637795276
0
LINE
8
BLACK
6
CONTINUOUS
10
0.3516561417322834
20
0.6260997637795276
11
0.3497402755905512
21
0.6248196062992126
0
LINE
8
BLACK
6
CONTINUOUS
10
0.3497402755905512
20
0.6248196062992126
11
0.3474803149606299
21
0.6243700787401575
0
LINE
8
BLACK
6
CONTINUOUS
10
0.3474803149606299
20
0.6243700787401575
11
0.3356692913385826
21
0.6243700787401575
0
LINE
8
BLACK
6
CONTINUOUS
10
0.3356692913385826
20
0.6243700787401575
11
0.3334093307086614
21
0.6248196062992126
0
LINE
8
BLACK
6
CONTINUOUS
10
0.3334093307086614
20
0.6248196062992126
11
0.3314934645669291
21
0.6260997637795276
0
LINE
8
BLACK
6
CONTINUOUS
10
0.3314934645669291
20
0.6260997637795276
11
0.3302133070866142
21
0.6280156299212598
0
LINE
8
BLACK
6
CONTINUOUS
10
0.3302133070866142
20
0.6280156299212598
11
0.329763779527559
21
0.6302755905511811
0
LINE
8
BLACK
6
CONTINUOUS
10
0.329763779527559
20
0.6302755905511811
11
0.329763779527559
21
0.6853937007874016
0
LINE
8
BLACK
6
CONTINUOUS
10
0.329763779527559
20
0.6853937007874016
11
0.3302133070866142
21
0.6876536614173229
0
LINE
8
BLACK
6
CONTINUOUS
10
0.3302133070866142
20
0.6876536614173229
11
0.3314934645669291
21
0.6895695275590551
0
LINE
8
BLACK
6
CONTINUOUS
10
0.3314934645669291
20
0.6895695275590551
11
0.3334093307086614
21
0.6908496850393701
0
LINE
8
BLACK
6
CONTINUOUS
10
0.3334093307086614
20
0.6908496850393701
11
0.3356692913385826
21
0.6912992125984252
0
LINE
8
BLACK
6
CONTINUOUS
10
0.3356692913385826
20
0.6912992125984252
11
0.3474803149606299
21
0.6912992125984252
0
LINE
8
BLACK
6
CONTINUOUS
10
0.3474803149606299
20
0.6912992125984252
11
0.3497402755905512
21
0.6908496850393701
0
LINE
8
BLACK
6
CONTINUOUS
10
0.398952874015748
20
0.6908496850393701
11
0.4008687401574803
21
0.6895695275590551
0
LINE
8
BLACK
6
CONTINUOUS
10
0.4008687401574803
20
0.6895695275590551
11
0.4021488976377953
21
0.6876536614173229
0
LINE
8
BLACK
6
CONTINUOUS
10
0.4021488976377953
20
0.6876536614173229
11
0.4025984251968504
21
0.6853937007874016
0
LINE
8
BLACK
6
CONTINUOUS
10
0.4025984251968504
20
0.6853937007874016
11
0.4025984251968504
21
0.6302755905511811
0
LINE
8
BLACK
6
CONTINUOUS
10
0.4025984251968504
20
0.6302755905511811
11
0.4021488976377953
21
0.6280156299212598
0
LINE
8
BLACK
6
CONTINUOUS
10
0.4021488976377953
20
0.6280156299212598
11
0.4008687401574803
21
0.6260997637795276
0
LINE
8
BLACK
6
CONTINUOUS
10
0.4008687401574803
20
0.6260997637795276
11
0.398952874015748
21
0.6248196062992126
0
LINE
8
BLACK
6
CONTINUOUS
10
0.398952874015748
20
0.6248196062992126
11
0.3966929133858267
21
0.6243700787401575
0
LINE
8
BLACK
6
CONTINUOUS
10
0.3966929133858267
20
0.6243700787401575
11
0.3848818897637795
21
0.6243700787401575
0
LINE
8
BLACK
6
CONTINUOUS
10
0.3848818897637795
20
0.6243700787401575
11
0.3826219291338583
21
0.6248196062992126
0
LINE
8
BLACK
6
CONTINUOUS
10
0.3826219291338583
20
0.6248196062992126
11
0.3807060629921259
21
0.6260997637795276
0
LINE
8
BLACK
6
CONTINUOUS
10
0.3807060629921259
20
0.6260997637795276
11
0.379425905511811
21
0.6280156299212598
0
LINE
8
BLACK
6
CONTINUOUS
10
0.379425905511811
20
0.6280156299212598
11
0.3789763779527559
21
0.6302755905511811
0
LINE
8
BLACK
6
CONTINUOUS
10
0.3789763779527559
20
0.6302755905511811
11
0.3789763779527559
21
0.6853937007874016
0
LINE
8
BLACK
6
CONTINUOUS
10
0.3789763779527559
20
0.6853937007874016
11
0.379425905511811
21
0.6876536614173229
0
LINE
8
BLACK
6
CONTINUOUS
10
0.379425905511811
20
0.6876536614173229
11
0.3807060629921259
21
0.6895695275590551
0
LINE
8
BLACK
6
CONTINUOUS
10
0.3807060629921259
20
0.6895695275590551
11
0.3826219291338583
21
0.6908496850393701
0
LINE
8
BLACK
6
CONTINUOUS
10
0.3826219291338583
20
0.6908496850393701
11
0.3848818897637795
21
0.6912992125984252
0
LINE
8
BLACK
6
CONTINUOUS
10
0.3848818897637795
20
0.6912992125984252
11
0.3966929133858267
21
0.6912992125984252
0
LINE
8
BLACK
6
CONTINUOUS
10
0.3966929133858267
20
0.6912992125984252
11
0.398952874015748
21
0.6908496850393701
0
LINE
8
BLACK
6
CONTINUOUS
10
0.4481654724409448
20
0.6908496850393701
11
0.4500813385826772
21
0.6895695275590551
0
LINE
8
BLACK
6
CONTINUOUS
10
0.4500813385826772
20
0.6895695275590551
11
0.4513614960629921
21
0.6876536614173229
0
LINE
8
BLACK
6
CONTINUOUS
10
0.4513614960629921
20
0.6876536614173229
11
0.4518110236220472
21
0.6853937007874016
0
LINE
8
BLACK
6
CONTINUOUS
10
0.4518110236220472
20
0.6853937007874016
11
0.4518110236220472
21
0.6302755905511811
0
LINE
8
BLACK
6
CONTINUOUS
10
0.4518110236220472
20
0.6302755905511811
11
0.4513614960629921
21
0.6280156299212598
0
LINE
8
BLACK
6
CONTINUOUS
10
0.4513614960629921
20
0.6280156299212598
11
0.4500813385826772
21
0.6260997637795276
0
LINE
8
BLACK
6
CONTINUOUS
10
0.4500813385826772
20
0.6260997637795276
11
0.4481654724409448
21
0.6248196062992126
0
LINE
8
BLACK
6
CONTINUOUS
10
0.4481654724409448
20
0.6248196062992126
11
0.4459055118110236
21
0.6243700787401575
0
LINE
8
BLACK
6
CONTINUOUS
10
0.4459055118110236
20
0.6243700787401575
11
0.4340944881889764
21
0.6243700787401575
0
LINE
8
BLACK
6
CONTINUOUS
10
0.4340944881889764
20
0.6243700787401575
11
0.4318345275590551
21
0.6248196062992126
0
LINE
8
BLACK
6
CONTINUOUS
10
0.4318345275590551
20
0.6248196062992126
11
0.4299186614173228
21
0.6260997637795276
0
LINE
8
BLACK
6
CONTINUOUS
10
0.4299186614173228
20
0.6260997637795276
11
0.4286385039370079
21
0.6280156299212598
0
LINE
8
BLACK
6
CONTINUOUS
10
0.4286385039370079
20
0.6280156299212598
11
0.4281889763779527
21
0.6302755905511811
0
LINE
8
BLACK
6
CONTINUOUS
10
0.4281889763779527
20
0.6302755905511811
11
0.4281889763779527
21
0.6853937007874016
0
LINE
8
BLACK
6
CONTINUOUS
10
0.4281889763779527
20
0.6853937007874016
11
0.4286385039370079
21
0.6876536614173229
0
LINE
8
BLACK
6
CONTINUOUS
10
0.4286385039370079
20
0.6876536614173229
11
0.4299186614173228
21
0.6895695275590551
0
LINE
8
BLACK
6
CONTINUOUS
10
0.4299186614173228
20
0.6895695275590551
11
0.4318345275590551
21
0.6908496850393701
0
LINE
8
BLACK
6
CONTINUOUS
10
0.4318345275590551
20
0.6908496850393701
11
0.4340944881889764
21
0.6912992125984252
0
LINE
8
BLACK
6
CONTINUOUS
10
0.4340944881889764
20
0.6912992125984252
11
0.4459055118110236
21
0.6912992125984252
0
LINE
8
BLACK
6
CONTINUOUS
10
0.4459055118110236
20
0.6912992125984252
11
0.4481654724409448
21
0.6908496850393701
0
LINE
8
BLACK
6
CONTINUOUS
10
0.4973780708661417
20
0.6908496850393701
11
0.499293937007874
21
0.6895695275590551
0
LINE
8
BLACK
6
CONTINUOUS
10
0.499293937007874
20
0.6895695275590551
11
0.500574094488189
21
0.6876536614173229
0
LINE
8
BLACK
6
CONTINUOUS
10
0.500574094488189
20
0.6876536614173229
11
0.501023622047244
21
0.6853937007874016
0
LINE
8
BLACK
6
CONTINUOUS
10
0.501023622047244
20
0.6853937007874016
11
0.501023622047244
21
0.6302755905511811
0
LINE
8
BLACK
6
CONTINUOUS
10
0.501023622047244
20
0.6302755905511811
11
0.500574094488189
21
0.6280156299212598
0
LINE
8
BLACK
6
CONTINUOUS
10
0.500574094488189
20
0.6280156299212598
11
0.499293937007874
21
0.6260997637795276
0
LINE
8
BLACK
6
CONTINUOUS
10
0.499293937007874
20
0.6260997637795276
11
0.4973780708661417
21
0.6248196062992126
0
LINE
8
BLACK
6
CONTINUOUS
10
0.4973780708661417
20
0.6248196062992126
11
0.4951181102362205
21
0.6243700787401575
0
LINE
8
BLACK
6
CONTINUOUS
10
0.4951181102362205
20
0.6243700787401575
11
0.4833070866141732
21
0.6243700787401575
0
LINE
8
BLACK
6
CONTINUOUS
10
0.4833070866141732
20
0.6243700787401575
11
0.481047125984252
21
0.6248196062992126
0
LINE
8
BLACK
6
CONTINUOUS
10
0.481047125984252
20
0.6248196062992126
11
0.4791312598425197
21
0.6260997637795276
0
LINE
8
BLACK
6
CONTINUOUS
10
0.4791312598425197
20
0.6260997637795276
11
0.4778511023622047
21
0.6280156299212598
0
LINE
8
BLACK
6
CONTINUOUS
10
0.4778511023622047
20
0.6280156299212598
11
0.4774015748031496
21
0.6302755905511811
0
LINE
8
BLACK
6
CONTINUOUS
10
0.4774015748031496
20
0.6302755905511811
11
0.4774015748031496
21
0.6853937007874016
0
LINE
8
BLACK
6
CONTINUOUS
10
0.4774015748031496
20
0.6853937007874016
11
0.4778511023622047
21
0.6876536614173229
0
LINE
8
BLACK
6
CONTINUOUS
10
0.4778511023622047
20
0.6876536614173229
11
0.4791312598425197
21
0.6895695275590551
0
LINE
8
BLACK
6
CONTINUOUS
10
0.4791312598425197
20
0.6895695275590551
11
0.481047125984252
21
0.6908496850393701
0
LINE
8
BLACK
6
CONTINUOUS
10
0.481047125984252
20
0.6908496850393701
11
0.4833070866141732
21
0.6912992125984252
0
LINE
8
BLACK
6
CONTINUOUS
10
0.4833070866141732
20
0.6912992125984252
11
0.4951181102362205
21
0.6912992125984252
0
LINE
8
BLACK
6
CONTINUOUS
10
0.4951181102362205
20
0.6912992125984252
11
0.4973780708661417
21
0.6908496850393701
0
LINE
8
BLACK
6
CONTINUOUS
10
0.5465906692913386
20
0.6908496850393701
11
0.5485065354330708
21
0.6895695275590551
0
LINE
8
BLACK
6
CONTINUOUS
10
0.5485065354330708
20
0.6895695275590551
11
0.5497866929133858
21
0.6876536614173229
0
LINE
8
BLACK
6
CONTINUOUS
10
0.5497866929133858
20
0.6876536614173229
11
0.5502362204724409
21
0.6853937007874016
0
LINE
8
BLACK
6
CONTINUOUS
10
0.5502362204724409
20
0.6853937007874016
11
0.5502362204724409
21
0.6302755905511811
0
LINE
8
BLACK
6
CONTINUOUS
10
0.5502362204724409
20
0.6302755905511811
11
0.5497866929133858
21
0.6280156299212598
0
LINE
8
BLACK
6
CONTINUOUS
10
0.5497866929133858
20
0.6280156299212598
11
0.5485065354330708
21
0.6260997637795276
0
LINE
8
BLACK
6
CONTINUOUS
10
0.5485065354330708
20
0.6260997637795276
11
0.5465906692913386
21
0.6248196062992126
0
LINE
8
BLACK
6
CONTINUOUS
10
0.5465906692913386
20
0.6248196062992126
11
0.5443307086614173
21
0.6243700787401575
0
LINE
8
BLACK
6
CONTINUOUS
10
0.5443307086614173
20
0.6243700787401575
11
0.5325196850393701
21
0.6243700787401575
0
LINE
8
BLACK
6
CONTINUOUS
10
0.5325196850393701
20
0.6243700787401575
11
0.5302597244094488
21
0.6248196062992126
0
LINE
8
BLACK
6
CONTINUOUS
10
0.5302597244094488
20
0.6248196062992126
11
0.5283438582677166
21
0.6260997637795276
0
LINE
8
BLACK
6
CONTINUOUS
10
0.5283438582677166
20
0.6260997637795276
11
0.5270637007874016
21
0.6280156299212598
0
LINE
8
BLACK
6
CONTINUOUS
10
0.5270637007874016
20
0.6280156299212598
11
0.5266141732283465
21
0.6302755905511811
0
LINE
8
BLACK
6
CONTINUOUS
10
0.5266141732283465
20
0.6302755905511811
11
0.5266141732283465
21
0.6853937007874016
0
LINE
8
BLACK
6
CONTINUOUS
10
0.5266141732283465
20
0.6853937007874016
11
0.5270637007874016
21
0.6876536614173229
0
LINE
8
BLACK
6
CONTINUOUS
10
0.5270637007874016
20
0.6876536614173229
11
0.5283438582677166
21
0.6895695275590551
0
LINE
8
BLACK
6
CONTINUOUS
10
0.5283438582677166
20
0.6895695275590551
11
0.5302597244094488
21
0.6908496850393701
0
LINE
8
BLACK
6
CONTINUOUS
10
0.5302597244094488
20
0.6908496850393701
11
0.5325196850393701
21
0.6912992125984252
0
LINE
8
BLACK
6
CONTINUOUS
10
0.5325196850393701
20
0.6912992125984252
11
0.5443307086614173
21
0.6912992125984252
0
LINE
8
BLACK
6
CONTINUOUS
10
0.5443307086614173
20
0.6912992125984252
11
0.5465906692913386
21
0.6908496850393701
0
LINE
8
BLACK
6
CONTINUOUS
10
0.5958032677165355
20
0.6908496850393701
11
0.5977191338582677
21
0.6895695275590551
0
LINE
8
BLACK
6
CONTINUOUS
10
0.5977191338582677
20
0.6895695275590551
11
0.5989992913385827
21
0.6876536614173229
0
LINE
8
BLACK
6
CONTINUOUS
10
0.5989992913385827
20
0.6876536614173229
11
0.5994488188976378
21
0.6853937007874016
0
LINE
8
BLACK
6
CONTINUOUS
10
0.5994488188976378
20
0.6853937007874016
11
0.5994488188976378
21
0.6302755905511811
0
LINE
8
BLACK
6
CONTINUOUS
10
0.5994488188976378
20
0.6302755905511811
11
0.5989992913385827
21
0.6280156299212598
0
LINE
8
BLACK
6
CONTINUOUS
10
0.5989992913385827
20
0.6280156299212598
11
0.5977191338582677
21
0.6260997637795276
0
LINE
8
BLACK
6
CONTINUOUS
10
0.5977191338582677
20
0.6260997637795276
11
0.5958032677165355
21
0.6248196062992126
0
LINE
8
BLACK
6
CONTINUOUS
10
0.5958032677165355
20
0.6248196062992126
11
0.5935433070866142
21
0.6243700787401575
0
LINE
8
BLACK
6
CONTINUOUS
10
0.5935433070866142
20
0.6243700787401575
11
0.581732283464567
21
0.6243700787401575
0
LINE
8
BLACK
6
CONTINUOUS
10
0.581732283464567
20
0.6243700787401575
11
0.5794723228346457
21
0.6248196062992126
0
LINE
8
BLACK
6
CONTINUOUS
10
0.5794723228346457
20
0.6248196062992126
11
0.5775564566929133
21
0.6260997637795276
0
LINE
8
BLACK
6
CONTINUOUS
10
0.5775564566929133
20
0.6260997637795276
11
0.5762762992125984
21
0.6280156299212598
0
LINE
8
BLACK
6
CONTINUOUS
10
0.5762762992125984
20
0.6280156299212598
11
0.5758267716535433
21
0.6302755905511811
0
LINE
8
BLACK
6
CONTINUOUS
10
0.5758267716535433
20
0.6302755905511811
11
0.5758267716535433
21
0.6853937007874016
0
LINE
8
BLACK
6
CONTINUOUS
10
0.5758267716535433
20
0.6853937007874016
11
0.5762762992125984
21
0.6876536614173229
0
LINE
8
BLACK
6
CONTINUOUS
10
0.5762762992125984
20
0.6876536614173229
11
0.5775564566929133
21
0.6895695275590551
0
LINE
8
BLACK
6
CONTINUOUS
10
0.5775564566929133
20
0.6895695275590551
11
0.5794723228346457
21
0.6908496850393701
0
LINE
8
BLACK
6
CONTINUOUS
10
0.5794723228346457
20
0.6908496850393701
11
0.581732283464567
21
0.6912992125984252
0
LINE
8
BLACK
6
CONTINUOUS
10
0.581732283464567
20
0.6912992125984252
11
0.5935433070866142
21
0.6912992125984252
0
LINE
8
BLACK
6
CONTINUOUS
10
0.5935433070866142
20
0.6912992125984252
11
0.5958032677165355
21
0.6908496850393701
0
LINE
8
BLACK
6
CONTINUOUS
10
1.5027200787401573
20
0.8754246062992126
11
1.5101056299212599
21
0.8731842519685039
0
LINE
8
BLACK
6
CONTINUOUS
10
1.5101056299212599
20
0.8731842519685039
11
1.5169122047244095
21
0.869546062992126
0
LINE
8
BLACK
6
CONTINUOUS
10
1.5169122047244095
20
0.869546062992126
11
1.5228782283464566
21
0.8646498818897638
0
LINE
8
BLACK
6
CONTINUOUS
10
1.5228782283464566
20
0.8646498818897638
11
1.5277744094488188
21
0.8586838582677165
0
LINE
8
BLACK
6
CONTINUOUS
10
1.5277744094488188
20
0.8586838582677165
11
1.5314125984251967
21
0.8518772834645669
0
LINE
8
BLACK
6
CONTINUOUS
10
1.5314125984251967
20
0.8518772834645669
11
1.5336529527559055
21
0.8444917322834645
0
LINE
8
BLACK
6
CONTINUOUS
10
1.5336529527559055
20
0.8444917322834645
11
1.5344094488188975
21
0.8368110236220472
0
LINE
8
BLACK
6
CONTINUOUS
10
1.5344094488188975
20
0.8368110236220472
11
1.5336529527559055
21
0.8291303149606299
0
LINE
8
BLACK
6
CONTINUOUS
10
1.5336529527559055
20
0.8291303149606299
11
1.5314125984251967
21
0.8217447637795275
0
LINE
8
BLACK
6
CONTINUOUS
10
1.5314125984251967
20
0.8217447637795275
11
1.5277744094488188
21
0.8149381889763779
0
LINE
8
BLACK
6
CONTINUOUS
10
1.5277744094488188
20
0.8149381889763779
11
1.5228782283464566
21
0.8089721653543307
0
LINE
8
BLACK
6
CONTINUOUS
10
1.5228782283464566
20
0.8089721653543307
11
1.5169122047244095
21
0.8040759842519685
0
LINE
8
BLACK
6
CONTINUOUS
10
1.5169122047244095
20
0.8040759842519685
11
1.5101056299212599
21
0.8004377952755906
0
LINE
8
BLACK
6
CONTINUOUS
10
1.5101056299212599
20
0.8004377952755906
11
1.5027200787401573
21
0.7981974409448819
0
LINE
8
BLACK
6
CONTINUOUS
10
1.5027200787401573
20
0.7981974409448819
11
1.4950393700787401
21
0.7974409448818898
0
LINE
8
BLACK
6
CONTINUOUS
10
1.4950393700787401
20
0.7974409448818898
11
1.4873586614173229
21
0.7981974409448819
0
LINE
8
BLACK
6
CONTINUOUS
10
1.4873586614173229
20
0.7981974409448819
11
1.4799731102362204
21
0.8004377952755906
0
LINE
8
BLACK
6
CONTINUOUS
10
1.4799731102362204
20
0.8004377952755906
11
1.4731665354330707
21
0.8040759842519685
0
LINE
8
BLACK
6
CONTINUOUS
10
1.4731665354330707
20
0.8040759842519685
11
1.4672005118110236
21
0.8089721653543307
0
LINE
8
BLACK
6
CONTINUOUS
10
1.4672005118110236
20
0.8089721653543307
11
1.4623043307086614
21
0.8149381889763779
0
LINE
8
BLACK
6
CONTINUOUS
10
1.4623043307086614
20
0.8149381889763779
11
1.4586661417322835
21
0.8217447637795275
0
LINE
8
BLACK
6
CONTINUOUS
10
1.4586661417322835
20
0.8217447637795275
11
1.4564257874015747
21
0.8291303149606299
0
LINE
8
BLACK
6
CONTINUOUS
10
1.4564257874015747
20
0.8291303149606299
11
1.4556692913385827
21
0.8368110236220472
0
LINE
8
BLACK
6
CONTINUOUS
10
1.4556692913385827
20
0.8368110236220472
11
1.4564257874015747
21
0.8444917322834645
0
LINE
8
BLACK
6
CONTINUOUS
10
1.4564257874015747
20
0.8444917322834645
11
1.4586661417322835
21
0.8518772834645669
0
LINE
8
BLACK
6
CONTINUOUS
10
1.4586661417322835
20
0.8518772834645669
11
1.4623043307086614
21
0.8586838582677165
0
LINE
8
BLACK
6
CONTINUOUS
10
1.4623043307086614
20
0.8586838582677165
11
1.4672005118110236
21
0.8646498818897638
0
LINE
8
BLACK
6
CONTINUOUS
10
1.4672005118110236
20
0.8646498818897638
11
1.4731665354330707
21
0.869546062992126
0
LINE
8
BLACK
6
CONTINUOUS
10
1.4731665354330707
20
0.869546062992126
11
1.4799731102362204
21
0.8731842519685039
0
LINE
8
BLACK
6
CONTINUOUS
10
1.4799731102362204
20
0.8731842519685039
11
1.4873586614173229
21
0.8754246062992126
0
LINE
8
BLACK
6
CONTINUOUS
10
1.4873586614173229
20
0.8754246062992126
11
1.4950393700787401
21
0.8761811023622047
0
LINE
8
BLACK
6
CONTINUOUS
10
1.4950393700787401
20
0.8761811023622047
11
1.5027200787401573
21
0.8754246062992126
0
LINE
8
BLACK
6
CONTINUOUS
10
-2.0313385826771655
20
0.8080708661417323
11
-2.1415748031496062
21
0.8080708661417323
0
LINE
8
BLACK
6
CONTINUOUS
10
-2.1415748031496062
20
0.8080708661417323
11
-2.1415748031496062
21
0.8671259842519685
0
LINE
8
BLACK
6
CONTINUOUS
10
-2.1415748031496062
20
0.8671259842519685
11
-2.0313385826771655
21
0.8671259842519685
0
LINE
8
BLACK
6
CONTINUOUS
10
-2.0313385826771655
20
0.8671259842519685
11
-2.0313385826771655
21
0.8080708661417323
0
LINE
8
BLACK
6
CONTINUOUS
10
-0.8295275590551181
20
0.8754724409448819
11
-0.8511811023622047
21
0.8754724409448819
0
LINE
8
BLACK
6
CONTINUOUS
10
-0.8511811023622047
20
0.8754724409448819
11
-0.8511811023622047
21
0.8756727952755905
0
LINE
8
BLACK
6
CONTINUOUS
10
-0.8511811023622047
20
0.8756727952755905
11
-0.8539825590551181
21
0.8756727952755905
0
LINE
8
BLACK
6
CONTINUOUS
10
-0.8539825590551181
20
0.8756727952755905
11
-0.8593585826771654
21
0.8772513385826771
0
LINE
8
BLACK
6
CONTINUOUS
10
-0.8593585826771654
20
0.8772513385826771
11
-0.8640720472440945
21
0.8802805118110236
0
LINE
8
BLACK
6
CONTINUOUS
10
-0.8640720472440945
20
0.8802805118110236
11
-0.867741220472441
21
0.8845149606299212
0
LINE
8
BLACK
6
CONTINUOUS
10
-0.867741220472441
20
0.8845149606299212
11
-0.8700687401574803
21
0.8896115748031496
0
LINE
8
BLACK
6
CONTINUOUS
10
-0.8700687401574803
20
0.8896115748031496
11
-0.8708661417322835
21
0.8951574803149606
0
LINE
8
BLACK
6
CONTINUOUS
10
-0.8708661417322835
20
0.8951574803149606
11
-0.8708661417322835
21
0.9148425196850394
0
LINE
8
BLACK
6
CONTINUOUS
10
-0.8708661417322835
20
0.9148425196850394
11
-0.8700687401574803
21
0.9203884251968504
0
LINE
8
BLACK
6
CONTINUOUS
10
-0.8700687401574803
20
0.9203884251968504
11
-0.867741220472441
21
0.9254850393700788
0
LINE
8
BLACK
6
CONTINUOUS
10
-0.867741220472441
20
0.9254850393700788
11
-0.8640720472440945
21
0.9297194881889763
0
LINE
8
BLACK
6
CONTINUOUS
10
-0.8640720472440945
20
0.9297194881889763
11
-0.8593585826771654
21
0.9327486614173228
0
LINE
8
BLACK
6
CONTINUOUS
10
-0.8593585826771654
20
0.9327486614173228
11
-0.8539825590551181
21
0.9343272047244094
0
LINE
8
BLACK
6
CONTINUOUS
10
-0.8539825590551181
20
0.9343272047244094
11
-0.8511811023622047
21
0.9343272047244094
0
LINE
8
BLACK
6
CONTINUOUS
10
-0.8511811023622047
20
0.9343272047244094
11
-0.8511811023622047
21
0.9345275590551181
0
LINE
8
BLACK
6
CONTINUOUS
10
-0.8511811023622047
20
0.9345275590551181
11
-0.8295275590551181
21
0.9345275590551181
0
LINE
8
BLACK
6
CONTINUOUS
10
-0.8295275590551181
20
0.9345275590551181
11
-0.8295275590551181
21
0.8754724409448819
0
LINE
8
BLACK
6
CONTINUOUS
10
-0.7803149606299212
20
0.8754724409448819
11
-0.8196850393700787
21
0.8754724409448819
0
LINE
8
BLACK
6
CONTINUOUS
10
-0.8196850393700787
20
0.8754724409448819
11
-0.8196850393700787
21
0.9345275590551181
0
LINE
8
BLACK
6
CONTINUOUS
10
-0.8196850393700787
20
0.9345275590551181
11
-0.7803149606299212
21
0.9345275590551181
0
LINE
8
BLACK
6
CONTINUOUS
10
-0.7803149606299212
20
0.9345275590551181
11
-0.7803149606299212
21
0.8754724409448819
0
LINE
8
BLACK
6
CONTINUOUS
10
-0.7488188976377953
20
0.9343272047244094
11
-0.7460174409448819
21
0.9343272047244094
0
LINE
8
BLACK
6
CONTINUOUS
10
-0.7460174409448819
20
0.9343272047244094
11
-0.7406414173228346
21
0.9327486614173228
0
LINE
8
BLACK
6
CONTINUOUS
10
-0.7406414173228346
20
0.9327486614173228
11
-0.7359279527559055
21
0.9297194881889763
0
LINE
8
BLACK
6
CONTINUOUS
10
-0.7359279527559055
20
0.9297194881889763
11
-0.732258779527559
21
0.9254850393700788
0
LINE
8
BLACK
6
CONTINUOUS
10
-0.732258779527559
20
0.9254850393700788
11
-0.7299312598425197
21
0.9203884251968504
0
LINE
8
BLACK
6
CONTINUOUS
10
-0.7299312598425197
20
0.9203884251968504
11
-0.7291338582677165
21
0.9148425196850394
0
LINE
8
BLACK
6
CONTINUOUS
10
-0.7291338582677165
20
0.9148425196850394
11
-0.7291338582677165
21
0.8951574803149606
0
LINE
8
BLACK
6
CONTINUOUS
10
-0.7291338582677165
20
0.8951574803149606
11
-0.7299312598425197
21
0.8896115748031496
0
LINE
8
BLACK
6
CONTINUOUS
10
-0.7299312598425197
20
0.8896115748031496
11
-0.732258779527559
21
0.8845149606299212
0
LINE
8
BLACK
6
CONTINUOUS
10
-0.732258779527559
20
0.8845149606299212
11
-0.7359279527559055
21
0.8802805118110236
0
LINE
8
BLACK
6
CONTINUOUS
10
-0.7359279527559055
20
0.8802805118110236
11
-0.7406414173228346
21
0.8772513385826771
0
LINE
8
BLACK
6
CONTINUOUS
10
-0.7406414173228346
20
0.8772513385826771
11
-0.7460174409448819
21
0.8756727952755905
0
LINE
8
BLACK
6
CONTINUOUS
10
-0.7460174409448819
20
0.8756727952755905
11
-0.7488188976377953
21
0.8756727952755905
0
LINE
8
BLACK
6
CONTINUOUS
10
-0.7488188976377953
20
0.8756727952755905
11
-0.7488188976377953
21
0.8754724409448819
0
LINE
8
BLACK
6
CONTINUOUS
10
-0.7488188976377953
20
0.8754724409448819
11
-0.7704724409448819
21
0.8754724409448819
0
LINE
8
BLACK
6
CONTINUOUS
10
-0.7704724409448819
20
0.8754724409448819
11
-0.7704724409448819
21
0.9345275590551181
0
LINE
8
BLACK
6
CONTINUOUS
10
-0.7704724409448819
20
0.9345275590551181
11
-0.7488188976377953
21
0.9345275590551181
0
LINE
8
BLACK
6
CONTINUOUS
10
-0.7488188976377953
20
0.9345275590551181
11
-0.7488188976377953
21
0.9343272047244094
0
LINE
8
BLACK
6
CONTINUOUS
10
-1.1848818897637794
20
0.8946850393700787
11
-1.2951181102362204
21
0.8946850393700787
0
LINE
8
BLACK
6
CONTINUOUS
10
-1.2951181102362204
20
0.8946850393700787
11
-1.2951181102362204
21
0.9537401574803149
0
LINE
8
BLACK
6
CONTINUOUS
10
-1.2951181102362204
20
0.9537401574803149
11
-1.1848818897637794
21
0.9537401574803149
0
LINE
8
BLACK
6
CONTINUOUS
10
-1.1848818897637794
20
0.9537401574803149
11
-1.1848818897637794
21
0.8946850393700787
0
LINE
8
BLACK
6
CONTINUOUS
10
0.4092913385826771
20
0.9654724409448818
11
0.3876377952755906
21
0.9654724409448818
0
LINE
8
BLACK
6
CONTINUOUS
10
0.3876377952755906
20
0.9654724409448818
11
0.3876377952755906
21
0.9656727952755906
0
LINE
8
BLACK
6
CONTINUOUS
10
0.3876377952755906
20
0.9656727952755906
11
0.3848363385826772
21
0.9656727952755906
0
LINE
8
BLACK
6
CONTINUOUS
10
0.3848363385826772
20
0.9656727952755906
11
0.3794603149606299
21
0.9672513385826771
0
LINE
8
BLACK
6
CONTINUOUS
10
0.3794603149606299
20
0.9672513385826771
11
0.3747468503937008
21
0.9702805118110236
0
LINE
8
BLACK
6
CONTINUOUS
10
0.3747468503937008
20
0.9702805118110236
11
0.3710776771653543
21
0.9745149606299213
0
LINE
8
BLACK
6
CONTINUOUS
10
0.3710776771653543
20
0.9745149606299213
11
0.368750157480315
21
0.9796115748031495
0
LINE
8
BLACK
6
CONTINUOUS
10
0.368750157480315
20
0.9796115748031495
11
0.3679527559055118
21
0.9851574803149606
0
LINE
8
BLACK
6
CONTINUOUS
10
0.3679527559055118
20
0.9851574803149606
11
0.3679527559055118
21
1.0048425196850392
0
LINE
8
BLACK
6
CONTINUOUS
10
0.3679527559055118
20
1.0048425196850392
11
0.368750157480315
21
1.0103884251968505
0
LINE
8
BLACK
6
CONTINUOUS
10
0.368750157480315
20
1.0103884251968505
11
0.3710776771653543
21
1.0154850393700787
0
LINE
8
BLACK
6
CONTINUOUS
10
0.3710776771653543
20
1.0154850393700787
11
0.3747468503937008
21
1.0197194881889764
0
LINE
8
BLACK
6
CONTINUOUS
10
0.3747468503937008
20
1.0197194881889764
11
0.3794603149606299
21
1.0227486614173229
0
LINE
8
BLACK
6
CONTINUOUS
10
0.3794603149606299
20
1.0227486614173229
11
0.3848363385826772
21
1.0243272047244094
0
LINE
8
BLACK
6
CONTINUOUS
10
0.3848363385826772
20
1.0243272047244094
11
0.3876377952755906
21
1.0243272047244094
0
LINE
8
BLACK
6
CONTINUOUS
10
0.3876377952755906
20
1.0243272047244094
11
0.3876377952755906
21
1.0245275590551182
0
LINE
8
BLACK
6
CONTINUOUS
10
0.3876377952755906
20
1.0245275590551182
11
0.4092913385826771
21
1.0245275590551182
0
LINE
8
BLACK
6
CONTINUOUS
10
0.4092913385826771
20
1.0245275590551182
11
0.4092913385826771
21
0.9654724409448818
0
LINE
8
BLACK
6
CONTINUOUS
10
0.458503937007874
20
0.9654724409448818
11
0.4191338582677165
21
0.9654724409448818
0
LINE
8
BLACK
6
CONTINUOUS
10
0.4191338582677165
20
0.9654724409448818
11
0.4191338582677165
21
1.0245275590551182
0
LINE
8
BLACK
6
CONTINUOUS
10
0.4191338582677165
20
1.0245275590551182
11
0.458503937007874
21
1.0245275590551182
0
LINE
8
BLACK
6
CONTINUOUS
10
0.458503937007874
20
1.0245275590551182
11
0.458503937007874
21
0.9654724409448818
0
LINE
8
BLACK
6
CONTINUOUS
10
0.49
20
1.0243272047244094
11
0.4928014566929134
21
1.0243272047244094
0
LINE
8
BLACK
6
CONTINUOUS
10
0.4928014566929134
20
1.0243272047244094
11
0.4981774803149606
21
1.0227486614173229
0
LINE
8
BLACK
6
CONTINUOUS
10
0.4981774803149606
20
1.0227486614173229
11
0.5028909448818898
21
1.0197194881889764
0
LINE
8
BLACK
6
CONTINUOUS
10
0.5028909448818898
20
1.0197194881889764
11
0.5065601181102362
21
1.0154850393700787
0
LINE
8
BLACK
6
CONTINUOUS
10
0.5065601181102362
20
1.0154850393700787
11
0.5088876377952756
21
1.0103884251968505
0
LINE
8
BLACK
6
CONTINUOUS
10
0.5088876377952756
20
1.0103884251968505
11
0.5096850393700787
21
1.0048425196850392
0
LINE
8
BLACK
6
CONTINUOUS
10
0.5096850393700787
20
1.0048425196850392
11
0.5096850393700787
21
0.9851574803149606
0
LINE
8
BLACK
6
CONTINUOUS
10
0.5096850393700787
20
0.9851574803149606
11
0.5088876377952756
21
0.9796115748031495
0
LINE
8
BLACK
6
CONTINUOUS
10
0.5088876377952756
20
0.9796115748031495
11
0.5065601181102362
21
0.9745149606299213
0
LINE
8
BLACK
6
CONTINUOUS
10
0.5065601181102362
20
0.9745149606299213
11
0.5028909448818898
21
0.9702805118110236
0
LINE
8
BLACK
6
CONTINUOUS
10
0.5028909448818898
20
0.9702805118110236
11
0.4981774803149606
21
0.9672513385826771
0
LINE
8
BLACK
6
CONTINUOUS
10
0.4981774803149606
20
0.9672513385826771
11
0.4928014566929134
21
0.9656727952755906
0
LINE
8
BLACK
6
CONTINUOUS
10
0.4928014566929134
20
0.9656727952755906
11
0.49
21
0.9656727952755906
0
LINE
8
BLACK
6
CONTINUOUS
10
0.49
20
0.9656727952755906
11
0.49
21
0.9654724409448818
0
LINE
8
BLACK
6
CONTINUOUS
10
0.49
20
0.9654724409448818
11
0.4683464566929134
21
0.9654724409448818
0
LINE
8
BLACK
6
CONTINUOUS
10
0.4683464566929134
20
0.9654724409448818
11
0.4683464566929134
21
1.0245275590551182
0
LINE
8
BLACK
6
CONTINUOUS
10
0.4683464566929134
20
1.0245275590551182
11
0.49
21
1.0245275590551182
0
LINE
8
BLACK
6
CONTINUOUS
10
0.49
20
1.0245275590551182
11
0.49
21
1.0243272047244094
0
LINE
8
BLACK
6
CONTINUOUS
10
0.6216535433070866
20
0.9654724409448818
11
0.6
21
0.9654724409448818
0
LINE
8
BLACK
6
CONTINUOUS
10
0.6
20
0.9654724409448818
11
0.6
21
0.9656727952755906
0
LINE
8
BLACK
6
CONTINUOUS
10
0.6
20
0.9656727952755906
11
0.5971985433070865
21
0.9656727952755906
0
LINE
8
BLACK
6
CONTINUOUS
10
0.5971985433070865
20
0.9656727952755906
11
0.5918225196850394
21
0.9672513385826771
0
LINE
8
BLACK
6
CONTINUOUS
10
0.5918225196850394
20
0.9672513385826771
11
0.5871090551181102
21
0.9702805118110236
0
LINE
8
BLACK
6
CONTINUOUS
10
0.5871090551181102
20
0.9702805118110236
11
0.5834398818897638
21
0.9745149606299213
0
LINE
8
BLACK
6
CONTINUOUS
10
0.5834398818897638
20
0.9745149606299213
11
0.5811123622047244
21
0.9796115748031495
0
LINE
8
BLACK
6
CONTINUOUS
10
0.5811123622047244
20
0.9796115748031495
11
0.5803149606299213
21
0.9851574803149606
0
LINE
8
BLACK
6
CONTINUOUS
10
0.5803149606299213
20
0.9851574803149606
11
0.5803149606299213
21
1.0048425196850392
0
LINE
8
BLACK
6
CONTINUOUS
10
0.5803149606299213
20
1.0048425196850392
11
0.5811123622047244
21
1.0103884251968505
0
LINE
8
BLACK
6
CONTINUOUS
10
0.5811123622047244
20
1.0103884251968505
11
0.5834398818897638
21
1.0154850393700787
0
LINE
8
BLACK
6
CONTINUOUS
10
0.5834398818897638
20
1.0154850393700787
11
0.5871090551181102
21
1.0197194881889764
0
LINE
8
BLACK
6
CONTINUOUS
10
0.5871090551181102
20
1.0197194881889764
11
0.5918225196850394
21
1.0227486614173229
0
LINE
8
BLACK
6
CONTINUOUS
10
0.5918225196850394
20
1.0227486614173229
11
0.5971985433070865
21
1.0243272047244094
0
LINE
8
BLACK
6
CONTINUOUS
10
0.5971985433070865
20
1.0243272047244094
11
0.6
21
1.0243272047244094
0
LINE
8
BLACK
6
CONTINUOUS
10
0.6
20
1.0243272047244094
11
0.6
21
1.0245275590551182
0
LINE
8
BLACK
6
CONTINUOUS
10
0.6
20
1.0245275590551182
11
0.6216535433070866
21
1.0245275590551182
0
LINE
8
BLACK
6
CONTINUOUS
10
0.6216535433070866
20
1.0245275590551182
11
0.6216535433070866
21
0.9654724409448818
0
LINE
8
BLACK
6
CONTINUOUS
10
0.6708661417322834
20
0.9654724409448818
11
0.631496062992126
21
0.9654724409448818
0
LINE
8
BLACK
6
CONTINUOUS
10
0.631496062992126
20
0.9654724409448818
11
0.631496062992126
21
1.0245275590551182
0
LINE
8
BLACK
6
CONTINUOUS
10
0.631496062992126
20
1.0245275590551182
11
0.6708661417322834
21
1.0245275590551182
0
LINE
8
BLACK
6
CONTINUOUS
10
0.6708661417322834
20
1.0245275590551182
11
0.6708661417322834
21
0.9654724409448818
0
LINE
8
BLACK
6
CONTINUOUS
10
0.7023622047244095
20
1.0243272047244094
11
0.7051636614173228
21
1.0243272047244094
0
LINE
8
BLACK
6
CONTINUOUS
10
0.7051636614173228
20
1.0243272047244094
11
0.71053968503937
21
1.0227486614173229
0
LINE
8
BLACK
6
CONTINUOUS
10
0.71053968503937
20
1.0227486614173229
11
0.7152531496062992
21
1.0197194881889764
0
LINE
8
BLACK
6
CONTINUOUS
10
0.7152531496062992
20
1.0197194881889764
11
0.7189223228346456
21
1.0154850393700787
0
LINE
8
BLACK
6
CONTINUOUS
10
0.7189223228346456
20
1.0154850393700787
11
0.721249842519685
21
1.0103884251968505
0
LINE
8
BLACK
6
CONTINUOUS
10
0.721249842519685
20
1.0103884251968505
11
0.7220472440944882
21
1.0048425196850392
0
LINE
8
BLACK
6
CONTINUOUS
10
0.7220472440944882
20
1.0048425196850392
11
0.7220472440944882
21
0.9851574803149606
0
LINE
8
BLACK
6
CONTINUOUS
10
0.7220472440944882
20
0.9851574803149606
11
0.721249842519685
21
0.9796115748031495
0
LINE
8
BLACK
6
CONTINUOUS
10
0.721249842519685
20
0.9796115748031495
11
0.7189223228346456
21
0.9745149606299213
0
LINE
8
BLACK
6
CONTINUOUS
10
0.7189223228346456
20
0.9745149606299213
11
0.7152531496062992
21
0.9702805118110236
0
LINE
8
BLACK
6
CONTINUOUS
10
0.7152531496062992
20
0.9702805118110236
11
0.71053968503937
21
0.9672513385826771
0
LINE
8
BLACK
6
CONTINUOUS
10
0.71053968503937
20
0.9672513385826771
11
0.7051636614173228
21
0.9656727952755906
0
LINE
8
BLACK
6
CONTINUOUS
10
0.7051636614173228
20
0.9656727952755906
11
0.7023622047244095
21
0.9656727952755906
0
LINE
8
BLACK
6
CONTINUOUS
10
0.7023622047244095
20
0.9656727952755906
11
0.7023622047244095
21
0.9654724409448818
0
LINE
8
BLACK
6
CONTINUOUS
10
0.7023622047244095
20
0.9654724409448818
11
0.6807086614173228
21
0.9654724409448818
0
LINE
8
BLACK
6
CONTINUOUS
10
0.6807086614173228
20
0.9654724409448818
11
0.6807086614173228
21
1.0245275590551182
0
LINE
8
BLACK
6
CONTINUOUS
10
0.6807086614173228
20
1.0245275590551182
11
0.7023622047244095
21
1.0245275590551182
0
LINE
8
BLACK
6
CONTINUOUS
10
0.7023622047244095
20
1.0245275590551182
11
0.7023622047244095
21
1.0243272047244094
0
LINE
8
BLACK
6
CONTINUOUS
10
-1.2723615354330708
20
1.0316906299212598
11
-1.2657044488188975
21
1.0293612204724409
0
LINE
8
BLACK
6
CONTINUOUS
10
-1.2657044488188975
20
1.0293612204724409
11
-1.2597325984251968
21
1.0256088582677165
0
LINE
8
BLACK
6
CONTINUOUS
10
-1.2597325984251968
20
1.0256088582677165
11
-1.2547454724409448
21
1.0206217322834645
0
LINE
8
BLACK
6
CONTINUOUS
10
-1.2547454724409448
20
1.0206217322834645
11
-1.2509931102362204
21
1.0146498818897638
0
LINE
8
BLACK
6
CONTINUOUS
10
-1.2509931102362204
20
1.0146498818897638
11
-1.2486637007874015
21
1.0079927952755905
0
LINE
8
BLACK
6
CONTINUOUS
10
-1.2486637007874015
20
1.0079927952755905
11
-1.2478740157480315
21
1.0009842519685039
0
LINE
8
BLACK
6
CONTINUOUS
10
-1.2478740157480315
20
1.0009842519685039
11
-1.2486637007874015
21
0.9939757086614173
0
LINE
8
BLACK
6
CONTINUOUS
10
-1.2486637007874015
20
0.9939757086614173
11
-1.2509931102362204
21
0.9873186220472441
0
LINE
8
BLACK
6
CONTINUOUS
10
-1.2509931102362204
20
0.9873186220472441
11
-1.2547454724409448
21
0.9813467716535433
0
LINE
8
BLACK
6
CONTINUOUS
10
-1.2547454724409448
20
0.9813467716535433
11
-1.2597325984251968
21
0.9763596456692913
0
LINE
8
BLACK
6
CONTINUOUS
10
-1.2597325984251968
20
0.9763596456692913
11
-1.2657044488188975
21
0.9726072834645669
0
LINE
8
BLACK
6
CONTINUOUS
10
-1.2657044488188975
20
0.9726072834645669
11
-1.2723615354330708
21
0.9702778740157481
0
LINE
8
BLACK
6
CONTINUOUS
10
-1.2723615354330708
20
0.9702778740157481
11
-1.2793700787401574
21
0.9694881889763779
0
LINE
8
BLACK
6
CONTINUOUS
10
-1.2793700787401574
20
0.9694881889763779
11
-1.286378622047244
21
0.9702778740157481
0
LINE
8
BLACK
6
CONTINUOUS
10
-1.286378622047244
20
0.9702778740157481
11
-1.2930357086614173
21
0.9726072834645669
0
LINE
8
BLACK
6
CONTINUOUS
10
-1.2930357086614173
20
0.9726072834645669
11
-1.299007559055118
21
0.9763596456692913
0
LINE
8
BLACK
6
CONTINUOUS
10
-1.299007559055118
20
0.9763596456692913
11
-1.30399468503937
21
0.9813467716535433
0
LINE
8
BLACK
6
CONTINUOUS
10
-1.30399468503937
20
0.9813467716535433
11
-1.3077470472440944
21
0.9873186220472441
0
LINE
8
BLACK
6
CONTINUOUS
10
-1.3077470472440944
20
0.9873186220472441
11
-1.3100764566929133
21
0.9939757086614173
0
LINE
8
BLACK
6
CONTINUOUS
10
-1.3100764566929133
20
0.9939757086614173
11
-1.3108661417322833
21
1.0009842519685039
0
LINE
8
BLACK
6
CONTINUOUS
10
-1.3108661417322833
20
1.0009842519685039
11
-1.3100764566929133
21
1.0079927952755905
0
LINE
8
BLACK
6
CONTINUOUS
10
-1.3100764566929133
20
1.0079927952755905
11
-1.3077470472440944
21
1.0146498818897638
0
LINE
8
BLACK
6
CONTINUOUS
10
-1.3077470472440944
20
1.0146498818897638
11
-1.30399468503937
21
1.0206217322834645
0
LINE
8
BLACK
6
CONTINUOUS
10
-1.30399468503937
20
1.0206217322834645
11
-1.299007559055118
21
1.0256088582677165
0
LINE
8
BLACK
6
CONTINUOUS
10
-1.299007559055118
20
1.0256088582677165
11
-1.2930357086614173
21
1.0293612204724409
0
LINE
8
BLACK
6
CONTINUOUS
10
-1.2930357086614173
20
1.0293612204724409
11
-1.286378622047244
21
1.0316906299212598
0
LINE
8
BLACK
6
CONTINUOUS
10
-1.286378622047244
20
1.0316906299212598
11
-1.2793700787401574
21
1.0324803149606299
0
LINE
8
BLACK
6
CONTINUOUS
10
-1.2793700787401574
20
1.0324803149606299
11
-1.2723615354330708
21
1.0316906299212598
0
LINE
8
BLACK
6
CONTINUOUS
10
-1.1396062992125984
20
0.9862204724409449
11
-1.1986614173228347
21
0.9862204724409449
0
LINE
8
BLACK
6
CONTINUOUS
10
-1.1986614173228347
20
0.9862204724409449
11
-1.1986614173228347
21
1.0255905511811023
0
LINE
8
BLACK
6
CONTINUOUS
10
-1.1986614173228347
20
1.0255905511811023
11
-1.1396062992125984
21
1.0255905511811023
0
LINE
8
BLACK
6
CONTINUOUS
10
-1.1396062992125984
20
1.0255905511811023
11
-1.1396062992125984
21
0.9862204724409449
0
LINE
8
BLACK
6
CONTINUOUS
10
-1.1396062992125984
20
1.0846456692913387
11
-1.1986614173228347
21
1.0846456692913387
0
LINE
8
BLACK
6
CONTINUOUS
10
-1.1986614173228347
20
1.0846456692913387
11
-1.1986614173228347
21
1.1240157480314961
0
LINE
8
BLACK
6
CONTINUOUS
10
-1.1986614173228347
20
1.1240157480314961
11
-1.1396062992125984
21
1.1240157480314961
0
LINE
8
BLACK
6
CONTINUOUS
10
-1.1396062992125984
20
1.1240157480314961
11
-1.1396062992125984
21
1.0846456692913387
0
LINE
8
BLACK
6
CONTINUOUS
10
0.0492913385826772
20
1.1454724409448818
11
0.0276377952755906
21
1.1454724409448818
0
LINE
8
BLACK
6
CONTINUOUS
10
0.0276377952755906
20
1.1454724409448818
11
0.0276377952755906
21
1.1456727952755905
0
LINE
8
BLACK
6
CONTINUOUS
10
0.0276377952755906
20
1.1456727952755905
11
0.0248363385826772
21
1.1456727952755905
0
LINE
8
BLACK
6
CONTINUOUS
10
0.0248363385826772
20
1.1456727952755905
11
0.0194603149606299
21
1.1472513385826772
0
LINE
8
BLACK
6
CONTINUOUS
10
0.0194603149606299
20
1.1472513385826772
11
0.0147468503937008
21
1.1502805118110235
0
LINE
8
BLACK
6
CONTINUOUS
10
0.0147468503937008
20
1.1502805118110235
11
0.0110776771653543
21
1.1545149606299212
0
LINE
8
BLACK
6
CONTINUOUS
10
0.0110776771653543
20
1.1545149606299212
11
0.008750157480315
21
1.1596115748031495
0
LINE
8
BLACK
6
CONTINUOUS
10
0.008750157480315
20
1.1596115748031495
11
0.0079527559055118
21
1.1651574803149607
0
LINE
8
BLACK
6
CONTINUOUS
10
0.0079527559055118
20
1.1651574803149607
11
0.0079527559055118
21
1.1848425196850394
0
LINE
8
BLACK
6
CONTINUOUS
10
0.0079527559055118
20
1.1848425196850394
11
0.008750157480315
21
1.1903884251968504
0
LINE
8
BLACK
6
CONTINUOUS
10
0.008750157480315
20
1.1903884251968504
11
0.0110776771653543
21
1.1954850393700787
0
LINE
8
BLACK
6
CONTINUOUS
10
0.0110776771653543
20
1.1954850393700787
11
0.0147468503937008
21
1.1997194881889763
0
LINE
8
BLACK
6
CONTINUOUS
10
0.0147468503937008
20
1.1997194881889763
11
0.0194603149606299
21
1.2027486614173228
0
LINE
8
BLACK
6
CONTINUOUS
10
0.0194603149606299
20
1.2027486614173228
11
0.0248363385826772
21
1.2043272047244094
0
LINE
8
BLACK
6
CONTINUOUS
10
0.0248363385826772
20
1.2043272047244094
11
0.0276377952755906
21
1.2043272047244094
0
LINE
8
BLACK
6
CONTINUOUS
10
0.0276377952755906
20
1.2043272047244094
11
0.0276377952755906
21
1.2045275590551181
0
LINE
8
BLACK
6
CONTINUOUS
10
0.0276377952755906
20
1.2045275590551181
11
0.0492913385826772
21
1.2045275590551181
0
LINE
8
BLACK
6
CONTINUOUS
10
0.0492913385826772
20
1.2045275590551181
11
0.0492913385826772
21
1.1454724409448818
0
LINE
8
BLACK
6
CONTINUOUS
10
0.098503937007874
20
1.1454724409448818
11
0.0591338582677165
21
1.1454724409448818
0
LINE
8
BLACK
6
CONTINUOUS
10
0.0591338582677165
20
1.1454724409448818
11
0.0591338582677165
21
1.2045275590551181
0
LINE
8
BLACK
6
CONTINUOUS
10
0.0591338582677165
20
1.2045275590551181
11
0.098503937007874
21
1.2045275590551181
0
LINE
8
BLACK
6
CONTINUOUS
10
0.098503937007874
20
1.2045275590551181
11
0.098503937007874
21
1.1454724409448818
0
LINE
8
BLACK
6
CONTINUOUS
10
0.13
20
1.2043272047244094
11
0.1328014566929134
21
1.2043272047244094
0
LINE
8
BLACK
6
CONTINUOUS
10
0.1328014566929134
20
1.2043272047244094
11
0.1381774803149606
21
1.2027486614173228
0
LINE
8
BLACK
6
CONTINUOUS
10
0.1381774803149606
20
1.2027486614173228
11
0.1428909448818897
21
1.1997194881889763
0
LINE
8
BLACK
6
CONTINUOUS
10
0.1428909448818897
20
1.1997194881889763
11
0.1465601181102362
21
1.1954850393700787
0
LINE
8
BLACK
6
CONTINUOUS
10
0.1465601181102362
20
1.1954850393700787
11
0.1488876377952756
21
1.1903884251968504
0
LINE
8
BLACK
6
CONTINUOUS
10
0.1488876377952756
20
1.1903884251968504
11
0.1496850393700787
21
1.1848425196850394
0
LINE
8
BLACK
6
CONTINUOUS
10
0.1496850393700787
20
1.1848425196850394
11
0.1496850393700787
21
1.1651574803149607
0
LINE
8
BLACK
6
CONTINUOUS
10
0.1496850393700787
20
1.1651574803149607
11
0.1488876377952756
21
1.1596115748031495
0
LINE
8
BLACK
6
CONTINUOUS
10
0.1488876377952756
20
1.1596115748031495
11
0.1465601181102362
21
1.1545149606299212
0
LINE
8
BLACK
6
CONTINUOUS
10
0.1465601181102362
20
1.1545149606299212
11
0.1428909448818897
21
1.1502805118110235
0
LINE
8
BLACK
6
CONTINUOUS
10
0.1428909448818897
20
1.1502805118110235
11
0.1381774803149606
21
1.1472513385826772
0
LINE
8
BLACK
6
CONTINUOUS
10
0.1381774803149606
20
1.1472513385826772
11
0.1328014566929134
21
1.1456727952755905
0
LINE
8
BLACK
6
CONTINUOUS
10
0.1328014566929134
20
1.1456727952755905
11
0.13
21
1.1456727952755905
0
LINE
8
BLACK
6
CONTINUOUS
10
0.13
20
1.1456727952755905
11
0.13
21
1.1454724409448818
0
LINE
8
BLACK
6
CONTINUOUS
10
0.13
20
1.1454724409448818
11
0.1083464566929134
21
1.1454724409448818
0
LINE
8
BLACK
6
CONTINUOUS
10
0.1083464566929134
20
1.1454724409448818
11
0.1083464566929134
21
1.2045275590551181
0
LINE
8
BLACK
6
CONTINUOUS
10
0.1083464566929134
20
1.2045275590551181
11
0.13
21
1.2045275590551181
0
LINE
8
BLACK
6
CONTINUOUS
10
0.13
20
1.2045275590551181
11
0.13
21
1.2043272047244094
0
LINE
8
BLACK
6
CONTINUOUS
10
-1.1396062992125984
20
1.1830708661417322
11
-1.1986614173228347
21
1.1830708661417322
0
LINE
8
BLACK
6
CONTINUOUS
10
-1.1986614173228347
20
1.1830708661417322
11
-1.1986614173228347
21
1.2224409448818898
0
LINE
8
BLACK
6
CONTINUOUS
10
-1.1986614173228347
20
1.2224409448818898
11
-1.1396062992125984
21
1.2224409448818898
0
LINE
8
BLACK
6
CONTINUOUS
10
-1.1396062992125984
20
1.2224409448818898
11
-1.1396062992125984
21
1.1830708661417322
0
LINE
8
BLACK
6
CONTINUOUS
10
-1.1396062992125984
20
1.2814960629921259
11
-1.1986614173228347
21
1.2814960629921259
0
LINE
8
BLACK
6
CONTINUOUS
10
-1.1986614173228347
20
1.2814960629921259
11
-1.1986614173228347
21
1.3208661417322833
0
LINE
8
BLACK
6
CONTINUOUS
10
-1.1986614173228347
20
1.3208661417322833
11
-1.1396062992125984
21
1.3208661417322833
0
LINE
8
BLACK
6
CONTINUOUS
10
-1.1396062992125984
20
1.3208661417322833
11
-1.1396062992125984
21
1.2814960629921259
0
LINE
8
BLACK
6
CONTINUOUS
10
-1.1396062992125984
20
1.3799212598425197
11
-1.1986614173228347
21
1.3799212598425197
0
LINE
8
BLACK
6
CONTINUOUS
10
-1.1986614173228347
20
1.3799212598425197
11
-1.1986614173228347
21
1.4192913385826771
0
LINE
8
BLACK
6
CONTINUOUS
10
-1.1986614173228347
20
1.4192913385826771
11
-1.1396062992125984
21
1.4192913385826771
0
LINE
8
BLACK
6
CONTINUOUS
10
-1.1396062992125984
20
1.4192913385826771
11
-1.1396062992125984
21
1.3799212598425197
0
LINE
8
BLACK
6
CONTINUOUS
10
1.2100393700787402
20
1.4654724409448818
11
1.1687007874015747
21
1.4654724409448818
0
LINE
8
BLACK
6
CONTINUOUS
10
1.1687007874015747
20
1.4654724409448818
11
1.1687007874015747
21
1.5245275590551182
0
LINE
8
BLACK
6
CONTINUOUS
10
1.1687007874015747
20
1.5245275590551182
11
1.2100393700787402
21
1.5245275590551182
0
LINE
8
BLACK
6
CONTINUOUS
10
1.2100393700787402
20
1.5245275590551182
11
1.2100393700787402
21
1.4654724409448818
0
LINE
8
BLACK
6
CONTINUOUS
10
1.2472798818897637
20
1.5229542125984252
11
1.2519527559055117
21
1.5202563385826771
0
LINE
8
BLACK
6
CONTINUOUS
10
1.2519527559055117
20
1.5202563385826771
11
1.2557681496062991
21
1.5164409448818896
0
LINE
8
BLACK
6
CONTINUOUS
10
1.2557681496062991
20
1.5164409448818896
11
1.2584660236220473
21
1.5117680708661416
0
LINE
8
BLACK
6
CONTINUOUS
10
1.2584660236220473
20
1.5117680708661416
11
1.259862559055118
21
1.5065561417322835
0
LINE
8
BLACK
6
CONTINUOUS
10
1.259862559055118
20
1.5065561417322835
11
1.2600393700787402
21
1.5038582677165353
0
LINE
8
BLACK
6
CONTINUOUS
10
1.2600393700787402
20
1.5038582677165353
11
1.2600393700787402
21
1.4861417322834645
0
LINE
8
BLACK
6
CONTINUOUS
10
1.2600393700787402
20
1.4861417322834645
11
1.259862559055118
21
1.4834438582677165
0
LINE
8
BLACK
6
CONTINUOUS
10
1.259862559055118
20
1.4834438582677165
11
1.2584660236220473
21
1.4782319291338581
0
LINE
8
BLACK
6
CONTINUOUS
10
1.2584660236220473
20
1.4782319291338581
11
1.2557681496062991
21
1.4735590551181101
0
LINE
8
BLACK
6
CONTINUOUS
10
1.2557681496062991
20
1.4735590551181101
11
1.2519527559055117
21
1.4697436614173227
0
LINE
8
BLACK
6
CONTINUOUS
10
1.2519527559055117
20
1.4697436614173227
11
1.2472798818897637
21
1.4670457874015748
0
LINE
8
BLACK
6
CONTINUOUS
10
1.2472798818897637
20
1.4670457874015748
11
1.2420679527559055
21
1.4656492519685038
0
LINE
8
BLACK
6
CONTINUOUS
10
1.2420679527559055
20
1.4656492519685038
11
1.2366722047244094
21
1.4656492519685038
0
LINE
8
BLACK
6
CONTINUOUS
10
1.2366722047244094
20
1.4656492519685038
11
1.231460275590551
21
1.4670457874015748
0
LINE
8
BLACK
6
CONTINUOUS
10
1.231460275590551
20
1.4670457874015748
11
1.226787401574803
21
1.4697436614173227
0
LINE
8
BLACK
6
CONTINUOUS
10
1.226787401574803
20
1.4697436614173227
11
1.2229720078740156
21
1.4735590551181101
0
LINE
8
BLACK
6
CONTINUOUS
10
1.2229720078740156
20
1.4735590551181101
11
1.2202741338582677
21
1.4782319291338581
0
LINE
8
BLACK
6
CONTINUOUS
10
1.2202741338582677
20
1.4782319291338581
11
1.2188775984251967
21
1.4834438582677165
0
LINE
8
BLACK
6
CONTINUOUS
10
1.2188775984251967
20
1.4834438582677165
11
1.2187007874015747
21
1.4861417322834645
0
LINE
8
BLACK
6
CONTINUOUS
10
1.2187007874015747
20
1.4861417322834645
11
1.2187007874015747
21
1.5038582677165353
0
LINE
8
BLACK
6
CONTINUOUS
10
1.2187007874015747
20
1.5038582677165353
11
1.2188775984251967
21
1.5065561417322835
0
LINE
8
BLACK
6
CONTINUOUS
10
1.2188775984251967
20
1.5065561417322835
11
1.2202741338582677
21
1.5117680708661416
0
LINE
8
BLACK
6
CONTINUOUS
10
1.2202741338582677
20
1.5117680708661416
11
1.2229720078740156
21
1.5164409448818896
0
LINE
8
BLACK
6
CONTINUOUS
10
1.2229720078740156
20
1.5164409448818896
11
1.226787401574803
21
1.5202563385826771
0
LINE
8
BLACK
6
CONTINUOUS
10
1.226787401574803
20
1.5202563385826771
11
1.231460275590551
21
1.5229542125984252
0
LINE
8
BLACK
6
CONTINUOUS
10
1.231460275590551
20
1.5229542125984252
11
1.2366722047244094
21
1.524350748031496
0
LINE
8
BLACK
6
CONTINUOUS
10
1.2366722047244094
20
1.524350748031496
11
1.2420679527559055
21
1.524350748031496
0
LINE
8
BLACK
6
CONTINUOUS
10
1.2420679527559055
20
1.524350748031496
11
1.2472798818897637
21
1.5229542125984252
0
LINE
8
BLACK
6
CONTINUOUS
10
1.2972798818897637
20
1.5229542125984252
11
1.3019527559055117
21
1.5202563385826771
0
LINE
8
BLACK
6
CONTINUOUS
10
1.3019527559055117
20
1.5202563385826771
11
1.3057681496062992
21
1.5164409448818896
0
LINE
8
BLACK
6
CONTINUOUS
10
1.3057681496062992
20
1.5164409448818896
11
1.3084660236220471
21
1.5117680708661416
0
LINE
8
BLACK
6
CONTINUOUS
10
1.3084660236220471
20
1.5117680708661416
11
1.3098625590551181
21
1.5065561417322835
0
LINE
8
BLACK
6
CONTINUOUS
10
1.3098625590551181
20
1.5065561417322835
11
1.3100393700787401
21
1.5038582677165353
0
LINE
8
BLACK
6
CONTINUOUS
10
1.3100393700787401
20
1.5038582677165353
11
1.3100393700787401
21
1.4861417322834645
0
LINE
8
BLACK
6
CONTINUOUS
10
1.3100393700787401
20
1.4861417322834645
11
1.3098625590551181
21
1.4834438582677165
0
LINE
8
BLACK
6
CONTINUOUS
10
1.3098625590551181
20
1.4834438582677165
11
1.3084660236220471
21
1.4782319291338581
0
LINE
8
BLACK
6
CONTINUOUS
10
1.3084660236220471
20
1.4782319291338581
11
1.3057681496062992
21
1.4735590551181101
0
LINE
8
BLACK
6
CONTINUOUS
10
1.3057681496062992
20
1.4735590551181101
11
1.3019527559055117
21
1.4697436614173227
0
LINE
8
BLACK
6
CONTINUOUS
10
1.3019527559055117
20
1.4697436614173227
11
1.2972798818897637
21
1.4670457874015748
0
LINE
8
BLACK
6
CONTINUOUS
10
1.2972798818897637
20
1.4670457874015748
11
1.2920679527559056
21
1.4656492519685038
0
LINE
8
BLACK
6
CONTINUOUS
10
1.2920679527559056
20
1.4656492519685038
11
1.2866722047244095
21
1.4656492519685038
0
LINE
8
BLACK
6
CONTINUOUS
10
1.2866722047244095
20
1.4656492519685038
11
1.2814602755905511
21
1.4670457874015748
0
LINE
8
BLACK
6
CONTINUOUS
10
1.2814602755905511
20
1.4670457874015748
11
1.2767874015748031
21
1.4697436614173227
0
LINE
8
BLACK
6
CONTINUOUS
10
1.2767874015748031
20
1.4697436614173227
11
1.2729720078740157
21
1.4735590551181101
0
LINE
8
BLACK
6
CONTINUOUS
10
1.2729720078740157
20
1.4735590551181101
11
1.2702741338582677
21
1.4782319291338581
0
LINE
8
BLACK
6
CONTINUOUS
10
1.2702741338582677
20
1.4782319291338581
11
1.2688775984251968
21
1.4834438582677165
0
LINE
8
BLACK
6
CONTINUOUS
10
1.2688775984251968
20
1.4834438582677165
11
1.2687007874015748
21
1.4861417322834645
0
LINE
8
BLACK
6
CONTINUOUS
10
1.2687007874015748
20
1.4861417322834645
11
1.2687007874015748
21
1.5038582677165353
0
LINE
8
BLACK
6
CONTINUOUS
10
1.2687007874015748
20
1.5038582677165353
11
1.2688775984251968
21
1.5065561417322835
0
LINE
8
BLACK
6
CONTINUOUS
10
1.2688775984251968
20
1.5065561417322835
11
1.2702741338582677
21
1.5117680708661416
0
LINE
8
BLACK
6
CONTINUOUS
10
1.2702741338582677
20
1.5117680708661416
11
1.2729720078740157
21
1.5164409448818896
0
LINE
8
BLACK
6
CONTINUOUS
10
1.2729720078740157
20
1.5164409448818896
11
1.2767874015748031
21
1.5202563385826771
0
LINE
8
BLACK
6
CONTINUOUS
10
1.2767874015748031
20
1.5202563385826771
11
1.2814602755905511
21
1.5229542125984252
0
LINE
8
BLACK
6
CONTINUOUS
10
1.2814602755905511
20
1.5229542125984252
11
1.2866722047244095
21
1.524350748031496
0
LINE
8
BLACK
6
CONTINUOUS
10
1.2866722047244095
20
1.524350748031496
11
1.2920679527559056
21
1.524350748031496
0
LINE
8
BLACK
6
CONTINUOUS
10
1.2920679527559056
20
1.524350748031496
11
1.2972798818897637
21
1.5229542125984252
0
LINE
8
BLACK
6
CONTINUOUS
10
-1.1396062992125984
20
1.4783464566929134
11
-1.1986614173228347
21
1.4783464566929134
0
LINE
8
BLACK
6
CONTINUOUS
10
-1.1986614173228347
20
1.4783464566929134
11
-1.1986614173228347
21
1.5177165354330708
0
LINE
8
BLACK
6
CONTINUOUS
10
-1.1986614173228347
20
1.5177165354330708
11
-1.1396062992125984
21
1.5177165354330708
0
LINE
8
BLACK
6
CONTINUOUS
10
-1.1396062992125984
20
1.5177165354330708
11
-1.1396062992125984
21
1.4783464566929134
0
LINE
8
BLACK
6
CONTINUOUS
10
1.6299999999999999
20
1.4949999999999999
11
1.5700000000000001
21
1.4949999999999999
0
LINE
8
BLACK
6
CONTINUOUS
10
1.5700000000000001
20
1.4949999999999999
11
1.5700000000000001
21
1.5549999999999999
0
LINE
8
BLACK
6
CONTINUOUS
10
1.5700000000000001
20
1.5549999999999999
11
1.6299999999999999
21
1.5549999999999999
0
LINE
8
BLACK
6
CONTINUOUS
10
1.6299999999999999
20
1.5549999999999999
11
1.6299999999999999
21
1.4949999999999999
0
LINE
8
BLACK
6
CONTINUOUS
10
1.73
20
1.4949999999999999
11
1.6699999999999999
21
1.4949999999999999
0
LINE
8
BLACK
6
CONTINUOUS
10
1.6699999999999999
20
1.4949999999999999
11
1.6699999999999999
21
1.5549999999999999
0
LINE
8
BLACK
6
CONTINUOUS
10
1.6699999999999999
20
1.5549999999999999
11
1.73
21
1.5549999999999999
0
LINE
8
BLACK
6
CONTINUOUS
10
1.73
20
1.5549999999999999
11
1.73
21
1.4949999999999999
0
LINE
8
BLACK
6
CONTINUOUS
10
-1.1396062992125984
20
1.576771653543307
11
-1.1986614173228347
21
1.576771653543307
0
LINE
8
BLACK
6
CONTINUOUS
10
-1.1986614173228347
20
1.576771653543307
11
-1.1986614173228347
21
1.6161417322834646
0
LINE
8
BLACK
6
CONTINUOUS
10
-1.1986614173228347
20
1.6161417322834646
11
-1.1396062992125984
21
1.6161417322834646
0
LINE
8
BLACK
6
CONTINUOUS
10
-1.1396062992125984
20
1.6161417322834646
11
-1.1396062992125984
21
1.576771653543307
0
LINE
8
BLACK
6
CONTINUOUS
10
1.6299999999999999
20
1.595
11
1.5700000000000001
21
1.595
0
LINE
8
BLACK
6
CONTINUOUS
10
1.5700000000000001
20
1.595
11
1.5700000000000001
21
1.655
0
LINE
8
BLACK
6
CONTINUOUS
10
1.5700000000000001
20
1.655
11
1.6299999999999999
21
1.655
0
LINE
8
BLACK
6
CONTINUOUS
10
1.6299999999999999
20
1.655
11
1.6299999999999999
21
1.595
0
LINE
8
BLACK
6
CONTINUOUS
10
1.73
20
1.595
11
1.6699999999999999
21
1.595
0
LINE
8
BLACK
6
CONTINUOUS
10
1.6699999999999999
20
1.595
11
1.6699999999999999
21
1.655
0
LINE
8
BLACK
6
CONTINUOUS
10
1.6699999999999999
20
1.655
11
1.73
21
1.655
0
LINE
8
BLACK
6
CONTINUOUS
10
1.73
20
1.655
11
1.73
21
1.595
0
LINE
8
BLACK
6
CONTINUOUS
10
-1.1396062992125984
20
1.6724409448818898
11
-1.1986614173228347
21
1.6724409448818898
0
LINE
8
BLACK
6
CONTINUOUS
10
-1.1986614173228347
20
1.6724409448818898
11
-1.1986614173228347
21
1.7118110236220472
0
LINE
8
BLACK
6
CONTINUOUS
10
-1.1986614173228347
20
1.7118110236220472
11
-1.1396062992125984
21
1.7118110236220472
0
LINE
8
BLACK
6
CONTINUOUS
10
-1.1396062992125984
20
1.7118110236220472
11
-1.1396062992125984
21
1.6724409448818898
0
LINE
8
BLACK
6
CONTINUOUS
10
1.6299999999999999
20
1.6950000000000001
11
1.5700000000000001
21
1.6950000000000001
0
LINE
8
BLACK
6
CONTINUOUS
10
1.5700000000000001
20
1.6950000000000001
11
1.5700000000000001
21
1.7549999999999999
0
LINE
8
BLACK
6
CONTINUOUS
10
1.5700000000000001
20
1.7549999999999999
11
1.6299999999999999
21
1.7549999999999999
0
LINE
8
BLACK
6
CONTINUOUS
10
1.6299999999999999
20
1.7549999999999999
11
1.6299999999999999
21
1.6950000000000001
0
LINE
8
BLACK
6
CONTINUOUS
10
1.73
20
1.6950000000000001
11
1.6699999999999999
21
1.6950000000000001
0
LINE
8
BLACK
6
CONTINUOUS
10
1.6699999999999999
20
1.6950000000000001
11
1.6699999999999999
21
1.7549999999999999
0
LINE
8
BLACK
6
CONTINUOUS
10
1.6699999999999999
20
1.7549999999999999
11
1.73
21
1.7549999999999999
0
LINE
8
BLACK
6
CONTINUOUS
10
1.73
20
1.7549999999999999
11
1.73
21
1.6950000000000001
0
LINE
8
BLACK
6
CONTINUOUS
10
-1.1396062992125984
20
1.7393700787401574
11
-1.1986614173228347
21
1.7393700787401574
0
LINE
8
BLACK
6
CONTINUOUS
10
-1.1986614173228347
20
1.7393700787401574
11
-1.1986614173228347
21
1.778740157480315
0
LINE
8
BLACK
6
CONTINUOUS
10
-1.1986614173228347
20
1.778740157480315
11
-1.1396062992125984
21
1.778740157480315
0
LINE
8
BLACK
6
CONTINUOUS
10
-1.1396062992125984
20
1.778740157480315
11
-1.1396062992125984
21
1.7393700787401574
0
LINE
8
BLACK
6
CONTINUOUS
10
-0.9769291338582677
20
1.746496062992126
11
-1.0369291338582678
21
1.746496062992126
0
LINE
8
BLACK
6
CONTINUOUS
10
-1.0369291338582678
20
1.746496062992126
11
-1.0369291338582678
21
1.8064960629921258
0
LINE
8
BLACK
6
CONTINUOUS
10
-1.0369291338582678
20
1.8064960629921258
11
-0.9769291338582677
21
1.8064960629921258
0
LINE
8
BLACK
6
CONTINUOUS
10
-0.9769291338582677
20
1.8064960629921258
11
-0.9769291338582677
21
1.746496062992126
0
LINE
8
BLACK
6
CONTINUOUS
10
-0.8769291338582677
20
1.746496062992126
11
-0.9369291338582677
21
1.746496062992126
0
LINE
8
BLACK
6
CONTINUOUS
10
-0.9369291338582677
20
1.746496062992126
11
-0.9369291338582677
21
1.8064960629921258
0
LINE
8
BLACK
6
CONTINUOUS
10
-0.9369291338582677
20
1.8064960629921258
11
-0.8769291338582677
21
1.8064960629921258
0
LINE
8
BLACK
6
CONTINUOUS
10
-0.8769291338582677
20
1.8064960629921258
11
-0.8769291338582677
21
1.746496062992126
0
LINE
8
BLACK
6
CONTINUOUS
10
1.2100393700787402
20
1.7494881889763778
11
1.1687007874015747
21
1.7494881889763778
0
LINE
8
BLACK
6
CONTINUOUS
10
1.1687007874015747
20
1.7494881889763778
11
1.1687007874015747
21
1.8085433070866141
0
LINE
8
BLACK
6
CONTINUOUS
10
1.1687007874015747
20
1.8085433070866141
11
1.2100393700787402
21
1.8085433070866141
0
LINE
8
BLACK
6
CONTINUOUS
10
1.2100393700787402
20
1.8085433070866141
11
1.2100393700787402
21
1.7494881889763778
0
LINE
8
BLACK
6
CONTINUOUS
10
1.2472798818897637
20
1.8069699606299212
11
1.2519527559055117
21
1.8042720866141733
0
LINE
8
BLACK
6
CONTINUOUS
10
1.2519527559055117
20
1.8042720866141733
11
1.2557681496062991
21
1.8004566929133858
0
LINE
8
BLACK
6
CONTINUOUS
10
1.2557681496062991
20
1.8004566929133858
11
1.2584660236220473
21
1.7957838188976378
0
LINE
8
BLACK
6
CONTINUOUS
10
1.2584660236220473
20
1.7957838188976378
11
1.259862559055118
21
1.7905718897637795
0
LINE
8
BLACK
6
CONTINUOUS
10
1.259862559055118
20
1.7905718897637795
11
1.2600393700787402
21
1.7878740157480315
0
LINE
8
BLACK
6
CONTINUOUS
10
1.2600393700787402
20
1.7878740157480315
11
1.2600393700787402
21
1.7701574803149607
0
LINE
8
BLACK
6
CONTINUOUS
10
1.2600393700787402
20
1.7701574803149607
11
1.259862559055118
21
1.7674596062992125
0
LINE
8
BLACK
6
CONTINUOUS
10
1.259862559055118
20
1.7674596062992125
11
1.2584660236220473
21
1.7622476771653544
0
LINE
8
BLACK
6
CONTINUOUS
10
1.2584660236220473
20
1.7622476771653544
11
1.2557681496062991
21
1.7575748031496063
0
LINE
8
BLACK
6
CONTINUOUS
10
1.2557681496062991
20
1.7575748031496063
11
1.2519527559055117
21
1.7537594094488189
0
LINE
8
BLACK
6
CONTINUOUS
10
1.2519527559055117
20
1.7537594094488189
11
1.2472798818897637
21
1.7510615354330707
0
LINE
8
BLACK
6
CONTINUOUS
10
1.2472798818897637
20
1.7510615354330707
11
1.2420679527559055
21
1.749665
0
LINE
8
BLACK
6
CONTINUOUS
10
1.2420679527559055
20
1.749665
11
1.2366722047244094
21
1.749665
0
LINE
8
BLACK
6
CONTINUOUS
10
1.2366722047244094
20
1.749665
11
1.231460275590551
21
1.7510615354330707
0
LINE
8
BLACK
6
CONTINUOUS
10
1.231460275590551
20
1.7510615354330707
11
1.226787401574803
21
1.7537594094488189
0
LINE
8
BLACK
6
CONTINUOUS
10
1.226787401574803
20
1.7537594094488189
11
1.2229720078740156
21
1.7575748031496063
0
LINE
8
BLACK
6
CONTINUOUS
10
1.2229720078740156
20
1.7575748031496063
11
1.2202741338582677
21
1.7622476771653544
0
LINE
8
BLACK
6
CONTINUOUS
10
1.2202741338582677
20
1.7622476771653544
11
1.2188775984251967
21
1.7674596062992125
0
LINE
8
BLACK
6
CONTINUOUS
10
1.2188775984251967
20
1.7674596062992125
11
1.2187007874015747
21
1.7701574803149607
0
LINE
8
BLACK
6
CONTINUOUS
10
1.2187007874015747
20
1.7701574803149607
11
1.2187007874015747
21
1.7878740157480315
0
LINE
8
BLACK
6
CONTINUOUS
10
1.2187007874015747
20
1.7878740157480315
11
1.2188775984251967
21
1.7905718897637795
0
LINE
8
BLACK
6
CONTINUOUS
10
1.2188775984251967
20
1.7905718897637795
11
1.2202741338582677
21
1.7957838188976378
0
LINE
8
BLACK
6
CONTINUOUS
10
1.2202741338582677
20
1.7957838188976378
11
1.2229720078740156
21
1.8004566929133858
0
LINE
8
BLACK
6
CONTINUOUS
10
1.2229720078740156
20
1.8004566929133858
11
1.226787401574803
21
1.8042720866141733
0
LINE
8
BLACK
6
CONTINUOUS
10
1.226787401574803
20
1.8042720866141733
11
1.231460275590551
21
1.8069699606299212
0
LINE
8
BLACK
6
CONTINUOUS
10
1.231460275590551
20
1.8069699606299212
11
1.2366722047244094
21
1.8083664960629922
0
LINE
8
BLACK
6
CONTINUOUS
10
1.2366722047244094
20
1.8083664960629922
11
1.2420679527559055
21
1.8083664960629922
0
LINE
8
BLACK
6
CONTINUOUS
10
1.2420679527559055
20
1.8083664960629922
11
1.2472798818897637
21
1.8069699606299212
0
LINE
8
BLACK
6
CONTINUOUS
10
1.2972798818897637
20
1.8069699606299212
11
1.3019527559055117
21
1.8042720866141733
0
LINE
8
BLACK
6
CONTINUOUS
10
1.3019527559055117
20
1.8042720866141733
11
1.3057681496062992
21
1.8004566929133858
0
LINE
8
BLACK
6
CONTINUOUS
10
1.3057681496062992
20
1.8004566929133858
11
1.3084660236220471
21
1.7957838188976378
0
LINE
8
BLACK
6
CONTINUOUS
10
1.3084660236220471
20
1.7957838188976378
11
1.3098625590551181
21
1.7905718897637795
0
LINE
8
BLACK
6
CONTINUOUS
10
1.3098625590551181
20
1.7905718897637795
11
1.3100393700787401
21
1.7878740157480315
0
LINE
8
BLACK
6
CONTINUOUS
10
1.3100393700787401
20
1.7878740157480315
11
1.3100393700787401
21
1.7701574803149607
0
LINE
8
BLACK
6
CONTINUOUS
10
1.3100393700787401
20
1.7701574803149607
11
1.3098625590551181
21
1.7674596062992125
0
LINE
8
BLACK
6
CONTINUOUS
10
1.3098625590551181
20
1.7674596062992125
11
1.3084660236220471
21
1.7622476771653544
0
LINE
8
BLACK
6
CONTINUOUS
10
1.3084660236220471
20
1.7622476771653544
11
1.3057681496062992
21
1.7575748031496063
0
LINE
8
BLACK
6
CONTINUOUS
10
1.3057681496062992
20
1.7575748031496063
11
1.3019527559055117
21
1.7537594094488189
0
LINE
8
BLACK
6
CONTINUOUS
10
1.3019527559055117
20
1.7537594094488189
11
1.2972798818897637
21
1.7510615354330707
0
LINE
8
BLACK
6
CONTINUOUS
10
1.2972798818897637
20
1.7510615354330707
11
1.2920679527559056
21
1.749665
0
LINE
8
BLACK
6
CONTINUOUS
10
1.2920679527559056
20
1.749665
11
1.2866722047244095
21
1.749665
0
LINE
8
BLACK
6
CONTINUOUS
10
1.2866722047244095
20
1.749665
11
1.2814602755905511
21
1.7510615354330707
0
LINE
8
BLACK
6
CONTINUOUS
10
1.2814602755905511
20
1.7510615354330707
11
1.2767874015748031
21
1.7537594094488189
0
LINE
8
BLACK
6
CONTINUOUS
10
1.2767874015748031
20
1.7537594094488189
11
1.2729720078740157
21
1.7575748031496063
0
LINE
8
BLACK
6
CONTINUOUS
10
1.2729720078740157
20
1.7575748031496063
11
1.2702741338582677
21
1.7622476771653544
0
LINE
8
BLACK
6
CONTINUOUS
10
1.2702741338582677
20
1.7622476771653544
11
1.2688775984251968
21
1.7674596062992125
0
LINE
8
BLACK
6
CONTINUOUS
10
1.2688775984251968
20
1.7674596062992125
11
1.2687007874015748
21
1.7701574803149607
0
LINE
8
BLACK
6
CONTINUOUS
10
1.2687007874015748
20
1.7701574803149607
11
1.2687007874015748
21
1.7878740157480315
0
LINE
8
BLACK
6
CONTINUOUS
10
1.2687007874015748
20
1.7878740157480315
11
1.2688775984251968
21
1.7905718897637795
0
LINE
8
BLACK
6
CONTINUOUS
10
1.2688775984251968
20
1.7905718897637795
11
1.2702741338582677
21
1.7957838188976378
0
LINE
8
BLACK
6
CONTINUOUS
10
1.2702741338582677
20
1.7957838188976378
11
1.2729720078740157
21
1.8004566929133858
0
LINE
8
BLACK
6
CONTINUOUS
10
1.2729720078740157
20
1.8004566929133858
11
1.2767874015748031
21
1.8042720866141733
0
LINE
8
BLACK
6
CONTINUOUS
10
1.2767874015748031
20
1.8042720866141733
11
1.2814602755905511
21
1.8069699606299212
0
LINE
8
BLACK
6
CONTINUOUS
10
1.2814602755905511
20
1.8069699606299212
11
1.2866722047244095
21
1.8083664960629922
0
LINE
8
BLACK
6
CONTINUOUS
10
1.2866722047244095
20
1.8083664960629922
11
1.2920679527559056
21
1.8083664960629922
0
LINE
8
BLACK
6
CONTINUOUS
10
1.2920679527559056
20
1.8083664960629922
11
1.2972798818897637
21
1.8069699606299212
0
LINE
8
BLACK
6
CONTINUOUS
10
-1.1396062992125984
20
1.7964566929133858
11
-1.1986614173228347
21
1.7964566929133858
0
LINE
8
BLACK
6
CONTINUOUS
10
-1.1986614173228347
20
1.7964566929133858
11
-1.1986614173228347
21
1.824015748031496
0
LINE
8
BLACK
6
CONTINUOUS
10
-1.1986614173228347
20
1.824015748031496
11
-1.1396062992125984
21
1.824015748031496
0
LINE
8
BLACK
6
CONTINUOUS
10
-1.1396062992125984
20
1.824015748031496
11
-1.1396062992125984
21
1.7964566929133858
0
LINE
8
BLACK
6
CONTINUOUS
10
-1.2737657480314961
20
1.8486716141732282
11
-1.2685433070866141
21
1.8465084251968504
0
LINE
8
BLACK
6
CONTINUOUS
10
-1.2685433070866141
20
1.8465084251968504
11
-1.2640587007874016
21
1.8430672834645669
0
LINE
8
BLACK
6
CONTINUOUS
10
-1.2640587007874016
20
1.8430672834645669
11
-1.2606175590551181
21
1.8385826771653544
0
LINE
8
BLACK
6
CONTINUOUS
10
-1.2606175590551181
20
1.8385826771653544
11
-1.2584543700787401
21
1.8333602362204724
0
LINE
8
BLACK
6
CONTINUOUS
10
-1.2584543700787401
20
1.8333602362204724
11
-1.2577165354330708
21
1.8277559055118109
0
LINE
8
BLACK
6
CONTINUOUS
10
-1.2577165354330708
20
1.8277559055118109
11
-1.2584543700787401
21
1.8221515748031496
0
LINE
8
BLACK
6
CONTINUOUS
10
-1.2584543700787401
20
1.8221515748031496
11
-1.2606175590551181
21
1.8169291338582676
0
LINE
8
BLACK
6
CONTINUOUS
10
-1.2606175590551181
20
1.8169291338582676
11
-1.2640587007874016
21
1.8124445275590551
0
LINE
8
BLACK
6
CONTINUOUS
10
-1.2640587007874016
20
1.8124445275590551
11
-1.2685433070866141
21
1.8090033858267716
0
LINE
8
BLACK
6
CONTINUOUS
10
-1.2685433070866141
20
1.8090033858267716
11
-1.2737657480314961
21
1.8068401968503938
0
LINE
8
BLACK
6
CONTINUOUS
10
-1.2737657480314961
20
1.8068401968503938
11
-1.2793700787401574
21
1.8061023622047243
0
LINE
8
BLACK
6
CONTINUOUS
10
-1.2793700787401574
20
1.8061023622047243
11
-1.2849744094488189
21
1.8068401968503938
0
LINE
8
BLACK
6
CONTINUOUS
10
-1.2849744094488189
20
1.8068401968503938
11
-1.2901968503937007
21
1.8090033858267716
0
LINE
8
BLACK
6
CONTINUOUS
10
-1.2901968503937007
20
1.8090033858267716
11
-1.2946814566929135
21
1.8124445275590551
0
LINE
8
BLACK
6
CONTINUOUS
10
-1.2946814566929135
20
1.8124445275590551
11
-1.2981225984251967
21
1.8169291338582676
0
LINE
8
BLACK
6
CONTINUOUS
10
-1.2981225984251967
20
1.8169291338582676
11
-1.3002857874015747
21
1.8221515748031496
0
LINE
8
BLACK
6
CONTINUOUS
10
-1.3002857874015747
20
1.8221515748031496
11
-1.301023622047244
21
1.8277559055118109
0
LINE
8
BLACK
6
CONTINUOUS
10
-1.301023622047244
20
1.8277559055118109
11
-1.3002857874015747
21
1.8333602362204724
0
LINE
8
BLACK
6
CONTINUOUS
10
-1.3002857874015747
20
1.8333602362204724
11
-1.2981225984251967
21
1.8385826771653544
0
LINE
8
BLACK
6
CONTINUOUS
10
-1.2981225984251967
20
1.8385826771653544
11
-1.2946814566929135
21
1.8430672834645669
0
LINE
8
BLACK
6
CONTINUOUS
10
-1.2946814566929135
20
1.8430672834645669
11
-1.2901968503937007
21
1.8465084251968504
0
LINE
8
BLACK
6
CONTINUOUS
10
-1.2901968503937007
20
1.8465084251968504
11
-1.2849744094488189
21
1.8486716141732282
0
LINE
8
BLACK
6
CONTINUOUS
10
-1.2849744094488189
20
1.8486716141732282
11
-1.2793700787401574
21
1.8494094488188977
0
LINE
8
BLACK
6
CONTINUOUS
10
-1.2793700787401574
20
1.8494094488188977
11
-1.2737657480314961
21
1.8486716141732282
0
LINE
8
BLACK
6
CONTINUOUS
10
-1.1396062992125984
20
1.8437007874015747
11
-1.1986614173228347
21
1.8437007874015747
0
LINE
8
BLACK
6
CONTINUOUS
10
-1.1986614173228347
20
1.8437007874015747
11
-1.1986614173228347
21
1.8712598425196849
0
LINE
8
BLACK
6
CONTINUOUS
10
-1.1986614173228347
20
1.8712598425196849
11
-1.1396062992125984
21
1.8712598425196849
0
LINE
8
BLACK
6
CONTINUOUS
10
-1.1396062992125984
20
1.8712598425196849
11
-1.1396062992125984
21
1.8437007874015747
0
LINE
8
BLACK
6
CONTINUOUS
10
-2.0313385826771655
20
1.8828740157480315
11
-2.1415748031496062
21
1.8828740157480315
0
LINE
8
BLACK
6
CONTINUOUS
10
-2.1415748031496062
20
1.8828740157480315
11
-2.1415748031496062
21
1.9419291338582676
0
LINE
8
BLACK
6
CONTINUOUS
10
-2.1415748031496062
20
1.9419291338582676
11
-2.0313385826771655
21
1.9419291338582676
0
LINE
8
BLACK
6
CONTINUOUS
10
-2.0313385826771655
20
1.9419291338582676
11
-2.0313385826771655
21
1.8828740157480315
0
LINE
8
BLACK
6
CONTINUOUS
10
-1.1848818897637794
20
1.8828740157480315
11
-1.2951181102362204
21
1.8828740157480315
0
LINE
8
BLACK
6
CONTINUOUS
10
-1.2951181102362204
20
1.8828740157480315
11
-1.2951181102362204
21
1.9419291338582676
0
LINE
8
BLACK
6
CONTINUOUS
10
-1.2951181102362204
20
1.9419291338582676
11
-1.1848818897637794
21
1.9419291338582676
0
LINE
8
BLACK
6
CONTINUOUS
10
-1.1848818897637794
20
1.9419291338582676
11
-1.1848818897637794
21
1.8828740157480315
0
LINE
8
BLACK
6
CONTINUOUS
10
1.6299999999999999
20
1.915
11
1.5700000000000001
21
1.915
0
LINE
8
BLACK
6
CONTINUOUS
10
1.5700000000000001
20
1.915
11
1.5700000000000001
21
1.9749999999999999
0
LINE
8
BLACK
6
CONTINUOUS
10
1.5700000000000001
20
1.9749999999999999
11
1.6299999999999999
21
1.9749999999999999
0
LINE
8
BLACK
6
CONTINUOUS
10
1.6299999999999999
20
1.9749999999999999
11
1.6299999999999999
21
1.915
0
LINE
8
BLACK
6
CONTINUOUS
10
1.73
20
1.915
11
1.6699999999999999
21
1.915
0
LINE
8
BLACK
6
CONTINUOUS
10
1.6699999999999999
20
1.915
11
1.6699999999999999
21
1.9749999999999999
0
LINE
8
BLACK
6
CONTINUOUS
10
1.6699999999999999
20
1.9749999999999999
11
1.73
21
1.9749999999999999
0
LINE
8
BLACK
6
CONTINUOUS
10
1.73
20
1.9749999999999999
11
1.73
21
1.915
0
LINE
8
BLACK
6
CONTINUOUS
10
0.36
20
1.9749999999999999
11
0.3
21
1.9749999999999999
0
LINE
8
BLACK
6
CONTINUOUS
10
0.3
20
1.9749999999999999
11
0.3
21
2.0350000000000001
0
LINE
8
BLACK
6
CONTINUOUS
10
0.3
20
2.0350000000000001
11
0.36
21
2.0350000000000001
0
LINE
8
BLACK
6
CONTINUOUS
10
0.36
20
2.0350000000000001
11
0.36
21
1.9749999999999999
0
LINE
8
BLACK
6
CONTINUOUS
10
0.46
20
1.9749999999999999
11
0.4
21
1.9749999999999999
0
LINE
8
BLACK
6
CONTINUOUS
10
0.4
20
1.9749999999999999
11
0.4
21
2.0350000000000001
0
LINE
8
BLACK
6
CONTINUOUS
10
0.4
20
2.0350000000000001
11
0.46
21
2.0350000000000001
0
LINE
8
BLACK
6
CONTINUOUS
10
0.46
20
2.0350000000000001
11
0.46
21
1.9749999999999999
0
LINE
8
BLACK
6
CONTINUOUS
10
1.6299999999999999
20
2.0150000000000001
11
1.5700000000000001
21
2.0150000000000001
0
LINE
8
BLACK
6
CONTINUOUS
10
1.5700000000000001
20
2.0150000000000001
11
1.5700000000000001
21
2.0749999999999997
0
LINE
8
BLACK
6
CONTINUOUS
10
1.5700000000000001
20
2.0749999999999997
11
1.6299999999999999
21
2.0749999999999997
0
LINE
8
BLACK
6
CONTINUOUS
10
1.6299999999999999
20
2.0749999999999997
11
1.6299999999999999
21
2.0150000000000001
0
LINE
8
BLACK
6
CONTINUOUS
10
1.73
20
2.0150000000000001
11
1.6699999999999999
21
2.0150000000000001
0
LINE
8
BLACK
6
CONTINUOUS
10
1.6699999999999999
20
2.0150000000000001
11
1.6699999999999999
21
2.0749999999999997
0
LINE
8
BLACK
6
CONTINUOUS
10
1.6699999999999999
20
2.0749999999999997
11
1.73
21
2.0749999999999997
0
LINE
8
BLACK
6
CONTINUOUS
10
1.73
20
2.0749999999999997
11
1.73
21
2.0150000000000001
0
LINE
8
BLACK
6
CONTINUOUS
10
-2.0807706692913386
20
2.1573421259842518
11
-2.0718217716535432
21
2.1549442913385826
0
LINE
8
BLACK
6
CONTINUOUS
10
-2.0718217716535432
20
2.1549442913385826
11
-2.0634251968503938
21
2.1510288976377954
0
LINE
8
BLACK
6
CONTINUOUS
10
-2.0634251968503938
20
2.1510288976377954
11
-2.0558361023622047
21
2.1457149606299213
0
LINE
8
BLACK
6
CONTINUOUS
10
-2.0558361023622047
20
2.1457149606299213
11
-2.0492850393700786
21
2.1391638976377951
0
LINE
8
BLACK
6
CONTINUOUS
10
-2.0492850393700786
20
2.1391638976377951
11
-2.0439711023622045
21
2.1315748031496065
0
LINE
8
BLACK
6
CONTINUOUS
10
-2.0439711023622045
20
2.1315748031496065
11
-2.0400557086614173
21
2.1231782283464566
0
LINE
8
BLACK
6
CONTINUOUS
10
-2.0400557086614173
20
2.1231782283464566
11
-2.037657874015748
21
2.1142293307086613
0
LINE
8
BLACK
6
CONTINUOUS
10
-2.037657874015748
20
2.1142293307086613
11
-2.0368503937007874
21
2.105
0
LINE
8
BLACK
6
CONTINUOUS
10
-2.0368503937007874
20
2.105
11
-2.037657874015748
21
2.0957706692913387
0
LINE
8
BLACK
6
CONTINUOUS
10
-2.037657874015748
20
2.0957706692913387
11
-2.0400557086614173
21
2.0868217716535433
0
LINE
8
BLACK
6
CONTINUOUS
10
-2.0400557086614173
20
2.0868217716535433
11
-2.0439711023622045
21
2.0784251968503935
0
LINE
8
BLACK
6
CONTINUOUS
10
-2.0439711023622045
20
2.0784251968503935
11
-2.0492850393700786
21
2.0708361023622048
0
LINE
8
BLACK
6
CONTINUOUS
10
-2.0492850393700786
20
2.0708361023622048
11
-2.0558361023622047
21
2.0642850393700787
0
LINE
8
BLACK
6
CONTINUOUS
10
-2.0558361023622047
20
2.0642850393700787
11
-2.0634251968503938
21
2.0589711023622046
0
LINE
8
BLACK
6
CONTINUOUS
10
-2.0634251968503938
20
2.0589711023622046
11
-2.0718217716535432
21
2.0550557086614174
0
LINE
8
BLACK
6
CONTINUOUS
10
-2.0718217716535432
20
2.0550557086614174
11
-2.0807706692913386
21
2.0526578740157482
0
LINE
8
BLACK
6
CONTINUOUS
10
-2.0807706692913386
20
2.0526578740157482
11
-2.0899999999999999
21
2.0518503937007875
0
LINE
8
BLACK
6
CONTINUOUS
10
-2.0899999999999999
20
2.0518503937007875
11
-2.0992293307086616
21
2.0526578740157482
0
LINE
8
BLACK
6
CONTINUOUS
10
-2.0992293307086616
20
2.0526578740157482
11
-2.1081782283464565
21
2.0550557086614174
0
LINE
8
BLACK
6
CONTINUOUS
10
-2.1081782283464565
20
2.0550557086614174
11
-2.1165748031496063
21
2.0589711023622046
0
LINE
8
BLACK
6
CONTINUOUS
10
-2.1165748031496063
20
2.0589711023622046
11
-2.124163897637795
21
2.0642850393700787
0
LINE
8
BLACK
6
CONTINUOUS
10
-2.124163897637795
20
2.0642850393700787
11
-2.1307149606299212
21
2.0708361023622048
0
LINE
8
BLACK
6
CONTINUOUS
10
-2.1307149606299212
20
2.0708361023622048
11
-2.1360288976377952
21
2.0784251968503935
0
LINE
8
BLACK
6
CONTINUOUS
10
-2.1360288976377952
20
2.0784251968503935
11
-2.1399442913385824
21
2.0868217716535433
0
LINE
8
BLACK
6
CONTINUOUS
10
-2.1399442913385824
20
2.0868217716535433
11
-2.1423421259842521
21
2.0957706692913387
0
LINE
8
BLACK
6
CONTINUOUS
10
-2.1423421259842521
20
2.0957706692913387
11
-2.1431496062992124
21
2.105
0
LINE
8
BLACK
6
CONTINUOUS
10
-2.1431496062992124
20
2.105
11
-2.1423421259842521
21
2.1142293307086613
0
LINE
8
BLACK
6
CONTINUOUS
10
-2.1423421259842521
20
2.1142293307086613
11
-2.1399442913385824
21
2.1231782283464566
0
LINE
8
BLACK
6
CONTINUOUS
10
-2.1399442913385824
20
2.1231782283464566
11
-2.1360288976377952
21
2.1315748031496065
0
LINE
8
BLACK
6
CONTINUOUS
10
-2.1360288976377952
20
2.1315748031496065
11
-2.1307149606299212
21
2.1391638976377951
0
LINE
8
BLACK
6
CONTINUOUS
10
-2.1307149606299212
20
2.1391638976377951
11
-2.124163897637795
21
2.1457149606299213
0
LINE
8
BLACK
6
CONTINUOUS
10
-2.124163897637795
20
2.1457149606299213
11
-2.1165748031496063
21
2.1510288976377954
0
LINE
8
BLACK
6
CONTINUOUS
10
-2.1165748031496063
20
2.1510288976377954
11
-2.1081782283464565
21
2.1549442913385826
0
LINE
8
BLACK
6
CONTINUOUS
10
-2.1081782283464565
20
2.1549442913385826
11
-2.0992293307086616
21
2.1573421259842518
0
LINE
8
BLACK
6
CONTINUOUS
10
-2.0992293307086616
20
2.1573421259842518
11
-2.0899999999999999
21
2.1581496062992125
0
LINE
8
BLACK
6
CONTINUOUS
10
-2.0899999999999999
20
2.1581496062992125
11
-2.0807706692913386
21
2.1573421259842518
0
LINE
8
BLACK
6
CONTINUOUS
10
-1.8807706692913386
20
2.1573421259842518
11
-1.8718217716535432
21
2.1549442913385826
0
LINE
8
BLACK
6
CONTINUOUS
10
-1.8718217716535432
20
2.1549442913385826
11
-1.8634251968503937
21
2.1510288976377954
0
LINE
8
BLACK
6
CONTINUOUS
10
-1.8634251968503937
20
2.1510288976377954
11
-1.8558361023622048
21
2.1457149606299213
0
LINE
8
BLACK
6
CONTINUOUS
10
-1.8558361023622048
20
2.1457149606299213
11
-1.8492850393700786
21
2.1391638976377951
0
LINE
8
BLACK
6
CONTINUOUS
10
-1.8492850393700786
20
2.1391638976377951
11
-1.8439711023622047
21
2.1315748031496065
0
LINE
8
BLACK
6
CONTINUOUS
10
-1.8439711023622047
20
2.1315748031496065
11
-1.8400557086614173
21
2.1231782283464566
0
LINE
8
BLACK
6
CONTINUOUS
10
-1.8400557086614173
20
2.1231782283464566
11
-1.8376578740157481
21
2.1142293307086613
0
LINE
8
BLACK
6
CONTINUOUS
10
-1.8376578740157481
20
2.1142293307086613
11
-1.8368503937007874
21
2.105
0
LINE
8
BLACK
6
CONTINUOUS
10
-1.8368503937007874
20
2.105
11
-1.8376578740157481
21
2.0957706692913387
0
LINE
8
BLACK
6
CONTINUOUS
10
-1.8376578740157481
20
2.0957706692913387
11
-1.8400557086614173
21
2.0868217716535433
0
LINE
8
BLACK
6
CONTINUOUS
10
-1.8400557086614173
20
2.0868217716535433
11
-1.8439711023622047
21
2.0784251968503935
0
LINE
8
BLACK
6
CONTINUOUS
10
-1.8439711023622047
20
2.0784251968503935
11
-1.8492850393700786
21
2.0708361023622048
0
LINE
8
BLACK
6
CONTINUOUS
10
-1.8492850393700786
20
2.0708361023622048
11
-1.8558361023622048
21
2.0642850393700787
0
LINE
8
BLACK
6
CONTINUOUS
10
-1.8558361023622048
20
2.0642850393700787
11
-1.8634251968503937
21
2.0589711023622046
0
LINE
8
BLACK
6
CONTINUOUS
10
-1.8634251968503937
20
2.0589711023622046
11
-1.8718217716535432
21
2.0550557086614174
0
LINE
8
BLACK
6
CONTINUOUS
10
-1.8718217716535432
20
2.0550557086614174
11
-1.8807706692913386
21
2.0526578740157482
0
LINE
8
BLACK
6
CONTINUOUS
10
-1.8807706692913386
20
2.0526578740157482
11
-1.8899999999999999
21
2.0518503937007875
0
LINE
8
BLACK
6
CONTINUOUS
10
-1.8899999999999999
20
2.0518503937007875
11
-1.8992293307086614
21
2.0526578740157482
0
LINE
8
BLACK
6
CONTINUOUS
10
-1.8992293307086614
20
2.0526578740157482
11
-1.9081782283464566
21
2.0550557086614174
0
LINE
8
BLACK
6
CONTINUOUS
10
-1.9081782283464566
20
2.0550557086614174
11
-1.9165748031496062
21
2.0589711023622046
0
LINE
8
BLACK
6
CONTINUOUS
10
-1.9165748031496062
20
2.0589711023622046
11
-1.9241638976377953
21
2.0642850393700787
0
LINE
8
BLACK
6
CONTINUOUS
10
-1.9241638976377953
20
2.0642850393700787
11
-1.9307149606299212
21
2.0708361023622048
0
LINE
8
BLACK
6
CONTINUOUS
10
-1.9307149606299212
20
2.0708361023622048
11
-1.9360288976377953
21
2.0784251968503935
0
LINE
8
BLACK
6
CONTINUOUS
10
-1.9360288976377953
20
2.0784251968503935
11
-1.9399442913385827
21
2.0868217716535433
0
LINE
8
BLACK
6
CONTINUOUS
10
-1.9399442913385827
20
2.0868217716535433
11
-1.9423421259842519
21
2.0957706692913387
0
LINE
8
BLACK
6
CONTINUOUS
10
-1.9423421259842519
20
2.0957706692913387
11
-1.9431496062992126
21
2.105
0
LINE
8
BLACK
6
CONTINUOUS
10
-1.9431496062992126
20
2.105
11
-1.9423421259842519
21
2.1142293307086613
0
LINE
8
BLACK
6
CONTINUOUS
10
-1.9423421259842519
20
2.1142293307086613
11
-1.9399442913385827
21
2.1231782283464566
0
LINE
8
BLACK
6
CONTINUOUS
10
-1.9399442913385827
20
2.1231782283464566
11
-1.9360288976377953
21
2.1315748031496065
0
LINE
8
BLACK
6
CONTINUOUS
10
-1.9360288976377953
20
2.1315748031496065
11
-1.9307149606299212
21
2.1391638976377951
0
LINE
8
BLACK
6
CONTINUOUS
10
-1.9307149606299212
20
2.1391638976377951
11
-1.9241638976377953
21
2.1457149606299213
0
LINE
8
BLACK
6
CONTINUOUS
10
-1.9241638976377953
20
2.1457149606299213
11
-1.9165748031496062
21
2.1510288976377954
0
LINE
8
BLACK
6
CONTINUOUS
10
-1.9165748031496062
20
2.1510288976377954
11
-1.9081782283464566
21
2.1549442913385826
0
LINE
8
BLACK
6
CONTINUOUS
10
-1.9081782283464566
20
2.1549442913385826
11
-1.8992293307086614
21
2.1573421259842518
0
LINE
8
BLACK
6
CONTINUOUS
10
-1.8992293307086614
20
2.1573421259842518
11
-1.8899999999999999
21
2.1581496062992125
0
LINE
8
BLACK
6
CONTINUOUS
10
-1.8899999999999999
20
2.1581496062992125
11
-1.8807706692913386
21
2.1573421259842518
0
LINE
8
BLACK
6
CONTINUOUS
10
1.6299999999999999
20
2.1149999999999998
11
1.5700000000000001
21
2.1149999999999998
0
LINE
8
BLACK
6
CONTINUOUS
10
1.5700000000000001
20
2.1149999999999998
11
1.5700000000000001
21
2.1749999999999998
0
LINE
8
BLACK
6
CONTINUOUS
10
1.5700000000000001
20
2.1749999999999998
11
1.6299999999999999
21
2.1749999999999998
0
LINE
8
BLACK
6
CONTINUOUS
10
1.6299999999999999
20
2.1749999999999998
11
1.6299999999999999
21
2.1149999999999998
0
LINE
8
BLACK
6
CONTINUOUS
10
1.73
20
2.1149999999999998
11
1.6699999999999999
21
2.1149999999999998
0
LINE
8
BLACK
6
CONTINUOUS
10
1.6699999999999999
20
2.1149999999999998
11
1.6699999999999999
21
2.1749999999999998
0
LINE
8
BLACK
6
CONTINUOUS
10
1.6699999999999999
20
2.1749999999999998
11
1.73
21
2.1749999999999998
0
LINE
8
BLACK
6
CONTINUOUS
10
1.73
20
2.1749999999999998
11
1.73
21
2.1149999999999998
0
LINE
8
BLACK
6
CONTINUOUS
10
-1.9814543307086614
20
2.2534649606299211
11
-1.9731683070866142
21
2.2512447244094487
0
LINE
8
BLACK
6
CONTINUOUS
10
-1.9731683070866142
20
2.2512447244094487
11
-1.9653937007874016
21
2.2476193700787399
0
LINE
8
BLACK
6
CONTINUOUS
10
-1.9653937007874016
20
2.2476193700787399
11
-1.9583667322834646
21
2.2426990551181101
0
LINE
8
BLACK
6
CONTINUOUS
10
-1.9583667322834646
20
2.2426990551181101
11
-1.9523009448818898
21
2.2366332677165355
0
LINE
8
BLACK
6
CONTINUOUS
10
-1.9523009448818898
20
2.2366332677165355
11
-1.9473806299212597
21
2.2296062992125982
0
LINE
8
BLACK
6
CONTINUOUS
10
-1.9473806299212597
20
2.2296062992125982
11
-1.9437552755905512
21
2.2218316929133857
0
LINE
8
BLACK
6
CONTINUOUS
10
-1.9437552755905512
20
2.2218316929133857
11
-1.9415350393700788
21
2.2135456692913387
0
LINE
8
BLACK
6
CONTINUOUS
10
-1.9415350393700788
20
2.2135456692913387
11
-1.940787401574803
21
2.2050000000000001
0
LINE
8
BLACK
6
CONTINUOUS
10
-1.940787401574803
20
2.2050000000000001
11
-1.9415350393700788
21
2.1964543307086615
0
LINE
8
BLACK
6
CONTINUOUS
10
-1.9415350393700788
20
2.1964543307086615
11
-1.9437552755905512
21
2.188168307086614
0
LINE
8
BLACK
6
CONTINUOUS
10
-1.9437552755905512
20
2.188168307086614
11
-1.9473806299212597
21
2.1803937007874015
0
LINE
8
BLACK
6
CONTINUOUS
10
-1.9473806299212597
20
2.1803937007874015
11
-1.9523009448818898
21
2.1733667322834647
0
LINE
8
BLACK
6
CONTINUOUS
10
-1.9523009448818898
20
2.1733667322834647
11
-1.9583667322834646
21
2.1673009448818896
0
LINE
8
BLACK
6
CONTINUOUS
10
-1.9583667322834646
20
2.1673009448818896
11
-1.9653937007874016
21
2.1623806299212598
0
LINE
8
BLACK
6
CONTINUOUS
10
-1.9653937007874016
20
2.1623806299212598
11
-1.9731683070866142
21
2.158755275590551
0
LINE
8
BLACK
6
CONTINUOUS
10
-1.9731683070866142
20
2.158755275590551
11
-1.9814543307086614
21
2.1565350393700786
0
LINE
8
BLACK
6
CONTINUOUS
10
-1.9814543307086614
20
2.1565350393700786
11
-1.99
21
2.1557874015748033
0
LINE
8
BLACK
6
CONTINUOUS
10
-1.99
20
2.1557874015748033
11
-1.9985456692913386
21
2.1565350393700786
0
LINE
8
BLACK
6
CONTINUOUS
10
-1.9985456692913386
20
2.1565350393700786
11
-2.0068316929133858
21
2.158755275590551
0
LINE
8
BLACK
6
CONTINUOUS
10
-2.0068316929133858
20
2.158755275590551
11
-2.0146062992125984
21
2.1623806299212598
0
LINE
8
BLACK
6
CONTINUOUS
10
-2.0146062992125984
20
2.1623806299212598
11
-2.0216332677165352
21
2.1673009448818896
0
LINE
8
BLACK
6
CONTINUOUS
10
-2.0216332677165352
20
2.1673009448818896
11
-2.0276990551181102
21
2.1733667322834647
0
LINE
8
BLACK
6
CONTINUOUS
10
-2.0276990551181102
20
2.1733667322834647
11
-2.0326193700787401
21
2.1803937007874015
0
LINE
8
BLACK
6
CONTINUOUS
10
-2.0326193700787401
20
2.1803937007874015
11
-2.0362447244094488
21
2.188168307086614
0
LINE
8
BLACK
6
CONTINUOUS
10
-2.0362447244094488
20
2.188168307086614
11
-2.0384649606299212
21
2.1964543307086615
0
LINE
8
BLACK
6
CONTINUOUS
10
-2.0384649606299212
20
2.1964543307086615
11
-2.039212598425197
21
2.2050000000000001
0
LINE
8
BLACK
6
CONTINUOUS
10
-2.039212598425197
20
2.2050000000000001
11
-2.0384649606299212
21
2.2135456692913387
0
LINE
8
BLACK
6
CONTINUOUS
10
-2.0384649606299212
20
2.2135456692913387
11
-2.0362447244094488
21
2.2218316929133857
0
LINE
8
BLACK
6
CONTINUOUS
10
-2.0362447244094488
20
2.2218316929133857
11
-2.0326193700787401
21
2.2296062992125982
0
LINE
8
BLACK
6
CONTINUOUS
10
-2.0326193700787401
20
2.2296062992125982
11
-2.0276990551181102
21
2.2366332677165355
0
LINE
8
BLACK
6
CONTINUOUS
10
-2.0276990551181102
20
2.2366332677165355
11
-2.0216332677165352
21
2.2426990551181101
0
LINE
8
BLACK
6
CONTINUOUS
10
-2.0216332677165352
20
2.2426990551181101
11
-2.0146062992125984
21
2.2476193700787399
0
LINE
8
BLACK
6
CONTINUOUS
10
-2.0146062992125984
20
2.2476193700787399
11
-2.0068316929133858
21
2.2512447244094487
0
LINE
8
BLACK
6
CONTINUOUS
10
-2.0068316929133858
20
2.2512447244094487
11
-1.9985456692913386
21
2.2534649606299211
0
LINE
8
BLACK
6
CONTINUOUS
10
-1.9985456692913386
20
2.2534649606299211
11
-1.99
21
2.2542125984251968
0
LINE
8
BLACK
6
CONTINUOUS
10
-1.99
20
2.2542125984251968
11
-1.9814543307086614
21
2.2534649606299211
0
LINE
8
BLACK
6
CONTINUOUS
10
-2.0807706692913386
20
2.357342125984252
11
-2.0718217716535432
21
2.3549442913385827
0
LINE
8
BLACK
6
CONTINUOUS
10
-2.0718217716535432
20
2.3549442913385827
11
-2.0634251968503938
21
2.3510288976377951
0
LINE
8
BLACK
6
CONTINUOUS
10
-2.0634251968503938
20
2.3510288976377951
11
-2.0558361023622047
21
2.345714960629921
0
LINE
8
BLACK
6
CONTINUOUS
10
-2.0558361023622047
20
2.345714960629921
11
-2.0492850393700786
21
2.3391638976377953
0
LINE
8
BLACK
6
CONTINUOUS
10
-2.0492850393700786
20
2.3391638976377953
11
-2.0439711023622045
21
2.3315748031496062
0
LINE
8
BLACK
6
CONTINUOUS
10
-2.0439711023622045
20
2.3315748031496062
11
-2.0400557086614173
21
2.3231782283464568
0
LINE
8
BLACK
6
CONTINUOUS
10
-2.0400557086614173
20
2.3231782283464568
11
-2.037657874015748
21
2.3142293307086614
0
LINE
8
BLACK
6
CONTINUOUS
10
-2.037657874015748
20
2.3142293307086614
11
-2.0368503937007874
21
2.3050000000000002
0
LINE
8
BLACK
6
CONTINUOUS
10
-2.0368503937007874
20
2.3050000000000002
11
-2.037657874015748
21
2.2957706692913384
0
LINE
8
BLACK
6
CONTINUOUS
10
-2.037657874015748
20
2.2957706692913384
11
-2.0400557086614173
21
2.2868217716535431
0
LINE
8
BLACK
6
CONTINUOUS
10
-2.0400557086614173
20
2.2868217716535431
11
-2.0439711023622045
21
2.2784251968503937
0
LINE
8
BLACK
6
CONTINUOUS
10
-2.0439711023622045
20
2.2784251968503937
11
-2.0492850393700786
21
2.2708361023622046
0
LINE
8
BLACK
6
CONTINUOUS
10
-2.0492850393700786
20
2.2708361023622046
11
-2.0558361023622047
21
2.2642850393700789
0
LINE
8
BLACK
6
CONTINUOUS
10
-2.0558361023622047
20
2.2642850393700789
11
-2.0634251968503938
21
2.2589711023622048
0
LINE
8
BLACK
6
CONTINUOUS
10
-2.0634251968503938
20
2.2589711023622048
11
-2.0718217716535432
21
2.2550557086614171
0
LINE
8
BLACK
6
CONTINUOUS
10
-2.0718217716535432
20
2.2550557086614171
11
-2.0807706692913386
21
2.2526578740157479
0
LINE
8
BLACK
6
CONTINUOUS
10
-2.0807706692913386
20
2.2526578740157479
11
-2.0899999999999999
21
2.2518503937007872
0
LINE
8
BLACK
6
CONTINUOUS
10
-2.0899999999999999
20
2.2518503937007872
11
-2.0992293307086616
21
2.2526578740157479
0
LINE
8
BLACK
6
CONTINUOUS
10
-2.0992293307086616
20
2.2526578740157479
11
-2.1081782283464565
21
2.2550557086614171
0
LINE
8
BLACK
6
CONTINUOUS
10
-2.1081782283464565
20
2.2550557086614171
11
-2.1165748031496063
21
2.2589711023622048
0
LINE
8
BLACK
6
CONTINUOUS
10
-2.1165748031496063
20
2.2589711023622048
11
-2.124163897637795
21
2.2642850393700789
0
LINE
8
BLACK
6
CONTINUOUS
10
-2.124163897637795
20
2.2642850393700789
11
-2.1307149606299212
21
2.2708361023622046
0
LINE
8
BLACK
6
CONTINUOUS
10
-2.1307149606299212
20
2.2708361023622046
11
-2.1360288976377952
21
2.2784251968503937
0
LINE
8
BLACK
6
CONTINUOUS
10
-2.1360288976377952
20
2.2784251968503937
11
-2.1399442913385824
21
2.2868217716535431
0
LINE
8
BLACK
6
CONTINUOUS
10
-2.1399442913385824
20
2.2868217716535431
11
-2.1423421259842521
21
2.2957706692913384
0
LINE
8
BLACK
6
CONTINUOUS
10
-2.1423421259842521
20
2.2957706692913384
11
-2.1431496062992124
21
2.3050000000000002
0
LINE
8
BLACK
6
CONTINUOUS
10
-2.1431496062992124
20
2.3050000000000002
11
-2.1423421259842521
21
2.3142293307086614
0
LINE
8
BLACK
6
CONTINUOUS
10
-2.1423421259842521
20
2.3142293307086614
11
-2.1399442913385824
21
2.3231782283464568
0
LINE
8
BLACK
6
CONTINUOUS
10
-2.1399442913385824
20
2.3231782283464568
11
-2.1360288976377952
21
2.3315748031496062
0
LINE
8
BLACK
6
CONTINUOUS
10
-2.1360288976377952
20
2.3315748031496062
11
-2.1307149606299212
21
2.3391638976377953
0
LINE
8
BLACK
6
CONTINUOUS
10
-2.1307149606299212
20
2.3391638976377953
11
-2.124163897637795
21
2.345714960629921
0
LINE
8
BLACK
6
CONTINUOUS
10
-2.124163897637795
20
2.345714960629921
11
-2.1165748031496063
21
2.3510288976377951
0
LINE
8
BLACK
6
CONTINUOUS
10
-2.1165748031496063
20
2.3510288976377951
11
-2.1081782283464565
21
2.3549442913385827
0
LINE
8
BLACK
6
CONTINUOUS
10
-2.1081782283464565
20
2.3549442913385827
11
-2.0992293307086616
21
2.357342125984252
0
LINE
8
BLACK
6
CONTINUOUS
10
-2.0992293307086616
20
2.357342125984252
11
-2.0899999999999999
21
2.3581496062992127
0
LINE
8
BLACK
6
CONTINUOUS
10
-2.0899999999999999
20
2.3581496062992127
11
-2.0807706692913386
21
2.357342125984252
0
LINE
8
BLACK
6
CONTINUOUS
10
-1.8807706692913386
20
2.357342125984252
11
-1.8718217716535432
21
2.3549442913385827
0
LINE
8
BLACK
6
CONTINUOUS
10
-1.8718217716535432
20
2.3549442913385827
11
-1.8634251968503937
21
2.3510288976377951
0
LINE
8
BLACK
6
CONTINUOUS
10
-1.8634251968503937
20
2.3510288976377951
11
-1.8558361023622048
21
2.345714960629921
0
LINE
8
BLACK
6
CONTINUOUS
10
-1.8558361023622048
20
2.345714960629921
11
-1.8492850393700786
21
2.3391638976377953
0
LINE
8
BLACK
6
CONTINUOUS
10
-1.8492850393700786
20
2.3391638976377953
11
-1.8439711023622047
21
2.3315748031496062
0
LINE
8
BLACK
6
CONTINUOUS
10
-1.8439711023622047
20
2.3315748031496062
11
-1.8400557086614173
21
2.3231782283464568
0
LINE
8
BLACK
6
CONTINUOUS
10
-1.8400557086614173
20
2.3231782283464568
11
-1.8376578740157481
21
2.3142293307086614
0
LINE
8
BLACK
6
CONTINUOUS
10
-1.8376578740157481
20
2.3142293307086614
11
-1.8368503937007874
21
2.3050000000000002
0
LINE
8
BLACK
6
CONTINUOUS
10
-1.8368503937007874
20
2.3050000000000002
11
-1.8376578740157481
21
2.2957706692913384
0
LINE
8
BLACK
6
CONTINUOUS
10
-1.8376578740157481
20
2.2957706692913384
11
-1.8400557086614173
21
2.2868217716535431
0
LINE
8
BLACK
6
CONTINUOUS
10
-1.8400557086614173
20
2.2868217716535431
11
-1.8439711023622047
21
2.2784251968503937
0
LINE
8
BLACK
6
CONTINUOUS
10
-1.8439711023622047
20
2.2784251968503937
11
-1.8492850393700786
21
2.2708361023622046
0
LINE
8
BLACK
6
CONTINUOUS
10
-1.8492850393700786
20
2.2708361023622046
11
-1.8558361023622048
21
2.2642850393700789
0
LINE
8
BLACK
6
CONTINUOUS
10
-1.8558361023622048
20
2.2642850393700789
11
-1.8634251968503937
21
2.2589711023622048
0
LINE
8
BLACK
6
CONTINUOUS
10
-1.8634251968503937
20
2.2589711023622048
11
-1.8718217716535432
21
2.2550557086614171
0
LINE
8
BLACK
6
CONTINUOUS
10
-1.8718217716535432
20
2.2550557086614171
11
-1.8807706692913386
21
2.2526578740157479
0
LINE
8
BLACK
6
CONTINUOUS
10
-1.8807706692913386
20
2.2526578740157479
11
-1.8899999999999999
21
2.2518503937007872
0
LINE
8
BLACK
6
CONTINUOUS
10
-1.8899999999999999
20
2.2518503937007872
11
-1.8992293307086614
21
2.2526578740157479
0
LINE
8
BLACK
6
CONTINUOUS
10
-1.8992293307086614
20
2.2526578740157479
11
-1.9081782283464566
21
2.2550557086614171
0
LINE
8
BLACK
6
CONTINUOUS
10
-1.9081782283464566
20
2.2550557086614171
11
-1.9165748031496062
21
2.2589711023622048
0
LINE
8
BLACK
6
CONTINUOUS
10
-1.9165748031496062
20
2.2589711023622048
11
-1.9241638976377953
21
2.2642850393700789
0
LINE
8
BLACK
6
CONTINUOUS
10
-1.9241638976377953
20
2.2642850393700789
11
-1.9307149606299212
21
2.2708361023622046
0
LINE
8
BLACK
6
CONTINUOUS
10
-1.9307149606299212
20
2.2708361023622046
11
-1.9360288976377953
21
2.2784251968503937
0
LINE
8
BLACK
6
CONTINUOUS
10
-1.9360288976377953
20
2.2784251968503937
11
-1.9399442913385827
21
2.2868217716535431
0
LINE
8
BLACK
6
CONTINUOUS
10
-1.9399442913385827
20
2.2868217716535431
11
-1.9423421259842519
21
2.2957706692913384
0
LINE
8
BLACK
6
CONTINUOUS
10
-1.9423421259842519
20
2.2957706692913384
11
-1.9431496062992126
21
2.3050000000000002
0
LINE
8
BLACK
6
CONTINUOUS
10
-1.9431496062992126
20
2.3050000000000002
11
-1.9423421259842519
21
2.3142293307086614
0
LINE
8
BLACK
6
CONTINUOUS
10
-1.9423421259842519
20
2.3142293307086614
11
-1.9399442913385827
21
2.3231782283464568
0
LINE
8
BLACK
6
CONTINUOUS
10
-1.9399442913385827
20
2.3231782283464568
11
-1.9360288976377953
21
2.3315748031496062
0
LINE
8
BLACK
6
CONTINUOUS
10
-1.9360288976377953
20
2.3315748031496062
11
-1.9307149606299212
21
2.3391638976377953
0
LINE
8
BLACK
6
CONTINUOUS
10
-1.9307149606299212
20
2.3391638976377953
11
-1.9241638976377953
21
2.345714960629921
0
LINE
8
BLACK
6
CONTINUOUS
10
-1.9241638976377953
20
2.345714960629921
11
-1.9165748031496062
21
2.3510288976377951
0
LINE
8
BLACK
6
CONTINUOUS
10
-1.9165748031496062
20
2.3510288976377951
11
-1.9081782283464566
21
2.3549442913385827
0
LINE
8
BLACK
6
CONTINUOUS
10
-1.9081782283464566
20
2.3549442913385827
11
-1.8992293307086614
21
2.357342125984252
0
LINE
8
BLACK
6
CONTINUOUS
10
-1.8992293307086614
20
2.357342125984252
11
-1.8899999999999999
21
2.3581496062992127
0
LINE
8
BLACK
6
CONTINUOUS
10
-1.8899999999999999
20
2.3581496062992127
11
-1.8807706692913386
21
2.357342125984252
0
LINE
8
BLACK
6
CONTINUOUS
10
0.9892125984251968
20
2.355787401574803
11
0.8907874015748032
21
2.355787401574803
0
LINE
8
BLACK
6
CONTINUOUS
10
0.8907874015748032
20
2.355787401574803
11
0.8907874015748032
21
2.454212598425197
0
LINE
8
BLACK
6
CONTINUOUS
10
0.8907874015748032
20
2.454212598425197
11
0.9892125984251968
21
2.454212598425197
0
LINE
8
BLACK
6
CONTINUOUS
10
0.9892125984251968
20
2.454212598425197
11
0.9892125984251968
21
2.355787401574803
0
LINE
8
BLACK
6
CONTINUOUS
10
1.2438212598425196
20
2.4534649606299213
11
1.252107283464567
21
2.4512447244094488
0
LINE
8
BLACK
6
CONTINUOUS
10
1.252107283464567
20
2.4512447244094488
11
1.2598818897637796
21
2.4476193700787401
0
LINE
8
BLACK
6
CONTINUOUS
10
1.2598818897637796
20
2.4476193700787401
11
1.2669088582677166
21
2.4426990551181103
0
LINE
8
BLACK
6
CONTINUOUS
10
1.2669088582677166
20
2.4426990551181103
11
1.2729746456692914
21
2.4366332677165352
0
LINE
8
BLACK
6
CONTINUOUS
10
1.2729746456692914
20
2.4366332677165352
11
1.2778949606299213
21
2.4296062992125984
0
LINE
8
BLACK
6
CONTINUOUS
10
1.2778949606299213
20
2.4296062992125984
11
1.2815203149606298
21
2.4218316929133858
0
LINE
8
BLACK
6
CONTINUOUS
10
1.2815203149606298
20
2.4218316929133858
11
1.2837405511811024
21
2.4135456692913384
0
LINE
8
BLACK
6
CONTINUOUS
10
1.2837405511811024
20
2.4135456692913384
11
1.284488188976378
21
2.4049999999999998
0
LINE
8
BLACK
6
CONTINUOUS
10
1.284488188976378
20
2.4049999999999998
11
1.2837405511811024
21
2.3964543307086612
0
LINE
8
BLACK
6
CONTINUOUS
10
1.2837405511811024
20
2.3964543307086612
11
1.2815203149606298
21
2.3881683070866142
0
LINE
8
BLACK
6
CONTINUOUS
10
1.2815203149606298
20
2.3881683070866142
11
1.2778949606299213
21
2.3803937007874016
0
LINE
8
BLACK
6
CONTINUOUS
10
1.2778949606299213
20
2.3803937007874016
11
1.2729746456692914
21
2.3733667322834644
0
LINE
8
BLACK
6
CONTINUOUS
10
1.2729746456692914
20
2.3733667322834644
11
1.2669088582677166
21
2.3673009448818898
0
LINE
8
BLACK
6
CONTINUOUS
10
1.2669088582677166
20
2.3673009448818898
11
1.2598818897637796
21
2.36238062992126
0
LINE
8
BLACK
6
CONTINUOUS
10
1.2598818897637796
20
2.36238062992126
11
1.252107283464567
21
2.3587552755905512
0
LINE
8
BLACK
6
CONTINUOUS
10
1.252107283464567
20
2.3587552755905512
11
1.2438212598425196
21
2.3565350393700788
0
LINE
8
BLACK
6
CONTINUOUS
10
1.2438212598425196
20
2.3565350393700788
11
1.235275590551181
21
2.355787401574803
0
LINE
8
BLACK
6
CONTINUOUS
10
1.235275590551181
20
2.355787401574803
11
1.2267299212598426
21
2.3565350393700788
0
LINE
8
BLACK
6
CONTINUOUS
10
1.2267299212598426
20
2.3565350393700788
11
1.2184438976377951
21
2.3587552755905512
0
LINE
8
BLACK
6
CONTINUOUS
10
1.2184438976377951
20
2.3587552755905512
11
1.2106692913385826
21
2.36238062992126
0
LINE
8
BLACK
6
CONTINUOUS
10
1.2106692913385826
20
2.36238062992126
11
1.2036423228346456
21
2.3673009448818898
0
LINE
8
BLACK
6
CONTINUOUS
10
1.2036423228346456
20
2.3673009448818898
11
1.1975765354330707
21
2.3733667322834644
0
LINE
8
BLACK
6
CONTINUOUS
10
1.1975765354330707
20
2.3733667322834644
11
1.1926562204724409
21
2.3803937007874016
0
LINE
8
BLACK
6
CONTINUOUS
10
1.1926562204724409
20
2.3803937007874016
11
1.1890308661417321
21
2.3881683070866142
0
LINE
8
BLACK
6
CONTINUOUS
10
1.1890308661417321
20
2.3881683070866142
11
1.1868106299212597
21
2.3964543307086612
0
LINE
8
BLACK
6
CONTINUOUS
10
1.1868106299212597
20
2.3964543307086612
11
1.1860629921259842
21
2.4049999999999998
0
LINE
8
BLACK
6
CONTINUOUS
10
1.1860629921259842
20
2.4049999999999998
11
1.1868106299212597
21
2.4135456692913384
0
LINE
8
BLACK
6
CONTINUOUS
10
1.1868106299212597
20
2.4135456692913384
11
1.1890308661417321
21
2.4218316929133858
0
LINE
8
BLACK
6
CONTINUOUS
10
1.1890308661417321
20
2.4218316929133858
11
1.1926562204724409
21
2.4296062992125984
0
LINE
8
BLACK
6
CONTINUOUS
10
1.1926562204724409
20
2.4296062992125984
11
1.1975765354330707
21
2.4366332677165352
0
LINE
8
BLACK
6
CONTINUOUS
10
1.1975765354330707
20
2.4366332677165352
11
1.2036423228346456
21
2.4426990551181103
0
LINE
8
BLACK
6
CONTINUOUS
10
1.2036423228346456
20
2.4426990551181103
11
1.2106692913385826
21
2.4476193700787401
0
LINE
8
BLACK
6
CONTINUOUS
10
1.2106692913385826
20
2.4476193700787401
11
1.2184438976377951
21
2.4512447244094488
0
LINE
8
BLACK
6
CONTINUOUS
10
1.2184438976377951
20
2.4512447244094488
11
1.2267299212598426
21
2.4534649606299213
0
LINE
8
BLACK
6
CONTINUOUS
10
1.2267299212598426
20
2.4534649606299213
11
1.235275590551181
21
2.454212598425197
0
LINE
8
BLACK
6
CONTINUOUS
10
1.235275590551181
20
2.454212598425197
11
1.2438212598425196
21
2.4534649606299213
0
LINE
8
BLACK
6
CONTINUOUS
10
-1.9694903543307085
20
2.7413158661417323
11
-1.956125590551181
21
2.7381483858267717
0
LINE
8
BLACK
6
CONTINUOUS
10
-1.956125590551181
20
2.7381483858267717
11
-1.9432189370078741
21
2.733450708661417
0
LINE
8
BLACK
6
CONTINUOUS
10
-1.9432189370078741
20
2.733450708661417
11
-1.9309448818897637
21
2.7272864566929131
0
LINE
8
BLACK
6
CONTINUOUS
10
-1.9309448818897637
20
2.7272864566929131
11
-1.9194694488188977
21
2.7197389763779527
0
LINE
8
BLACK
6
CONTINUOUS
10
-1.9194694488188977
20
2.7197389763779527
11
-1.9089478346456692
21
2.710910275590551
0
LINE
8
BLACK
6
CONTINUOUS
10
-1.9089478346456692
20
2.710910275590551
11
-1.8995223228346456
21
2.7009198031496062
0
LINE
8
BLACK
6
CONTINUOUS
10
-1.8995223228346456
20
2.7009198031496062
11
-1.8913203543307087
21
2.6899026377952757
0
LINE
8
BLACK
6
CONTINUOUS
10
-1.8913203543307087
20
2.6899026377952757
11
-1.8844528346456693
21
2.6780077952755903
0
LINE
8
BLACK
6
CONTINUOUS
10
-1.8844528346456693
20
2.6780077952755903
11
-1.8790126771653544
21
2.6653960629921261
0
LINE
8
BLACK
6
CONTINUOUS
10
-1.8790126771653544
20
2.6653960629921261
11
-1.8750734251968504
21
2.6522381102362202
0
LINE
8
BLACK
6
CONTINUOUS
10
-1.8750734251968504
20
2.6522381102362202
11
-1.8726883858267716
21
2.6387117716535431
0
LINE
8
BLACK
6
CONTINUOUS
10
-1.8726883858267716
20
2.6387117716535431
11
-1.8718897637795275
21
2.625
0
LINE
8
BLACK
6
CONTINUOUS
10
-1.8718897637795275
20
2.625
11
-1.8726883858267716
21
2.6112882283464565
0
LINE
8
BLACK
6
CONTINUOUS
10
-1.8726883858267716
20
2.6112882283464565
11
-1.8750734251968504
21
2.5977618897637793
0
LINE
8
BLACK
6
CONTINUOUS
10
-1.8750734251968504
20
2.5977618897637793
11
-1.8790126771653544
21
2.5846039370078739
0
LINE
8
BLACK
6
CONTINUOUS
10
-1.8790126771653544
20
2.5846039370078739
11
-1.8844528346456693
21
2.5719922047244093
0
LINE
8
BLACK
6
CONTINUOUS
10
-1.8844528346456693
20
2.5719922047244093
11
-1.8913203543307087
21
2.5600973622047243
0
LINE
8
BLACK
6
CONTINUOUS
10
-1.8913203543307087
20
2.5600973622047243
11
-1.8995223228346456
21
2.5490801968503938
0
LINE
8
BLACK
6
CONTINUOUS
10
-1.8995223228346456
20
2.5490801968503938
11
-1.9089478346456692
21
2.5390897244094486
0
LINE
8
BLACK
6
CONTINUOUS
10
-1.9089478346456692
20
2.5390897244094486
11
-1.9194694488188977
21
2.5302610236220473
0
LINE
8
BLACK
6
CONTINUOUS
10
-1.9194694488188977
20
2.5302610236220473
11
-1.9309448818897637
21
2.5227135433070864
0
LINE
8
BLACK
6
CONTINUOUS
10
-1.9309448818897637
20
2.5227135433070864
11
-1.9432189370078741
21
2.5165492913385825
0
LINE
8
BLACK
6
CONTINUOUS
10
-1.9432189370078741
20
2.5165492913385825
11
-1.956125590551181
21
2.5118516141732283
0
LINE
8
BLACK
6
CONTINUOUS
10
-1.956125590551181
20
2.5118516141732283
11
-1.9694903543307085
21
2.5086841338582677
0
LINE
8
BLACK
6
CONTINUOUS
10
-1.9694903543307085
20
2.5086841338582677
11
-1.9831325196850393
21
2.5070896062992127
0
LINE
8
BLACK
6
CONTINUOUS
10
-1.9831325196850393
20
2.5070896062992127
11
-1.9968674803149606
21
2.5070896062992127
0
LINE
8
BLACK
6
CONTINUOUS
10
-1.9968674803149606
20
2.5070896062992127
11
-2.0105096456692912
21
2.5086841338582677
0
LINE
8
BLACK
6
CONTINUOUS
10
-2.0105096456692912
20
2.5086841338582677
11
-2.023874409448819
21
2.5118516141732283
0
LINE
8
BLACK
6
CONTINUOUS
10
-2.023874409448819
20
2.5118516141732283
11
-2.0367810629921261
21
2.5165492913385825
0
LINE
8
BLACK
6
CONTINUOUS
10
-2.0367810629921261
20
2.5165492913385825
11
-2.0490551181102363
21
2.5227135433070864
0
LINE
8
BLACK
6
CONTINUOUS
10
-2.0490551181102363
20
2.5227135433070864
11
-2.0605305511811025
21
2.5302610236220473
0
LINE
8
BLACK
6
CONTINUOUS
10
-2.0605305511811025
20
2.5302610236220473
11
-2.0710521653543306
21
2.5390897244094486
0
LINE
8
BLACK
6
CONTINUOUS
10
-2.0710521653543306
20
2.5390897244094486
11
-2.0804776771653541
21
2.5490801968503938
0
LINE
8
BLACK
6
CONTINUOUS
10
-2.0804776771653541
20
2.5490801968503938
11
-2.0886796456692913
21
2.5600973622047243
0
LINE
8
BLACK
6
CONTINUOUS
10
-2.0886796456692913
20
2.5600973622047243
11
-2.0955471653543305
21
2.5719922047244093
0
LINE
8
BLACK
6
CONTINUOUS
10
-2.0955471653543305
20
2.5719922047244093
11
-2.1009873228346456
21
2.5846039370078739
0
LINE
8
BLACK
6
CONTINUOUS
10
-2.1009873228346456
20
2.5846039370078739
11
-2.1049265748031494
21
2.5977618897637793
0
LINE
8
BLACK
6
CONTINUOUS
10
-2.1049265748031494
20
2.5977618897637793
11
-2.1073116141732284
21
2.6112882283464565
0
LINE
8
BLACK
6
CONTINUOUS
10
-2.1073116141732284
20
2.6112882283464565
11
-2.1081102362204724
21
2.625
0
LINE
8
BLACK
6
CONTINUOUS
10
-2.1081102362204724
20
2.625
11
-2.1073116141732284
21
2.6387117716535431
0
LINE
8
BLACK
6
CONTINUOUS
10
-2.1073116141732284
20
2.6387117716535431
11
-2.1049265748031494
21
2.6522381102362202
0
LINE
8
BLACK
6
CONTINUOUS
10
-2.1049265748031494
20
2.6522381102362202
11
-2.1009873228346456
21
2.6653960629921261
0
LINE
8
BLACK
6
CONTINUOUS
10
-2.1009873228346456
20
2.6653960629921261
11
-2.0955471653543305
21
2.6780077952755903
0
LINE
8
BLACK
6
CONTINUOUS
10
-2.0955471653543305
20
2.6780077952755903
11
-2.0886796456692913
21
2.6899026377952757
0
LINE
8
BLACK
6
CONTINUOUS
10
-2.0886796456692913
20
2.6899026377952757
11
-2.0804776771653541
21
2.7009198031496062
0
LINE
8
BLACK
6
CONTINUOUS
10
-2.0804776771653541
20
2.7009198031496062
11
-2.0710521653543306
21
2.710910275590551
0
LINE
8
BLACK
6
CONTINUOUS
10
-2.0710521653543306
20
2.710910275590551
11
-2.0605305511811025
21
2.7197389763779527
0
LINE
8
BLACK
6
CONTINUOUS
10
-2.0605305511811025
20
2.7197389763779527
11
-2.0490551181102363
21
2.7272864566929131
0
LINE
8
BLACK
6
CONTINUOUS
10
-2.0490551181102363
20
2.7272864566929131
11
-2.0367810629921261
21
2.733450708661417
0
LINE
8
BLACK
6
CONTINUOUS
10
-2.0367810629921261
20
2.733450708661417
11
-2.023874409448819
21
2.7381483858267717
0
LINE
8
BLACK
6
CONTINUOUS
10
-2.023874409448819
20
2.7381483858267717
11
-2.0105096456692912
21
2.7413158661417323
0
LINE
8
BLACK
6
CONTINUOUS
10
-2.0105096456692912
20
2.7413158661417323
11
-1.9968674803149606
21
2.7429103937007873
0
LINE
8
BLACK
6
CONTINUOUS
10
-1.9968674803149606
20
2.7429103937007873
11
-1.9831325196850393
21
2.7429103937007873
0
LINE
8
BLACK
6
CONTINUOUS
10
-1.9831325196850393
20
2.7429103937007873
11
-1.9694903543307085
21
2.7413158661417323
0
LINE
8
BLACK
6
CONTINUOUS
10
1.6305096456692914
20
2.7413158661417323
11
1.6438744094488189
21
2.7381483858267717
0
LINE
8
BLACK
6
CONTINUOUS
10
1.6438744094488189
20
2.7381483858267717
11
1.656781062992126
21
2.733450708661417
0
LINE
8
BLACK
6
CONTINUOUS
10
1.656781062992126
20
2.733450708661417
11
1.6690551181102362
21
2.7272864566929131
0
LINE
8
BLACK
6
CONTINUOUS
10
1.6690551181102362
20
2.7272864566929131
11
1.6805305511811024
21
2.7197389763779527
0
LINE
8
BLACK
6
CONTINUOUS
10
1.6805305511811024
20
2.7197389763779527
11
1.6910521653543307
21
2.710910275590551
0
LINE
8
BLACK
6
CONTINUOUS
10
1.6910521653543307
20
2.710910275590551
11
1.7004776771653543
21
2.7009198031496062
0
LINE
8
BLACK
6
CONTINUOUS
10
1.7004776771653543
20
2.7009198031496062
11
1.7086796456692912
21
2.6899026377952757
0
LINE
8
BLACK
6
CONTINUOUS
10
1.7086796456692912
20
2.6899026377952757
11
1.7155471653543306
21
2.6780077952755903
0
LINE
8
BLACK
6
CONTINUOUS
10
1.7155471653543306
20
2.6780077952755903
11
1.7209873228346457
21
2.6653960629921261
0
LINE
8
BLACK
6
CONTINUOUS
10
1.7209873228346457
20
2.6653960629921261
11
1.7249265748031495
21
2.6522381102362202
0
LINE
8
BLACK
6
CONTINUOUS
10
1.7249265748031495
20
2.6522381102362202
11
1.7273116141732283
21
2.6387117716535431
0
LINE
8
BLACK
6
CONTINUOUS
10
1.7273116141732283
20
2.6387117716535431
11
1.7281102362204723
21
2.625
0
LINE
8
BLACK
6
CONTINUOUS
10
1.7281102362204723
20
2.625
11
1.7273116141732283
21
2.6112882283464565
0
LINE
8
BLACK
6
CONTINUOUS
10
1.7273116141732283
20
2.6112882283464565
11
1.7249265748031495
21
2.5977618897637793
0
LINE
8
BLACK
6
CONTINUOUS
10
1.7249265748031495
20
2.5977618897637793
11
1.7209873228346457
21
2.5846039370078739
0
LINE
8
BLACK
6
CONTINUOUS
10
1.7209873228346457
20
2.5846039370078739
11
1.7155471653543306
21
2.5719922047244093
0
LINE
8
BLACK
6
CONTINUOUS
10
1.7155471653543306
20
2.5719922047244093
11
1.7086796456692912
21
2.5600973622047243
0
LINE
8
BLACK
6
CONTINUOUS
10
1.7086796456692912
20
2.5600973622047243
11
1.7004776771653543
21
2.5490801968503938
0
LINE
8
BLACK
6
CONTINUOUS
10
1.7004776771653543
20
2.5490801968503938
11
1.6910521653543307
21
2.5390897244094486
0
LINE
8
BLACK
6
CONTINUOUS
10
1.6910521653543307
20
2.5390897244094486
11
1.6805305511811024
21
2.5302610236220473
0
LINE
8
BLACK
6
CONTINUOUS
10
1.6805305511811024
20
2.5302610236220473
11
1.6690551181102362
21
2.5227135433070864
0
LINE
8
BLACK
6
CONTINUOUS
10
1.6690551181102362
20
2.5227135433070864
11
1.656781062992126
21
2.5165492913385825
0
LINE
8
BLACK
6
CONTINUOUS
10
1.656781062992126
20
2.5165492913385825
11
1.6438744094488189
21
2.5118516141732283
0
LINE
8
BLACK
6
CONTINUOUS
10
1.6438744094488189
20
2.5118516141732283
11
1.6305096456692914
21
2.5086841338582677
0
LINE
8
BLACK
6
CONTINUOUS
10
1.6305096456692914
20
2.5086841338582677
11
1.6168674803149605
21
2.5070896062992127
0
LINE
8
BLACK
6
CONTINUOUS
10
1.6168674803149605
20
2.5070896062992127
11
1.6031325196850392
21
2.5070896062992127
0
LINE
8
BLACK
6
CONTINUOUS
10
1.6031325196850392
20
2.5070896062992127
11
1.5894903543307086
21
2.5086841338582677
0
LINE
8
BLACK
6
CONTINUOUS
10
1.5894903543307086
20
2.5086841338582677
11
1.5761255905511811
21
2.5118516141732283
0
LINE
8
BLACK
6
CONTINUOUS
10
1.5761255905511811
20
2.5118516141732283
11
1.563218937007874
21
2.5165492913385825
0
LINE
8
BLACK
6
CONTINUOUS
10
1.563218937007874
20
2.5165492913385825
11
1.5509448818897638
21
2.5227135433070864
0
LINE
8
BLACK
6
CONTINUOUS
10
1.5509448818897638
20
2.5227135433070864
11
1.5394694488188976
21
2.5302610236220473
0
LINE
8
BLACK
6
CONTINUOUS
10
1.5394694488188976
20
2.5302610236220473
11
1.5289478346456693
21
2.5390897244094486
0
LINE
8
BLACK
6
CONTINUOUS
10
1.5289478346456693
20
2.5390897244094486
11
1.5195223228346457
21
2.5490801968503938
0
LINE
8
BLACK
6
CONTINUOUS
10
1.5195223228346457
20
2.5490801968503938
11
1.5113203543307085
21
2.5600973622047243
0
LINE
8
BLACK
6
CONTINUOUS
10
1.5113203543307085
20
2.5600973622047243
11
1.5044528346456694
21
2.5719922047244093
0
LINE
8
BLACK
6
CONTINUOUS
10
1.5044528346456694
20
2.5719922047244093
11
1.4990126771653542
21
2.5846039370078739
0
LINE
8
BLACK
6
CONTINUOUS
10
1.4990126771653542
20
2.5846039370078739
11
1.4950734251968503
21
2.5977618897637793
0
LINE
8
BLACK
6
CONTINUOUS
10
1.4950734251968503
20
2.5977618897637793
11
1.4926883858267717
21
2.6112882283464565
0
LINE
8
BLACK
6
CONTINUOUS
10
1.4926883858267717
20
2.6112882283464565
11
1.4918897637795274
21
2.625
0
LINE
8
BLACK
6
CONTINUOUS
10
1.4918897637795274
20
2.625
11
1.4926883858267717
21
2.6387117716535431
0
LINE
8
BLACK
6
CONTINUOUS
10
1.4926883858267717
20
2.6387117716535431
11
1.4950734251968503
21
2.6522381102362202
0
LINE
8
BLACK
6
CONTINUOUS
10
1.4950734251968503
20
2.6522381102362202
11
1.4990126771653542
21
2.6653960629921261
0
LINE
8
BLACK
6
CONTINUOUS
10
1.4990126771653542
20
2.6653960629921261
11
1.5044528346456694
21
2.6780077952755903
0
LINE
8
BLACK
6
CONTINUOUS
10
1.5044528346456694
20
2.6780077952755903
11
1.5113203543307085
21
2.6899026377952757
0
LINE
8
BLACK
6
CONTINUOUS
10
1.5113203543307085
20
2.6899026377952757
11
1.5195223228346457
21
2.7009198031496062
0
LINE
8
BLACK
6
CONTINUOUS
10
1.5195223228346457
20
2.7009198031496062
11
1.5289478346456693
21
2.710910275590551
0
LINE
8
BLACK
6
CONTINUOUS
10
1.5289478346456693
20
2.710910275590551
11
1.5394694488188976
21
2.7197389763779527
0
LINE
8
BLACK
6
CONTINUOUS
10
1.5394694488188976
20
2.7197389763779527
11
1.5509448818897638
21
2.7272864566929131
0
LINE
8
BLACK
6
CONTINUOUS
10
1.5509448818897638
20
2.7272864566929131
11
1.563218937007874
21
2.733450708661417
0
LINE
8
BLACK
6
CONTINUOUS
10
1.563218937007874
20
2.733450708661417
11
1.5761255905511811
21
2.7381483858267717
0
LINE
8
BLACK
6
CONTINUOUS
10
1.5761255905511811
20
2.7381483858267717
11
1.5894903543307086
21
2.7413158661417323
0
LINE
8
BLACK
6
CONTINUOUS
10
1.5894903543307086
20
2.7413158661417323
11
1.6031325196850392
21
2.7429103937007873
0
LINE
8
BLACK
6
CONTINUOUS
10
1.6031325196850392
20
2.7429103937007873
11
1.6168674803149605
21
2.7429103937007873
0
LINE
8
BLACK
6
CONTINUOUS
10
1.6168674803149605
20
2.7429103937007873
11
1.6305096456692914
21
2.7413158661417323
0
LINE
8
BLACK
6
CONTINUOUS
10
-0.1094723228346457
20
2.6251803937007874
11
-0.1075564566929134
21
2.6239002362204724
0
LINE
8
BLACK
6
CONTINUOUS
10
-0.1075564566929134
20
2.6239002362204724
11
-0.1062762992125984
21
2.62198437007874
0
LINE
8
BLACK
6
CONTINUOUS
10
-0.1062762992125984
20
2.62198437007874
11
-0.1058267716535433
21
2.619724409448819
0
LINE
8
BLACK
6
CONTINUOUS
10
-0.1058267716535433
20
2.619724409448819
11
-0.1058267716535433
21
2.5646062992125982
0
LINE
8
BLACK
6
CONTINUOUS
10
-0.1058267716535433
20
2.5646062992125982
11
-0.1062762992125984
21
2.5623463385826772
0
LINE
8
BLACK
6
CONTINUOUS
10
-0.1062762992125984
20
2.5623463385826772
11
-0.1075564566929134
21
2.5604304724409448
0
LINE
8
BLACK
6
CONTINUOUS
10
-0.1075564566929134
20
2.5604304724409448
11
-0.1094723228346457
21
2.5591503149606298
0
LINE
8
BLACK
6
CONTINUOUS
10
-0.1094723228346457
20
2.5591503149606298
11
-0.1117322834645669
21
2.5587007874015746
0
LINE
8
BLACK
6
CONTINUOUS
10
-0.1117322834645669
20
2.5587007874015746
11
-0.1235433070866142
21
2.5587007874015746
0
LINE
8
BLACK
6
CONTINUOUS
10
-0.1235433070866142
20
2.5587007874015746
11
-0.1258032677165354
21
2.5591503149606298
0
LINE
8
BLACK
6
CONTINUOUS
10
-0.1258032677165354
20
2.5591503149606298
11
-0.1277191338582677
21
2.5604304724409448
0
LINE
8
BLACK
6
CONTINUOUS
10
-0.1277191338582677
20
2.5604304724409448
11
-0.1289992913385827
21
2.5623463385826772
0
LINE
8
BLACK
6
CONTINUOUS
10
-0.1289992913385827
20
2.5623463385826772
11
-0.1294488188976378
21
2.5646062992125982
0
LINE
8
BLACK
6
CONTINUOUS
10
-0.1294488188976378
20
2.5646062992125982
11
-0.1294488188976378
21
2.619724409448819
0
LINE
8
BLACK
6
CONTINUOUS
10
-0.1294488188976378
20
2.619724409448819
11
-0.1289992913385827
21
2.62198437007874
0
LINE
8
BLACK
6
CONTINUOUS
10
-0.1289992913385827
20
2.62198437007874
11
-0.1277191338582677
21
2.6239002362204724
0
LINE
8
BLACK
6
CONTINUOUS
10
-0.1277191338582677
20
2.6239002362204724
11
-0.1258032677165354
21
2.6251803937007874
0
LINE
8
BLACK
6
CONTINUOUS
10
-0.1258032677165354
20
2.6251803937007874
11
-0.1235433070866142
21
2.6256299212598426
0
LINE
8
BLACK
6
CONTINUOUS
10
-0.1235433070866142
20
2.6256299212598426
11
-0.1117322834645669
21
2.6256299212598426
0
LINE
8
BLACK
6
CONTINUOUS
10
-0.1117322834645669
20
2.6256299212598426
11
-0.1094723228346457
21
2.6251803937007874
0
LINE
8
BLACK
6
CONTINUOUS
10
-0.0602597244094488
20
2.6251803937007874
11
-0.0583438582677165
21
2.6239002362204724
0
LINE
8
BLACK
6
CONTINUOUS
10
-0.0583438582677165
20
2.6239002362204724
11
-0.0570637007874016
21
2.62198437007874
0
LINE
8
BLACK
6
CONTINUOUS
10
-0.0570637007874016
20
2.62198437007874
11
-0.0566141732283465
21
2.619724409448819
0
LINE
8
BLACK
6
CONTINUOUS
10
-0.0566141732283465
20
2.619724409448819
11
-0.0566141732283465
21
2.5646062992125982
0
LINE
8
BLACK
6
CONTINUOUS
10
-0.0566141732283465
20
2.5646062992125982
11
-0.0570637007874016
21
2.5623463385826772
0
LINE
8
BLACK
6
CONTINUOUS
10
-0.0570637007874016
20
2.5623463385826772
11
-0.0583438582677165
21
2.5604304724409448
0
LINE
8
BLACK
6
CONTINUOUS
10
-0.0583438582677165
20
2.5604304724409448
11
-0.0602597244094488
21
2.5591503149606298
0
LINE
8
BLACK
6
CONTINUOUS
10
-0.0602597244094488
20
2.5591503149606298
11
-0.0625196850393701
21
2.5587007874015746
0
LINE
8
BLACK
6
CONTINUOUS
10
-0.0625196850393701
20
2.5587007874015746
11
-0.0743307086614173
21
2.5587007874015746
0
LINE
8
BLACK
6
CONTINUOUS
10
-0.0743307086614173
20
2.5587007874015746
11
-0.0765906692913386
21
2.5591503149606298
0
LINE
8
BLACK
6
CONTINUOUS
10
-0.0765906692913386
20
2.5591503149606298
11
-0.0785065354330709
21
2.5604304724409448
0
LINE
8
BLACK
6
CONTINUOUS
10
-0.0785065354330709
20
2.5604304724409448
11
-0.0797866929133858
21
2.5623463385826772
0
LINE
8
BLACK
6
CONTINUOUS
10
-0.0797866929133858
20
2.5623463385826772
11
-0.0802362204724409
21
2.5646062992125982
0
LINE
8
BLACK
6
CONTINUOUS
10
-0.0802362204724409
20
2.5646062992125982
11
-0.0802362204724409
21
2.619724409448819
0
LINE
8
BLACK
6
CONTINUOUS
10
-0.0802362204724409
20
2.619724409448819
11
-0.0797866929133858
21
2.62198437007874
0
LINE
8
BLACK
6
CONTINUOUS
10
-0.0797866929133858
20
2.62198437007874
11
-0.0785065354330709
21
2.6239002362204724
0
LINE
8
BLACK
6
CONTINUOUS
10
-0.0785065354330709
20
2.6239002362204724
11
-0.0765906692913386
21
2.6251803937007874
0
LINE
8
BLACK
6
CONTINUOUS
10
-0.0765906692913386
20
2.6251803937007874
11
-0.0743307086614173
21
2.6256299212598426
0
LINE
8
BLACK
6
CONTINUOUS
10
-0.0743307086614173
20
2.6256299212598426
11
-0.0625196850393701
21
2.6256299212598426
0
LINE
8
BLACK
6
CONTINUOUS
10
-0.0625196850393701
20
2.6256299212598426
11
-0.0602597244094488
21
2.6251803937007874
0
LINE
8
BLACK
6
CONTINUOUS
10
-0.011047125984252
20
2.6251803937007874
11
-0.0091312598425197
21
2.6239002362204724
0
LINE
8
BLACK
6
CONTINUOUS
10
-0.0091312598425197
20
2.6239002362204724
11
-0.0078511023622047
21
2.62198437007874
0
LINE
8
BLACK
6
CONTINUOUS
10
-0.0078511023622047
20
2.62198437007874
11
-0.0074015748031496
21
2.619724409448819
0
LINE
8
BLACK
6
CONTINUOUS
10
-0.0074015748031496
20
2.619724409448819
11
-0.0074015748031496
21
2.5646062992125982
0
LINE
8
BLACK
6
CONTINUOUS
10
-0.0074015748031496
20
2.5646062992125982
11
-0.0078511023622047
21
2.5623463385826772
0
LINE
8
BLACK
6
CONTINUOUS
10
-0.0078511023622047
20
2.5623463385826772
11
-0.0091312598425197
21
2.5604304724409448
0
LINE
8
BLACK
6
CONTINUOUS
10
-0.0091312598425197
20
2.5604304724409448
11
-0.011047125984252
21
2.5591503149606298
0
LINE
8
BLACK
6
CONTINUOUS
10
-0.011047125984252
20
2.5591503149606298
11
-0.0133070866141732
21
2.5587007874015746
0
LINE
8
BLACK
6
CONTINUOUS
10
-0.0133070866141732
20
2.5587007874015746
11
-0.0251181102362205
21
2.5587007874015746
0
LINE
8
BLACK
6
CONTINUOUS
10
-0.0251181102362205
20
2.5587007874015746
11
-0.0273780708661417
21
2.5591503149606298
0
LINE
8
BLACK
6
CONTINUOUS
10
-0.0273780708661417
20
2.5591503149606298
11
-0.029293937007874
21
2.5604304724409448
0
LINE
8
BLACK
6
CONTINUOUS
10
-0.029293937007874
20
2.5604304724409448
11
-0.030574094488189
21
2.5623463385826772
0
LINE
8
BLACK
6
CONTINUOUS
10
-0.030574094488189
20
2.5623463385826772
11
-0.0310236220472441
21
2.5646062992125982
0
LINE
8
BLACK
6
CONTINUOUS
10
-0.0310236220472441
20
2.5646062992125982
11
-0.0310236220472441
21
2.619724409448819
0
LINE
8
BLACK
6
CONTINUOUS
10
-0.0310236220472441
20
2.619724409448819
11
-0.030574094488189
21
2.62198437007874
0
LINE
8
BLACK
6
CONTINUOUS
10
-0.030574094488189
20
2.62198437007874
11
-0.029293937007874
21
2.6239002362204724
0
LINE
8
BLACK
6
CONTINUOUS
10
-0.029293937007874
20
2.6239002362204724
11
-0.0273780708661417
21
2.6251803937007874
0
LINE
8
BLACK
6
CONTINUOUS
10
-0.0273780708661417
20
2.6251803937007874
11
-0.0251181102362205
21
2.6256299212598426
0
LINE
8
BLACK
6
CONTINUOUS
10
-0.0251181102362205
20
2.6256299212598426
11
-0.0133070866141732
21
2.6256299212598426
0
LINE
8
BLACK
6
CONTINUOUS
10
-0.0133070866141732
20
2.6256299212598426
11
-0.011047125984252
21
2.6251803937007874
0
LINE
8
BLACK
6
CONTINUOUS
10
0.0381654724409449
20
2.6251803937007874
11
0.0400813385826772
21
2.6239002362204724
0
LINE
8
BLACK
6
CONTINUOUS
10
0.0400813385826772
20
2.6239002362204724
11
0.0413614960629921
21
2.62198437007874
0
LINE
8
BLACK
6
CONTINUOUS
10
0.0413614960629921
20
2.62198437007874
11
0.0418110236220472
21
2.619724409448819
0
LINE
8
BLACK
6
CONTINUOUS
10
0.0418110236220472
20
2.619724409448819
11
0.0418110236220472
21
2.5646062992125982
0
LINE
8
BLACK
6
CONTINUOUS
10
0.0418110236220472
20
2.5646062992125982
11
0.0413614960629921
21
2.5623463385826772
0
LINE
8
BLACK
6
CONTINUOUS
10
0.0413614960629921
20
2.5623463385826772
11
0.0400813385826772
21
2.5604304724409448
0
LINE
8
BLACK
6
CONTINUOUS
10
0.0400813385826772
20
2.5604304724409448
11
0.0381654724409449
21
2.5591503149606298
0
LINE
8
BLACK
6
CONTINUOUS
10
0.0381654724409449
20
2.5591503149606298
11
0.0359055118110236
21
2.5587007874015746
0
LINE
8
BLACK
6
CONTINUOUS
10
0.0359055118110236
20
2.5587007874015746
11
0.0240944881889764
21
2.5587007874015746
0
LINE
8
BLACK
6
CONTINUOUS
10
0.0240944881889764
20
2.5587007874015746
11
0.0218345275590551
21
2.5591503149606298
0
LINE
8
BLACK
6
CONTINUOUS
10
0.0218345275590551
20
2.5591503149606298
11
0.0199186614173228
21
2.5604304724409448
0
LINE
8
BLACK
6
CONTINUOUS
10
0.0199186614173228
20
2.5604304724409448
11
0.0186385039370079
21
2.5623463385826772
0
LINE
8
BLACK
6
CONTINUOUS
10
0.0186385039370079
20
2.5623463385826772
11
0.0181889763779528
21
2.5646062992125982
0
LINE
8
BLACK
6
CONTINUOUS
10
0.0181889763779528
20
2.5646062992125982
11
0.0181889763779528
21
2.619724409448819
0
LINE
8
BLACK
6
CONTINUOUS
10
0.0181889763779528
20
2.619724409448819
11
0.0186385039370079
21
2.62198437007874
0
LINE
8
BLACK
6
CONTINUOUS
10
0.0186385039370079
20
2.62198437007874
11
0.0199186614173228
21
2.6239002362204724
0
LINE
8
BLACK
6
CONTINUOUS
10
0.0199186614173228
20
2.6239002362204724
11
0.0218345275590551
21
2.6251803937007874
0
LINE
8
BLACK
6
CONTINUOUS
10
0.0218345275590551
20
2.6251803937007874
11
0.0240944881889764
21
2.6256299212598426
0
LINE
8
BLACK
6
CONTINUOUS
10
0.0240944881889764
20
2.6256299212598426
11
0.0359055118110236
21
2.6256299212598426
0
LINE
8
BLACK
6
CONTINUOUS
10
0.0359055118110236
20
2.6256299212598426
11
0.0381654724409449
21
2.6251803937007874
0
LINE
8
BLACK
6
CONTINUOUS
10
0.0873780708661417
20
2.6251803937007874
11
0.089293937007874
21
2.6239002362204724
0
LINE
8
BLACK
6
CONTINUOUS
10
0.089293937007874
20
2.6239002362204724
11
0.090574094488189
21
2.62198437007874
0
LINE
8
BLACK
6
CONTINUOUS
10
0.090574094488189
20
2.62198437007874
11
0.0910236220472441
21
2.619724409448819
0
LINE
8
BLACK
6
CONTINUOUS
10
0.0910236220472441
20
2.619724409448819
11
0.0910236220472441
21
2.5646062992125982
0
LINE
8
BLACK
6
CONTINUOUS
10
0.0910236220472441
20
2.5646062992125982
11
0.090574094488189
21
2.5623463385826772
0
LINE
8
BLACK
6
CONTINUOUS
10
0.090574094488189
20
2.5623463385826772
11
0.089293937007874
21
2.5604304724409448
0
LINE
8
BLACK
6
CONTINUOUS
10
0.089293937007874
20
2.5604304724409448
11
0.0873780708661417
21
2.5591503149606298
0
LINE
8
BLACK
6
CONTINUOUS
10
0.0873780708661417
20
2.5591503149606298
11
0.0851181102362205
21
2.5587007874015746
0
LINE
8
BLACK
6
CONTINUOUS
10
0.0851181102362205
20
2.5587007874015746
11
0.0733070866141732
21
2.5587007874015746
0
LINE
8
BLACK
6
CONTINUOUS
10
0.0733070866141732
20
2.5587007874015746
11
0.071047125984252
21
2.5591503149606298
0
LINE
8
BLACK
6
CONTINUOUS
10
0.071047125984252
20
2.5591503149606298
11
0.0691312598425197
21
2.5604304724409448
0
LINE
8
BLACK
6
CONTINUOUS
10
0.0691312598425197
20
2.5604304724409448
11
0.0678511023622047
21
2.5623463385826772
0
LINE
8
BLACK
6
CONTINUOUS
10
0.0678511023622047
20
2.5623463385826772
11
0.0674015748031496
21
2.5646062992125982
0
LINE
8
BLACK
6
CONTINUOUS
10
0.0674015748031496
20
2.5646062992125982
11
0.0674015748031496
21
2.619724409448819
0
LINE
8
BLACK
6
CONTINUOUS
10
0.0674015748031496
20
2.619724409448819
11
0.0678511023622047
21
2.62198437007874
0
LINE
8
BLACK
6
CONTINUOUS
10
0.0678511023622047
20
2.62198437007874
11
0.0691312598425197
21
2.6239002362204724
0
LINE
8
BLACK
6
CONTINUOUS
10
0.0691312598425197
20
2.6239002362204724
11
0.071047125984252
21
2.6251803937007874
0
LINE
8
BLACK
6
CONTINUOUS
10
0.071047125984252
20
2.6251803937007874
11
0.0733070866141732
21
2.6256299212598426
0
LINE
8
BLACK
6
CONTINUOUS
10
0.0733070866141732
20
2.6256299212598426
11
0.0851181102362205
21
2.6256299212598426
0
LINE
8
BLACK
6
CONTINUOUS
10
0.0851181102362205
20
2.6256299212598426
11
0.0873780708661417
21
2.6251803937007874
0
LINE
8
BLACK
6
CONTINUOUS
10
0.1365906692913386
20
2.6251803937007874
11
0.1385065354330709
21
2.6239002362204724
0
LINE
8
BLACK
6
CONTINUOUS
10
0.1385065354330709
20
2.6239002362204724
11
0.1397866929133858
21
2.62198437007874
0
LINE
8
BLACK
6
CONTINUOUS
10
0.1397866929133858
20
2.62198437007874
11
0.1402362204724409
21
2.619724409448819
0
LINE
8
BLACK
6
CONTINUOUS
10
0.1402362204724409
20
2.619724409448819
11
0.1402362204724409
21
2.5646062992125982
0
LINE
8
BLACK
6
CONTINUOUS
10
0.1402362204724409
20
2.5646062992125982
11
0.1397866929133858
21
2.5623463385826772
0
LINE
8
BLACK
6
CONTINUOUS
10
0.1397866929133858
20
2.5623463385826772
11
0.1385065354330709
21
2.5604304724409448
0
LINE
8
BLACK
6
CONTINUOUS
10
0.1385065354330709
20
2.5604304724409448
11
0.1365906692913386
21
2.5591503149606298
0
LINE
8
BLACK
6
CONTINUOUS
10
0.1365906692913386
20
2.5591503149606298
11
0.1343307086614173
21
2.5587007874015746
0
LINE
8
BLACK
6
CONTINUOUS
10
0.1343307086614173
20
2.5587007874015746
11
0.1225196850393701
21
2.5587007874015746
0
LINE
8
BLACK
6
CONTINUOUS
10
0.1225196850393701
20
2.5587007874015746
11
0.1202597244094488
21
2.5591503149606298
0
LINE
8
BLACK
6
CONTINUOUS
10
0.1202597244094488
20
2.5591503149606298
11
0.1183438582677165
21
2.5604304724409448
0
LINE
8
BLACK
6
CONTINUOUS
10
0.1183438582677165
20
2.5604304724409448
11
0.1170637007874016
21
2.5623463385826772
0
LINE
8
BLACK
6
CONTINUOUS
10
0.1170637007874016
20
2.5623463385826772
11
0.1166141732283465
21
2.5646062992125982
0
LINE
8
BLACK
6
CONTINUOUS
10
0.1166141732283465
20
2.5646062992125982
11
0.1166141732283465
21
2.619724409448819
0
LINE
8
BLACK
6
CONTINUOUS
10
0.1166141732283465
20
2.619724409448819
11
0.1170637007874016
21
2.62198437007874
0
LINE
8
BLACK
6
CONTINUOUS
10
0.1170637007874016
20
2.62198437007874
11
0.1183438582677165
21
2.6239002362204724
0
LINE
8
BLACK
6
CONTINUOUS
10
0.1183438582677165
20
2.6239002362204724
11
0.1202597244094488
21
2.6251803937007874
0
LINE
8
BLACK
6
CONTINUOUS
10
0.1202597244094488
20
2.6251803937007874
11
0.1225196850393701
21
2.6256299212598426
0
LINE
8
BLACK
6
CONTINUOUS
10
0.1225196850393701
20
2.6256299212598426
11
0.1343307086614173
21
2.6256299212598426
0
LINE
8
BLACK
6
CONTINUOUS
10
0.1343307086614173
20
2.6256299212598426
11
0.1365906692913386
21
2.6251803937007874
0
LINE
8
BLACK
6
CONTINUOUS
10
0.1858032677165354
20
2.6251803937007874
11
0.1877191338582677
21
2.6239002362204724
0
LINE
8
BLACK
6
CONTINUOUS
10
0.1877191338582677
20
2.6239002362204724
11
0.1889992913385827
21
2.62198437007874
0
LINE
8
BLACK
6
CONTINUOUS
10
0.1889992913385827
20
2.62198437007874
11
0.1894488188976378
21
2.619724409448819
0
LINE
8
BLACK
6
CONTINUOUS
10
0.1894488188976378
20
2.619724409448819
11
0.1894488188976378
21
2.5646062992125982
0
LINE
8
BLACK
6
CONTINUOUS
10
0.1894488188976378
20
2.5646062992125982
11
0.1889992913385827
21
2.5623463385826772
0
LINE
8
BLACK
6
CONTINUOUS
10
0.1889992913385827
20
2.5623463385826772
11
0.1877191338582677
21
2.5604304724409448
0
LINE
8
BLACK
6
CONTINUOUS
10
0.1877191338582677
20
2.5604304724409448
11
0.1858032677165354
21
2.5591503149606298
0
LINE
8
BLACK
6
CONTINUOUS
10
0.1858032677165354
20
2.5591503149606298
11
0.1835433070866142
21
2.5587007874015746
0
LINE
8
BLACK
6
CONTINUOUS
10
0.1835433070866142
20
2.5587007874015746
11
0.1717322834645669
21
2.5587007874015746
0
LINE
8
BLACK
6
CONTINUOUS
10
0.1717322834645669
20
2.5587007874015746
11
0.1694723228346457
21
2.5591503149606298
0
LINE
8
BLACK
6
CONTINUOUS
10
0.1694723228346457
20
2.5591503149606298
11
0.1675564566929134
21
2.5604304724409448
0
LINE
8
BLACK
6
CONTINUOUS
10
0.1675564566929134
20
2.5604304724409448
11
0.1662762992125984
21
2.5623463385826772
0
LINE
8
BLACK
6
CONTINUOUS
10
0.1662762992125984
20
2.5623463385826772
11
0.1658267716535433
21
2.5646062992125982
0
LINE
8
BLACK
6
CONTINUOUS
10
0.1658267716535433
20
2.5646062992125982
11
0.1658267716535433
21
2.619724409448819
0
LINE
8
BLACK
6
CONTINUOUS
10
0.1658267716535433
20
2.619724409448819
11
0.1662762992125984
21
2.62198437007874
0
LINE
8
BLACK
6
CONTINUOUS
10
0.1662762992125984
20
2.62198437007874
11
0.1675564566929134
21
2.6239002362204724
0
LINE
8
BLACK
6
CONTINUOUS
10
0.1675564566929134
20
2.6239002362204724
11
0.1694723228346457
21
2.6251803937007874
0
LINE
8
BLACK
6
CONTINUOUS
10
0.1694723228346457
20
2.6251803937007874
11
0.1717322834645669
21
2.6256299212598426
0
LINE
8
BLACK
6
CONTINUOUS
10
0.1717322834645669
20
2.6256299212598426
11
0.1835433070866142
21
2.6256299212598426
0
LINE
8
BLACK
6
CONTINUOUS
10
0.1835433070866142
20
2.6256299212598426
11
0.1858032677165354
21
2.6251803937007874
0
LINE
8
BLACK
6
CONTINUOUS
10
-1.4399999999999999
20
2.585
11
-1.5
21
2.585
0
LINE
8
BLACK
6
CONTINUOUS
10
-1.5
20
2.585
11
-1.5
21
2.645
0
LINE
8
BLACK
6
CONTINUOUS
10
-1.5
20
2.645
11
-1.4399999999999999
21
2.645
0
LINE
8
BLACK
6
CONTINUOUS
10
-1.4399999999999999
20
2.645
11
-1.4399999999999999
21
2.585
0
LINE
8
BLACK
6
CONTINUOUS
10
-1.3400000000000001
20
2.585
11
-1.3999999999999999
21
2.585
0
LINE
8
BLACK
6
CONTINUOUS
10
-1.3999999999999999
20
2.585
11
-1.3999999999999999
21
2.645
0
LINE
8
BLACK
6
CONTINUOUS
10
-1.3999999999999999
20
2.645
11
-1.3400000000000001
21
2.645
0
LINE
8
BLACK
6
CONTINUOUS
10
-1.3400000000000001
20
2.645
11
-1.3400000000000001
21
2.585
0
LINE
8
BLACK
6
CONTINUOUS
10
-1.21
20
2.585
11
-1.27
21
2.585
0
LINE
8
BLACK
6
CONTINUOUS
10
-1.27
20
2.585
11
-1.27
21
2.645
0
LINE
8
BLACK
6
CONTINUOUS
10
-1.27
20
2.645
11
-1.21
21
2.645
0
LINE
8
BLACK
6
CONTINUOUS
10
-1.21
20
2.645
11
-1.21
21
2.585
0
LINE
8
BLACK
6
CONTINUOUS
10
-1.1099999999999999
20
2.585
11
-1.1699999999999999
21
2.585
0
LINE
8
BLACK
6
CONTINUOUS
10
-1.1699999999999999
20
2.585
11
-1.1699999999999999
21
2.645
0
LINE
8
BLACK
6
CONTINUOUS
10
-1.1699999999999999
20
2.645
11
-1.1099999999999999
21
2.645
0
LINE
8
BLACK
6
CONTINUOUS
10
-1.1099999999999999
20
2.645
11
-1.1099999999999999
21
2.585
0
LINE
8
BLACK
6
CONTINUOUS
10
-1.01
20
2.585
11
-1.0700000000000001
21
2.585
0
LINE
8
BLACK
6
CONTINUOUS
10
-1.0700000000000001
20
2.585
11
-1.0700000000000001
21
2.645
0
LINE
8
BLACK
6
CONTINUOUS
10
-1.0700000000000001
20
2.645
11
-1.01
21
2.645
0
LINE
8
BLACK
6
CONTINUOUS
10
-1.01
20
2.645
11
-1.01
21
2.585
0
LINE
8
BLACK
6
CONTINUOUS
10
-0.91
20
2.585
11
-0.97
21
2.585
0
LINE
8
BLACK
6
CONTINUOUS
10
-0.97
20
2.585
11
-0.97
21
2.645
0
LINE
8
BLACK
6
CONTINUOUS
10
-0.97
20
2.645
11
-0.91
21
2.645
0
LINE
8
BLACK
6
CONTINUOUS
10
-0.91
20
2.645
11
-0.91
21
2.585
0
LINE
8
BLACK
6
CONTINUOUS
10
-0.8099999999999999
20
2.585
11
-0.87
21
2.585
0
LINE
8
BLACK
6
CONTINUOUS
10
-0.87
20
2.585
11
-0.87
21
2.645
0
LINE
8
BLACK
6
CONTINUOUS
10
-0.87
20
2.645
11
-0.8099999999999999
21
2.645
0
LINE
8
BLACK
6
CONTINUOUS
10
-0.8099999999999999
20
2.645
11
-0.8099999999999999
21
2.585
0
LINE
8
BLACK
6
CONTINUOUS
10
-0.71
20
2.585
11
-0.77
21
2.585
0
LINE
8
BLACK
6
CONTINUOUS
10
-0.77
20
2.585
11
-0.77
21
2.645
0
LINE
8
BLACK
6
CONTINUOUS
10
-0.77
20
2.645
11
-0.71
21
2.645
0
LINE
8
BLACK
6
CONTINUOUS
10
-0.71
20
2.645
11
-0.71
21
2.585
0
LINE
8
BLACK
6
CONTINUOUS
10
-0.61
20
2.585
11
-0.67
21
2.585
0
LINE
8
BLACK
6
CONTINUOUS
10
-0.67
20
2.585
11
-0.67
21
2.645
0
LINE
8
BLACK
6
CONTINUOUS
10
-0.67
20
2.645
11
-0.61
21
2.645
0
LINE
8
BLACK
6
CONTINUOUS
10
-0.61
20
2.645
11
-0.61
21
2.585
0
LINE
8
BLACK
6
CONTINUOUS
10
-0.48
20
2.585
11
-0.54
21
2.585
0
LINE
8
BLACK
6
CONTINUOUS
10
-0.54
20
2.585
11
-0.54
21
2.645
0
LINE
8
BLACK
6
CONTINUOUS
10
-0.54
20
2.645
11
-0.48
21
2.645
0
LINE
8
BLACK
6
CONTINUOUS
10
-0.48
20
2.645
11
-0.48
21
2.585
0
LINE
8
BLACK
6
CONTINUOUS
10
-0.38
20
2.585
11
-0.44
21
2.585
0
LINE
8
BLACK
6
CONTINUOUS
10
-0.44
20
2.585
11
-0.44
21
2.645
0
LINE
8
BLACK
6
CONTINUOUS
10
-0.44
20
2.645
11
-0.38
21
2.645
0
LINE
8
BLACK
6
CONTINUOUS
10
-0.38
20
2.645
11
-0.38
21
2.585
0
LINE
8
BLACK
6
CONTINUOUS
10
-0.28
20
2.585
11
-0.34
21
2.585
0
LINE
8
BLACK
6
CONTINUOUS
10
-0.34
20
2.585
11
-0.34
21
2.645
0
LINE
8
BLACK
6
CONTINUOUS
10
-0.34
20
2.645
11
-0.28
21
2.645
0
LINE
8
BLACK
6
CONTINUOUS
10
-0.28
20
2.645
11
-0.28
21
2.585
0
LINE
8
BLACK
6
CONTINUOUS
10
0.4
20
2.585
11
0.34
21
2.585
0
LINE
8
BLACK
6
CONTINUOUS
10
0.34
20
2.585
11
0.34
21
2.645
0
LINE
8
BLACK
6
CONTINUOUS
10
0.34
20
2.645
11
0.4
21
2.645
0
LINE
8
BLACK
6
CONTINUOUS
10
0.4
20
2.645
11
0.4
21
2.585
0
LINE
8
BLACK
6
CONTINUOUS
10
0.5
20
2.585
11
0.44
21
2.585
0
LINE
8
BLACK
6
CONTINUOUS
10
0.44
20
2.585
11
0.44
21
2.645
0
LINE
8
BLACK
6
CONTINUOUS
10
0.44
20
2.645
11
0.5
21
2.645
0
LINE
8
BLACK
6
CONTINUOUS
10
0.5
20
2.645
11
0.5
21
2.585
0
LINE
8
BLACK
6
CONTINUOUS
10
0.6
20
2.585
11
0.54
21
2.585
0
LINE
8
BLACK
6
CONTINUOUS
10
0.54
20
2.585
11
0.54
21
2.645
0
LINE
8
BLACK
6
CONTINUOUS
10
0.54
20
2.645
11
0.6
21
2.645
0
LINE
8
BLACK
6
CONTINUOUS
10
0.6
20
2.645
11
0.6
21
2.585
0
LINE
8
BLACK
6
CONTINUOUS
10
-1.7216893700787401
20
2.7258183070866142
11
-1.7143038188976378
21
2.7235779527559054
0
LINE
8
BLACK
6
CONTINUOUS
10
-1.7143038188976378
20
2.7235779527559054
11
-1.7074972440944882
21
2.7199397637795273
0
LINE
8
BLACK
6
CONTINUOUS
10
-1.7074972440944882
20
2.7199397637795273
11
-1.7015312204724409
21
2.7150435826771653
0
LINE
8
BLACK
6
CONTINUOUS
10
-1.7015312204724409
20
2.7150435826771653
11
-1.6966350393700786
21
2.7090775590551179
0
LINE
8
BLACK
6
CONTINUOUS
10
-1.6966350393700786
20
2.7090775590551179
11
-1.6929968503937007
21
2.7022709842519683
0
LINE
8
BLACK
6
CONTINUOUS
10
-1.6929968503937007
20
2.7022709842519683
11
-1.6907564960629922
21
2.694885433070866
0
LINE
8
BLACK
6
CONTINUOUS
10
-1.6907564960629922
20
2.694885433070866
11
-1.6899999999999999
21
2.6872047244094488
0
LINE
8
BLACK
6
CONTINUOUS
10
-1.6899999999999999
20
2.6872047244094488
11
-1.6907564960629922
21
2.6795240157480316
0
LINE
8
BLACK
6
CONTINUOUS
10
-1.6907564960629922
20
2.6795240157480316
11
-1.6929968503937007
21
2.6721384645669293
0
LINE
8
BLACK
6
CONTINUOUS
10
-1.6929968503937007
20
2.6721384645669293
11
-1.6966350393700786
21
2.6653318897637797
0
LINE
8
BLACK
6
CONTINUOUS
10
-1.6966350393700786
20
2.6653318897637797
11
-1.7015312204724409
21
2.6593658661417323
0
LINE
8
BLACK
6
CONTINUOUS
10
-1.7015312204724409
20
2.6593658661417323
11
-1.7074972440944882
21
2.6544696850393699
0
LINE
8
BLACK
6
CONTINUOUS
10
-1.7074972440944882
20
2.6544696850393699
11
-1.7143038188976378
21
2.6508314960629922
0
LINE
8
BLACK
6
CONTINUOUS
10
-1.7143038188976378
20
2.6508314960629922
11
-1.7216893700787401
21
2.6485911417322834
0
LINE
8
BLACK
6
CONTINUOUS
10
-1.7216893700787401
20
2.6485911417322834
11
-1.7293700787401574
21
2.6478346456692914
0
LINE
8
BLACK
6
CONTINUOUS
10
-1.7293700787401574
20
2.6478346456692914
11
-1.7370507874015748
21
2.6485911417322834
0
LINE
8
BLACK
6
CONTINUOUS
10
-1.7370507874015748
20
2.6485911417322834
11
-1.7444363385826771
21
2.6508314960629922
0
LINE
8
BLACK
6
CONTINUOUS
10
-1.7444363385826771
20
2.6508314960629922
11
-1.7512429133858267
21
2.6544696850393699
0
LINE
8
BLACK
6
CONTINUOUS
10
-1.7512429133858267
20
2.6544696850393699
11
-1.7572089370078741
21
2.6593658661417323
0
LINE
8
BLACK
6
CONTINUOUS
10
-1.7572089370078741
20
2.6593658661417323
11
-1.7621051181102363
21
2.6653318897637797
0
LINE
8
BLACK
6
CONTINUOUS
10
-1.7621051181102363
20
2.6653318897637797
11
-1.7657433070866142
21
2.6721384645669293
0
LINE
8
BLACK
6
CONTINUOUS
10
-1.7657433070866142
20
2.6721384645669293
11
-1.7679836614173228
21
2.6795240157480316
0
LINE
8
BLACK
6
CONTINUOUS
10
-1.7679836614173228
20
2.6795240157480316
11
-1.768740157480315
21
2.6872047244094488
0
LINE
8
BLACK
6
CONTINUOUS
10
-1.768740157480315
20
2.6872047244094488
11
-1.7679836614173228
21
2.694885433070866
0
LINE
8
BLACK
6
CONTINUOUS
10
-1.7679836614173228
20
2.694885433070866
11
-1.7657433070866142
21
2.7022709842519683
0
LINE
8
BLACK
6
CONTINUOUS
10
-1.7657433070866142
20
2.7022709842519683
11
-1.7621051181102363
21
2.7090775590551179
0
LINE
8
BLACK
6
CONTINUOUS
10
-1.7621051181102363
20
2.7090775590551179
11
-1.7572089370078741
21
2.7150435826771653
0
LINE
8
BLACK
6
CONTINUOUS
10
-1.7572089370078741
20
2.7150435826771653
11
-1.7512429133858267
21
2.7199397637795273
0
LINE
8
BLACK
6
CONTINUOUS
10
-1.7512429133858267
20
2.7199397637795273
11
-1.7444363385826771
21
2.7235779527559054
0
LINE
8
BLACK
6
CONTINUOUS
10
-1.7444363385826771
20
2.7235779527559054
11
-1.7370507874015748
21
2.7258183070866142
0
LINE
8
BLACK
6
CONTINUOUS
10
-1.7370507874015748
20
2.7258183070866142
11
-1.7293700787401574
21
2.7265748031496062
0
LINE
8
BLACK
6
CONTINUOUS
10
-1.7293700787401574
20
2.7265748031496062
11
-1.7216893700787401
21
2.7258183070866142
0
LINE
8
BLACK
6
CONTINUOUS
10
-0.1768633464566929
20
2.7705500000000001
11
-0.1736701968503937
21
2.7684164173228347
0
LINE
8
BLACK
6
CONTINUOUS
10
-0.1736701968503937
20
2.7684164173228347
11
-0.1715366141732284
21
2.7652232677165354
0
LINE
8
BLACK
6
CONTINUOUS
10
-0.1715366141732284
20
2.7652232677165354
11
-0.1707874015748032
21
2.7614566929133857
0
LINE
8
BLACK
6
CONTINUOUS
10
-0.1707874015748032
20
2.7614566929133857
11
-0.1707874015748032
21
2.6748425196850394
0
LINE
8
BLACK
6
CONTINUOUS
10
-0.1707874015748032
20
2.6748425196850394
11
-0.1715366141732284
21
2.6710759448818897
0
LINE
8
BLACK
6
CONTINUOUS
10
-0.1715366141732284
20
2.6710759448818897
11
-0.1736701968503937
21
2.6678827952755904
0
LINE
8
BLACK
6
CONTINUOUS
10
-0.1736701968503937
20
2.6678827952755904
11
-0.1768633464566929
21
2.665749212598425
0
LINE
8
BLACK
6
CONTINUOUS
10
-0.1768633464566929
20
2.665749212598425
11
-0.1806299212598425
21
2.665
0
LINE
8
BLACK
6
CONTINUOUS
10
-0.1806299212598425
20
2.665
11
-0.2003149606299213
21
2.665
0
LINE
8
BLACK
6
CONTINUOUS
10
-0.2003149606299213
20
2.665
11
-0.2040815354330709
21
2.665749212598425
0
LINE
8
BLACK
6
CONTINUOUS
10
-0.2040815354330709
20
2.665749212598425
11
-0.2072746850393701
21
2.6678827952755904
0
LINE
8
BLACK
6
CONTINUOUS
10
-0.2072746850393701
20
2.6678827952755904
11
-0.2094082677165354
21
2.6710759448818897
0
LINE
8
BLACK
6
CONTINUOUS
10
-0.2094082677165354
20
2.6710759448818897
11
-0.2101574803149606
21
2.6748425196850394
0
LINE
8
BLACK
6
CONTINUOUS
10
-0.2101574803149606
20
2.6748425196850394
11
-0.2101574803149606
21
2.7614566929133857
0
LINE
8
BLACK
6
CONTINUOUS
10
-0.2101574803149606
20
2.7614566929133857
11
-0.2094082677165354
21
2.7652232677165354
0
LINE
8
BLACK
6
CONTINUOUS
10
-0.2094082677165354
20
2.7652232677165354
11
-0.2072746850393701
21
2.7684164173228347
0
LINE
8
BLACK
6
CONTINUOUS
10
-0.2072746850393701
20
2.7684164173228347
11
-0.2040815354330709
21
2.7705500000000001
0
LINE
8
BLACK
6
CONTINUOUS
10
-0.2040815354330709
20
2.7705500000000001
11
-0.2003149606299213
21
2.771299212598425
0
LINE
8
BLACK
6
CONTINUOUS
10
-0.2003149606299213
20
2.771299212598425
11
-0.1806299212598425
21
2.771299212598425
0
LINE
8
BLACK
6
CONTINUOUS
10
-0.1806299212598425
20
2.771299212598425
11
-0.1768633464566929
21
2.7705500000000001
0
LINE
8
BLACK
6
CONTINUOUS
10
0.2640815354330708
20
2.7705500000000001
11
0.2672746850393701
21
2.7684164173228347
0
LINE
8
BLACK
6
CONTINUOUS
10
0.2672746850393701
20
2.7684164173228347
11
0.2694082677165354
21
2.7652232677165354
0
LINE
8
BLACK
6
CONTINUOUS
10
0.2694082677165354
20
2.7652232677165354
11
0.2701574803149606
21
2.7614566929133857
0
LINE
8
BLACK
6
CONTINUOUS
10
0.2701574803149606
20
2.7614566929133857
11
0.2701574803149606
21
2.6748425196850394
0
LINE
8
BLACK
6
CONTINUOUS
10
0.2701574803149606
20
2.6748425196850394
11
0.2694082677165354
21
2.6710759448818897
0
LINE
8
BLACK
6
CONTINUOUS
10
0.2694082677165354
20
2.6710759448818897
11
0.2672746850393701
21
2.6678827952755904
0
LINE
8
BLACK
6
CONTINUOUS
10
0.2672746850393701
20
2.6678827952755904
11
0.2640815354330708
21
2.665749212598425
0
LINE
8
BLACK
6
CONTINUOUS
10
0.2640815354330708
20
2.665749212598425
11
0.2603149606299213
21
2.665
0
LINE
8
BLACK
6
CONTINUOUS
10
0.2603149606299213
20
2.665
11
0.2406299212598425
21
2.665
0
LINE
8
BLACK
6
CONTINUOUS
10
0.2406299212598425
20
2.665
11
0.2368633464566929
21
2.665749212598425
0
LINE
8
BLACK
6
CONTINUOUS
10
0.2368633464566929
20
2.665749212598425
11
0.2336701968503937
21
2.6678827952755904
0
LINE
8
BLACK
6
CONTINUOUS
10
0.2336701968503937
20
2.6678827952755904
11
0.2315366141732284
21
2.6710759448818897
0
LINE
8
BLACK
6
CONTINUOUS
10
0.2315366141732284
20
2.6710759448818897
11
0.2307874015748032
21
2.6748425196850394
0
LINE
8
BLACK
6
CONTINUOUS
10
0.2307874015748032
20
2.6748425196850394
11
0.2307874015748032
21
2.7614566929133857
0
LINE
8
BLACK
6
CONTINUOUS
10
0.2307874015748032
20
2.7614566929133857
11
0.2315366141732284
21
2.7652232677165354
0
LINE
8
BLACK
6
CONTINUOUS
10
0.2315366141732284
20
2.7652232677165354
11
0.2336701968503937
21
2.7684164173228347
0
LINE
8
BLACK
6
CONTINUOUS
10
0.2336701968503937
20
2.7684164173228347
11
0.2368633464566929
21
2.7705500000000001
0
LINE
8
BLACK
6
CONTINUOUS
10
0.2368633464566929
20
2.7705500000000001
11
0.2406299212598425
21
2.771299212598425
0
LINE
8
BLACK
6
CONTINUOUS
10
0.2406299212598425
20
2.771299212598425
11
0.2603149606299213
21
2.771299212598425
0
LINE
8
BLACK
6
CONTINUOUS
10
0.2603149606299213
20
2.771299212598425
11
0.2640815354330708
21
2.7705500000000001
0
LINE
8
BLACK
6
CONTINUOUS
10
-1.4399999999999999
20
2.6850000000000001
11
-1.5
21
2.6850000000000001
0
LINE
8
BLACK
6
CONTINUOUS
10
-1.5
20
2.6850000000000001
11
-1.5
21
2.7450000000000001
0
LINE
8
BLACK
6
CONTINUOUS
10
-1.5
20
2.7450000000000001
11
-1.4399999999999999
21
2.7450000000000001
0
LINE
8
BLACK
6
CONTINUOUS
10
-1.4399999999999999
20
2.7450000000000001
11
-1.4399999999999999
21
2.6850000000000001
0
LINE
8
BLACK
6
CONTINUOUS
10
-1.3400000000000001
20
2.6850000000000001
11
-1.3999999999999999
21
2.6850000000000001
0
LINE
8
BLACK
6
CONTINUOUS
10
-1.3999999999999999
20
2.6850000000000001
11
-1.3999999999999999
21
2.7450000000000001
0
LINE
8
BLACK
6
CONTINUOUS
10
-1.3999999999999999
20
2.7450000000000001
11
-1.3400000000000001
21
2.7450000000000001
0
LINE
8
BLACK
6
CONTINUOUS
10
-1.3400000000000001
20
2.7450000000000001
11
-1.3400000000000001
21
2.6850000000000001
0
LINE
8
BLACK
6
CONTINUOUS
10
-1.21
20
2.6850000000000001
11
-1.27
21
2.6850000000000001
0
LINE
8
BLACK
6
CONTINUOUS
10
-1.27
20
2.6850000000000001
11
-1.27
21
2.7450000000000001
0
LINE
8
BLACK
6
CONTINUOUS
10
-1.27
20
2.7450000000000001
11
-1.21
21
2.7450000000000001
0
LINE
8
BLACK
6
CONTINUOUS
10
-1.21
20
2.7450000000000001
11
-1.21
21
2.6850000000000001
0
LINE
8
BLACK
6
CONTINUOUS
10
-1.1099999999999999
20
2.6850000000000001
11
-1.1699999999999999
21
2.6850000000000001
0
LINE
8
BLACK
6
CONTINUOUS
10
-1.1699999999999999
20
2.6850000000000001
11
-1.1699999999999999
21
2.7450000000000001
0
LINE
8
BLACK
6
CONTINUOUS
10
-1.1699999999999999
20
2.7450000000000001
11
-1.1099999999999999
21
2.7450000000000001
0
LINE
8
BLACK
6
CONTINUOUS
10
-1.1099999999999999
20
2.7450000000000001
11
-1.1099999999999999
21
2.6850000000000001
0
LINE
8
BLACK
6
CONTINUOUS
10
-1.01
20
2.6850000000000001
11
-1.0700000000000001
21
2.6850000000000001
0
LINE
8
BLACK
6
CONTINUOUS
10
-1.0700000000000001
20
2.6850000000000001
11
-1.0700000000000001
21
2.7450000000000001
0
LINE
8
BLACK
6
CONTINUOUS
10
-1.0700000000000001
20
2.7450000000000001
11
-1.01
21
2.7450000000000001
0
LINE
8
BLACK
6
CONTINUOUS
10
-1.01
20
2.7450000000000001
11
-1.01
21
2.6850000000000001
0
LINE
8
BLACK
6
CONTINUOUS
10
-0.91
20
2.6850000000000001
11
-0.97
21
2.6850000000000001
0
LINE
8
BLACK
6
CONTINUOUS
10
-0.97
20
2.6850000000000001
11
-0.97
21
2.7450000000000001
0
LINE
8
BLACK
6
CONTINUOUS
10
-0.97
20
2.7450000000000001
11
-0.91
21
2.7450000000000001
0
LINE
8
BLACK
6
CONTINUOUS
10
-0.91
20
2.7450000000000001
11
-0.91
21
2.6850000000000001
0
LINE
8
BLACK
6
CONTINUOUS
10
-0.8099999999999999
20
2.6850000000000001
11
-0.87
21
2.6850000000000001
0
LINE
8
BLACK
6
CONTINUOUS
10
-0.87
20
2.6850000000000001
11
-0.87
21
2.7450000000000001
0
LINE
8
BLACK
6
CONTINUOUS
10
-0.87
20
2.7450000000000001
11
-0.8099999999999999
21
2.7450000000000001
0
LINE
8
BLACK
6
CONTINUOUS
10
-0.8099999999999999
20
2.7450000000000001
11
-0.8099999999999999
21
2.6850000000000001
0
LINE
8
BLACK
6
CONTINUOUS
10
-0.71
20
2.6850000000000001
11
-0.77
21
2.6850000000000001
0
LINE
8
BLACK
6
CONTINUOUS
10
-0.77
20
2.6850000000000001
11
-0.77
21
2.7450000000000001
0
LINE
8
BLACK
6
CONTINUOUS
10
-0.77
20
2.7450000000000001
11
-0.71
21
2.7450000000000001
0
LINE
8
BLACK
6
CONTINUOUS
10
-0.71
20
2.7450000000000001
11
-0.71
21
2.6850000000000001
0
LINE
8
BLACK
6
CONTINUOUS
10
-0.61
20
2.6850000000000001
11
-0.67
21
2.6850000000000001
0
LINE
8
BLACK
6
CONTINUOUS
10
-0.67
20
2.6850000000000001
11
-0.67
21
2.7450000000000001
0
LINE
8
BLACK
6
CONTINUOUS
10
-0.67
20
2.7450000000000001
11
-0.61
21
2.7450000000000001
0
LINE
8
BLACK
6
CONTINUOUS
10
-0.61
20
2.7450000000000001
11
-0.61
21
2.6850000000000001
0
LINE
8
BLACK
6
CONTINUOUS
10
-0.48
20
2.6850000000000001
11
-0.54
21
2.6850000000000001
0
LINE
8
BLACK
6
CONTINUOUS
10
-0.54
20
2.6850000000000001
11
-0.54
21
2.7450000000000001
0
LINE
8
BLACK
6
CONTINUOUS
10
-0.54
20
2.7450000000000001
11
-0.48
21
2.7450000000000001
0
LINE
8
BLACK
6
CONTINUOUS
10
-0.48
20
2.7450000000000001
11
-0.48
21
2.6850000000000001
0
LINE
8
BLACK
6
CONTINUOUS
10
-0.38
20
2.6850000000000001
11
-0.44
21
2.6850000000000001
0
LINE
8
BLACK
6
CONTINUOUS
10
-0.44
20
2.6850000000000001
11
-0.44
21
2.7450000000000001
0
LINE
8
BLACK
6
CONTINUOUS
10
-0.44
20
2.7450000000000001
11
-0.38
21
2.7450000000000001
0
LINE
8
BLACK
6
CONTINUOUS
10
-0.38
20
2.7450000000000001
11
-0.38
21
2.6850000000000001
0
LINE
8
BLACK
6
CONTINUOUS
10
-0.28
20
2.6850000000000001
11
-0.34
21
2.6850000000000001
0
LINE
8
BLACK
6
CONTINUOUS
10
-0.34
20
2.6850000000000001
11
-0.34
21
2.7450000000000001
0
LINE
8
BLACK
6
CONTINUOUS
10
-0.34
20
2.7450000000000001
11
-0.28
21
2.7450000000000001
0
LINE
8
BLACK
6
CONTINUOUS
10
-0.28
20
2.7450000000000001
11
-0.28
21
2.6850000000000001
0
LINE
8
BLACK
6
CONTINUOUS
10
0.4
20
2.6850000000000001
11
0.34
21
2.6850000000000001
0
LINE
8
BLACK
6
CONTINUOUS
10
0.34
20
2.6850000000000001
11
0.34
21
2.7450000000000001
0
LINE
8
BLACK
6
CONTINUOUS
10
0.34
20
2.7450000000000001
11
0.4
21
2.7450000000000001
0
LINE
8
BLACK
6
CONTINUOUS
10
0.4
20
2.7450000000000001
11
0.4
21
2.6850000000000001
0
LINE
8
BLACK
6
CONTINUOUS
10
0.5
20
2.6850000000000001
11
0.44
21
2.6850000000000001
0
LINE
8
BLACK
6
CONTINUOUS
10
0.44
20
2.6850000000000001
11
0.44
21
2.7450000000000001
0
LINE
8
BLACK
6
CONTINUOUS
10
0.44
20
2.7450000000000001
11
0.5
21
2.7450000000000001
0
LINE
8
BLACK
6
CONTINUOUS
10
0.5
20
2.7450000000000001
11
0.5
21
2.6850000000000001
0
LINE
8
BLACK
6
CONTINUOUS
10
0.6
20
2.6850000000000001
11
0.54
21
2.6850000000000001
0
LINE
8
BLACK
6
CONTINUOUS
10
0.54
20
2.6850000000000001
11
0.54
21
2.7450000000000001
0
LINE
8
BLACK
6
CONTINUOUS
10
0.54
20
2.7450000000000001
11
0.6
21
2.7450000000000001
0
LINE
8
BLACK
6
CONTINUOUS
10
0.6
20
2.7450000000000001
11
0.6
21
2.6850000000000001
  0
ENDSEC
  0
EOF
