  0
SECTION
  2
HEADER
  9
$ANGBASE
  50
0.0
  9
$ANGDIR
  70
1
  9
$MEASUREMENT
  70
0
  0
ENDSEC
  0
SECTION
  2
TABLES
  0
TABLE
  2
LTYPE
  70
4
  0
LTYPE
  5
40F
  2
CONTINUOUS
  70
0
  3
Solid line
  72
65
  73
0
  40
0.0
  0
LTYPE
  5
410
  2
DASHDOT
 70
0
  3
Dash Dot ____ _ ____ _
 72
65
 73
4
 40
2.0
 49
1.25
 49
-0.25
 49
0.25
 49
-0.25
  0
LTYPE
  5
411
  2
DASHED
 70
0
  3
Dashed __ __ __ __ __
 72
65
 73
2
 40
0.75
 49
0.5
 49
-0.25
  0
LTYPE
  5
43B
  2
DOTTED
 70
0
  3
Dotted .  .  .  .
 72
65
 73
2
 40
0.2
 49
0.0
 49
-0.2
  0
ENDTAB
  0
TABLE
  2
STYLE
  70
4
  0
STYLE
  2
KICAD
  70
0
  40
0
  41
1
  42
1
  50
0
  71
0
  3
isocp.shx
  0
STYLE
  2
KICADB
  70
0
  40
0
  41
1
  42
1
  50
0
  71
0
  3
isocp.shx
  0
STYLE
  2
KICADI
  70
0
  40
0
  41
1
  42
1
  50
15
  71
0
  3
isocp.shx
  0
STYLE
  2
KICADBI
  70
0
  40
0
  41
1
  42
1
  50
15
  71
0
  3
isocp.shx
  0
ENDTAB
  0
TABLE
  2
LAYER
  70
1
  0
LAYER
  2
BLACK
  70
0
  62
7
  6
CONTINUOUS
  0
ENDTAB
  0
ENDSEC
  0
SECTION
  2
ENTITIES
0
LINE
8
BLACK
6
CONTINUOUS
10
0.2205096456692913
20
0.3163158661417323
11
0.2338744094488189
21
0.3131483858267716
0
LINE
8
BLACK
6
CONTINUOUS
10
0.2338744094488189
20
0.3131483858267716
11
0.246781062992126
21
0.3084507086614173
0
LINE
8
BLACK
6
CONTINUOUS
10
0.246781062992126
20
0.3084507086614173
11
0.2590551181102362
21
0.3022864566929134
0
LINE
8
BLACK
6
CONTINUOUS
10
0.2590551181102362
20
0.3022864566929134
11
0.2705305511811024
21
0.2947389763779528
0
LINE
8
BLACK
6
CONTINUOUS
10
0.2705305511811024
20
0.2947389763779528
11
0.2810521653543307
21
0.2859102755905512
0
LINE
8
BLACK
6
CONTINUOUS
10
0.2810521653543307
20
0.2859102755905512
11
0.2904776771653543
21
0.2759198031496063
0
LINE
8
BLACK
6
CONTINUOUS
10
0.2904776771653543
20
0.2759198031496063
11
0.2986796456692913
21
0.2649026377952756
0
LINE
8
BLACK
6
CONTINUOUS
10
0.2986796456692913
20
0.2649026377952756
11
0.3055471653543307
21
0.2530077952755905
0
LINE
8
BLACK
6
CONTINUOUS
10
0.3055471653543307
20
0.2530077952755905
11
0.3109873228346456
21
0.240396062992126
0
LINE
8
BLACK
6
CONTINUOUS
10
0.3109873228346456
20
0.240396062992126
11
0.3149265748031496
21
0.2272381102362205
0
LINE
8
BLACK
6
CONTINUOUS
10
0.3149265748031496
20
0.2272381102362205
11
0.3173116141732283
21
0.2137117716535433
0
LINE
8
BLACK
6
CONTINUOUS
10
0.3173116141732283
20
0.2137117716535433
11
0.3181102362204724
21
0.2
0
LINE
8
BLACK
6
CONTINUOUS
10
0.3181102362204724
20
0.2
11
0.3173116141732283
21
0.1862882283464567
0
LINE
8
BLACK
6
CONTINUOUS
10
0.3173116141732283
20
0.1862882283464567
11
0.3149265748031496
21
0.1727618897637795
0
LINE
8
BLACK
6
CONTINUOUS
10
0.3149265748031496
20
0.1727618897637795
11
0.3109873228346456
21
0.159603937007874
0
LINE
8
BLACK
6
CONTINUOUS
10
0.3109873228346456
20
0.159603937007874
11
0.3055471653543307
21
0.1469922047244094
0
LINE
8
BLACK
6
CONTINUOUS
10
0.3055471653543307
20
0.1469922047244094
11
0.2986796456692913
21
0.1350973622047244
0
LINE
8
BLACK
6
CONTINUOUS
10
0.2986796456692913
20
0.1350973622047244
11
0.2904776771653543
21
0.1240801968503937
0
LINE
8
BLACK
6
CONTINUOUS
10
0.2904776771653543
20
0.1240801968503937
11
0.2810521653543307
21
0.1140897244094488
0
LINE
8
BLACK
6
CONTINUOUS
10
0.2810521653543307
20
0.1140897244094488
11
0.2705305511811024
21
0.1052610236220472
0
LINE
8
BLACK
6
CONTINUOUS
10
0.2705305511811024
20
0.1052610236220472
11
0.2590551181102362
21
0.0977135433070866
0
LINE
8
BLACK
6
CONTINUOUS
10
0.2590551181102362
20
0.0977135433070866
11
0.246781062992126
21
0.0915492913385827
0
LINE
8
BLACK
6
CONTINUOUS
10
0.246781062992126
20
0.0915492913385827
11
0.2338744094488189
21
0.0868516141732283
0
LINE
8
BLACK
6
CONTINUOUS
10
0.2338744094488189
20
0.0868516141732283
11
0.2205096456692913
21
0.0836841338582677
0
LINE
8
BLACK
6
CONTINUOUS
10
0.2205096456692913
20
0.0836841338582677
11
0.2068674803149606
21
0.0820896062992126
0
LINE
8
BLACK
6
CONTINUOUS
10
0.2068674803149606
20
0.0820896062992126
11
0.1931325196850394
21
0.0820896062992126
0
LINE
8
BLACK
6
CONTINUOUS
10
0.1931325196850394
20
0.0820896062992126
11
0.1794903543307086
21
0.0836841338582677
0
LINE
8
BLACK
6
CONTINUOUS
10
0.1794903543307086
20
0.0836841338582677
11
0.1661255905511811
21
0.0868516141732283
0
LINE
8
BLACK
6
CONTINUOUS
10
0.1661255905511811
20
0.0868516141732283
11
0.153218937007874
21
0.0915492913385827
0
LINE
8
BLACK
6
CONTINUOUS
10
0.153218937007874
20
0.0915492913385827
11
0.1409448818897638
21
0.0977135433070866
0
LINE
8
BLACK
6
CONTINUOUS
10
0.1409448818897638
20
0.0977135433070866
11
0.1294694488188976
21
0.1052610236220472
0
LINE
8
BLACK
6
CONTINUOUS
10
0.1294694488188976
20
0.1052610236220472
11
0.1189478346456693
21
0.1140897244094488
0
LINE
8
BLACK
6
CONTINUOUS
10
0.1189478346456693
20
0.1140897244094488
11
0.1095223228346457
21
0.1240801968503937
0
LINE
8
BLACK
6
CONTINUOUS
10
0.1095223228346457
20
0.1240801968503937
11
0.1013203543307087
21
0.1350973622047244
0
LINE
8
BLACK
6
CONTINUOUS
10
0.1013203543307087
20
0.1350973622047244
11
0.0944528346456693
21
0.1469922047244094
0
LINE
8
BLACK
6
CONTINUOUS
10
0.0944528346456693
20
0.1469922047244094
11
0.0890126771653543
21
0.159603937007874
0
LINE
8
BLACK
6
CONTINUOUS
10
0.0890126771653543
20
0.159603937007874
11
0.0850734251968504
21
0.1727618897637795
0
LINE
8
BLACK
6
CONTINUOUS
10
0.0850734251968504
20
0.1727618897637795
11
0.0826883858267717
21
0.1862882283464567
0
LINE
8
BLACK
6
CONTINUOUS
10
0.0826883858267717
20
0.1862882283464567
11
0.0818897637795276
21
0.2
0
LINE
8
BLACK
6
CONTINUOUS
10
0.0818897637795276
20
0.2
11
0.0826883858267717
21
0.2137117716535433
0
LINE
8
BLACK
6
CONTINUOUS
10
0.0826883858267717
20
0.2137117716535433
11
0.0850734251968504
21
0.2272381102362205
0
LINE
8
BLACK
6
CONTINUOUS
10
0.0850734251968504
20
0.2272381102362205
11
0.0890126771653543
21
0.240396062992126
0
LINE
8
BLACK
6
CONTINUOUS
10
0.0890126771653543
20
0.240396062992126
11
0.0944528346456693
21
0.2530077952755905
0
LINE
8
BLACK
6
CONTINUOUS
10
0.0944528346456693
20
0.2530077952755905
11
0.1013203543307087
21
0.2649026377952756
0
LINE
8
BLACK
6
CONTINUOUS
10
0.1013203543307087
20
0.2649026377952756
11
0.1095223228346457
21
0.2759198031496063
0
LINE
8
BLACK
6
CONTINUOUS
10
0.1095223228346457
20
0.2759198031496063
11
0.1189478346456693
21
0.2859102755905512
0
LINE
8
BLACK
6
CONTINUOUS
10
0.1189478346456693
20
0.2859102755905512
11
0.1294694488188976
21
0.2947389763779528
0
LINE
8
BLACK
6
CONTINUOUS
10
0.1294694488188976
20
0.2947389763779528
11
0.1409448818897638
21
0.3022864566929134
0
LINE
8
BLACK
6
CONTINUOUS
10
0.1409448818897638
20
0.3022864566929134
11
0.153218937007874
21
0.3084507086614173
0
LINE
8
BLACK
6
CONTINUOUS
10
0.153218937007874
20
0.3084507086614173
11
0.1661255905511811
21
0.3131483858267716
0
LINE
8
BLACK
6
CONTINUOUS
10
0.1661255905511811
20
0.3131483858267716
11
0.1794903543307086
21
0.3163158661417323
0
LINE
8
BLACK
6
CONTINUOUS
10
0.1794903543307086
20
0.3163158661417323
11
0.1931325196850394
21
0.3179103937007874
0
LINE
8
BLACK
6
CONTINUOUS
10
0.1931325196850394
20
0.3179103937007874
11
0.2068674803149606
21
0.3179103937007874
0
LINE
8
BLACK
6
CONTINUOUS
10
0.2068674803149606
20
0.3179103937007874
11
0.2205096456692913
21
0.3163158661417323
0
LINE
8
BLACK
6
CONTINUOUS
10
2.4298358661417323
20
0.7398833070866142
11
2.4341983858267717
21
0.7376605118110237
0
LINE
8
BLACK
6
CONTINUOUS
10
2.4341983858267717
20
0.7376605118110237
11
2.4376605118110235
21
0.7341983858267717
0
LINE
8
BLACK
6
CONTINUOUS
10
2.4376605118110235
20
0.7341983858267717
11
2.4398833070866139
21
0.7298358661417322
0
LINE
8
BLACK
6
CONTINUOUS
10
2.4398833070866139
20
0.7298358661417322
11
2.4406492519685039
21
0.725
0
LINE
8
BLACK
6
CONTINUOUS
10
2.4406492519685039
20
0.725
11
2.4398833070866139
21
0.7201641338582677
0
LINE
8
BLACK
6
CONTINUOUS
10
2.4398833070866139
20
0.7201641338582677
11
2.4376605118110235
21
0.7158016141732283
0
LINE
8
BLACK
6
CONTINUOUS
10
2.4376605118110235
20
0.7158016141732283
11
2.4341983858267717
21
0.7123394881889764
0
LINE
8
BLACK
6
CONTINUOUS
10
2.4341983858267717
20
0.7123394881889764
11
2.4298358661417323
21
0.7101166929133859
0
LINE
8
BLACK
6
CONTINUOUS
10
2.4298358661417323
20
0.7101166929133859
11
2.4249999999999998
21
0.709350748031496
0
LINE
8
BLACK
6
CONTINUOUS
10
2.4249999999999998
20
0.709350748031496
11
2.4201641338582678
21
0.7101166929133859
0
LINE
8
BLACK
6
CONTINUOUS
10
2.4201641338582678
20
0.7101166929133859
11
2.4158016141732284
21
0.7123394881889764
0
LINE
8
BLACK
6
CONTINUOUS
10
2.4158016141732284
20
0.7123394881889764
11
2.4123394881889761
21
0.7158016141732283
0
LINE
8
BLACK
6
CONTINUOUS
10
2.4123394881889761
20
0.7158016141732283
11
2.4101166929133857
21
0.7201641338582677
0
LINE
8
BLACK
6
CONTINUOUS
10
2.4101166929133857
20
0.7201641338582677
11
2.4093507480314962
21
0.725
0
LINE
8
BLACK
6
CONTINUOUS
10
2.4093507480314962
20
0.725
11
2.4101166929133857
21
0.7298358661417322
0
LINE
8
BLACK
6
CONTINUOUS
10
2.4101166929133857
20
0.7298358661417322
11
2.4123394881889761
21
0.7341983858267717
0
LINE
8
BLACK
6
CONTINUOUS
10
2.4123394881889761
20
0.7341983858267717
11
2.4158016141732284
21
0.7376605118110237
0
LINE
8
BLACK
6
CONTINUOUS
10
2.4158016141732284
20
0.7376605118110237
11
2.4201641338582678
21
0.7398833070866142
0
LINE
8
BLACK
6
CONTINUOUS
10
2.4201641338582678
20
0.7398833070866142
11
2.4249999999999998
21
0.740649251968504
0
LINE
8
BLACK
6
CONTINUOUS
10
2.4249999999999998
20
0.740649251968504
11
2.4298358661417323
21
0.7398833070866142
0
LINE
8
BLACK
6
CONTINUOUS
10
2.4245030708661415
20
0.7245030708661417
11
2.4249999999999998
21
0.7242972440944881
0
LINE
8
BLACK
6
CONTINUOUS
10
2.4249999999999998
20
0.7242972440944881
11
2.4254969291338582
21
0.7245030708661417
0
LINE
8
BLACK
6
CONTINUOUS
10
2.4254969291338582
20
0.7245030708661417
11
2.4257027559055118
21
0.725
0
LINE
8
BLACK
6
CONTINUOUS
10
2.4257027559055118
20
0.725
11
2.4254969291338582
21
0.7254969291338582
0
LINE
8
BLACK
6
CONTINUOUS
10
2.4254969291338582
20
0.7254969291338582
11
2.4249999999999998
21
0.7257027559055118
0
LINE
8
BLACK
6
CONTINUOUS
10
2.4249999999999998
20
0.7257027559055118
11
2.4245030708661415
21
0.7254969291338582
0
LINE
8
BLACK
6
CONTINUOUS
10
2.4245030708661415
20
0.7254969291338582
11
2.4242972440944883
21
0.725
0
LINE
8
BLACK
6
CONTINUOUS
10
2.4242972440944883
20
0.725
11
2.4245030708661415
21
0.7245030708661417
0
LINE
8
BLACK
6
CONTINUOUS
10
3.0205096456692915
20
3.9037174409448818
11
3.0338744094488188
21
3.9005499606299212
0
LINE
8
BLACK
6
CONTINUOUS
10
3.0338744094488188
20
3.9005499606299212
11
3.0467810629921259
21
3.895852283464567
0
LINE
8
BLACK
6
CONTINUOUS
10
3.0467810629921259
20
3.895852283464567
11
3.0590551181102361
21
3.8896880314960631
0
LINE
8
BLACK
6
CONTINUOUS
10
3.0590551181102361
20
3.8896880314960631
11
3.0705305511811023
21
3.8821405511811022
0
LINE
8
BLACK
6
CONTINUOUS
10
3.0705305511811023
20
3.8821405511811022
11
3.0810521653543308
21
3.8733118503937005
0
LINE
8
BLACK
6
CONTINUOUS
10
3.0810521653543308
20
3.8733118503937005
11
3.0904776771653544
21
3.8633213779527558
0
LINE
8
BLACK
6
CONTINUOUS
10
3.0904776771653544
20
3.8633213779527558
11
3.0986796456692911
21
3.8523042125984253
0
LINE
8
BLACK
6
CONTINUOUS
10
3.0986796456692911
20
3.8523042125984253
11
3.1055471653543307
21
3.8404093700787403
0
LINE
8
BLACK
6
CONTINUOUS
10
3.1055471653543307
20
3.8404093700787403
11
3.1109873228346454
21
3.8277976377952756
0
LINE
8
BLACK
6
CONTINUOUS
10
3.1109873228346454
20
3.8277976377952756
11
3.1149265748031496
21
3.8146396850393698
0
LINE
8
BLACK
6
CONTINUOUS
10
3.1149265748031496
20
3.8146396850393698
11
3.1173116141732282
21
3.8011133464566926
0
LINE
8
BLACK
6
CONTINUOUS
10
3.1173116141732282
20
3.8011133464566926
11
3.1181102362204722
21
3.7874015748031495
0
LINE
8
BLACK
6
CONTINUOUS
10
3.1181102362204722
20
3.7874015748031495
11
3.1173116141732282
21
3.773689803149606
0
LINE
8
BLACK
6
CONTINUOUS
10
3.1173116141732282
20
3.773689803149606
11
3.1149265748031496
21
3.7601634645669288
0
LINE
8
BLACK
6
CONTINUOUS
10
3.1149265748031496
20
3.7601634645669288
11
3.1109873228346454
21
3.7470055118110235
0
LINE
8
BLACK
6
CONTINUOUS
10
3.1109873228346454
20
3.7470055118110235
11
3.1055471653543307
21
3.7343937795275588
0
LINE
8
BLACK
6
CONTINUOUS
10
3.1055471653543307
20
3.7343937795275588
11
3.0986796456692911
21
3.7224989370078738
0
LINE
8
BLACK
6
CONTINUOUS
10
3.0986796456692911
20
3.7224989370078738
11
3.0904776771653544
21
3.7114817716535433
0
LINE
8
BLACK
6
CONTINUOUS
10
3.0904776771653544
20
3.7114817716535433
11
3.0810521653543308
21
3.7014912992125986
0
LINE
8
BLACK
6
CONTINUOUS
10
3.0810521653543308
20
3.7014912992125986
11
3.0705305511811023
21
3.6926625984251968
0
LINE
8
BLACK
6
CONTINUOUS
10
3.0705305511811023
20
3.6926625984251968
11
3.0590551181102361
21
3.685115118110236
0
LINE
8
BLACK
6
CONTINUOUS
10
3.0590551181102361
20
3.685115118110236
11
3.0467810629921259
21
3.6789508661417321
0
LINE
8
BLACK
6
CONTINUOUS
10
3.0467810629921259
20
3.6789508661417321
11
3.0338744094488188
21
3.6742531889763779
0
LINE
8
BLACK
6
CONTINUOUS
10
3.0338744094488188
20
3.6742531889763779
11
3.0205096456692915
21
3.6710857086614173
0
LINE
8
BLACK
6
CONTINUOUS
10
3.0205096456692915
20
3.6710857086614173
11
3.0068674803149604
21
3.6694911811023623
0
LINE
8
BLACK
6
CONTINUOUS
10
3.0068674803149604
20
3.6694911811023623
11
2.9931325196850391
21
3.6694911811023623
0
LINE
8
BLACK
6
CONTINUOUS
10
2.9931325196850391
20
3.6694911811023623
11
2.9794903543307085
21
3.6710857086614173
0
LINE
8
BLACK
6
CONTINUOUS
10
2.9794903543307085
20
3.6710857086614173
11
2.9661255905511812
21
3.6742531889763779
0
LINE
8
BLACK
6
CONTINUOUS
10
2.9661255905511812
20
3.6742531889763779
11
2.9532189370078741
21
3.6789508661417321
0
LINE
8
BLACK
6
CONTINUOUS
10
2.9532189370078741
20
3.6789508661417321
11
2.9409448818897639
21
3.685115118110236
0
LINE
8
BLACK
6
CONTINUOUS
10
2.9409448818897639
20
3.685115118110236
11
2.9294694488188977
21
3.6926625984251968
0
LINE
8
BLACK
6
CONTINUOUS
10
2.9294694488188977
20
3.6926625984251968
11
2.9189478346456692
21
3.7014912992125986
0
LINE
8
BLACK
6
CONTINUOUS
10
2.9189478346456692
20
3.7014912992125986
11
2.9095223228346456
21
3.7114817716535433
0
LINE
8
BLACK
6
CONTINUOUS
10
2.9095223228346456
20
3.7114817716535433
11
2.9013203543307085
21
3.7224989370078738
0
LINE
8
BLACK
6
CONTINUOUS
10
2.9013203543307085
20
3.7224989370078738
11
2.8944528346456693
21
3.7343937795275588
0
LINE
8
BLACK
6
CONTINUOUS
10
2.8944528346456693
20
3.7343937795275588
11
2.8890126771653541
21
3.7470055118110235
0
LINE
8
BLACK
6
CONTINUOUS
10
2.8890126771653541
20
3.7470055118110235
11
2.8850734251968504
21
3.7601634645669288
0
LINE
8
BLACK
6
CONTINUOUS
10
2.8850734251968504
20
3.7601634645669288
11
2.8826883858267718
21
3.773689803149606
0
LINE
8
BLACK
6
CONTINUOUS
10
2.8826883858267718
20
3.773689803149606
11
2.8818897637795273
21
3.7874015748031495
0
LINE
8
BLACK
6
CONTINUOUS
10
2.8818897637795273
20
3.7874015748031495
11
2.8826883858267718
21
3.8011133464566926
0
LINE
8
BLACK
6
CONTINUOUS
10
2.8826883858267718
20
3.8011133464566926
11
2.8850734251968504
21
3.8146396850393698
0
LINE
8
BLACK
6
CONTINUOUS
10
2.8850734251968504
20
3.8146396850393698
11
2.8890126771653541
21
3.8277976377952756
0
LINE
8
BLACK
6
CONTINUOUS
10
2.8890126771653541
20
3.8277976377952756
11
2.8944528346456693
21
3.8404093700787403
0
LINE
8
BLACK
6
CONTINUOUS
10
2.8944528346456693
20
3.8404093700787403
11
2.9013203543307085
21
3.8523042125984253
0
LINE
8
BLACK
6
CONTINUOUS
10
2.9013203543307085
20
3.8523042125984253
11
2.9095223228346456
21
3.8633213779527558
0
LINE
8
BLACK
6
CONTINUOUS
10
2.9095223228346456
20
3.8633213779527558
11
2.9189478346456692
21
3.8733118503937005
0
LINE
8
BLACK
6
CONTINUOUS
10
2.9189478346456692
20
3.8733118503937005
11
2.9294694488188977
21
3.8821405511811022
0
LINE
8
BLACK
6
CONTINUOUS
10
2.9294694488188977
20
3.8821405511811022
11
2.9409448818897639
21
3.8896880314960631
0
LINE
8
BLACK
6
CONTINUOUS
10
2.9409448818897639
20
3.8896880314960631
11
2.9532189370078741
21
3.895852283464567
0
LINE
8
BLACK
6
CONTINUOUS
10
2.9532189370078741
20
3.895852283464567
11
2.9661255905511812
21
3.9005499606299212
0
LINE
8
BLACK
6
CONTINUOUS
10
2.9661255905511812
20
3.9005499606299212
11
2.9794903543307085
21
3.9037174409448818
0
LINE
8
BLACK
6
CONTINUOUS
10
2.9794903543307085
20
3.9037174409448818
11
2.9931325196850391
21
3.9053119685039368
0
LINE
8
BLACK
6
CONTINUOUS
10
2.9931325196850391
20
3.9053119685039368
11
3.0068674803149604
21
3.9053119685039368
0
LINE
8
BLACK
6
CONTINUOUS
10
3.0068674803149604
20
3.9053119685039368
11
3.0205096456692915
21
3.9037174409448818
0
LINE
8
BLACK
6
CONTINUOUS
10
0.2205096456692913
20
3.9163158661417321
11
0.2338744094488189
21
3.9131483858267715
0
LINE
8
BLACK
6
CONTINUOUS
10
0.2338744094488189
20
3.9131483858267715
11
0.246781062992126
21
3.9084507086614173
0
LINE
8
BLACK
6
CONTINUOUS
10
0.246781062992126
20
3.9084507086614173
11
0.2590551181102362
21
3.9022864566929134
0
LINE
8
BLACK
6
CONTINUOUS
10
0.2590551181102362
20
3.9022864566929134
11
0.2705305511811024
21
3.8947389763779525
0
LINE
8
BLACK
6
CONTINUOUS
10
0.2705305511811024
20
3.8947389763779525
11
0.2810521653543307
21
3.8859102755905512
0
LINE
8
BLACK
6
CONTINUOUS
10
0.2810521653543307
20
3.8859102755905512
11
0.2904776771653543
21
3.875919803149606
0
LINE
8
BLACK
6
CONTINUOUS
10
0.2904776771653543
20
3.875919803149606
11
0.2986796456692913
21
3.8649026377952755
0
LINE
8
BLACK
6
CONTINUOUS
10
0.2986796456692913
20
3.8649026377952755
11
0.3055471653543307
21
3.8530077952755906
0
LINE
8
BLACK
6
CONTINUOUS
10
0.3055471653543307
20
3.8530077952755906
11
0.3109873228346456
21
3.8403960629921259
0
LINE
8
BLACK
6
CONTINUOUS
10
0.3109873228346456
20
3.8403960629921259
11
0.3149265748031496
21
3.8272381102362205
0
LINE
8
BLACK
6
CONTINUOUS
10
0.3149265748031496
20
3.8272381102362205
11
0.3173116141732283
21
3.8137117716535434
0
LINE
8
BLACK
6
CONTINUOUS
10
0.3173116141732283
20
3.8137117716535434
11
0.3181102362204724
21
3.7999999999999998
0
LINE
8
BLACK
6
CONTINUOUS
10
0.3181102362204724
20
3.7999999999999998
11
0.3173116141732283
21
3.7862882283464567
0
LINE
8
BLACK
6
CONTINUOUS
10
0.3173116141732283
20
3.7862882283464567
11
0.3149265748031496
21
3.7727618897637796
0
LINE
8
BLACK
6
CONTINUOUS
10
0.3149265748031496
20
3.7727618897637796
11
0.3109873228346456
21
3.7596039370078738
0
LINE
8
BLACK
6
CONTINUOUS
10
0.3109873228346456
20
3.7596039370078738
11
0.3055471653543307
21
3.7469922047244095
0
LINE
8
BLACK
6
CONTINUOUS
10
0.3055471653543307
20
3.7469922047244095
11
0.2986796456692913
21
3.7350973622047241
0
LINE
8
BLACK
6
CONTINUOUS
10
0.2986796456692913
20
3.7350973622047241
11
0.2904776771653543
21
3.7240801968503936
0
LINE
8
BLACK
6
CONTINUOUS
10
0.2904776771653543
20
3.7240801968503936
11
0.2810521653543307
21
3.7140897244094488
0
LINE
8
BLACK
6
CONTINUOUS
10
0.2810521653543307
20
3.7140897244094488
11
0.2705305511811024
21
3.7052610236220471
0
LINE
8
BLACK
6
CONTINUOUS
10
0.2705305511811024
20
3.7052610236220471
11
0.2590551181102362
21
3.6977135433070867
0
LINE
8
BLACK
6
CONTINUOUS
10
0.2590551181102362
20
3.6977135433070867
11
0.246781062992126
21
3.6915492913385828
0
LINE
8
BLACK
6
CONTINUOUS
10
0.246781062992126
20
3.6915492913385828
11
0.2338744094488189
21
3.6868516141732282
0
LINE
8
BLACK
6
CONTINUOUS
10
0.2338744094488189
20
3.6868516141732282
11
0.2205096456692913
21
3.6836841338582675
0
LINE
8
BLACK
6
CONTINUOUS
10
0.2205096456692913
20
3.6836841338582675
11
0.2068674803149606
21
3.6820896062992126
0
LINE
8
BLACK
6
CONTINUOUS
10
0.2068674803149606
20
3.6820896062992126
11
0.1931325196850394
21
3.6820896062992126
0
LINE
8
BLACK
6
CONTINUOUS
10
0.1931325196850394
20
3.6820896062992126
11
0.1794903543307086
21
3.6836841338582675
0
LINE
8
BLACK
6
CONTINUOUS
10
0.1794903543307086
20
3.6836841338582675
11
0.1661255905511811
21
3.6868516141732282
0
LINE
8
BLACK
6
CONTINUOUS
10
0.1661255905511811
20
3.6868516141732282
11
0.153218937007874
21
3.6915492913385828
0
LINE
8
BLACK
6
CONTINUOUS
10
0.153218937007874
20
3.6915492913385828
11
0.1409448818897638
21
3.6977135433070867
0
LINE
8
BLACK
6
CONTINUOUS
10
0.1409448818897638
20
3.6977135433070867
11
0.1294694488188976
21
3.7052610236220471
0
LINE
8
BLACK
6
CONTINUOUS
10
0.1294694488188976
20
3.7052610236220471
11
0.1189478346456693
21
3.7140897244094488
0
LINE
8
BLACK
6
CONTINUOUS
10
0.1189478346456693
20
3.7140897244094488
11
0.1095223228346457
21
3.7240801968503936
0
LINE
8
BLACK
6
CONTINUOUS
10
0.1095223228346457
20
3.7240801968503936
11
0.1013203543307087
21
3.7350973622047241
0
LINE
8
BLACK
6
CONTINUOUS
10
0.1013203543307087
20
3.7350973622047241
11
0.0944528346456693
21
3.7469922047244095
0
LINE
8
BLACK
6
CONTINUOUS
10
0.0944528346456693
20
3.7469922047244095
11
0.0890126771653543
21
3.7596039370078738
0
LINE
8
BLACK
6
CONTINUOUS
10
0.0890126771653543
20
3.7596039370078738
11
0.0850734251968504
21
3.7727618897637796
0
LINE
8
BLACK
6
CONTINUOUS
10
0.0850734251968504
20
3.7727618897637796
11
0.0826883858267717
21
3.7862882283464567
0
LINE
8
BLACK
6
CONTINUOUS
10
0.0826883858267717
20
3.7862882283464567
11
0.0818897637795276
21
3.7999999999999998
0
LINE
8
BLACK
6
CONTINUOUS
10
0.0818897637795276
20
3.7999999999999998
11
0.0826883858267717
21
3.8137117716535434
0
LINE
8
BLACK
6
CONTINUOUS
10
0.0826883858267717
20
3.8137117716535434
11
0.0850734251968504
21
3.8272381102362205
0
LINE
8
BLACK
6
CONTINUOUS
10
0.0850734251968504
20
3.8272381102362205
11
0.0890126771653543
21
3.8403960629921259
0
LINE
8
BLACK
6
CONTINUOUS
10
0.0890126771653543
20
3.8403960629921259
11
0.0944528346456693
21
3.8530077952755906
0
LINE
8
BLACK
6
CONTINUOUS
10
0.0944528346456693
20
3.8530077952755906
11
0.1013203543307087
21
3.8649026377952755
0
LINE
8
BLACK
6
CONTINUOUS
10
0.1013203543307087
20
3.8649026377952755
11
0.1095223228346457
21
3.875919803149606
0
LINE
8
BLACK
6
CONTINUOUS
10
0.1095223228346457
20
3.875919803149606
11
0.1189478346456693
21
3.8859102755905512
0
LINE
8
BLACK
6
CONTINUOUS
10
0.1189478346456693
20
3.8859102755905512
11
0.1294694488188976
21
3.8947389763779525
0
LINE
8
BLACK
6
CONTINUOUS
10
0.1294694488188976
20
3.8947389763779525
11
0.1409448818897638
21
3.9022864566929134
0
LINE
8
BLACK
6
CONTINUOUS
10
0.1409448818897638
20
3.9022864566929134
11
0.153218937007874
21
3.9084507086614173
0
LINE
8
BLACK
6
CONTINUOUS
10
0.153218937007874
20
3.9084507086614173
11
0.1661255905511811
21
3.9131483858267715
0
LINE
8
BLACK
6
CONTINUOUS
10
0.1661255905511811
20
3.9131483858267715
11
0.1794903543307086
21
3.9163158661417321
0
LINE
8
BLACK
6
CONTINUOUS
10
0.1794903543307086
20
3.9163158661417321
11
0.1931325196850394
21
3.9179103937007875
0
LINE
8
BLACK
6
CONTINUOUS
10
0.1931325196850394
20
3.9179103937007875
11
0.2068674803149606
21
3.9179103937007875
0
LINE
8
BLACK
6
CONTINUOUS
10
0.2068674803149606
20
3.9179103937007875
11
0.2205096456692913
21
3.9163158661417321
  0
ENDSEC
  0
EOF
