  0
SECTION
  2
HEADER
  9
$ANGBASE
  50
0.0
  9
$ANGDIR
  70
1
  9
$MEASUREMENT
  70
0
  0
ENDSEC
  0
SECTION
  2
TABLES
  0
TABLE
  2
LTYPE
  70
4
  0
LTYPE
  5
40F
  2
CONTINUOUS
  70
0
  3
Solid line
  72
65
  73
0
  40
0.0
  0
LTYPE
  5
410
  2
DASHDOT
 70
0
  3
Dash Dot ____ _ ____ _
 72
65
 73
4
 40
2.0
 49
1.25
 49
-0.25
 49
0.25
 49
-0.25
  0
LTYPE
  5
411
  2
DASHED
 70
0
  3
Dashed __ __ __ __ __
 72
65
 73
2
 40
0.75
 49
0.5
 49
-0.25
  0
LTYPE
  5
43B
  2
DOTTED
 70
0
  3
Dotted .  .  .  .
 72
65
 73
2
 40
0.2
 49
0.0
 49
-0.2
  0
ENDTAB
  0
TABLE
  2
STYLE
  70
4
  0
STYLE
  2
KICAD
  70
0
  40
0
  41
1
  42
1
  50
0
  71
0
  3
isocp.shx
  0
STYLE
  2
KICADB
  70
0
  40
0
  41
1
  42
1
  50
0
  71
0
  3
isocp.shx
  0
STYLE
  2
KICADI
  70
0
  40
0
  41
1
  42
1
  50
15
  71
0
  3
isocp.shx
  0
STYLE
  2
KICADBI
  70
0
  40
0
  41
1
  42
1
  50
15
  71
0
  3
isocp.shx
  0
ENDTAB
  0
TABLE
  2
LAYER
  70
1
  0
LAYER
  2
BLACK
  70
0
  62
7
  6
CONTINUOUS
  0
ENDTAB
  0
ENDSEC
  0
SECTION
  2
ENTITIES
0
LINE
8
BLACK
6
CONTINUOUS
10
1.8708320472440945
20
0.8697320472440945
11
1.8718974015748031
21
0.8686666929133858
0
LINE
8
BLACK
6
CONTINUOUS
10
1.8718974015748031
20
0.8686666929133858
11
1.8720472440944882
21
0.8679133858267717
0
LINE
8
BLACK
6
CONTINUOUS
10
1.8720472440944882
20
0.8679133858267717
11
1.8720472440944882
21
0.5155511811023622
0
LINE
8
BLACK
6
CONTINUOUS
10
1.8720472440944882
20
0.5155511811023622
11
1.8718974015748031
21
0.5147978740157481
0
LINE
8
BLACK
6
CONTINUOUS
10
1.8718974015748031
20
0.5147978740157481
11
1.8708320472440945
21
0.5137325196850394
0
LINE
8
BLACK
6
CONTINUOUS
10
1.8708320472440945
20
0.5137325196850394
11
1.8700787401574803
21
0.5135826771653543
0
LINE
8
BLACK
6
CONTINUOUS
10
1.8700787401574803
20
0.5135826771653543
11
1.044488188976378
21
0.5135826771653543
0
LINE
8
BLACK
6
CONTINUOUS
10
1.044488188976378
20
0.5135826771653543
11
1.0437348818897638
21
0.5137325196850394
0
LINE
8
BLACK
6
CONTINUOUS
10
1.0437348818897638
20
0.5137325196850394
11
1.0426695275590552
21
0.5147978740157481
0
LINE
8
BLACK
6
CONTINUOUS
10
1.0426695275590552
20
0.5147978740157481
11
1.0425196850393701
21
0.5155511811023622
0
LINE
8
BLACK
6
CONTINUOUS
10
1.0425196850393701
20
0.5155511811023622
11
1.0425196850393701
21
0.8679133858267717
0
LINE
8
BLACK
6
CONTINUOUS
10
1.0425196850393701
20
0.8679133858267717
11
1.0426695275590552
21
0.8686666929133858
0
LINE
8
BLACK
6
CONTINUOUS
10
1.0426695275590552
20
0.8686666929133858
11
1.0437348818897638
21
0.8697320472440945
0
LINE
8
BLACK
6
CONTINUOUS
10
1.0437348818897638
20
0.8697320472440945
11
1.044488188976378
21
0.8698818897637796
0
LINE
8
BLACK
6
CONTINUOUS
10
1.044488188976378
20
0.8698818897637796
11
1.8700787401574803
21
0.8698818897637796
0
LINE
8
BLACK
6
CONTINUOUS
10
1.8700787401574803
20
0.8698818897637796
11
1.8708320472440945
21
0.8697320472440945
0
LINE
8
BLACK
6
CONTINUOUS
10
1.0464566929133858
20
0.5175196850393701
11
1.0779248031496063
21
0.5175196850393701
0
LINE
8
BLACK
6
CONTINUOUS
10
1.0779248031496063
20
0.5175196850393701
11
1.0464566929133858
21
0.5489877952755905
0
LINE
8
BLACK
6
CONTINUOUS
10
1.0464566929133858
20
0.5489877952755905
11
1.0464566929133858
21
0.5175196850393701
0
LINE
8
BLACK
6
CONTINUOUS
10
1.0464566929133858
20
0.5545555118110236
11
1.0834925196850393
21
0.5175196850393701
0
LINE
8
BLACK
6
CONTINUOUS
10
1.0834925196850393
20
0.5175196850393701
11
1.1566649212598425
21
0.5175196850393701
0
LINE
8
BLACK
6
CONTINUOUS
10
1.1566649212598425
20
0.5175196850393701
11
1.0464566929133858
21
0.6277279527559055
0
LINE
8
BLACK
6
CONTINUOUS
10
1.0464566929133858
20
0.6277279527559055
11
1.0464566929133858
21
0.5545555118110236
0
LINE
8
BLACK
6
CONTINUOUS
10
1.0464566929133858
20
0.6332957086614173
11
1.1622327165354331
21
0.5175196850393701
0
LINE
8
BLACK
6
CONTINUOUS
10
1.1622327165354331
20
0.5175196850393701
11
1.2354050787401574
21
0.5175196850393701
0
LINE
8
BLACK
6
CONTINUOUS
10
1.2354050787401574
20
0.5175196850393701
11
1.0464566929133858
21
0.7064681102362205
0
LINE
8
BLACK
6
CONTINUOUS
10
1.0464566929133858
20
0.7064681102362205
11
1.0464566929133858
21
0.6332957086614173
0
LINE
8
BLACK
6
CONTINUOUS
10
1.0464566929133858
20
0.7120358661417323
11
1.240972874015748
21
0.5175196850393701
0
LINE
8
BLACK
6
CONTINUOUS
10
1.240972874015748
20
0.5175196850393701
11
1.3141452362204724
21
0.5175196850393701
0
LINE
8
BLACK
6
CONTINUOUS
10
1.3141452362204724
20
0.5175196850393701
11
1.0464566929133858
21
0.7852082677165354
0
LINE
8
BLACK
6
CONTINUOUS
10
1.0464566929133858
20
0.7852082677165354
11
1.0464566929133858
21
0.7120358661417323
0
LINE
8
BLACK
6
CONTINUOUS
10
1.0464566929133858
20
0.7907760236220472
11
1.319713031496063
21
0.5175196850393701
0
LINE
8
BLACK
6
CONTINUOUS
10
1.319713031496063
20
0.5175196850393701
11
1.3928853937007875
21
0.5175196850393701
0
LINE
8
BLACK
6
CONTINUOUS
10
1.3928853937007875
20
0.5175196850393701
11
1.0464566929133858
21
0.8639484251968503
0
LINE
8
BLACK
6
CONTINUOUS
10
1.0464566929133858
20
0.8639484251968503
11
1.0464566929133858
21
0.7907760236220472
0
LINE
8
BLACK
6
CONTINUOUS
10
1.0500279527559055
20
0.8659448818897637
11
1.3984531889763778
21
0.5175196850393701
0
LINE
8
BLACK
6
CONTINUOUS
10
1.3984531889763778
20
0.5175196850393701
11
1.4716255511811023
21
0.5175196850393701
0
LINE
8
BLACK
6
CONTINUOUS
10
1.4716255511811023
20
0.5175196850393701
11
1.1232003937007873
21
0.8659448818897637
0
LINE
8
BLACK
6
CONTINUOUS
10
1.1232003937007873
20
0.8659448818897637
11
1.0500279527559055
21
0.8659448818897637
0
LINE
8
BLACK
6
CONTINUOUS
10
1.1287681102362204
20
0.8659448818897637
11
1.4771933464566929
21
0.5175196850393701
0
LINE
8
BLACK
6
CONTINUOUS
10
1.4771933464566929
20
0.5175196850393701
11
1.5503657086614173
21
0.5175196850393701
0
LINE
8
BLACK
6
CONTINUOUS
10
1.5503657086614173
20
0.5175196850393701
11
1.2019405511811023
21
0.8659448818897637
0
LINE
8
BLACK
6
CONTINUOUS
10
1.2019405511811023
20
0.8659448818897637
11
1.1287681102362204
21
0.8659448818897637
0
LINE
8
BLACK
6
CONTINUOUS
10
1.2075082677165354
20
0.8659448818897637
11
1.5559335039370079
21
0.5175196850393701
0
LINE
8
BLACK
6
CONTINUOUS
10
1.5559335039370079
20
0.5175196850393701
11
1.6291058661417321
21
0.5175196850393701
0
LINE
8
BLACK
6
CONTINUOUS
10
1.6291058661417321
20
0.5175196850393701
11
1.2806807086614174
21
0.8659448818897637
0
LINE
8
BLACK
6
CONTINUOUS
10
1.2806807086614174
20
0.8659448818897637
11
1.2075082677165354
21
0.8659448818897637
0
LINE
8
BLACK
6
CONTINUOUS
10
1.2862484251968505
20
0.8659448818897637
11
1.6346736614173227
21
0.5175196850393701
0
LINE
8
BLACK
6
CONTINUOUS
10
1.6346736614173227
20
0.5175196850393701
11
1.7078460236220472
21
0.5175196850393701
0
LINE
8
BLACK
6
CONTINUOUS
10
1.7078460236220472
20
0.5175196850393701
11
1.3594208661417322
21
0.8659448818897637
0
LINE
8
BLACK
6
CONTINUOUS
10
1.3594208661417322
20
0.8659448818897637
11
1.2862484251968505
21
0.8659448818897637
0
LINE
8
BLACK
6
CONTINUOUS
10
1.3649885826771653
20
0.8659448818897637
11
1.7134138188976378
21
0.5175196850393701
0
LINE
8
BLACK
6
CONTINUOUS
10
1.7134138188976378
20
0.5175196850393701
11
1.7865861811023622
21
0.5175196850393701
0
LINE
8
BLACK
6
CONTINUOUS
10
1.7865861811023622
20
0.5175196850393701
11
1.4381610236220472
21
0.8659448818897637
0
LINE
8
BLACK
6
CONTINUOUS
10
1.4381610236220472
20
0.8659448818897637
11
1.3649885826771653
21
0.8659448818897637
0
LINE
8
BLACK
6
CONTINUOUS
10
1.4437287401574803
20
0.8659448818897637
11
1.7921539763779528
21
0.5175196850393701
0
LINE
8
BLACK
6
CONTINUOUS
10
1.7921539763779528
20
0.5175196850393701
11
1.865326338582677
21
0.5175196850393701
0
LINE
8
BLACK
6
CONTINUOUS
10
1.865326338582677
20
0.5175196850393701
11
1.5169011811023623
21
0.8659448818897637
0
LINE
8
BLACK
6
CONTINUOUS
10
1.5169011811023623
20
0.8659448818897637
11
1.4437287401574803
21
0.8659448818897637
0
LINE
8
BLACK
6
CONTINUOUS
10
1.5224688976377951
20
0.8659448818897637
11
1.8681102362204725
21
0.5203035826771654
0
LINE
8
BLACK
6
CONTINUOUS
10
1.8681102362204725
20
0.5203035826771654
11
1.8681102362204725
21
0.5934759842519685
0
LINE
8
BLACK
6
CONTINUOUS
10
1.8681102362204725
20
0.5934759842519685
11
1.5956413385826771
21
0.8659448818897637
0
LINE
8
BLACK
6
CONTINUOUS
10
1.5956413385826771
20
0.8659448818897637
11
1.5224688976377951
21
0.8659448818897637
0
LINE
8
BLACK
6
CONTINUOUS
10
1.6012090551181102
20
0.8659448818897637
11
1.8681102362204725
21
0.5990437401574803
0
LINE
8
BLACK
6
CONTINUOUS
10
1.8681102362204725
20
0.5990437401574803
11
1.8681102362204725
21
0.6722161417322835
0
LINE
8
BLACK
6
CONTINUOUS
10
1.8681102362204725
20
0.6722161417322835
11
1.6743814960629921
21
0.8659448818897637
0
LINE
8
BLACK
6
CONTINUOUS
10
1.6743814960629921
20
0.8659448818897637
11
1.6012090551181102
21
0.8659448818897637
0
LINE
8
BLACK
6
CONTINUOUS
10
1.6799492125984252
20
0.8659448818897637
11
1.8681102362204725
21
0.6777838582677165
0
LINE
8
BLACK
6
CONTINUOUS
10
1.8681102362204725
20
0.6777838582677165
11
1.8681102362204725
21
0.7509562992125984
0
LINE
8
BLACK
6
CONTINUOUS
10
1.8681102362204725
20
0.7509562992125984
11
1.753121653543307
21
0.8659448818897637
0
LINE
8
BLACK
6
CONTINUOUS
10
1.753121653543307
20
0.8659448818897637
11
1.6799492125984252
21
0.8659448818897637
0
LINE
8
BLACK
6
CONTINUOUS
10
1.75868937007874
20
0.8659448818897637
11
1.8681102362204725
21
0.7565240157480315
0
LINE
8
BLACK
6
CONTINUOUS
10
1.8681102362204725
20
0.7565240157480315
11
1.8681102362204725
21
0.8296964566929134
0
LINE
8
BLACK
6
CONTINUOUS
10
1.8681102362204725
20
0.8296964566929134
11
1.831861811023622
21
0.8659448818897637
0
LINE
8
BLACK
6
CONTINUOUS
10
1.831861811023622
20
0.8659448818897637
11
1.75868937007874
21
0.8659448818897637
0
LINE
8
BLACK
6
CONTINUOUS
10
1.8374295275590551
20
0.8659448818897637
11
1.8681102362204725
21
0.8352641732283465
0
LINE
8
BLACK
6
CONTINUOUS
10
1.8681102362204725
20
0.8352641732283465
11
1.8681102362204725
21
0.8659448818897637
0
LINE
8
BLACK
6
CONTINUOUS
10
1.8681102362204725
20
0.8659448818897637
11
1.8374295275590551
21
0.8659448818897637
0
LINE
8
BLACK
6
CONTINUOUS
10
1.8708320472440945
20
1.3197320472440945
11
1.8718974015748031
21
1.3186666929133859
0
LINE
8
BLACK
6
CONTINUOUS
10
1.8718974015748031
20
1.3186666929133859
11
1.8720472440944882
21
1.3179133858267715
0
LINE
8
BLACK
6
CONTINUOUS
10
1.8720472440944882
20
1.3179133858267715
11
1.8720472440944882
21
0.9655511811023622
0
LINE
8
BLACK
6
CONTINUOUS
10
1.8720472440944882
20
0.9655511811023622
11
1.8718974015748031
21
0.964797874015748
0
LINE
8
BLACK
6
CONTINUOUS
10
1.8718974015748031
20
0.964797874015748
11
1.8708320472440945
21
0.9637325196850394
0
LINE
8
BLACK
6
CONTINUOUS
10
1.8708320472440945
20
0.9637325196850394
11
1.8700787401574803
21
0.9635826771653543
0
LINE
8
BLACK
6
CONTINUOUS
10
1.8700787401574803
20
0.9635826771653543
11
1.044488188976378
21
0.9635826771653543
0
LINE
8
BLACK
6
CONTINUOUS
10
1.044488188976378
20
0.9635826771653543
11
1.0437348818897638
21
0.9637325196850394
0
LINE
8
BLACK
6
CONTINUOUS
10
1.0437348818897638
20
0.9637325196850394
11
1.0426695275590552
21
0.964797874015748
0
LINE
8
BLACK
6
CONTINUOUS
10
1.0426695275590552
20
0.964797874015748
11
1.0425196850393701
21
0.9655511811023622
0
LINE
8
BLACK
6
CONTINUOUS
10
1.0425196850393701
20
0.9655511811023622
11
1.0425196850393701
21
1.3179133858267715
0
LINE
8
BLACK
6
CONTINUOUS
10
1.0425196850393701
20
1.3179133858267715
11
1.0426695275590552
21
1.3186666929133859
0
LINE
8
BLACK
6
CONTINUOUS
10
1.0426695275590552
20
1.3186666929133859
11
1.0437348818897638
21
1.3197320472440945
0
LINE
8
BLACK
6
CONTINUOUS
10
1.0437348818897638
20
1.3197320472440945
11
1.044488188976378
21
1.3198818897637794
0
LINE
8
BLACK
6
CONTINUOUS
10
1.044488188976378
20
1.3198818897637794
11
1.8700787401574803
21
1.3198818897637794
0
LINE
8
BLACK
6
CONTINUOUS
10
1.8700787401574803
20
1.3198818897637794
11
1.8708320472440945
21
1.3197320472440945
0
LINE
8
BLACK
6
CONTINUOUS
10
1.0464566929133858
20
0.96751968503937
11
1.0779248031496063
21
0.96751968503937
0
LINE
8
BLACK
6
CONTINUOUS
10
1.0779248031496063
20
0.96751968503937
11
1.0464566929133858
21
0.9989877952755906
0
LINE
8
BLACK
6
CONTINUOUS
10
1.0464566929133858
20
0.9989877952755906
11
1.0464566929133858
21
0.96751968503937
0
LINE
8
BLACK
6
CONTINUOUS
10
1.0464566929133858
20
1.0045555118110236
11
1.0834925196850393
21
0.96751968503937
0
LINE
8
BLACK
6
CONTINUOUS
10
1.0834925196850393
20
0.96751968503937
11
1.1566649212598425
21
0.96751968503937
0
LINE
8
BLACK
6
CONTINUOUS
10
1.1566649212598425
20
0.96751968503937
11
1.0464566929133858
21
1.0777279527559054
0
LINE
8
BLACK
6
CONTINUOUS
10
1.0464566929133858
20
1.0777279527559054
11
1.0464566929133858
21
1.0045555118110236
0
LINE
8
BLACK
6
CONTINUOUS
10
1.0464566929133858
20
1.0832957086614172
11
1.1622327165354331
21
0.96751968503937
0
LINE
8
BLACK
6
CONTINUOUS
10
1.1622327165354331
20
0.96751968503937
11
1.2354050787401574
21
0.96751968503937
0
LINE
8
BLACK
6
CONTINUOUS
10
1.2354050787401574
20
0.96751968503937
11
1.0464566929133858
21
1.1564681102362204
0
LINE
8
BLACK
6
CONTINUOUS
10
1.0464566929133858
20
1.1564681102362204
11
1.0464566929133858
21
1.0832957086614172
0
LINE
8
BLACK
6
CONTINUOUS
10
1.0464566929133858
20
1.1620358661417323
11
1.240972874015748
21
0.96751968503937
0
LINE
8
BLACK
6
CONTINUOUS
10
1.240972874015748
20
0.96751968503937
11
1.3141452362204724
21
0.96751968503937
0
LINE
8
BLACK
6
CONTINUOUS
10
1.3141452362204724
20
0.96751968503937
11
1.0464566929133858
21
1.2352082677165355
0
LINE
8
BLACK
6
CONTINUOUS
10
1.0464566929133858
20
1.2352082677165355
11
1.0464566929133858
21
1.1620358661417323
0
LINE
8
BLACK
6
CONTINUOUS
10
1.0464566929133858
20
1.2407760236220473
11
1.319713031496063
21
0.96751968503937
0
LINE
8
BLACK
6
CONTINUOUS
10
1.319713031496063
20
0.96751968503937
11
1.3928853937007875
21
0.96751968503937
0
LINE
8
BLACK
6
CONTINUOUS
10
1.3928853937007875
20
0.96751968503937
11
1.0464566929133858
21
1.3139484251968503
0
LINE
8
BLACK
6
CONTINUOUS
10
1.0464566929133858
20
1.3139484251968503
11
1.0464566929133858
21
1.2407760236220473
0
LINE
8
BLACK
6
CONTINUOUS
10
1.0500279527559055
20
1.3159448818897637
11
1.3984531889763778
21
0.96751968503937
0
LINE
8
BLACK
6
CONTINUOUS
10
1.3984531889763778
20
0.96751968503937
11
1.4716255511811023
21
0.96751968503937
0
LINE
8
BLACK
6
CONTINUOUS
10
1.4716255511811023
20
0.96751968503937
11
1.1232003937007873
21
1.3159448818897637
0
LINE
8
BLACK
6
CONTINUOUS
10
1.1232003937007873
20
1.3159448818897637
11
1.0500279527559055
21
1.3159448818897637
0
LINE
8
BLACK
6
CONTINUOUS
10
1.1287681102362204
20
1.3159448818897637
11
1.4771933464566929
21
0.96751968503937
0
LINE
8
BLACK
6
CONTINUOUS
10
1.4771933464566929
20
0.96751968503937
11
1.5503657086614173
21
0.96751968503937
0
LINE
8
BLACK
6
CONTINUOUS
10
1.5503657086614173
20
0.96751968503937
11
1.2019405511811023
21
1.3159448818897637
0
LINE
8
BLACK
6
CONTINUOUS
10
1.2019405511811023
20
1.3159448818897637
11
1.1287681102362204
21
1.3159448818897637
0
LINE
8
BLACK
6
CONTINUOUS
10
1.2075082677165354
20
1.3159448818897637
11
1.5559335039370079
21
0.96751968503937
0
LINE
8
BLACK
6
CONTINUOUS
10
1.5559335039370079
20
0.96751968503937
11
1.6291058661417321
21
0.96751968503937
0
LINE
8
BLACK
6
CONTINUOUS
10
1.6291058661417321
20
0.96751968503937
11
1.2806807086614174
21
1.3159448818897637
0
LINE
8
BLACK
6
CONTINUOUS
10
1.2806807086614174
20
1.3159448818897637
11
1.2075082677165354
21
1.3159448818897637
0
LINE
8
BLACK
6
CONTINUOUS
10
1.2862484251968505
20
1.3159448818897637
11
1.6346736614173227
21
0.96751968503937
0
LINE
8
BLACK
6
CONTINUOUS
10
1.6346736614173227
20
0.96751968503937
11
1.7078460236220472
21
0.96751968503937
0
LINE
8
BLACK
6
CONTINUOUS
10
1.7078460236220472
20
0.96751968503937
11
1.3594208661417322
21
1.3159448818897637
0
LINE
8
BLACK
6
CONTINUOUS
10
1.3594208661417322
20
1.3159448818897637
11
1.2862484251968505
21
1.3159448818897637
0
LINE
8
BLACK
6
CONTINUOUS
10
1.3649885826771653
20
1.3159448818897637
11
1.7134138188976378
21
0.96751968503937
0
LINE
8
BLACK
6
CONTINUOUS
10
1.7134138188976378
20
0.96751968503937
11
1.7865861811023622
21
0.96751968503937
0
LINE
8
BLACK
6
CONTINUOUS
10
1.7865861811023622
20
0.96751968503937
11
1.4381610236220472
21
1.3159448818897637
0
LINE
8
BLACK
6
CONTINUOUS
10
1.4381610236220472
20
1.3159448818897637
11
1.3649885826771653
21
1.3159448818897637
0
LINE
8
BLACK
6
CONTINUOUS
10
1.4437287401574803
20
1.3159448818897637
11
1.7921539763779528
21
0.96751968503937
0
LINE
8
BLACK
6
CONTINUOUS
10
1.7921539763779528
20
0.96751968503937
11
1.865326338582677
21
0.96751968503937
0
LINE
8
BLACK
6
CONTINUOUS
10
1.865326338582677
20
0.96751968503937
11
1.5169011811023623
21
1.3159448818897637
0
LINE
8
BLACK
6
CONTINUOUS
10
1.5169011811023623
20
1.3159448818897637
11
1.4437287401574803
21
1.3159448818897637
0
LINE
8
BLACK
6
CONTINUOUS
10
1.5224688976377951
20
1.3159448818897637
11
1.8681102362204725
21
0.9703035826771653
0
LINE
8
BLACK
6
CONTINUOUS
10
1.8681102362204725
20
0.9703035826771653
11
1.8681102362204725
21
1.0434759842519685
0
LINE
8
BLACK
6
CONTINUOUS
10
1.8681102362204725
20
1.0434759842519685
11
1.5956413385826771
21
1.3159448818897637
0
LINE
8
BLACK
6
CONTINUOUS
10
1.5956413385826771
20
1.3159448818897637
11
1.5224688976377951
21
1.3159448818897637
0
LINE
8
BLACK
6
CONTINUOUS
10
1.6012090551181102
20
1.3159448818897637
11
1.8681102362204725
21
1.0490437401574804
0
LINE
8
BLACK
6
CONTINUOUS
10
1.8681102362204725
20
1.0490437401574804
11
1.8681102362204725
21
1.1222161417322833
0
LINE
8
BLACK
6
CONTINUOUS
10
1.8681102362204725
20
1.1222161417322833
11
1.6743814960629921
21
1.3159448818897637
0
LINE
8
BLACK
6
CONTINUOUS
10
1.6743814960629921
20
1.3159448818897637
11
1.6012090551181102
21
1.3159448818897637
0
LINE
8
BLACK
6
CONTINUOUS
10
1.6799492125984252
20
1.3159448818897637
11
1.8681102362204725
21
1.1277838582677164
0
LINE
8
BLACK
6
CONTINUOUS
10
1.8681102362204725
20
1.1277838582677164
11
1.8681102362204725
21
1.2009562992125984
0
LINE
8
BLACK
6
CONTINUOUS
10
1.8681102362204725
20
1.2009562992125984
11
1.753121653543307
21
1.3159448818897637
0
LINE
8
BLACK
6
CONTINUOUS
10
1.753121653543307
20
1.3159448818897637
11
1.6799492125984252
21
1.3159448818897637
0
LINE
8
BLACK
6
CONTINUOUS
10
1.75868937007874
20
1.3159448818897637
11
1.8681102362204725
21
1.2065240157480315
0
LINE
8
BLACK
6
CONTINUOUS
10
1.8681102362204725
20
1.2065240157480315
11
1.8681102362204725
21
1.2796964566929134
0
LINE
8
BLACK
6
CONTINUOUS
10
1.8681102362204725
20
1.2796964566929134
11
1.831861811023622
21
1.3159448818897637
0
LINE
8
BLACK
6
CONTINUOUS
10
1.831861811023622
20
1.3159448818897637
11
1.75868937007874
21
1.3159448818897637
0
LINE
8
BLACK
6
CONTINUOUS
10
1.8374295275590551
20
1.3159448818897637
11
1.8681102362204725
21
1.2852641732283465
0
LINE
8
BLACK
6
CONTINUOUS
10
1.8681102362204725
20
1.2852641732283465
11
1.8681102362204725
21
1.3159448818897637
0
LINE
8
BLACK
6
CONTINUOUS
10
1.8681102362204725
20
1.3159448818897637
11
1.8374295275590551
21
1.3159448818897637
0
CIRCLE
8
BLACK
10
2.1749999999999998
20
3.6499999999999999
40
0.0068897637795276
0
CIRCLE
8
BLACK
10
2.1749999999999998
20
3.75
40
0.0068897637795276
0
CIRCLE
8
BLACK
10
2.1257874015748031
20
2.7999999999999998
40
0.0068897637795276
0
CIRCLE
8
BLACK
10
0.7242125984251968
20
2.7999999999999998
40
0.0068897637795276
0
CIRCLE
8
BLACK
10
2.7537401574803151
20
2.7999999999999998
40
0.0068897637795276
0
CIRCLE
8
BLACK
10
0.096259842519685
20
2.7999999999999998
40
0.0068897637795276
0
CIRCLE
8
BLACK
10
1.9749999999999999
20
3.6499999999999999
40
0.0068897637795276
0
CIRCLE
8
BLACK
10
1.9749999999999999
20
3.75
40
0.0068897637795276
0
CIRCLE
8
BLACK
10
3.
20
1.825
40
0.0068897637795276
0
CIRCLE
8
BLACK
10
2.8999999999999999
20
1.825
40
0.0068897637795276
0
CIRCLE
8
BLACK
10
1.875
20
3.6499999999999999
40
0.0068897637795276
0
CIRCLE
8
BLACK
10
1.875
20
3.75
40
0.0068897637795276
0
CIRCLE
8
BLACK
10
2.8999999999999999
20
2.2749999999999999
40
0.0068897637795276
0
CIRCLE
8
BLACK
10
3.
20
2.2749999999999999
40
0.0068897637795276
0
CIRCLE
8
BLACK
10
2.8999999999999999
20
2.5749999999999997
40
0.0068897637795276
0
CIRCLE
8
BLACK
10
3.
20
2.5749999999999997
40
0.0068897637795276
0
CIRCLE
8
BLACK
10
2.8999999999999999
20
2.375
40
0.0068897637795276
0
CIRCLE
8
BLACK
10
3.
20
2.375
40
0.0068897637795276
0
CIRCLE
8
BLACK
10
2.8999999999999999
20
2.4750000000000001
40
0.0068897637795276
0
CIRCLE
8
BLACK
10
3.
20
2.4750000000000001
40
0.0068897637795276
0
CIRCLE
8
BLACK
10
3.
20
1.7249999999999999
40
0.0068897637795276
0
CIRCLE
8
BLACK
10
2.8999999999999999
20
1.7249999999999999
40
0.0068897637795276
0
CIRCLE
8
BLACK
10
3.
20
2.0249999999999999
40
0.0068897637795276
0
CIRCLE
8
BLACK
10
2.8999999999999999
20
2.0249999999999999
40
0.0068897637795276
0
CIRCLE
8
BLACK
10
3.
20
2.125
40
0.0068897637795276
0
CIRCLE
8
BLACK
10
2.8999999999999999
20
2.125
40
0.0068897637795276
0
CIRCLE
8
BLACK
10
2.8999999999999999
20
0.85
40
0.0068897637795276
0
CIRCLE
8
BLACK
10
2.8999999999999999
20
0.95
40
0.0068897637795276
0
CIRCLE
8
BLACK
10
3.
20
0.85
40
0.0068897637795276
0
CIRCLE
8
BLACK
10
3.
20
0.95
40
0.0068897637795276
0
CIRCLE
8
BLACK
10
3.1000000000000001
20
0.85
40
0.0068897637795276
0
CIRCLE
8
BLACK
10
3.1000000000000001
20
0.95
40
0.0068897637795276
0
CIRCLE
8
BLACK
10
3.
20
3.1999999999999997
40
0.0068897637795276
0
CIRCLE
8
BLACK
10
2.8999999999999999
20
3.1999999999999997
40
0.0068897637795276
0
CIRCLE
8
BLACK
10
1.575
20
3.6499999999999999
40
0.0068897637795276
0
CIRCLE
8
BLACK
10
1.575
20
3.75
40
0.0068897637795276
0
CIRCLE
8
BLACK
10
3.
20
1.1499999999999999
40
0.0068897637795276
0
CIRCLE
8
BLACK
10
2.8999999999999999
20
1.1499999999999999
40
0.0068897637795276
0
CIRCLE
8
BLACK
10
3.
20
1.25
40
0.0068897637795276
0
CIRCLE
8
BLACK
10
2.8999999999999999
20
1.25
40
0.0068897637795276
0
CIRCLE
8
BLACK
10
3.
20
1.3499999999999999
40
0.0068897637795276
0
CIRCLE
8
BLACK
10
2.8999999999999999
20
1.3499999999999999
40
0.0068897637795276
0
CIRCLE
8
BLACK
10
0.775
20
0.35
40
0.0068897637795276
0
CIRCLE
8
BLACK
10
0.775
20
0.25
40
0.0068897637795276
0
CIRCLE
8
BLACK
10
2.8999999999999999
20
1.4749999999999999
40
0.0068897637795276
0
CIRCLE
8
BLACK
10
3.
20
1.4749999999999999
40
0.0068897637795276
0
CIRCLE
8
BLACK
10
1.7749999999999999
20
3.6499999999999999
40
0.0068897637795276
0
CIRCLE
8
BLACK
10
1.7749999999999999
20
3.75
40
0.0068897637795276
0
CIRCLE
8
BLACK
10
2.0749999999999997
20
3.6499999999999999
40
0.0068897637795276
0
CIRCLE
8
BLACK
10
2.0749999999999997
20
3.75
40
0.0068897637795276
0
CIRCLE
8
BLACK
10
2.5749999999999997
20
3.6499999999999999
40
0.0068897637795276
0
CIRCLE
8
BLACK
10
2.5749999999999997
20
3.75
40
0.0068897637795276
0
CIRCLE
8
BLACK
10
2.6749999999999998
20
3.6499999999999999
40
0.0068897637795276
0
CIRCLE
8
BLACK
10
2.6749999999999998
20
3.75
40
0.0068897637795276
0
CIRCLE
8
BLACK
10
2.4750000000000001
20
3.6499999999999999
40
0.0068897637795276
0
CIRCLE
8
BLACK
10
2.4750000000000001
20
3.75
40
0.0068897637795276
0
CIRCLE
8
BLACK
10
2.8999999999999999
20
1.575
40
0.0068897637795276
0
CIRCLE
8
BLACK
10
3.
20
1.575
40
0.0068897637795276
0
CIRCLE
8
BLACK
10
3.
20
3.3500000000000001
40
0.0068897637795276
0
CIRCLE
8
BLACK
10
2.8999999999999999
20
3.3500000000000001
40
0.0068897637795276
0
CIRCLE
8
BLACK
10
3.
20
3.4499999999999997
40
0.0068897637795276
0
CIRCLE
8
BLACK
10
2.8999999999999999
20
3.4499999999999997
40
0.0068897637795276
0
CIRCLE
8
BLACK
10
3.
20
3.5499999999999998
40
0.0068897637795276
0
CIRCLE
8
BLACK
10
2.8999999999999999
20
3.5499999999999998
40
0.0068897637795276
0
CIRCLE
8
BLACK
10
0.2
20
3.7999999999999998
40
0.0068897637795276
0
CIRCLE
8
BLACK
10
0.2
20
0.2
40
0.0068897637795276
0
CIRCLE
8
BLACK
10
3.
20
3.7874015748031495
40
0.0068897637795276
0
CIRCLE
8
BLACK
10
3.
20
0.65
40
0.0068897637795276
0
CIRCLE
8
BLACK
10
3.
20
0.75
40
0.0068897637795276
0
CIRCLE
8
BLACK
10
2.8999999999999999
20
0.45
40
0.0068897637795276
0
CIRCLE
8
BLACK
10
2.8999999999999999
20
0.5499999999999999
40
0.0068897637795276
0
CIRCLE
8
BLACK
10
3.
20
0.45
40
0.0068897637795276
0
CIRCLE
8
BLACK
10
3.
20
0.5499999999999999
40
0.0068897637795276
0
CIRCLE
8
BLACK
10
3.1000000000000001
20
0.45
40
0.0068897637795276
0
CIRCLE
8
BLACK
10
3.1000000000000001
20
0.5499999999999999
40
0.0068897637795276
0
CIRCLE
8
BLACK
10
2.1257874015748031
20
1.3
40
0.0068897637795276
0
CIRCLE
8
BLACK
10
0.7242125984251968
20
1.3
40
0.0068897637795276
0
CIRCLE
8
BLACK
10
2.7537401574803151
20
1.3
40
0.0068897637795276
0
CIRCLE
8
BLACK
10
0.096259842519685
20
1.3
40
0.0068897637795276
0
CIRCLE
8
BLACK
10
0.475
20
0.2
40
0.0068897637795276
0
CIRCLE
8
BLACK
10
0.575
20
0.2
40
0.0068897637795276
0
CIRCLE
8
BLACK
10
3.
20
1.925
40
0.0068897637795276
0
CIRCLE
8
BLACK
10
2.8999999999999999
20
1.925
40
0.0068897637795276
0
CIRCLE
8
BLACK
10
2.9499999999999997
20
2.9960999999999998
40
0.0068897637795276
0
CIRCLE
8
BLACK
10
2.9499999999999997
20
2.8039000000000001
40
0.0068897637795276
0
CIRCLE
8
BLACK
10
0.5
20
3.6499999999999999
40
0.0068897637795276
0
CIRCLE
8
BLACK
10
0.5
20
3.75
40
0.0068897637795276
0
CIRCLE
8
BLACK
10
0.9
20
3.6499999999999999
40
0.0068897637795276
0
CIRCLE
8
BLACK
10
0.9
20
3.75
40
0.0068897637795276
0
CIRCLE
8
BLACK
10
0.7999999999999999
20
3.6499999999999999
40
0.0068897637795276
0
CIRCLE
8
BLACK
10
0.7999999999999999
20
3.75
40
0.0068897637795276
0
CIRCLE
8
BLACK
10
0.7
20
3.6499999999999999
40
0.0068897637795276
0
CIRCLE
8
BLACK
10
0.7
20
3.75
40
0.0068897637795276
0
CIRCLE
8
BLACK
10
0.6
20
3.6499999999999999
40
0.0068897637795276
0
CIRCLE
8
BLACK
10
0.6
20
3.75
40
0.0068897637795276
0
CIRCLE
8
BLACK
10
2.2899606299212598
20
0.4651968503937008
40
0.0068897637795276
0
CIRCLE
8
BLACK
10
2.4750000000000001
20
0.4651968503937008
40
0.0068897637795276
0
CIRCLE
8
BLACK
10
2.6600393700787399
20
0.4651968503937008
40
0.0068897637795276
0
CIRCLE
8
BLACK
10
2.2149606299212596
20
0.09
40
0.0068897637795276
0
CIRCLE
8
BLACK
10
2.7350393700787401
20
0.09
40
0.0068897637795276
0
CIRCLE
8
BLACK
10
1.9027559055118111
20
1.3612204724409449
40
0.0068897637795276
0
CIRCLE
8
BLACK
10
1.0759842519685039
20
1.3612204724409449
40
0.0068897637795276
0
CIRCLE
8
BLACK
10
2.5749999999999997
20
1.3946850393700787
40
0.0049212598425197
0
CIRCLE
8
BLACK
10
2.5749999999999997
20
1.3553149606299213
40
0.0049212598425197
0
CIRCLE
8
BLACK
10
1.9027559055118111
20
0.9112204724409448
40
0.0068897637795276
0
CIRCLE
8
BLACK
10
1.0759842519685039
20
0.9112204724409448
40
0.0068897637795276
  0
ENDSEC
  0
EOF
