  0
SECTION
  2
HEADER
  9
$ANGBASE
  50
0.0
  9
$ANGDIR
  70
1
  9
$MEASUREMENT
  70
0
  0
ENDSEC
  0
SECTION
  2
TABLES
  0
TABLE
  2
LTYPE
  70
4
  0
LTYPE
  5
40F
  2
CONTINUOUS
  70
0
  3
Solid line
  72
65
  73
0
  40
0.0
  0
LTYPE
  5
410
  2
DASHDOT
 70
0
  3
Dash Dot ____ _ ____ _
 72
65
 73
4
 40
2.0
 49
1.25
 49
-0.25
 49
0.25
 49
-0.25
  0
LTYPE
  5
411
  2
DASHED
 70
0
  3
Dashed __ __ __ __ __
 72
65
 73
2
 40
0.75
 49
0.5
 49
-0.25
  0
LTYPE
  5
43B
  2
DOTTED
 70
0
  3
Dotted .  .  .  .
 72
65
 73
2
 40
0.2
 49
0.0
 49
-0.2
  0
ENDTAB
  0
TABLE
  2
STYLE
  70
4
  0
STYLE
  2
KICAD
  70
0
  40
0
  41
1
  42
1
  50
0
  71
0
  3
isocp.shx
  0
STYLE
  2
KICADB
  70
0
  40
0
  41
1
  42
1
  50
0
  71
0
  3
isocp.shx
  0
STYLE
  2
KICADI
  70
0
  40
0
  41
1
  42
1
  50
15
  71
0
  3
isocp.shx
  0
STYLE
  2
KICADBI
  70
0
  40
0
  41
1
  42
1
  50
15
  71
0
  3
isocp.shx
  0
ENDTAB
  0
TABLE
  2
LAYER
  70
1
  0
LAYER
  2
BLACK
  70
0
  62
7
  6
CONTINUOUS
  0
ENDTAB
  0
ENDSEC
  0
SECTION
  2
ENTITIES
0
LINE
8
BLACK
6
CONTINUOUS
10
0.9421259842519685
20
0.0490157480314961
11
0.8830708661417322
21
0.0490157480314961
0
LINE
8
BLACK
6
CONTINUOUS
10
0.8830708661417322
20
0.0490157480314961
11
0.8830708661417322
21
0.159251968503937
0
LINE
8
BLACK
6
CONTINUOUS
10
0.8830708661417322
20
0.159251968503937
11
0.9421259842519685
21
0.159251968503937
0
LINE
8
BLACK
6
CONTINUOUS
10
0.9421259842519685
20
0.159251968503937
11
0.9421259842519685
21
0.0490157480314961
0
LINE
8
BLACK
6
CONTINUOUS
10
2.0169291338582678
20
0.0490157480314961
11
1.9578740157480314
21
0.0490157480314961
0
LINE
8
BLACK
6
CONTINUOUS
10
1.9578740157480314
20
0.0490157480314961
11
1.9578740157480314
21
0.159251968503937
0
LINE
8
BLACK
6
CONTINUOUS
10
1.9578740157480314
20
0.159251968503937
11
2.0169291338582678
21
0.159251968503937
0
LINE
8
BLACK
6
CONTINUOUS
10
2.0169291338582678
20
0.159251968503937
11
2.0169291338582678
21
0.0490157480314961
0
LINE
8
BLACK
6
CONTINUOUS
10
0.6525
20
0.37
11
0.5975
21
0.37
0
LINE
8
BLACK
6
CONTINUOUS
10
0.5975
20
0.37
11
0.5975
21
0.405
0
LINE
8
BLACK
6
CONTINUOUS
10
0.5975
20
0.405
11
0.6525
21
0.405
0
LINE
8
BLACK
6
CONTINUOUS
10
0.6525
20
0.405
11
0.6525
21
0.37
0
LINE
8
BLACK
6
CONTINUOUS
10
0.6525
20
0.445
11
0.5975
21
0.445
0
LINE
8
BLACK
6
CONTINUOUS
10
0.5975
20
0.445
11
0.5975
21
0.48
0
LINE
8
BLACK
6
CONTINUOUS
10
0.5975
20
0.48
11
0.6525
21
0.48
0
LINE
8
BLACK
6
CONTINUOUS
10
0.6525
20
0.48
11
0.6525
21
0.445
0
LINE
8
BLACK
6
CONTINUOUS
10
0.9421259842519685
20
0.4990157480314961
11
0.8830708661417322
21
0.4990157480314961
0
LINE
8
BLACK
6
CONTINUOUS
10
0.8830708661417322
20
0.4990157480314961
11
0.8830708661417322
21
0.609251968503937
0
LINE
8
BLACK
6
CONTINUOUS
10
0.8830708661417322
20
0.609251968503937
11
0.9421259842519685
21
0.609251968503937
0
LINE
8
BLACK
6
CONTINUOUS
10
0.9421259842519685
20
0.609251968503937
11
0.9421259842519685
21
0.4990157480314961
0
LINE
8
BLACK
6
CONTINUOUS
10
2.0169291338582678
20
0.4990157480314961
11
1.9578740157480314
21
0.4990157480314961
0
LINE
8
BLACK
6
CONTINUOUS
10
1.9578740157480314
20
0.4990157480314961
11
1.9578740157480314
21
0.609251968503937
0
LINE
8
BLACK
6
CONTINUOUS
10
1.9578740157480314
20
0.609251968503937
11
2.0169291338582678
21
0.609251968503937
0
LINE
8
BLACK
6
CONTINUOUS
10
2.0169291338582678
20
0.609251968503937
11
2.0169291338582678
21
0.4990157480314961
0
LINE
8
BLACK
6
CONTINUOUS
10
2.6106299212598425
20
0.5830708661417323
11
2.5358267716535434
21
0.5830708661417323
0
LINE
8
BLACK
6
CONTINUOUS
10
2.5358267716535434
20
0.5830708661417323
11
2.5358267716535434
21
0.7169291338582677
0
LINE
8
BLACK
6
CONTINUOUS
10
2.5358267716535434
20
0.7169291338582677
11
2.6106299212598425
21
0.7169291338582677
0
LINE
8
BLACK
6
CONTINUOUS
10
2.6106299212598425
20
0.7169291338582677
11
2.6106299212598425
21
0.5830708661417323
0
LINE
8
BLACK
6
CONTINUOUS
10
2.7641732283464568
20
0.5830708661417323
11
2.6893700787401573
21
0.5830708661417323
0
LINE
8
BLACK
6
CONTINUOUS
10
2.6893700787401573
20
0.5830708661417323
11
2.6893700787401573
21
0.7169291338582677
0
LINE
8
BLACK
6
CONTINUOUS
10
2.6893700787401573
20
0.7169291338582677
11
2.7641732283464568
21
0.7169291338582677
0
LINE
8
BLACK
6
CONTINUOUS
10
2.7641732283464568
20
0.7169291338582677
11
2.7641732283464568
21
0.5830708661417323
0
LINE
8
BLACK
6
CONTINUOUS
10
2.4604499999999998
20
0.5971
11
2.3895499999999998
21
0.5971
0
LINE
8
BLACK
6
CONTINUOUS
10
2.3895499999999998
20
0.5971
11
2.3895499999999998
21
0.6955
0
LINE
8
BLACK
6
CONTINUOUS
10
2.3895499999999998
20
0.6955
11
2.4604499999999998
21
0.6955
0
LINE
8
BLACK
6
CONTINUOUS
10
2.4604499999999998
20
0.6955
11
2.4604499999999998
21
0.5971
0
LINE
8
BLACK
6
CONTINUOUS
10
2.2795275590551181
20
0.646259842519685
11
2.2204724409448819
21
0.646259842519685
0
LINE
8
BLACK
6
CONTINUOUS
10
2.2204724409448819
20
0.646259842519685
11
2.2204724409448819
21
0.6974409448818898
0
LINE
8
BLACK
6
CONTINUOUS
10
2.2204724409448819
20
0.6974409448818898
11
2.2795275590551181
21
0.6974409448818898
0
LINE
8
BLACK
6
CONTINUOUS
10
2.2795275590551181
20
0.6974409448818898
11
2.2795275590551181
21
0.646259842519685
0
LINE
8
BLACK
6
CONTINUOUS
10
2.1492
20
0.6504
11
2.0507999999999997
21
0.6504
0
LINE
8
BLACK
6
CONTINUOUS
10
2.0507999999999997
20
0.6504
11
2.0507999999999997
21
0.7508
0
LINE
8
BLACK
6
CONTINUOUS
10
2.0507999999999997
20
0.7508
11
2.1492
21
0.7508
0
LINE
8
BLACK
6
CONTINUOUS
10
2.1492
20
0.7508
11
2.1492
21
0.6504
0
LINE
8
BLACK
6
CONTINUOUS
10
2.3090551181102361
20
0.7112204724409449
11
2.1909448818897639
21
0.7112204724409449
0
LINE
8
BLACK
6
CONTINUOUS
10
2.1909448818897639
20
0.7112204724409449
11
2.1909448818897639
21
0.7387795275590551
0
LINE
8
BLACK
6
CONTINUOUS
10
2.1909448818897639
20
0.7387795275590551
11
2.3090551181102361
21
0.7387795275590551
0
LINE
8
BLACK
6
CONTINUOUS
10
2.3090551181102361
20
0.7387795275590551
11
2.3090551181102361
21
0.7112204724409449
0
LINE
8
BLACK
6
CONTINUOUS
10
2.2795275590551181
20
0.7525590551181102
11
2.2204724409448819
21
0.7525590551181102
0
LINE
8
BLACK
6
CONTINUOUS
10
2.2204724409448819
20
0.7525590551181102
11
2.2204724409448819
21
0.8037401574803149
0
LINE
8
BLACK
6
CONTINUOUS
10
2.2204724409448819
20
0.8037401574803149
11
2.2795275590551181
21
0.8037401574803149
0
LINE
8
BLACK
6
CONTINUOUS
10
2.2795275590551181
20
0.8037401574803149
11
2.2795275590551181
21
0.7525590551181102
0
LINE
8
BLACK
6
CONTINUOUS
10
2.4604499999999998
20
0.7544999999999999
11
2.3895499999999998
21
0.7544999999999999
0
LINE
8
BLACK
6
CONTINUOUS
10
2.3895499999999998
20
0.7544999999999999
11
2.3895499999999998
21
0.8529
0
LINE
8
BLACK
6
CONTINUOUS
10
2.3895499999999998
20
0.8529
11
2.4604499999999998
21
0.8529
0
LINE
8
BLACK
6
CONTINUOUS
10
2.4604499999999998
20
0.8529
11
2.4604499999999998
21
0.7544999999999999
0
LINE
8
BLACK
6
CONTINUOUS
10
2.1492
20
0.8492
11
2.0507999999999997
21
0.8492
0
LINE
8
BLACK
6
CONTINUOUS
10
2.0507999999999997
20
0.8492
11
2.0507999999999997
21
0.9496
0
LINE
8
BLACK
6
CONTINUOUS
10
2.0507999999999997
20
0.9496
11
2.1492
21
0.9496
0
LINE
8
BLACK
6
CONTINUOUS
10
2.1492
20
0.9496
11
2.1492
21
0.8492
0
LINE
8
BLACK
6
CONTINUOUS
10
2.3300000000000001
20
0.8724999999999999
11
2.2949999999999999
21
0.8724999999999999
0
LINE
8
BLACK
6
CONTINUOUS
10
2.2949999999999999
20
0.8724999999999999
11
2.2949999999999999
21
0.9275
0
LINE
8
BLACK
6
CONTINUOUS
10
2.2949999999999999
20
0.9275
11
2.3300000000000001
21
0.9275
0
LINE
8
BLACK
6
CONTINUOUS
10
2.3300000000000001
20
0.9275
11
2.3300000000000001
21
0.8724999999999999
0
LINE
8
BLACK
6
CONTINUOUS
10
2.4049999999999998
20
0.8724999999999999
11
2.3700000000000001
21
0.8724999999999999
0
LINE
8
BLACK
6
CONTINUOUS
10
2.3700000000000001
20
0.8724999999999999
11
2.3700000000000001
21
0.9275
0
LINE
8
BLACK
6
CONTINUOUS
10
2.3700000000000001
20
0.9275
11
2.4049999999999998
21
0.9275
0
LINE
8
BLACK
6
CONTINUOUS
10
2.4049999999999998
20
0.9275
11
2.4049999999999998
21
0.8724999999999999
0
LINE
8
BLACK
6
CONTINUOUS
10
1.028740157480315
20
0.8954724409448819
11
0.9696850393700788
21
0.8954724409448819
0
LINE
8
BLACK
6
CONTINUOUS
10
0.9696850393700788
20
0.8954724409448819
11
0.9696850393700788
21
1.0057086614173227
0
LINE
8
BLACK
6
CONTINUOUS
10
0.9696850393700788
20
1.0057086614173227
11
1.028740157480315
21
1.0057086614173227
0
LINE
8
BLACK
6
CONTINUOUS
10
1.028740157480315
20
1.0057086614173227
11
1.028740157480315
21
0.8954724409448819
0
LINE
8
BLACK
6
CONTINUOUS
10
2.0169291338582678
20
0.8954724409448819
11
1.9578740157480314
21
0.8954724409448819
0
LINE
8
BLACK
6
CONTINUOUS
10
1.9578740157480314
20
0.8954724409448819
11
1.9578740157480314
21
1.0057086614173227
0
LINE
8
BLACK
6
CONTINUOUS
10
1.9578740157480314
20
1.0057086614173227
11
2.0169291338582678
21
1.0057086614173227
0
LINE
8
BLACK
6
CONTINUOUS
10
2.0169291338582678
20
1.0057086614173227
11
2.0169291338582678
21
0.8954724409448819
0
LINE
8
BLACK
6
CONTINUOUS
10
1.1005905511811023
20
0.9919291338582676
11
1.0612204724409449
21
0.9919291338582676
0
LINE
8
BLACK
6
CONTINUOUS
10
1.0612204724409449
20
0.9919291338582676
11
1.0612204724409449
21
1.050984251968504
0
LINE
8
BLACK
6
CONTINUOUS
10
1.0612204724409449
20
1.050984251968504
11
1.1005905511811023
21
1.050984251968504
0
LINE
8
BLACK
6
CONTINUOUS
10
1.1005905511811023
20
1.050984251968504
11
1.1005905511811023
21
0.9919291338582676
0
LINE
8
BLACK
6
CONTINUOUS
10
1.199015748031496
20
0.9919291338582676
11
1.1596456692913386
21
0.9919291338582676
0
LINE
8
BLACK
6
CONTINUOUS
10
1.1596456692913386
20
0.9919291338582676
11
1.1596456692913386
21
1.050984251968504
0
LINE
8
BLACK
6
CONTINUOUS
10
1.1596456692913386
20
1.050984251968504
11
1.199015748031496
21
1.050984251968504
0
LINE
8
BLACK
6
CONTINUOUS
10
1.199015748031496
20
1.050984251968504
11
1.199015748031496
21
0.9919291338582676
0
LINE
8
BLACK
6
CONTINUOUS
10
1.2974409448818898
20
0.9919291338582676
11
1.2580708661417324
21
0.9919291338582676
0
LINE
8
BLACK
6
CONTINUOUS
10
1.2580708661417324
20
0.9919291338582676
11
1.2580708661417324
21
1.050984251968504
0
LINE
8
BLACK
6
CONTINUOUS
10
1.2580708661417324
20
1.050984251968504
11
1.2974409448818898
21
1.050984251968504
0
LINE
8
BLACK
6
CONTINUOUS
10
1.2974409448818898
20
1.050984251968504
11
1.2974409448818898
21
0.9919291338582676
0
LINE
8
BLACK
6
CONTINUOUS
10
1.3958661417322835
20
0.9919291338582676
11
1.3564960629921259
21
0.9919291338582676
0
LINE
8
BLACK
6
CONTINUOUS
10
1.3564960629921259
20
0.9919291338582676
11
1.3564960629921259
21
1.050984251968504
0
LINE
8
BLACK
6
CONTINUOUS
10
1.3564960629921259
20
1.050984251968504
11
1.3958661417322835
21
1.050984251968504
0
LINE
8
BLACK
6
CONTINUOUS
10
1.3958661417322835
20
1.050984251968504
11
1.3958661417322835
21
0.9919291338582676
0
LINE
8
BLACK
6
CONTINUOUS
10
1.494291338582677
20
0.9919291338582676
11
1.4549212598425196
21
0.9919291338582676
0
LINE
8
BLACK
6
CONTINUOUS
10
1.4549212598425196
20
0.9919291338582676
11
1.4549212598425196
21
1.050984251968504
0
LINE
8
BLACK
6
CONTINUOUS
10
1.4549212598425196
20
1.050984251968504
11
1.494291338582677
21
1.050984251968504
0
LINE
8
BLACK
6
CONTINUOUS
10
1.494291338582677
20
1.050984251968504
11
1.494291338582677
21
0.9919291338582676
0
LINE
8
BLACK
6
CONTINUOUS
10
1.5927165354330708
20
0.9919291338582676
11
1.5533464566929134
21
0.9919291338582676
0
LINE
8
BLACK
6
CONTINUOUS
10
1.5533464566929134
20
0.9919291338582676
11
1.5533464566929134
21
1.050984251968504
0
LINE
8
BLACK
6
CONTINUOUS
10
1.5533464566929134
20
1.050984251968504
11
1.5927165354330708
21
1.050984251968504
0
LINE
8
BLACK
6
CONTINUOUS
10
1.5927165354330708
20
1.050984251968504
11
1.5927165354330708
21
0.9919291338582676
0
LINE
8
BLACK
6
CONTINUOUS
10
1.6911417322834645
20
0.9919291338582676
11
1.6517716535433071
21
0.9919291338582676
0
LINE
8
BLACK
6
CONTINUOUS
10
1.6517716535433071
20
0.9919291338582676
11
1.6517716535433071
21
1.050984251968504
0
LINE
8
BLACK
6
CONTINUOUS
10
1.6517716535433071
20
1.050984251968504
11
1.6911417322834645
21
1.050984251968504
0
LINE
8
BLACK
6
CONTINUOUS
10
1.6911417322834645
20
1.050984251968504
11
1.6911417322834645
21
0.9919291338582676
0
LINE
8
BLACK
6
CONTINUOUS
10
1.7868110236220471
20
0.9919291338582676
11
1.7474409448818897
21
0.9919291338582676
0
LINE
8
BLACK
6
CONTINUOUS
10
1.7474409448818897
20
0.9919291338582676
11
1.7474409448818897
21
1.050984251968504
0
LINE
8
BLACK
6
CONTINUOUS
10
1.7474409448818897
20
1.050984251968504
11
1.7868110236220471
21
1.050984251968504
0
LINE
8
BLACK
6
CONTINUOUS
10
1.7868110236220471
20
1.050984251968504
11
1.7868110236220471
21
0.9919291338582676
0
LINE
8
BLACK
6
CONTINUOUS
10
1.853740157480315
20
0.9919291338582676
11
1.8143700787401575
21
0.9919291338582676
0
LINE
8
BLACK
6
CONTINUOUS
10
1.8143700787401575
20
0.9919291338582676
11
1.8143700787401575
21
1.050984251968504
0
LINE
8
BLACK
6
CONTINUOUS
10
1.8143700787401575
20
1.050984251968504
11
1.853740157480315
21
1.050984251968504
0
LINE
8
BLACK
6
CONTINUOUS
10
1.853740157480315
20
1.050984251968504
11
1.853740157480315
21
0.9919291338582676
0
LINE
8
BLACK
6
CONTINUOUS
10
1.899015748031496
20
0.9919291338582676
11
1.8714566929133858
21
0.9919291338582676
0
LINE
8
BLACK
6
CONTINUOUS
10
1.8714566929133858
20
0.9919291338582676
11
1.8714566929133858
21
1.050984251968504
0
LINE
8
BLACK
6
CONTINUOUS
10
1.8714566929133858
20
1.050984251968504
11
1.899015748031496
21
1.050984251968504
0
LINE
8
BLACK
6
CONTINUOUS
10
1.899015748031496
20
1.050984251968504
11
1.899015748031496
21
0.9919291338582676
0
LINE
8
BLACK
6
CONTINUOUS
10
1.9462598425196851
20
0.9919291338582676
11
1.9187007874015747
21
0.9919291338582676
0
LINE
8
BLACK
6
CONTINUOUS
10
1.9187007874015747
20
0.9919291338582676
11
1.9187007874015747
21
1.050984251968504
0
LINE
8
BLACK
6
CONTINUOUS
10
1.9187007874015747
20
1.050984251968504
11
1.9462598425196851
21
1.050984251968504
0
LINE
8
BLACK
6
CONTINUOUS
10
1.9462598425196851
20
1.050984251968504
11
1.9462598425196851
21
0.9919291338582676
0
LINE
8
BLACK
6
CONTINUOUS
10
2.7919291338582677
20
1.0108267716535433
11
2.658070866141732
21
1.0108267716535433
0
LINE
8
BLACK
6
CONTINUOUS
10
2.658070866141732
20
1.0108267716535433
11
2.658070866141732
21
1.0856299212598426
0
LINE
8
BLACK
6
CONTINUOUS
10
2.658070866141732
20
1.0856299212598426
11
2.7919291338582677
21
1.0856299212598426
0
LINE
8
BLACK
6
CONTINUOUS
10
2.7919291338582677
20
1.0856299212598426
11
2.7919291338582677
21
1.0108267716535433
0
LINE
8
BLACK
6
CONTINUOUS
10
2.7919291338582677
20
1.1643700787401574
11
2.658070866141732
21
1.1643700787401574
0
LINE
8
BLACK
6
CONTINUOUS
10
2.658070866141732
20
1.1643700787401574
11
2.658070866141732
21
1.2391732283464567
0
LINE
8
BLACK
6
CONTINUOUS
10
2.658070866141732
20
1.2391732283464567
11
2.7919291338582677
21
1.2391732283464567
0
LINE
8
BLACK
6
CONTINUOUS
10
2.7919291338582677
20
1.2391732283464567
11
2.7919291338582677
21
1.1643700787401574
0
LINE
8
BLACK
6
CONTINUOUS
10
2.5474409448818895
20
1.3405511811023623
11
2.5277559055118108
21
1.3405511811023623
0
LINE
8
BLACK
6
CONTINUOUS
10
2.5277559055118108
20
1.3405511811023623
11
2.5277559055118108
21
1.3503937007874016
0
LINE
8
BLACK
6
CONTINUOUS
10
2.5277559055118108
20
1.3503937007874016
11
2.5474409448818895
21
1.3503937007874016
0
LINE
8
BLACK
6
CONTINUOUS
10
2.5474409448818895
20
1.3503937007874016
11
2.5474409448818895
21
1.3405511811023623
0
LINE
8
BLACK
6
CONTINUOUS
10
2.6222440944881891
20
1.3405511811023623
11
2.6025590551181104
21
1.3405511811023623
0
LINE
8
BLACK
6
CONTINUOUS
10
2.6025590551181104
20
1.3405511811023623
11
2.6025590551181104
21
1.3503937007874016
0
LINE
8
BLACK
6
CONTINUOUS
10
2.6025590551181104
20
1.3503937007874016
11
2.6222440944881891
21
1.3503937007874016
0
LINE
8
BLACK
6
CONTINUOUS
10
2.6222440944881891
20
1.3503937007874016
11
2.6222440944881891
21
1.3405511811023623
0
LINE
8
BLACK
6
CONTINUOUS
10
1.028740157480315
20
1.3454724409448819
11
0.9696850393700788
21
1.3454724409448819
0
LINE
8
BLACK
6
CONTINUOUS
10
0.9696850393700788
20
1.3454724409448819
11
0.9696850393700788
21
1.4557086614173227
0
LINE
8
BLACK
6
CONTINUOUS
10
0.9696850393700788
20
1.4557086614173227
11
1.028740157480315
21
1.4557086614173227
0
LINE
8
BLACK
6
CONTINUOUS
10
1.028740157480315
20
1.4557086614173227
11
1.028740157480315
21
1.3454724409448819
0
LINE
8
BLACK
6
CONTINUOUS
10
2.0169291338582678
20
1.3454724409448819
11
1.9578740157480314
21
1.3454724409448819
0
LINE
8
BLACK
6
CONTINUOUS
10
1.9578740157480314
20
1.3454724409448819
11
1.9578740157480314
21
1.4557086614173227
0
LINE
8
BLACK
6
CONTINUOUS
10
1.9578740157480314
20
1.4557086614173227
11
2.0169291338582678
21
1.4557086614173227
0
LINE
8
BLACK
6
CONTINUOUS
10
2.0169291338582678
20
1.4557086614173227
11
2.0169291338582678
21
1.3454724409448819
0
LINE
8
BLACK
6
CONTINUOUS
10
2.589763779527559
20
1.3464566929133859
11
2.5602362204724409
21
1.3464566929133859
0
LINE
8
BLACK
6
CONTINUOUS
10
2.5602362204724409
20
1.3464566929133859
11
2.5602362204724409
21
1.3720472440944882
0
LINE
8
BLACK
6
CONTINUOUS
10
2.5602362204724409
20
1.3720472440944882
11
2.589763779527559
21
1.3720472440944882
0
LINE
8
BLACK
6
CONTINUOUS
10
2.589763779527559
20
1.3720472440944882
11
2.589763779527559
21
1.3464566929133859
0
LINE
8
BLACK
6
CONTINUOUS
10
2.5474409448818895
20
1.360236220472441
11
2.5277559055118108
21
1.360236220472441
0
LINE
8
BLACK
6
CONTINUOUS
10
2.5277559055118108
20
1.360236220472441
11
2.5277559055118108
21
1.3700787401574803
0
LINE
8
BLACK
6
CONTINUOUS
10
2.5277559055118108
20
1.3700787401574803
11
2.5474409448818895
21
1.3700787401574803
0
LINE
8
BLACK
6
CONTINUOUS
10
2.5474409448818895
20
1.3700787401574803
11
2.5474409448818895
21
1.360236220472441
0
LINE
8
BLACK
6
CONTINUOUS
10
2.6222440944881891
20
1.360236220472441
11
2.6025590551181104
21
1.360236220472441
0
LINE
8
BLACK
6
CONTINUOUS
10
2.6025590551181104
20
1.360236220472441
11
2.6025590551181104
21
1.3700787401574803
0
LINE
8
BLACK
6
CONTINUOUS
10
2.6025590551181104
20
1.3700787401574803
11
2.6222440944881891
21
1.3700787401574803
0
LINE
8
BLACK
6
CONTINUOUS
10
2.6222440944881891
20
1.3700787401574803
11
2.6222440944881891
21
1.360236220472441
0
LINE
8
BLACK
6
CONTINUOUS
10
2.589763779527559
20
1.3779527559055118
11
2.5602362204724409
21
1.3779527559055118
0
LINE
8
BLACK
6
CONTINUOUS
10
2.5602362204724409
20
1.3779527559055118
11
2.5602362204724409
21
1.4035433070866141
0
LINE
8
BLACK
6
CONTINUOUS
10
2.5602362204724409
20
1.4035433070866141
11
2.589763779527559
21
1.4035433070866141
0
LINE
8
BLACK
6
CONTINUOUS
10
2.589763779527559
20
1.4035433070866141
11
2.589763779527559
21
1.3779527559055118
0
LINE
8
BLACK
6
CONTINUOUS
10
2.5474409448818895
20
1.3799212598425197
11
2.5277559055118108
21
1.3799212598425197
0
LINE
8
BLACK
6
CONTINUOUS
10
2.5277559055118108
20
1.3799212598425197
11
2.5277559055118108
21
1.389763779527559
0
LINE
8
BLACK
6
CONTINUOUS
10
2.5277559055118108
20
1.389763779527559
11
2.5474409448818895
21
1.389763779527559
0
LINE
8
BLACK
6
CONTINUOUS
10
2.5474409448818895
20
1.389763779527559
11
2.5474409448818895
21
1.3799212598425197
0
LINE
8
BLACK
6
CONTINUOUS
10
2.6222440944881891
20
1.3799212598425197
11
2.6025590551181104
21
1.3799212598425197
0
LINE
8
BLACK
6
CONTINUOUS
10
2.6025590551181104
20
1.3799212598425197
11
2.6025590551181104
21
1.389763779527559
0
LINE
8
BLACK
6
CONTINUOUS
10
2.6025590551181104
20
1.389763779527559
11
2.6222440944881891
21
1.389763779527559
0
LINE
8
BLACK
6
CONTINUOUS
10
2.6222440944881891
20
1.389763779527559
11
2.6222440944881891
21
1.3799212598425197
0
LINE
8
BLACK
6
CONTINUOUS
10
2.5474409448818895
20
1.3996062992125984
11
2.5277559055118108
21
1.3996062992125984
0
LINE
8
BLACK
6
CONTINUOUS
10
2.5277559055118108
20
1.3996062992125984
11
2.5277559055118108
21
1.4094488188976377
0
LINE
8
BLACK
6
CONTINUOUS
10
2.5277559055118108
20
1.4094488188976377
11
2.5474409448818895
21
1.4094488188976377
0
LINE
8
BLACK
6
CONTINUOUS
10
2.5474409448818895
20
1.4094488188976377
11
2.5474409448818895
21
1.3996062992125984
0
LINE
8
BLACK
6
CONTINUOUS
10
2.6222440944881891
20
1.3996062992125984
11
2.6025590551181104
21
1.3996062992125984
0
LINE
8
BLACK
6
CONTINUOUS
10
2.6025590551181104
20
1.3996062992125984
11
2.6025590551181104
21
1.4094488188976377
0
LINE
8
BLACK
6
CONTINUOUS
10
2.6025590551181104
20
1.4094488188976377
11
2.6222440944881891
21
1.4094488188976377
0
LINE
8
BLACK
6
CONTINUOUS
10
2.6222440944881891
20
1.4094488188976377
11
2.6222440944881891
21
1.3996062992125984
0
LINE
8
BLACK
6
CONTINUOUS
10
2.4525000000000001
20
1.4075
11
2.3975
21
1.4075
0
LINE
8
BLACK
6
CONTINUOUS
10
2.3975
20
1.4075
11
2.3975
21
1.4424999999999999
0
LINE
8
BLACK
6
CONTINUOUS
10
2.3975
20
1.4424999999999999
11
2.4525000000000001
21
1.4424999999999999
0
LINE
8
BLACK
6
CONTINUOUS
10
2.4525000000000001
20
1.4424999999999999
11
2.4525000000000001
21
1.4075
0
LINE
8
BLACK
6
CONTINUOUS
10
1.1005905511811023
20
1.4419291338582676
11
1.0612204724409449
21
1.4419291338582676
0
LINE
8
BLACK
6
CONTINUOUS
10
1.0612204724409449
20
1.4419291338582676
11
1.0612204724409449
21
1.5009842519685039
0
LINE
8
BLACK
6
CONTINUOUS
10
1.0612204724409449
20
1.5009842519685039
11
1.1005905511811023
21
1.5009842519685039
0
LINE
8
BLACK
6
CONTINUOUS
10
1.1005905511811023
20
1.5009842519685039
11
1.1005905511811023
21
1.4419291338582676
0
LINE
8
BLACK
6
CONTINUOUS
10
1.199015748031496
20
1.4419291338582676
11
1.1596456692913386
21
1.4419291338582676
0
LINE
8
BLACK
6
CONTINUOUS
10
1.1596456692913386
20
1.4419291338582676
11
1.1596456692913386
21
1.5009842519685039
0
LINE
8
BLACK
6
CONTINUOUS
10
1.1596456692913386
20
1.5009842519685039
11
1.199015748031496
21
1.5009842519685039
0
LINE
8
BLACK
6
CONTINUOUS
10
1.199015748031496
20
1.5009842519685039
11
1.199015748031496
21
1.4419291338582676
0
LINE
8
BLACK
6
CONTINUOUS
10
1.2974409448818898
20
1.4419291338582676
11
1.2580708661417324
21
1.4419291338582676
0
LINE
8
BLACK
6
CONTINUOUS
10
1.2580708661417324
20
1.4419291338582676
11
1.2580708661417324
21
1.5009842519685039
0
LINE
8
BLACK
6
CONTINUOUS
10
1.2580708661417324
20
1.5009842519685039
11
1.2974409448818898
21
1.5009842519685039
0
LINE
8
BLACK
6
CONTINUOUS
10
1.2974409448818898
20
1.5009842519685039
11
1.2974409448818898
21
1.4419291338582676
0
LINE
8
BLACK
6
CONTINUOUS
10
1.3958661417322835
20
1.4419291338582676
11
1.3564960629921259
21
1.4419291338582676
0
LINE
8
BLACK
6
CONTINUOUS
10
1.3564960629921259
20
1.4419291338582676
11
1.3564960629921259
21
1.5009842519685039
0
LINE
8
BLACK
6
CONTINUOUS
10
1.3564960629921259
20
1.5009842519685039
11
1.3958661417322835
21
1.5009842519685039
0
LINE
8
BLACK
6
CONTINUOUS
10
1.3958661417322835
20
1.5009842519685039
11
1.3958661417322835
21
1.4419291338582676
0
LINE
8
BLACK
6
CONTINUOUS
10
1.494291338582677
20
1.4419291338582676
11
1.4549212598425196
21
1.4419291338582676
0
LINE
8
BLACK
6
CONTINUOUS
10
1.4549212598425196
20
1.4419291338582676
11
1.4549212598425196
21
1.5009842519685039
0
LINE
8
BLACK
6
CONTINUOUS
10
1.4549212598425196
20
1.5009842519685039
11
1.494291338582677
21
1.5009842519685039
0
LINE
8
BLACK
6
CONTINUOUS
10
1.494291338582677
20
1.5009842519685039
11
1.494291338582677
21
1.4419291338582676
0
LINE
8
BLACK
6
CONTINUOUS
10
1.5927165354330708
20
1.4419291338582676
11
1.5533464566929134
21
1.4419291338582676
0
LINE
8
BLACK
6
CONTINUOUS
10
1.5533464566929134
20
1.4419291338582676
11
1.5533464566929134
21
1.5009842519685039
0
LINE
8
BLACK
6
CONTINUOUS
10
1.5533464566929134
20
1.5009842519685039
11
1.5927165354330708
21
1.5009842519685039
0
LINE
8
BLACK
6
CONTINUOUS
10
1.5927165354330708
20
1.5009842519685039
11
1.5927165354330708
21
1.4419291338582676
0
LINE
8
BLACK
6
CONTINUOUS
10
1.6911417322834645
20
1.4419291338582676
11
1.6517716535433071
21
1.4419291338582676
0
LINE
8
BLACK
6
CONTINUOUS
10
1.6517716535433071
20
1.4419291338582676
11
1.6517716535433071
21
1.5009842519685039
0
LINE
8
BLACK
6
CONTINUOUS
10
1.6517716535433071
20
1.5009842519685039
11
1.6911417322834645
21
1.5009842519685039
0
LINE
8
BLACK
6
CONTINUOUS
10
1.6911417322834645
20
1.5009842519685039
11
1.6911417322834645
21
1.4419291338582676
0
LINE
8
BLACK
6
CONTINUOUS
10
1.7868110236220471
20
1.4419291338582676
11
1.7474409448818897
21
1.4419291338582676
0
LINE
8
BLACK
6
CONTINUOUS
10
1.7474409448818897
20
1.4419291338582676
11
1.7474409448818897
21
1.5009842519685039
0
LINE
8
BLACK
6
CONTINUOUS
10
1.7474409448818897
20
1.5009842519685039
11
1.7868110236220471
21
1.5009842519685039
0
LINE
8
BLACK
6
CONTINUOUS
10
1.7868110236220471
20
1.5009842519685039
11
1.7868110236220471
21
1.4419291338582676
0
LINE
8
BLACK
6
CONTINUOUS
10
1.853740157480315
20
1.4419291338582676
11
1.8143700787401575
21
1.4419291338582676
0
LINE
8
BLACK
6
CONTINUOUS
10
1.8143700787401575
20
1.4419291338582676
11
1.8143700787401575
21
1.5009842519685039
0
LINE
8
BLACK
6
CONTINUOUS
10
1.8143700787401575
20
1.5009842519685039
11
1.853740157480315
21
1.5009842519685039
0
LINE
8
BLACK
6
CONTINUOUS
10
1.853740157480315
20
1.5009842519685039
11
1.853740157480315
21
1.4419291338582676
0
LINE
8
BLACK
6
CONTINUOUS
10
1.899015748031496
20
1.4419291338582676
11
1.8714566929133858
21
1.4419291338582676
0
LINE
8
BLACK
6
CONTINUOUS
10
1.8714566929133858
20
1.4419291338582676
11
1.8714566929133858
21
1.5009842519685039
0
LINE
8
BLACK
6
CONTINUOUS
10
1.8714566929133858
20
1.5009842519685039
11
1.899015748031496
21
1.5009842519685039
0
LINE
8
BLACK
6
CONTINUOUS
10
1.899015748031496
20
1.5009842519685039
11
1.899015748031496
21
1.4419291338582676
0
LINE
8
BLACK
6
CONTINUOUS
10
1.9462598425196851
20
1.4419291338582676
11
1.9187007874015747
21
1.4419291338582676
0
LINE
8
BLACK
6
CONTINUOUS
10
1.9187007874015747
20
1.4419291338582676
11
1.9187007874015747
21
1.5009842519685039
0
LINE
8
BLACK
6
CONTINUOUS
10
1.9187007874015747
20
1.5009842519685039
11
1.9462598425196851
21
1.5009842519685039
0
LINE
8
BLACK
6
CONTINUOUS
10
1.9462598425196851
20
1.5009842519685039
11
1.9462598425196851
21
1.4419291338582676
0
LINE
8
BLACK
6
CONTINUOUS
10
2.5800000000000001
20
1.4475
11
2.5449999999999999
21
1.4475
0
LINE
8
BLACK
6
CONTINUOUS
10
2.5449999999999999
20
1.4475
11
2.5449999999999999
21
1.5024999999999999
0
LINE
8
BLACK
6
CONTINUOUS
10
2.5449999999999999
20
1.5024999999999999
11
2.5800000000000001
21
1.5024999999999999
0
LINE
8
BLACK
6
CONTINUOUS
10
2.5800000000000001
20
1.5024999999999999
11
2.5800000000000001
21
1.4475
0
LINE
8
BLACK
6
CONTINUOUS
10
2.6549999999999998
20
1.4475
11
2.6200000000000001
21
1.4475
0
LINE
8
BLACK
6
CONTINUOUS
10
2.6200000000000001
20
1.4475
11
2.6200000000000001
21
1.5024999999999999
0
LINE
8
BLACK
6
CONTINUOUS
10
2.6200000000000001
20
1.5024999999999999
11
2.6549999999999998
21
1.5024999999999999
0
LINE
8
BLACK
6
CONTINUOUS
10
2.6549999999999998
20
1.5024999999999999
11
2.6549999999999998
21
1.4475
0
LINE
8
BLACK
6
CONTINUOUS
10
2.4525000000000001
20
1.4824999999999999
11
2.3975
21
1.4824999999999999
0
LINE
8
BLACK
6
CONTINUOUS
10
2.3975
20
1.4824999999999999
11
2.3975
21
1.5175000000000001
0
LINE
8
BLACK
6
CONTINUOUS
10
2.3975
20
1.5175000000000001
11
2.4525000000000001
21
1.5175000000000001
0
LINE
8
BLACK
6
CONTINUOUS
10
2.4525000000000001
20
1.5175000000000001
11
2.4525000000000001
21
1.4824999999999999
0
LINE
8
BLACK
6
CONTINUOUS
10
1.2024999999999999
20
1.5700000000000001
11
1.1475
21
1.5700000000000001
0
LINE
8
BLACK
6
CONTINUOUS
10
1.1475
20
1.5700000000000001
11
1.1475
21
1.605
0
LINE
8
BLACK
6
CONTINUOUS
10
1.1475
20
1.605
11
1.2024999999999999
21
1.605
0
LINE
8
BLACK
6
CONTINUOUS
10
1.2024999999999999
20
1.605
11
1.2024999999999999
21
1.5700000000000001
0
LINE
8
BLACK
6
CONTINUOUS
10
1.3025
20
1.5700000000000001
11
1.2475000000000001
21
1.5700000000000001
0
LINE
8
BLACK
6
CONTINUOUS
10
1.2475000000000001
20
1.5700000000000001
11
1.2475000000000001
21
1.605
0
LINE
8
BLACK
6
CONTINUOUS
10
1.2475000000000001
20
1.605
11
1.3025
21
1.605
0
LINE
8
BLACK
6
CONTINUOUS
10
1.3025
20
1.605
11
1.3025
21
1.5700000000000001
0
LINE
8
BLACK
6
CONTINUOUS
10
1.6025
20
1.5700000000000001
11
1.5474999999999999
21
1.5700000000000001
0
LINE
8
BLACK
6
CONTINUOUS
10
1.5474999999999999
20
1.5700000000000001
11
1.5474999999999999
21
1.605
0
LINE
8
BLACK
6
CONTINUOUS
10
1.5474999999999999
20
1.605
11
1.6025
21
1.605
0
LINE
8
BLACK
6
CONTINUOUS
10
1.6025
20
1.605
11
1.6025
21
1.5700000000000001
0
LINE
8
BLACK
6
CONTINUOUS
10
1.8025
20
1.5700000000000001
11
1.7475000000000001
21
1.5700000000000001
0
LINE
8
BLACK
6
CONTINUOUS
10
1.7475000000000001
20
1.5700000000000001
11
1.7475000000000001
21
1.605
0
LINE
8
BLACK
6
CONTINUOUS
10
1.7475000000000001
20
1.605
11
1.8025
21
1.605
0
LINE
8
BLACK
6
CONTINUOUS
10
1.8025
20
1.605
11
1.8025
21
1.5700000000000001
0
LINE
8
BLACK
6
CONTINUOUS
10
1.405
20
1.5725
11
1.3699999999999999
21
1.5725
0
LINE
8
BLACK
6
CONTINUOUS
10
1.3699999999999999
20
1.5725
11
1.3699999999999999
21
1.6274999999999999
0
LINE
8
BLACK
6
CONTINUOUS
10
1.3699999999999999
20
1.6274999999999999
11
1.405
21
1.6274999999999999
0
LINE
8
BLACK
6
CONTINUOUS
10
1.405
20
1.6274999999999999
11
1.405
21
1.5725
0
LINE
8
BLACK
6
CONTINUOUS
10
1.48
20
1.5725
11
1.4450000000000001
21
1.5725
0
LINE
8
BLACK
6
CONTINUOUS
10
1.4450000000000001
20
1.5725
11
1.4450000000000001
21
1.6274999999999999
0
LINE
8
BLACK
6
CONTINUOUS
10
1.4450000000000001
20
1.6274999999999999
11
1.48
21
1.6274999999999999
0
LINE
8
BLACK
6
CONTINUOUS
10
1.48
20
1.6274999999999999
11
1.48
21
1.5725
0
LINE
8
BLACK
6
CONTINUOUS
10
1.2024999999999999
20
1.645
11
1.1475
21
1.645
0
LINE
8
BLACK
6
CONTINUOUS
10
1.1475
20
1.645
11
1.1475
21
1.6799999999999999
0
LINE
8
BLACK
6
CONTINUOUS
10
1.1475
20
1.6799999999999999
11
1.2024999999999999
21
1.6799999999999999
0
LINE
8
BLACK
6
CONTINUOUS
10
1.2024999999999999
20
1.6799999999999999
11
1.2024999999999999
21
1.645
0
LINE
8
BLACK
6
CONTINUOUS
10
1.3025
20
1.645
11
1.2475000000000001
21
1.645
0
LINE
8
BLACK
6
CONTINUOUS
10
1.2475000000000001
20
1.645
11
1.2475000000000001
21
1.6799999999999999
0
LINE
8
BLACK
6
CONTINUOUS
10
1.2475000000000001
20
1.6799999999999999
11
1.3025
21
1.6799999999999999
0
LINE
8
BLACK
6
CONTINUOUS
10
1.3025
20
1.6799999999999999
11
1.3025
21
1.645
0
LINE
8
BLACK
6
CONTINUOUS
10
1.6025
20
1.645
11
1.5474999999999999
21
1.645
0
LINE
8
BLACK
6
CONTINUOUS
10
1.5474999999999999
20
1.645
11
1.5474999999999999
21
1.6799999999999999
0
LINE
8
BLACK
6
CONTINUOUS
10
1.5474999999999999
20
1.6799999999999999
11
1.6025
21
1.6799999999999999
0
LINE
8
BLACK
6
CONTINUOUS
10
1.6025
20
1.6799999999999999
11
1.6025
21
1.645
0
LINE
8
BLACK
6
CONTINUOUS
10
1.8025
20
1.645
11
1.7475000000000001
21
1.645
0
LINE
8
BLACK
6
CONTINUOUS
10
1.7475000000000001
20
1.645
11
1.7475000000000001
21
1.6799999999999999
0
LINE
8
BLACK
6
CONTINUOUS
10
1.7475000000000001
20
1.6799999999999999
11
1.8025
21
1.6799999999999999
0
LINE
8
BLACK
6
CONTINUOUS
10
1.8025
20
1.6799999999999999
11
1.8025
21
1.645
0
LINE
8
BLACK
6
CONTINUOUS
10
1.405
20
1.6724999999999999
11
1.3699999999999999
21
1.6724999999999999
0
LINE
8
BLACK
6
CONTINUOUS
10
1.3699999999999999
20
1.6724999999999999
11
1.3699999999999999
21
1.7275
0
LINE
8
BLACK
6
CONTINUOUS
10
1.3699999999999999
20
1.7275
11
1.405
21
1.7275
0
LINE
8
BLACK
6
CONTINUOUS
10
1.405
20
1.7275
11
1.405
21
1.6724999999999999
0
LINE
8
BLACK
6
CONTINUOUS
10
1.48
20
1.6724999999999999
11
1.4450000000000001
21
1.6724999999999999
0
LINE
8
BLACK
6
CONTINUOUS
10
1.4450000000000001
20
1.6724999999999999
11
1.4450000000000001
21
1.7275
0
LINE
8
BLACK
6
CONTINUOUS
10
1.4450000000000001
20
1.7275
11
1.48
21
1.7275
0
LINE
8
BLACK
6
CONTINUOUS
10
1.48
20
1.7275
11
1.48
21
1.6724999999999999
0
LINE
8
BLACK
6
CONTINUOUS
10
2.5775000000000001
20
1.7575000000000001
11
2.5225
21
1.7575000000000001
0
LINE
8
BLACK
6
CONTINUOUS
10
2.5225
20
1.7575000000000001
11
2.5225
21
1.7925
0
LINE
8
BLACK
6
CONTINUOUS
10
2.5225
20
1.7925
11
2.5775000000000001
21
1.7925
0
LINE
8
BLACK
6
CONTINUOUS
10
2.5775000000000001
20
1.7925
11
2.5775000000000001
21
1.7575000000000001
0
LINE
8
BLACK
6
CONTINUOUS
10
2.7524999999999999
20
1.7825
11
2.6974999999999998
21
1.7825
0
LINE
8
BLACK
6
CONTINUOUS
10
2.6974999999999998
20
1.7825
11
2.6974999999999998
21
1.8174999999999999
0
LINE
8
BLACK
6
CONTINUOUS
10
2.6974999999999998
20
1.8174999999999999
11
2.7524999999999999
21
1.8174999999999999
0
LINE
8
BLACK
6
CONTINUOUS
10
2.7524999999999999
20
1.8174999999999999
11
2.7524999999999999
21
1.7825
0
LINE
8
BLACK
6
CONTINUOUS
10
2.5775000000000001
20
1.8325
11
2.5225
21
1.8325
0
LINE
8
BLACK
6
CONTINUOUS
10
2.5225
20
1.8325
11
2.5225
21
1.8674999999999999
0
LINE
8
BLACK
6
CONTINUOUS
10
2.5225
20
1.8674999999999999
11
2.5775000000000001
21
1.8674999999999999
0
LINE
8
BLACK
6
CONTINUOUS
10
2.5775000000000001
20
1.8674999999999999
11
2.5775000000000001
21
1.8325
0
LINE
8
BLACK
6
CONTINUOUS
10
2.2854330708661417
20
1.8568897637795274
11
2.2145669291338583
21
1.8568897637795274
0
LINE
8
BLACK
6
CONTINUOUS
10
2.2145669291338583
20
1.8568897637795274
11
2.2145669291338583
21
1.896259842519685
0
LINE
8
BLACK
6
CONTINUOUS
10
2.2145669291338583
20
1.896259842519685
11
2.2854330708661417
21
1.896259842519685
0
LINE
8
BLACK
6
CONTINUOUS
10
2.2854330708661417
20
1.896259842519685
11
2.2854330708661417
21
1.8568897637795274
0
LINE
8
BLACK
6
CONTINUOUS
10
2.7524999999999999
20
1.8574999999999999
11
2.6974999999999998
21
1.8574999999999999
0
LINE
8
BLACK
6
CONTINUOUS
10
2.6974999999999998
20
1.8574999999999999
11
2.6974999999999998
21
1.8924999999999998
0
LINE
8
BLACK
6
CONTINUOUS
10
2.6974999999999998
20
1.8924999999999998
11
2.7524999999999999
21
1.8924999999999998
0
LINE
8
BLACK
6
CONTINUOUS
10
2.7524999999999999
20
1.8924999999999998
11
2.7524999999999999
21
1.8574999999999999
0
LINE
8
BLACK
6
CONTINUOUS
10
2.4120078740157478
20
1.9307086614173228
11
2.3687007874015746
21
1.9307086614173228
0
LINE
8
BLACK
6
CONTINUOUS
10
2.3687007874015746
20
1.9307086614173228
11
2.3687007874015746
21
1.9405511811023621
0
LINE
8
BLACK
6
CONTINUOUS
10
2.3687007874015746
20
1.9405511811023621
11
2.4120078740157478
21
1.9405511811023621
0
LINE
8
BLACK
6
CONTINUOUS
10
2.4120078740157478
20
1.9405511811023621
11
2.4120078740157478
21
1.9307086614173228
0
LINE
8
BLACK
6
CONTINUOUS
10
2.5812992125984251
20
1.9307086614173228
11
2.5379921259842519
21
1.9307086614173228
0
LINE
8
BLACK
6
CONTINUOUS
10
2.5379921259842519
20
1.9307086614173228
11
2.5379921259842519
21
1.9405511811023621
0
LINE
8
BLACK
6
CONTINUOUS
10
2.5379921259842519
20
1.9405511811023621
11
2.5812992125984251
21
1.9405511811023621
0
LINE
8
BLACK
6
CONTINUOUS
10
2.5812992125984251
20
1.9405511811023621
11
2.5812992125984251
21
1.9307086614173228
0
LINE
8
BLACK
6
CONTINUOUS
10
2.7524999999999999
20
1.9324999999999999
11
2.6974999999999998
21
1.9324999999999999
0
LINE
8
BLACK
6
CONTINUOUS
10
2.6974999999999998
20
1.9324999999999999
11
2.6974999999999998
21
1.9675
0
LINE
8
BLACK
6
CONTINUOUS
10
2.6974999999999998
20
1.9675
11
2.7524999999999999
21
1.9675
0
LINE
8
BLACK
6
CONTINUOUS
10
2.7524999999999999
20
1.9675
11
2.7524999999999999
21
1.9324999999999999
0
LINE
8
BLACK
6
CONTINUOUS
10
2.4120078740157478
20
1.9503937007874015
11
2.3687007874015746
21
1.9503937007874015
0
LINE
8
BLACK
6
CONTINUOUS
10
2.3687007874015746
20
1.9503937007874015
11
2.3687007874015746
21
1.9602362204724408
0
LINE
8
BLACK
6
CONTINUOUS
10
2.3687007874015746
20
1.9602362204724408
11
2.4120078740157478
21
1.9602362204724408
0
LINE
8
BLACK
6
CONTINUOUS
10
2.4120078740157478
20
1.9602362204724408
11
2.4120078740157478
21
1.9503937007874015
0
LINE
8
BLACK
6
CONTINUOUS
10
2.5812992125984251
20
1.9503937007874015
11
2.5379921259842519
21
1.9503937007874015
0
LINE
8
BLACK
6
CONTINUOUS
10
2.5379921259842519
20
1.9503937007874015
11
2.5379921259842519
21
1.9602362204724408
0
LINE
8
BLACK
6
CONTINUOUS
10
2.5379921259842519
20
1.9602362204724408
11
2.5812992125984251
21
1.9602362204724408
0
LINE
8
BLACK
6
CONTINUOUS
10
2.5812992125984251
20
1.9602362204724408
11
2.5812992125984251
21
1.9503937007874015
0
LINE
8
BLACK
6
CONTINUOUS
10
2.2854330708661417
20
1.9553149606299212
11
2.2145669291338583
21
1.9553149606299212
0
LINE
8
BLACK
6
CONTINUOUS
10
2.2145669291338583
20
1.9553149606299212
11
2.2145669291338583
21
1.9946850393700788
0
LINE
8
BLACK
6
CONTINUOUS
10
2.2145669291338583
20
1.9946850393700788
11
2.2854330708661417
21
1.9946850393700788
0
LINE
8
BLACK
6
CONTINUOUS
10
2.2854330708661417
20
1.9946850393700788
11
2.2854330708661417
21
1.9553149606299212
0
LINE
8
BLACK
6
CONTINUOUS
10
2.4120078740157478
20
1.9700787401574802
11
2.3687007874015746
21
1.9700787401574802
0
LINE
8
BLACK
6
CONTINUOUS
10
2.3687007874015746
20
1.9700787401574802
11
2.3687007874015746
21
1.9799212598425195
0
LINE
8
BLACK
6
CONTINUOUS
10
2.3687007874015746
20
1.9799212598425195
11
2.4120078740157478
21
1.9799212598425195
0
LINE
8
BLACK
6
CONTINUOUS
10
2.4120078740157478
20
1.9799212598425195
11
2.4120078740157478
21
1.9700787401574802
0
LINE
8
BLACK
6
CONTINUOUS
10
2.5812992125984251
20
1.9700787401574802
11
2.5379921259842519
21
1.9700787401574802
0
LINE
8
BLACK
6
CONTINUOUS
10
2.5379921259842519
20
1.9700787401574802
11
2.5379921259842519
21
1.9799212598425195
0
LINE
8
BLACK
6
CONTINUOUS
10
2.5379921259842519
20
1.9799212598425195
11
2.5812992125984251
21
1.9799212598425195
0
LINE
8
BLACK
6
CONTINUOUS
10
2.5812992125984251
20
1.9799212598425195
11
2.5812992125984251
21
1.9700787401574802
0
LINE
8
BLACK
6
CONTINUOUS
10
2.4120078740157478
20
1.9897637795275591
11
2.3687007874015746
21
1.9897637795275591
0
LINE
8
BLACK
6
CONTINUOUS
10
2.3687007874015746
20
1.9897637795275591
11
2.3687007874015746
21
1.9996062992125985
0
LINE
8
BLACK
6
CONTINUOUS
10
2.3687007874015746
20
1.9996062992125985
11
2.4120078740157478
21
1.9996062992125985
0
LINE
8
BLACK
6
CONTINUOUS
10
2.4120078740157478
20
1.9996062992125985
11
2.4120078740157478
21
1.9897637795275591
0
LINE
8
BLACK
6
CONTINUOUS
10
2.5812992125984251
20
1.9897637795275591
11
2.5379921259842519
21
1.9897637795275591
0
LINE
8
BLACK
6
CONTINUOUS
10
2.5379921259842519
20
1.9897637795275591
11
2.5379921259842519
21
1.9996062992125985
0
LINE
8
BLACK
6
CONTINUOUS
10
2.5379921259842519
20
1.9996062992125985
11
2.5812992125984251
21
1.9996062992125985
0
LINE
8
BLACK
6
CONTINUOUS
10
2.5812992125984251
20
1.9996062992125985
11
2.5812992125984251
21
1.9897637795275591
0
LINE
8
BLACK
6
CONTINUOUS
10
2.7524999999999999
20
2.0074999999999998
11
2.6974999999999998
21
2.0074999999999998
0
LINE
8
BLACK
6
CONTINUOUS
10
2.6974999999999998
20
2.0074999999999998
11
2.6974999999999998
21
2.0425
0
LINE
8
BLACK
6
CONTINUOUS
10
2.6974999999999998
20
2.0425
11
2.7524999999999999
21
2.0425
0
LINE
8
BLACK
6
CONTINUOUS
10
2.7524999999999999
20
2.0425
11
2.7524999999999999
21
2.0074999999999998
0
LINE
8
BLACK
6
CONTINUOUS
10
2.4120078740157478
20
2.0094488188976376
11
2.3687007874015746
21
2.0094488188976376
0
LINE
8
BLACK
6
CONTINUOUS
10
2.3687007874015746
20
2.0094488188976376
11
2.3687007874015746
21
2.019291338582677
0
LINE
8
BLACK
6
CONTINUOUS
10
2.3687007874015746
20
2.019291338582677
11
2.4120078740157478
21
2.019291338582677
0
LINE
8
BLACK
6
CONTINUOUS
10
2.4120078740157478
20
2.019291338582677
11
2.4120078740157478
21
2.0094488188976376
0
LINE
8
BLACK
6
CONTINUOUS
10
2.5812992125984251
20
2.0094488188976376
11
2.5379921259842519
21
2.0094488188976376
0
LINE
8
BLACK
6
CONTINUOUS
10
2.5379921259842519
20
2.0094488188976376
11
2.5379921259842519
21
2.019291338582677
0
LINE
8
BLACK
6
CONTINUOUS
10
2.5379921259842519
20
2.019291338582677
11
2.5812992125984251
21
2.019291338582677
0
LINE
8
BLACK
6
CONTINUOUS
10
2.5812992125984251
20
2.019291338582677
11
2.5812992125984251
21
2.0094488188976376
0
LINE
8
BLACK
6
CONTINUOUS
10
0.9828740157480315
20
2.0212598425196848
11
0.7860236220472441
21
2.0212598425196848
0
LINE
8
BLACK
6
CONTINUOUS
10
0.7860236220472441
20
2.0212598425196848
11
0.7860236220472441
21
2.1787401574803149
0
LINE
8
BLACK
6
CONTINUOUS
10
0.7860236220472441
20
2.1787401574803149
11
0.9828740157480315
21
2.1787401574803149
0
LINE
8
BLACK
6
CONTINUOUS
10
0.9828740157480315
20
2.1787401574803149
11
0.9828740157480315
21
2.0212598425196848
0
LINE
8
BLACK
6
CONTINUOUS
10
2.1639763779527557
20
2.0212598425196848
11
1.9671259842519684
21
2.0212598425196848
0
LINE
8
BLACK
6
CONTINUOUS
10
1.9671259842519684
20
2.0212598425196848
11
1.9671259842519684
21
2.1787401574803149
0
LINE
8
BLACK
6
CONTINUOUS
10
1.9671259842519684
20
2.1787401574803149
11
2.1639763779527557
21
2.1787401574803149
0
LINE
8
BLACK
6
CONTINUOUS
10
2.1639763779527557
20
2.1787401574803149
11
2.1639763779527557
21
2.0212598425196848
0
LINE
8
BLACK
6
CONTINUOUS
10
2.4742125984251966
20
2.1131889763779528
11
2.4131889763779526
21
2.1131889763779528
0
LINE
8
BLACK
6
CONTINUOUS
10
2.4131889763779526
20
2.1131889763779528
11
2.4131889763779526
21
2.1368110236220472
0
LINE
8
BLACK
6
CONTINUOUS
10
2.4131889763779526
20
2.1368110236220472
11
2.4742125984251966
21
2.1368110236220472
0
LINE
8
BLACK
6
CONTINUOUS
10
2.4742125984251966
20
2.1368110236220472
11
2.4742125984251966
21
2.1131889763779528
0
LINE
8
BLACK
6
CONTINUOUS
10
2.686811023622047
20
2.1131889763779528
11
2.6257874015748031
21
2.1131889763779528
0
LINE
8
BLACK
6
CONTINUOUS
10
2.6257874015748031
20
2.1131889763779528
11
2.6257874015748031
21
2.1368110236220472
0
LINE
8
BLACK
6
CONTINUOUS
10
2.6257874015748031
20
2.1368110236220472
11
2.686811023622047
21
2.1368110236220472
0
LINE
8
BLACK
6
CONTINUOUS
10
2.686811023622047
20
2.1368110236220472
11
2.686811023622047
21
2.1131889763779528
0
LINE
8
BLACK
6
CONTINUOUS
10
2.4742125984251966
20
2.1631889763779526
11
2.4131889763779526
21
2.1631889763779526
0
LINE
8
BLACK
6
CONTINUOUS
10
2.4131889763779526
20
2.1631889763779526
11
2.4131889763779526
21
2.186811023622047
0
LINE
8
BLACK
6
CONTINUOUS
10
2.4131889763779526
20
2.186811023622047
11
2.4742125984251966
21
2.186811023622047
0
LINE
8
BLACK
6
CONTINUOUS
10
2.4742125984251966
20
2.186811023622047
11
2.4742125984251966
21
2.1631889763779526
0
LINE
8
BLACK
6
CONTINUOUS
10
2.686811023622047
20
2.1631889763779526
11
2.6257874015748031
21
2.1631889763779526
0
LINE
8
BLACK
6
CONTINUOUS
10
2.6257874015748031
20
2.1631889763779526
11
2.6257874015748031
21
2.186811023622047
0
LINE
8
BLACK
6
CONTINUOUS
10
2.6257874015748031
20
2.186811023622047
11
2.686811023622047
21
2.186811023622047
0
LINE
8
BLACK
6
CONTINUOUS
10
2.686811023622047
20
2.186811023622047
11
2.686811023622047
21
2.1631889763779526
0
LINE
8
BLACK
6
CONTINUOUS
10
2.4742125984251966
20
2.2131889763779529
11
2.4131889763779526
21
2.2131889763779529
0
LINE
8
BLACK
6
CONTINUOUS
10
2.4131889763779526
20
2.2131889763779529
11
2.4131889763779526
21
2.2368110236220473
0
LINE
8
BLACK
6
CONTINUOUS
10
2.4131889763779526
20
2.2368110236220473
11
2.4742125984251966
21
2.2368110236220473
0
LINE
8
BLACK
6
CONTINUOUS
10
2.4742125984251966
20
2.2368110236220473
11
2.4742125984251966
21
2.2131889763779529
0
LINE
8
BLACK
6
CONTINUOUS
10
2.686811023622047
20
2.2131889763779529
11
2.6257874015748031
21
2.2131889763779529
0
LINE
8
BLACK
6
CONTINUOUS
10
2.6257874015748031
20
2.2131889763779529
11
2.6257874015748031
21
2.2368110236220473
0
LINE
8
BLACK
6
CONTINUOUS
10
2.6257874015748031
20
2.2368110236220473
11
2.686811023622047
21
2.2368110236220473
0
LINE
8
BLACK
6
CONTINUOUS
10
2.686811023622047
20
2.2368110236220473
11
2.686811023622047
21
2.2131889763779529
0
LINE
8
BLACK
6
CONTINUOUS
10
2.4742125984251966
20
2.2631889763779527
11
2.4131889763779526
21
2.2631889763779527
0
LINE
8
BLACK
6
CONTINUOUS
10
2.4131889763779526
20
2.2631889763779527
11
2.4131889763779526
21
2.2868110236220471
0
LINE
8
BLACK
6
CONTINUOUS
10
2.4131889763779526
20
2.2868110236220471
11
2.4742125984251966
21
2.2868110236220471
0
LINE
8
BLACK
6
CONTINUOUS
10
2.4742125984251966
20
2.2868110236220471
11
2.4742125984251966
21
2.2631889763779527
0
LINE
8
BLACK
6
CONTINUOUS
10
2.686811023622047
20
2.2631889763779527
11
2.6257874015748031
21
2.2631889763779527
0
LINE
8
BLACK
6
CONTINUOUS
10
2.6257874015748031
20
2.2631889763779527
11
2.6257874015748031
21
2.2868110236220471
0
LINE
8
BLACK
6
CONTINUOUS
10
2.6257874015748031
20
2.2868110236220471
11
2.686811023622047
21
2.2868110236220471
0
LINE
8
BLACK
6
CONTINUOUS
10
2.686811023622047
20
2.2868110236220471
11
2.686811023622047
21
2.2631889763779527
0
LINE
8
BLACK
6
CONTINUOUS
10
2.6275590551181103
20
2.3199999999999998
11
2.5724409448818899
21
2.3199999999999998
0
LINE
8
BLACK
6
CONTINUOUS
10
2.5724409448818899
20
2.3199999999999998
11
2.5724409448818899
21
2.355
0
LINE
8
BLACK
6
CONTINUOUS
10
2.5724409448818899
20
2.355
11
2.6275590551181103
21
2.355
0
LINE
8
BLACK
6
CONTINUOUS
10
2.6275590551181103
20
2.355
11
2.6275590551181103
21
2.3199999999999998
0
LINE
8
BLACK
6
CONTINUOUS
10
2.70255905511811
20
2.3199999999999998
11
2.6474409448818896
21
2.3199999999999998
0
LINE
8
BLACK
6
CONTINUOUS
10
2.6474409448818896
20
2.3199999999999998
11
2.6474409448818896
21
2.355
0
LINE
8
BLACK
6
CONTINUOUS
10
2.6474409448818896
20
2.355
11
2.70255905511811
21
2.355
0
LINE
8
BLACK
6
CONTINUOUS
10
2.70255905511811
20
2.355
11
2.70255905511811
21
2.3199999999999998
0
LINE
8
BLACK
6
CONTINUOUS
10
2.4424999999999999
20
2.3224409448818899
11
2.4074999999999998
21
2.3224409448818899
0
LINE
8
BLACK
6
CONTINUOUS
10
2.4074999999999998
20
2.3224409448818899
11
2.4074999999999998
21
2.3775590551181103
0
LINE
8
BLACK
6
CONTINUOUS
10
2.4074999999999998
20
2.3775590551181103
11
2.4424999999999999
21
2.3775590551181103
0
LINE
8
BLACK
6
CONTINUOUS
10
2.4424999999999999
20
2.3775590551181103
11
2.4424999999999999
21
2.3224409448818899
0
LINE
8
BLACK
6
CONTINUOUS
10
2.5176968503937007
20
2.3224409448818899
11
2.4823031496062993
21
2.3224409448818899
0
LINE
8
BLACK
6
CONTINUOUS
10
2.4823031496062993
20
2.3224409448818899
11
2.4823031496062993
21
2.3775590551181103
0
LINE
8
BLACK
6
CONTINUOUS
10
2.4823031496062993
20
2.3775590551181103
11
2.5176968503937007
21
2.3775590551181103
0
LINE
8
BLACK
6
CONTINUOUS
10
2.5176968503937007
20
2.3775590551181103
11
2.5176968503937007
21
2.3224409448818899
0
LINE
8
BLACK
6
CONTINUOUS
10
2.6275590551181103
20
2.3948031496062994
11
2.5724409448818899
21
2.3948031496062994
0
LINE
8
BLACK
6
CONTINUOUS
10
2.5724409448818899
20
2.3948031496062994
11
2.5724409448818899
21
2.4301968503937008
0
LINE
8
BLACK
6
CONTINUOUS
10
2.5724409448818899
20
2.4301968503937008
11
2.6275590551181103
21
2.4301968503937008
0
LINE
8
BLACK
6
CONTINUOUS
10
2.6275590551181103
20
2.4301968503937008
11
2.6275590551181103
21
2.3948031496062994
0
LINE
8
BLACK
6
CONTINUOUS
10
2.70255905511811
20
2.3948031496062994
11
2.6474409448818896
21
2.3948031496062994
0
LINE
8
BLACK
6
CONTINUOUS
10
2.6474409448818896
20
2.3948031496062994
11
2.6474409448818896
21
2.4301968503937008
0
LINE
8
BLACK
6
CONTINUOUS
10
2.6474409448818896
20
2.4301968503937008
11
2.70255905511811
21
2.4301968503937008
0
LINE
8
BLACK
6
CONTINUOUS
10
2.70255905511811
20
2.4301968503937008
11
2.70255905511811
21
2.3948031496062994
0
LINE
8
BLACK
6
CONTINUOUS
10
2.5025590551181103
20
2.4074999999999998
11
2.4474409448818899
21
2.4074999999999998
0
LINE
8
BLACK
6
CONTINUOUS
10
2.4474409448818899
20
2.4074999999999998
11
2.4474409448818899
21
2.4424999999999999
0
LINE
8
BLACK
6
CONTINUOUS
10
2.4474409448818899
20
2.4424999999999999
11
2.5025590551181103
21
2.4424999999999999
0
LINE
8
BLACK
6
CONTINUOUS
10
2.5025590551181103
20
2.4424999999999999
11
2.5025590551181103
21
2.4074999999999998
0
LINE
8
BLACK
6
CONTINUOUS
10
2.4025590551181102
20
2.432303149606299
11
2.3474409448818898
21
2.432303149606299
0
LINE
8
BLACK
6
CONTINUOUS
10
2.3474409448818898
20
2.432303149606299
11
2.3474409448818898
21
2.4676968503937009
0
LINE
8
BLACK
6
CONTINUOUS
10
2.3474409448818898
20
2.4676968503937009
11
2.4025590551181102
21
2.4676968503937009
0
LINE
8
BLACK
6
CONTINUOUS
10
2.4025590551181102
20
2.4676968503937009
11
2.4025590551181102
21
2.432303149606299
0
LINE
8
BLACK
6
CONTINUOUS
10
2.5025590551181103
20
2.4823031496062993
11
2.4474409448818899
21
2.4823031496062993
0
LINE
8
BLACK
6
CONTINUOUS
10
2.4474409448818899
20
2.4823031496062993
11
2.4474409448818899
21
2.5176968503937007
0
LINE
8
BLACK
6
CONTINUOUS
10
2.4474409448818899
20
2.5176968503937007
11
2.5025590551181103
21
2.5176968503937007
0
LINE
8
BLACK
6
CONTINUOUS
10
2.5025590551181103
20
2.5176968503937007
11
2.5025590551181103
21
2.4823031496062993
0
LINE
8
BLACK
6
CONTINUOUS
10
2.4025590551181102
20
2.5074999999999998
11
2.3474409448818898
21
2.5074999999999998
0
LINE
8
BLACK
6
CONTINUOUS
10
2.3474409448818898
20
2.5074999999999998
11
2.3474409448818898
21
2.5425
0
LINE
8
BLACK
6
CONTINUOUS
10
2.3474409448818898
20
2.5425
11
2.4025590551181102
21
2.5425
0
LINE
8
BLACK
6
CONTINUOUS
10
2.4025590551181102
20
2.5425
11
2.4025590551181102
21
2.5074999999999998
0
LINE
8
BLACK
6
CONTINUOUS
10
3.0775000000000001
20
2.7450000000000001
11
3.0225
21
2.7450000000000001
0
LINE
8
BLACK
6
CONTINUOUS
10
3.0225
20
2.7450000000000001
11
3.0225
21
2.7799999999999998
0
LINE
8
BLACK
6
CONTINUOUS
10
3.0225
20
2.7799999999999998
11
3.0775000000000001
21
2.7799999999999998
0
LINE
8
BLACK
6
CONTINUOUS
10
3.0775000000000001
20
2.7799999999999998
11
3.0775000000000001
21
2.7450000000000001
0
LINE
8
BLACK
6
CONTINUOUS
10
3.0775000000000001
20
2.8199999999999998
11
3.0225
21
2.8199999999999998
0
LINE
8
BLACK
6
CONTINUOUS
10
3.0225
20
2.8199999999999998
11
3.0225
21
2.855
0
LINE
8
BLACK
6
CONTINUOUS
10
3.0225
20
2.855
11
3.0775000000000001
21
2.855
0
LINE
8
BLACK
6
CONTINUOUS
10
3.0775000000000001
20
2.855
11
3.0775000000000001
21
2.8199999999999998
0
LINE
8
BLACK
6
CONTINUOUS
10
2.355
20
2.8475000000000001
11
2.3199999999999998
21
2.8475000000000001
0
LINE
8
BLACK
6
CONTINUOUS
10
2.3199999999999998
20
2.8475000000000001
11
2.3199999999999998
21
2.9024999999999999
0
LINE
8
BLACK
6
CONTINUOUS
10
2.3199999999999998
20
2.9024999999999999
11
2.355
21
2.9024999999999999
0
LINE
8
BLACK
6
CONTINUOUS
10
2.355
20
2.9024999999999999
11
2.355
21
2.8475000000000001
0
LINE
8
BLACK
6
CONTINUOUS
10
2.4300000000000002
20
2.8475000000000001
11
2.395
21
2.8475000000000001
0
LINE
8
BLACK
6
CONTINUOUS
10
2.395
20
2.8475000000000001
11
2.395
21
2.9024999999999999
0
LINE
8
BLACK
6
CONTINUOUS
10
2.395
20
2.9024999999999999
11
2.4300000000000002
21
2.9024999999999999
0
LINE
8
BLACK
6
CONTINUOUS
10
2.4300000000000002
20
2.9024999999999999
11
2.4300000000000002
21
2.8475000000000001
0
LINE
8
BLACK
6
CONTINUOUS
10
3.0775000000000001
20
2.895
11
3.0225
21
2.895
0
LINE
8
BLACK
6
CONTINUOUS
10
3.0225
20
2.895
11
3.0225
21
2.9299999999999997
0
LINE
8
BLACK
6
CONTINUOUS
10
3.0225
20
2.9299999999999997
11
3.0775000000000001
21
2.9299999999999997
0
LINE
8
BLACK
6
CONTINUOUS
10
3.0775000000000001
20
2.9299999999999997
11
3.0775000000000001
21
2.895
0
LINE
8
BLACK
6
CONTINUOUS
10
3.0775000000000001
20
2.9699999999999998
11
3.0225
21
2.9699999999999998
0
LINE
8
BLACK
6
CONTINUOUS
10
3.0225
20
2.9699999999999998
11
3.0225
21
3.0049999999999999
0
LINE
8
BLACK
6
CONTINUOUS
10
3.0225
20
3.0049999999999999
11
3.0775000000000001
21
3.0049999999999999
0
LINE
8
BLACK
6
CONTINUOUS
10
3.0775000000000001
20
3.0049999999999999
11
3.0775000000000001
21
2.9699999999999998
0
LINE
8
BLACK
6
CONTINUOUS
10
2.0783464566929135
20
2.9710629921259843
11
2.0566929133858269
21
2.9710629921259843
0
LINE
8
BLACK
6
CONTINUOUS
10
2.0566929133858269
20
2.9710629921259843
11
2.0566929133858269
21
3.0301181102362205
0
LINE
8
BLACK
6
CONTINUOUS
10
2.0566929133858269
20
3.0301181102362205
11
2.0783464566929135
21
3.0301181102362205
0
LINE
8
BLACK
6
CONTINUOUS
10
2.0783464566929135
20
3.0301181102362205
11
2.0783464566929135
21
2.9710629921259843
0
LINE
8
BLACK
6
CONTINUOUS
10
2.1098425196850394
20
2.9710629921259843
11
2.0881889763779529
21
2.9710629921259843
0
LINE
8
BLACK
6
CONTINUOUS
10
2.0881889763779529
20
2.9710629921259843
11
2.0881889763779529
21
3.0301181102362205
0
LINE
8
BLACK
6
CONTINUOUS
10
2.0881889763779529
20
3.0301181102362205
11
2.1098425196850394
21
3.0301181102362205
0
LINE
8
BLACK
6
CONTINUOUS
10
2.1098425196850394
20
3.0301181102362205
11
2.1098425196850394
21
2.9710629921259843
0
LINE
8
BLACK
6
CONTINUOUS
10
2.1413385826771654
20
2.9710629921259843
11
2.1196850393700788
21
2.9710629921259843
0
LINE
8
BLACK
6
CONTINUOUS
10
2.1196850393700788
20
2.9710629921259843
11
2.1196850393700788
21
3.0301181102362205
0
LINE
8
BLACK
6
CONTINUOUS
10
2.1196850393700788
20
3.0301181102362205
11
2.1413385826771654
21
3.0301181102362205
0
LINE
8
BLACK
6
CONTINUOUS
10
2.1413385826771654
20
3.0301181102362205
11
2.1413385826771654
21
2.9710629921259843
0
LINE
8
BLACK
6
CONTINUOUS
10
2.1728346456692913
20
2.9710629921259843
11
2.1511811023622047
21
2.9710629921259843
0
LINE
8
BLACK
6
CONTINUOUS
10
2.1511811023622047
20
2.9710629921259843
11
2.1511811023622047
21
3.0301181102362205
0
LINE
8
BLACK
6
CONTINUOUS
10
2.1511811023622047
20
3.0301181102362205
11
2.1728346456692913
21
3.0301181102362205
0
LINE
8
BLACK
6
CONTINUOUS
10
2.1728346456692913
20
3.0301181102362205
11
2.1728346456692913
21
2.9710629921259843
0
LINE
8
BLACK
6
CONTINUOUS
10
2.2043307086614172
20
2.9710629921259843
11
2.1826771653543307
21
2.9710629921259843
0
LINE
8
BLACK
6
CONTINUOUS
10
2.1826771653543307
20
2.9710629921259843
11
2.1826771653543307
21
3.0301181102362205
0
LINE
8
BLACK
6
CONTINUOUS
10
2.1826771653543307
20
3.0301181102362205
11
2.2043307086614172
21
3.0301181102362205
0
LINE
8
BLACK
6
CONTINUOUS
10
2.2043307086614172
20
3.0301181102362205
11
2.2043307086614172
21
2.9710629921259843
0
LINE
8
BLACK
6
CONTINUOUS
10
2.2358267716535432
20
2.9710629921259843
11
2.2141732283464566
21
2.9710629921259843
0
LINE
8
BLACK
6
CONTINUOUS
10
2.2141732283464566
20
2.9710629921259843
11
2.2141732283464566
21
3.0301181102362205
0
LINE
8
BLACK
6
CONTINUOUS
10
2.2141732283464566
20
3.0301181102362205
11
2.2358267716535432
21
3.0301181102362205
0
LINE
8
BLACK
6
CONTINUOUS
10
2.2358267716535432
20
3.0301181102362205
11
2.2358267716535432
21
2.9710629921259843
0
LINE
8
BLACK
6
CONTINUOUS
10
2.2673228346456691
20
2.9710629921259843
11
2.2456692913385825
21
2.9710629921259843
0
LINE
8
BLACK
6
CONTINUOUS
10
2.2456692913385825
20
2.9710629921259843
11
2.2456692913385825
21
3.0301181102362205
0
LINE
8
BLACK
6
CONTINUOUS
10
2.2456692913385825
20
3.0301181102362205
11
2.2673228346456691
21
3.0301181102362205
0
LINE
8
BLACK
6
CONTINUOUS
10
2.2673228346456691
20
3.0301181102362205
11
2.2673228346456691
21
2.9710629921259843
0
LINE
8
BLACK
6
CONTINUOUS
10
2.298818897637795
20
2.9710629921259843
11
2.2771653543307084
21
2.9710629921259843
0
LINE
8
BLACK
6
CONTINUOUS
10
2.2771653543307084
20
2.9710629921259843
11
2.2771653543307084
21
3.0301181102362205
0
LINE
8
BLACK
6
CONTINUOUS
10
2.2771653543307084
20
3.0301181102362205
11
2.298818897637795
21
3.0301181102362205
0
LINE
8
BLACK
6
CONTINUOUS
10
2.298818897637795
20
3.0301181102362205
11
2.298818897637795
21
2.9710629921259843
0
LINE
8
BLACK
6
CONTINUOUS
10
2.3303149606299214
20
2.9710629921259843
11
2.3086614173228348
21
2.9710629921259843
0
LINE
8
BLACK
6
CONTINUOUS
10
2.3086614173228348
20
2.9710629921259843
11
2.3086614173228348
21
3.0301181102362205
0
LINE
8
BLACK
6
CONTINUOUS
10
2.3086614173228348
20
3.0301181102362205
11
2.3303149606299214
21
3.0301181102362205
0
LINE
8
BLACK
6
CONTINUOUS
10
2.3303149606299214
20
3.0301181102362205
11
2.3303149606299214
21
2.9710629921259843
0
LINE
8
BLACK
6
CONTINUOUS
10
2.3618110236220473
20
2.9710629921259843
11
2.3401574803149607
21
2.9710629921259843
0
LINE
8
BLACK
6
CONTINUOUS
10
2.3401574803149607
20
2.9710629921259843
11
2.3401574803149607
21
3.0301181102362205
0
LINE
8
BLACK
6
CONTINUOUS
10
2.3401574803149607
20
3.0301181102362205
11
2.3618110236220473
21
3.0301181102362205
0
LINE
8
BLACK
6
CONTINUOUS
10
2.3618110236220473
20
3.0301181102362205
11
2.3618110236220473
21
2.9710629921259843
0
LINE
8
BLACK
6
CONTINUOUS
10
2.3933070866141732
20
2.9710629921259843
11
2.3716535433070867
21
2.9710629921259843
0
LINE
8
BLACK
6
CONTINUOUS
10
2.3716535433070867
20
2.9710629921259843
11
2.3716535433070867
21
3.0301181102362205
0
LINE
8
BLACK
6
CONTINUOUS
10
2.3716535433070867
20
3.0301181102362205
11
2.3933070866141732
21
3.0301181102362205
0
LINE
8
BLACK
6
CONTINUOUS
10
2.3933070866141732
20
3.0301181102362205
11
2.3933070866141732
21
2.9710629921259843
0
LINE
8
BLACK
6
CONTINUOUS
10
1.49
20
2.9750000000000001
11
1.4399999999999999
21
2.9750000000000001
0
LINE
8
BLACK
6
CONTINUOUS
10
1.4399999999999999
20
2.9750000000000001
11
1.4399999999999999
21
3.0749999999999997
0
LINE
8
BLACK
6
CONTINUOUS
10
1.4399999999999999
20
3.0749999999999997
11
1.49
21
3.0749999999999997
0
LINE
8
BLACK
6
CONTINUOUS
10
1.49
20
3.0749999999999997
11
1.49
21
2.9750000000000001
0
LINE
8
BLACK
6
CONTINUOUS
10
1.6099999999999999
20
2.9750000000000001
11
1.5600000000000001
21
2.9750000000000001
0
LINE
8
BLACK
6
CONTINUOUS
10
1.5600000000000001
20
2.9750000000000001
11
1.5600000000000001
21
3.0749999999999997
0
LINE
8
BLACK
6
CONTINUOUS
10
1.5600000000000001
20
3.0749999999999997
11
1.6099999999999999
21
3.0749999999999997
0
LINE
8
BLACK
6
CONTINUOUS
10
1.6099999999999999
20
3.0749999999999997
11
1.6099999999999999
21
2.9750000000000001
0
LINE
8
BLACK
6
CONTINUOUS
10
1.1775
20
3.02
11
1.1225000000000001
21
3.02
0
LINE
8
BLACK
6
CONTINUOUS
10
1.1225000000000001
20
3.02
11
1.1225000000000001
21
3.0549999999999997
0
LINE
8
BLACK
6
CONTINUOUS
10
1.1225000000000001
20
3.0549999999999997
11
1.1775
21
3.0549999999999997
0
LINE
8
BLACK
6
CONTINUOUS
10
1.1775
20
3.0549999999999997
11
1.1775
21
3.02
0
LINE
8
BLACK
6
CONTINUOUS
10
1.2775000000000001
20
3.02
11
1.2224999999999999
21
3.02
0
LINE
8
BLACK
6
CONTINUOUS
10
1.2224999999999999
20
3.02
11
1.2224999999999999
21
3.0549999999999997
0
LINE
8
BLACK
6
CONTINUOUS
10
1.2224999999999999
20
3.0549999999999997
11
1.2775000000000001
21
3.0549999999999997
0
LINE
8
BLACK
6
CONTINUOUS
10
1.2775000000000001
20
3.0549999999999997
11
1.2775000000000001
21
3.02
0
LINE
8
BLACK
6
CONTINUOUS
10
1.3774999999999999
20
3.02
11
1.3225
21
3.02
0
LINE
8
BLACK
6
CONTINUOUS
10
1.3225
20
3.02
11
1.3225
21
3.0549999999999997
0
LINE
8
BLACK
6
CONTINUOUS
10
1.3225
20
3.0549999999999997
11
1.3774999999999999
21
3.0549999999999997
0
LINE
8
BLACK
6
CONTINUOUS
10
1.3774999999999999
20
3.0549999999999997
11
1.3774999999999999
21
3.02
0
LINE
8
BLACK
6
CONTINUOUS
10
1.7024999999999999
20
3.0449999999999999
11
1.6475
21
3.0449999999999999
0
LINE
8
BLACK
6
CONTINUOUS
10
1.6475
20
3.0449999999999999
11
1.6475
21
3.0800000000000001
0
LINE
8
BLACK
6
CONTINUOUS
10
1.6475
20
3.0800000000000001
11
1.7024999999999999
21
3.0800000000000001
0
LINE
8
BLACK
6
CONTINUOUS
10
1.7024999999999999
20
3.0800000000000001
11
1.7024999999999999
21
3.0449999999999999
0
LINE
8
BLACK
6
CONTINUOUS
10
2.0301181102362205
20
3.0566929133858265
11
1.9710629921259841
21
3.0566929133858265
0
LINE
8
BLACK
6
CONTINUOUS
10
1.9710629921259841
20
3.0566929133858265
11
1.9710629921259841
21
3.0783464566929135
0
LINE
8
BLACK
6
CONTINUOUS
10
1.9710629921259841
20
3.0783464566929135
11
2.0301181102362205
21
3.0783464566929135
0
LINE
8
BLACK
6
CONTINUOUS
10
2.0301181102362205
20
3.0783464566929135
11
2.0301181102362205
21
3.0566929133858265
0
LINE
8
BLACK
6
CONTINUOUS
10
2.4789370078740158
20
3.0566929133858265
11
2.4198818897637793
21
3.0566929133858265
0
LINE
8
BLACK
6
CONTINUOUS
10
2.4198818897637793
20
3.0566929133858265
11
2.4198818897637793
21
3.0783464566929135
0
LINE
8
BLACK
6
CONTINUOUS
10
2.4198818897637793
20
3.0783464566929135
11
2.4789370078740158
21
3.0783464566929135
0
LINE
8
BLACK
6
CONTINUOUS
10
2.4789370078740158
20
3.0783464566929135
11
2.4789370078740158
21
3.0566929133858265
0
LINE
8
BLACK
6
CONTINUOUS
10
2.0301181102362205
20
3.0881889763779529
11
1.9710629921259841
21
3.0881889763779529
0
LINE
8
BLACK
6
CONTINUOUS
10
1.9710629921259841
20
3.0881889763779529
11
1.9710629921259841
21
3.1098425196850394
0
LINE
8
BLACK
6
CONTINUOUS
10
1.9710629921259841
20
3.1098425196850394
11
2.0301181102362205
21
3.1098425196850394
0
LINE
8
BLACK
6
CONTINUOUS
10
2.0301181102362205
20
3.1098425196850394
11
2.0301181102362205
21
3.0881889763779529
0
LINE
8
BLACK
6
CONTINUOUS
10
2.4789370078740158
20
3.0881889763779529
11
2.4198818897637793
21
3.0881889763779529
0
LINE
8
BLACK
6
CONTINUOUS
10
2.4198818897637793
20
3.0881889763779529
11
2.4198818897637793
21
3.1098425196850394
0
LINE
8
BLACK
6
CONTINUOUS
10
2.4198818897637793
20
3.1098425196850394
11
2.4789370078740158
21
3.1098425196850394
0
LINE
8
BLACK
6
CONTINUOUS
10
2.4789370078740158
20
3.1098425196850394
11
2.4789370078740158
21
3.0881889763779529
0
LINE
8
BLACK
6
CONTINUOUS
10
1.1775
20
3.0949999999999998
11
1.1225000000000001
21
3.0949999999999998
0
LINE
8
BLACK
6
CONTINUOUS
10
1.1225000000000001
20
3.0949999999999998
11
1.1225000000000001
21
3.1299999999999999
0
LINE
8
BLACK
6
CONTINUOUS
10
1.1225000000000001
20
3.1299999999999999
11
1.1775
21
3.1299999999999999
0
LINE
8
BLACK
6
CONTINUOUS
10
1.1775
20
3.1299999999999999
11
1.1775
21
3.0949999999999998
0
LINE
8
BLACK
6
CONTINUOUS
10
1.2775000000000001
20
3.0949999999999998
11
1.2224999999999999
21
3.0949999999999998
0
LINE
8
BLACK
6
CONTINUOUS
10
1.2224999999999999
20
3.0949999999999998
11
1.2224999999999999
21
3.1299999999999999
0
LINE
8
BLACK
6
CONTINUOUS
10
1.2224999999999999
20
3.1299999999999999
11
1.2775000000000001
21
3.1299999999999999
0
LINE
8
BLACK
6
CONTINUOUS
10
1.2775000000000001
20
3.1299999999999999
11
1.2775000000000001
21
3.0949999999999998
0
LINE
8
BLACK
6
CONTINUOUS
10
1.3774999999999999
20
3.0949999999999998
11
1.3225
21
3.0949999999999998
0
LINE
8
BLACK
6
CONTINUOUS
10
1.3225
20
3.0949999999999998
11
1.3225
21
3.1299999999999999
0
LINE
8
BLACK
6
CONTINUOUS
10
1.3225
20
3.1299999999999999
11
1.3774999999999999
21
3.1299999999999999
0
LINE
8
BLACK
6
CONTINUOUS
10
1.3774999999999999
20
3.1299999999999999
11
1.3774999999999999
21
3.0949999999999998
0
LINE
8
BLACK
6
CONTINUOUS
10
2.7275
20
3.0949999999999998
11
2.6724999999999999
21
3.0949999999999998
0
LINE
8
BLACK
6
CONTINUOUS
10
2.6724999999999999
20
3.0949999999999998
11
2.6724999999999999
21
3.1299999999999999
0
LINE
8
BLACK
6
CONTINUOUS
10
2.6724999999999999
20
3.1299999999999999
11
2.7275
21
3.1299999999999999
0
LINE
8
BLACK
6
CONTINUOUS
10
2.7275
20
3.1299999999999999
11
2.7275
21
3.0949999999999998
0
LINE
8
BLACK
6
CONTINUOUS
10
2.0301181102362205
20
3.1196850393700788
11
1.9710629921259841
21
3.1196850393700788
0
LINE
8
BLACK
6
CONTINUOUS
10
1.9710629921259841
20
3.1196850393700788
11
1.9710629921259841
21
3.1413385826771654
0
LINE
8
BLACK
6
CONTINUOUS
10
1.9710629921259841
20
3.1413385826771654
11
2.0301181102362205
21
3.1413385826771654
0
LINE
8
BLACK
6
CONTINUOUS
10
2.0301181102362205
20
3.1413385826771654
11
2.0301181102362205
21
3.1196850393700788
0
LINE
8
BLACK
6
CONTINUOUS
10
2.4789370078740158
20
3.1196850393700788
11
2.4198818897637793
21
3.1196850393700788
0
LINE
8
BLACK
6
CONTINUOUS
10
2.4198818897637793
20
3.1196850393700788
11
2.4198818897637793
21
3.1413385826771654
0
LINE
8
BLACK
6
CONTINUOUS
10
2.4198818897637793
20
3.1413385826771654
11
2.4789370078740158
21
3.1413385826771654
0
LINE
8
BLACK
6
CONTINUOUS
10
2.4789370078740158
20
3.1413385826771654
11
2.4789370078740158
21
3.1196850393700788
0
LINE
8
BLACK
6
CONTINUOUS
10
1.7024999999999999
20
3.1200000000000001
11
1.6475
21
3.1200000000000001
0
LINE
8
BLACK
6
CONTINUOUS
10
1.6475
20
3.1200000000000001
11
1.6475
21
3.1549999999999998
0
LINE
8
BLACK
6
CONTINUOUS
10
1.6475
20
3.1549999999999998
11
1.7024999999999999
21
3.1549999999999998
0
LINE
8
BLACK
6
CONTINUOUS
10
1.7024999999999999
20
3.1549999999999998
11
1.7024999999999999
21
3.1200000000000001
0
LINE
8
BLACK
6
CONTINUOUS
10
2.0301181102362205
20
3.1511811023622047
11
1.9710629921259841
21
3.1511811023622047
0
LINE
8
BLACK
6
CONTINUOUS
10
1.9710629921259841
20
3.1511811023622047
11
1.9710629921259841
21
3.1728346456692913
0
LINE
8
BLACK
6
CONTINUOUS
10
1.9710629921259841
20
3.1728346456692913
11
2.0301181102362205
21
3.1728346456692913
0
LINE
8
BLACK
6
CONTINUOUS
10
2.0301181102362205
20
3.1728346456692913
11
2.0301181102362205
21
3.1511811023622047
0
LINE
8
BLACK
6
CONTINUOUS
10
2.4789370078740158
20
3.1511811023622047
11
2.4198818897637793
21
3.1511811023622047
0
LINE
8
BLACK
6
CONTINUOUS
10
2.4198818897637793
20
3.1511811023622047
11
2.4198818897637793
21
3.1728346456692913
0
LINE
8
BLACK
6
CONTINUOUS
10
2.4198818897637793
20
3.1728346456692913
11
2.4789370078740158
21
3.1728346456692913
0
LINE
8
BLACK
6
CONTINUOUS
10
2.4789370078740158
20
3.1728346456692913
11
2.4789370078740158
21
3.1511811023622047
0
LINE
8
BLACK
6
CONTINUOUS
10
2.7275
20
3.1699999999999999
11
2.6724999999999999
21
3.1699999999999999
0
LINE
8
BLACK
6
CONTINUOUS
10
2.6724999999999999
20
3.1699999999999999
11
2.6724999999999999
21
3.2050000000000001
0
LINE
8
BLACK
6
CONTINUOUS
10
2.6724999999999999
20
3.2050000000000001
11
2.7275
21
3.2050000000000001
0
LINE
8
BLACK
6
CONTINUOUS
10
2.7275
20
3.2050000000000001
11
2.7275
21
3.1699999999999999
0
LINE
8
BLACK
6
CONTINUOUS
10
2.6274999999999999
20
3.1825000000000001
11
2.5724999999999998
21
3.1825000000000001
0
LINE
8
BLACK
6
CONTINUOUS
10
2.5724999999999998
20
3.1825000000000001
11
2.5724999999999998
21
3.2174999999999998
0
LINE
8
BLACK
6
CONTINUOUS
10
2.5724999999999998
20
3.2174999999999998
11
2.6274999999999999
21
3.2174999999999998
0
LINE
8
BLACK
6
CONTINUOUS
10
2.6274999999999999
20
3.2174999999999998
11
2.6274999999999999
21
3.1825000000000001
0
LINE
8
BLACK
6
CONTINUOUS
10
2.0301181102362205
20
3.1826771653543307
11
1.9710629921259841
21
3.1826771653543307
0
LINE
8
BLACK
6
CONTINUOUS
10
1.9710629921259841
20
3.1826771653543307
11
1.9710629921259841
21
3.2043307086614172
0
LINE
8
BLACK
6
CONTINUOUS
10
1.9710629921259841
20
3.2043307086614172
11
2.0301181102362205
21
3.2043307086614172
0
LINE
8
BLACK
6
CONTINUOUS
10
2.0301181102362205
20
3.2043307086614172
11
2.0301181102362205
21
3.1826771653543307
0
LINE
8
BLACK
6
CONTINUOUS
10
2.4789370078740158
20
3.1826771653543307
11
2.4198818897637793
21
3.1826771653543307
0
LINE
8
BLACK
6
CONTINUOUS
10
2.4198818897637793
20
3.1826771653543307
11
2.4198818897637793
21
3.2043307086614172
0
LINE
8
BLACK
6
CONTINUOUS
10
2.4198818897637793
20
3.2043307086614172
11
2.4789370078740158
21
3.2043307086614172
0
LINE
8
BLACK
6
CONTINUOUS
10
2.4789370078740158
20
3.2043307086614172
11
2.4789370078740158
21
3.1826771653543307
0
LINE
8
BLACK
6
CONTINUOUS
10
1.6025
20
3.1949999999999998
11
1.5474999999999999
21
3.1949999999999998
0
LINE
8
BLACK
6
CONTINUOUS
10
1.5474999999999999
20
3.1949999999999998
11
1.5474999999999999
21
3.23
0
LINE
8
BLACK
6
CONTINUOUS
10
1.5474999999999999
20
3.23
11
1.6025
21
3.23
0
LINE
8
BLACK
6
CONTINUOUS
10
1.6025
20
3.23
11
1.6025
21
3.1949999999999998
0
LINE
8
BLACK
6
CONTINUOUS
10
1.7024999999999999
20
3.1949999999999998
11
1.6475
21
3.1949999999999998
0
LINE
8
BLACK
6
CONTINUOUS
10
1.6475
20
3.1949999999999998
11
1.6475
21
3.23
0
LINE
8
BLACK
6
CONTINUOUS
10
1.6475
20
3.23
11
1.7024999999999999
21
3.23
0
LINE
8
BLACK
6
CONTINUOUS
10
1.7024999999999999
20
3.23
11
1.7024999999999999
21
3.1949999999999998
0
LINE
8
BLACK
6
CONTINUOUS
10
2.0301181102362205
20
3.2141732283464566
11
1.9710629921259841
21
3.2141732283464566
0
LINE
8
BLACK
6
CONTINUOUS
10
1.9710629921259841
20
3.2141732283464566
11
1.9710629921259841
21
3.2358267716535432
0
LINE
8
BLACK
6
CONTINUOUS
10
1.9710629921259841
20
3.2358267716535432
11
2.0301181102362205
21
3.2358267716535432
0
LINE
8
BLACK
6
CONTINUOUS
10
2.0301181102362205
20
3.2358267716535432
11
2.0301181102362205
21
3.2141732283464566
0
LINE
8
BLACK
6
CONTINUOUS
10
2.4789370078740158
20
3.2141732283464566
11
2.4198818897637793
21
3.2141732283464566
0
LINE
8
BLACK
6
CONTINUOUS
10
2.4198818897637793
20
3.2141732283464566
11
2.4198818897637793
21
3.2358267716535432
0
LINE
8
BLACK
6
CONTINUOUS
10
2.4198818897637793
20
3.2358267716535432
11
2.4789370078740158
21
3.2358267716535432
0
LINE
8
BLACK
6
CONTINUOUS
10
2.4789370078740158
20
3.2358267716535432
11
2.4789370078740158
21
3.2141732283464566
0
LINE
8
BLACK
6
CONTINUOUS
10
2.7275
20
3.2450000000000001
11
2.6724999999999999
21
3.2450000000000001
0
LINE
8
BLACK
6
CONTINUOUS
10
2.6724999999999999
20
3.2450000000000001
11
2.6724999999999999
21
3.2799999999999998
0
LINE
8
BLACK
6
CONTINUOUS
10
2.6724999999999999
20
3.2799999999999998
11
2.7275
21
3.2799999999999998
0
LINE
8
BLACK
6
CONTINUOUS
10
2.7275
20
3.2799999999999998
11
2.7275
21
3.2450000000000001
0
LINE
8
BLACK
6
CONTINUOUS
10
2.8275000000000001
20
3.2450000000000001
11
2.7725
21
3.2450000000000001
0
LINE
8
BLACK
6
CONTINUOUS
10
2.7725
20
3.2450000000000001
11
2.7725
21
3.2799999999999998
0
LINE
8
BLACK
6
CONTINUOUS
10
2.7725
20
3.2799999999999998
11
2.8275000000000001
21
3.2799999999999998
0
LINE
8
BLACK
6
CONTINUOUS
10
2.8275000000000001
20
3.2799999999999998
11
2.8275000000000001
21
3.2450000000000001
0
LINE
8
BLACK
6
CONTINUOUS
10
2.0301181102362205
20
3.2456692913385825
11
1.9710629921259841
21
3.2456692913385825
0
LINE
8
BLACK
6
CONTINUOUS
10
1.9710629921259841
20
3.2456692913385825
11
1.9710629921259841
21
3.2673228346456691
0
LINE
8
BLACK
6
CONTINUOUS
10
1.9710629921259841
20
3.2673228346456691
11
2.0301181102362205
21
3.2673228346456691
0
LINE
8
BLACK
6
CONTINUOUS
10
2.0301181102362205
20
3.2673228346456691
11
2.0301181102362205
21
3.2456692913385825
0
LINE
8
BLACK
6
CONTINUOUS
10
2.4789370078740158
20
3.2456692913385825
11
2.4198818897637793
21
3.2456692913385825
0
LINE
8
BLACK
6
CONTINUOUS
10
2.4198818897637793
20
3.2456692913385825
11
2.4198818897637793
21
3.2673228346456691
0
LINE
8
BLACK
6
CONTINUOUS
10
2.4198818897637793
20
3.2673228346456691
11
2.4789370078740158
21
3.2673228346456691
0
LINE
8
BLACK
6
CONTINUOUS
10
2.4789370078740158
20
3.2673228346456691
11
2.4789370078740158
21
3.2456692913385825
0
LINE
8
BLACK
6
CONTINUOUS
10
2.6274999999999999
20
3.2574999999999998
11
2.5724999999999998
21
3.2574999999999998
0
LINE
8
BLACK
6
CONTINUOUS
10
2.5724999999999998
20
3.2574999999999998
11
2.5724999999999998
21
3.2925
0
LINE
8
BLACK
6
CONTINUOUS
10
2.5724999999999998
20
3.2925
11
2.6274999999999999
21
3.2925
0
LINE
8
BLACK
6
CONTINUOUS
10
2.6274999999999999
20
3.2925
11
2.6274999999999999
21
3.2574999999999998
0
LINE
8
BLACK
6
CONTINUOUS
10
1.6025
20
3.27
11
1.5474999999999999
21
3.27
0
LINE
8
BLACK
6
CONTINUOUS
10
1.5474999999999999
20
3.27
11
1.5474999999999999
21
3.3049999999999997
0
LINE
8
BLACK
6
CONTINUOUS
10
1.5474999999999999
20
3.3049999999999997
11
1.6025
21
3.3049999999999997
0
LINE
8
BLACK
6
CONTINUOUS
10
1.6025
20
3.3049999999999997
11
1.6025
21
3.27
0
LINE
8
BLACK
6
CONTINUOUS
10
1.7024999999999999
20
3.27
11
1.6475
21
3.27
0
LINE
8
BLACK
6
CONTINUOUS
10
1.6475
20
3.27
11
1.6475
21
3.3049999999999997
0
LINE
8
BLACK
6
CONTINUOUS
10
1.6475
20
3.3049999999999997
11
1.7024999999999999
21
3.3049999999999997
0
LINE
8
BLACK
6
CONTINUOUS
10
1.7024999999999999
20
3.3049999999999997
11
1.7024999999999999
21
3.27
0
LINE
8
BLACK
6
CONTINUOUS
10
2.0301181102362205
20
3.2771653543307084
11
1.9710629921259841
21
3.2771653543307084
0
LINE
8
BLACK
6
CONTINUOUS
10
1.9710629921259841
20
3.2771653543307084
11
1.9710629921259841
21
3.298818897637795
0
LINE
8
BLACK
6
CONTINUOUS
10
1.9710629921259841
20
3.298818897637795
11
2.0301181102362205
21
3.298818897637795
0
LINE
8
BLACK
6
CONTINUOUS
10
2.0301181102362205
20
3.298818897637795
11
2.0301181102362205
21
3.2771653543307084
0
LINE
8
BLACK
6
CONTINUOUS
10
2.4789370078740158
20
3.2771653543307084
11
2.4198818897637793
21
3.2771653543307084
0
LINE
8
BLACK
6
CONTINUOUS
10
2.4198818897637793
20
3.2771653543307084
11
2.4198818897637793
21
3.298818897637795
0
LINE
8
BLACK
6
CONTINUOUS
10
2.4198818897637793
20
3.298818897637795
11
2.4789370078740158
21
3.298818897637795
0
LINE
8
BLACK
6
CONTINUOUS
10
2.4789370078740158
20
3.298818897637795
11
2.4789370078740158
21
3.2771653543307084
0
LINE
8
BLACK
6
CONTINUOUS
10
1.3149999999999999
20
3.2949999999999999
11
1.26
21
3.2949999999999999
0
LINE
8
BLACK
6
CONTINUOUS
10
1.26
20
3.2949999999999999
11
1.26
21
3.3300000000000001
0
LINE
8
BLACK
6
CONTINUOUS
10
1.26
20
3.3300000000000001
11
1.3149999999999999
21
3.3300000000000001
0
LINE
8
BLACK
6
CONTINUOUS
10
1.3149999999999999
20
3.3300000000000001
11
1.3149999999999999
21
3.2949999999999999
0
LINE
8
BLACK
6
CONTINUOUS
10
2.0301181102362205
20
3.3086614173228344
11
1.9710629921259841
21
3.3086614173228344
0
LINE
8
BLACK
6
CONTINUOUS
10
1.9710629921259841
20
3.3086614173228344
11
1.9710629921259841
21
3.3303149606299214
0
LINE
8
BLACK
6
CONTINUOUS
10
1.9710629921259841
20
3.3303149606299214
11
2.0301181102362205
21
3.3303149606299214
0
LINE
8
BLACK
6
CONTINUOUS
10
2.0301181102362205
20
3.3303149606299214
11
2.0301181102362205
21
3.3086614173228344
0
LINE
8
BLACK
6
CONTINUOUS
10
2.4789370078740158
20
3.3086614173228344
11
2.4198818897637793
21
3.3086614173228344
0
LINE
8
BLACK
6
CONTINUOUS
10
2.4198818897637793
20
3.3086614173228344
11
2.4198818897637793
21
3.3303149606299214
0
LINE
8
BLACK
6
CONTINUOUS
10
2.4198818897637793
20
3.3303149606299214
11
2.4789370078740158
21
3.3303149606299214
0
LINE
8
BLACK
6
CONTINUOUS
10
2.4789370078740158
20
3.3303149606299214
11
2.4789370078740158
21
3.3086614173228344
0
LINE
8
BLACK
6
CONTINUOUS
10
1.2089566929133857
20
3.3093503937007873
11
1.173523622047244
21
3.3093503937007873
0
LINE
8
BLACK
6
CONTINUOUS
10
1.173523622047244
20
3.3093503937007873
11
1.173523622047244
21
3.3408464566929132
0
LINE
8
BLACK
6
CONTINUOUS
10
1.173523622047244
20
3.3408464566929132
11
1.2089566929133857
21
3.3408464566929132
0
LINE
8
BLACK
6
CONTINUOUS
10
1.2089566929133857
20
3.3408464566929132
11
1.2089566929133857
21
3.3093503937007873
0
LINE
8
BLACK
6
CONTINUOUS
10
1.4158464566929134
20
3.3093503937007873
11
1.3804133858267715
21
3.3093503937007873
0
LINE
8
BLACK
6
CONTINUOUS
10
1.3804133858267715
20
3.3093503937007873
11
1.3804133858267715
21
3.3408464566929132
0
LINE
8
BLACK
6
CONTINUOUS
10
1.3804133858267715
20
3.3408464566929132
11
1.4158464566929134
21
3.3408464566929132
0
LINE
8
BLACK
6
CONTINUOUS
10
1.4158464566929134
20
3.3408464566929132
11
1.4158464566929134
21
3.3093503937007873
0
LINE
8
BLACK
6
CONTINUOUS
10
2.7275
20
3.3199999999999998
11
2.6724999999999999
21
3.3199999999999998
0
LINE
8
BLACK
6
CONTINUOUS
10
2.6724999999999999
20
3.3199999999999998
11
2.6724999999999999
21
3.355
0
LINE
8
BLACK
6
CONTINUOUS
10
2.6724999999999999
20
3.355
11
2.7275
21
3.355
0
LINE
8
BLACK
6
CONTINUOUS
10
2.7275
20
3.355
11
2.7275
21
3.3199999999999998
0
LINE
8
BLACK
6
CONTINUOUS
10
2.8275000000000001
20
3.3199999999999998
11
2.7725
21
3.3199999999999998
0
LINE
8
BLACK
6
CONTINUOUS
10
2.7725
20
3.3199999999999998
11
2.7725
21
3.355
0
LINE
8
BLACK
6
CONTINUOUS
10
2.7725
20
3.355
11
2.8275000000000001
21
3.355
0
LINE
8
BLACK
6
CONTINUOUS
10
2.8275000000000001
20
3.355
11
2.8275000000000001
21
3.3199999999999998
0
LINE
8
BLACK
6
CONTINUOUS
10
2.0301181102362205
20
3.3401574803149607
11
1.9710629921259841
21
3.3401574803149607
0
LINE
8
BLACK
6
CONTINUOUS
10
1.9710629921259841
20
3.3401574803149607
11
1.9710629921259841
21
3.3618110236220473
0
LINE
8
BLACK
6
CONTINUOUS
10
1.9710629921259841
20
3.3618110236220473
11
2.0301181102362205
21
3.3618110236220473
0
LINE
8
BLACK
6
CONTINUOUS
10
2.0301181102362205
20
3.3618110236220473
11
2.0301181102362205
21
3.3401574803149607
0
LINE
8
BLACK
6
CONTINUOUS
10
2.4789370078740158
20
3.3401574803149607
11
2.4198818897637793
21
3.3401574803149607
0
LINE
8
BLACK
6
CONTINUOUS
10
2.4198818897637793
20
3.3401574803149607
11
2.4198818897637793
21
3.3618110236220473
0
LINE
8
BLACK
6
CONTINUOUS
10
2.4198818897637793
20
3.3618110236220473
11
2.4789370078740158
21
3.3618110236220473
0
LINE
8
BLACK
6
CONTINUOUS
10
2.4789370078740158
20
3.3618110236220473
11
2.4789370078740158
21
3.3401574803149607
0
LINE
8
BLACK
6
CONTINUOUS
10
1.1302165354330709
20
3.3467519685039369
11
1.0947834645669292
21
3.3467519685039369
0
LINE
8
BLACK
6
CONTINUOUS
10
1.0947834645669292
20
3.3467519685039369
11
1.0947834645669292
21
3.3782480314960628
0
LINE
8
BLACK
6
CONTINUOUS
10
1.0947834645669292
20
3.3782480314960628
11
1.1302165354330709
21
3.3782480314960628
0
LINE
8
BLACK
6
CONTINUOUS
10
1.1302165354330709
20
3.3782480314960628
11
1.1302165354330709
21
3.3467519685039369
0
LINE
8
BLACK
6
CONTINUOUS
10
1.4945866141732282
20
3.3467519685039369
11
1.4591535433070866
21
3.3467519685039369
0
LINE
8
BLACK
6
CONTINUOUS
10
1.4591535433070866
20
3.3467519685039369
11
1.4591535433070866
21
3.3782480314960628
0
LINE
8
BLACK
6
CONTINUOUS
10
1.4591535433070866
20
3.3782480314960628
11
1.4945866141732282
21
3.3782480314960628
0
LINE
8
BLACK
6
CONTINUOUS
10
1.4945866141732282
20
3.3782480314960628
11
1.4945866141732282
21
3.3467519685039369
0
LINE
8
BLACK
6
CONTINUOUS
10
1.3149999999999999
20
3.3700000000000001
11
1.26
21
3.3700000000000001
0
LINE
8
BLACK
6
CONTINUOUS
10
1.26
20
3.3700000000000001
11
1.26
21
3.4049999999999998
0
LINE
8
BLACK
6
CONTINUOUS
10
1.26
20
3.4049999999999998
11
1.3149999999999999
21
3.4049999999999998
0
LINE
8
BLACK
6
CONTINUOUS
10
1.3149999999999999
20
3.4049999999999998
11
1.3149999999999999
21
3.3700000000000001
0
LINE
8
BLACK
6
CONTINUOUS
10
2.0301181102362205
20
3.3716535433070867
11
1.9710629921259841
21
3.3716535433070867
0
LINE
8
BLACK
6
CONTINUOUS
10
1.9710629921259841
20
3.3716535433070867
11
1.9710629921259841
21
3.3933070866141732
0
LINE
8
BLACK
6
CONTINUOUS
10
1.9710629921259841
20
3.3933070866141732
11
2.0301181102362205
21
3.3933070866141732
0
LINE
8
BLACK
6
CONTINUOUS
10
2.0301181102362205
20
3.3933070866141732
11
2.0301181102362205
21
3.3716535433070867
0
LINE
8
BLACK
6
CONTINUOUS
10
2.4789370078740158
20
3.3716535433070867
11
2.4198818897637793
21
3.3716535433070867
0
LINE
8
BLACK
6
CONTINUOUS
10
2.4198818897637793
20
3.3716535433070867
11
2.4198818897637793
21
3.3933070866141732
0
LINE
8
BLACK
6
CONTINUOUS
10
2.4198818897637793
20
3.3933070866141732
11
2.4789370078740158
21
3.3933070866141732
0
LINE
8
BLACK
6
CONTINUOUS
10
2.4789370078740158
20
3.3933070866141732
11
2.4789370078740158
21
3.3716535433070867
0
LINE
8
BLACK
6
CONTINUOUS
10
1.2089566929133857
20
3.3841535433070864
11
1.173523622047244
21
3.3841535433070864
0
LINE
8
BLACK
6
CONTINUOUS
10
1.173523622047244
20
3.3841535433070864
11
1.173523622047244
21
3.4156496062992123
0
LINE
8
BLACK
6
CONTINUOUS
10
1.173523622047244
20
3.4156496062992123
11
1.2089566929133857
21
3.4156496062992123
0
LINE
8
BLACK
6
CONTINUOUS
10
1.2089566929133857
20
3.4156496062992123
11
1.2089566929133857
21
3.3841535433070864
0
LINE
8
BLACK
6
CONTINUOUS
10
1.4158464566929134
20
3.3841535433070864
11
1.3804133858267715
21
3.3841535433070864
0
LINE
8
BLACK
6
CONTINUOUS
10
1.3804133858267715
20
3.3841535433070864
11
1.3804133858267715
21
3.4156496062992123
0
LINE
8
BLACK
6
CONTINUOUS
10
1.3804133858267715
20
3.4156496062992123
11
1.4158464566929134
21
3.4156496062992123
0
LINE
8
BLACK
6
CONTINUOUS
10
1.4158464566929134
20
3.4156496062992123
11
1.4158464566929134
21
3.3841535433070864
0
LINE
8
BLACK
6
CONTINUOUS
10
2.0783464566929135
20
3.4198818897637793
11
2.0566929133858269
21
3.4198818897637793
0
LINE
8
BLACK
6
CONTINUOUS
10
2.0566929133858269
20
3.4198818897637793
11
2.0566929133858269
21
3.4789370078740158
0
LINE
8
BLACK
6
CONTINUOUS
10
2.0566929133858269
20
3.4789370078740158
11
2.0783464566929135
21
3.4789370078740158
0
LINE
8
BLACK
6
CONTINUOUS
10
2.0783464566929135
20
3.4789370078740158
11
2.0783464566929135
21
3.4198818897637793
0
LINE
8
BLACK
6
CONTINUOUS
10
2.1098425196850394
20
3.4198818897637793
11
2.0881889763779529
21
3.4198818897637793
0
LINE
8
BLACK
6
CONTINUOUS
10
2.0881889763779529
20
3.4198818897637793
11
2.0881889763779529
21
3.4789370078740158
0
LINE
8
BLACK
6
CONTINUOUS
10
2.0881889763779529
20
3.4789370078740158
11
2.1098425196850394
21
3.4789370078740158
0
LINE
8
BLACK
6
CONTINUOUS
10
2.1098425196850394
20
3.4789370078740158
11
2.1098425196850394
21
3.4198818897637793
0
LINE
8
BLACK
6
CONTINUOUS
10
2.1413385826771654
20
3.4198818897637793
11
2.1196850393700788
21
3.4198818897637793
0
LINE
8
BLACK
6
CONTINUOUS
10
2.1196850393700788
20
3.4198818897637793
11
2.1196850393700788
21
3.4789370078740158
0
LINE
8
BLACK
6
CONTINUOUS
10
2.1196850393700788
20
3.4789370078740158
11
2.1413385826771654
21
3.4789370078740158
0
LINE
8
BLACK
6
CONTINUOUS
10
2.1413385826771654
20
3.4789370078740158
11
2.1413385826771654
21
3.4198818897637793
0
LINE
8
BLACK
6
CONTINUOUS
10
2.1728346456692913
20
3.4198818897637793
11
2.1511811023622047
21
3.4198818897637793
0
LINE
8
BLACK
6
CONTINUOUS
10
2.1511811023622047
20
3.4198818897637793
11
2.1511811023622047
21
3.4789370078740158
0
LINE
8
BLACK
6
CONTINUOUS
10
2.1511811023622047
20
3.4789370078740158
11
2.1728346456692913
21
3.4789370078740158
0
LINE
8
BLACK
6
CONTINUOUS
10
2.1728346456692913
20
3.4789370078740158
11
2.1728346456692913
21
3.4198818897637793
0
LINE
8
BLACK
6
CONTINUOUS
10
2.2043307086614172
20
3.4198818897637793
11
2.1826771653543307
21
3.4198818897637793
0
LINE
8
BLACK
6
CONTINUOUS
10
2.1826771653543307
20
3.4198818897637793
11
2.1826771653543307
21
3.4789370078740158
0
LINE
8
BLACK
6
CONTINUOUS
10
2.1826771653543307
20
3.4789370078740158
11
2.2043307086614172
21
3.4789370078740158
0
LINE
8
BLACK
6
CONTINUOUS
10
2.2043307086614172
20
3.4789370078740158
11
2.2043307086614172
21
3.4198818897637793
0
LINE
8
BLACK
6
CONTINUOUS
10
2.2358267716535432
20
3.4198818897637793
11
2.2141732283464566
21
3.4198818897637793
0
LINE
8
BLACK
6
CONTINUOUS
10
2.2141732283464566
20
3.4198818897637793
11
2.2141732283464566
21
3.4789370078740158
0
LINE
8
BLACK
6
CONTINUOUS
10
2.2141732283464566
20
3.4789370078740158
11
2.2358267716535432
21
3.4789370078740158
0
LINE
8
BLACK
6
CONTINUOUS
10
2.2358267716535432
20
3.4789370078740158
11
2.2358267716535432
21
3.4198818897637793
0
LINE
8
BLACK
6
CONTINUOUS
10
2.2673228346456691
20
3.4198818897637793
11
2.2456692913385825
21
3.4198818897637793
0
LINE
8
BLACK
6
CONTINUOUS
10
2.2456692913385825
20
3.4198818897637793
11
2.2456692913385825
21
3.4789370078740158
0
LINE
8
BLACK
6
CONTINUOUS
10
2.2456692913385825
20
3.4789370078740158
11
2.2673228346456691
21
3.4789370078740158
0
LINE
8
BLACK
6
CONTINUOUS
10
2.2673228346456691
20
3.4789370078740158
11
2.2673228346456691
21
3.4198818897637793
0
LINE
8
BLACK
6
CONTINUOUS
10
2.298818897637795
20
3.4198818897637793
11
2.2771653543307084
21
3.4198818897637793
0
LINE
8
BLACK
6
CONTINUOUS
10
2.2771653543307084
20
3.4198818897637793
11
2.2771653543307084
21
3.4789370078740158
0
LINE
8
BLACK
6
CONTINUOUS
10
2.2771653543307084
20
3.4789370078740158
11
2.298818897637795
21
3.4789370078740158
0
LINE
8
BLACK
6
CONTINUOUS
10
2.298818897637795
20
3.4789370078740158
11
2.298818897637795
21
3.4198818897637793
0
LINE
8
BLACK
6
CONTINUOUS
10
2.3303149606299214
20
3.4198818897637793
11
2.3086614173228348
21
3.4198818897637793
0
LINE
8
BLACK
6
CONTINUOUS
10
2.3086614173228348
20
3.4198818897637793
11
2.3086614173228348
21
3.4789370078740158
0
LINE
8
BLACK
6
CONTINUOUS
10
2.3086614173228348
20
3.4789370078740158
11
2.3303149606299214
21
3.4789370078740158
0
LINE
8
BLACK
6
CONTINUOUS
10
2.3303149606299214
20
3.4789370078740158
11
2.3303149606299214
21
3.4198818897637793
0
LINE
8
BLACK
6
CONTINUOUS
10
2.3618110236220473
20
3.4198818897637793
11
2.3401574803149607
21
3.4198818897637793
0
LINE
8
BLACK
6
CONTINUOUS
10
2.3401574803149607
20
3.4198818897637793
11
2.3401574803149607
21
3.4789370078740158
0
LINE
8
BLACK
6
CONTINUOUS
10
2.3401574803149607
20
3.4789370078740158
11
2.3618110236220473
21
3.4789370078740158
0
LINE
8
BLACK
6
CONTINUOUS
10
2.3618110236220473
20
3.4789370078740158
11
2.3618110236220473
21
3.4198818897637793
0
LINE
8
BLACK
6
CONTINUOUS
10
2.3933070866141732
20
3.4198818897637793
11
2.3716535433070867
21
3.4198818897637793
0
LINE
8
BLACK
6
CONTINUOUS
10
2.3716535433070867
20
3.4198818897637793
11
2.3716535433070867
21
3.4789370078740158
0
LINE
8
BLACK
6
CONTINUOUS
10
2.3716535433070867
20
3.4789370078740158
11
2.3933070866141732
21
3.4789370078740158
0
LINE
8
BLACK
6
CONTINUOUS
10
2.3933070866141732
20
3.4789370078740158
11
2.3933070866141732
21
3.4198818897637793
0
LINE
8
BLACK
6
CONTINUOUS
10
1.4299999999999999
20
3.4474999999999998
11
1.395
21
3.4474999999999998
0
LINE
8
BLACK
6
CONTINUOUS
10
1.395
20
3.4474999999999998
11
1.395
21
3.5024999999999999
0
LINE
8
BLACK
6
CONTINUOUS
10
1.395
20
3.5024999999999999
11
1.4299999999999999
21
3.5024999999999999
0
LINE
8
BLACK
6
CONTINUOUS
10
1.4299999999999999
20
3.5024999999999999
11
1.4299999999999999
21
3.4474999999999998
0
LINE
8
BLACK
6
CONTINUOUS
10
1.5049999999999999
20
3.4474999999999998
11
1.47
21
3.4474999999999998
0
LINE
8
BLACK
6
CONTINUOUS
10
1.47
20
3.4474999999999998
11
1.47
21
3.5024999999999999
0
LINE
8
BLACK
6
CONTINUOUS
10
1.47
20
3.5024999999999999
11
1.5049999999999999
21
3.5024999999999999
0
LINE
8
BLACK
6
CONTINUOUS
10
1.5049999999999999
20
3.5024999999999999
11
1.5049999999999999
21
3.4474999999999998
0
LINE
8
BLACK
6
CONTINUOUS
10
2.2174999999999998
20
3.5225
11
2.1825000000000001
21
3.5225
0
LINE
8
BLACK
6
CONTINUOUS
10
2.1825000000000001
20
3.5225
11
2.1825000000000001
21
3.5775000000000001
0
LINE
8
BLACK
6
CONTINUOUS
10
2.1825000000000001
20
3.5775000000000001
11
2.2174999999999998
21
3.5775000000000001
0
LINE
8
BLACK
6
CONTINUOUS
10
2.2174999999999998
20
3.5775000000000001
11
2.2174999999999998
21
3.5225
0
LINE
8
BLACK
6
CONTINUOUS
10
2.2925
20
3.5225
11
2.2574999999999998
21
3.5225
0
LINE
8
BLACK
6
CONTINUOUS
10
2.2574999999999998
20
3.5225
11
2.2574999999999998
21
3.5775000000000001
0
LINE
8
BLACK
6
CONTINUOUS
10
2.2574999999999998
20
3.5775000000000001
11
2.2925
21
3.5775000000000001
0
LINE
8
BLACK
6
CONTINUOUS
10
2.2925
20
3.5775000000000001
11
2.2925
21
3.5225
  0
ENDSEC
  0
EOF
