  0
SECTION
  2
HEADER
  9
$ANGBASE
  50
0.0
  9
$ANGDIR
  70
1
  9
$MEASUREMENT
  70
0
  0
ENDSEC
  0
SECTION
  2
TABLES
  0
TABLE
  2
LTYPE
  70
4
  0
LTYPE
  5
40F
  2
CONTINUOUS
  70
0
  3
Solid line
  72
65
  73
0
  40
0.0
  0
LTYPE
  5
410
  2
DASHDOT
 70
0
  3
Dash Dot ____ _ ____ _
 72
65
 73
4
 40
2.0
 49
1.25
 49
-0.25
 49
0.25
 49
-0.25
  0
LTYPE
  5
411
  2
DASHED
 70
0
  3
Dashed __ __ __ __ __
 72
65
 73
2
 40
0.75
 49
0.5
 49
-0.25
  0
LTYPE
  5
43B
  2
DOTTED
 70
0
  3
Dotted .  .  .  .
 72
65
 73
2
 40
0.2
 49
0.0
 49
-0.2
  0
ENDTAB
  0
TABLE
  2
STYLE
  70
4
  0
STYLE
  2
KICAD
  70
0
  40
0
  41
1
  42
1
  50
0
  71
0
  3
isocp.shx
  0
STYLE
  2
KICADB
  70
0
  40
0
  41
1
  42
1
  50
0
  71
0
  3
isocp.shx
  0
STYLE
  2
KICADI
  70
0
  40
0
  41
1
  42
1
  50
15
  71
0
  3
isocp.shx
  0
STYLE
  2
KICADBI
  70
0
  40
0
  41
1
  42
1
  50
15
  71
0
  3
isocp.shx
  0
ENDTAB
  0
TABLE
  2
LAYER
  70
1
  0
LAYER
  2
BLACK
  70
0
  62
7
  6
CONTINUOUS
  0
ENDTAB
  0
ENDSEC
  0
SECTION
  2
ENTITIES
0
LINE
8
BLACK
6
CONTINUOUS
10
0.2108097244094488
20
0.7118935826771653
11
0.2113424015748031
21
0.711360905511811
0
LINE
8
BLACK
6
CONTINUOUS
10
0.2113424015748031
20
0.711360905511811
11
0.2114173228346457
21
0.7109842519685039
0
LINE
8
BLACK
6
CONTINUOUS
10
0.2114173228346457
20
0.7109842519685039
11
0.2114173228346457
21
0.459015748031496
0
LINE
8
BLACK
6
CONTINUOUS
10
0.2114173228346457
20
0.459015748031496
11
0.2113424015748031
21
0.458639094488189
0
LINE
8
BLACK
6
CONTINUOUS
10
0.2113424015748031
20
0.458639094488189
11
0.2108097244094488
21
0.4581064173228346
0
LINE
8
BLACK
6
CONTINUOUS
10
0.2108097244094488
20
0.4581064173228346
11
0.2104330708661417
21
0.4580314960629921
0
LINE
8
BLACK
6
CONTINUOUS
10
0.2104330708661417
20
0.4580314960629921
11
-0.1612204724409449
21
0.4580314960629921
0
LINE
8
BLACK
6
CONTINUOUS
10
-0.1612204724409449
20
0.4580314960629921
11
-0.161597125984252
21
0.4581064173228346
0
LINE
8
BLACK
6
CONTINUOUS
10
-0.161597125984252
20
0.4581064173228346
11
-0.1621298031496063
21
0.458639094488189
0
LINE
8
BLACK
6
CONTINUOUS
10
-0.1621298031496063
20
0.458639094488189
11
-0.1622047244094488
21
0.459015748031496
0
LINE
8
BLACK
6
CONTINUOUS
10
-0.1622047244094488
20
0.459015748031496
11
-0.1622047244094488
21
0.7109842519685039
0
LINE
8
BLACK
6
CONTINUOUS
10
-0.1622047244094488
20
0.7109842519685039
11
-0.1621298031496063
21
0.711360905511811
0
LINE
8
BLACK
6
CONTINUOUS
10
-0.1621298031496063
20
0.711360905511811
11
-0.161597125984252
21
0.7118935826771653
0
LINE
8
BLACK
6
CONTINUOUS
10
-0.161597125984252
20
0.7118935826771653
11
-0.1612204724409449
21
0.7119685039370078
0
LINE
8
BLACK
6
CONTINUOUS
10
-0.1612204724409449
20
0.7119685039370078
11
0.2104330708661417
21
0.7119685039370078
0
LINE
8
BLACK
6
CONTINUOUS
10
0.2104330708661417
20
0.7119685039370078
11
0.2108097244094488
21
0.7118935826771653
0
LINE
8
BLACK
6
CONTINUOUS
10
-0.1602362204724409
20
0.71
11
-0.1602362204724409
21
0.46
0
LINE
8
BLACK
6
CONTINUOUS
10
-0.1602362204724409
20
0.46
11
0.2094488188976378
21
0.46
0
LINE
8
BLACK
6
CONTINUOUS
10
0.2094488188976378
20
0.46
11
0.2094488188976378
21
0.71
0
LINE
8
BLACK
6
CONTINUOUS
10
0.2094488188976378
20
0.71
11
-0.1602362204724409
21
0.71
0
LINE
8
BLACK
6
CONTINUOUS
10
0.7004160236220472
20
0.7118935826771653
11
0.7009487007874016
21
0.711360905511811
0
LINE
8
BLACK
6
CONTINUOUS
10
0.7009487007874016
20
0.711360905511811
11
0.7010236220472441
21
0.7109842519685039
0
LINE
8
BLACK
6
CONTINUOUS
10
0.7010236220472441
20
0.7109842519685039
11
0.7010236220472441
21
0.459015748031496
0
LINE
8
BLACK
6
CONTINUOUS
10
0.7010236220472441
20
0.459015748031496
11
0.7009487007874016
21
0.458639094488189
0
LINE
8
BLACK
6
CONTINUOUS
10
0.7009487007874016
20
0.458639094488189
11
0.7004160236220472
21
0.4581064173228346
0
LINE
8
BLACK
6
CONTINUOUS
10
0.7004160236220472
20
0.4581064173228346
11
0.7000393700787402
21
0.4580314960629921
0
LINE
8
BLACK
6
CONTINUOUS
10
0.7000393700787402
20
0.4580314960629921
11
0.2291732283464567
21
0.4580314960629921
0
LINE
8
BLACK
6
CONTINUOUS
10
0.2291732283464567
20
0.4580314960629921
11
0.2287965748031496
21
0.4581064173228346
0
LINE
8
BLACK
6
CONTINUOUS
10
0.2287965748031496
20
0.4581064173228346
11
0.2282638976377953
21
0.458639094488189
0
LINE
8
BLACK
6
CONTINUOUS
10
0.2282638976377953
20
0.458639094488189
11
0.2281889763779527
21
0.459015748031496
0
LINE
8
BLACK
6
CONTINUOUS
10
0.2281889763779527
20
0.459015748031496
11
0.2281889763779527
21
0.7109842519685039
0
LINE
8
BLACK
6
CONTINUOUS
10
0.2281889763779527
20
0.7109842519685039
11
0.2282638976377953
21
0.711360905511811
0
LINE
8
BLACK
6
CONTINUOUS
10
0.2282638976377953
20
0.711360905511811
11
0.2287965748031496
21
0.7118935826771653
0
LINE
8
BLACK
6
CONTINUOUS
10
0.2287965748031496
20
0.7118935826771653
11
0.2291732283464567
21
0.7119685039370078
0
LINE
8
BLACK
6
CONTINUOUS
10
0.2291732283464567
20
0.7119685039370078
11
0.7000393700787402
21
0.7119685039370078
0
LINE
8
BLACK
6
CONTINUOUS
10
0.7000393700787402
20
0.7119685039370078
11
0.7004160236220472
21
0.7118935826771653
0
LINE
8
BLACK
6
CONTINUOUS
10
0.2301574803149606
20
0.71
11
0.2301574803149606
21
0.46
0
LINE
8
BLACK
6
CONTINUOUS
10
0.2301574803149606
20
0.46
11
0.6990551181102362
21
0.46
0
LINE
8
BLACK
6
CONTINUOUS
10
0.6990551181102362
20
0.46
11
0.6990551181102362
21
0.71
0
LINE
8
BLACK
6
CONTINUOUS
10
0.6990551181102362
20
0.71
11
0.2301574803149606
21
0.71
0
LINE
8
BLACK
6
CONTINUOUS
10
1.099589251968504
20
0.7814605118110236
11
1.1001219291338582
21
0.7809278346456693
0
LINE
8
BLACK
6
CONTINUOUS
10
1.1001219291338582
20
0.7809278346456693
11
1.1001968503937007
21
0.7805511811023622
0
LINE
8
BLACK
6
CONTINUOUS
10
1.1001968503937007
20
0.7805511811023622
11
1.1001968503937007
21
0.5994488188976378
0
LINE
8
BLACK
6
CONTINUOUS
10
1.1001968503937007
20
0.5994488188976378
11
1.1001219291338582
21
0.5990721653543307
0
LINE
8
BLACK
6
CONTINUOUS
10
1.1001219291338582
20
0.5990721653543307
11
1.099589251968504
21
0.5985394881889764
0
LINE
8
BLACK
6
CONTINUOUS
10
1.099589251968504
20
0.5985394881889764
11
1.0992125984251968
21
0.5984645669291339
0
LINE
8
BLACK
6
CONTINUOUS
10
1.0992125984251968
20
0.5984645669291339
11
1.0007874015748031
21
0.5984645669291339
0
LINE
8
BLACK
6
CONTINUOUS
10
1.0007874015748031
20
0.5984645669291339
11
1.0004107480314961
21
0.5985394881889764
0
LINE
8
BLACK
6
CONTINUOUS
10
1.0004107480314961
20
0.5985394881889764
11
0.9998780708661417
21
0.5990721653543307
0
LINE
8
BLACK
6
CONTINUOUS
10
0.9998780708661417
20
0.5990721653543307
11
0.9998031496062992
21
0.5994488188976378
0
LINE
8
BLACK
6
CONTINUOUS
10
0.9998031496062992
20
0.5994488188976378
11
0.9998031496062992
21
0.7805511811023622
0
LINE
8
BLACK
6
CONTINUOUS
10
0.9998031496062992
20
0.7805511811023622
11
0.9998780708661417
21
0.7809278346456693
0
LINE
8
BLACK
6
CONTINUOUS
10
0.9998780708661417
20
0.7809278346456693
11
1.0004107480314961
21
0.7814605118110236
0
LINE
8
BLACK
6
CONTINUOUS
10
1.0004107480314961
20
0.7814605118110236
11
1.0007874015748031
21
0.7815354330708661
0
LINE
8
BLACK
6
CONTINUOUS
10
1.0007874015748031
20
0.7815354330708661
11
1.0992125984251968
21
0.7815354330708661
0
LINE
8
BLACK
6
CONTINUOUS
10
1.0992125984251968
20
0.7815354330708661
11
1.099589251968504
21
0.7814605118110236
0
LINE
8
BLACK
6
CONTINUOUS
10
1.001771653543307
20
0.7795669291338583
11
1.001771653543307
21
0.6004330708661417
0
LINE
8
BLACK
6
CONTINUOUS
10
1.001771653543307
20
0.6004330708661417
11
1.0982283464566929
21
0.6004330708661417
0
LINE
8
BLACK
6
CONTINUOUS
10
1.0982283464566929
20
0.6004330708661417
11
1.0982283464566929
21
0.7795669291338583
0
LINE
8
BLACK
6
CONTINUOUS
10
1.0982283464566929
20
0.7795669291338583
11
1.001771653543307
21
0.7795669291338583
0
LINE
8
BLACK
6
CONTINUOUS
10
1.5037559448818898
20
0.8862452755905511
11
1.5122077165354331
21
0.8839806299212598
0
LINE
8
BLACK
6
CONTINUOUS
10
1.5122077165354331
20
0.8839806299212598
11
1.5201377952755906
21
0.8802827559055117
0
LINE
8
BLACK
6
CONTINUOUS
10
1.5201377952755906
20
0.8802827559055117
11
1.5273052755905512
21
0.8752640551181102
0
LINE
8
BLACK
6
CONTINUOUS
10
1.5273052755905512
20
0.8752640551181102
11
1.533492401574803
21
0.8690769291338583
0
LINE
8
BLACK
6
CONTINUOUS
10
1.533492401574803
20
0.8690769291338583
11
1.5385111023622047
21
0.8619094488188976
0
LINE
8
BLACK
6
CONTINUOUS
10
1.5385111023622047
20
0.8619094488188976
11
1.5422089763779527
21
0.8539793700787401
0
LINE
8
BLACK
6
CONTINUOUS
10
1.5422089763779527
20
0.8539793700787401
11
1.5444736220472441
21
0.8455275984251969
0
LINE
8
BLACK
6
CONTINUOUS
10
1.5444736220472441
20
0.8455275984251969
11
1.5452362204724408
21
0.8368110236220472
0
LINE
8
BLACK
6
CONTINUOUS
10
1.5452362204724408
20
0.8368110236220472
11
1.5444736220472441
21
0.8280944488188976
0
LINE
8
BLACK
6
CONTINUOUS
10
1.5444736220472441
20
0.8280944488188976
11
1.5422089763779527
21
0.8196426771653543
0
LINE
8
BLACK
6
CONTINUOUS
10
1.5422089763779527
20
0.8196426771653543
11
1.5385111023622047
21
0.8117125984251968
0
LINE
8
BLACK
6
CONTINUOUS
10
1.5385111023622047
20
0.8117125984251968
11
1.533492401574803
21
0.8045451181102362
0
LINE
8
BLACK
6
CONTINUOUS
10
1.533492401574803
20
0.8045451181102362
11
1.5273052755905512
21
0.7983579921259842
0
LINE
8
BLACK
6
CONTINUOUS
10
1.5273052755905512
20
0.7983579921259842
11
1.5201377952755906
21
0.7933392913385826
0
LINE
8
BLACK
6
CONTINUOUS
10
1.5201377952755906
20
0.7933392913385826
11
1.5122077165354331
21
0.7896414173228347
0
LINE
8
BLACK
6
CONTINUOUS
10
1.5122077165354331
20
0.7896414173228347
11
1.5037559448818898
21
0.7873767716535433
0
LINE
8
BLACK
6
CONTINUOUS
10
1.5037559448818898
20
0.7873767716535433
11
1.4950393700787401
21
0.7866141732283465
0
LINE
8
BLACK
6
CONTINUOUS
10
1.4950393700787401
20
0.7866141732283465
11
1.4863227952755904
21
0.7873767716535433
0
LINE
8
BLACK
6
CONTINUOUS
10
1.4863227952755904
20
0.7873767716535433
11
1.4778710236220471
21
0.7896414173228347
0
LINE
8
BLACK
6
CONTINUOUS
10
1.4778710236220471
20
0.7896414173228347
11
1.4699409448818896
21
0.7933392913385826
0
LINE
8
BLACK
6
CONTINUOUS
10
1.4699409448818896
20
0.7933392913385826
11
1.462773464566929
21
0.7983579921259842
0
LINE
8
BLACK
6
CONTINUOUS
10
1.462773464566929
20
0.7983579921259842
11
1.4565863385826772
21
0.8045451181102362
0
LINE
8
BLACK
6
CONTINUOUS
10
1.4565863385826772
20
0.8045451181102362
11
1.4515676377952755
21
0.8117125984251968
0
LINE
8
BLACK
6
CONTINUOUS
10
1.4515676377952755
20
0.8117125984251968
11
1.4478697637795275
21
0.8196426771653543
0
LINE
8
BLACK
6
CONTINUOUS
10
1.4478697637795275
20
0.8196426771653543
11
1.4456051181102363
21
0.8280944488188976
0
LINE
8
BLACK
6
CONTINUOUS
10
1.4456051181102363
20
0.8280944488188976
11
1.4448425196850394
21
0.8368110236220472
0
LINE
8
BLACK
6
CONTINUOUS
10
1.4448425196850394
20
0.8368110236220472
11
1.4456051181102363
21
0.8455275984251969
0
LINE
8
BLACK
6
CONTINUOUS
10
1.4456051181102363
20
0.8455275984251969
11
1.4478697637795275
21
0.8539793700787401
0
LINE
8
BLACK
6
CONTINUOUS
10
1.4478697637795275
20
0.8539793700787401
11
1.4515676377952755
21
0.8619094488188976
0
LINE
8
BLACK
6
CONTINUOUS
10
1.4515676377952755
20
0.8619094488188976
11
1.4565863385826772
21
0.8690769291338583
0
LINE
8
BLACK
6
CONTINUOUS
10
1.4565863385826772
20
0.8690769291338583
11
1.462773464566929
21
0.8752640551181102
0
LINE
8
BLACK
6
CONTINUOUS
10
1.462773464566929
20
0.8752640551181102
11
1.4699409448818896
21
0.8802827559055117
0
LINE
8
BLACK
6
CONTINUOUS
10
1.4699409448818896
20
0.8802827559055117
11
1.4778710236220471
21
0.8839806299212598
0
LINE
8
BLACK
6
CONTINUOUS
10
1.4778710236220471
20
0.8839806299212598
11
1.4863227952755904
21
0.8862452755905511
0
LINE
8
BLACK
6
CONTINUOUS
10
1.4863227952755904
20
0.8862452755905511
11
1.4950393700787401
21
0.887007874015748
0
LINE
8
BLACK
6
CONTINUOUS
10
1.4950393700787401
20
0.887007874015748
11
1.5037559448818898
21
0.8862452755905511
0
LINE
8
BLACK
6
CONTINUOUS
10
1.4473623228346457
20
0.8284042519685039
11
1.4495464566929133
21
0.8202529527559055
0
LINE
8
BLACK
6
CONTINUOUS
10
1.4495464566929133
20
0.8202529527559055
11
1.453112874015748
21
0.8126047244094488
0
LINE
8
BLACK
6
CONTINUOUS
10
1.453112874015748
20
0.8126047244094488
11
1.4579531889763779
21
0.8056920472440945
0
LINE
8
BLACK
6
CONTINUOUS
10
1.4579531889763779
20
0.8056920472440945
11
1.4639203937007874
21
0.799724842519685
0
LINE
8
BLACK
6
CONTINUOUS
10
1.4639203937007874
20
0.799724842519685
11
1.4708330708661417
21
0.7948845275590551
0
LINE
8
BLACK
6
CONTINUOUS
10
1.4708330708661417
20
0.7948845275590551
11
1.4784812992125984
21
0.7913181102362205
0
LINE
8
BLACK
6
CONTINUOUS
10
1.4784812992125984
20
0.7913181102362205
11
1.4866325984251969
21
0.7891339763779527
0
LINE
8
BLACK
6
CONTINUOUS
10
1.4866325984251969
20
0.7891339763779527
11
1.4950393700787401
21
0.7883984645669291
0
LINE
8
BLACK
6
CONTINUOUS
10
1.4950393700787401
20
0.7883984645669291
11
1.5034461417322835
21
0.7891339763779527
0
LINE
8
BLACK
6
CONTINUOUS
10
1.5034461417322835
20
0.7891339763779527
11
1.5115974409448818
21
0.7913181102362205
0
LINE
8
BLACK
6
CONTINUOUS
10
1.5115974409448818
20
0.7913181102362205
11
1.5192456692913385
21
0.7948845275590551
0
LINE
8
BLACK
6
CONTINUOUS
10
1.5192456692913385
20
0.7948845275590551
11
1.5261583464566928
21
0.799724842519685
0
LINE
8
BLACK
6
CONTINUOUS
10
1.5261583464566928
20
0.799724842519685
11
1.5321255511811023
21
0.8056920472440945
0
LINE
8
BLACK
6
CONTINUOUS
10
1.5321255511811023
20
0.8056920472440945
11
1.5369658661417323
21
0.8126047244094488
0
LINE
8
BLACK
6
CONTINUOUS
10
1.5369658661417323
20
0.8126047244094488
11
1.5405322834645669
21
0.8202529527559055
0
LINE
8
BLACK
6
CONTINUOUS
10
1.5405322834645669
20
0.8202529527559055
11
1.5427164173228347
21
0.8284042519685039
0
LINE
8
BLACK
6
CONTINUOUS
10
1.5427164173228347
20
0.8284042519685039
11
1.5434519291338582
21
0.8368110236220472
0
LINE
8
BLACK
6
CONTINUOUS
10
1.5434519291338582
20
0.8368110236220472
11
1.5427164173228347
21
0.8452177952755905
0
LINE
8
BLACK
6
CONTINUOUS
10
1.5427164173228347
20
0.8452177952755905
11
1.5405322834645669
21
0.853369094488189
0
LINE
8
BLACK
6
CONTINUOUS
10
1.5405322834645669
20
0.853369094488189
11
1.5369658661417323
21
0.861017283464567
0
LINE
8
BLACK
6
CONTINUOUS
10
1.5369658661417323
20
0.861017283464567
11
1.5321255511811023
21
0.86793
0
LINE
8
BLACK
6
CONTINUOUS
10
1.5321255511811023
20
0.86793
11
1.5261583464566928
21
0.8738972047244095
0
LINE
8
BLACK
6
CONTINUOUS
10
1.5261583464566928
20
0.8738972047244095
11
1.5192456692913385
21
0.8787375196850393
0
LINE
8
BLACK
6
CONTINUOUS
10
1.5192456692913385
20
0.8787375196850393
11
1.5115974409448818
21
0.882303937007874
0
LINE
8
BLACK
6
CONTINUOUS
10
1.5115974409448818
20
0.882303937007874
11
1.5034461417322835
21
0.8844880708661417
0
LINE
8
BLACK
6
CONTINUOUS
10
1.5034461417322835
20
0.8844880708661417
11
1.4950393700787401
21
0.8852235826771654
0
LINE
8
BLACK
6
CONTINUOUS
10
1.4950393700787401
20
0.8852235826771654
11
1.4866325984251969
21
0.8844880708661417
0
LINE
8
BLACK
6
CONTINUOUS
10
1.4866325984251969
20
0.8844880708661417
11
1.4784812992125984
21
0.882303937007874
0
LINE
8
BLACK
6
CONTINUOUS
10
1.4784812992125984
20
0.882303937007874
11
1.4708331102362204
21
0.8787375196850393
0
LINE
8
BLACK
6
CONTINUOUS
10
1.4708331102362204
20
0.8787375196850393
11
1.4639203937007874
21
0.8738972047244095
0
LINE
8
BLACK
6
CONTINUOUS
10
1.4639203937007874
20
0.8738972047244095
11
1.4579531889763779
21
0.86793
0
LINE
8
BLACK
6
CONTINUOUS
10
1.4579531889763779
20
0.86793
11
1.453112874015748
21
0.861017283464567
0
LINE
8
BLACK
6
CONTINUOUS
10
1.453112874015748
20
0.861017283464567
11
1.4495464566929133
21
0.853369094488189
0
LINE
8
BLACK
6
CONTINUOUS
10
1.4495464566929133
20
0.853369094488189
11
1.4473623228346457
21
0.8452177952755905
0
LINE
8
BLACK
6
CONTINUOUS
10
1.4473623228346457
20
0.8452177952755905
11
1.446626811023622
21
0.8368110236220472
0
LINE
8
BLACK
6
CONTINUOUS
10
1.446626811023622
20
0.8368110236220472
11
1.4473623228346457
21
0.8284042519685039
0
LINE
8
BLACK
6
CONTINUOUS
10
-1.1291902755905512
20
1.9526809842519686
11
-1.1286575984251968
21
1.9521483070866141
0
LINE
8
BLACK
6
CONTINUOUS
10
-1.1286575984251968
20
1.9521483070866141
11
-1.1285826771653542
21
1.951771653543307
0
LINE
8
BLACK
6
CONTINUOUS
10
-1.1285826771653542
20
1.951771653543307
11
-1.1285826771653542
21
0.7982283464566929
0
LINE
8
BLACK
6
CONTINUOUS
10
-1.1285826771653542
20
0.7982283464566929
11
-1.1286575984251968
21
0.7978516929133858
0
LINE
8
BLACK
6
CONTINUOUS
10
-1.1286575984251968
20
0.7978516929133858
11
-1.1291902755905512
21
0.7973190157480314
0
LINE
8
BLACK
6
CONTINUOUS
10
-1.1291902755905512
20
0.7973190157480314
11
-1.1295669291338581
21
0.797244094488189
0
LINE
8
BLACK
6
CONTINUOUS
10
-1.1295669291338581
20
0.797244094488189
11
-2.1791732283464564
21
0.797244094488189
0
LINE
8
BLACK
6
CONTINUOUS
10
-2.1791732283464564
20
0.797244094488189
11
-2.1795498818897636
21
0.7973190157480314
0
LINE
8
BLACK
6
CONTINUOUS
10
-2.1795498818897636
20
0.7973190157480314
11
-2.1800825590551183
21
0.7978516929133858
0
LINE
8
BLACK
6
CONTINUOUS
10
-2.1800825590551183
20
0.7978516929133858
11
-2.1801574803149606
21
0.7982283464566929
0
LINE
8
BLACK
6
CONTINUOUS
10
-2.1801574803149606
20
0.7982283464566929
11
-2.1801574803149606
21
1.951771653543307
0
LINE
8
BLACK
6
CONTINUOUS
10
-2.1801574803149606
20
1.951771653543307
11
-2.1800825590551183
21
1.9521483070866141
0
LINE
8
BLACK
6
CONTINUOUS
10
-2.1800825590551183
20
1.9521483070866141
11
-2.1795498818897636
21
1.9526809842519686
0
LINE
8
BLACK
6
CONTINUOUS
10
-2.1795498818897636
20
1.9526809842519686
11
-2.1791732283464564
21
1.9527559055118109
0
LINE
8
BLACK
6
CONTINUOUS
10
-2.1791732283464564
20
1.9527559055118109
11
-1.1295669291338581
21
1.9527559055118109
0
LINE
8
BLACK
6
CONTINUOUS
10
-1.1295669291338581
20
1.9527559055118109
11
-1.1291902755905512
21
1.9526809842519686
0
LINE
8
BLACK
6
CONTINUOUS
10
-2.1781889763779527
20
1.950787401574803
11
-2.1781889763779527
21
0.7992125984251969
0
LINE
8
BLACK
6
CONTINUOUS
10
-2.1781889763779527
20
0.7992125984251969
11
-1.1305511811023621
21
0.7992125984251969
0
LINE
8
BLACK
6
CONTINUOUS
10
-1.1305511811023621
20
0.7992125984251969
11
-1.1305511811023621
21
1.950787401574803
0
LINE
8
BLACK
6
CONTINUOUS
10
-1.1305511811023621
20
1.950787401574803
11
-2.1781889763779527
21
1.950787401574803
0
LINE
8
BLACK
6
CONTINUOUS
10
-0.7090721653543307
20
0.9551219291338583
11
-0.7085394881889764
21
0.9545892519685039
0
LINE
8
BLACK
6
CONTINUOUS
10
-0.7085394881889764
20
0.9545892519685039
11
-0.7084645669291338
21
0.9542125984251968
0
LINE
8
BLACK
6
CONTINUOUS
10
-0.7084645669291338
20
0.9542125984251968
11
-0.7084645669291338
21
0.8557874015748032
0
LINE
8
BLACK
6
CONTINUOUS
10
-0.7084645669291338
20
0.8557874015748032
11
-0.7085394881889764
21
0.8554107480314961
0
LINE
8
BLACK
6
CONTINUOUS
10
-0.7085394881889764
20
0.8554107480314961
11
-0.7090721653543307
21
0.8548780708661418
0
LINE
8
BLACK
6
CONTINUOUS
10
-0.7090721653543307
20
0.8548780708661418
11
-0.7094488188976378
21
0.8548031496062992
0
LINE
8
BLACK
6
CONTINUOUS
10
-0.7094488188976378
20
0.8548031496062992
11
-0.8905511811023622
21
0.8548031496062992
0
LINE
8
BLACK
6
CONTINUOUS
10
-0.8905511811023622
20
0.8548031496062992
11
-0.8909278346456693
21
0.8548780708661418
0
LINE
8
BLACK
6
CONTINUOUS
10
-0.8909278346456693
20
0.8548780708661418
11
-0.8914605118110236
21
0.8554107480314961
0
LINE
8
BLACK
6
CONTINUOUS
10
-0.8914605118110236
20
0.8554107480314961
11
-0.8915354330708661
21
0.8557874015748032
0
LINE
8
BLACK
6
CONTINUOUS
10
-0.8915354330708661
20
0.8557874015748032
11
-0.8915354330708661
21
0.9542125984251968
0
LINE
8
BLACK
6
CONTINUOUS
10
-0.8915354330708661
20
0.9542125984251968
11
-0.8914605118110236
21
0.9545892519685039
0
LINE
8
BLACK
6
CONTINUOUS
10
-0.8914605118110236
20
0.9545892519685039
11
-0.8909278346456693
21
0.9551219291338583
0
LINE
8
BLACK
6
CONTINUOUS
10
-0.8909278346456693
20
0.9551219291338583
11
-0.8905511811023622
21
0.9551968503937007
0
LINE
8
BLACK
6
CONTINUOUS
10
-0.8905511811023622
20
0.9551968503937007
11
-0.7094488188976378
21
0.9551968503937007
0
LINE
8
BLACK
6
CONTINUOUS
10
-0.7094488188976378
20
0.9551968503937007
11
-0.7090721653543307
21
0.9551219291338583
0
LINE
8
BLACK
6
CONTINUOUS
10
-0.8895669291338583
20
0.9532283464566929
11
-0.8895669291338583
21
0.8567716535433071
0
LINE
8
BLACK
6
CONTINUOUS
10
-0.8895669291338583
20
0.8567716535433071
11
-0.7104330708661417
21
0.8567716535433071
0
LINE
8
BLACK
6
CONTINUOUS
10
-0.7104330708661417
20
0.8567716535433071
11
-0.7104330708661417
21
0.9532283464566929
0
LINE
8
BLACK
6
CONTINUOUS
10
-0.7104330708661417
20
0.9532283464566929
11
-0.8895669291338583
21
0.9532283464566929
0
LINE
8
BLACK
6
CONTINUOUS
10
0.5297467322834646
20
1.0601219291338582
11
0.5302794094488189
21
1.059589251968504
0
LINE
8
BLACK
6
CONTINUOUS
10
0.5302794094488189
20
1.059589251968504
11
0.5303543307086614
21
1.0592125984251968
0
LINE
8
BLACK
6
CONTINUOUS
10
0.5303543307086614
20
1.0592125984251968
11
0.5303543307086614
21
0.9607874015748031
0
LINE
8
BLACK
6
CONTINUOUS
10
0.5303543307086614
20
0.9607874015748031
11
0.5302794094488189
21
0.9604107480314961
0
LINE
8
BLACK
6
CONTINUOUS
10
0.5302794094488189
20
0.9604107480314961
11
0.5297467322834646
21
0.9598780708661417
0
LINE
8
BLACK
6
CONTINUOUS
10
0.5297467322834646
20
0.9598780708661417
11
0.5293700787401575
21
0.9598031496062992
0
LINE
8
BLACK
6
CONTINUOUS
10
0.5293700787401575
20
0.9598031496062992
11
0.348267716535433
21
0.9598031496062992
0
LINE
8
BLACK
6
CONTINUOUS
10
0.348267716535433
20
0.9598031496062992
11
0.347891062992126
21
0.9598780708661417
0
LINE
8
BLACK
6
CONTINUOUS
10
0.347891062992126
20
0.9598780708661417
11
0.3473583858267716
21
0.9604107480314961
0
LINE
8
BLACK
6
CONTINUOUS
10
0.3473583858267716
20
0.9604107480314961
11
0.3472834645669291
21
0.9607874015748031
0
LINE
8
BLACK
6
CONTINUOUS
10
0.3472834645669291
20
0.9607874015748031
11
0.3472834645669291
21
1.0592125984251968
0
LINE
8
BLACK
6
CONTINUOUS
10
0.3472834645669291
20
1.0592125984251968
11
0.3473583858267716
21
1.059589251968504
0
LINE
8
BLACK
6
CONTINUOUS
10
0.3473583858267716
20
1.059589251968504
11
0.347891062992126
21
1.0601219291338582
0
LINE
8
BLACK
6
CONTINUOUS
10
0.347891062992126
20
1.0601219291338582
11
0.348267716535433
21
1.0601968503937007
0
LINE
8
BLACK
6
CONTINUOUS
10
0.348267716535433
20
1.0601968503937007
11
0.5293700787401575
21
1.0601968503937007
0
LINE
8
BLACK
6
CONTINUOUS
10
0.5293700787401575
20
1.0601968503937007
11
0.5297467322834646
21
1.0601219291338582
0
LINE
8
BLACK
6
CONTINUOUS
10
0.349251968503937
20
1.0582283464566928
11
0.349251968503937
21
0.9617716535433071
0
LINE
8
BLACK
6
CONTINUOUS
10
0.349251968503937
20
0.9617716535433071
11
0.5283858267716536
21
0.9617716535433071
0
LINE
8
BLACK
6
CONTINUOUS
10
0.5283858267716536
20
0.9617716535433071
11
0.5283858267716536
21
1.0582283464566928
0
LINE
8
BLACK
6
CONTINUOUS
10
0.5283858267716536
20
1.0582283464566928
11
0.349251968503937
21
1.0582283464566928
0
LINE
8
BLACK
6
CONTINUOUS
10
0.7409278346456692
20
1.0601219291338582
11
0.7414605118110236
21
1.059589251968504
0
LINE
8
BLACK
6
CONTINUOUS
10
0.7414605118110236
20
1.059589251968504
11
0.7415354330708661
21
1.0592125984251968
0
LINE
8
BLACK
6
CONTINUOUS
10
0.7415354330708661
20
1.0592125984251968
11
0.7415354330708661
21
0.9607874015748031
0
LINE
8
BLACK
6
CONTINUOUS
10
0.7415354330708661
20
0.9607874015748031
11
0.7414605118110236
21
0.9604107480314961
0
LINE
8
BLACK
6
CONTINUOUS
10
0.7414605118110236
20
0.9604107480314961
11
0.7409278346456692
21
0.9598780708661417
0
LINE
8
BLACK
6
CONTINUOUS
10
0.7409278346456692
20
0.9598780708661417
11
0.7405511811023622
21
0.9598031496062992
0
LINE
8
BLACK
6
CONTINUOUS
10
0.7405511811023622
20
0.9598031496062992
11
0.5594488188976378
21
0.9598031496062992
0
LINE
8
BLACK
6
CONTINUOUS
10
0.5594488188976378
20
0.9598031496062992
11
0.5590721653543307
21
0.9598780708661417
0
LINE
8
BLACK
6
CONTINUOUS
10
0.5590721653543307
20
0.9598780708661417
11
0.5585394881889764
21
0.9604107480314961
0
LINE
8
BLACK
6
CONTINUOUS
10
0.5585394881889764
20
0.9604107480314961
11
0.5584645669291338
21
0.9607874015748031
0
LINE
8
BLACK
6
CONTINUOUS
10
0.5584645669291338
20
0.9607874015748031
11
0.5584645669291338
21
1.0592125984251968
0
LINE
8
BLACK
6
CONTINUOUS
10
0.5584645669291338
20
1.0592125984251968
11
0.5585394881889764
21
1.059589251968504
0
LINE
8
BLACK
6
CONTINUOUS
10
0.5585394881889764
20
1.059589251968504
11
0.5590721653543307
21
1.0601219291338582
0
LINE
8
BLACK
6
CONTINUOUS
10
0.5590721653543307
20
1.0601219291338582
11
0.5594488188976378
21
1.0601968503937007
0
LINE
8
BLACK
6
CONTINUOUS
10
0.5594488188976378
20
1.0601968503937007
11
0.7405511811023622
21
1.0601968503937007
0
LINE
8
BLACK
6
CONTINUOUS
10
0.7405511811023622
20
1.0601968503937007
11
0.7409278346456692
21
1.0601219291338582
0
LINE
8
BLACK
6
CONTINUOUS
10
0.5604330708661417
20
1.0582283464566928
11
0.5604330708661417
21
0.9617716535433071
0
LINE
8
BLACK
6
CONTINUOUS
10
0.5604330708661417
20
0.9617716535433071
11
0.7395669291338582
21
0.9617716535433071
0
LINE
8
BLACK
6
CONTINUOUS
10
0.7395669291338582
20
0.9617716535433071
11
0.7395669291338582
21
1.0582283464566928
0
LINE
8
BLACK
6
CONTINUOUS
10
0.7395669291338582
20
1.0582283464566928
11
0.5604330708661417
21
1.0582283464566928
0
LINE
8
BLACK
6
CONTINUOUS
10
1.1045892519685039
20
1.1614605118110235
11
1.1051219291338583
21
1.1609278346456693
0
LINE
8
BLACK
6
CONTINUOUS
10
1.1051219291338583
20
1.1609278346456693
11
1.1051968503937009
21
1.1605511811023621
0
LINE
8
BLACK
6
CONTINUOUS
10
1.1051968503937009
20
1.1605511811023621
11
1.1051968503937009
21
0.9794488188976378
0
LINE
8
BLACK
6
CONTINUOUS
10
1.1051968503937009
20
0.9794488188976378
11
1.1051219291338583
21
0.9790721653543307
0
LINE
8
BLACK
6
CONTINUOUS
10
1.1051219291338583
20
0.9790721653543307
11
1.1045892519685039
21
0.9785394881889764
0
LINE
8
BLACK
6
CONTINUOUS
10
1.1045892519685039
20
0.9785394881889764
11
1.1042125984251969
21
0.9784645669291339
0
LINE
8
BLACK
6
CONTINUOUS
10
1.1042125984251969
20
0.9784645669291339
11
1.0057874015748032
21
0.9784645669291339
0
LINE
8
BLACK
6
CONTINUOUS
10
1.0057874015748032
20
0.9784645669291339
11
1.005410748031496
21
0.9785394881889764
0
LINE
8
BLACK
6
CONTINUOUS
10
1.005410748031496
20
0.9785394881889764
11
1.0048780708661418
21
0.9790721653543307
0
LINE
8
BLACK
6
CONTINUOUS
10
1.0048780708661418
20
0.9790721653543307
11
1.0048031496062992
21
0.9794488188976378
0
LINE
8
BLACK
6
CONTINUOUS
10
1.0048031496062992
20
0.9794488188976378
11
1.0048031496062992
21
1.1605511811023621
0
LINE
8
BLACK
6
CONTINUOUS
10
1.0048031496062992
20
1.1605511811023621
11
1.0048780708661418
21
1.1609278346456693
0
LINE
8
BLACK
6
CONTINUOUS
10
1.0048780708661418
20
1.1609278346456693
11
1.005410748031496
21
1.1614605118110235
0
LINE
8
BLACK
6
CONTINUOUS
10
1.005410748031496
20
1.1614605118110235
11
1.0057874015748032
21
1.161535433070866
0
LINE
8
BLACK
6
CONTINUOUS
10
1.0057874015748032
20
1.161535433070866
11
1.1042125984251969
21
1.161535433070866
0
LINE
8
BLACK
6
CONTINUOUS
10
1.1042125984251969
20
1.161535433070866
11
1.1045892519685039
21
1.1614605118110235
0
LINE
8
BLACK
6
CONTINUOUS
10
1.0067716535433071
20
1.1595669291338582
11
1.0067716535433071
21
0.9804330708661417
0
LINE
8
BLACK
6
CONTINUOUS
10
1.0067716535433071
20
0.9804330708661417
11
1.103228346456693
21
0.9804330708661417
0
LINE
8
BLACK
6
CONTINUOUS
10
1.103228346456693
20
0.9804330708661417
11
1.103228346456693
21
1.1595669291338582
0
LINE
8
BLACK
6
CONTINUOUS
10
1.103228346456693
20
1.1595669291338582
11
1.0067716535433071
21
1.1595669291338582
0
LINE
8
BLACK
6
CONTINUOUS
10
0.1697467322834646
20
1.2251219291338582
11
0.1702794094488189
21
1.224589251968504
0
LINE
8
BLACK
6
CONTINUOUS
10
0.1702794094488189
20
1.224589251968504
11
0.1703543307086614
21
1.2242125984251968
0
LINE
8
BLACK
6
CONTINUOUS
10
0.1703543307086614
20
1.2242125984251968
11
0.1703543307086614
21
1.1257874015748031
0
LINE
8
BLACK
6
CONTINUOUS
10
0.1703543307086614
20
1.1257874015748031
11
0.1702794094488189
21
1.1254107480314961
0
LINE
8
BLACK
6
CONTINUOUS
10
0.1702794094488189
20
1.1254107480314961
11
0.1697467322834646
21
1.1248780708661417
0
LINE
8
BLACK
6
CONTINUOUS
10
0.1697467322834646
20
1.1248780708661417
11
0.1693700787401575
21
1.1248031496062991
0
LINE
8
BLACK
6
CONTINUOUS
10
0.1693700787401575
20
1.1248031496062991
11
-0.0117322834645669
21
1.1248031496062991
0
LINE
8
BLACK
6
CONTINUOUS
10
-0.0117322834645669
20
1.1248031496062991
11
-0.012108937007874
21
1.1248780708661417
0
LINE
8
BLACK
6
CONTINUOUS
10
-0.012108937007874
20
1.1248780708661417
11
-0.0126416141732283
21
1.1254107480314961
0
LINE
8
BLACK
6
CONTINUOUS
10
-0.0126416141732283
20
1.1254107480314961
11
-0.0127165354330709
21
1.1257874015748031
0
LINE
8
BLACK
6
CONTINUOUS
10
-0.0127165354330709
20
1.1257874015748031
11
-0.0127165354330709
21
1.2242125984251968
0
LINE
8
BLACK
6
CONTINUOUS
10
-0.0127165354330709
20
1.2242125984251968
11
-0.0126416141732283
21
1.224589251968504
0
LINE
8
BLACK
6
CONTINUOUS
10
-0.0126416141732283
20
1.224589251968504
11
-0.012108937007874
21
1.2251219291338582
0
LINE
8
BLACK
6
CONTINUOUS
10
-0.012108937007874
20
1.2251219291338582
11
-0.0117322834645669
21
1.2251968503937007
0
LINE
8
BLACK
6
CONTINUOUS
10
-0.0117322834645669
20
1.2251968503937007
11
0.1693700787401575
21
1.2251968503937007
0
LINE
8
BLACK
6
CONTINUOUS
10
0.1693700787401575
20
1.2251968503937007
11
0.1697467322834646
21
1.2251219291338582
0
LINE
8
BLACK
6
CONTINUOUS
10
-0.010748031496063
20
1.2232283464566929
11
-0.010748031496063
21
1.126771653543307
0
LINE
8
BLACK
6
CONTINUOUS
10
-0.010748031496063
20
1.126771653543307
11
0.1683858267716535
21
1.126771653543307
0
LINE
8
BLACK
6
CONTINUOUS
10
0.1683858267716535
20
1.126771653543307
11
0.1683858267716535
21
1.2232283464566929
0
LINE
8
BLACK
6
CONTINUOUS
10
0.1683858267716535
20
1.2232283464566929
11
-0.010748031496063
21
1.2232283464566929
0
LINE
8
BLACK
6
CONTINUOUS
10
1.1115202362204724
20
2.7693756692913385
11
1.1353003937007873
21
2.7670335039370078
0
LINE
8
BLACK
6
CONTINUOUS
10
1.1353003937007873
20
2.7670335039370078
11
1.158876496062992
21
2.7631410629921258
0
LINE
8
BLACK
6
CONTINUOUS
10
1.158876496062992
20
2.7631410629921258
11
1.1821475196850393
21
2.7577150393700789
0
LINE
8
BLACK
6
CONTINUOUS
10
1.1821475196850393
20
2.7577150393700789
11
1.2050138188976378
21
2.7507786220472439
0
LINE
8
BLACK
6
CONTINUOUS
10
1.2050138188976378
20
2.7507786220472439
11
1.2273775196850394
21
2.7423615354330706
0
LINE
8
BLACK
6
CONTINUOUS
10
1.2273775196850394
20
2.7423615354330706
11
1.2491428346456692
21
2.7324998031496062
0
LINE
8
BLACK
6
CONTINUOUS
10
1.2491428346456692
20
2.7324998031496062
11
1.2702165354330708
21
2.7212356692913384
0
LINE
8
BLACK
6
CONTINUOUS
10
1.2702165354330708
20
2.7212356692913384
11
1.2905084251968504
21
2.7086173622047243
0
LINE
8
BLACK
6
CONTINUOUS
10
1.2905084251968504
20
2.7086173622047243
11
1.3099315748031495
21
2.694698897637795
0
LINE
8
BLACK
6
CONTINUOUS
10
1.3099315748031495
20
2.694698897637795
11
1.3284028346456693
21
2.6795399212598423
0
LINE
8
BLACK
6
CONTINUOUS
10
1.3284028346456693
20
2.6795399212598423
11
1.3458431102362205
21
2.6632053149606301
0
LINE
8
BLACK
6
CONTINUOUS
10
1.3458431102362205
20
2.6632053149606301
11
1.362177716535433
21
2.6457650393700787
0
LINE
8
BLACK
6
CONTINUOUS
10
1.362177716535433
20
2.6457650393700787
11
1.3773366929133859
21
2.6272937795275588
0
LINE
8
BLACK
6
CONTINUOUS
10
1.3773366929133859
20
2.6272937795275588
11
1.3912551574803149
21
2.6078706299212597
0
LINE
8
BLACK
6
CONTINUOUS
10
1.3912551574803149
20
2.6078706299212597
11
1.4038734645669291
21
2.5875787401574804
0
LINE
8
BLACK
6
CONTINUOUS
10
1.4038734645669291
20
2.5875787401574804
11
1.4151375984251968
21
2.5665050393700786
0
LINE
8
BLACK
6
CONTINUOUS
10
1.4151375984251968
20
2.5665050393700786
11
1.4249993307086615
21
2.5447397244094487
0
LINE
8
BLACK
6
CONTINUOUS
10
1.4249993307086615
20
2.5447397244094487
11
1.4334164173228345
21
2.5223760236220474
0
LINE
8
BLACK
6
CONTINUOUS
10
1.4334164173228345
20
2.5223760236220474
11
1.4403528346456693
21
2.4995097244094486
0
LINE
8
BLACK
6
CONTINUOUS
10
1.4403528346456693
20
2.4995097244094486
11
1.4457788582677165
21
2.4762387007874014
0
LINE
8
BLACK
6
CONTINUOUS
10
1.4457788582677165
20
2.4762387007874014
11
1.4496712992125984
21
2.4526625984251966
0
LINE
8
BLACK
6
CONTINUOUS
10
1.4496712992125984
20
2.4526625984251966
11
1.4520134645669291
21
2.4288824409448817
0
LINE
8
BLACK
6
CONTINUOUS
10
1.4520134645669291
20
2.4288824409448817
11
1.4527952755905511
21
2.4049999999999998
0
LINE
8
BLACK
6
CONTINUOUS
10
1.4527952755905511
20
2.4049999999999998
11
1.4520134645669291
21
2.3811175590551179
0
LINE
8
BLACK
6
CONTINUOUS
10
1.4520134645669291
20
2.3811175590551179
11
1.4496712992125984
21
2.357337401574803
0
LINE
8
BLACK
6
CONTINUOUS
10
1.4496712992125984
20
2.357337401574803
11
1.4457788582677165
21
2.3337612992125982
0
LINE
8
BLACK
6
CONTINUOUS
10
1.4457788582677165
20
2.3337612992125982
11
1.4403528346456693
21
2.310490275590551
0
LINE
8
BLACK
6
CONTINUOUS
10
1.4403528346456693
20
2.310490275590551
11
1.4334164173228345
21
2.2876239763779527
0
LINE
8
BLACK
6
CONTINUOUS
10
1.4334164173228345
20
2.2876239763779527
11
1.4249993307086615
21
2.2652602755905513
0
LINE
8
BLACK
6
CONTINUOUS
10
1.4249993307086615
20
2.2652602755905513
11
1.4151375984251968
21
2.243494960629921
0
LINE
8
BLACK
6
CONTINUOUS
10
1.4151375984251968
20
2.243494960629921
11
1.4038734645669291
21
2.2224212598425197
0
LINE
8
BLACK
6
CONTINUOUS
10
1.4038734645669291
20
2.2224212598425197
11
1.3912551574803149
21
2.2021293700787403
0
LINE
8
BLACK
6
CONTINUOUS
10
1.3912551574803149
20
2.2021293700787403
11
1.3773366929133859
21
2.1827062204724408
0
LINE
8
BLACK
6
CONTINUOUS
10
1.3773366929133859
20
2.1827062204724408
11
1.362177716535433
21
2.1642349606299214
0
LINE
8
BLACK
6
CONTINUOUS
10
1.362177716535433
20
2.1642349606299214
11
1.3458431102362205
21
2.14679468503937
0
LINE
8
BLACK
6
CONTINUOUS
10
1.3458431102362205
20
2.14679468503937
11
1.3284028346456693
21
2.1304600787401573
0
LINE
8
BLACK
6
CONTINUOUS
10
1.3284028346456693
20
2.1304600787401573
11
1.3099315748031495
21
2.1153011023622046
0
LINE
8
BLACK
6
CONTINUOUS
10
1.3099315748031495
20
2.1153011023622046
11
1.2905084251968504
21
2.1013826377952753
0
LINE
8
BLACK
6
CONTINUOUS
10
1.2905084251968504
20
2.1013826377952753
11
1.2702165354330708
21
2.0887643307086612
0
LINE
8
BLACK
6
CONTINUOUS
10
1.2702165354330708
20
2.0887643307086612
11
1.2491428346456692
21
2.0775001968503934
0
LINE
8
BLACK
6
CONTINUOUS
10
1.2491428346456692
20
2.0775001968503934
11
1.2273775196850394
21
2.067638464566929
0
LINE
8
BLACK
6
CONTINUOUS
10
1.2273775196850394
20
2.067638464566929
11
1.2050138188976378
21
2.0592213779527557
0
LINE
8
BLACK
6
CONTINUOUS
10
1.2050138188976378
20
2.0592213779527557
11
1.1821475196850393
21
2.0522849606299212
0
LINE
8
BLACK
6
CONTINUOUS
10
1.1821475196850393
20
2.0522849606299212
11
1.158876496062992
21
2.0468589370078738
0
LINE
8
BLACK
6
CONTINUOUS
10
1.158876496062992
20
2.0468589370078738
11
1.1353003937007873
21
2.0429664960629923
0
LINE
8
BLACK
6
CONTINUOUS
10
1.1353003937007873
20
2.0429664960629923
11
1.1115202362204724
21
2.0406243307086616
0
LINE
8
BLACK
6
CONTINUOUS
10
1.1115202362204724
20
2.0406243307086616
11
1.0876377952755905
21
2.0398425196850392
0
LINE
8
BLACK
6
CONTINUOUS
10
1.0876377952755905
20
2.0398425196850392
11
1.0637553543307086
21
2.0406243307086616
0
LINE
8
BLACK
6
CONTINUOUS
10
1.0637553543307086
20
2.0406243307086616
11
1.0399751968503936
21
2.0429664960629923
0
LINE
8
BLACK
6
CONTINUOUS
10
1.0399751968503936
20
2.0429664960629923
11
1.0163990944881889
21
2.0468589370078738
0
LINE
8
BLACK
6
CONTINUOUS
10
1.0163990944881889
20
2.0468589370078738
11
0.9931280708661417
21
2.0522849606299212
0
LINE
8
BLACK
6
CONTINUOUS
10
0.9931280708661417
20
2.0522849606299212
11
0.9702617716535433
21
2.0592213779527557
0
LINE
8
BLACK
6
CONTINUOUS
10
0.9702617716535433
20
2.0592213779527557
11
0.9478980708661418
21
2.067638464566929
0
LINE
8
BLACK
6
CONTINUOUS
10
0.9478980708661418
20
2.067638464566929
11
0.9261327559055118
21
2.0775001968503934
0
LINE
8
BLACK
6
CONTINUOUS
10
0.9261327559055118
20
2.0775001968503934
11
0.9050590551181102
21
2.0887643307086612
0
LINE
8
BLACK
6
CONTINUOUS
10
0.9050590551181102
20
2.0887643307086612
11
0.8847671653543306
21
2.1013826377952753
0
LINE
8
BLACK
6
CONTINUOUS
10
0.8847671653543306
20
2.1013826377952753
11
0.8653440157480314
21
2.1153011023622046
0
LINE
8
BLACK
6
CONTINUOUS
10
0.8653440157480314
20
2.1153011023622046
11
0.8468727559055118
21
2.1304600787401573
0
LINE
8
BLACK
6
CONTINUOUS
10
0.8468727559055118
20
2.1304600787401573
11
0.8294324803149606
21
2.14679468503937
0
LINE
8
BLACK
6
CONTINUOUS
10
0.8294324803149606
20
2.14679468503937
11
0.8130978740157481
21
2.1642349606299214
0
LINE
8
BLACK
6
CONTINUOUS
10
0.8130978740157481
20
2.1642349606299214
11
0.7979388976377952
21
2.1827062204724408
0
LINE
8
BLACK
6
CONTINUOUS
10
0.7979388976377952
20
2.1827062204724408
11
0.7840204330708661
21
2.2021293700787403
0
LINE
8
BLACK
6
CONTINUOUS
10
0.7840204330708661
20
2.2021293700787403
11
0.771402125984252
21
2.2224212598425197
0
LINE
8
BLACK
6
CONTINUOUS
10
0.771402125984252
20
2.2224212598425197
11
0.7601379921259842
21
2.243494960629921
0
LINE
8
BLACK
6
CONTINUOUS
10
0.7601379921259842
20
2.243494960629921
11
0.7502762598425197
21
2.2652602755905513
0
LINE
8
BLACK
6
CONTINUOUS
10
0.7502762598425197
20
2.2652602755905513
11
0.7418591732283465
21
2.2876239763779527
0
LINE
8
BLACK
6
CONTINUOUS
10
0.7418591732283465
20
2.2876239763779527
11
0.7349227559055118
21
2.310490275590551
0
LINE
8
BLACK
6
CONTINUOUS
10
0.7349227559055118
20
2.310490275590551
11
0.7294967322834646
21
2.3337612992125982
0
LINE
8
BLACK
6
CONTINUOUS
10
0.7294967322834646
20
2.3337612992125982
11
0.7256042913385826
21
2.357337401574803
0
LINE
8
BLACK
6
CONTINUOUS
10
0.7256042913385826
20
2.357337401574803
11
0.723262125984252
21
2.3811175590551179
0
LINE
8
BLACK
6
CONTINUOUS
10
0.723262125984252
20
2.3811175590551179
11
0.7224803149606299
21
2.4049999999999998
0
LINE
8
BLACK
6
CONTINUOUS
10
0.7224803149606299
20
2.4049999999999998
11
0.723262125984252
21
2.4288824409448817
0
LINE
8
BLACK
6
CONTINUOUS
10
0.723262125984252
20
2.4288824409448817
11
0.7256042913385826
21
2.4526625984251966
0
LINE
8
BLACK
6
CONTINUOUS
10
0.7256042913385826
20
2.4526625984251966
11
0.7294967322834646
21
2.4762387007874014
0
LINE
8
BLACK
6
CONTINUOUS
10
0.7294967322834646
20
2.4762387007874014
11
0.7349227559055118
21
2.4995097244094486
0
LINE
8
BLACK
6
CONTINUOUS
10
0.7349227559055118
20
2.4995097244094486
11
0.7418591732283465
21
2.5223760236220474
0
LINE
8
BLACK
6
CONTINUOUS
10
0.7418591732283465
20
2.5223760236220474
11
0.7502762598425197
21
2.5447397244094487
0
LINE
8
BLACK
6
CONTINUOUS
10
0.7502762598425197
20
2.5447397244094487
11
0.7601379921259842
21
2.5665050393700786
0
LINE
8
BLACK
6
CONTINUOUS
10
0.7601379921259842
20
2.5665050393700786
11
0.771402125984252
21
2.5875787401574804
0
LINE
8
BLACK
6
CONTINUOUS
10
0.771402125984252
20
2.5875787401574804
11
0.7840204330708661
21
2.6078706299212597
0
LINE
8
BLACK
6
CONTINUOUS
10
0.7840204330708661
20
2.6078706299212597
11
0.7979388976377952
21
2.6272937795275588
0
LINE
8
BLACK
6
CONTINUOUS
10
0.7979388976377952
20
2.6272937795275588
11
0.8130978740157481
21
2.6457650393700787
0
LINE
8
BLACK
6
CONTINUOUS
10
0.8130978740157481
20
2.6457650393700787
11
0.8294324803149606
21
2.6632053149606301
0
LINE
8
BLACK
6
CONTINUOUS
10
0.8294324803149606
20
2.6632053149606301
11
0.8468727559055118
21
2.6795399212598423
0
LINE
8
BLACK
6
CONTINUOUS
10
0.8468727559055118
20
2.6795399212598423
11
0.8653440157480314
21
2.694698897637795
0
LINE
8
BLACK
6
CONTINUOUS
10
0.8653440157480314
20
2.694698897637795
11
0.8847671653543306
21
2.7086173622047243
0
LINE
8
BLACK
6
CONTINUOUS
10
0.8847671653543306
20
2.7086173622047243
11
0.9050590551181102
21
2.7212356692913384
0
LINE
8
BLACK
6
CONTINUOUS
10
0.9050590551181102
20
2.7212356692913384
11
0.9261327559055118
21
2.7324998031496062
0
LINE
8
BLACK
6
CONTINUOUS
10
0.9261327559055118
20
2.7324998031496062
11
0.9478980708661418
21
2.7423615354330706
0
LINE
8
BLACK
6
CONTINUOUS
10
0.9478980708661418
20
2.7423615354330706
11
0.9702617716535433
21
2.7507786220472439
0
LINE
8
BLACK
6
CONTINUOUS
10
0.9702617716535433
20
2.7507786220472439
11
0.9931280708661417
21
2.7577150393700789
0
LINE
8
BLACK
6
CONTINUOUS
10
0.9931280708661417
20
2.7577150393700789
11
1.0163990944881889
21
2.7631410629921258
0
LINE
8
BLACK
6
CONTINUOUS
10
1.0163990944881889
20
2.7631410629921258
11
1.0399751968503936
21
2.7670335039370078
0
LINE
8
BLACK
6
CONTINUOUS
10
1.0399751968503936
20
2.7670335039370078
11
1.0637553543307086
21
2.7693756692913385
0
LINE
8
BLACK
6
CONTINUOUS
10
1.0637553543307086
20
2.7693756692913385
11
1.0876377952755905
21
2.7701574803149605
0
LINE
8
BLACK
6
CONTINUOUS
10
1.0876377952755905
20
2.7701574803149605
11
1.1115202362204724
21
2.7693756692913385
0
LINE
8
BLACK
6
CONTINUOUS
10
0.7250322834645669
20
2.3812335826771651
11
0.727363031496063
21
2.3575689370078741
0
LINE
8
BLACK
6
CONTINUOUS
10
0.727363031496063
20
2.3575689370078741
11
0.7312365748031496
21
2.3341074015748031
0
LINE
8
BLACK
6
CONTINUOUS
10
0.7312365748031496
20
2.3341074015748031
11
0.7366362598425197
21
2.3109494094488188
0
LINE
8
BLACK
6
CONTINUOUS
10
0.7366362598425197
20
2.3109494094488188
11
0.7435389763779527
21
2.2881941732283466
0
LINE
8
BLACK
6
CONTINUOUS
10
0.7435389763779527
20
2.2881941732283466
11
0.7519151574803149
21
2.2659391338582675
0
LINE
8
BLACK
6
CONTINUOUS
10
0.7519151574803149
20
2.2659391338582675
11
0.7617290157480314
21
2.244279566929134
0
LINE
8
BLACK
6
CONTINUOUS
10
0.7617290157480314
20
2.244279566929134
11
0.7729384251968504
21
2.2233082283464567
0
LINE
8
BLACK
6
CONTINUOUS
10
0.7729384251968504
20
2.2233082283464567
11
0.7854954330708661
21
2.2031149212598424
0
LINE
8
BLACK
6
CONTINUOUS
10
0.7854954330708661
20
2.2031149212598424
11
0.7993462598425196
21
2.1837861023622045
0
LINE
8
BLACK
6
CONTINUOUS
10
0.7993462598425196
20
2.1837861023622045
11
0.8144315748031495
21
2.165404566929134
0
LINE
8
BLACK
6
CONTINUOUS
10
0.8144315748031495
20
2.165404566929134
11
0.8306868110236221
21
2.1480490157480316
0
LINE
8
BLACK
6
CONTINUOUS
10
0.8306868110236221
20
2.1480490157480316
11
0.8480423622047244
21
2.131793779527559
0
LINE
8
BLACK
6
CONTINUOUS
10
0.8480423622047244
20
2.131793779527559
11
0.8664238976377953
21
2.116708464566929
0
LINE
8
BLACK
6
CONTINUOUS
10
0.8664238976377953
20
2.116708464566929
11
0.8857527165354331
21
2.1028576377952755
0
LINE
8
BLACK
6
CONTINUOUS
10
0.8857527165354331
20
2.1028576377952755
11
0.9059460236220472
21
2.0903006299212596
0
LINE
8
BLACK
6
CONTINUOUS
10
0.9059460236220472
20
2.0903006299212596
11
0.9269173622047244
21
2.0790912204724408
0
LINE
8
BLACK
6
CONTINUOUS
10
0.9269173622047244
20
2.0790912204724408
11
0.9485769291338583
21
2.0692773622047245
0
LINE
8
BLACK
6
CONTINUOUS
10
0.9485769291338583
20
2.0692773622047245
11
0.9708319685039369
21
2.0609011811023623
0
LINE
8
BLACK
6
CONTINUOUS
10
0.9708319685039369
20
2.0609011811023623
11
0.9935872047244094
21
2.0539984645669289
0
LINE
8
BLACK
6
CONTINUOUS
10
0.9935872047244094
20
2.0539984645669289
11
1.0167451968503938
21
2.0485987795275591
0
LINE
8
BLACK
6
CONTINUOUS
10
1.0167451968503938
20
2.0485987795275591
11
1.0402067322834645
21
2.0447252362204722
0
LINE
8
BLACK
6
CONTINUOUS
10
1.0402067322834645
20
2.0447252362204722
11
1.063871377952756
21
2.0423944881889762
0
LINE
8
BLACK
6
CONTINUOUS
10
1.063871377952756
20
2.0423944881889762
11
1.0876377952755905
21
2.0416164566929131
0
LINE
8
BLACK
6
CONTINUOUS
10
1.0876377952755905
20
2.0416164566929131
11
1.1114042125984251
21
2.0423944881889762
0
LINE
8
BLACK
6
CONTINUOUS
10
1.1114042125984251
20
2.0423944881889762
11
1.1350688582677164
21
2.0447252362204722
0
LINE
8
BLACK
6
CONTINUOUS
10
1.1350688582677164
20
2.0447252362204722
11
1.1585303937007874
21
2.0485987795275591
0
LINE
8
BLACK
6
CONTINUOUS
10
1.1585303937007874
20
2.0485987795275591
11
1.1816883858267717
21
2.0539984645669289
0
LINE
8
BLACK
6
CONTINUOUS
10
1.1816883858267717
20
2.0539984645669289
11
1.2044436220472441
21
2.0609011811023623
0
LINE
8
BLACK
6
CONTINUOUS
10
1.2044436220472441
20
2.0609011811023623
11
1.2266986614173228
21
2.0692773622047245
0
LINE
8
BLACK
6
CONTINUOUS
10
1.2266986614173228
20
2.0692773622047245
11
1.2483582283464567
21
2.0790912204724408
0
LINE
8
BLACK
6
CONTINUOUS
10
1.2483582283464567
20
2.0790912204724408
11
1.2693295669291338
21
2.0903006299212596
0
LINE
8
BLACK
6
CONTINUOUS
10
1.2693295669291338
20
2.0903006299212596
11
1.2895228740157481
21
2.1028576377952755
0
LINE
8
BLACK
6
CONTINUOUS
10
1.2895228740157481
20
2.1028576377952755
11
1.3088516929133858
21
2.116708464566929
0
LINE
8
BLACK
6
CONTINUOUS
10
1.3088516929133858
20
2.116708464566929
11
1.3272332283464567
21
2.131793779527559
0
LINE
8
BLACK
6
CONTINUOUS
10
1.3272332283464567
20
2.131793779527559
11
1.3445887795275591
21
2.1480490157480316
0
LINE
8
BLACK
6
CONTINUOUS
10
1.3445887795275591
20
2.1480490157480316
11
1.3608440157480315
21
2.165404566929134
0
LINE
8
BLACK
6
CONTINUOUS
10
1.3608440157480315
20
2.165404566929134
11
1.3759293307086613
21
2.1837861023622045
0
LINE
8
BLACK
6
CONTINUOUS
10
1.3759293307086613
20
2.1837861023622045
11
1.389780157480315
21
2.2031149212598424
0
LINE
8
BLACK
6
CONTINUOUS
10
1.389780157480315
20
2.2031149212598424
11
1.4023371653543306
21
2.2233082283464567
0
LINE
8
BLACK
6
CONTINUOUS
10
1.4023371653543306
20
2.2233082283464567
11
1.4135465748031495
21
2.244279566929134
0
LINE
8
BLACK
6
CONTINUOUS
10
1.4135465748031495
20
2.244279566929134
11
1.423360433070866
21
2.2659391338582675
0
LINE
8
BLACK
6
CONTINUOUS
10
1.423360433070866
20
2.2659391338582675
11
1.4317366141732284
21
2.2881941732283466
0
LINE
8
BLACK
6
CONTINUOUS
10
1.4317366141732284
20
2.2881941732283466
11
1.4386393307086613
21
2.3109494094488188
0
LINE
8
BLACK
6
CONTINUOUS
10
1.4386393307086613
20
2.3109494094488188
11
1.4440390157480314
21
2.3341074015748031
0
LINE
8
BLACK
6
CONTINUOUS
10
1.4440390157480314
20
2.3341074015748031
11
1.4479125590551181
21
2.3575689370078741
0
LINE
8
BLACK
6
CONTINUOUS
10
1.4479125590551181
20
2.3575689370078741
11
1.4502433070866141
21
2.3812335826771651
0
LINE
8
BLACK
6
CONTINUOUS
10
1.4502433070866141
20
2.3812335826771651
11
1.4510213385826771
21
2.4049999999999998
0
LINE
8
BLACK
6
CONTINUOUS
10
1.4510213385826771
20
2.4049999999999998
11
1.4502433070866141
21
2.4287664173228345
0
LINE
8
BLACK
6
CONTINUOUS
10
1.4502433070866141
20
2.4287664173228345
11
1.4479125590551181
21
2.452431062992126
0
LINE
8
BLACK
6
CONTINUOUS
10
1.4479125590551181
20
2.452431062992126
11
1.4440390157480314
21
2.4758925984251969
0
LINE
8
BLACK
6
CONTINUOUS
10
1.4440390157480314
20
2.4758925984251969
11
1.4386393307086613
21
2.4990505905511808
0
LINE
8
BLACK
6
CONTINUOUS
10
1.4386393307086613
20
2.4990505905511808
11
1.4317366141732284
21
2.5218058267716534
0
LINE
8
BLACK
6
CONTINUOUS
10
1.4317366141732284
20
2.5218058267716534
11
1.423360433070866
21
2.5440608661417321
0
LINE
8
BLACK
6
CONTINUOUS
10
1.423360433070866
20
2.5440608661417321
11
1.4135465748031495
21
2.5657204330708661
0
LINE
8
BLACK
6
CONTINUOUS
10
1.4135465748031495
20
2.5657204330708661
11
1.4023371653543306
21
2.5866917716535434
0
LINE
8
BLACK
6
CONTINUOUS
10
1.4023371653543306
20
2.5866917716535434
11
1.389780157480315
21
2.6068850787401576
0
LINE
8
BLACK
6
CONTINUOUS
10
1.389780157480315
20
2.6068850787401576
11
1.3759293307086613
21
2.6262138976377951
0
LINE
8
BLACK
6
CONTINUOUS
10
1.3759293307086613
20
2.6262138976377951
11
1.3608440157480315
21
2.6445954330708661
0
LINE
8
BLACK
6
CONTINUOUS
10
1.3608440157480315
20
2.6445954330708661
11
1.3445887795275591
21
2.6619509842519684
0
LINE
8
BLACK
6
CONTINUOUS
10
1.3445887795275591
20
2.6619509842519684
11
1.3272332283464567
21
2.6782062204724411
0
LINE
8
BLACK
6
CONTINUOUS
10
1.3272332283464567
20
2.6782062204724411
11
1.3088516929133858
21
2.6932915354330706
0
LINE
8
BLACK
6
CONTINUOUS
10
1.3088516929133858
20
2.6932915354330706
11
1.2895228740157481
21
2.7071423622047242
0
LINE
8
BLACK
6
CONTINUOUS
10
1.2895228740157481
20
2.7071423622047242
11
1.2693295669291338
21
2.71969937007874
0
LINE
8
BLACK
6
CONTINUOUS
10
1.2693295669291338
20
2.71969937007874
11
1.2483582283464567
21
2.7309087795275588
0
LINE
8
BLACK
6
CONTINUOUS
10
1.2483582283464567
20
2.7309087795275588
11
1.2266986614173228
21
2.7407226377952756
0
LINE
8
BLACK
6
CONTINUOUS
10
1.2266986614173228
20
2.7407226377952756
11
1.2044436220472441
21
2.7490988188976377
0
LINE
8
BLACK
6
CONTINUOUS
10
1.2044436220472441
20
2.7490988188976377
11
1.1816883858267717
21
2.7560015354330707
0
LINE
8
BLACK
6
CONTINUOUS
10
1.1816883858267717
20
2.7560015354330707
11
1.1585303937007874
21
2.761401220472441
0
LINE
8
BLACK
6
CONTINUOUS
10
1.1585303937007874
20
2.761401220472441
11
1.1350688582677164
21
2.7652747637795274
0
LINE
8
BLACK
6
CONTINUOUS
10
1.1350688582677164
20
2.7652747637795274
11
1.1114042125984251
21
2.7676055118110234
0
LINE
8
BLACK
6
CONTINUOUS
10
1.1114042125984251
20
2.7676055118110234
11
1.0876377952755905
21
2.7683835433070865
0
LINE
8
BLACK
6
CONTINUOUS
10
1.0876377952755905
20
2.7683835433070865
11
1.063871377952756
21
2.7676055118110234
0
LINE
8
BLACK
6
CONTINUOUS
10
1.063871377952756
20
2.7676055118110234
11
1.0402067322834645
21
2.7652747637795274
0
LINE
8
BLACK
6
CONTINUOUS
10
1.0402067322834645
20
2.7652747637795274
11
1.0167451968503938
21
2.761401220472441
0
LINE
8
BLACK
6
CONTINUOUS
10
1.0167451968503938
20
2.761401220472441
11
0.9935872047244094
21
2.7560015354330707
0
LINE
8
BLACK
6
CONTINUOUS
10
0.9935872047244094
20
2.7560015354330707
11
0.9708319685039369
21
2.7490988188976377
0
LINE
8
BLACK
6
CONTINUOUS
10
0.9708319685039369
20
2.7490988188976377
11
0.9485769291338583
21
2.7407226377952756
0
LINE
8
BLACK
6
CONTINUOUS
10
0.9485769291338583
20
2.7407226377952756
11
0.9269173622047244
21
2.7309087795275588
0
LINE
8
BLACK
6
CONTINUOUS
10
0.9269173622047244
20
2.7309087795275588
11
0.9059460236220472
21
2.71969937007874
0
LINE
8
BLACK
6
CONTINUOUS
10
0.9059460236220472
20
2.71969937007874
11
0.8857527165354331
21
2.7071423622047242
0
LINE
8
BLACK
6
CONTINUOUS
10
0.8857527165354331
20
2.7071423622047242
11
0.8664238976377953
21
2.6932915354330706
0
LINE
8
BLACK
6
CONTINUOUS
10
0.8664238976377953
20
2.6932915354330706
11
0.8480423622047244
21
2.6782062204724411
0
LINE
8
BLACK
6
CONTINUOUS
10
0.8480423622047244
20
2.6782062204724411
11
0.8306868110236221
21
2.6619509842519684
0
LINE
8
BLACK
6
CONTINUOUS
10
0.8306868110236221
20
2.6619509842519684
11
0.8144315748031495
21
2.6445954330708661
0
LINE
8
BLACK
6
CONTINUOUS
10
0.8144315748031495
20
2.6445954330708661
11
0.7993462598425196
21
2.6262138976377951
0
LINE
8
BLACK
6
CONTINUOUS
10
0.7993462598425196
20
2.6262138976377951
11
0.7854954330708661
21
2.6068850787401576
0
LINE
8
BLACK
6
CONTINUOUS
10
0.7854954330708661
20
2.6068850787401576
11
0.7729384251968504
21
2.5866917716535434
0
LINE
8
BLACK
6
CONTINUOUS
10
0.7729384251968504
20
2.5866917716535434
11
0.7617290157480314
21
2.5657204330708661
0
LINE
8
BLACK
6
CONTINUOUS
10
0.7617290157480314
20
2.5657204330708661
11
0.7519151574803149
21
2.5440608661417321
0
LINE
8
BLACK
6
CONTINUOUS
10
0.7519151574803149
20
2.5440608661417321
11
0.7435389763779527
21
2.5218058267716534
0
LINE
8
BLACK
6
CONTINUOUS
10
0.7435389763779527
20
2.5218058267716534
11
0.7366362598425197
21
2.4990505905511808
0
LINE
8
BLACK
6
CONTINUOUS
10
0.7366362598425197
20
2.4990505905511808
11
0.7312365748031496
21
2.4758925984251969
0
LINE
8
BLACK
6
CONTINUOUS
10
0.7312365748031496
20
2.4758925984251969
11
0.727363031496063
21
2.452431062992126
0
LINE
8
BLACK
6
CONTINUOUS
10
0.727363031496063
20
2.452431062992126
11
0.7250322834645669
21
2.4287664173228345
0
LINE
8
BLACK
6
CONTINUOUS
10
0.7250322834645669
20
2.4287664173228345
11
0.7242542519685039
21
2.4049999999999998
0
LINE
8
BLACK
6
CONTINUOUS
10
0.7242542519685039
20
2.4049999999999998
11
0.7250322834645669
21
2.3812335826771651
0
LINE
8
BLACK
6
CONTINUOUS
10
0.2902191732283464
20
2.7918935826771651
11
0.2907518503937008
21
2.7913609055118109
0
LINE
8
BLACK
6
CONTINUOUS
10
0.2907518503937008
20
2.7913609055118109
11
0.2908267716535433
21
2.7909842519685037
0
LINE
8
BLACK
6
CONTINUOUS
10
0.2908267716535433
20
2.7909842519685037
11
0.2908267716535433
21
2.5390157480314959
0
LINE
8
BLACK
6
CONTINUOUS
10
0.2908267716535433
20
2.5390157480314959
11
0.2907518503937008
21
2.5386390944881887
0
LINE
8
BLACK
6
CONTINUOUS
10
0.2907518503937008
20
2.5386390944881887
11
0.2902191732283464
21
2.5381064173228345
0
LINE
8
BLACK
6
CONTINUOUS
10
0.2902191732283464
20
2.5381064173228345
11
0.2898425196850394
21
2.5380314960629922
0
LINE
8
BLACK
6
CONTINUOUS
10
0.2898425196850394
20
2.5380314960629922
11
-0.2298425196850394
21
2.5380314960629922
0
LINE
8
BLACK
6
CONTINUOUS
10
-0.2298425196850394
20
2.5380314960629922
11
-0.2302191732283465
21
2.5381064173228345
0
LINE
8
BLACK
6
CONTINUOUS
10
-0.2302191732283465
20
2.5381064173228345
11
-0.2307518503937008
21
2.5386390944881887
0
LINE
8
BLACK
6
CONTINUOUS
10
-0.2307518503937008
20
2.5386390944881887
11
-0.2308267716535433
21
2.5390157480314959
0
LINE
8
BLACK
6
CONTINUOUS
10
-0.2308267716535433
20
2.5390157480314959
11
-0.2308267716535433
21
2.7909842519685037
0
LINE
8
BLACK
6
CONTINUOUS
10
-0.2308267716535433
20
2.7909842519685037
11
-0.2307518503937008
21
2.7913609055118109
0
LINE
8
BLACK
6
CONTINUOUS
10
-0.2307518503937008
20
2.7913609055118109
11
-0.2302191732283465
21
2.7918935826771651
0
LINE
8
BLACK
6
CONTINUOUS
10
-0.2302191732283465
20
2.7918935826771651
11
-0.2298425196850394
21
2.7919685039370079
0
LINE
8
BLACK
6
CONTINUOUS
10
-0.2298425196850394
20
2.7919685039370079
11
0.2898425196850394
21
2.7919685039370079
0
LINE
8
BLACK
6
CONTINUOUS
10
0.2898425196850394
20
2.7919685039370079
11
0.2902191732283464
21
2.7918935826771651
0
LINE
8
BLACK
6
CONTINUOUS
10
-0.2288582677165354
20
2.79
11
-0.2288582677165354
21
2.54
0
LINE
8
BLACK
6
CONTINUOUS
10
-0.2288582677165354
20
2.54
11
0.2888582677165354
21
2.54
0
LINE
8
BLACK
6
CONTINUOUS
10
0.2888582677165354
20
2.54
11
0.2888582677165354
21
2.79
0
LINE
8
BLACK
6
CONTINUOUS
10
0.2888582677165354
20
2.79
11
-0.2288582677165354
21
2.79
0
LINE
8
BLACK
6
CONTINUOUS
10
-1.7206535039370079
20
2.7366389763779528
11
-1.7122017322834646
21
2.7343743307086612
0
LINE
8
BLACK
6
CONTINUOUS
10
-1.7122017322834646
20
2.7343743307086612
11
-1.7042716535433071
21
2.7306764566929131
0
LINE
8
BLACK
6
CONTINUOUS
10
-1.7042716535433071
20
2.7306764566929131
11
-1.6971041732283465
21
2.725657755905512
0
LINE
8
BLACK
6
CONTINUOUS
10
-1.6971041732283465
20
2.725657755905512
11
-1.6909170472440944
21
2.7194706299212599
0
LINE
8
BLACK
6
CONTINUOUS
10
-1.6909170472440944
20
2.7194706299212599
11
-1.6858983464566928
21
2.7123031496062993
0
LINE
8
BLACK
6
CONTINUOUS
10
-1.6858983464566928
20
2.7123031496062993
11
-1.6822004724409449
21
2.7043730708661418
0
LINE
8
BLACK
6
CONTINUOUS
10
-1.6822004724409449
20
2.7043730708661418
11
-1.6799358267716535
21
2.6959212992125985
0
LINE
8
BLACK
6
CONTINUOUS
10
-1.6799358267716535
20
2.6959212992125985
11
-1.6791732283464567
21
2.6872047244094488
0
LINE
8
BLACK
6
CONTINUOUS
10
-1.6791732283464567
20
2.6872047244094488
11
-1.6799358267716535
21
2.6784881496062991
0
LINE
8
BLACK
6
CONTINUOUS
10
-1.6799358267716535
20
2.6784881496062991
11
-1.6822004724409449
21
2.6700363779527558
0
LINE
8
BLACK
6
CONTINUOUS
10
-1.6822004724409449
20
2.6700363779527558
11
-1.6858983464566928
21
2.6621062992125983
0
LINE
8
BLACK
6
CONTINUOUS
10
-1.6858983464566928
20
2.6621062992125983
11
-1.6909170472440944
21
2.6549388188976377
0
LINE
8
BLACK
6
CONTINUOUS
10
-1.6909170472440944
20
2.6549388188976377
11
-1.6971041732283465
21
2.6487516929133856
0
LINE
8
BLACK
6
CONTINUOUS
10
-1.6971041732283465
20
2.6487516929133856
11
-1.7042716535433071
21
2.643732992125984
0
LINE
8
BLACK
6
CONTINUOUS
10
-1.7042716535433071
20
2.643732992125984
11
-1.7122017322834646
21
2.6400351181102359
0
LINE
8
BLACK
6
CONTINUOUS
10
-1.7122017322834646
20
2.6400351181102359
11
-1.7206535039370079
21
2.6377704724409448
0
LINE
8
BLACK
6
CONTINUOUS
10
-1.7206535039370079
20
2.6377704724409448
11
-1.7293700787401574
21
2.6370078740157479
0
LINE
8
BLACK
6
CONTINUOUS
10
-1.7293700787401574
20
2.6370078740157479
11
-1.738086653543307
21
2.6377704724409448
0
LINE
8
BLACK
6
CONTINUOUS
10
-1.738086653543307
20
2.6377704724409448
11
-1.7465384251968503
21
2.6400351181102359
0
LINE
8
BLACK
6
CONTINUOUS
10
-1.7465384251968503
20
2.6400351181102359
11
-1.7544685039370078
21
2.643732992125984
0
LINE
8
BLACK
6
CONTINUOUS
10
-1.7544685039370078
20
2.643732992125984
11
-1.7616359842519684
21
2.6487516929133856
0
LINE
8
BLACK
6
CONTINUOUS
10
-1.7616359842519684
20
2.6487516929133856
11
-1.7678231102362205
21
2.6549388188976377
0
LINE
8
BLACK
6
CONTINUOUS
10
-1.7678231102362205
20
2.6549388188976377
11
-1.7728418110236219
21
2.6621062992125983
0
LINE
8
BLACK
6
CONTINUOUS
10
-1.7728418110236219
20
2.6621062992125983
11
-1.77653968503937
21
2.6700363779527558
0
LINE
8
BLACK
6
CONTINUOUS
10
-1.77653968503937
20
2.6700363779527558
11
-1.7788043307086614
21
2.6784881496062991
0
LINE
8
BLACK
6
CONTINUOUS
10
-1.7788043307086614
20
2.6784881496062991
11
-1.7795669291338583
21
2.6872047244094488
0
LINE
8
BLACK
6
CONTINUOUS
10
-1.7795669291338583
20
2.6872047244094488
11
-1.7788043307086614
21
2.6959212992125985
0
LINE
8
BLACK
6
CONTINUOUS
10
-1.7788043307086614
20
2.6959212992125985
11
-1.77653968503937
21
2.7043730708661418
0
LINE
8
BLACK
6
CONTINUOUS
10
-1.77653968503937
20
2.7043730708661418
11
-1.7728418110236219
21
2.7123031496062993
0
LINE
8
BLACK
6
CONTINUOUS
10
-1.7728418110236219
20
2.7123031496062993
11
-1.7678231102362205
21
2.7194706299212599
0
LINE
8
BLACK
6
CONTINUOUS
10
-1.7678231102362205
20
2.7194706299212599
11
-1.7616359842519684
21
2.725657755905512
0
LINE
8
BLACK
6
CONTINUOUS
10
-1.7616359842519684
20
2.725657755905512
11
-1.7544685039370078
21
2.7306764566929131
0
LINE
8
BLACK
6
CONTINUOUS
10
-1.7544685039370078
20
2.7306764566929131
11
-1.7465384251968503
21
2.7343743307086612
0
LINE
8
BLACK
6
CONTINUOUS
10
-1.7465384251968503
20
2.7343743307086612
11
-1.738086653543307
21
2.7366389763779528
0
LINE
8
BLACK
6
CONTINUOUS
10
-1.738086653543307
20
2.7366389763779528
11
-1.7293700787401574
21
2.7374015748031497
0
LINE
8
BLACK
6
CONTINUOUS
10
-1.7293700787401574
20
2.7374015748031497
11
-1.7206535039370079
21
2.7366389763779528
0
LINE
8
BLACK
6
CONTINUOUS
10
-1.777047125984252
20
2.6787979527559056
11
-1.7748629921259842
21
2.6706466535433071
0
LINE
8
BLACK
6
CONTINUOUS
10
-1.7748629921259842
20
2.6706466535433071
11
-1.7712965748031495
21
2.6629984251968501
0
LINE
8
BLACK
6
CONTINUOUS
10
-1.7712965748031495
20
2.6629984251968501
11
-1.7664562598425197
21
2.6560857480314959
0
LINE
8
BLACK
6
CONTINUOUS
10
-1.7664562598425197
20
2.6560857480314959
11
-1.7604890551181103
21
2.6501185433070864
0
LINE
8
BLACK
6
CONTINUOUS
10
-1.7604890551181103
20
2.6501185433070864
11
-1.7535763779527558
21
2.6452782283464567
0
LINE
8
BLACK
6
CONTINUOUS
10
-1.7535763779527558
20
2.6452782283464567
11
-1.7459281496062993
21
2.641711811023622
0
LINE
8
BLACK
6
CONTINUOUS
10
-1.7459281496062993
20
2.641711811023622
11
-1.7377768503937008
21
2.6395276771653542
0
LINE
8
BLACK
6
CONTINUOUS
10
-1.7377768503937008
20
2.6395276771653542
11
-1.7293700787401574
21
2.6387921653543307
0
LINE
8
BLACK
6
CONTINUOUS
10
-1.7293700787401574
20
2.6387921653543307
11
-1.7209633070866142
21
2.6395276771653542
0
LINE
8
BLACK
6
CONTINUOUS
10
-1.7209633070866142
20
2.6395276771653542
11
-1.7128120078740157
21
2.641711811023622
0
LINE
8
BLACK
6
CONTINUOUS
10
-1.7128120078740157
20
2.641711811023622
11
-1.7051637795275589
21
2.6452782283464567
0
LINE
8
BLACK
6
CONTINUOUS
10
-1.7051637795275589
20
2.6452782283464567
11
-1.6982511023622047
21
2.6501185433070864
0
LINE
8
BLACK
6
CONTINUOUS
10
-1.6982511023622047
20
2.6501185433070864
11
-1.6922838976377952
21
2.6560857480314959
0
LINE
8
BLACK
6
CONTINUOUS
10
-1.6922838976377952
20
2.6560857480314959
11
-1.6874435826771652
21
2.6629984251968501
0
LINE
8
BLACK
6
CONTINUOUS
10
-1.6874435826771652
20
2.6629984251968501
11
-1.6838771653543307
21
2.6706466535433071
0
LINE
8
BLACK
6
CONTINUOUS
10
-1.6838771653543307
20
2.6706466535433071
11
-1.681693031496063
21
2.6787979527559056
0
LINE
8
BLACK
6
CONTINUOUS
10
-1.681693031496063
20
2.6787979527559056
11
-1.6809575196850393
21
2.6872047244094488
0
LINE
8
BLACK
6
CONTINUOUS
10
-1.6809575196850393
20
2.6872047244094488
11
-1.681693031496063
21
2.695611496062992
0
LINE
8
BLACK
6
CONTINUOUS
10
-1.681693031496063
20
2.695611496062992
11
-1.6838771653543307
21
2.7037627952755905
0
LINE
8
BLACK
6
CONTINUOUS
10
-1.6838771653543307
20
2.7037627952755905
11
-1.6874435826771652
21
2.7114109842519682
0
LINE
8
BLACK
6
CONTINUOUS
10
-1.6874435826771652
20
2.7114109842519682
11
-1.6922838976377952
21
2.7183237007874017
0
LINE
8
BLACK
6
CONTINUOUS
10
-1.6922838976377952
20
2.7183237007874017
11
-1.6982511023622047
21
2.7242909055118107
0
LINE
8
BLACK
6
CONTINUOUS
10
-1.6982511023622047
20
2.7242909055118107
11
-1.7051637795275589
21
2.7291312204724409
0
LINE
8
BLACK
6
CONTINUOUS
10
-1.7051637795275589
20
2.7291312204724409
11
-1.7128120078740157
21
2.7326976377952756
0
LINE
8
BLACK
6
CONTINUOUS
10
-1.7128120078740157
20
2.7326976377952756
11
-1.7209633070866142
21
2.7348817716535434
0
LINE
8
BLACK
6
CONTINUOUS
10
-1.7209633070866142
20
2.7348817716535434
11
-1.7293700787401574
21
2.7356172834645669
0
LINE
8
BLACK
6
CONTINUOUS
10
-1.7293700787401574
20
2.7356172834645669
11
-1.7377768503937008
21
2.7348817716535434
0
LINE
8
BLACK
6
CONTINUOUS
10
-1.7377768503937008
20
2.7348817716535434
11
-1.7459281496062993
21
2.7326976377952756
0
LINE
8
BLACK
6
CONTINUOUS
10
-1.7459281496062993
20
2.7326976377952756
11
-1.753576338582677
21
2.7291312204724409
0
LINE
8
BLACK
6
CONTINUOUS
10
-1.753576338582677
20
2.7291312204724409
11
-1.7604890551181103
21
2.7242909055118107
0
LINE
8
BLACK
6
CONTINUOUS
10
-1.7604890551181103
20
2.7242909055118107
11
-1.7664562598425197
21
2.7183237007874017
0
LINE
8
BLACK
6
CONTINUOUS
10
-1.7664562598425197
20
2.7183237007874017
11
-1.7712965748031495
21
2.7114109842519682
0
LINE
8
BLACK
6
CONTINUOUS
10
-1.7712965748031495
20
2.7114109842519682
11
-1.7748629921259842
21
2.7037627952755905
0
LINE
8
BLACK
6
CONTINUOUS
10
-1.7748629921259842
20
2.7037627952755905
11
-1.777047125984252
21
2.695611496062992
0
LINE
8
BLACK
6
CONTINUOUS
10
-1.777047125984252
20
2.695611496062992
11
-1.7777826377952755
21
2.6872047244094488
0
LINE
8
BLACK
6
CONTINUOUS
10
-1.7777826377952755
20
2.6872047244094488
11
-1.777047125984252
21
2.6787979527559056
0
CIRCLE
8
BLACK
10
1.7
20
1.9450000000000001
40
0.0068897637795276
0
CIRCLE
8
BLACK
10
1.5999999999999999
20
1.9450000000000001
40
0.0068897637795276
0
CIRCLE
8
BLACK
10
1.7
20
2.0449999999999999
40
0.0068897637795276
0
CIRCLE
8
BLACK
10
1.5999999999999999
20
2.0449999999999999
40
0.0068897637795276
0
CIRCLE
8
BLACK
10
1.7
20
2.145
40
0.0068897637795276
0
CIRCLE
8
BLACK
10
1.5999999999999999
20
2.145
40
0.0068897637795276
0
CIRCLE
8
BLACK
10
-0.24
20
0.635
40
0.0068897637795276
0
CIRCLE
8
BLACK
10
-0.24
20
0.535
40
0.0068897637795276
0
CIRCLE
8
BLACK
10
-0.34
20
0.635
40
0.0068897637795276
0
CIRCLE
8
BLACK
10
-0.34
20
0.535
40
0.0068897637795276
0
CIRCLE
8
BLACK
10
-0.44
20
0.635
40
0.0068897637795276
0
CIRCLE
8
BLACK
10
-0.44
20
0.535
40
0.0068897637795276
0
CIRCLE
8
BLACK
10
-0.54
20
0.635
40
0.0068897637795276
0
CIRCLE
8
BLACK
10
-0.54
20
0.535
40
0.0068897637795276
0
CIRCLE
8
BLACK
10
-0.64
20
0.635
40
0.0068897637795276
0
CIRCLE
8
BLACK
10
-0.64
20
0.535
40
0.0068897637795276
0
CIRCLE
8
BLACK
10
-1.99
20
2.625
40
0.0068897637795276
0
CIRCLE
8
BLACK
10
1.6099999999999999
20
2.625
40
0.0068897637795276
0
CIRCLE
8
BLACK
10
-1.24
20
2.6149999999999998
40
0.0068897637795276
0
CIRCLE
8
BLACK
10
-1.24
20
2.7149999999999999
40
0.0068897637795276
0
CIRCLE
8
BLACK
10
-1.1399999999999999
20
2.6149999999999998
40
0.0068897637795276
0
CIRCLE
8
BLACK
10
-1.1399999999999999
20
2.7149999999999999
40
0.0068897637795276
0
CIRCLE
8
BLACK
10
-1.04
20
2.6149999999999998
40
0.0068897637795276
0
CIRCLE
8
BLACK
10
-1.04
20
2.7149999999999999
40
0.0068897637795276
0
CIRCLE
8
BLACK
10
-0.9399999999999999
20
2.6149999999999998
40
0.0068897637795276
0
CIRCLE
8
BLACK
10
-0.9399999999999999
20
2.7149999999999999
40
0.0068897637795276
0
CIRCLE
8
BLACK
10
-0.84
20
2.6149999999999998
40
0.0068897637795276
0
CIRCLE
8
BLACK
10
-0.84
20
2.7149999999999999
40
0.0068897637795276
0
CIRCLE
8
BLACK
10
-0.74
20
2.6149999999999998
40
0.0068897637795276
0
CIRCLE
8
BLACK
10
-0.74
20
2.7149999999999999
40
0.0068897637795276
0
CIRCLE
8
BLACK
10
-0.64
20
2.6149999999999998
40
0.0068897637795276
0
CIRCLE
8
BLACK
10
-0.64
20
2.7149999999999999
40
0.0068897637795276
0
CIRCLE
8
BLACK
10
-0.51
20
2.6149999999999998
40
0.0068897637795276
0
CIRCLE
8
BLACK
10
-0.51
20
2.7149999999999999
40
0.0068897637795276
0
CIRCLE
8
BLACK
10
-0.41
20
2.6149999999999998
40
0.0068897637795276
0
CIRCLE
8
BLACK
10
-0.41
20
2.7149999999999999
40
0.0068897637795276
0
CIRCLE
8
BLACK
10
-0.31
20
2.6149999999999998
40
0.0068897637795276
0
CIRCLE
8
BLACK
10
-0.31
20
2.7149999999999999
40
0.0068897637795276
0
CIRCLE
8
BLACK
10
-1.99
20
0.625
40
0.0068897637795276
0
CIRCLE
8
BLACK
10
-1.2793700787401574
20
1.8277559055118109
40
0.0068897637795276
0
CIRCLE
8
BLACK
10
-1.2793700787401574
20
1.0009842519685039
40
0.0068897637795276
0
CIRCLE
8
BLACK
10
-1.99
20
2.2050000000000001
40
0.0068897637795276
0
CIRCLE
8
BLACK
10
-2.0899999999999999
20
2.3050000000000002
40
0.0068897637795276
0
CIRCLE
8
BLACK
10
-2.0899999999999999
20
2.105
40
0.0068897637795276
0
CIRCLE
8
BLACK
10
-1.8899999999999999
20
2.3050000000000002
40
0.0068897637795276
0
CIRCLE
8
BLACK
10
-1.8899999999999999
20
2.105
40
0.0068897637795276
0
CIRCLE
8
BLACK
10
0.9399999999999999
20
2.4049999999999998
40
0.0068897637795276
0
CIRCLE
8
BLACK
10
1.235275590551181
20
2.4049999999999998
40
0.0068897637795276
0
CIRCLE
8
BLACK
10
0.37
20
2.6149999999999998
40
0.0068897637795276
0
CIRCLE
8
BLACK
10
0.37
20
2.7149999999999999
40
0.0068897637795276
0
CIRCLE
8
BLACK
10
0.47
20
2.6149999999999998
40
0.0068897637795276
0
CIRCLE
8
BLACK
10
0.47
20
2.7149999999999999
40
0.0068897637795276
0
CIRCLE
8
BLACK
10
0.57
20
2.6149999999999998
40
0.0068897637795276
0
CIRCLE
8
BLACK
10
0.57
20
2.7149999999999999
40
0.0068897637795276
0
CIRCLE
8
BLACK
10
-1.0069291338582678
20
1.776496062992126
40
0.0068897637795276
0
CIRCLE
8
BLACK
10
-0.9069291338582677
20
1.776496062992126
40
0.0068897637795276
0
CIRCLE
8
BLACK
10
1.6099999999999999
20
0.625
40
0.0068897637795276
0
CIRCLE
8
BLACK
10
-1.47
20
2.6149999999999998
40
0.0068897637795276
0
CIRCLE
8
BLACK
10
-1.47
20
2.7149999999999999
40
0.0068897637795276
0
CIRCLE
8
BLACK
10
-1.3699999999999999
20
2.6149999999999998
40
0.0068897637795276
0
CIRCLE
8
BLACK
10
-1.3699999999999999
20
2.7149999999999999
40
0.0068897637795276
0
CIRCLE
8
BLACK
10
0.33
20
2.0049999999999999
40
0.0068897637795276
0
CIRCLE
8
BLACK
10
0.43
20
2.0049999999999999
40
0.0068897637795276
0
CIRCLE
8
BLACK
10
-1.1699999999999999
20
0.535
40
0.0068897637795276
0
CIRCLE
8
BLACK
10
-1.1699999999999999
20
0.635
40
0.0068897637795276
0
CIRCLE
8
BLACK
10
-1.0700000000000001
20
0.535
40
0.0068897637795276
0
CIRCLE
8
BLACK
10
-1.0700000000000001
20
0.635
40
0.0068897637795276
0
CIRCLE
8
BLACK
10
-0.97
20
0.535
40
0.0068897637795276
0
CIRCLE
8
BLACK
10
-0.97
20
0.635
40
0.0068897637795276
0
CIRCLE
8
BLACK
10
-0.87
20
0.535
40
0.0068897637795276
0
CIRCLE
8
BLACK
10
-0.87
20
0.635
40
0.0068897637795276
0
CIRCLE
8
BLACK
10
-0.77
20
0.535
40
0.0068897637795276
0
CIRCLE
8
BLACK
10
-0.77
20
0.635
40
0.0068897637795276
0
CIRCLE
8
BLACK
10
1.5999999999999999
20
1.7249999999999999
40
0.0068897637795276
0
CIRCLE
8
BLACK
10
1.7
20
1.7249999999999999
40
0.0068897637795276
0
CIRCLE
8
BLACK
10
1.5999999999999999
20
1.625
40
0.0068897637795276
0
CIRCLE
8
BLACK
10
1.7
20
1.625
40
0.0068897637795276
0
CIRCLE
8
BLACK
10
1.5999999999999999
20
1.5249999999999999
40
0.0068897637795276
0
CIRCLE
8
BLACK
10
1.7
20
1.5249999999999999
40
0.0068897637795276
0
CIRCLE
8
BLACK
10
-0.9194488188976377
20
2.2426181102362204
40
0.0039370078740157
0
CIRCLE
8
BLACK
10
-0.9607874015748031
20
2.2426181102362204
40
0.0039370078740157
0
CIRCLE
8
BLACK
10
-1.0021259842519685
20
2.2426181102362204
40
0.0039370078740157
0
CIRCLE
8
BLACK
10
-0.9194488188976377
20
2.2012795275590551
40
0.0039370078740157
0
CIRCLE
8
BLACK
10
-0.9607874015748031
20
2.2012795275590551
40
0.0039370078740157
0
CIRCLE
8
BLACK
10
-1.0021259842519685
20
2.2012795275590551
40
0.0039370078740157
0
CIRCLE
8
BLACK
10
-0.9194488188976377
20
2.1599409448818898
40
0.0039370078740157
0
CIRCLE
8
BLACK
10
-0.9607874015748031
20
2.1599409448818898
40
0.0039370078740157
0
CIRCLE
8
BLACK
10
-1.0021259842519685
20
2.1599409448818898
40
0.0039370078740157
0
CIRCLE
8
BLACK
10
-0.4301574803149606
20
2.3624015748031497
40
0.0049212598425197
0
CIRCLE
8
BLACK
10
-0.3907874015748031
20
2.3624015748031497
40
0.0049212598425197
  0
ENDSEC
  0
EOF
