  0
SECTION
  2
HEADER
  9
$ANGBASE
  50
0.0
  9
$ANGDIR
  70
1
  9
$MEASUREMENT
  70
0
  0
ENDSEC
  0
SECTION
  2
TABLES
  0
TABLE
  2
LTYPE
  70
4
  0
LTYPE
  5
40F
  2
CONTINUOUS
  70
0
  3
Solid line
  72
65
  73
0
  40
0.0
  0
LTYPE
  5
410
  2
DASHDOT
 70
0
  3
Dash Dot ____ _ ____ _
 72
65
 73
4
 40
2.0
 49
1.25
 49
-0.25
 49
0.25
 49
-0.25
  0
LTYPE
  5
411
  2
DASHED
 70
0
  3
Dashed __ __ __ __ __
 72
65
 73
2
 40
0.75
 49
0.5
 49
-0.25
  0
LTYPE
  5
43B
  2
DOTTED
 70
0
  3
Dotted .  .  .  .
 72
65
 73
2
 40
0.2
 49
0.0
 49
-0.2
  0
ENDTAB
  0
TABLE
  2
STYLE
  70
4
  0
STYLE
  2
KICAD
  70
0
  40
0
  41
1
  42
1
  50
0
  71
0
  3
isocp.shx
  0
STYLE
  2
KICADB
  70
0
  40
0
  41
1
  42
1
  50
0
  71
0
  3
isocp.shx
  0
STYLE
  2
KICADI
  70
0
  40
0
  41
1
  42
1
  50
15
  71
0
  3
isocp.shx
  0
STYLE
  2
KICADBI
  70
0
  40
0
  41
1
  42
1
  50
15
  71
0
  3
isocp.shx
  0
ENDTAB
  0
TABLE
  2
LAYER
  70
1
  0
LAYER
  2
BLACK
  70
0
  62
7
  6
CONTINUOUS
  0
ENDTAB
  0
ENDSEC
  0
SECTION
  2
ENTITIES
0
CIRCLE
8
BLACK
10
1.7
20
1.9450000000000001
40
0.0068897637795276
0
CIRCLE
8
BLACK
10
1.5999999999999999
20
1.9450000000000001
40
0.0068897637795276
0
CIRCLE
8
BLACK
10
1.7
20
2.0449999999999999
40
0.0068897637795276
0
CIRCLE
8
BLACK
10
1.5999999999999999
20
2.0449999999999999
40
0.0068897637795276
0
CIRCLE
8
BLACK
10
1.7
20
2.145
40
0.0068897637795276
0
CIRCLE
8
BLACK
10
1.5999999999999999
20
2.145
40
0.0068897637795276
0
CIRCLE
8
BLACK
10
-0.24
20
0.635
40
0.0068897637795276
0
CIRCLE
8
BLACK
10
-0.24
20
0.535
40
0.0068897637795276
0
CIRCLE
8
BLACK
10
-0.34
20
0.635
40
0.0068897637795276
0
CIRCLE
8
BLACK
10
-0.34
20
0.535
40
0.0068897637795276
0
CIRCLE
8
BLACK
10
-0.44
20
0.635
40
0.0068897637795276
0
CIRCLE
8
BLACK
10
-0.44
20
0.535
40
0.0068897637795276
0
CIRCLE
8
BLACK
10
-0.54
20
0.635
40
0.0068897637795276
0
CIRCLE
8
BLACK
10
-0.54
20
0.535
40
0.0068897637795276
0
CIRCLE
8
BLACK
10
-0.64
20
0.635
40
0.0068897637795276
0
CIRCLE
8
BLACK
10
-0.64
20
0.535
40
0.0068897637795276
0
CIRCLE
8
BLACK
10
-1.99
20
2.625
40
0.0068897637795276
0
CIRCLE
8
BLACK
10
1.6099999999999999
20
2.625
40
0.0068897637795276
0
CIRCLE
8
BLACK
10
-1.24
20
2.6149999999999998
40
0.0068897637795276
0
CIRCLE
8
BLACK
10
-1.24
20
2.7149999999999999
40
0.0068897637795276
0
CIRCLE
8
BLACK
10
-1.1399999999999999
20
2.6149999999999998
40
0.0068897637795276
0
CIRCLE
8
BLACK
10
-1.1399999999999999
20
2.7149999999999999
40
0.0068897637795276
0
CIRCLE
8
BLACK
10
-1.04
20
2.6149999999999998
40
0.0068897637795276
0
CIRCLE
8
BLACK
10
-1.04
20
2.7149999999999999
40
0.0068897637795276
0
CIRCLE
8
BLACK
10
-0.9399999999999999
20
2.6149999999999998
40
0.0068897637795276
0
CIRCLE
8
BLACK
10
-0.9399999999999999
20
2.7149999999999999
40
0.0068897637795276
0
CIRCLE
8
BLACK
10
-0.84
20
2.6149999999999998
40
0.0068897637795276
0
CIRCLE
8
BLACK
10
-0.84
20
2.7149999999999999
40
0.0068897637795276
0
CIRCLE
8
BLACK
10
-0.74
20
2.6149999999999998
40
0.0068897637795276
0
CIRCLE
8
BLACK
10
-0.74
20
2.7149999999999999
40
0.0068897637795276
0
CIRCLE
8
BLACK
10
-0.64
20
2.6149999999999998
40
0.0068897637795276
0
CIRCLE
8
BLACK
10
-0.64
20
2.7149999999999999
40
0.0068897637795276
0
CIRCLE
8
BLACK
10
-0.51
20
2.6149999999999998
40
0.0068897637795276
0
CIRCLE
8
BLACK
10
-0.51
20
2.7149999999999999
40
0.0068897637795276
0
CIRCLE
8
BLACK
10
-0.41
20
2.6149999999999998
40
0.0068897637795276
0
CIRCLE
8
BLACK
10
-0.41
20
2.7149999999999999
40
0.0068897637795276
0
CIRCLE
8
BLACK
10
-0.31
20
2.6149999999999998
40
0.0068897637795276
0
CIRCLE
8
BLACK
10
-0.31
20
2.7149999999999999
40
0.0068897637795276
0
CIRCLE
8
BLACK
10
-1.99
20
0.625
40
0.0068897637795276
0
CIRCLE
8
BLACK
10
-1.2793700787401574
20
1.8277559055118109
40
0.0068897637795276
0
CIRCLE
8
BLACK
10
-1.2793700787401574
20
1.0009842519685039
40
0.0068897637795276
0
CIRCLE
8
BLACK
10
-1.99
20
2.2050000000000001
40
0.0068897637795276
0
CIRCLE
8
BLACK
10
-2.0899999999999999
20
2.3050000000000002
40
0.0068897637795276
0
CIRCLE
8
BLACK
10
-2.0899999999999999
20
2.105
40
0.0068897637795276
0
CIRCLE
8
BLACK
10
-1.8899999999999999
20
2.3050000000000002
40
0.0068897637795276
0
CIRCLE
8
BLACK
10
-1.8899999999999999
20
2.105
40
0.0068897637795276
0
CIRCLE
8
BLACK
10
0.9399999999999999
20
2.4049999999999998
40
0.0068897637795276
0
CIRCLE
8
BLACK
10
1.235275590551181
20
2.4049999999999998
40
0.0068897637795276
0
CIRCLE
8
BLACK
10
0.37
20
2.6149999999999998
40
0.0068897637795276
0
CIRCLE
8
BLACK
10
0.37
20
2.7149999999999999
40
0.0068897637795276
0
CIRCLE
8
BLACK
10
0.47
20
2.6149999999999998
40
0.0068897637795276
0
CIRCLE
8
BLACK
10
0.47
20
2.7149999999999999
40
0.0068897637795276
0
CIRCLE
8
BLACK
10
0.57
20
2.6149999999999998
40
0.0068897637795276
0
CIRCLE
8
BLACK
10
0.57
20
2.7149999999999999
40
0.0068897637795276
0
CIRCLE
8
BLACK
10
-1.0069291338582678
20
1.776496062992126
40
0.0068897637795276
0
CIRCLE
8
BLACK
10
-0.9069291338582677
20
1.776496062992126
40
0.0068897637795276
0
CIRCLE
8
BLACK
10
1.6099999999999999
20
0.625
40
0.0068897637795276
0
CIRCLE
8
BLACK
10
-1.47
20
2.6149999999999998
40
0.0068897637795276
0
CIRCLE
8
BLACK
10
-1.47
20
2.7149999999999999
40
0.0068897637795276
0
CIRCLE
8
BLACK
10
-1.3699999999999999
20
2.6149999999999998
40
0.0068897637795276
0
CIRCLE
8
BLACK
10
-1.3699999999999999
20
2.7149999999999999
40
0.0068897637795276
0
CIRCLE
8
BLACK
10
0.33
20
2.0049999999999999
40
0.0068897637795276
0
CIRCLE
8
BLACK
10
0.43
20
2.0049999999999999
40
0.0068897637795276
0
CIRCLE
8
BLACK
10
-1.1699999999999999
20
0.535
40
0.0068897637795276
0
CIRCLE
8
BLACK
10
-1.1699999999999999
20
0.635
40
0.0068897637795276
0
CIRCLE
8
BLACK
10
-1.0700000000000001
20
0.535
40
0.0068897637795276
0
CIRCLE
8
BLACK
10
-1.0700000000000001
20
0.635
40
0.0068897637795276
0
CIRCLE
8
BLACK
10
-0.97
20
0.535
40
0.0068897637795276
0
CIRCLE
8
BLACK
10
-0.97
20
0.635
40
0.0068897637795276
0
CIRCLE
8
BLACK
10
-0.87
20
0.535
40
0.0068897637795276
0
CIRCLE
8
BLACK
10
-0.87
20
0.635
40
0.0068897637795276
0
CIRCLE
8
BLACK
10
-0.77
20
0.535
40
0.0068897637795276
0
CIRCLE
8
BLACK
10
-0.77
20
0.635
40
0.0068897637795276
0
CIRCLE
8
BLACK
10
1.5999999999999999
20
1.7249999999999999
40
0.0068897637795276
0
CIRCLE
8
BLACK
10
1.7
20
1.7249999999999999
40
0.0068897637795276
0
CIRCLE
8
BLACK
10
1.5999999999999999
20
1.625
40
0.0068897637795276
0
CIRCLE
8
BLACK
10
1.7
20
1.625
40
0.0068897637795276
0
CIRCLE
8
BLACK
10
1.5999999999999999
20
1.5249999999999999
40
0.0068897637795276
0
CIRCLE
8
BLACK
10
1.7
20
1.5249999999999999
40
0.0068897637795276
0
CIRCLE
8
BLACK
10
-0.9194488188976377
20
2.2426181102362204
40
0.0039370078740157
0
CIRCLE
8
BLACK
10
-0.9607874015748031
20
2.2426181102362204
40
0.0039370078740157
0
CIRCLE
8
BLACK
10
-1.0021259842519685
20
2.2426181102362204
40
0.0039370078740157
0
CIRCLE
8
BLACK
10
-0.9194488188976377
20
2.2012795275590551
40
0.0039370078740157
0
CIRCLE
8
BLACK
10
-0.9607874015748031
20
2.2012795275590551
40
0.0039370078740157
0
CIRCLE
8
BLACK
10
-1.0021259842519685
20
2.2012795275590551
40
0.0039370078740157
0
CIRCLE
8
BLACK
10
-0.9194488188976377
20
2.1599409448818898
40
0.0039370078740157
0
CIRCLE
8
BLACK
10
-0.9607874015748031
20
2.1599409448818898
40
0.0039370078740157
0
CIRCLE
8
BLACK
10
-1.0021259842519685
20
2.1599409448818898
40
0.0039370078740157
0
CIRCLE
8
BLACK
10
-0.4301574803149606
20
2.3624015748031497
40
0.0049212598425197
0
CIRCLE
8
BLACK
10
-0.3907874015748031
20
2.3624015748031497
40
0.0049212598425197
  0
ENDSEC
  0
EOF
