  0
SECTION
  2
HEADER
  9
$ANGBASE
  50
0.0
  9
$ANGDIR
  70
1
  9
$MEASUREMENT
  70
0
  0
ENDSEC
  0
SECTION
  2
TABLES
  0
TABLE
  2
LTYPE
  70
4
  0
LTYPE
  5
40F
  2
CONTINUOUS
  70
0
  3
Solid line
  72
65
  73
0
  40
0.0
  0
LTYPE
  5
410
  2
DASHDOT
 70
0
  3
Dash Dot ____ _ ____ _
 72
65
 73
4
 40
2.0
 49
1.25
 49
-0.25
 49
0.25
 49
-0.25
  0
LTYPE
  5
411
  2
DASHED
 70
0
  3
Dashed __ __ __ __ __
 72
65
 73
2
 40
0.75
 49
0.5
 49
-0.25
  0
LTYPE
  5
43B
  2
DOTTED
 70
0
  3
Dotted .  .  .  .
 72
65
 73
2
 40
0.2
 49
0.0
 49
-0.2
  0
ENDTAB
  0
TABLE
  2
STYLE
  70
4
  0
STYLE
  2
KICAD
  70
0
  40
0
  41
1
  42
1
  50
0
  71
0
  3
isocp.shx
  0
STYLE
  2
KICADB
  70
0
  40
0
  41
1
  42
1
  50
0
  71
0
  3
isocp.shx
  0
STYLE
  2
KICADI
  70
0
  40
0
  41
1
  42
1
  50
15
  71
0
  3
isocp.shx
  0
STYLE
  2
KICADBI
  70
0
  40
0
  41
1
  42
1
  50
15
  71
0
  3
isocp.shx
  0
ENDTAB
  0
TABLE
  2
LAYER
  70
1
  0
LAYER
  2
BLACK
  70
0
  62
7
  6
CONTINUOUS
  0
ENDTAB
  0
ENDSEC
  0
SECTION
  2
ENTITIES
0
LINE
8
BLACK
6
CONTINUOUS
10
1.6119743307086614
20
1.1940768503937007
11
1.6263375196850394
21
1.1909152362204725
0
LINE
8
BLACK
6
CONTINUOUS
10
1.6263375196850394
20
1.1909152362204725
11
1.6402746850393701
21
1.1862192913385827
0
LINE
8
BLACK
6
CONTINUOUS
10
1.6402746850393701
20
1.1862192913385827
11
1.6536224015748031
21
1.1800439763779527
0
LINE
8
BLACK
6
CONTINUOUS
10
1.6536224015748031
20
1.1800439763779527
11
1.6662242125984252
21
1.1724616929133858
0
LINE
8
BLACK
6
CONTINUOUS
10
1.6662242125984252
20
1.1724616929133858
11
1.6779324015748032
21
1.1635613779527558
0
LINE
8
BLACK
6
CONTINUOUS
10
1.6779324015748032
20
1.1635613779527558
11
1.6886096062992126
21
1.1534473622047243
0
LINE
8
BLACK
6
CONTINUOUS
10
1.6886096062992126
20
1.1534473622047243
11
1.698130748031496
21
1.1422382283464567
0
LINE
8
BLACK
6
CONTINUOUS
10
1.698130748031496
20
1.1422382283464567
11
1.7063841338582677
21
1.1300653937007874
0
LINE
8
BLACK
6
CONTINUOUS
10
1.7063841338582677
20
1.1300653937007874
11
1.7132730314960629
21
1.1170715354330709
0
LINE
8
BLACK
6
CONTINUOUS
10
1.7132730314960629
20
1.1170715354330709
11
1.7187166535433069
21
1.1034090551181102
0
LINE
8
BLACK
6
CONTINUOUS
10
1.7187166535433069
20
1.1034090551181102
11
1.7226512204724409
21
1.0892381102362205
0
LINE
8
BLACK
6
CONTINUOUS
10
1.7226512204724409
20
1.0892381102362205
11
1.7250305511811024
21
1.0747248425196849
0
LINE
8
BLACK
6
CONTINUOUS
10
1.7250305511811024
20
1.0747248425196849
11
1.7258267716535434
21
1.0600393700787401
0
LINE
8
BLACK
6
CONTINUOUS
10
1.7258267716535434
20
1.0600393700787401
11
1.7250305511811024
21
1.0453538976377952
0
LINE
8
BLACK
6
CONTINUOUS
10
1.7250305511811024
20
1.0453538976377952
11
1.7226512204724409
21
1.0308406299212598
0
LINE
8
BLACK
6
CONTINUOUS
10
1.7226512204724409
20
1.0308406299212598
11
1.7187166535433069
21
1.0166696850393702
0
LINE
8
BLACK
6
CONTINUOUS
10
1.7187166535433069
20
1.0166696850393702
11
1.7132730314960629
21
1.0030072047244094
0
LINE
8
BLACK
6
CONTINUOUS
10
1.7132730314960629
20
1.0030072047244094
11
1.7063841338582677
21
0.9900133464566929
0
LINE
8
BLACK
6
CONTINUOUS
10
1.7063841338582677
20
0.9900133464566929
11
1.698130748031496
21
0.9778405118110236
0
LINE
8
BLACK
6
CONTINUOUS
10
1.698130748031496
20
0.9778405118110236
11
1.6886096062992126
21
0.9666313779527559
0
LINE
8
BLACK
6
CONTINUOUS
10
1.6886096062992126
20
0.9666313779527559
11
1.6779324015748032
21
0.9565173622047244
0
LINE
8
BLACK
6
CONTINUOUS
10
1.6779324015748032
20
0.9565173622047244
11
1.6662242125984252
21
0.9476170472440945
0
LINE
8
BLACK
6
CONTINUOUS
10
1.6662242125984252
20
0.9476170472440945
11
1.6536224015748031
21
0.9400347637795275
0
LINE
8
BLACK
6
CONTINUOUS
10
1.6536224015748031
20
0.9400347637795275
11
1.6402746850393701
21
0.9338594488188976
0
LINE
8
BLACK
6
CONTINUOUS
10
1.6402746850393701
20
0.9338594488188976
11
1.6263375196850394
21
0.9291635039370079
0
LINE
8
BLACK
6
CONTINUOUS
10
1.6263375196850394
20
0.9291635039370079
11
1.6119743307086614
21
0.9260018897637795
0
LINE
8
BLACK
6
CONTINUOUS
10
1.6119743307086614
20
0.9260018897637795
11
1.5973535039370079
21
0.924411811023622
0
LINE
8
BLACK
6
CONTINUOUS
10
1.5973535039370079
20
0.924411811023622
11
1.582646496062992
21
0.924411811023622
0
LINE
8
BLACK
6
CONTINUOUS
10
1.582646496062992
20
0.924411811023622
11
1.5680256692913386
21
0.9260018897637795
0
LINE
8
BLACK
6
CONTINUOUS
10
1.5680256692913386
20
0.9260018897637795
11
1.5536624803149606
21
0.9291635039370079
0
LINE
8
BLACK
6
CONTINUOUS
10
1.5536624803149606
20
0.9291635039370079
11
1.5397253149606298
21
0.9338594488188976
0
LINE
8
BLACK
6
CONTINUOUS
10
1.5397253149606298
20
0.9338594488188976
11
1.5263775984251968
21
0.9400347637795275
0
LINE
8
BLACK
6
CONTINUOUS
10
1.5263775984251968
20
0.9400347637795275
11
1.5137757874015747
21
0.9476170472440945
0
LINE
8
BLACK
6
CONTINUOUS
10
1.5137757874015747
20
0.9476170472440945
11
1.5020675984251968
21
0.9565173622047244
0
LINE
8
BLACK
6
CONTINUOUS
10
1.5020675984251968
20
0.9565173622047244
11
1.4913903937007873
21
0.9666313779527559
0
LINE
8
BLACK
6
CONTINUOUS
10
1.4913903937007873
20
0.9666313779527559
11
1.4818692519685039
21
0.9778405118110236
0
LINE
8
BLACK
6
CONTINUOUS
10
1.4818692519685039
20
0.9778405118110236
11
1.4736158661417322
21
0.9900133464566929
0
LINE
8
BLACK
6
CONTINUOUS
10
1.4736158661417322
20
0.9900133464566929
11
1.466726968503937
21
1.0030072047244094
0
LINE
8
BLACK
6
CONTINUOUS
10
1.466726968503937
20
1.0030072047244094
11
1.4612833464566928
21
1.0166696850393702
0
LINE
8
BLACK
6
CONTINUOUS
10
1.4612833464566928
20
1.0166696850393702
11
1.457348779527559
21
1.0308406299212598
0
LINE
8
BLACK
6
CONTINUOUS
10
1.457348779527559
20
1.0308406299212598
11
1.4549694488188976
21
1.0453538976377952
0
LINE
8
BLACK
6
CONTINUOUS
10
1.4549694488188976
20
1.0453538976377952
11
1.4541732283464566
21
1.0600393700787401
0
LINE
8
BLACK
6
CONTINUOUS
10
1.4541732283464566
20
1.0600393700787401
11
1.4549694488188976
21
1.0747248425196849
0
LINE
8
BLACK
6
CONTINUOUS
10
1.4549694488188976
20
1.0747248425196849
11
1.457348779527559
21
1.0892381102362205
0
LINE
8
BLACK
6
CONTINUOUS
10
1.457348779527559
20
1.0892381102362205
11
1.4612833464566928
21
1.1034090551181102
0
LINE
8
BLACK
6
CONTINUOUS
10
1.4612833464566928
20
1.1034090551181102
11
1.466726968503937
21
1.1170715354330709
0
LINE
8
BLACK
6
CONTINUOUS
10
1.466726968503937
20
1.1170715354330709
11
1.4736158661417322
21
1.1300653937007874
0
LINE
8
BLACK
6
CONTINUOUS
10
1.4736158661417322
20
1.1300653937007874
11
1.4818692519685039
21
1.1422382283464567
0
LINE
8
BLACK
6
CONTINUOUS
10
1.4818692519685039
20
1.1422382283464567
11
1.4913903937007873
21
1.1534473622047243
0
LINE
8
BLACK
6
CONTINUOUS
10
1.4913903937007873
20
1.1534473622047243
11
1.5020675984251968
21
1.1635613779527558
0
LINE
8
BLACK
6
CONTINUOUS
10
1.5020675984251968
20
1.1635613779527558
11
1.5137757874015747
21
1.1724616929133858
0
LINE
8
BLACK
6
CONTINUOUS
10
1.5137757874015747
20
1.1724616929133858
11
1.5263775984251968
21
1.1800439763779527
0
LINE
8
BLACK
6
CONTINUOUS
10
1.5263775984251968
20
1.1800439763779527
11
1.5397253149606298
21
1.1862192913385827
0
LINE
8
BLACK
6
CONTINUOUS
10
1.5397253149606298
20
1.1862192913385827
11
1.5536624803149606
21
1.1909152362204725
0
LINE
8
BLACK
6
CONTINUOUS
10
1.5536624803149606
20
1.1909152362204725
11
1.5680256692913386
21
1.1940768503937007
0
LINE
8
BLACK
6
CONTINUOUS
10
1.5680256692913386
20
1.1940768503937007
11
1.582646496062992
21
1.1956669291338582
0
LINE
8
BLACK
6
CONTINUOUS
10
1.582646496062992
20
1.1956669291338582
11
1.5973535039370079
21
1.1956669291338582
0
LINE
8
BLACK
6
CONTINUOUS
10
1.5973535039370079
20
1.1956669291338582
11
1.6119743307086614
21
1.1940768503937007
0
LINE
8
BLACK
6
CONTINUOUS
10
1.4586908267716534
20
1.0457586220472441
11
1.4610045669291338
21
1.0316453149606299
0
LINE
8
BLACK
6
CONTINUOUS
10
1.4610045669291338
20
1.0316453149606299
11
1.4648306692913386
21
1.0178649212598425
0
LINE
8
BLACK
6
CONTINUOUS
10
1.4648306692913386
20
1.0178649212598425
11
1.4701242913385826
21
1.0045789763779527
0
LINE
8
BLACK
6
CONTINUOUS
10
1.4701242913385826
20
1.0045789763779527
11
1.4768233464566929
21
0.9919432283464567
0
LINE
8
BLACK
6
CONTINUOUS
10
1.4768233464566929
20
0.9919432283464567
11
1.4848492519685039
21
0.9801058661417322
0
LINE
8
BLACK
6
CONTINUOUS
10
1.4848492519685039
20
0.9801058661417322
11
1.4941079921259841
21
0.9692056299212598
0
LINE
8
BLACK
6
CONTINUOUS
10
1.4941079921259841
20
0.9692056299212598
11
1.5044909842519685
21
0.9593703543307086
0
LINE
8
BLACK
6
CONTINUOUS
10
1.5044909842519685
20
0.9593703543307086
11
1.5158764566929133
21
0.9507153543307086
0
LINE
8
BLACK
6
CONTINUOUS
10
1.5158764566929133
20
0.9507153543307086
11
1.5281309842519684
21
0.9433420472440944
0
LINE
8
BLACK
6
CONTINUOUS
10
1.5281309842519684
20
0.9433420472440944
11
1.5411108661417323
21
0.9373368897637795
0
LINE
8
BLACK
6
CONTINUOUS
10
1.5411108661417323
20
0.9373368897637795
11
1.5546639370078741
21
0.9327703543307087
0
LINE
8
BLACK
6
CONTINUOUS
10
1.5546639370078741
20
0.9327703543307087
11
1.5686312598425196
21
0.929695905511811
0
LINE
8
BLACK
6
CONTINUOUS
10
1.5686312598425196
20
0.929695905511811
11
1.5828491338582678
21
0.9281496062992126
0
LINE
8
BLACK
6
CONTINUOUS
10
1.5828491338582678
20
0.9281496062992126
11
1.5971508661417322
21
0.9281496062992126
0
LINE
8
BLACK
6
CONTINUOUS
10
1.5971508661417322
20
0.9281496062992126
11
1.6113687401574803
21
0.929695905511811
0
LINE
8
BLACK
6
CONTINUOUS
10
1.6113687401574803
20
0.929695905511811
11
1.6253360629921259
21
0.9327703543307087
0
LINE
8
BLACK
6
CONTINUOUS
10
1.6253360629921259
20
0.9327703543307087
11
1.6388891338582676
21
0.9373368897637795
0
LINE
8
BLACK
6
CONTINUOUS
10
1.6388891338582676
20
0.9373368897637795
11
1.6518690157480314
21
0.9433420472440944
0
LINE
8
BLACK
6
CONTINUOUS
10
1.6518690157480314
20
0.9433420472440944
11
1.6641235433070867
21
0.9507153543307086
0
LINE
8
BLACK
6
CONTINUOUS
10
1.6641235433070867
20
0.9507153543307086
11
1.6755090157480315
21
0.9593703543307086
0
LINE
8
BLACK
6
CONTINUOUS
10
1.6755090157480315
20
0.9593703543307086
11
1.6858920078740156
21
0.9692056299212598
0
LINE
8
BLACK
6
CONTINUOUS
10
1.6858920078740156
20
0.9692056299212598
11
1.695150748031496
21
0.9801058661417322
0
LINE
8
BLACK
6
CONTINUOUS
10
1.695150748031496
20
0.9801058661417322
11
1.7031766535433071
21
0.9919432283464567
0
LINE
8
BLACK
6
CONTINUOUS
10
1.7031766535433071
20
0.9919432283464567
11
1.7098757086614174
21
1.0045789763779527
0
LINE
8
BLACK
6
CONTINUOUS
10
1.7098757086614174
20
1.0045789763779527
11
1.7151693307086613
21
1.0178649212598425
0
LINE
8
BLACK
6
CONTINUOUS
10
1.7151693307086613
20
1.0178649212598425
11
1.7189954330708661
21
1.0316453149606299
0
LINE
8
BLACK
6
CONTINUOUS
10
1.7189954330708661
20
1.0316453149606299
11
1.7213091732283463
21
1.0457586220472441
0
LINE
8
BLACK
6
CONTINUOUS
10
1.7213091732283463
20
1.0457586220472441
11
1.7220834645669292
21
1.0600393700787401
0
LINE
8
BLACK
6
CONTINUOUS
10
1.7220834645669292
20
1.0600393700787401
11
1.7213091732283463
21
1.0743201181102362
0
LINE
8
BLACK
6
CONTINUOUS
10
1.7213091732283463
20
1.0743201181102362
11
1.7189954330708661
21
1.0884334251968504
0
LINE
8
BLACK
6
CONTINUOUS
10
1.7189954330708661
20
1.0884334251968504
11
1.7151693307086613
21
1.1022138188976378
0
LINE
8
BLACK
6
CONTINUOUS
10
1.7151693307086613
20
1.1022138188976378
11
1.7098757086614174
21
1.1154997637795276
0
LINE
8
BLACK
6
CONTINUOUS
10
1.7098757086614174
20
1.1154997637795276
11
1.7031766535433071
21
1.1281355118110237
0
LINE
8
BLACK
6
CONTINUOUS
10
1.7031766535433071
20
1.1281355118110237
11
1.695150748031496
21
1.139972874015748
0
LINE
8
BLACK
6
CONTINUOUS
10
1.695150748031496
20
1.139972874015748
11
1.6858920078740156
21
1.1508731102362204
0
LINE
8
BLACK
6
CONTINUOUS
10
1.6858920078740156
20
1.1508731102362204
11
1.6755090157480315
21
1.1607083858267717
0
LINE
8
BLACK
6
CONTINUOUS
10
1.6755090157480315
20
1.1607083858267717
11
1.6641235433070867
21
1.1693633858267716
0
LINE
8
BLACK
6
CONTINUOUS
10
1.6641235433070867
20
1.1693633858267716
11
1.6518690157480314
21
1.1767366929133858
0
LINE
8
BLACK
6
CONTINUOUS
10
1.6518690157480314
20
1.1767366929133858
11
1.6388891338582676
21
1.1827418503937008
0
LINE
8
BLACK
6
CONTINUOUS
10
1.6388891338582676
20
1.1827418503937008
11
1.6253360629921259
21
1.1873083858267717
0
LINE
8
BLACK
6
CONTINUOUS
10
1.6253360629921259
20
1.1873083858267717
11
1.6113687401574803
21
1.1903828346456693
0
LINE
8
BLACK
6
CONTINUOUS
10
1.6113687401574803
20
1.1903828346456693
11
1.5971508661417322
21
1.1919291338582676
0
LINE
8
BLACK
6
CONTINUOUS
10
1.5971508661417322
20
1.1919291338582676
11
1.5828491338582678
21
1.1919291338582676
0
LINE
8
BLACK
6
CONTINUOUS
10
1.5828491338582678
20
1.1919291338582676
11
1.5686312598425196
21
1.1903828346456693
0
LINE
8
BLACK
6
CONTINUOUS
10
1.5686312598425196
20
1.1903828346456693
11
1.5546639370078741
21
1.1873083858267717
0
LINE
8
BLACK
6
CONTINUOUS
10
1.5546639370078741
20
1.1873083858267717
11
1.5411108661417323
21
1.1827418503937008
0
LINE
8
BLACK
6
CONTINUOUS
10
1.5411108661417323
20
1.1827418503937008
11
1.5281309842519684
21
1.1767366929133858
0
LINE
8
BLACK
6
CONTINUOUS
10
1.5281309842519684
20
1.1767366929133858
11
1.5158764566929133
21
1.1693633858267716
0
LINE
8
BLACK
6
CONTINUOUS
10
1.5158764566929133
20
1.1693633858267716
11
1.5044909842519685
21
1.1607083858267717
0
LINE
8
BLACK
6
CONTINUOUS
10
1.5044909842519685
20
1.1607083858267717
11
1.4941079921259841
21
1.1508731102362204
0
LINE
8
BLACK
6
CONTINUOUS
10
1.4941079921259841
20
1.1508731102362204
11
1.4848492519685039
21
1.139972874015748
0
LINE
8
BLACK
6
CONTINUOUS
10
1.4848492519685039
20
1.139972874015748
11
1.4768233464566929
21
1.1281355118110237
0
LINE
8
BLACK
6
CONTINUOUS
10
1.4768233464566929
20
1.1281355118110237
11
1.4701242913385826
21
1.1154997637795276
0
LINE
8
BLACK
6
CONTINUOUS
10
1.4701242913385826
20
1.1154997637795276
11
1.4648306692913386
21
1.1022138188976378
0
LINE
8
BLACK
6
CONTINUOUS
10
1.4648306692913386
20
1.1022138188976378
11
1.4610045669291338
21
1.0884334251968504
0
LINE
8
BLACK
6
CONTINUOUS
10
1.4610045669291338
20
1.0884334251968504
11
1.4586908267716534
21
1.0743201181102362
0
LINE
8
BLACK
6
CONTINUOUS
10
1.4586908267716534
20
1.0743201181102362
11
1.4579165354330708
21
1.0600393700787401
0
LINE
8
BLACK
6
CONTINUOUS
10
1.4579165354330708
20
1.0600393700787401
11
1.4586908267716534
21
1.0457586220472441
0
LINE
8
BLACK
6
CONTINUOUS
10
-1.3219238582677164
20
1.7968974015748032
11
-1.3208585039370078
21
1.7958320472440945
0
LINE
8
BLACK
6
CONTINUOUS
10
-1.3208585039370078
20
1.7958320472440945
11
-1.3207086614173229
21
1.7950787401574804
0
LINE
8
BLACK
6
CONTINUOUS
10
-1.3207086614173229
20
1.7950787401574804
11
-1.3207086614173229
21
0.9694881889763779
0
LINE
8
BLACK
6
CONTINUOUS
10
-1.3207086614173229
20
0.9694881889763779
11
-1.3208585039370078
21
0.9687348818897638
0
LINE
8
BLACK
6
CONTINUOUS
10
-1.3208585039370078
20
0.9687348818897638
11
-1.3219238582677164
21
0.9676695275590551
0
LINE
8
BLACK
6
CONTINUOUS
10
-1.3219238582677164
20
0.9676695275590551
11
-1.3226771653543308
21
0.96751968503937
0
LINE
8
BLACK
6
CONTINUOUS
10
-1.3226771653543308
20
0.96751968503937
11
-1.67503937007874
21
0.96751968503937
0
LINE
8
BLACK
6
CONTINUOUS
10
-1.67503937007874
20
0.96751968503937
11
-1.6757926771653542
21
0.9676695275590551
0
LINE
8
BLACK
6
CONTINUOUS
10
-1.6757926771653542
20
0.9676695275590551
11
-1.6768580314960631
21
0.9687348818897638
0
LINE
8
BLACK
6
CONTINUOUS
10
-1.6768580314960631
20
0.9687348818897638
11
-1.6770078740157479
21
0.9694881889763779
0
LINE
8
BLACK
6
CONTINUOUS
10
-1.6770078740157479
20
0.9694881889763779
11
-1.6770078740157479
21
1.7950787401574804
0
LINE
8
BLACK
6
CONTINUOUS
10
-1.6770078740157479
20
1.7950787401574804
11
-1.6768580314960631
21
1.7958320472440945
0
LINE
8
BLACK
6
CONTINUOUS
10
-1.6768580314960631
20
1.7958320472440945
11
-1.6757926771653542
21
1.7968974015748032
0
LINE
8
BLACK
6
CONTINUOUS
10
-1.6757926771653542
20
1.7968974015748032
11
-1.67503937007874
21
1.7970472440944882
0
LINE
8
BLACK
6
CONTINUOUS
10
-1.67503937007874
20
1.7970472440944882
11
-1.3226771653543308
21
1.7970472440944882
0
LINE
8
BLACK
6
CONTINUOUS
10
-1.3226771653543308
20
1.7970472440944882
11
-1.3219238582677164
21
1.7968974015748032
0
LINE
8
BLACK
6
CONTINUOUS
10
-1.6730708661417322
20
0.9714566929133858
11
-1.6416027559055117
21
0.9714566929133858
0
LINE
8
BLACK
6
CONTINUOUS
10
-1.6416027559055117
20
0.9714566929133858
11
-1.6730708661417322
21
1.0029248031496063
0
LINE
8
BLACK
6
CONTINUOUS
10
-1.6730708661417322
20
1.0029248031496063
11
-1.6730708661417322
21
0.9714566929133858
0
LINE
8
BLACK
6
CONTINUOUS
10
-1.6730708661417322
20
1.0084925196850394
11
-1.6360350393700787
21
0.9714566929133858
0
LINE
8
BLACK
6
CONTINUOUS
10
-1.6360350393700787
20
0.9714566929133858
11
-1.5628626377952755
21
0.9714566929133858
0
LINE
8
BLACK
6
CONTINUOUS
10
-1.5628626377952755
20
0.9714566929133858
11
-1.6730708661417322
21
1.0816649606299213
0
LINE
8
BLACK
6
CONTINUOUS
10
-1.6730708661417322
20
1.0816649606299213
11
-1.6730708661417322
21
1.0084925196850394
0
LINE
8
BLACK
6
CONTINUOUS
10
-1.6730708661417322
20
1.087232716535433
11
-1.5572948425196851
21
0.9714566929133858
0
LINE
8
BLACK
6
CONTINUOUS
10
-1.5572948425196851
20
0.9714566929133858
11
-1.4841224803149606
21
0.9714566929133858
0
LINE
8
BLACK
6
CONTINUOUS
10
-1.4841224803149606
20
0.9714566929133858
11
-1.6730708661417322
21
1.1604051181102362
0
LINE
8
BLACK
6
CONTINUOUS
10
-1.6730708661417322
20
1.1604051181102362
11
-1.6730708661417322
21
1.087232716535433
0
LINE
8
BLACK
6
CONTINUOUS
10
-1.6730708661417322
20
1.165972874015748
11
-1.47855468503937
21
0.9714566929133858
0
LINE
8
BLACK
6
CONTINUOUS
10
-1.47855468503937
20
0.9714566929133858
11
-1.4053823228346456
21
0.9714566929133858
0
LINE
8
BLACK
6
CONTINUOUS
10
-1.4053823228346456
20
0.9714566929133858
11
-1.6730708661417322
21
1.2391452755905512
0
LINE
8
BLACK
6
CONTINUOUS
10
-1.6730708661417322
20
1.2391452755905512
11
-1.6730708661417322
21
1.165972874015748
0
LINE
8
BLACK
6
CONTINUOUS
10
-1.6730708661417322
20
1.244713031496063
11
-1.399814527559055
21
0.9714566929133858
0
LINE
8
BLACK
6
CONTINUOUS
10
-1.399814527559055
20
0.9714566929133858
11
-1.3266421653543308
21
0.9714566929133858
0
LINE
8
BLACK
6
CONTINUOUS
10
-1.3266421653543308
20
0.9714566929133858
11
-1.6730708661417322
21
1.317885433070866
0
LINE
8
BLACK
6
CONTINUOUS
10
-1.6730708661417322
20
1.317885433070866
11
-1.6730708661417322
21
1.244713031496063
0
LINE
8
BLACK
6
CONTINUOUS
10
-1.6730708661417322
20
1.3234531889763779
11
-1.3246456692913386
21
0.9750279921259842
0
LINE
8
BLACK
6
CONTINUOUS
10
-1.3246456692913386
20
0.9750279921259842
11
-1.3246456692913386
21
1.0482003937007873
0
LINE
8
BLACK
6
CONTINUOUS
10
-1.3246456692913386
20
1.0482003937007873
11
-1.6730708661417322
21
1.3966255905511811
0
LINE
8
BLACK
6
CONTINUOUS
10
-1.6730708661417322
20
1.3966255905511811
11
-1.6730708661417322
21
1.3234531889763779
0
LINE
8
BLACK
6
CONTINUOUS
10
-1.6730708661417322
20
1.4021933464566929
11
-1.3246456692913386
21
1.0537681496062992
0
LINE
8
BLACK
6
CONTINUOUS
10
-1.3246456692913386
20
1.0537681496062992
11
-1.3246456692913386
21
1.1269405511811024
0
LINE
8
BLACK
6
CONTINUOUS
10
-1.3246456692913386
20
1.1269405511811024
11
-1.6730708661417322
21
1.4753657480314961
0
LINE
8
BLACK
6
CONTINUOUS
10
-1.6730708661417322
20
1.4753657480314961
11
-1.6730708661417322
21
1.4021933464566929
0
LINE
8
BLACK
6
CONTINUOUS
10
-1.6730708661417322
20
1.4809335039370077
11
-1.3246456692913386
21
1.1325083070866142
0
LINE
8
BLACK
6
CONTINUOUS
10
-1.3246456692913386
20
1.1325083070866142
11
-1.3246456692913386
21
1.2056807086614172
0
LINE
8
BLACK
6
CONTINUOUS
10
-1.3246456692913386
20
1.2056807086614172
11
-1.6730708661417322
21
1.5541059055118109
0
LINE
8
BLACK
6
CONTINUOUS
10
-1.6730708661417322
20
1.5541059055118109
11
-1.6730708661417322
21
1.4809335039370077
0
LINE
8
BLACK
6
CONTINUOUS
10
-1.6730708661417322
20
1.5596736614173228
11
-1.3246456692913386
21
1.211248464566929
0
LINE
8
BLACK
6
CONTINUOUS
10
-1.3246456692913386
20
1.211248464566929
11
-1.3246456692913386
21
1.2844208661417322
0
LINE
8
BLACK
6
CONTINUOUS
10
-1.3246456692913386
20
1.2844208661417322
11
-1.6730708661417322
21
1.632846062992126
0
LINE
8
BLACK
6
CONTINUOUS
10
-1.6730708661417322
20
1.632846062992126
11
-1.6730708661417322
21
1.5596736614173228
0
LINE
8
BLACK
6
CONTINUOUS
10
-1.6730708661417322
20
1.6384138188976378
11
-1.3246456692913386
21
1.2899886220472441
0
LINE
8
BLACK
6
CONTINUOUS
10
-1.3246456692913386
20
1.2899886220472441
11
-1.3246456692913386
21
1.3631610236220473
0
LINE
8
BLACK
6
CONTINUOUS
10
-1.3246456692913386
20
1.3631610236220473
11
-1.6730708661417322
21
1.7115862204724408
0
LINE
8
BLACK
6
CONTINUOUS
10
-1.6730708661417322
20
1.7115862204724408
11
-1.6730708661417322
21
1.6384138188976378
0
LINE
8
BLACK
6
CONTINUOUS
10
-1.6730708661417322
20
1.7171539763779526
11
-1.3246456692913386
21
1.3687287795275591
0
LINE
8
BLACK
6
CONTINUOUS
10
-1.3246456692913386
20
1.3687287795275591
11
-1.3246456692913386
21
1.4419011811023621
0
LINE
8
BLACK
6
CONTINUOUS
10
-1.3246456692913386
20
1.4419011811023621
11
-1.6730708661417322
21
1.7903263779527558
0
LINE
8
BLACK
6
CONTINUOUS
10
-1.6730708661417322
20
1.7903263779527558
11
-1.6730708661417322
21
1.7171539763779526
0
LINE
8
BLACK
6
CONTINUOUS
10
-1.6702870078740157
20
1.7931102362204725
11
-1.3246456692913386
21
1.4474689370078739
0
LINE
8
BLACK
6
CONTINUOUS
10
-1.3246456692913386
20
1.4474689370078739
11
-1.3246456692913386
21
1.5206413385826771
0
LINE
8
BLACK
6
CONTINUOUS
10
-1.3246456692913386
20
1.5206413385826771
11
-1.5971145669291338
21
1.7931102362204725
0
LINE
8
BLACK
6
CONTINUOUS
10
-1.5971145669291338
20
1.7931102362204725
11
-1.6702870078740157
21
1.7931102362204725
0
LINE
8
BLACK
6
CONTINUOUS
10
-1.5915468503937007
20
1.7931102362204725
11
-1.3246456692913386
21
1.526209094488189
0
LINE
8
BLACK
6
CONTINUOUS
10
-1.3246456692913386
20
1.526209094488189
11
-1.3246456692913386
21
1.5993814960629922
0
LINE
8
BLACK
6
CONTINUOUS
10
-1.3246456692913386
20
1.5993814960629922
11
-1.518374409448819
21
1.7931102362204725
0
LINE
8
BLACK
6
CONTINUOUS
10
-1.518374409448819
20
1.7931102362204725
11
-1.5915468503937007
21
1.7931102362204725
0
LINE
8
BLACK
6
CONTINUOUS
10
-1.5128066929133859
20
1.7931102362204725
11
-1.3246456692913386
21
1.6049492125984253
0
LINE
8
BLACK
6
CONTINUOUS
10
-1.3246456692913386
20
1.6049492125984253
11
-1.3246456692913386
21
1.678121653543307
0
LINE
8
BLACK
6
CONTINUOUS
10
-1.3246456692913386
20
1.678121653543307
11
-1.4396342519685039
21
1.7931102362204725
0
LINE
8
BLACK
6
CONTINUOUS
10
-1.4396342519685039
20
1.7931102362204725
11
-1.5128066929133859
21
1.7931102362204725
0
LINE
8
BLACK
6
CONTINUOUS
10
-1.4340665354330708
20
1.7931102362204725
11
-1.3246456692913386
21
1.6836893700787401
0
LINE
8
BLACK
6
CONTINUOUS
10
-1.3246456692913386
20
1.6836893700787401
11
-1.3246456692913386
21
1.756861811023622
0
LINE
8
BLACK
6
CONTINUOUS
10
-1.3246456692913386
20
1.756861811023622
11
-1.3608940944881889
21
1.7931102362204725
0
LINE
8
BLACK
6
CONTINUOUS
10
-1.3608940944881889
20
1.7931102362204725
11
-1.4340665354330708
21
1.7931102362204725
0
LINE
8
BLACK
6
CONTINUOUS
10
-1.3553263779527558
20
1.7931102362204725
11
-1.3246456692913386
21
1.7624295275590551
0
LINE
8
BLACK
6
CONTINUOUS
10
-1.3246456692913386
20
1.7624295275590551
11
-1.3246456692913386
21
1.7931102362204725
0
LINE
8
BLACK
6
CONTINUOUS
10
-1.3246456692913386
20
1.7931102362204725
11
-1.3553263779527558
21
1.7931102362204725
0
CIRCLE
8
BLACK
10
1.1499999999999999
20
0.535
40
0.0068897637795276
0
CIRCLE
8
BLACK
10
1.25
20
0.535
40
0.0068897637795276
0
CIRCLE
8
BLACK
10
1.3499999999999999
20
0.535
40
0.0068897637795276
0
CIRCLE
8
BLACK
10
1.7
20
1.9450000000000001
40
0.0068897637795276
0
CIRCLE
8
BLACK
10
1.5999999999999999
20
1.9450000000000001
40
0.0068897637795276
0
CIRCLE
8
BLACK
10
1.7
20
2.0449999999999999
40
0.0068897637795276
0
CIRCLE
8
BLACK
10
1.5999999999999999
20
2.0449999999999999
40
0.0068897637795276
0
CIRCLE
8
BLACK
10
1.7
20
2.145
40
0.0068897637795276
0
CIRCLE
8
BLACK
10
1.5999999999999999
20
2.145
40
0.0068897637795276
0
CIRCLE
8
BLACK
10
-0.24
20
0.635
40
0.0068897637795276
0
CIRCLE
8
BLACK
10
-0.24
20
0.535
40
0.0068897637795276
0
CIRCLE
8
BLACK
10
-0.34
20
0.635
40
0.0068897637795276
0
CIRCLE
8
BLACK
10
-0.34
20
0.535
40
0.0068897637795276
0
CIRCLE
8
BLACK
10
-0.44
20
0.635
40
0.0068897637795276
0
CIRCLE
8
BLACK
10
-0.44
20
0.535
40
0.0068897637795276
0
CIRCLE
8
BLACK
10
-0.54
20
0.635
40
0.0068897637795276
0
CIRCLE
8
BLACK
10
-0.54
20
0.535
40
0.0068897637795276
0
CIRCLE
8
BLACK
10
-0.64
20
0.635
40
0.0068897637795276
0
CIRCLE
8
BLACK
10
-0.64
20
0.535
40
0.0068897637795276
0
CIRCLE
8
BLACK
10
-1.99
20
2.625
40
0.0068897637795276
0
CIRCLE
8
BLACK
10
1.6099999999999999
20
2.625
40
0.0068897637795276
0
CIRCLE
8
BLACK
10
0.82
20
0.535
40
0.0068897637795276
0
CIRCLE
8
BLACK
10
0.9199999999999999
20
0.535
40
0.0068897637795276
0
CIRCLE
8
BLACK
10
1.02
20
0.535
40
0.0068897637795276
0
CIRCLE
8
BLACK
10
-1.24
20
2.6149999999999998
40
0.0068897637795276
0
CIRCLE
8
BLACK
10
-1.24
20
2.7149999999999999
40
0.0068897637795276
0
CIRCLE
8
BLACK
10
-1.1399999999999999
20
2.6149999999999998
40
0.0068897637795276
0
CIRCLE
8
BLACK
10
-1.1399999999999999
20
2.7149999999999999
40
0.0068897637795276
0
CIRCLE
8
BLACK
10
-1.04
20
2.6149999999999998
40
0.0068897637795276
0
CIRCLE
8
BLACK
10
-1.04
20
2.7149999999999999
40
0.0068897637795276
0
CIRCLE
8
BLACK
10
-0.9399999999999999
20
2.6149999999999998
40
0.0068897637795276
0
CIRCLE
8
BLACK
10
-0.9399999999999999
20
2.7149999999999999
40
0.0068897637795276
0
CIRCLE
8
BLACK
10
-0.84
20
2.6149999999999998
40
0.0068897637795276
0
CIRCLE
8
BLACK
10
-0.84
20
2.7149999999999999
40
0.0068897637795276
0
CIRCLE
8
BLACK
10
-0.74
20
2.6149999999999998
40
0.0068897637795276
0
CIRCLE
8
BLACK
10
-0.74
20
2.7149999999999999
40
0.0068897637795276
0
CIRCLE
8
BLACK
10
-0.64
20
2.6149999999999998
40
0.0068897637795276
0
CIRCLE
8
BLACK
10
-0.64
20
2.7149999999999999
40
0.0068897637795276
0
CIRCLE
8
BLACK
10
-0.51
20
2.6149999999999998
40
0.0068897637795276
0
CIRCLE
8
BLACK
10
-0.51
20
2.7149999999999999
40
0.0068897637795276
0
CIRCLE
8
BLACK
10
-0.41
20
2.6149999999999998
40
0.0068897637795276
0
CIRCLE
8
BLACK
10
-0.41
20
2.7149999999999999
40
0.0068897637795276
0
CIRCLE
8
BLACK
10
-0.31
20
2.6149999999999998
40
0.0068897637795276
0
CIRCLE
8
BLACK
10
-0.31
20
2.7149999999999999
40
0.0068897637795276
0
CIRCLE
8
BLACK
10
-1.99
20
0.625
40
0.0068897637795276
0
CIRCLE
8
BLACK
10
-1.2793700787401574
20
1.8277559055118109
40
0.0068897637795276
0
CIRCLE
8
BLACK
10
-1.2793700787401574
20
1.0009842519685039
40
0.0068897637795276
0
CIRCLE
8
BLACK
10
-1.99
20
2.2050000000000001
40
0.0068897637795276
0
CIRCLE
8
BLACK
10
-2.0899999999999999
20
2.3050000000000002
40
0.0068897637795276
0
CIRCLE
8
BLACK
10
-2.0899999999999999
20
2.105
40
0.0068897637795276
0
CIRCLE
8
BLACK
10
-1.8899999999999999
20
2.3050000000000002
40
0.0068897637795276
0
CIRCLE
8
BLACK
10
-1.8899999999999999
20
2.105
40
0.0068897637795276
0
CIRCLE
8
BLACK
10
0.9399999999999999
20
2.4049999999999998
40
0.0068897637795276
0
CIRCLE
8
BLACK
10
1.235275590551181
20
2.4049999999999998
40
0.0068897637795276
0
CIRCLE
8
BLACK
10
0.37
20
2.6149999999999998
40
0.0068897637795276
0
CIRCLE
8
BLACK
10
0.37
20
2.7149999999999999
40
0.0068897637795276
0
CIRCLE
8
BLACK
10
0.47
20
2.6149999999999998
40
0.0068897637795276
0
CIRCLE
8
BLACK
10
0.47
20
2.7149999999999999
40
0.0068897637795276
0
CIRCLE
8
BLACK
10
0.57
20
2.6149999999999998
40
0.0068897637795276
0
CIRCLE
8
BLACK
10
0.57
20
2.7149999999999999
40
0.0068897637795276
0
CIRCLE
8
BLACK
10
-1.0069291338582678
20
1.776496062992126
40
0.0068897637795276
0
CIRCLE
8
BLACK
10
-0.9069291338582677
20
1.776496062992126
40
0.0068897637795276
0
CIRCLE
8
BLACK
10
1.6099999999999999
20
0.625
40
0.0068897637795276
0
CIRCLE
8
BLACK
10
-1.47
20
2.6149999999999998
40
0.0068897637795276
0
CIRCLE
8
BLACK
10
-1.47
20
2.7149999999999999
40
0.0068897637795276
0
CIRCLE
8
BLACK
10
-1.3699999999999999
20
2.6149999999999998
40
0.0068897637795276
0
CIRCLE
8
BLACK
10
-1.3699999999999999
20
2.7149999999999999
40
0.0068897637795276
0
CIRCLE
8
BLACK
10
0.33
20
2.0049999999999999
40
0.0068897637795276
0
CIRCLE
8
BLACK
10
0.43
20
2.0049999999999999
40
0.0068897637795276
0
CIRCLE
8
BLACK
10
-1.1699999999999999
20
0.535
40
0.0068897637795276
0
CIRCLE
8
BLACK
10
-1.1699999999999999
20
0.635
40
0.0068897637795276
0
CIRCLE
8
BLACK
10
-1.0700000000000001
20
0.535
40
0.0068897637795276
0
CIRCLE
8
BLACK
10
-1.0700000000000001
20
0.635
40
0.0068897637795276
0
CIRCLE
8
BLACK
10
-0.97
20
0.535
40
0.0068897637795276
0
CIRCLE
8
BLACK
10
-0.97
20
0.635
40
0.0068897637795276
0
CIRCLE
8
BLACK
10
-0.87
20
0.535
40
0.0068897637795276
0
CIRCLE
8
BLACK
10
-0.87
20
0.635
40
0.0068897637795276
0
CIRCLE
8
BLACK
10
-0.77
20
0.535
40
0.0068897637795276
0
CIRCLE
8
BLACK
10
-0.77
20
0.635
40
0.0068897637795276
0
CIRCLE
8
BLACK
10
1.5999999999999999
20
1.7249999999999999
40
0.0068897637795276
0
CIRCLE
8
BLACK
10
1.7
20
1.7249999999999999
40
0.0068897637795276
0
CIRCLE
8
BLACK
10
1.5999999999999999
20
1.625
40
0.0068897637795276
0
CIRCLE
8
BLACK
10
1.7
20
1.625
40
0.0068897637795276
0
CIRCLE
8
BLACK
10
1.5999999999999999
20
1.5249999999999999
40
0.0068897637795276
0
CIRCLE
8
BLACK
10
1.7
20
1.5249999999999999
40
0.0068897637795276
0
CIRCLE
8
BLACK
10
1.1893700787401575
20
1.7790157480314961
40
0.0068897637795276
0
CIRCLE
8
BLACK
10
1.2393700787401574
20
1.7790157480314961
40
0.0068897637795276
0
CIRCLE
8
BLACK
10
1.2893700787401574
20
1.7790157480314961
40
0.0068897637795276
0
CIRCLE
8
BLACK
10
-0.9194488188976377
20
2.2426181102362204
40
0.0039370078740157
0
CIRCLE
8
BLACK
10
-0.9607874015748031
20
2.2426181102362204
40
0.0039370078740157
0
CIRCLE
8
BLACK
10
-1.0021259842519685
20
2.2426181102362204
40
0.0039370078740157
0
CIRCLE
8
BLACK
10
-0.9194488188976377
20
2.2012795275590551
40
0.0039370078740157
0
CIRCLE
8
BLACK
10
-0.9607874015748031
20
2.2012795275590551
40
0.0039370078740157
0
CIRCLE
8
BLACK
10
-1.0021259842519685
20
2.2012795275590551
40
0.0039370078740157
0
CIRCLE
8
BLACK
10
-0.9194488188976377
20
2.1599409448818898
40
0.0039370078740157
0
CIRCLE
8
BLACK
10
-0.9607874015748031
20
2.1599409448818898
40
0.0039370078740157
0
CIRCLE
8
BLACK
10
-1.0021259842519685
20
2.1599409448818898
40
0.0039370078740157
0
CIRCLE
8
BLACK
10
1.1893700787401575
20
1.4949999999999999
40
0.0068897637795276
0
CIRCLE
8
BLACK
10
1.2393700787401574
20
1.4949999999999999
40
0.0068897637795276
0
CIRCLE
8
BLACK
10
1.2893700787401574
20
1.4949999999999999
40
0.0068897637795276
0
CIRCLE
8
BLACK
10
-0.4301574803149606
20
2.3624015748031497
40
0.0049212598425197
0
CIRCLE
8
BLACK
10
-0.3907874015748031
20
2.3624015748031497
40
0.0049212598425197
  0
ENDSEC
  0
EOF
