  0
SECTION
  2
HEADER
  9
$ANGBASE
  50
0.0
  9
$ANGDIR
  70
1
  9
$MEASUREMENT
  70
0
  0
ENDSEC
  0
SECTION
  2
TABLES
  0
TABLE
  2
LTYPE
  70
4
  0
LTYPE
  5
40F
  2
CONTINUOUS
  70
0
  3
Solid line
  72
65
  73
0
  40
0.0
  0
LTYPE
  5
410
  2
DASHDOT
 70
0
  3
Dash Dot ____ _ ____ _
 72
65
 73
4
 40
2.0
 49
1.25
 49
-0.25
 49
0.25
 49
-0.25
  0
LTYPE
  5
411
  2
DASHED
 70
0
  3
Dashed __ __ __ __ __
 72
65
 73
2
 40
0.75
 49
0.5
 49
-0.25
  0
LTYPE
  5
43B
  2
DOTTED
 70
0
  3
Dotted .  .  .  .
 72
65
 73
2
 40
0.2
 49
0.0
 49
-0.2
  0
ENDTAB
  0
TABLE
  2
STYLE
  70
4
  0
STYLE
  2
KICAD
  70
0
  40
0
  41
1
  42
1
  50
0
  71
0
  3
isocp.shx
  0
STYLE
  2
KICADB
  70
0
  40
0
  41
1
  42
1
  50
0
  71
0
  3
isocp.shx
  0
STYLE
  2
KICADI
  70
0
  40
0
  41
1
  42
1
  50
15
  71
0
  3
isocp.shx
  0
STYLE
  2
KICADBI
  70
0
  40
0
  41
1
  42
1
  50
15
  71
0
  3
isocp.shx
  0
ENDTAB
  0
TABLE
  2
LAYER
  70
1
  0
LAYER
  2
BLACK
  70
0
  62
7
  6
CONTINUOUS
  0
ENDTAB
  0
ENDSEC
  0
SECTION
  2
ENTITIES
0
LINE
8
BLACK
6
CONTINUOUS
10
0.2140627559055118
20
0.3248102362204724
11
0.2279486220472441
21
0.3224509448818897
0
LINE
8
BLACK
6
CONTINUOUS
10
0.2279486220472441
20
0.3224509448818897
11
0.241483031496063
21
0.3185517322834646
0
LINE
8
BLACK
6
CONTINUOUS
10
0.241483031496063
20
0.3185517322834646
11
0.2544957874015748
21
0.3131616929133858
0
LINE
8
BLACK
6
CONTINUOUS
10
0.2544957874015748
20
0.3131616929133858
11
0.2668232283464567
21
0.3063485433070866
0
LINE
8
BLACK
6
CONTINUOUS
10
0.2668232283464567
20
0.3063485433070866
11
0.2783103149606299
21
0.298198031496063
0
LINE
8
BLACK
6
CONTINUOUS
10
0.2783103149606299
20
0.298198031496063
11
0.2888125984251969
21
0.2888125984251969
0
LINE
8
BLACK
6
CONTINUOUS
10
0.2888125984251969
20
0.2888125984251969
11
0.298198031496063
21
0.2783103149606299
0
LINE
8
BLACK
6
CONTINUOUS
10
0.298198031496063
20
0.2783103149606299
11
0.3063485433070866
21
0.2668232283464567
0
LINE
8
BLACK
6
CONTINUOUS
10
0.3063485433070866
20
0.2668232283464567
11
0.3131616929133858
21
0.2544957874015748
0
LINE
8
BLACK
6
CONTINUOUS
10
0.3131616929133858
20
0.2544957874015748
11
0.3185517322834646
21
0.241483031496063
0
LINE
8
BLACK
6
CONTINUOUS
10
0.3185517322834646
20
0.241483031496063
11
0.3224509448818897
21
0.2279486220472441
0
LINE
8
BLACK
6
CONTINUOUS
10
0.3224509448818897
20
0.2279486220472441
11
0.3248102362204724
21
0.2140627559055118
0
LINE
8
BLACK
6
CONTINUOUS
10
0.3248102362204724
20
0.2140627559055118
11
0.3256
21
0.2
0
LINE
8
BLACK
6
CONTINUOUS
10
0.3256
20
0.2
11
0.3248102362204724
21
0.1859372440944882
0
LINE
8
BLACK
6
CONTINUOUS
10
0.3248102362204724
20
0.1859372440944882
11
0.3224509448818897
21
0.1720513779527559
0
LINE
8
BLACK
6
CONTINUOUS
10
0.3224509448818897
20
0.1720513779527559
11
0.3185517322834646
21
0.158516968503937
0
LINE
8
BLACK
6
CONTINUOUS
10
0.3185517322834646
20
0.158516968503937
11
0.3131616929133858
21
0.1455042125984252
0
LINE
8
BLACK
6
CONTINUOUS
10
0.3131616929133858
20
0.1455042125984252
11
0.3063485433070866
21
0.1331767716535433
0
LINE
8
BLACK
6
CONTINUOUS
10
0.3063485433070866
20
0.1331767716535433
11
0.298198031496063
21
0.1216896850393701
0
LINE
8
BLACK
6
CONTINUOUS
10
0.298198031496063
20
0.1216896850393701
11
0.2888125984251969
21
0.1111874015748031
0
LINE
8
BLACK
6
CONTINUOUS
10
0.2888125984251969
20
0.1111874015748031
11
0.2783103149606299
21
0.101801968503937
0
LINE
8
BLACK
6
CONTINUOUS
10
0.2783103149606299
20
0.101801968503937
11
0.2668232283464567
21
0.0936514566929134
0
LINE
8
BLACK
6
CONTINUOUS
10
0.2668232283464567
20
0.0936514566929134
11
0.2544957874015748
21
0.0868383070866142
0
LINE
8
BLACK
6
CONTINUOUS
10
0.2544957874015748
20
0.0868383070866142
11
0.241483031496063
21
0.0814482677165354
0
LINE
8
BLACK
6
CONTINUOUS
10
0.241483031496063
20
0.0814482677165354
11
0.2279486220472441
21
0.0775490551181102
0
LINE
8
BLACK
6
CONTINUOUS
10
0.2279486220472441
20
0.0775490551181102
11
0.2140627559055118
21
0.0751897637795276
0
LINE
8
BLACK
6
CONTINUOUS
10
0.2140627559055118
20
0.0751897637795276
11
0.2
21
0.0744
0
LINE
8
BLACK
6
CONTINUOUS
10
0.2
20
0.0744
11
0.1859372440944882
21
0.0751897637795276
0
LINE
8
BLACK
6
CONTINUOUS
10
0.1859372440944882
20
0.0751897637795276
11
0.1720513779527559
21
0.0775490551181102
0
LINE
8
BLACK
6
CONTINUOUS
10
0.1720513779527559
20
0.0775490551181102
11
0.158516968503937
21
0.0814482677165354
0
LINE
8
BLACK
6
CONTINUOUS
10
0.158516968503937
20
0.0814482677165354
11
0.1455042125984252
21
0.0868383070866142
0
LINE
8
BLACK
6
CONTINUOUS
10
0.1455042125984252
20
0.0868383070866142
11
0.1331767716535433
21
0.0936514566929134
0
LINE
8
BLACK
6
CONTINUOUS
10
0.1331767716535433
20
0.0936514566929134
11
0.1216896850393701
21
0.101801968503937
0
LINE
8
BLACK
6
CONTINUOUS
10
0.1216896850393701
20
0.101801968503937
11
0.1111874015748031
21
0.1111874015748031
0
LINE
8
BLACK
6
CONTINUOUS
10
0.1111874015748031
20
0.1111874015748031
11
0.101801968503937
21
0.1216896850393701
0
LINE
8
BLACK
6
CONTINUOUS
10
0.101801968503937
20
0.1216896850393701
11
0.0936514566929134
21
0.1331767716535433
0
LINE
8
BLACK
6
CONTINUOUS
10
0.0936514566929134
20
0.1331767716535433
11
0.0868383070866142
21
0.1455042125984252
0
LINE
8
BLACK
6
CONTINUOUS
10
0.0868383070866142
20
0.1455042125984252
11
0.0814482677165354
21
0.158516968503937
0
LINE
8
BLACK
6
CONTINUOUS
10
0.0814482677165354
20
0.158516968503937
11
0.0775490551181102
21
0.1720513779527559
0
LINE
8
BLACK
6
CONTINUOUS
10
0.0775490551181102
20
0.1720513779527559
11
0.0751897637795276
21
0.1859372440944882
0
LINE
8
BLACK
6
CONTINUOUS
10
0.0751897637795276
20
0.1859372440944882
11
0.0744
21
0.2
0
LINE
8
BLACK
6
CONTINUOUS
10
0.0744
20
0.2
11
0.0751897637795276
21
0.2140627559055118
0
LINE
8
BLACK
6
CONTINUOUS
10
0.0751897637795276
20
0.2140627559055118
11
0.0775490551181102
21
0.2279486220472441
0
LINE
8
BLACK
6
CONTINUOUS
10
0.0775490551181102
20
0.2279486220472441
11
0.0814482677165354
21
0.241483031496063
0
LINE
8
BLACK
6
CONTINUOUS
10
0.0814482677165354
20
0.241483031496063
11
0.0868383070866142
21
0.2544957874015748
0
LINE
8
BLACK
6
CONTINUOUS
10
0.0868383070866142
20
0.2544957874015748
11
0.0936514566929134
21
0.2668232283464567
0
LINE
8
BLACK
6
CONTINUOUS
10
0.0936514566929134
20
0.2668232283464567
11
0.101801968503937
21
0.2783103149606299
0
LINE
8
BLACK
6
CONTINUOUS
10
0.101801968503937
20
0.2783103149606299
11
0.1111874015748031
21
0.2888125984251969
0
LINE
8
BLACK
6
CONTINUOUS
10
0.1111874015748031
20
0.2888125984251969
11
0.1216896850393701
21
0.298198031496063
0
LINE
8
BLACK
6
CONTINUOUS
10
0.1216896850393701
20
0.298198031496063
11
0.1331767716535433
21
0.3063485433070866
0
LINE
8
BLACK
6
CONTINUOUS
10
0.1331767716535433
20
0.3063485433070866
11
0.1455042125984252
21
0.3131616929133858
0
LINE
8
BLACK
6
CONTINUOUS
10
0.1455042125984252
20
0.3131616929133858
11
0.158516968503937
21
0.3185517322834646
0
LINE
8
BLACK
6
CONTINUOUS
10
0.158516968503937
20
0.3185517322834646
11
0.1720513779527559
21
0.3224509448818897
0
LINE
8
BLACK
6
CONTINUOUS
10
0.1720513779527559
20
0.3224509448818897
11
0.1859372440944882
21
0.3248102362204724
0
LINE
8
BLACK
6
CONTINUOUS
10
0.1859372440944882
20
0.3248102362204724
11
0.2
21
0.3256
0
LINE
8
BLACK
6
CONTINUOUS
10
0.2
20
0.3256
11
0.2140627559055118
21
0.3248102362204724
0
LINE
8
BLACK
6
CONTINUOUS
10
0.0899616535433071
20
0.1871383464566929
11
0.0921988582677165
21
0.1744506692913386
0
LINE
8
BLACK
6
CONTINUOUS
10
0.0921988582677165
20
0.1744506692913386
11
0.0958938582677165
21
0.1621084645669291
0
LINE
8
BLACK
6
CONTINUOUS
10
0.0958938582677165
20
0.1621084645669291
11
0.1009967322834646
21
0.1502787007874016
0
LINE
8
BLACK
6
CONTINUOUS
10
0.1009967322834646
20
0.1502787007874016
11
0.1074384251968504
21
0.1391212992125984
0
LINE
8
BLACK
6
CONTINUOUS
10
0.1074384251968504
20
0.1391212992125984
11
0.1151318897637795
21
0.1287872047244094
0
LINE
8
BLACK
6
CONTINUOUS
10
0.1151318897637795
20
0.1287872047244094
11
0.123973031496063
21
0.1194161417322835
0
LINE
8
BLACK
6
CONTINUOUS
10
0.123973031496063
20
0.1194161417322835
11
0.1338423228346457
21
0.111134842519685
0
LINE
8
BLACK
6
CONTINUOUS
10
0.1338423228346457
20
0.111134842519685
11
0.1446062598425197
21
0.1040552755905512
0
LINE
8
BLACK
6
CONTINUOUS
10
0.1446062598425197
20
0.1040552755905512
11
0.1561193307086614
21
0.0982731889763779
0
LINE
8
BLACK
6
CONTINUOUS
10
0.1561193307086614
20
0.0982731889763779
11
0.1682257874015748
21
0.093866811023622
0
LINE
8
BLACK
6
CONTINUOUS
10
0.1682257874015748
20
0.093866811023622
11
0.180761968503937
21
0.0908956692913386
0
LINE
8
BLACK
6
CONTINUOUS
10
0.180761968503937
20
0.0908956692913386
11
0.1935582677165354
21
0.0894
0
LINE
8
BLACK
6
CONTINUOUS
10
0.1935582677165354
20
0.0894
11
0.2064417322834646
21
0.0894
0
LINE
8
BLACK
6
CONTINUOUS
10
0.2064417322834646
20
0.0894
11
0.219238031496063
21
0.0908956692913386
0
LINE
8
BLACK
6
CONTINUOUS
10
0.219238031496063
20
0.0908956692913386
11
0.2317742125984252
21
0.093866811023622
0
LINE
8
BLACK
6
CONTINUOUS
10
0.2317742125984252
20
0.093866811023622
11
0.2438806692913386
21
0.0982731889763779
0
LINE
8
BLACK
6
CONTINUOUS
10
0.2438806692913386
20
0.0982731889763779
11
0.2553937401574803
21
0.1040552755905512
0
LINE
8
BLACK
6
CONTINUOUS
10
0.2553937401574803
20
0.1040552755905512
11
0.2661576771653543
21
0.111134842519685
0
LINE
8
BLACK
6
CONTINUOUS
10
0.2661576771653543
20
0.111134842519685
11
0.276026968503937
21
0.1194161417322835
0
LINE
8
BLACK
6
CONTINUOUS
10
0.276026968503937
20
0.1194161417322835
11
0.2848681102362204
21
0.1287872047244094
0
LINE
8
BLACK
6
CONTINUOUS
10
0.2848681102362204
20
0.1287872047244094
11
0.2925615748031496
21
0.1391212992125984
0
LINE
8
BLACK
6
CONTINUOUS
10
0.2925615748031496
20
0.1391212992125984
11
0.2990032677165354
21
0.1502787007874016
0
LINE
8
BLACK
6
CONTINUOUS
10
0.2990032677165354
20
0.1502787007874016
11
0.3041061417322835
21
0.1621084645669291
0
LINE
8
BLACK
6
CONTINUOUS
10
0.3041061417322835
20
0.1621084645669291
11
0.3078011417322835
21
0.1744506692913386
0
LINE
8
BLACK
6
CONTINUOUS
10
0.3078011417322835
20
0.1744506692913386
11
0.3100383464566929
21
0.1871383464566929
0
LINE
8
BLACK
6
CONTINUOUS
10
0.3100383464566929
20
0.1871383464566929
11
0.3107874409448819
21
0.2
0
LINE
8
BLACK
6
CONTINUOUS
10
0.3107874409448819
20
0.2
11
0.3100383464566929
21
0.2128616535433071
0
LINE
8
BLACK
6
CONTINUOUS
10
0.3100383464566929
20
0.2128616535433071
11
0.3078011417322835
21
0.2255493307086614
0
LINE
8
BLACK
6
CONTINUOUS
10
0.3078011417322835
20
0.2255493307086614
11
0.3041061417322835
21
0.2378915354330709
0
LINE
8
BLACK
6
CONTINUOUS
10
0.3041061417322835
20
0.2378915354330709
11
0.2990032677165354
21
0.2497212992125984
0
LINE
8
BLACK
6
CONTINUOUS
10
0.2990032677165354
20
0.2497212992125984
11
0.2925615748031496
21
0.2608787007874016
0
LINE
8
BLACK
6
CONTINUOUS
10
0.2925615748031496
20
0.2608787007874016
11
0.2848681102362204
21
0.2712127952755906
0
LINE
8
BLACK
6
CONTINUOUS
10
0.2848681102362204
20
0.2712127952755906
11
0.276026968503937
21
0.2805838582677165
0
LINE
8
BLACK
6
CONTINUOUS
10
0.276026968503937
20
0.2805838582677165
11
0.2661576771653543
21
0.2888651574803149
0
LINE
8
BLACK
6
CONTINUOUS
10
0.2661576771653543
20
0.2888651574803149
11
0.2553937401574803
21
0.2959447244094488
0
LINE
8
BLACK
6
CONTINUOUS
10
0.2553937401574803
20
0.2959447244094488
11
0.2438806692913386
21
0.301726811023622
0
LINE
8
BLACK
6
CONTINUOUS
10
0.2438806692913386
20
0.301726811023622
11
0.2317742125984252
21
0.3061331889763779
0
LINE
8
BLACK
6
CONTINUOUS
10
0.2317742125984252
20
0.3061331889763779
11
0.219238031496063
21
0.3091043307086614
0
LINE
8
BLACK
6
CONTINUOUS
10
0.219238031496063
20
0.3091043307086614
11
0.2064417322834646
21
0.3106
0
LINE
8
BLACK
6
CONTINUOUS
10
0.2064417322834646
20
0.3106
11
0.1935582677165354
21
0.3106
0
LINE
8
BLACK
6
CONTINUOUS
10
0.1935582677165354
20
0.3106
11
0.180761968503937
21
0.3091043307086614
0
LINE
8
BLACK
6
CONTINUOUS
10
0.180761968503937
20
0.3091043307086614
11
0.1682257874015748
21
0.3061331889763779
0
LINE
8
BLACK
6
CONTINUOUS
10
0.1682257874015748
20
0.3061331889763779
11
0.1561193307086614
21
0.301726811023622
0
LINE
8
BLACK
6
CONTINUOUS
10
0.1561193307086614
20
0.301726811023622
11
0.1446062598425197
21
0.2959447244094488
0
LINE
8
BLACK
6
CONTINUOUS
10
0.1446062598425197
20
0.2959447244094488
11
0.1338423228346457
21
0.2888651574803149
0
LINE
8
BLACK
6
CONTINUOUS
10
0.1338423228346457
20
0.2888651574803149
11
0.123973031496063
21
0.2805838582677165
0
LINE
8
BLACK
6
CONTINUOUS
10
0.123973031496063
20
0.2805838582677165
11
0.1151318897637795
21
0.2712127952755906
0
LINE
8
BLACK
6
CONTINUOUS
10
0.1151318897637795
20
0.2712127952755906
11
0.1074384251968504
21
0.2608787007874016
0
LINE
8
BLACK
6
CONTINUOUS
10
0.1074384251968504
20
0.2608787007874016
11
0.1009967322834646
21
0.2497212992125984
0
LINE
8
BLACK
6
CONTINUOUS
10
0.1009967322834646
20
0.2497212992125984
11
0.0958938582677165
21
0.2378915354330709
0
LINE
8
BLACK
6
CONTINUOUS
10
0.0958938582677165
20
0.2378915354330709
11
0.0921988582677165
21
0.2255493307086614
0
LINE
8
BLACK
6
CONTINUOUS
10
0.0921988582677165
20
0.2255493307086614
11
0.0899616535433071
21
0.2128616535433071
0
LINE
8
BLACK
6
CONTINUOUS
10
0.0899616535433071
20
0.2128616535433071
11
0.0892125590551181
21
0.2
0
LINE
8
BLACK
6
CONTINUOUS
10
0.0892125590551181
20
0.2
11
0.0899616535433071
21
0.1871383464566929
0
LINE
8
BLACK
6
CONTINUOUS
10
1.3868340157480314
20
0.7145173228346456
11
1.3878984251968505
21
0.7140764173228347
0
LINE
8
BLACK
6
CONTINUOUS
10
1.3878984251968505
20
0.7140764173228347
11
1.3887130708661417
21
0.7132617716535433
0
LINE
8
BLACK
6
CONTINUOUS
10
1.3887130708661417
20
0.7132617716535433
11
1.3891539763779528
21
0.7121973622047244
0
LINE
8
BLACK
6
CONTINUOUS
10
1.3891539763779528
20
0.7121973622047244
11
1.3891539763779528
21
0.7110452362204724
0
LINE
8
BLACK
6
CONTINUOUS
10
1.3891539763779528
20
0.7110452362204724
11
1.3887130708661417
21
0.7099808267716535
0
LINE
8
BLACK
6
CONTINUOUS
10
1.3887130708661417
20
0.7099808267716535
11
1.3878984251968505
21
0.7091661811023622
0
LINE
8
BLACK
6
CONTINUOUS
10
1.3878984251968505
20
0.7091661811023622
11
1.3868340157480314
21
0.7087252755905512
0
LINE
8
BLACK
6
CONTINUOUS
10
1.3868340157480314
20
0.7087252755905512
11
1.3862579527559056
21
0.7086685433070866
0
LINE
8
BLACK
6
CONTINUOUS
10
1.3862579527559056
20
0.7086685433070866
11
1.3704630708661416
21
0.7086685433070866
0
LINE
8
BLACK
6
CONTINUOUS
10
1.3704630708661416
20
0.7086685433070866
11
1.3704630708661416
21
0.6958264173228347
0
LINE
8
BLACK
6
CONTINUOUS
10
1.3704630708661416
20
0.6958264173228347
11
1.3806336614173229
21
0.6958264173228347
0
LINE
8
BLACK
6
CONTINUOUS
10
1.3806336614173229
20
0.6958264173228347
11
1.3812097244094488
21
0.6957696850393701
0
LINE
8
BLACK
6
CONTINUOUS
10
1.3812097244094488
20
0.6957696850393701
11
1.3822741338582676
21
0.695328779527559
0
LINE
8
BLACK
6
CONTINUOUS
10
1.3822741338582676
20
0.695328779527559
11
1.383088779527559
21
0.6945141338582677
0
LINE
8
BLACK
6
CONTINUOUS
10
1.383088779527559
20
0.6945141338582677
11
1.3835296850393701
21
0.6934497244094489
0
LINE
8
BLACK
6
CONTINUOUS
10
1.3835296850393701
20
0.6934497244094489
11
1.3835296850393701
21
0.6922975984251968
0
LINE
8
BLACK
6
CONTINUOUS
10
1.3835296850393701
20
0.6922975984251968
11
1.383088779527559
21
0.691233188976378
0
LINE
8
BLACK
6
CONTINUOUS
10
1.383088779527559
20
0.691233188976378
11
1.3822741338582676
21
0.6904185433070866
0
LINE
8
BLACK
6
CONTINUOUS
10
1.3822741338582676
20
0.6904185433070866
11
1.3812097244094488
21
0.6899776377952755
0
LINE
8
BLACK
6
CONTINUOUS
10
1.3812097244094488
20
0.6899776377952755
11
1.3806336614173229
21
0.689920905511811
0
LINE
8
BLACK
6
CONTINUOUS
10
1.3806336614173229
20
0.689920905511811
11
1.3704630708661416
21
0.689920905511811
0
LINE
8
BLACK
6
CONTINUOUS
10
1.3704630708661416
20
0.689920905511811
11
1.3704630708661416
21
0.6752039763779527
0
LINE
8
BLACK
6
CONTINUOUS
10
1.3704630708661416
20
0.6752039763779527
11
1.3862579527559056
21
0.6752039763779527
0
LINE
8
BLACK
6
CONTINUOUS
10
1.3862579527559056
20
0.6752039763779527
11
1.3868340157480314
21
0.6751472440944881
0
LINE
8
BLACK
6
CONTINUOUS
10
1.3868340157480314
20
0.6751472440944881
11
1.3878984251968505
21
0.6747063385826771
0
LINE
8
BLACK
6
CONTINUOUS
10
1.3878984251968505
20
0.6747063385826771
11
1.3887130708661417
21
0.6738916929133858
0
LINE
8
BLACK
6
CONTINUOUS
10
1.3887130708661417
20
0.6738916929133858
11
1.3891539763779528
21
0.6728272834645669
0
LINE
8
BLACK
6
CONTINUOUS
10
1.3891539763779528
20
0.6728272834645669
11
1.3891539763779528
21
0.6716751574803149
0
LINE
8
BLACK
6
CONTINUOUS
10
1.3891539763779528
20
0.6716751574803149
11
1.3887130708661417
21
0.670610748031496
0
LINE
8
BLACK
6
CONTINUOUS
10
1.3887130708661417
20
0.670610748031496
11
1.3878984251968505
21
0.6697961023622047
0
LINE
8
BLACK
6
CONTINUOUS
10
1.3878984251968505
20
0.6697961023622047
11
1.3868340157480314
21
0.6693551968503937
0
LINE
8
BLACK
6
CONTINUOUS
10
1.3868340157480314
20
0.6693551968503937
11
1.3862579527559056
21
0.6692984645669291
0
LINE
8
BLACK
6
CONTINUOUS
10
1.3862579527559056
20
0.6692984645669291
11
1.3675103149606298
21
0.6692984645669291
0
LINE
8
BLACK
6
CONTINUOUS
10
1.3675103149606298
20
0.6692984645669291
11
1.3669342519685039
21
0.6693551968503937
0
LINE
8
BLACK
6
CONTINUOUS
10
1.3669342519685039
20
0.6693551968503937
11
1.3658698425196849
21
0.6697961023622047
0
LINE
8
BLACK
6
CONTINUOUS
10
1.3658698425196849
20
0.6697961023622047
11
1.3650551968503937
21
0.670610748031496
0
LINE
8
BLACK
6
CONTINUOUS
10
1.3650551968503937
20
0.670610748031496
11
1.3646142913385826
21
0.6716751574803149
0
LINE
8
BLACK
6
CONTINUOUS
10
1.3646142913385826
20
0.6716751574803149
11
1.364557559055118
21
0.6722512204724409
0
LINE
8
BLACK
6
CONTINUOUS
10
1.364557559055118
20
0.6722512204724409
11
1.364557559055118
21
0.7116212992125984
0
LINE
8
BLACK
6
CONTINUOUS
10
1.364557559055118
20
0.7116212992125984
11
1.3646142913385826
21
0.7121973622047244
0
LINE
8
BLACK
6
CONTINUOUS
10
1.3646142913385826
20
0.7121973622047244
11
1.3650551968503937
21
0.7132617716535433
0
LINE
8
BLACK
6
CONTINUOUS
10
1.3650551968503937
20
0.7132617716535433
11
1.3658698425196849
21
0.7140764173228347
0
LINE
8
BLACK
6
CONTINUOUS
10
1.3658698425196849
20
0.7140764173228347
11
1.3669342519685039
21
0.7145173228346456
0
LINE
8
BLACK
6
CONTINUOUS
10
1.3669342519685039
20
0.7145173228346456
11
1.3675103149606298
21
0.7145740551181102
0
LINE
8
BLACK
6
CONTINUOUS
10
1.3675103149606298
20
0.7145740551181102
11
1.3862579527559056
21
0.7145740551181102
0
LINE
8
BLACK
6
CONTINUOUS
10
1.3862579527559056
20
0.7145740551181102
11
1.3868340157480314
21
0.7145173228346456
0
LINE
8
BLACK
6
CONTINUOUS
10
1.4224545669291337
20
0.7145173228346456
11
1.4235189763779528
21
0.7140764173228347
0
LINE
8
BLACK
6
CONTINUOUS
10
1.4235189763779528
20
0.7140764173228347
11
1.424333622047244
21
0.7132617716535433
0
LINE
8
BLACK
6
CONTINUOUS
10
1.424333622047244
20
0.7132617716535433
11
1.4247745275590551
21
0.7121973622047244
0
LINE
8
BLACK
6
CONTINUOUS
10
1.4247745275590551
20
0.7121973622047244
11
1.4247745275590551
21
0.7110452362204724
0
LINE
8
BLACK
6
CONTINUOUS
10
1.4247745275590551
20
0.7110452362204724
11
1.424333622047244
21
0.7099808267716535
0
LINE
8
BLACK
6
CONTINUOUS
10
1.424333622047244
20
0.7099808267716535
11
1.4235189763779528
21
0.7091661811023622
0
LINE
8
BLACK
6
CONTINUOUS
10
1.4235189763779528
20
0.7091661811023622
11
1.4224545669291337
21
0.7087252755905512
0
LINE
8
BLACK
6
CONTINUOUS
10
1.4224545669291337
20
0.7087252755905512
11
1.4218785039370079
21
0.7086685433070866
0
LINE
8
BLACK
6
CONTINUOUS
10
1.4218785039370079
20
0.7086685433070866
11
1.4060836220472441
21
0.7086685433070866
0
LINE
8
BLACK
6
CONTINUOUS
10
1.4060836220472441
20
0.7086685433070866
11
1.4060836220472441
21
0.6958264173228347
0
LINE
8
BLACK
6
CONTINUOUS
10
1.4060836220472441
20
0.6958264173228347
11
1.4162542125984252
21
0.6958264173228347
0
LINE
8
BLACK
6
CONTINUOUS
10
1.4162542125984252
20
0.6958264173228347
11
1.4168302755905511
21
0.6957696850393701
0
LINE
8
BLACK
6
CONTINUOUS
10
1.4168302755905511
20
0.6957696850393701
11
1.4178946850393701
21
0.695328779527559
0
LINE
8
BLACK
6
CONTINUOUS
10
1.4178946850393701
20
0.695328779527559
11
1.4187093307086613
21
0.6945141338582677
0
LINE
8
BLACK
6
CONTINUOUS
10
1.4187093307086613
20
0.6945141338582677
11
1.4191502362204724
21
0.6934497244094489
0
LINE
8
BLACK
6
CONTINUOUS
10
1.4191502362204724
20
0.6934497244094489
11
1.4191502362204724
21
0.6922975984251968
0
LINE
8
BLACK
6
CONTINUOUS
10
1.4191502362204724
20
0.6922975984251968
11
1.4187093307086613
21
0.691233188976378
0
LINE
8
BLACK
6
CONTINUOUS
10
1.4187093307086613
20
0.691233188976378
11
1.4178946850393701
21
0.6904185433070866
0
LINE
8
BLACK
6
CONTINUOUS
10
1.4178946850393701
20
0.6904185433070866
11
1.4168302755905511
21
0.6899776377952755
0
LINE
8
BLACK
6
CONTINUOUS
10
1.4168302755905511
20
0.6899776377952755
11
1.4162542125984252
21
0.689920905511811
0
LINE
8
BLACK
6
CONTINUOUS
10
1.4162542125984252
20
0.689920905511811
11
1.4060836220472441
21
0.689920905511811
0
LINE
8
BLACK
6
CONTINUOUS
10
1.4060836220472441
20
0.689920905511811
11
1.4060836220472441
21
0.6752039763779527
0
LINE
8
BLACK
6
CONTINUOUS
10
1.4060836220472441
20
0.6752039763779527
11
1.4218785039370079
21
0.6752039763779527
0
LINE
8
BLACK
6
CONTINUOUS
10
1.4218785039370079
20
0.6752039763779527
11
1.4224545669291337
21
0.6751472440944881
0
LINE
8
BLACK
6
CONTINUOUS
10
1.4224545669291337
20
0.6751472440944881
11
1.4235189763779528
21
0.6747063385826771
0
LINE
8
BLACK
6
CONTINUOUS
10
1.4235189763779528
20
0.6747063385826771
11
1.424333622047244
21
0.6738916929133858
0
LINE
8
BLACK
6
CONTINUOUS
10
1.424333622047244
20
0.6738916929133858
11
1.4247745275590551
21
0.6728272834645669
0
LINE
8
BLACK
6
CONTINUOUS
10
1.4247745275590551
20
0.6728272834645669
11
1.4247745275590551
21
0.6716751574803149
0
LINE
8
BLACK
6
CONTINUOUS
10
1.4247745275590551
20
0.6716751574803149
11
1.424333622047244
21
0.670610748031496
0
LINE
8
BLACK
6
CONTINUOUS
10
1.424333622047244
20
0.670610748031496
11
1.4235189763779528
21
0.6697961023622047
0
LINE
8
BLACK
6
CONTINUOUS
10
1.4235189763779528
20
0.6697961023622047
11
1.4224545669291337
21
0.6693551968503937
0
LINE
8
BLACK
6
CONTINUOUS
10
1.4224545669291337
20
0.6693551968503937
11
1.4218785039370079
21
0.6692984645669291
0
LINE
8
BLACK
6
CONTINUOUS
10
1.4218785039370079
20
0.6692984645669291
11
1.4031308661417323
21
0.6692984645669291
0
LINE
8
BLACK
6
CONTINUOUS
10
1.4031308661417323
20
0.6692984645669291
11
1.4025548031496062
21
0.6693551968503937
0
LINE
8
BLACK
6
CONTINUOUS
10
1.4025548031496062
20
0.6693551968503937
11
1.4014903937007874
21
0.6697961023622047
0
LINE
8
BLACK
6
CONTINUOUS
10
1.4014903937007874
20
0.6697961023622047
11
1.400675748031496
21
0.670610748031496
0
LINE
8
BLACK
6
CONTINUOUS
10
1.400675748031496
20
0.670610748031496
11
1.4002348425196851
21
0.6716751574803149
0
LINE
8
BLACK
6
CONTINUOUS
10
1.4002348425196851
20
0.6716751574803149
11
1.4001781102362205
21
0.6722512204724409
0
LINE
8
BLACK
6
CONTINUOUS
10
1.4001781102362205
20
0.6722512204724409
11
1.4001781102362205
21
0.7116212992125984
0
LINE
8
BLACK
6
CONTINUOUS
10
1.4001781102362205
20
0.7116212992125984
11
1.4002348425196851
21
0.7121973622047244
0
LINE
8
BLACK
6
CONTINUOUS
10
1.4002348425196851
20
0.7121973622047244
11
1.400675748031496
21
0.7132617716535433
0
LINE
8
BLACK
6
CONTINUOUS
10
1.400675748031496
20
0.7132617716535433
11
1.4014903937007874
21
0.7140764173228347
0
LINE
8
BLACK
6
CONTINUOUS
10
1.4014903937007874
20
0.7140764173228347
11
1.4025548031496062
21
0.7145173228346456
0
LINE
8
BLACK
6
CONTINUOUS
10
1.4025548031496062
20
0.7145173228346456
11
1.4031308661417323
21
0.7145740551181102
0
LINE
8
BLACK
6
CONTINUOUS
10
1.4031308661417323
20
0.7145740551181102
11
1.4218785039370079
21
0.7145740551181102
0
LINE
8
BLACK
6
CONTINUOUS
10
1.4218785039370079
20
0.7145740551181102
11
1.4224545669291337
21
0.7145173228346456
0
LINE
8
BLACK
6
CONTINUOUS
10
1.4936956692913386
20
0.7145173228346456
11
1.4937936614173228
21
0.7144767322834645
0
LINE
8
BLACK
6
CONTINUOUS
10
1.4937936614173228
20
0.7144767322834645
11
1.4938994881889764
21
0.7144692125984252
0
LINE
8
BLACK
6
CONTINUOUS
10
1.4938994881889764
20
0.7144692125984252
11
1.4944401181102362
21
0.7142623228346456
0
LINE
8
BLACK
6
CONTINUOUS
10
1.4944401181102362
20
0.7142623228346456
11
1.4981896456692914
21
0.7123875590551181
0
LINE
8
BLACK
6
CONTINUOUS
10
1.4981896456692914
20
0.7123875590551181
11
1.4984376377952755
21
0.7122314960629921
0
LINE
8
BLACK
6
CONTINUOUS
10
1.4984376377952755
20
0.7122314960629921
11
1.4985096062992125
21
0.7122016535433071
0
LINE
8
BLACK
6
CONTINUOUS
10
1.4985096062992125
20
0.7122016535433071
11
1.4985905511811024
21
0.7121351968503937
0
LINE
8
BLACK
6
CONTINUOUS
10
1.4985905511811024
20
0.7121351968503937
11
1.498679527559055
21
0.7120792125984252
0
LINE
8
BLACK
6
CONTINUOUS
10
1.498679527559055
20
0.7120792125984252
11
1.4987306692913385
21
0.7120202362204724
0
LINE
8
BLACK
6
CONTINUOUS
10
1.4987306692913385
20
0.7120202362204724
11
1.4989570472440945
21
0.7118344488188976
0
LINE
8
BLACK
6
CONTINUOUS
10
1.4989570472440945
20
0.7118344488188976
11
1.5027065748031496
21
0.7080849212598425
0
LINE
8
BLACK
6
CONTINUOUS
10
1.5027065748031496
20
0.7080849212598425
11
1.5030738188976378
21
0.7076374803149607
0
LINE
8
BLACK
6
CONTINUOUS
10
1.5030738188976378
20
0.7076374803149607
11
1.5031578346456693
21
0.7074346062992126
0
LINE
8
BLACK
6
CONTINUOUS
10
1.5031578346456693
20
0.7074346062992126
11
1.5032885039370079
21
0.7072582677165354
0
LINE
8
BLACK
6
CONTINUOUS
10
1.5032885039370079
20
0.7072582677165354
11
1.5034832677165355
21
0.7067131496062992
0
LINE
8
BLACK
6
CONTINUOUS
10
1.5034832677165355
20
0.7067131496062992
11
1.5053580314960631
21
0.6992140944881889
0
LINE
8
BLACK
6
CONTINUOUS
10
1.5053580314960631
20
0.6992140944881889
11
1.5053727952755904
21
0.699114251968504
0
LINE
8
BLACK
6
CONTINUOUS
10
1.5053727952755904
20
0.699114251968504
11
1.5053894488188977
21
0.6990740157480315
0
LINE
8
BLACK
6
CONTINUOUS
10
1.5053894488188977
20
0.6990740157480315
11
1.5054107874015747
21
0.6988570078740157
0
LINE
8
BLACK
6
CONTINUOUS
10
1.5054107874015747
20
0.6988570078740157
11
1.5054426771653544
21
0.6986414960629921
0
LINE
8
BLACK
6
CONTINUOUS
10
1.5054426771653544
20
0.6986414960629921
11
1.5054362598425197
21
0.6985985039370078
0
LINE
8
BLACK
6
CONTINUOUS
10
1.5054362598425197
20
0.6985985039370078
11
1.5054461811023623
21
0.6984979527559055
0
LINE
8
BLACK
6
CONTINUOUS
10
1.5054461811023623
20
0.6984979527559055
11
1.5054461811023623
21
0.6853746062992125
0
LINE
8
BLACK
6
CONTINUOUS
10
1.5054461811023623
20
0.6853746062992125
11
1.5054362598425197
21
0.685274094488189
0
LINE
8
BLACK
6
CONTINUOUS
10
1.5054362598425197
20
0.685274094488189
11
1.5054426771653544
21
0.685231062992126
0
LINE
8
BLACK
6
CONTINUOUS
10
1.5054426771653544
20
0.685231062992126
11
1.5054107874015747
21
0.6850155905511811
0
LINE
8
BLACK
6
CONTINUOUS
10
1.5054107874015747
20
0.6850155905511811
11
1.5053894488188977
21
0.6847985433070866
0
LINE
8
BLACK
6
CONTINUOUS
10
1.5053894488188977
20
0.6847985433070866
11
1.5053727952755904
21
0.6847583464566929
0
LINE
8
BLACK
6
CONTINUOUS
10
1.5053727952755904
20
0.6847583464566929
11
1.5053580314960631
21
0.6846584645669291
0
LINE
8
BLACK
6
CONTINUOUS
10
1.5053580314960631
20
0.6846584645669291
11
1.5034832677165355
21
0.6771594094488189
0
LINE
8
BLACK
6
CONTINUOUS
10
1.5034832677165355
20
0.6771594094488189
11
1.5032885039370079
21
0.6766142913385826
0
LINE
8
BLACK
6
CONTINUOUS
10
1.5032885039370079
20
0.6766142913385826
11
1.5031577952755906
21
0.6764379527559055
0
LINE
8
BLACK
6
CONTINUOUS
10
1.5031577952755906
20
0.6764379527559055
11
1.5030738188976378
21
0.6762351181102362
0
LINE
8
BLACK
6
CONTINUOUS
10
1.5030738188976378
20
0.6762351181102362
11
1.5027066141732284
21
0.6757876771653543
0
LINE
8
BLACK
6
CONTINUOUS
10
1.5027066141732284
20
0.6757876771653543
11
1.4989570472440945
21
0.6720380708661418
0
LINE
8
BLACK
6
CONTINUOUS
10
1.4989570472440945
20
0.6720380708661418
11
1.4987306692913385
21
0.6718523228346457
0
LINE
8
BLACK
6
CONTINUOUS
10
1.4987306692913385
20
0.6718523228346457
11
1.498679527559055
21
0.6717933070866141
0
LINE
8
BLACK
6
CONTINUOUS
10
1.498679527559055
20
0.6717933070866141
11
1.4985905511811024
21
0.6717373622047244
0
LINE
8
BLACK
6
CONTINUOUS
10
1.4985905511811024
20
0.6717373622047244
11
1.4985096062992125
21
0.6716708661417322
0
LINE
8
BLACK
6
CONTINUOUS
10
1.4985096062992125
20
0.6716708661417322
11
1.4984376377952755
21
0.671641062992126
0
LINE
8
BLACK
6
CONTINUOUS
10
1.4984376377952755
20
0.671641062992126
11
1.4981896456692914
21
0.6714849606299212
0
LINE
8
BLACK
6
CONTINUOUS
10
1.4981896456692914
20
0.6714849606299212
11
1.4944401181102362
21
0.6696101968503937
0
LINE
8
BLACK
6
CONTINUOUS
10
1.4944401181102362
20
0.6696101968503937
11
1.4938994881889764
21
0.6694033070866141
0
LINE
8
BLACK
6
CONTINUOUS
10
1.4938994881889764
20
0.6694033070866141
11
1.4937936614173228
21
0.6693958267716535
0
LINE
8
BLACK
6
CONTINUOUS
10
1.4937936614173228
20
0.6693958267716535
11
1.4936956692913386
21
0.6693551968503937
0
LINE
8
BLACK
6
CONTINUOUS
10
1.4936956692913386
20
0.6693551968503937
11
1.4931196062992125
21
0.6692984645669291
0
LINE
8
BLACK
6
CONTINUOUS
10
1.4931196062992125
20
0.6692984645669291
11
1.4856205511811023
21
0.6692984645669291
0
LINE
8
BLACK
6
CONTINUOUS
10
1.4856205511811023
20
0.6692984645669291
11
1.4850444881889764
21
0.6693551968503937
0
LINE
8
BLACK
6
CONTINUOUS
10
1.4850444881889764
20
0.6693551968503937
11
1.4849464960629921
21
0.6693957874015748
0
LINE
8
BLACK
6
CONTINUOUS
10
1.4849464960629921
20
0.6693957874015748
11
1.4848406299212598
21
0.6694033070866141
0
LINE
8
BLACK
6
CONTINUOUS
10
1.4848406299212598
20
0.6694033070866141
11
1.4843000393700787
21
0.6696101968503937
0
LINE
8
BLACK
6
CONTINUOUS
10
1.4843000393700787
20
0.6696101968503937
11
1.4805505118110236
21
0.6714849606299212
0
LINE
8
BLACK
6
CONTINUOUS
10
1.4805505118110236
20
0.6714849606299212
11
1.4803026771653542
21
0.6716409842519685
0
LINE
8
BLACK
6
CONTINUOUS
10
1.4803026771653542
20
0.6716409842519685
11
1.4802305511811022
21
0.6716708267716536
0
LINE
8
BLACK
6
CONTINUOUS
10
1.4802305511811022
20
0.6716708267716536
11
1.48014937007874
21
0.6717374409448819
0
LINE
8
BLACK
6
CONTINUOUS
10
1.48014937007874
20
0.6717374409448819
11
1.4800606299212598
21
0.6717933070866141
0
LINE
8
BLACK
6
CONTINUOUS
10
1.4800606299212598
20
0.6717933070866141
11
1.4800094881889763
21
0.6718522440944882
0
LINE
8
BLACK
6
CONTINUOUS
10
1.4800094881889763
20
0.6718522440944882
11
1.4797831102362204
21
0.6720380708661418
0
LINE
8
BLACK
6
CONTINUOUS
10
1.4797831102362204
20
0.6720380708661418
11
1.4760335826771653
21
0.6757876377952756
0
LINE
8
BLACK
6
CONTINUOUS
10
1.4760335826771653
20
0.6757876377952756
11
1.4756663385826772
21
0.6762351181102362
0
LINE
8
BLACK
6
CONTINUOUS
10
1.4756663385826772
20
0.6762351181102362
11
1.4755823228346456
21
0.6764379527559055
0
LINE
8
BLACK
6
CONTINUOUS
10
1.4755823228346456
20
0.6764379527559055
11
1.4754516535433071
21
0.6766142913385826
0
LINE
8
BLACK
6
CONTINUOUS
10
1.4754516535433071
20
0.6766142913385826
11
1.4752568897637794
21
0.6771594094488189
0
LINE
8
BLACK
6
CONTINUOUS
10
1.4752568897637794
20
0.6771594094488189
11
1.4733821259842519
21
0.6846584645669291
0
LINE
8
BLACK
6
CONTINUOUS
10
1.4733821259842519
20
0.6846584645669291
11
1.4733673228346456
21
0.6847583464566929
0
LINE
8
BLACK
6
CONTINUOUS
10
1.4733673228346456
20
0.6847583464566929
11
1.4733507086614173
21
0.6847985433070866
0
LINE
8
BLACK
6
CONTINUOUS
10
1.4733507086614173
20
0.6847985433070866
11
1.4733293307086615
21
0.6850155905511811
0
LINE
8
BLACK
6
CONTINUOUS
10
1.4733293307086615
20
0.6850155905511811
11
1.4732974803149606
21
0.685231062992126
0
LINE
8
BLACK
6
CONTINUOUS
10
1.4732974803149606
20
0.685231062992126
11
1.4733038582677165
21
0.685274094488189
0
LINE
8
BLACK
6
CONTINUOUS
10
1.4733038582677165
20
0.685274094488189
11
1.4732939763779527
21
0.6853746062992125
0
LINE
8
BLACK
6
CONTINUOUS
10
1.4732939763779527
20
0.6853746062992125
11
1.4732939763779527
21
0.6984979527559055
0
LINE
8
BLACK
6
CONTINUOUS
10
1.4732939763779527
20
0.6984979527559055
11
1.4733038582677165
21
0.6985985039370078
0
LINE
8
BLACK
6
CONTINUOUS
10
1.4733038582677165
20
0.6985985039370078
11
1.4732974803149606
21
0.6986414960629921
0
LINE
8
BLACK
6
CONTINUOUS
10
1.4732974803149606
20
0.6986414960629921
11
1.4733293307086615
21
0.6988570078740157
0
LINE
8
BLACK
6
CONTINUOUS
10
1.4733293307086615
20
0.6988570078740157
11
1.4733507086614173
21
0.6990740157480315
0
LINE
8
BLACK
6
CONTINUOUS
10
1.4733507086614173
20
0.6990740157480315
11
1.4733673228346456
21
0.699114251968504
0
LINE
8
BLACK
6
CONTINUOUS
10
1.4733673228346456
20
0.699114251968504
11
1.4733821259842519
21
0.6992140944881889
0
LINE
8
BLACK
6
CONTINUOUS
10
1.4733821259842519
20
0.6992140944881889
11
1.4752568897637794
21
0.7067131496062992
0
LINE
8
BLACK
6
CONTINUOUS
10
1.4752568897637794
20
0.7067131496062992
11
1.4754516535433071
21
0.7072582677165354
0
LINE
8
BLACK
6
CONTINUOUS
10
1.4754516535433071
20
0.7072582677165354
11
1.4755823622047244
21
0.7074347244094488
0
LINE
8
BLACK
6
CONTINUOUS
10
1.4755823622047244
20
0.7074347244094488
11
1.4756663779527559
21
0.7076374803149607
0
LINE
8
BLACK
6
CONTINUOUS
10
1.4756663779527559
20
0.7076374803149607
11
1.4760335826771653
21
0.7080849212598425
0
LINE
8
BLACK
6
CONTINUOUS
10
1.4760335826771653
20
0.7080849212598425
11
1.4797831102362204
21
0.7118344488188976
0
LINE
8
BLACK
6
CONTINUOUS
10
1.4797831102362204
20
0.7118344488188976
11
1.4800094881889763
21
0.7120203149606299
0
LINE
8
BLACK
6
CONTINUOUS
10
1.4800094881889763
20
0.7120203149606299
11
1.4800606299212598
21
0.7120792125984252
0
LINE
8
BLACK
6
CONTINUOUS
10
1.4800606299212598
20
0.7120792125984252
11
1.48014937007874
21
0.7121351181102362
0
LINE
8
BLACK
6
CONTINUOUS
10
1.48014937007874
20
0.7121351181102362
11
1.4802305511811022
21
0.7122016929133859
0
LINE
8
BLACK
6
CONTINUOUS
10
1.4802305511811022
20
0.7122016929133859
11
1.4803026771653542
21
0.7122315748031496
0
LINE
8
BLACK
6
CONTINUOUS
10
1.4803026771653542
20
0.7122315748031496
11
1.4805505118110236
21
0.7123875590551181
0
LINE
8
BLACK
6
CONTINUOUS
10
1.4805505118110236
20
0.7123875590551181
11
1.4843000393700787
21
0.7142623228346456
0
LINE
8
BLACK
6
CONTINUOUS
10
1.4843000393700787
20
0.7142623228346456
11
1.4848406299212598
21
0.7144692125984252
0
LINE
8
BLACK
6
CONTINUOUS
10
1.4848406299212598
20
0.7144692125984252
11
1.4849464960629921
21
0.7144767716535433
0
LINE
8
BLACK
6
CONTINUOUS
10
1.4849464960629921
20
0.7144767716535433
11
1.4850444881889764
21
0.7145173228346456
0
LINE
8
BLACK
6
CONTINUOUS
10
1.4850444881889764
20
0.7145173228346456
11
1.4856205511811023
21
0.7145740551181102
0
LINE
8
BLACK
6
CONTINUOUS
10
1.4856205511811023
20
0.7145740551181102
11
1.4931196062992125
21
0.7145740551181102
0
LINE
8
BLACK
6
CONTINUOUS
10
1.4931196062992125
20
0.7145740551181102
11
1.4936956692913386
21
0.7145173228346456
0
LINE
8
BLACK
6
CONTINUOUS
10
1.4836201181102362
20
0.7073198031496063
11
1.4807877165354331
21
0.7044874409448819
0
LINE
8
BLACK
6
CONTINUOUS
10
1.4807877165354331
20
0.7044874409448819
11
1.4791994881889763
21
0.6981344094488189
0
LINE
8
BLACK
6
CONTINUOUS
10
1.4791994881889763
20
0.6981344094488189
11
1.4791994881889763
21
0.6857381496062992
0
LINE
8
BLACK
6
CONTINUOUS
10
1.4791994881889763
20
0.6857381496062992
11
1.4807877165354331
21
0.6793851574803149
0
LINE
8
BLACK
6
CONTINUOUS
10
1.4807877165354331
20
0.6793851574803149
11
1.4836201181102362
21
0.676552716535433
0
LINE
8
BLACK
6
CONTINUOUS
10
1.4836201181102362
20
0.676552716535433
11
1.4863175984251968
21
0.6752039763779527
0
LINE
8
BLACK
6
CONTINUOUS
10
1.4863175984251968
20
0.6752039763779527
11
1.4924225590551181
21
0.6752039763779527
0
LINE
8
BLACK
6
CONTINUOUS
10
1.4924225590551181
20
0.6752039763779527
11
1.49512
21
0.676552716535433
0
LINE
8
BLACK
6
CONTINUOUS
10
1.49512
20
0.676552716535433
11
1.4979524015748031
21
0.6793851574803149
0
LINE
8
BLACK
6
CONTINUOUS
10
1.4979524015748031
20
0.6793851574803149
11
1.4995406692913384
21
0.6857381496062992
0
LINE
8
BLACK
6
CONTINUOUS
10
1.4995406692913384
20
0.6857381496062992
11
1.4995406692913384
21
0.6981344094488189
0
LINE
8
BLACK
6
CONTINUOUS
10
1.4995406692913384
20
0.6981344094488189
11
1.4979524015748031
21
0.7044874409448819
0
LINE
8
BLACK
6
CONTINUOUS
10
1.4979524015748031
20
0.7044874409448819
11
1.4951200393700788
21
0.7073198031496063
0
LINE
8
BLACK
6
CONTINUOUS
10
1.4951200393700788
20
0.7073198031496063
11
1.4924225590551181
21
0.7086685433070866
0
LINE
8
BLACK
6
CONTINUOUS
10
1.4924225590551181
20
0.7086685433070866
11
1.4863175984251968
21
0.7086685433070866
0
LINE
8
BLACK
6
CONTINUOUS
10
1.4863175984251968
20
0.7086685433070866
11
1.4836201181102362
21
0.7073198031496063
0
LINE
8
BLACK
6
CONTINUOUS
10
1.5210068110236221
20
0.7140764173228347
11
1.5218214566929134
21
0.7132617716535433
0
LINE
8
BLACK
6
CONTINUOUS
10
1.5218214566929134
20
0.7132617716535433
11
1.5222623622047244
21
0.7121973622047244
0
LINE
8
BLACK
6
CONTINUOUS
10
1.5222623622047244
20
0.7121973622047244
11
1.522319094488189
21
0.7116212992125984
0
LINE
8
BLACK
6
CONTINUOUS
10
1.522319094488189
20
0.7116212992125984
11
1.522319094488189
21
0.6804473622047243
0
LINE
8
BLACK
6
CONTINUOUS
10
1.522319094488189
20
0.6804473622047243
11
1.5236678346456694
21
0.6777498818897638
0
LINE
8
BLACK
6
CONTINUOUS
10
1.5236678346456694
20
0.6777498818897638
11
1.5248649606299212
21
0.676552716535433
0
LINE
8
BLACK
6
CONTINUOUS
10
1.5248649606299212
20
0.676552716535433
11
1.5275624409448818
21
0.6752039763779527
0
LINE
8
BLACK
6
CONTINUOUS
10
1.5275624409448818
20
0.6752039763779527
11
1.5336674015748031
21
0.6752039763779527
0
LINE
8
BLACK
6
CONTINUOUS
10
1.5336674015748031
20
0.6752039763779527
11
1.536364842519685
21
0.676552716535433
0
LINE
8
BLACK
6
CONTINUOUS
10
1.536364842519685
20
0.676552716535433
11
1.537561968503937
21
0.6777498818897638
0
LINE
8
BLACK
6
CONTINUOUS
10
1.537561968503937
20
0.6777498818897638
11
1.5389107480314961
21
0.6804473622047243
0
LINE
8
BLACK
6
CONTINUOUS
10
1.5389107480314961
20
0.6804473622047243
11
1.5389107480314961
21
0.7116212992125984
0
LINE
8
BLACK
6
CONTINUOUS
10
1.5389107480314961
20
0.7116212992125984
11
1.5389674803149607
21
0.7121973622047244
0
LINE
8
BLACK
6
CONTINUOUS
10
1.5389674803149607
20
0.7121973622047244
11
1.5394083858267715
21
0.7132617716535433
0
LINE
8
BLACK
6
CONTINUOUS
10
1.5394083858267715
20
0.7132617716535433
11
1.540223031496063
21
0.7140764173228347
0
LINE
8
BLACK
6
CONTINUOUS
10
1.540223031496063
20
0.7140764173228347
11
1.5412874409448818
21
0.7145173228346456
0
LINE
8
BLACK
6
CONTINUOUS
10
1.5412874409448818
20
0.7145173228346456
11
1.5424395669291338
21
0.7145173228346456
0
LINE
8
BLACK
6
CONTINUOUS
10
1.5424395669291338
20
0.7145173228346456
11
1.5435039763779528
21
0.7140764173228347
0
LINE
8
BLACK
6
CONTINUOUS
10
1.5435039763779528
20
0.7140764173228347
11
1.544318622047244
21
0.7132617716535433
0
LINE
8
BLACK
6
CONTINUOUS
10
1.544318622047244
20
0.7132617716535433
11
1.5447595275590551
21
0.7121973622047244
0
LINE
8
BLACK
6
CONTINUOUS
10
1.5447595275590551
20
0.7121973622047244
11
1.5448162598425197
21
0.7116212992125984
0
LINE
8
BLACK
6
CONTINUOUS
10
1.5448162598425197
20
0.7116212992125984
11
1.5448162598425197
21
0.6797503149606299
0
LINE
8
BLACK
6
CONTINUOUS
10
1.5448162598425197
20
0.6797503149606299
11
1.5447595275590551
21
0.6791742519685039
0
LINE
8
BLACK
6
CONTINUOUS
10
1.5447595275590551
20
0.6791742519685039
11
1.544718937007874
21
0.6790762992125984
0
LINE
8
BLACK
6
CONTINUOUS
10
1.544718937007874
20
0.6790762992125984
11
1.5447114173228347
21
0.6789703937007874
0
LINE
8
BLACK
6
CONTINUOUS
10
1.5447114173228347
20
0.6789703937007874
11
1.544504527559055
21
0.6784298031496063
0
LINE
8
BLACK
6
CONTINUOUS
10
1.544504527559055
20
0.6784298031496063
11
1.5426297637795274
21
0.6746802755905512
0
LINE
8
BLACK
6
CONTINUOUS
10
1.5426297637795274
20
0.6746802755905512
11
1.5424737007874016
21
0.6744324015748031
0
LINE
8
BLACK
6
CONTINUOUS
10
1.5424737007874016
20
0.6744324015748031
11
1.5424438976377952
21
0.6743603543307086
0
LINE
8
BLACK
6
CONTINUOUS
10
1.5424438976377952
20
0.6743603543307086
11
1.5423773622047243
21
0.6742793307086614
0
LINE
8
BLACK
6
CONTINUOUS
10
1.5423773622047243
20
0.6742793307086614
11
1.5423214173228346
21
0.6741903937007874
0
LINE
8
BLACK
6
CONTINUOUS
10
1.5423214173228346
20
0.6741903937007874
11
1.5422624015748032
21
0.6741392519685039
0
LINE
8
BLACK
6
CONTINUOUS
10
1.5422624015748032
20
0.6741392519685039
11
1.542076653543307
21
0.6739128740157481
0
LINE
8
BLACK
6
CONTINUOUS
10
1.542076653543307
20
0.6739128740157481
11
1.5402019291338582
21
0.6720381102362205
0
LINE
8
BLACK
6
CONTINUOUS
10
1.5402019291338582
20
0.6720381102362205
11
1.5399755511811024
21
0.6718523622047244
0
LINE
8
BLACK
6
CONTINUOUS
10
1.5399755511811024
20
0.6718523622047244
11
1.5399243700787402
21
0.6717933070866141
0
LINE
8
BLACK
6
CONTINUOUS
10
1.5399243700787402
20
0.6717933070866141
11
1.5398353937007874
21
0.6717373228346456
0
LINE
8
BLACK
6
CONTINUOUS
10
1.5398353937007874
20
0.6717373228346456
11
1.5397544488188977
21
0.6716708661417322
0
LINE
8
BLACK
6
CONTINUOUS
10
1.5397544488188977
20
0.6716708661417322
11
1.5396824803149607
21
0.671641062992126
0
LINE
8
BLACK
6
CONTINUOUS
10
1.5396824803149607
20
0.671641062992126
11
1.5394344881889763
21
0.6714849606299212
0
LINE
8
BLACK
6
CONTINUOUS
10
1.5394344881889763
20
0.6714849606299212
11
1.5356849606299212
21
0.6696101968503937
0
LINE
8
BLACK
6
CONTINUOUS
10
1.5356849606299212
20
0.6696101968503937
11
1.5351443307086614
21
0.6694033070866141
0
LINE
8
BLACK
6
CONTINUOUS
10
1.5351443307086614
20
0.6694033070866141
11
1.5350385039370078
21
0.6693958267716535
0
LINE
8
BLACK
6
CONTINUOUS
10
1.5350385039370078
20
0.6693958267716535
11
1.5349405118110235
21
0.6693551968503937
0
LINE
8
BLACK
6
CONTINUOUS
10
1.5349405118110235
20
0.6693551968503937
11
1.5343644488188977
21
0.6692984645669291
0
LINE
8
BLACK
6
CONTINUOUS
10
1.5343644488188977
20
0.6692984645669291
11
1.5268653937007874
21
0.6692984645669291
0
LINE
8
BLACK
6
CONTINUOUS
10
1.5268653937007874
20
0.6692984645669291
11
1.5262893307086614
21
0.6693551968503937
0
LINE
8
BLACK
6
CONTINUOUS
10
1.5262893307086614
20
0.6693551968503937
11
1.5261913385826771
21
0.6693957874015748
0
LINE
8
BLACK
6
CONTINUOUS
10
1.5261913385826771
20
0.6693957874015748
11
1.5260854724409449
21
0.6694033070866141
0
LINE
8
BLACK
6
CONTINUOUS
10
1.5260854724409449
20
0.6694033070866141
11
1.5255448818897637
21
0.6696101968503937
0
LINE
8
BLACK
6
CONTINUOUS
10
1.5255448818897637
20
0.6696101968503937
11
1.5217953543307086
21
0.6714849606299212
0
LINE
8
BLACK
6
CONTINUOUS
10
1.5217953543307086
20
0.6714849606299212
11
1.5215473228346457
21
0.671641062992126
0
LINE
8
BLACK
6
CONTINUOUS
10
1.5215473228346457
20
0.671641062992126
11
1.5214753937007874
21
0.6716708661417322
0
LINE
8
BLACK
6
CONTINUOUS
10
1.5214753937007874
20
0.6716708661417322
11
1.5213944094488188
21
0.6717373228346456
0
LINE
8
BLACK
6
CONTINUOUS
10
1.5213944094488188
20
0.6717373228346456
11
1.5213054724409449
21
0.6717933070866141
0
LINE
8
BLACK
6
CONTINUOUS
10
1.5213054724409449
20
0.6717933070866141
11
1.5212542519685039
21
0.6718523622047244
0
LINE
8
BLACK
6
CONTINUOUS
10
1.5212542519685039
20
0.6718523622047244
11
1.5210279133858267
21
0.6720381102362205
0
LINE
8
BLACK
6
CONTINUOUS
10
1.5210279133858267
20
0.6720381102362205
11
1.5191531496062991
21
0.6739129133858267
0
LINE
8
BLACK
6
CONTINUOUS
10
1.5191531496062991
20
0.6739129133858267
11
1.5189674015748031
21
0.6741392519685039
0
LINE
8
BLACK
6
CONTINUOUS
10
1.5189674015748031
20
0.6741392519685039
11
1.5189084251968503
21
0.6741903937007874
0
LINE
8
BLACK
6
CONTINUOUS
10
1.5189084251968503
20
0.6741903937007874
11
1.5188524409448818
21
0.6742793307086614
0
LINE
8
BLACK
6
CONTINUOUS
10
1.5188524409448818
20
0.6742793307086614
11
1.5187859448818897
21
0.6743603543307086
0
LINE
8
BLACK
6
CONTINUOUS
10
1.5187859448818897
20
0.6743603543307086
11
1.5187561023622047
21
0.6744324015748031
0
LINE
8
BLACK
6
CONTINUOUS
10
1.5187561023622047
20
0.6744324015748031
11
1.5186000787401575
21
0.6746802755905512
0
LINE
8
BLACK
6
CONTINUOUS
10
1.5186000787401575
20
0.6746802755905512
11
1.5167253149606299
21
0.6784298031496063
0
LINE
8
BLACK
6
CONTINUOUS
10
1.5167253149606299
20
0.6784298031496063
11
1.5165184251968504
21
0.6789704330708661
0
LINE
8
BLACK
6
CONTINUOUS
10
1.5165184251968504
20
0.6789704330708661
11
1.5165109055118109
21
0.6790762598425196
0
LINE
8
BLACK
6
CONTINUOUS
10
1.5165109055118109
20
0.6790762598425196
11
1.5164703149606298
21
0.6791742519685039
0
LINE
8
BLACK
6
CONTINUOUS
10
1.5164703149606298
20
0.6791742519685039
11
1.5164135826771654
21
0.6797503149606299
0
LINE
8
BLACK
6
CONTINUOUS
10
1.5164135826771654
20
0.6797503149606299
11
1.5164135826771654
21
0.7116212992125984
0
LINE
8
BLACK
6
CONTINUOUS
10
1.5164135826771654
20
0.7116212992125984
11
1.5164703149606298
21
0.7121973622047244
0
LINE
8
BLACK
6
CONTINUOUS
10
1.5164703149606298
20
0.7121973622047244
11
1.5169112204724409
21
0.7132617716535433
0
LINE
8
BLACK
6
CONTINUOUS
10
1.5169112204724409
20
0.7132617716535433
11
1.5177258661417323
21
0.7140764173228347
0
LINE
8
BLACK
6
CONTINUOUS
10
1.5177258661417323
20
0.7140764173228347
11
1.5187902755905511
21
0.7145173228346456
0
LINE
8
BLACK
6
CONTINUOUS
10
1.5187902755905511
20
0.7145173228346456
11
1.5199424015748031
21
0.7145173228346456
0
LINE
8
BLACK
6
CONTINUOUS
10
1.5199424015748031
20
0.7145173228346456
11
1.5210068110236221
21
0.7140764173228347
0
LINE
8
BLACK
6
CONTINUOUS
10
1.3297807086614173
20
0.7140764173228347
11
1.3305953543307085
21
0.7132617716535433
0
LINE
8
BLACK
6
CONTINUOUS
10
1.3305953543307085
20
0.7132617716535433
11
1.3310362598425196
21
0.7121973622047244
0
LINE
8
BLACK
6
CONTINUOUS
10
1.3310362598425196
20
0.7121973622047244
11
1.3310929921259842
21
0.7116212992125984
0
LINE
8
BLACK
6
CONTINUOUS
10
1.3310929921259842
20
0.7116212992125984
11
1.3310929921259842
21
0.6962527165354331
0
LINE
8
BLACK
6
CONTINUOUS
10
1.3310929921259842
20
0.6962527165354331
11
1.3485494881889764
21
0.7137092125984252
0
LINE
8
BLACK
6
CONTINUOUS
10
1.3485494881889764
20
0.7137092125984252
11
1.3489969291338582
21
0.7140764173228347
0
LINE
8
BLACK
6
CONTINUOUS
10
1.3489969291338582
20
0.7140764173228347
11
1.3500613385826772
21
0.7145173228346456
0
LINE
8
BLACK
6
CONTINUOUS
10
1.3500613385826772
20
0.7145173228346456
11
1.3512134251968504
21
0.7145173228346456
0
LINE
8
BLACK
6
CONTINUOUS
10
1.3512134251968504
20
0.7145173228346456
11
1.3522778740157479
21
0.7140764173228347
0
LINE
8
BLACK
6
CONTINUOUS
10
1.3522778740157479
20
0.7140764173228347
11
1.3530925196850394
21
0.7132617716535433
0
LINE
8
BLACK
6
CONTINUOUS
10
1.3530925196850394
20
0.7132617716535433
11
1.3535334251968503
21
0.7121973228346457
0
LINE
8
BLACK
6
CONTINUOUS
10
1.3535334251968503
20
0.7121973228346457
11
1.3535334251968503
21
0.7110452362204724
0
LINE
8
BLACK
6
CONTINUOUS
10
1.3535334251968503
20
0.7110452362204724
11
1.3530925196850394
21
0.7099808267716535
0
LINE
8
BLACK
6
CONTINUOUS
10
1.3530925196850394
20
0.7099808267716535
11
1.35272531496063
21
0.7095333858267716
0
LINE
8
BLACK
6
CONTINUOUS
10
1.35272531496063
20
0.7095333858267716
11
1.3376632677165354
21
0.6944713779527559
0
LINE
8
BLACK
6
CONTINUOUS
10
1.3376632677165354
20
0.6944713779527559
11
1.3529996062992127
21
0.674022874015748
0
LINE
8
BLACK
6
CONTINUOUS
10
1.3529996062992127
20
0.674022874015748
11
1.3532998818897637
21
0.6735279921259842
0
LINE
8
BLACK
6
CONTINUOUS
10
1.3532998818897637
20
0.6735279921259842
11
1.3535857874015749
21
0.6724118897637795
0
LINE
8
BLACK
6
CONTINUOUS
10
1.3535857874015749
20
0.6724118897637795
11
1.3534228346456694
21
0.6712714173228347
0
LINE
8
BLACK
6
CONTINUOUS
10
1.3534228346456694
20
0.6712714173228347
11
1.3528358661417323
21
0.6702800393700787
0
LINE
8
BLACK
6
CONTINUOUS
10
1.3528358661417323
20
0.6702800393700787
11
1.3519141732283464
21
0.6695887401574803
0
LINE
8
BLACK
6
CONTINUOUS
10
1.3519141732283464
20
0.6695887401574803
11
1.3507981102362205
21
0.6693028346456693
0
LINE
8
BLACK
6
CONTINUOUS
10
1.3507981102362205
20
0.6693028346456693
11
1.3496575984251968
21
0.6694657480314961
0
LINE
8
BLACK
6
CONTINUOUS
10
1.3496575984251968
20
0.6694657480314961
11
1.3486662204724409
21
0.6700527559055118
0
LINE
8
BLACK
6
CONTINUOUS
10
1.3486662204724409
20
0.6700527559055118
11
1.3482751968503937
21
0.6704795669291338
0
LINE
8
BLACK
6
CONTINUOUS
10
1.3482751968503937
20
0.6704795669291338
11
1.3334450393700787
21
0.6902531496062992
0
LINE
8
BLACK
6
CONTINUOUS
10
1.3334450393700787
20
0.6902531496062992
11
1.3310929921259842
21
0.6879010629921259
0
LINE
8
BLACK
6
CONTINUOUS
10
1.3310929921259842
20
0.6879010629921259
11
1.3310929921259842
21
0.6722512204724409
0
LINE
8
BLACK
6
CONTINUOUS
10
1.3310929921259842
20
0.6722512204724409
11
1.3310362598425196
21
0.6716751574803149
0
LINE
8
BLACK
6
CONTINUOUS
10
1.3310362598425196
20
0.6716751574803149
11
1.3305953543307085
21
0.670610748031496
0
LINE
8
BLACK
6
CONTINUOUS
10
1.3305953543307085
20
0.670610748031496
11
1.3297807086614173
21
0.6697961023622047
0
LINE
8
BLACK
6
CONTINUOUS
10
1.3297807086614173
20
0.6697961023622047
11
1.3287162992125985
21
0.6693551968503937
0
LINE
8
BLACK
6
CONTINUOUS
10
1.3287162992125985
20
0.6693551968503937
11
1.3275641732283465
21
0.6693551968503937
0
LINE
8
BLACK
6
CONTINUOUS
10
1.3275641732283465
20
0.6693551968503937
11
1.3264997637795275
21
0.6697961023622047
0
LINE
8
BLACK
6
CONTINUOUS
10
1.3264997637795275
20
0.6697961023622047
11
1.3256851181102363
21
0.670610748031496
0
LINE
8
BLACK
6
CONTINUOUS
10
1.3256851181102363
20
0.670610748031496
11
1.3252442125984252
21
0.6716751574803149
0
LINE
8
BLACK
6
CONTINUOUS
10
1.3252442125984252
20
0.6716751574803149
11
1.3251874803149606
21
0.6722512204724409
0
LINE
8
BLACK
6
CONTINUOUS
10
1.3251874803149606
20
0.6722512204724409
11
1.3251874803149606
21
0.7116212992125984
0
LINE
8
BLACK
6
CONTINUOUS
10
1.3251874803149606
20
0.7116212992125984
11
1.3252442125984252
21
0.7121973622047244
0
LINE
8
BLACK
6
CONTINUOUS
10
1.3252442125984252
20
0.7121973622047244
11
1.3256851181102363
21
0.7132617716535433
0
LINE
8
BLACK
6
CONTINUOUS
10
1.3256851181102363
20
0.7132617716535433
11
1.3264997637795275
21
0.7140764173228347
0
LINE
8
BLACK
6
CONTINUOUS
10
1.3264997637795275
20
0.7140764173228347
11
1.3275641732283465
21
0.7145173228346456
0
LINE
8
BLACK
6
CONTINUOUS
10
1.3275641732283465
20
0.7145173228346456
11
1.3287162992125985
21
0.7145173228346456
0
LINE
8
BLACK
6
CONTINUOUS
10
1.3287162992125985
20
0.7145173228346456
11
1.3297807086614173
21
0.7140764173228347
0
LINE
8
BLACK
6
CONTINUOUS
10
1.4543255905511812
20
0.7145173228346456
11
1.4544235826771654
21
0.7144767322834645
0
LINE
8
BLACK
6
CONTINUOUS
10
1.4544235826771654
20
0.7144767322834645
11
1.4545294094488188
21
0.7144692125984252
0
LINE
8
BLACK
6
CONTINUOUS
10
1.4545294094488188
20
0.7144692125984252
11
1.4550700393700786
21
0.7142623228346456
0
LINE
8
BLACK
6
CONTINUOUS
10
1.4550700393700786
20
0.7142623228346456
11
1.4588195669291337
21
0.7123875590551181
0
LINE
8
BLACK
6
CONTINUOUS
10
1.4588195669291337
20
0.7123875590551181
11
1.4590675590551181
21
0.7122314960629921
0
LINE
8
BLACK
6
CONTINUOUS
10
1.4590675590551181
20
0.7122314960629921
11
1.4591395275590551
21
0.7122016535433071
0
LINE
8
BLACK
6
CONTINUOUS
10
1.4591395275590551
20
0.7122016535433071
11
1.4592204724409448
21
0.7121351968503937
0
LINE
8
BLACK
6
CONTINUOUS
10
1.4592204724409448
20
0.7121351968503937
11
1.4593094488188976
21
0.7120792125984252
0
LINE
8
BLACK
6
CONTINUOUS
10
1.4593094488188976
20
0.7120792125984252
11
1.4593605905511811
21
0.7120202362204724
0
LINE
8
BLACK
6
CONTINUOUS
10
1.4593605905511811
20
0.7120202362204724
11
1.4595869685039369
21
0.7118344488188976
0
LINE
8
BLACK
6
CONTINUOUS
10
1.4595869685039369
20
0.7118344488188976
11
1.4614617322834644
21
0.70995968503937
0
LINE
8
BLACK
6
CONTINUOUS
10
1.4614617322834644
20
0.70995968503937
11
1.4616474803149606
21
0.7097333464566929
0
LINE
8
BLACK
6
CONTINUOUS
10
1.4616474803149606
20
0.7097333464566929
11
1.4617064960629922
21
0.7096821653543307
0
LINE
8
BLACK
6
CONTINUOUS
10
1.4617064960629922
20
0.7096821653543307
11
1.4617624409448819
21
0.7095932283464567
0
LINE
8
BLACK
6
CONTINUOUS
10
1.4617624409448819
20
0.7095932283464567
11
1.4618289370078741
21
0.7095122440944882
0
LINE
8
BLACK
6
CONTINUOUS
10
1.4618289370078741
20
0.7095122440944882
11
1.4618587401574803
21
0.7094403149606299
0
LINE
8
BLACK
6
CONTINUOUS
10
1.4618587401574803
20
0.7094403149606299
11
1.4620148425196851
21
0.7091922834645669
0
LINE
8
BLACK
6
CONTINUOUS
10
1.4620148425196851
20
0.7091922834645669
11
1.4638896062992126
21
0.7054427559055118
0
LINE
8
BLACK
6
CONTINUOUS
10
1.4638896062992126
20
0.7054427559055118
11
1.4640964960629921
21
0.7049021653543307
0
LINE
8
BLACK
6
CONTINUOUS
10
1.4640964960629921
20
0.7049021653543307
11
1.4641040157480314
21
0.7047962992125985
0
LINE
8
BLACK
6
CONTINUOUS
10
1.4641040157480314
20
0.7047962992125985
11
1.4641446062992125
21
0.7046983070866142
0
LINE
8
BLACK
6
CONTINUOUS
10
1.4641446062992125
20
0.7046983070866142
11
1.4642013385826771
21
0.7041222440944882
0
LINE
8
BLACK
6
CONTINUOUS
10
1.4642013385826771
20
0.7041222440944882
11
1.4642013385826771
21
0.6984979527559055
0
LINE
8
BLACK
6
CONTINUOUS
10
1.4642013385826771
20
0.6984979527559055
11
1.4641446062992125
21
0.6979218897637796
0
LINE
8
BLACK
6
CONTINUOUS
10
1.4641446062992125
20
0.6979218897637796
11
1.4641040157480314
21
0.697823937007874
0
LINE
8
BLACK
6
CONTINUOUS
10
1.4641040157480314
20
0.697823937007874
11
1.4640964960629921
21
0.6977180314960629
0
LINE
8
BLACK
6
CONTINUOUS
10
1.4640964960629921
20
0.6977180314960629
11
1.4638896062992126
21
0.6971774409448819
0
LINE
8
BLACK
6
CONTINUOUS
10
1.4638896062992126
20
0.6971774409448819
11
1.4620148425196851
21
0.6934279133858268
0
LINE
8
BLACK
6
CONTINUOUS
10
1.4620148425196851
20
0.6934279133858268
11
1.4618587401574803
21
0.6931799212598425
0
LINE
8
BLACK
6
CONTINUOUS
10
1.4618587401574803
20
0.6931799212598425
11
1.4618289370078741
21
0.6931079527559055
0
LINE
8
BLACK
6
CONTINUOUS
10
1.4618289370078741
20
0.6931079527559055
11
1.4617624409448819
21
0.6930270078740157
0
LINE
8
BLACK
6
CONTINUOUS
10
1.4617624409448819
20
0.6930270078740157
11
1.4617064960629922
21
0.6929380314960629
0
LINE
8
BLACK
6
CONTINUOUS
10
1.4617064960629922
20
0.6929380314960629
11
1.4616474803149606
21
0.6928868897637795
0
LINE
8
BLACK
6
CONTINUOUS
10
1.4616474803149606
20
0.6928868897637795
11
1.4614617322834644
21
0.6926605118110236
0
LINE
8
BLACK
6
CONTINUOUS
10
1.4614617322834644
20
0.6926605118110236
11
1.4595869685039369
21
0.6907857480314961
0
LINE
8
BLACK
6
CONTINUOUS
10
1.4595869685039369
20
0.6907857480314961
11
1.4593605905511811
21
0.6906
0
LINE
8
BLACK
6
CONTINUOUS
10
1.4593605905511811
20
0.6906
11
1.4593094488188976
21
0.6905409842519685
0
LINE
8
BLACK
6
CONTINUOUS
10
1.4593094488188976
20
0.6905409842519685
11
1.4592204724409448
21
0.6904850393700788
0
LINE
8
BLACK
6
CONTINUOUS
10
1.4592204724409448
20
0.6904850393700788
11
1.4591395275590551
21
0.6904185433070866
0
LINE
8
BLACK
6
CONTINUOUS
10
1.4591395275590551
20
0.6904185433070866
11
1.4590675590551181
21
0.6903887401574803
0
LINE
8
BLACK
6
CONTINUOUS
10
1.4590675590551181
20
0.6903887401574803
11
1.4588195669291337
21
0.6902326377952755
0
LINE
8
BLACK
6
CONTINUOUS
10
1.4588195669291337
20
0.6902326377952755
11
1.4550700393700786
21
0.688357874015748
0
LINE
8
BLACK
6
CONTINUOUS
10
1.4550700393700786
20
0.688357874015748
11
1.4545294094488188
21
0.6881509842519685
0
LINE
8
BLACK
6
CONTINUOUS
10
1.4545294094488188
20
0.6881509842519685
11
1.4544235826771654
21
0.6881435039370078
0
LINE
8
BLACK
6
CONTINUOUS
10
1.4544235826771654
20
0.6881435039370078
11
1.4543255905511812
21
0.688102874015748
0
LINE
8
BLACK
6
CONTINUOUS
10
1.4543255905511812
20
0.688102874015748
11
1.4537495275590551
21
0.6880461417322834
0
LINE
8
BLACK
6
CONTINUOUS
10
1.4537495275590551
20
0.6880461417322834
11
1.4417041732283464
21
0.6880461417322834
0
LINE
8
BLACK
6
CONTINUOUS
10
1.4417041732283464
20
0.6880461417322834
11
1.4417041732283464
21
0.6722512204724409
0
LINE
8
BLACK
6
CONTINUOUS
10
1.4417041732283464
20
0.6722512204724409
11
1.4416474409448818
21
0.6716751574803149
0
LINE
8
BLACK
6
CONTINUOUS
10
1.4416474409448818
20
0.6716751574803149
11
1.4412065354330708
21
0.670610748031496
0
LINE
8
BLACK
6
CONTINUOUS
10
1.4412065354330708
20
0.670610748031496
11
1.4403918897637795
21
0.6697961023622047
0
LINE
8
BLACK
6
CONTINUOUS
10
1.4403918897637795
20
0.6697961023622047
11
1.4393274803149605
21
0.6693551968503937
0
LINE
8
BLACK
6
CONTINUOUS
10
1.4393274803149605
20
0.6693551968503937
11
1.4381753543307085
21
0.6693551968503937
0
LINE
8
BLACK
6
CONTINUOUS
10
1.4381753543307085
20
0.6693551968503937
11
1.4371109448818897
21
0.6697961023622047
0
LINE
8
BLACK
6
CONTINUOUS
10
1.4371109448818897
20
0.6697961023622047
11
1.4362962992125985
21
0.670610748031496
0
LINE
8
BLACK
6
CONTINUOUS
10
1.4362962992125985
20
0.670610748031496
11
1.4358553937007874
21
0.6716751574803149
0
LINE
8
BLACK
6
CONTINUOUS
10
1.4358553937007874
20
0.6716751574803149
11
1.4357986614173228
21
0.6722512204724409
0
LINE
8
BLACK
6
CONTINUOUS
10
1.4357986614173228
20
0.6722512204724409
11
1.4357986614173228
21
0.7116212992125984
0
LINE
8
BLACK
6
CONTINUOUS
10
1.4357986614173228
20
0.7116212992125984
11
1.4358553937007874
21
0.7121973622047244
0
LINE
8
BLACK
6
CONTINUOUS
10
1.4358553937007874
20
0.7121973622047244
11
1.4362962992125985
21
0.7132617716535433
0
LINE
8
BLACK
6
CONTINUOUS
10
1.4362962992125985
20
0.7132617716535433
11
1.4371109448818897
21
0.7140764173228347
0
LINE
8
BLACK
6
CONTINUOUS
10
1.4371109448818897
20
0.7140764173228347
11
1.4381753543307085
21
0.7145173228346456
0
LINE
8
BLACK
6
CONTINUOUS
10
1.4381753543307085
20
0.7145173228346456
11
1.4387514173228346
21
0.7145740551181102
0
LINE
8
BLACK
6
CONTINUOUS
10
1.4387514173228346
20
0.7145740551181102
11
1.4537495275590551
21
0.7145740551181102
0
LINE
8
BLACK
6
CONTINUOUS
10
1.4537495275590551
20
0.7145740551181102
11
1.4543255905511812
21
0.7145173228346456
0
LINE
8
BLACK
6
CONTINUOUS
10
1.4417041732283464
20
0.6939516535433071
11
1.4530524803149607
21
0.6939516535433071
0
LINE
8
BLACK
6
CONTINUOUS
10
1.4530524803149607
20
0.6939516535433071
11
1.4557499606299211
21
0.6953003937007873
0
LINE
8
BLACK
6
CONTINUOUS
10
1.4557499606299211
20
0.6953003937007873
11
1.4569470866141732
21
0.6964975196850394
0
LINE
8
BLACK
6
CONTINUOUS
10
1.4569470866141732
20
0.6964975196850394
11
1.4582958267716535
21
0.699195
0
LINE
8
BLACK
6
CONTINUOUS
10
1.4582958267716535
20
0.699195
11
1.4582958267716535
21
0.7034251968503937
0
LINE
8
BLACK
6
CONTINUOUS
10
1.4582958267716535
20
0.7034251968503937
11
1.4569470866141732
21
0.7061226771653543
0
LINE
8
BLACK
6
CONTINUOUS
10
1.4569470866141732
20
0.7061226771653543
11
1.4557499606299211
21
0.7073198031496063
0
LINE
8
BLACK
6
CONTINUOUS
10
1.4557499606299211
20
0.7073198031496063
11
1.4530524803149607
21
0.7086685433070866
0
LINE
8
BLACK
6
CONTINUOUS
10
1.4530524803149607
20
0.7086685433070866
11
1.4417041732283464
21
0.7086685433070866
0
LINE
8
BLACK
6
CONTINUOUS
10
1.4417041732283464
20
0.7086685433070866
11
1.4417041732283464
21
0.6939516535433071
0
LINE
8
BLACK
6
CONTINUOUS
10
1.5780601181102363
20
0.7145173228346456
11
1.5791245275590551
21
0.7140764173228347
0
LINE
8
BLACK
6
CONTINUOUS
10
1.5791245275590551
20
0.7140764173228347
11
1.5799391732283463
21
0.7132617716535433
0
LINE
8
BLACK
6
CONTINUOUS
10
1.5799391732283463
20
0.7132617716535433
11
1.5803800787401574
21
0.7121973622047244
0
LINE
8
BLACK
6
CONTINUOUS
10
1.5803800787401574
20
0.7121973622047244
11
1.5803800787401574
21
0.7110452362204724
0
LINE
8
BLACK
6
CONTINUOUS
10
1.5803800787401574
20
0.7110452362204724
11
1.5799391732283463
21
0.7099808267716535
0
LINE
8
BLACK
6
CONTINUOUS
10
1.5799391732283463
20
0.7099808267716535
11
1.5791245275590551
21
0.7091661811023622
0
LINE
8
BLACK
6
CONTINUOUS
10
1.5791245275590551
20
0.7091661811023622
11
1.5780601181102363
21
0.7087252755905512
0
LINE
8
BLACK
6
CONTINUOUS
10
1.5780601181102363
20
0.7087252755905512
11
1.5774840551181102
21
0.7086685433070866
0
LINE
8
BLACK
6
CONTINUOUS
10
1.5774840551181102
20
0.7086685433070866
11
1.5691882283464567
21
0.7086685433070866
0
LINE
8
BLACK
6
CONTINUOUS
10
1.5691882283464567
20
0.7086685433070866
11
1.5691882283464567
21
0.6722512204724409
0
LINE
8
BLACK
6
CONTINUOUS
10
1.5691882283464567
20
0.6722512204724409
11
1.5691314960629921
21
0.6716751574803149
0
LINE
8
BLACK
6
CONTINUOUS
10
1.5691314960629921
20
0.6716751574803149
11
1.568690590551181
21
0.670610748031496
0
LINE
8
BLACK
6
CONTINUOUS
10
1.568690590551181
20
0.670610748031496
11
1.5678759448818897
21
0.6697961023622047
0
LINE
8
BLACK
6
CONTINUOUS
10
1.5678759448818897
20
0.6697961023622047
11
1.5668115354330707
21
0.6693551968503937
0
LINE
8
BLACK
6
CONTINUOUS
10
1.5668115354330707
20
0.6693551968503937
11
1.5656594094488188
21
0.6693551968503937
0
LINE
8
BLACK
6
CONTINUOUS
10
1.5656594094488188
20
0.6693551968503937
11
1.564595
21
0.6697961023622047
0
LINE
8
BLACK
6
CONTINUOUS
10
1.564595
20
0.6697961023622047
11
1.5637803543307087
21
0.670610748031496
0
LINE
8
BLACK
6
CONTINUOUS
10
1.5637803543307087
20
0.670610748031496
11
1.5633394488188976
21
0.6716751574803149
0
LINE
8
BLACK
6
CONTINUOUS
10
1.5633394488188976
20
0.6716751574803149
11
1.563282716535433
21
0.6722512204724409
0
LINE
8
BLACK
6
CONTINUOUS
10
1.563282716535433
20
0.6722512204724409
11
1.563282716535433
21
0.7086685433070866
0
LINE
8
BLACK
6
CONTINUOUS
10
1.563282716535433
20
0.7086685433070866
11
1.5549868897637795
21
0.7086685433070866
0
LINE
8
BLACK
6
CONTINUOUS
10
1.5549868897637795
20
0.7086685433070866
11
1.5544108267716534
21
0.7087252755905512
0
LINE
8
BLACK
6
CONTINUOUS
10
1.5544108267716534
20
0.7087252755905512
11
1.5533464173228346
21
0.7091661811023622
0
LINE
8
BLACK
6
CONTINUOUS
10
1.5533464173228346
20
0.7091661811023622
11
1.5525317716535432
21
0.7099808267716535
0
LINE
8
BLACK
6
CONTINUOUS
10
1.5525317716535432
20
0.7099808267716535
11
1.5520908661417323
21
0.7110452362204724
0
LINE
8
BLACK
6
CONTINUOUS
10
1.5520908661417323
20
0.7110452362204724
11
1.5520908661417323
21
0.7121973622047244
0
LINE
8
BLACK
6
CONTINUOUS
10
1.5520908661417323
20
0.7121973622047244
11
1.5525317716535432
21
0.7132617716535433
0
LINE
8
BLACK
6
CONTINUOUS
10
1.5525317716535432
20
0.7132617716535433
11
1.5533464173228346
21
0.7140764173228347
0
LINE
8
BLACK
6
CONTINUOUS
10
1.5533464173228346
20
0.7140764173228347
11
1.5544108267716534
21
0.7145173228346456
0
LINE
8
BLACK
6
CONTINUOUS
10
1.5544108267716534
20
0.7145173228346456
11
1.5549868897637795
21
0.7145740551181102
0
LINE
8
BLACK
6
CONTINUOUS
10
1.5549868897637795
20
0.7145740551181102
11
1.5774840551181102
21
0.7145740551181102
0
LINE
8
BLACK
6
CONTINUOUS
10
1.5774840551181102
20
0.7145740551181102
11
1.5780601181102363
21
0.7145173228346456
0
LINE
8
BLACK
6
CONTINUOUS
10
1.3868340157480314
20
1.1645173228346457
11
1.3878984251968505
21
1.1640764173228346
0
LINE
8
BLACK
6
CONTINUOUS
10
1.3878984251968505
20
1.1640764173228346
11
1.3887130708661417
21
1.1632617716535434
0
LINE
8
BLACK
6
CONTINUOUS
10
1.3887130708661417
20
1.1632617716535434
11
1.3891539763779528
21
1.1621973622047244
0
LINE
8
BLACK
6
CONTINUOUS
10
1.3891539763779528
20
1.1621973622047244
11
1.3891539763779528
21
1.1610452362204724
0
LINE
8
BLACK
6
CONTINUOUS
10
1.3891539763779528
20
1.1610452362204724
11
1.3887130708661417
21
1.1599808267716536
0
LINE
8
BLACK
6
CONTINUOUS
10
1.3887130708661417
20
1.1599808267716536
11
1.3878984251968505
21
1.1591661811023621
0
LINE
8
BLACK
6
CONTINUOUS
10
1.3878984251968505
20
1.1591661811023621
11
1.3868340157480314
21
1.1587252755905511
0
LINE
8
BLACK
6
CONTINUOUS
10
1.3868340157480314
20
1.1587252755905511
11
1.3862579527559056
21
1.1586685433070867
0
LINE
8
BLACK
6
CONTINUOUS
10
1.3862579527559056
20
1.1586685433070867
11
1.3704630708661416
21
1.1586685433070867
0
LINE
8
BLACK
6
CONTINUOUS
10
1.3704630708661416
20
1.1586685433070867
11
1.3704630708661416
21
1.1458264173228345
0
LINE
8
BLACK
6
CONTINUOUS
10
1.3704630708661416
20
1.1458264173228345
11
1.3806336614173229
21
1.1458264173228345
0
LINE
8
BLACK
6
CONTINUOUS
10
1.3806336614173229
20
1.1458264173228345
11
1.3812097244094488
21
1.1457696850393702
0
LINE
8
BLACK
6
CONTINUOUS
10
1.3812097244094488
20
1.1457696850393702
11
1.3822741338582676
21
1.1453287795275591
0
LINE
8
BLACK
6
CONTINUOUS
10
1.3822741338582676
20
1.1453287795275591
11
1.383088779527559
21
1.1445141338582676
0
LINE
8
BLACK
6
CONTINUOUS
10
1.383088779527559
20
1.1445141338582676
11
1.3835296850393701
21
1.1434497244094488
0
LINE
8
BLACK
6
CONTINUOUS
10
1.3835296850393701
20
1.1434497244094488
11
1.3835296850393701
21
1.1422975984251968
0
LINE
8
BLACK
6
CONTINUOUS
10
1.3835296850393701
20
1.1422975984251968
11
1.383088779527559
21
1.1412331889763778
0
LINE
8
BLACK
6
CONTINUOUS
10
1.383088779527559
20
1.1412331889763778
11
1.3822741338582676
21
1.1404185433070866
0
LINE
8
BLACK
6
CONTINUOUS
10
1.3822741338582676
20
1.1404185433070866
11
1.3812097244094488
21
1.1399776377952755
0
LINE
8
BLACK
6
CONTINUOUS
10
1.3812097244094488
20
1.1399776377952755
11
1.3806336614173229
21
1.1399209055118109
0
LINE
8
BLACK
6
CONTINUOUS
10
1.3806336614173229
20
1.1399209055118109
11
1.3704630708661416
21
1.1399209055118109
0
LINE
8
BLACK
6
CONTINUOUS
10
1.3704630708661416
20
1.1399209055118109
11
1.3704630708661416
21
1.1252039763779527
0
LINE
8
BLACK
6
CONTINUOUS
10
1.3704630708661416
20
1.1252039763779527
11
1.3862579527559056
21
1.1252039763779527
0
LINE
8
BLACK
6
CONTINUOUS
10
1.3862579527559056
20
1.1252039763779527
11
1.3868340157480314
21
1.1251472440944881
0
LINE
8
BLACK
6
CONTINUOUS
10
1.3868340157480314
20
1.1251472440944881
11
1.3878984251968505
21
1.1247063385826772
0
LINE
8
BLACK
6
CONTINUOUS
10
1.3878984251968505
20
1.1247063385826772
11
1.3887130708661417
21
1.1238916929133858
0
LINE
8
BLACK
6
CONTINUOUS
10
1.3887130708661417
20
1.1238916929133858
11
1.3891539763779528
21
1.1228272834645669
0
LINE
8
BLACK
6
CONTINUOUS
10
1.3891539763779528
20
1.1228272834645669
11
1.3891539763779528
21
1.121675157480315
0
LINE
8
BLACK
6
CONTINUOUS
10
1.3891539763779528
20
1.121675157480315
11
1.3887130708661417
21
1.120610748031496
0
LINE
8
BLACK
6
CONTINUOUS
10
1.3887130708661417
20
1.120610748031496
11
1.3878984251968505
21
1.1197961023622047
0
LINE
8
BLACK
6
CONTINUOUS
10
1.3878984251968505
20
1.1197961023622047
11
1.3868340157480314
21
1.1193551968503936
0
LINE
8
BLACK
6
CONTINUOUS
10
1.3868340157480314
20
1.1193551968503936
11
1.3862579527559056
21
1.1192984645669291
0
LINE
8
BLACK
6
CONTINUOUS
10
1.3862579527559056
20
1.1192984645669291
11
1.3675103149606298
21
1.1192984645669291
0
LINE
8
BLACK
6
CONTINUOUS
10
1.3675103149606298
20
1.1192984645669291
11
1.3669342519685039
21
1.1193551968503936
0
LINE
8
BLACK
6
CONTINUOUS
10
1.3669342519685039
20
1.1193551968503936
11
1.3658698425196849
21
1.1197961023622047
0
LINE
8
BLACK
6
CONTINUOUS
10
1.3658698425196849
20
1.1197961023622047
11
1.3650551968503937
21
1.120610748031496
0
LINE
8
BLACK
6
CONTINUOUS
10
1.3650551968503937
20
1.120610748031496
11
1.3646142913385826
21
1.121675157480315
0
LINE
8
BLACK
6
CONTINUOUS
10
1.3646142913385826
20
1.121675157480315
11
1.364557559055118
21
1.1222512204724409
0
LINE
8
BLACK
6
CONTINUOUS
10
1.364557559055118
20
1.1222512204724409
11
1.364557559055118
21
1.1616212992125985
0
LINE
8
BLACK
6
CONTINUOUS
10
1.364557559055118
20
1.1616212992125985
11
1.3646142913385826
21
1.1621973622047244
0
LINE
8
BLACK
6
CONTINUOUS
10
1.3646142913385826
20
1.1621973622047244
11
1.3650551968503937
21
1.1632617716535434
0
LINE
8
BLACK
6
CONTINUOUS
10
1.3650551968503937
20
1.1632617716535434
11
1.3658698425196849
21
1.1640764173228346
0
LINE
8
BLACK
6
CONTINUOUS
10
1.3658698425196849
20
1.1640764173228346
11
1.3669342519685039
21
1.1645173228346457
0
LINE
8
BLACK
6
CONTINUOUS
10
1.3669342519685039
20
1.1645173228346457
11
1.3675103149606298
21
1.1645740551181103
0
LINE
8
BLACK
6
CONTINUOUS
10
1.3675103149606298
20
1.1645740551181103
11
1.3862579527559056
21
1.1645740551181103
0
LINE
8
BLACK
6
CONTINUOUS
10
1.3862579527559056
20
1.1645740551181103
11
1.3868340157480314
21
1.1645173228346457
0
LINE
8
BLACK
6
CONTINUOUS
10
1.4224545669291337
20
1.1645173228346457
11
1.4235189763779528
21
1.1640764173228346
0
LINE
8
BLACK
6
CONTINUOUS
10
1.4235189763779528
20
1.1640764173228346
11
1.424333622047244
21
1.1632617716535434
0
LINE
8
BLACK
6
CONTINUOUS
10
1.424333622047244
20
1.1632617716535434
11
1.4247745275590551
21
1.1621973622047244
0
LINE
8
BLACK
6
CONTINUOUS
10
1.4247745275590551
20
1.1621973622047244
11
1.4247745275590551
21
1.1610452362204724
0
LINE
8
BLACK
6
CONTINUOUS
10
1.4247745275590551
20
1.1610452362204724
11
1.424333622047244
21
1.1599808267716536
0
LINE
8
BLACK
6
CONTINUOUS
10
1.424333622047244
20
1.1599808267716536
11
1.4235189763779528
21
1.1591661811023621
0
LINE
8
BLACK
6
CONTINUOUS
10
1.4235189763779528
20
1.1591661811023621
11
1.4224545669291337
21
1.1587252755905511
0
LINE
8
BLACK
6
CONTINUOUS
10
1.4224545669291337
20
1.1587252755905511
11
1.4218785039370079
21
1.1586685433070867
0
LINE
8
BLACK
6
CONTINUOUS
10
1.4218785039370079
20
1.1586685433070867
11
1.4060836220472441
21
1.1586685433070867
0
LINE
8
BLACK
6
CONTINUOUS
10
1.4060836220472441
20
1.1586685433070867
11
1.4060836220472441
21
1.1458264173228345
0
LINE
8
BLACK
6
CONTINUOUS
10
1.4060836220472441
20
1.1458264173228345
11
1.4162542125984252
21
1.1458264173228345
0
LINE
8
BLACK
6
CONTINUOUS
10
1.4162542125984252
20
1.1458264173228345
11
1.4168302755905511
21
1.1457696850393702
0
LINE
8
BLACK
6
CONTINUOUS
10
1.4168302755905511
20
1.1457696850393702
11
1.4178946850393701
21
1.1453287795275591
0
LINE
8
BLACK
6
CONTINUOUS
10
1.4178946850393701
20
1.1453287795275591
11
1.4187093307086613
21
1.1445141338582676
0
LINE
8
BLACK
6
CONTINUOUS
10
1.4187093307086613
20
1.1445141338582676
11
1.4191502362204724
21
1.1434497244094488
0
LINE
8
BLACK
6
CONTINUOUS
10
1.4191502362204724
20
1.1434497244094488
11
1.4191502362204724
21
1.1422975984251968
0
LINE
8
BLACK
6
CONTINUOUS
10
1.4191502362204724
20
1.1422975984251968
11
1.4187093307086613
21
1.1412331889763778
0
LINE
8
BLACK
6
CONTINUOUS
10
1.4187093307086613
20
1.1412331889763778
11
1.4178946850393701
21
1.1404185433070866
0
LINE
8
BLACK
6
CONTINUOUS
10
1.4178946850393701
20
1.1404185433070866
11
1.4168302755905511
21
1.1399776377952755
0
LINE
8
BLACK
6
CONTINUOUS
10
1.4168302755905511
20
1.1399776377952755
11
1.4162542125984252
21
1.1399209055118109
0
LINE
8
BLACK
6
CONTINUOUS
10
1.4162542125984252
20
1.1399209055118109
11
1.4060836220472441
21
1.1399209055118109
0
LINE
8
BLACK
6
CONTINUOUS
10
1.4060836220472441
20
1.1399209055118109
11
1.4060836220472441
21
1.1252039763779527
0
LINE
8
BLACK
6
CONTINUOUS
10
1.4060836220472441
20
1.1252039763779527
11
1.4218785039370079
21
1.1252039763779527
0
LINE
8
BLACK
6
CONTINUOUS
10
1.4218785039370079
20
1.1252039763779527
11
1.4224545669291337
21
1.1251472440944881
0
LINE
8
BLACK
6
CONTINUOUS
10
1.4224545669291337
20
1.1251472440944881
11
1.4235189763779528
21
1.1247063385826772
0
LINE
8
BLACK
6
CONTINUOUS
10
1.4235189763779528
20
1.1247063385826772
11
1.424333622047244
21
1.1238916929133858
0
LINE
8
BLACK
6
CONTINUOUS
10
1.424333622047244
20
1.1238916929133858
11
1.4247745275590551
21
1.1228272834645669
0
LINE
8
BLACK
6
CONTINUOUS
10
1.4247745275590551
20
1.1228272834645669
11
1.4247745275590551
21
1.121675157480315
0
LINE
8
BLACK
6
CONTINUOUS
10
1.4247745275590551
20
1.121675157480315
11
1.424333622047244
21
1.120610748031496
0
LINE
8
BLACK
6
CONTINUOUS
10
1.424333622047244
20
1.120610748031496
11
1.4235189763779528
21
1.1197961023622047
0
LINE
8
BLACK
6
CONTINUOUS
10
1.4235189763779528
20
1.1197961023622047
11
1.4224545669291337
21
1.1193551968503936
0
LINE
8
BLACK
6
CONTINUOUS
10
1.4224545669291337
20
1.1193551968503936
11
1.4218785039370079
21
1.1192984645669291
0
LINE
8
BLACK
6
CONTINUOUS
10
1.4218785039370079
20
1.1192984645669291
11
1.4031308661417323
21
1.1192984645669291
0
LINE
8
BLACK
6
CONTINUOUS
10
1.4031308661417323
20
1.1192984645669291
11
1.4025548031496062
21
1.1193551968503936
0
LINE
8
BLACK
6
CONTINUOUS
10
1.4025548031496062
20
1.1193551968503936
11
1.4014903937007874
21
1.1197961023622047
0
LINE
8
BLACK
6
CONTINUOUS
10
1.4014903937007874
20
1.1197961023622047
11
1.400675748031496
21
1.120610748031496
0
LINE
8
BLACK
6
CONTINUOUS
10
1.400675748031496
20
1.120610748031496
11
1.4002348425196851
21
1.121675157480315
0
LINE
8
BLACK
6
CONTINUOUS
10
1.4002348425196851
20
1.121675157480315
11
1.4001781102362205
21
1.1222512204724409
0
LINE
8
BLACK
6
CONTINUOUS
10
1.4001781102362205
20
1.1222512204724409
11
1.4001781102362205
21
1.1616212992125985
0
LINE
8
BLACK
6
CONTINUOUS
10
1.4001781102362205
20
1.1616212992125985
11
1.4002348425196851
21
1.1621973622047244
0
LINE
8
BLACK
6
CONTINUOUS
10
1.4002348425196851
20
1.1621973622047244
11
1.400675748031496
21
1.1632617716535434
0
LINE
8
BLACK
6
CONTINUOUS
10
1.400675748031496
20
1.1632617716535434
11
1.4014903937007874
21
1.1640764173228346
0
LINE
8
BLACK
6
CONTINUOUS
10
1.4014903937007874
20
1.1640764173228346
11
1.4025548031496062
21
1.1645173228346457
0
LINE
8
BLACK
6
CONTINUOUS
10
1.4025548031496062
20
1.1645173228346457
11
1.4031308661417323
21
1.1645740551181103
0
LINE
8
BLACK
6
CONTINUOUS
10
1.4031308661417323
20
1.1645740551181103
11
1.4218785039370079
21
1.1645740551181103
0
LINE
8
BLACK
6
CONTINUOUS
10
1.4218785039370079
20
1.1645740551181103
11
1.4224545669291337
21
1.1645173228346457
0
LINE
8
BLACK
6
CONTINUOUS
10
1.4936956692913386
20
1.1645173228346457
11
1.4937936614173228
21
1.1644767322834646
0
LINE
8
BLACK
6
CONTINUOUS
10
1.4937936614173228
20
1.1644767322834646
11
1.4938994881889764
21
1.1644692125984251
0
LINE
8
BLACK
6
CONTINUOUS
10
1.4938994881889764
20
1.1644692125984251
11
1.4944401181102362
21
1.1642623228346456
0
LINE
8
BLACK
6
CONTINUOUS
10
1.4944401181102362
20
1.1642623228346456
11
1.4981896456692914
21
1.162387559055118
0
LINE
8
BLACK
6
CONTINUOUS
10
1.4981896456692914
20
1.162387559055118
11
1.4984376377952755
21
1.162231496062992
0
LINE
8
BLACK
6
CONTINUOUS
10
1.4984376377952755
20
1.162231496062992
11
1.4985096062992125
21
1.1622016535433071
0
LINE
8
BLACK
6
CONTINUOUS
10
1.4985096062992125
20
1.1622016535433071
11
1.4985905511811024
21
1.1621351968503937
0
LINE
8
BLACK
6
CONTINUOUS
10
1.4985905511811024
20
1.1621351968503937
11
1.498679527559055
21
1.1620792125984252
0
LINE
8
BLACK
6
CONTINUOUS
10
1.498679527559055
20
1.1620792125984252
11
1.4987306692913385
21
1.1620202362204723
0
LINE
8
BLACK
6
CONTINUOUS
10
1.4987306692913385
20
1.1620202362204723
11
1.4989570472440945
21
1.1618344488188976
0
LINE
8
BLACK
6
CONTINUOUS
10
1.4989570472440945
20
1.1618344488188976
11
1.5027065748031496
21
1.1580849212598425
0
LINE
8
BLACK
6
CONTINUOUS
10
1.5027065748031496
20
1.1580849212598425
11
1.5030738188976378
21
1.1576374803149605
0
LINE
8
BLACK
6
CONTINUOUS
10
1.5030738188976378
20
1.1576374803149605
11
1.5031578346456693
21
1.1574346062992125
0
LINE
8
BLACK
6
CONTINUOUS
10
1.5031578346456693
20
1.1574346062992125
11
1.5032885039370079
21
1.1572582677165355
0
LINE
8
BLACK
6
CONTINUOUS
10
1.5032885039370079
20
1.1572582677165355
11
1.5034832677165355
21
1.1567131496062992
0
LINE
8
BLACK
6
CONTINUOUS
10
1.5034832677165355
20
1.1567131496062992
11
1.5053580314960631
21
1.149214094488189
0
LINE
8
BLACK
6
CONTINUOUS
10
1.5053580314960631
20
1.149214094488189
11
1.5053727952755904
21
1.1491142519685038
0
LINE
8
BLACK
6
CONTINUOUS
10
1.5053727952755904
20
1.1491142519685038
11
1.5053894488188977
21
1.1490740157480315
0
LINE
8
BLACK
6
CONTINUOUS
10
1.5053894488188977
20
1.1490740157480315
11
1.5054107874015747
21
1.1488570078740157
0
LINE
8
BLACK
6
CONTINUOUS
10
1.5054107874015747
20
1.1488570078740157
11
1.5054426771653544
21
1.148641496062992
0
LINE
8
BLACK
6
CONTINUOUS
10
1.5054426771653544
20
1.148641496062992
11
1.5054362598425197
21
1.1485985039370079
0
LINE
8
BLACK
6
CONTINUOUS
10
1.5054362598425197
20
1.1485985039370079
11
1.5054461811023623
21
1.1484979527559054
0
LINE
8
BLACK
6
CONTINUOUS
10
1.5054461811023623
20
1.1484979527559054
11
1.5054461811023623
21
1.1353746062992125
0
LINE
8
BLACK
6
CONTINUOUS
10
1.5054461811023623
20
1.1353746062992125
11
1.5054362598425197
21
1.1352740944881889
0
LINE
8
BLACK
6
CONTINUOUS
10
1.5054362598425197
20
1.1352740944881889
11
1.5054426771653544
21
1.1352310629921261
0
LINE
8
BLACK
6
CONTINUOUS
10
1.5054426771653544
20
1.1352310629921261
11
1.5054107874015747
21
1.1350155905511812
0
LINE
8
BLACK
6
CONTINUOUS
10
1.5054107874015747
20
1.1350155905511812
11
1.5053894488188977
21
1.1347985433070866
0
LINE
8
BLACK
6
CONTINUOUS
10
1.5053894488188977
20
1.1347985433070866
11
1.5053727952755904
21
1.1347583464566928
0
LINE
8
BLACK
6
CONTINUOUS
10
1.5053727952755904
20
1.1347583464566928
11
1.5053580314960631
21
1.1346584645669291
0
LINE
8
BLACK
6
CONTINUOUS
10
1.5053580314960631
20
1.1346584645669291
11
1.5034832677165355
21
1.1271594094488189
0
LINE
8
BLACK
6
CONTINUOUS
10
1.5034832677165355
20
1.1271594094488189
11
1.5032885039370079
21
1.1266142913385826
0
LINE
8
BLACK
6
CONTINUOUS
10
1.5032885039370079
20
1.1266142913385826
11
1.5031577952755906
21
1.1264379527559054
0
LINE
8
BLACK
6
CONTINUOUS
10
1.5031577952755906
20
1.1264379527559054
11
1.5030738188976378
21
1.1262351181102361
0
LINE
8
BLACK
6
CONTINUOUS
10
1.5030738188976378
20
1.1262351181102361
11
1.5027066141732284
21
1.1257876771653543
0
LINE
8
BLACK
6
CONTINUOUS
10
1.5027066141732284
20
1.1257876771653543
11
1.4989570472440945
21
1.1220380708661417
0
LINE
8
BLACK
6
CONTINUOUS
10
1.4989570472440945
20
1.1220380708661417
11
1.4987306692913385
21
1.1218523228346458
0
LINE
8
BLACK
6
CONTINUOUS
10
1.4987306692913385
20
1.1218523228346458
11
1.498679527559055
21
1.1217933070866142
0
LINE
8
BLACK
6
CONTINUOUS
10
1.498679527559055
20
1.1217933070866142
11
1.4985905511811024
21
1.1217373622047244
0
LINE
8
BLACK
6
CONTINUOUS
10
1.4985905511811024
20
1.1217373622047244
11
1.4985096062992125
21
1.1216708661417323
0
LINE
8
BLACK
6
CONTINUOUS
10
1.4985096062992125
20
1.1216708661417323
11
1.4984376377952755
21
1.1216410629921258
0
LINE
8
BLACK
6
CONTINUOUS
10
1.4984376377952755
20
1.1216410629921258
11
1.4981896456692914
21
1.1214849606299213
0
LINE
8
BLACK
6
CONTINUOUS
10
1.4981896456692914
20
1.1214849606299213
11
1.4944401181102362
21
1.1196101968503938
0
LINE
8
BLACK
6
CONTINUOUS
10
1.4944401181102362
20
1.1196101968503938
11
1.4938994881889764
21
1.1194033070866141
0
LINE
8
BLACK
6
CONTINUOUS
10
1.4938994881889764
20
1.1194033070866141
11
1.4937936614173228
21
1.1193958267716535
0
LINE
8
BLACK
6
CONTINUOUS
10
1.4937936614173228
20
1.1193958267716535
11
1.4936956692913386
21
1.1193551968503936
0
LINE
8
BLACK
6
CONTINUOUS
10
1.4936956692913386
20
1.1193551968503936
11
1.4931196062992125
21
1.1192984645669291
0
LINE
8
BLACK
6
CONTINUOUS
10
1.4931196062992125
20
1.1192984645669291
11
1.4856205511811023
21
1.1192984645669291
0
LINE
8
BLACK
6
CONTINUOUS
10
1.4856205511811023
20
1.1192984645669291
11
1.4850444881889764
21
1.1193551968503936
0
LINE
8
BLACK
6
CONTINUOUS
10
1.4850444881889764
20
1.1193551968503936
11
1.4849464960629921
21
1.1193957874015747
0
LINE
8
BLACK
6
CONTINUOUS
10
1.4849464960629921
20
1.1193957874015747
11
1.4848406299212598
21
1.1194033070866141
0
LINE
8
BLACK
6
CONTINUOUS
10
1.4848406299212598
20
1.1194033070866141
11
1.4843000393700787
21
1.1196101968503938
0
LINE
8
BLACK
6
CONTINUOUS
10
1.4843000393700787
20
1.1196101968503938
11
1.4805505118110236
21
1.1214849606299213
0
LINE
8
BLACK
6
CONTINUOUS
10
1.4805505118110236
20
1.1214849606299213
11
1.4803026771653542
21
1.1216409842519686
0
LINE
8
BLACK
6
CONTINUOUS
10
1.4803026771653542
20
1.1216409842519686
11
1.4802305511811022
21
1.1216708267716535
0
LINE
8
BLACK
6
CONTINUOUS
10
1.4802305511811022
20
1.1216708267716535
11
1.48014937007874
21
1.1217374409448819
0
LINE
8
BLACK
6
CONTINUOUS
10
1.48014937007874
20
1.1217374409448819
11
1.4800606299212598
21
1.1217933070866142
0
LINE
8
BLACK
6
CONTINUOUS
10
1.4800606299212598
20
1.1217933070866142
11
1.4800094881889763
21
1.1218522440944882
0
LINE
8
BLACK
6
CONTINUOUS
10
1.4800094881889763
20
1.1218522440944882
11
1.4797831102362204
21
1.1220380708661417
0
LINE
8
BLACK
6
CONTINUOUS
10
1.4797831102362204
20
1.1220380708661417
11
1.4760335826771653
21
1.1257876377952756
0
LINE
8
BLACK
6
CONTINUOUS
10
1.4760335826771653
20
1.1257876377952756
11
1.4756663385826772
21
1.1262351181102361
0
LINE
8
BLACK
6
CONTINUOUS
10
1.4756663385826772
20
1.1262351181102361
11
1.4755823228346456
21
1.1264379527559054
0
LINE
8
BLACK
6
CONTINUOUS
10
1.4755823228346456
20
1.1264379527559054
11
1.4754516535433071
21
1.1266142913385826
0
LINE
8
BLACK
6
CONTINUOUS
10
1.4754516535433071
20
1.1266142913385826
11
1.4752568897637794
21
1.1271594094488189
0
LINE
8
BLACK
6
CONTINUOUS
10
1.4752568897637794
20
1.1271594094488189
11
1.4733821259842519
21
1.1346584645669291
0
LINE
8
BLACK
6
CONTINUOUS
10
1.4733821259842519
20
1.1346584645669291
11
1.4733673228346456
21
1.1347583464566928
0
LINE
8
BLACK
6
CONTINUOUS
10
1.4733673228346456
20
1.1347583464566928
11
1.4733507086614173
21
1.1347985433070866
0
LINE
8
BLACK
6
CONTINUOUS
10
1.4733507086614173
20
1.1347985433070866
11
1.4733293307086615
21
1.1350155905511812
0
LINE
8
BLACK
6
CONTINUOUS
10
1.4733293307086615
20
1.1350155905511812
11
1.4732974803149606
21
1.1352310629921261
0
LINE
8
BLACK
6
CONTINUOUS
10
1.4732974803149606
20
1.1352310629921261
11
1.4733038582677165
21
1.1352740944881889
0
LINE
8
BLACK
6
CONTINUOUS
10
1.4733038582677165
20
1.1352740944881889
11
1.4732939763779527
21
1.1353746062992125
0
LINE
8
BLACK
6
CONTINUOUS
10
1.4732939763779527
20
1.1353746062992125
11
1.4732939763779527
21
1.1484979527559054
0
LINE
8
BLACK
6
CONTINUOUS
10
1.4732939763779527
20
1.1484979527559054
11
1.4733038582677165
21
1.1485985039370079
0
LINE
8
BLACK
6
CONTINUOUS
10
1.4733038582677165
20
1.1485985039370079
11
1.4732974803149606
21
1.148641496062992
0
LINE
8
BLACK
6
CONTINUOUS
10
1.4732974803149606
20
1.148641496062992
11
1.4733293307086615
21
1.1488570078740157
0
LINE
8
BLACK
6
CONTINUOUS
10
1.4733293307086615
20
1.1488570078740157
11
1.4733507086614173
21
1.1490740157480315
0
LINE
8
BLACK
6
CONTINUOUS
10
1.4733507086614173
20
1.1490740157480315
11
1.4733673228346456
21
1.1491142519685038
0
LINE
8
BLACK
6
CONTINUOUS
10
1.4733673228346456
20
1.1491142519685038
11
1.4733821259842519
21
1.149214094488189
0
LINE
8
BLACK
6
CONTINUOUS
10
1.4733821259842519
20
1.149214094488189
11
1.4752568897637794
21
1.1567131496062992
0
LINE
8
BLACK
6
CONTINUOUS
10
1.4752568897637794
20
1.1567131496062992
11
1.4754516535433071
21
1.1572582677165355
0
LINE
8
BLACK
6
CONTINUOUS
10
1.4754516535433071
20
1.1572582677165355
11
1.4755823622047244
21
1.1574347244094487
0
LINE
8
BLACK
6
CONTINUOUS
10
1.4755823622047244
20
1.1574347244094487
11
1.4756663779527559
21
1.1576374803149605
0
LINE
8
BLACK
6
CONTINUOUS
10
1.4756663779527559
20
1.1576374803149605
11
1.4760335826771653
21
1.1580849212598425
0
LINE
8
BLACK
6
CONTINUOUS
10
1.4760335826771653
20
1.1580849212598425
11
1.4797831102362204
21
1.1618344488188976
0
LINE
8
BLACK
6
CONTINUOUS
10
1.4797831102362204
20
1.1618344488188976
11
1.4800094881889763
21
1.1620203149606299
0
LINE
8
BLACK
6
CONTINUOUS
10
1.4800094881889763
20
1.1620203149606299
11
1.4800606299212598
21
1.1620792125984252
0
LINE
8
BLACK
6
CONTINUOUS
10
1.4800606299212598
20
1.1620792125984252
11
1.48014937007874
21
1.1621351181102362
0
LINE
8
BLACK
6
CONTINUOUS
10
1.48014937007874
20
1.1621351181102362
11
1.4802305511811022
21
1.1622016929133858
0
LINE
8
BLACK
6
CONTINUOUS
10
1.4802305511811022
20
1.1622016929133858
11
1.4803026771653542
21
1.1622315748031495
0
LINE
8
BLACK
6
CONTINUOUS
10
1.4803026771653542
20
1.1622315748031495
11
1.4805505118110236
21
1.162387559055118
0
LINE
8
BLACK
6
CONTINUOUS
10
1.4805505118110236
20
1.162387559055118
11
1.4843000393700787
21
1.1642623228346456
0
LINE
8
BLACK
6
CONTINUOUS
10
1.4843000393700787
20
1.1642623228346456
11
1.4848406299212598
21
1.1644692125984251
0
LINE
8
BLACK
6
CONTINUOUS
10
1.4848406299212598
20
1.1644692125984251
11
1.4849464960629921
21
1.1644767716535434
0
LINE
8
BLACK
6
CONTINUOUS
10
1.4849464960629921
20
1.1644767716535434
11
1.4850444881889764
21
1.1645173228346457
0
LINE
8
BLACK
6
CONTINUOUS
10
1.4850444881889764
20
1.1645173228346457
11
1.4856205511811023
21
1.1645740551181103
0
LINE
8
BLACK
6
CONTINUOUS
10
1.4856205511811023
20
1.1645740551181103
11
1.4931196062992125
21
1.1645740551181103
0
LINE
8
BLACK
6
CONTINUOUS
10
1.4931196062992125
20
1.1645740551181103
11
1.4936956692913386
21
1.1645173228346457
0
LINE
8
BLACK
6
CONTINUOUS
10
1.4836201181102362
20
1.1573198031496064
11
1.4807877165354331
21
1.1544874409448818
0
LINE
8
BLACK
6
CONTINUOUS
10
1.4807877165354331
20
1.1544874409448818
11
1.4791994881889763
21
1.1481344094488188
0
LINE
8
BLACK
6
CONTINUOUS
10
1.4791994881889763
20
1.1481344094488188
11
1.4791994881889763
21
1.1357381496062993
0
LINE
8
BLACK
6
CONTINUOUS
10
1.4791994881889763
20
1.1357381496062993
11
1.4807877165354331
21
1.1293851574803149
0
LINE
8
BLACK
6
CONTINUOUS
10
1.4807877165354331
20
1.1293851574803149
11
1.4836201181102362
21
1.126552716535433
0
LINE
8
BLACK
6
CONTINUOUS
10
1.4836201181102362
20
1.126552716535433
11
1.4863175984251968
21
1.1252039763779527
0
LINE
8
BLACK
6
CONTINUOUS
10
1.4863175984251968
20
1.1252039763779527
11
1.4924225590551181
21
1.1252039763779527
0
LINE
8
BLACK
6
CONTINUOUS
10
1.4924225590551181
20
1.1252039763779527
11
1.49512
21
1.126552716535433
0
LINE
8
BLACK
6
CONTINUOUS
10
1.49512
20
1.126552716535433
11
1.4979524015748031
21
1.1293851574803149
0
LINE
8
BLACK
6
CONTINUOUS
10
1.4979524015748031
20
1.1293851574803149
11
1.4995406692913384
21
1.1357381496062993
0
LINE
8
BLACK
6
CONTINUOUS
10
1.4995406692913384
20
1.1357381496062993
11
1.4995406692913384
21
1.1481344094488188
0
LINE
8
BLACK
6
CONTINUOUS
10
1.4995406692913384
20
1.1481344094488188
11
1.4979524015748031
21
1.1544874409448818
0
LINE
8
BLACK
6
CONTINUOUS
10
1.4979524015748031
20
1.1544874409448818
11
1.4951200393700788
21
1.1573198031496064
0
LINE
8
BLACK
6
CONTINUOUS
10
1.4951200393700788
20
1.1573198031496064
11
1.4924225590551181
21
1.1586685433070867
0
LINE
8
BLACK
6
CONTINUOUS
10
1.4924225590551181
20
1.1586685433070867
11
1.4863175984251968
21
1.1586685433070867
0
LINE
8
BLACK
6
CONTINUOUS
10
1.4863175984251968
20
1.1586685433070867
11
1.4836201181102362
21
1.1573198031496064
0
LINE
8
BLACK
6
CONTINUOUS
10
1.5210068110236221
20
1.1640764173228346
11
1.5218214566929134
21
1.1632617716535434
0
LINE
8
BLACK
6
CONTINUOUS
10
1.5218214566929134
20
1.1632617716535434
11
1.5222623622047244
21
1.1621973622047244
0
LINE
8
BLACK
6
CONTINUOUS
10
1.5222623622047244
20
1.1621973622047244
11
1.522319094488189
21
1.1616212992125985
0
LINE
8
BLACK
6
CONTINUOUS
10
1.522319094488189
20
1.1616212992125985
11
1.522319094488189
21
1.1304473622047244
0
LINE
8
BLACK
6
CONTINUOUS
10
1.522319094488189
20
1.1304473622047244
11
1.5236678346456694
21
1.1277498818897638
0
LINE
8
BLACK
6
CONTINUOUS
10
1.5236678346456694
20
1.1277498818897638
11
1.5248649606299212
21
1.126552716535433
0
LINE
8
BLACK
6
CONTINUOUS
10
1.5248649606299212
20
1.126552716535433
11
1.5275624409448818
21
1.1252039763779527
0
LINE
8
BLACK
6
CONTINUOUS
10
1.5275624409448818
20
1.1252039763779527
11
1.5336674015748031
21
1.1252039763779527
0
LINE
8
BLACK
6
CONTINUOUS
10
1.5336674015748031
20
1.1252039763779527
11
1.536364842519685
21
1.126552716535433
0
LINE
8
BLACK
6
CONTINUOUS
10
1.536364842519685
20
1.126552716535433
11
1.537561968503937
21
1.1277498818897638
0
LINE
8
BLACK
6
CONTINUOUS
10
1.537561968503937
20
1.1277498818897638
11
1.5389107480314961
21
1.1304473622047244
0
LINE
8
BLACK
6
CONTINUOUS
10
1.5389107480314961
20
1.1304473622047244
11
1.5389107480314961
21
1.1616212992125985
0
LINE
8
BLACK
6
CONTINUOUS
10
1.5389107480314961
20
1.1616212992125985
11
1.5389674803149607
21
1.1621973622047244
0
LINE
8
BLACK
6
CONTINUOUS
10
1.5389674803149607
20
1.1621973622047244
11
1.5394083858267715
21
1.1632617716535434
0
LINE
8
BLACK
6
CONTINUOUS
10
1.5394083858267715
20
1.1632617716535434
11
1.540223031496063
21
1.1640764173228346
0
LINE
8
BLACK
6
CONTINUOUS
10
1.540223031496063
20
1.1640764173228346
11
1.5412874409448818
21
1.1645173228346457
0
LINE
8
BLACK
6
CONTINUOUS
10
1.5412874409448818
20
1.1645173228346457
11
1.5424395669291338
21
1.1645173228346457
0
LINE
8
BLACK
6
CONTINUOUS
10
1.5424395669291338
20
1.1645173228346457
11
1.5435039763779528
21
1.1640764173228346
0
LINE
8
BLACK
6
CONTINUOUS
10
1.5435039763779528
20
1.1640764173228346
11
1.544318622047244
21
1.1632617716535434
0
LINE
8
BLACK
6
CONTINUOUS
10
1.544318622047244
20
1.1632617716535434
11
1.5447595275590551
21
1.1621973622047244
0
LINE
8
BLACK
6
CONTINUOUS
10
1.5447595275590551
20
1.1621973622047244
11
1.5448162598425197
21
1.1616212992125985
0
LINE
8
BLACK
6
CONTINUOUS
10
1.5448162598425197
20
1.1616212992125985
11
1.5448162598425197
21
1.1297503149606298
0
LINE
8
BLACK
6
CONTINUOUS
10
1.5448162598425197
20
1.1297503149606298
11
1.5447595275590551
21
1.129174251968504
0
LINE
8
BLACK
6
CONTINUOUS
10
1.5447595275590551
20
1.129174251968504
11
1.544718937007874
21
1.1290762992125984
0
LINE
8
BLACK
6
CONTINUOUS
10
1.544718937007874
20
1.1290762992125984
11
1.5447114173228347
21
1.1289703937007873
0
LINE
8
BLACK
6
CONTINUOUS
10
1.5447114173228347
20
1.1289703937007873
11
1.544504527559055
21
1.1284298031496063
0
LINE
8
BLACK
6
CONTINUOUS
10
1.544504527559055
20
1.1284298031496063
11
1.5426297637795274
21
1.1246802755905512
0
LINE
8
BLACK
6
CONTINUOUS
10
1.5426297637795274
20
1.1246802755905512
11
1.5424737007874016
21
1.1244324015748031
0
LINE
8
BLACK
6
CONTINUOUS
10
1.5424737007874016
20
1.1244324015748031
11
1.5424438976377952
21
1.1243603543307086
0
LINE
8
BLACK
6
CONTINUOUS
10
1.5424438976377952
20
1.1243603543307086
11
1.5423773622047243
21
1.1242793307086614
0
LINE
8
BLACK
6
CONTINUOUS
10
1.5423773622047243
20
1.1242793307086614
11
1.5423214173228346
21
1.1241903937007873
0
LINE
8
BLACK
6
CONTINUOUS
10
1.5423214173228346
20
1.1241903937007873
11
1.5422624015748032
21
1.1241392519685038
0
LINE
8
BLACK
6
CONTINUOUS
10
1.5422624015748032
20
1.1241392519685038
11
1.542076653543307
21
1.123912874015748
0
LINE
8
BLACK
6
CONTINUOUS
10
1.542076653543307
20
1.123912874015748
11
1.5402019291338582
21
1.1220381102362205
0
LINE
8
BLACK
6
CONTINUOUS
10
1.5402019291338582
20
1.1220381102362205
11
1.5399755511811024
21
1.1218523622047243
0
LINE
8
BLACK
6
CONTINUOUS
10
1.5399755511811024
20
1.1218523622047243
11
1.5399243700787402
21
1.1217933070866142
0
LINE
8
BLACK
6
CONTINUOUS
10
1.5399243700787402
20
1.1217933070866142
11
1.5398353937007874
21
1.1217373228346457
0
LINE
8
BLACK
6
CONTINUOUS
10
1.5398353937007874
20
1.1217373228346457
11
1.5397544488188977
21
1.1216708661417323
0
LINE
8
BLACK
6
CONTINUOUS
10
1.5397544488188977
20
1.1216708661417323
11
1.5396824803149607
21
1.1216410629921258
0
LINE
8
BLACK
6
CONTINUOUS
10
1.5396824803149607
20
1.1216410629921258
11
1.5394344881889763
21
1.1214849606299213
0
LINE
8
BLACK
6
CONTINUOUS
10
1.5394344881889763
20
1.1214849606299213
11
1.5356849606299212
21
1.1196101968503938
0
LINE
8
BLACK
6
CONTINUOUS
10
1.5356849606299212
20
1.1196101968503938
11
1.5351443307086614
21
1.1194033070866141
0
LINE
8
BLACK
6
CONTINUOUS
10
1.5351443307086614
20
1.1194033070866141
11
1.5350385039370078
21
1.1193958267716535
0
LINE
8
BLACK
6
CONTINUOUS
10
1.5350385039370078
20
1.1193958267716535
11
1.5349405118110235
21
1.1193551968503936
0
LINE
8
BLACK
6
CONTINUOUS
10
1.5349405118110235
20
1.1193551968503936
11
1.5343644488188977
21
1.1192984645669291
0
LINE
8
BLACK
6
CONTINUOUS
10
1.5343644488188977
20
1.1192984645669291
11
1.5268653937007874
21
1.1192984645669291
0
LINE
8
BLACK
6
CONTINUOUS
10
1.5268653937007874
20
1.1192984645669291
11
1.5262893307086614
21
1.1193551968503936
0
LINE
8
BLACK
6
CONTINUOUS
10
1.5262893307086614
20
1.1193551968503936
11
1.5261913385826771
21
1.1193957874015747
0
LINE
8
BLACK
6
CONTINUOUS
10
1.5261913385826771
20
1.1193957874015747
11
1.5260854724409449
21
1.1194033070866141
0
LINE
8
BLACK
6
CONTINUOUS
10
1.5260854724409449
20
1.1194033070866141
11
1.5255448818897637
21
1.1196101968503938
0
LINE
8
BLACK
6
CONTINUOUS
10
1.5255448818897637
20
1.1196101968503938
11
1.5217953543307086
21
1.1214849606299213
0
LINE
8
BLACK
6
CONTINUOUS
10
1.5217953543307086
20
1.1214849606299213
11
1.5215473228346457
21
1.1216410629921258
0
LINE
8
BLACK
6
CONTINUOUS
10
1.5215473228346457
20
1.1216410629921258
11
1.5214753937007874
21
1.1216708661417323
0
LINE
8
BLACK
6
CONTINUOUS
10
1.5214753937007874
20
1.1216708661417323
11
1.5213944094488188
21
1.1217373228346457
0
LINE
8
BLACK
6
CONTINUOUS
10
1.5213944094488188
20
1.1217373228346457
11
1.5213054724409449
21
1.1217933070866142
0
LINE
8
BLACK
6
CONTINUOUS
10
1.5213054724409449
20
1.1217933070866142
11
1.5212542519685039
21
1.1218523622047243
0
LINE
8
BLACK
6
CONTINUOUS
10
1.5212542519685039
20
1.1218523622047243
11
1.5210279133858267
21
1.1220381102362205
0
LINE
8
BLACK
6
CONTINUOUS
10
1.5210279133858267
20
1.1220381102362205
11
1.5191531496062991
21
1.1239129133858268
0
LINE
8
BLACK
6
CONTINUOUS
10
1.5191531496062991
20
1.1239129133858268
11
1.5189674015748031
21
1.1241392519685038
0
LINE
8
BLACK
6
CONTINUOUS
10
1.5189674015748031
20
1.1241392519685038
11
1.5189084251968503
21
1.1241903937007873
0
LINE
8
BLACK
6
CONTINUOUS
10
1.5189084251968503
20
1.1241903937007873
11
1.5188524409448818
21
1.1242793307086614
0
LINE
8
BLACK
6
CONTINUOUS
10
1.5188524409448818
20
1.1242793307086614
11
1.5187859448818897
21
1.1243603543307086
0
LINE
8
BLACK
6
CONTINUOUS
10
1.5187859448818897
20
1.1243603543307086
11
1.5187561023622047
21
1.1244324015748031
0
LINE
8
BLACK
6
CONTINUOUS
10
1.5187561023622047
20
1.1244324015748031
11
1.5186000787401575
21
1.1246802755905512
0
LINE
8
BLACK
6
CONTINUOUS
10
1.5186000787401575
20
1.1246802755905512
11
1.5167253149606299
21
1.1284298031496063
0
LINE
8
BLACK
6
CONTINUOUS
10
1.5167253149606299
20
1.1284298031496063
11
1.5165184251968504
21
1.1289704330708661
0
LINE
8
BLACK
6
CONTINUOUS
10
1.5165184251968504
20
1.1289704330708661
11
1.5165109055118109
21
1.1290762598425197
0
LINE
8
BLACK
6
CONTINUOUS
10
1.5165109055118109
20
1.1290762598425197
11
1.5164703149606298
21
1.129174251968504
0
LINE
8
BLACK
6
CONTINUOUS
10
1.5164703149606298
20
1.129174251968504
11
1.5164135826771654
21
1.1297503149606298
0
LINE
8
BLACK
6
CONTINUOUS
10
1.5164135826771654
20
1.1297503149606298
11
1.5164135826771654
21
1.1616212992125985
0
LINE
8
BLACK
6
CONTINUOUS
10
1.5164135826771654
20
1.1616212992125985
11
1.5164703149606298
21
1.1621973622047244
0
LINE
8
BLACK
6
CONTINUOUS
10
1.5164703149606298
20
1.1621973622047244
11
1.5169112204724409
21
1.1632617716535434
0
LINE
8
BLACK
6
CONTINUOUS
10
1.5169112204724409
20
1.1632617716535434
11
1.5177258661417323
21
1.1640764173228346
0
LINE
8
BLACK
6
CONTINUOUS
10
1.5177258661417323
20
1.1640764173228346
11
1.5187902755905511
21
1.1645173228346457
0
LINE
8
BLACK
6
CONTINUOUS
10
1.5187902755905511
20
1.1645173228346457
11
1.5199424015748031
21
1.1645173228346457
0
LINE
8
BLACK
6
CONTINUOUS
10
1.5199424015748031
20
1.1645173228346457
11
1.5210068110236221
21
1.1640764173228346
0
LINE
8
BLACK
6
CONTINUOUS
10
1.3297807086614173
20
1.1640764173228346
11
1.3305953543307085
21
1.1632617716535434
0
LINE
8
BLACK
6
CONTINUOUS
10
1.3305953543307085
20
1.1632617716535434
11
1.3310362598425196
21
1.1621973622047244
0
LINE
8
BLACK
6
CONTINUOUS
10
1.3310362598425196
20
1.1621973622047244
11
1.3310929921259842
21
1.1616212992125985
0
LINE
8
BLACK
6
CONTINUOUS
10
1.3310929921259842
20
1.1616212992125985
11
1.3310929921259842
21
1.146252716535433
0
LINE
8
BLACK
6
CONTINUOUS
10
1.3310929921259842
20
1.146252716535433
11
1.3485494881889764
21
1.1637092125984252
0
LINE
8
BLACK
6
CONTINUOUS
10
1.3485494881889764
20
1.1637092125984252
11
1.3489969291338582
21
1.1640764173228346
0
LINE
8
BLACK
6
CONTINUOUS
10
1.3489969291338582
20
1.1640764173228346
11
1.3500613385826772
21
1.1645173228346457
0
LINE
8
BLACK
6
CONTINUOUS
10
1.3500613385826772
20
1.1645173228346457
11
1.3512134251968504
21
1.1645173228346457
0
LINE
8
BLACK
6
CONTINUOUS
10
1.3512134251968504
20
1.1645173228346457
11
1.3522778740157479
21
1.1640764173228346
0
LINE
8
BLACK
6
CONTINUOUS
10
1.3522778740157479
20
1.1640764173228346
11
1.3530925196850394
21
1.1632617716535434
0
LINE
8
BLACK
6
CONTINUOUS
10
1.3530925196850394
20
1.1632617716535434
11
1.3535334251968503
21
1.1621973228346456
0
LINE
8
BLACK
6
CONTINUOUS
10
1.3535334251968503
20
1.1621973228346456
11
1.3535334251968503
21
1.1610452362204724
0
LINE
8
BLACK
6
CONTINUOUS
10
1.3535334251968503
20
1.1610452362204724
11
1.3530925196850394
21
1.1599808267716536
0
LINE
8
BLACK
6
CONTINUOUS
10
1.3530925196850394
20
1.1599808267716536
11
1.35272531496063
21
1.1595333858267716
0
LINE
8
BLACK
6
CONTINUOUS
10
1.35272531496063
20
1.1595333858267716
11
1.3376632677165354
21
1.1444713779527558
0
LINE
8
BLACK
6
CONTINUOUS
10
1.3376632677165354
20
1.1444713779527558
11
1.3529996062992127
21
1.1240228740157481
0
LINE
8
BLACK
6
CONTINUOUS
10
1.3529996062992127
20
1.1240228740157481
11
1.3532998818897637
21
1.1235279921259842
0
LINE
8
BLACK
6
CONTINUOUS
10
1.3532998818897637
20
1.1235279921259842
11
1.3535857874015749
21
1.1224118897637796
0
LINE
8
BLACK
6
CONTINUOUS
10
1.3535857874015749
20
1.1224118897637796
11
1.3534228346456694
21
1.1212714173228346
0
LINE
8
BLACK
6
CONTINUOUS
10
1.3534228346456694
20
1.1212714173228346
11
1.3528358661417323
21
1.1202800393700787
0
LINE
8
BLACK
6
CONTINUOUS
10
1.3528358661417323
20
1.1202800393700787
11
1.3519141732283464
21
1.1195887401574802
0
LINE
8
BLACK
6
CONTINUOUS
10
1.3519141732283464
20
1.1195887401574802
11
1.3507981102362205
21
1.1193028346456693
0
LINE
8
BLACK
6
CONTINUOUS
10
1.3507981102362205
20
1.1193028346456693
11
1.3496575984251968
21
1.119465748031496
0
LINE
8
BLACK
6
CONTINUOUS
10
1.3496575984251968
20
1.119465748031496
11
1.3486662204724409
21
1.1200527559055118
0
LINE
8
BLACK
6
CONTINUOUS
10
1.3486662204724409
20
1.1200527559055118
11
1.3482751968503937
21
1.1204795669291339
0
LINE
8
BLACK
6
CONTINUOUS
10
1.3482751968503937
20
1.1204795669291339
11
1.3334450393700787
21
1.1402531496062991
0
LINE
8
BLACK
6
CONTINUOUS
10
1.3334450393700787
20
1.1402531496062991
11
1.3310929921259842
21
1.137901062992126
0
LINE
8
BLACK
6
CONTINUOUS
10
1.3310929921259842
20
1.137901062992126
11
1.3310929921259842
21
1.1222512204724409
0
LINE
8
BLACK
6
CONTINUOUS
10
1.3310929921259842
20
1.1222512204724409
11
1.3310362598425196
21
1.121675157480315
0
LINE
8
BLACK
6
CONTINUOUS
10
1.3310362598425196
20
1.121675157480315
11
1.3305953543307085
21
1.120610748031496
0
LINE
8
BLACK
6
CONTINUOUS
10
1.3305953543307085
20
1.120610748031496
11
1.3297807086614173
21
1.1197961023622047
0
LINE
8
BLACK
6
CONTINUOUS
10
1.3297807086614173
20
1.1197961023622047
11
1.3287162992125985
21
1.1193551968503936
0
LINE
8
BLACK
6
CONTINUOUS
10
1.3287162992125985
20
1.1193551968503936
11
1.3275641732283465
21
1.1193551968503936
0
LINE
8
BLACK
6
CONTINUOUS
10
1.3275641732283465
20
1.1193551968503936
11
1.3264997637795275
21
1.1197961023622047
0
LINE
8
BLACK
6
CONTINUOUS
10
1.3264997637795275
20
1.1197961023622047
11
1.3256851181102363
21
1.120610748031496
0
LINE
8
BLACK
6
CONTINUOUS
10
1.3256851181102363
20
1.120610748031496
11
1.3252442125984252
21
1.121675157480315
0
LINE
8
BLACK
6
CONTINUOUS
10
1.3252442125984252
20
1.121675157480315
11
1.3251874803149606
21
1.1222512204724409
0
LINE
8
BLACK
6
CONTINUOUS
10
1.3251874803149606
20
1.1222512204724409
11
1.3251874803149606
21
1.1616212992125985
0
LINE
8
BLACK
6
CONTINUOUS
10
1.3251874803149606
20
1.1616212992125985
11
1.3252442125984252
21
1.1621973622047244
0
LINE
8
BLACK
6
CONTINUOUS
10
1.3252442125984252
20
1.1621973622047244
11
1.3256851181102363
21
1.1632617716535434
0
LINE
8
BLACK
6
CONTINUOUS
10
1.3256851181102363
20
1.1632617716535434
11
1.3264997637795275
21
1.1640764173228346
0
LINE
8
BLACK
6
CONTINUOUS
10
1.3264997637795275
20
1.1640764173228346
11
1.3275641732283465
21
1.1645173228346457
0
LINE
8
BLACK
6
CONTINUOUS
10
1.3275641732283465
20
1.1645173228346457
11
1.3287162992125985
21
1.1645173228346457
0
LINE
8
BLACK
6
CONTINUOUS
10
1.3287162992125985
20
1.1645173228346457
11
1.3297807086614173
21
1.1640764173228346
0
LINE
8
BLACK
6
CONTINUOUS
10
1.4543255905511812
20
1.1645173228346457
11
1.4544235826771654
21
1.1644767322834646
0
LINE
8
BLACK
6
CONTINUOUS
10
1.4544235826771654
20
1.1644767322834646
11
1.4545294094488188
21
1.1644692125984251
0
LINE
8
BLACK
6
CONTINUOUS
10
1.4545294094488188
20
1.1644692125984251
11
1.4550700393700786
21
1.1642623228346456
0
LINE
8
BLACK
6
CONTINUOUS
10
1.4550700393700786
20
1.1642623228346456
11
1.4588195669291337
21
1.162387559055118
0
LINE
8
BLACK
6
CONTINUOUS
10
1.4588195669291337
20
1.162387559055118
11
1.4590675590551181
21
1.162231496062992
0
LINE
8
BLACK
6
CONTINUOUS
10
1.4590675590551181
20
1.162231496062992
11
1.4591395275590551
21
1.1622016535433071
0
LINE
8
BLACK
6
CONTINUOUS
10
1.4591395275590551
20
1.1622016535433071
11
1.4592204724409448
21
1.1621351968503937
0
LINE
8
BLACK
6
CONTINUOUS
10
1.4592204724409448
20
1.1621351968503937
11
1.4593094488188976
21
1.1620792125984252
0
LINE
8
BLACK
6
CONTINUOUS
10
1.4593094488188976
20
1.1620792125984252
11
1.4593605905511811
21
1.1620202362204723
0
LINE
8
BLACK
6
CONTINUOUS
10
1.4593605905511811
20
1.1620202362204723
11
1.4595869685039369
21
1.1618344488188976
0
LINE
8
BLACK
6
CONTINUOUS
10
1.4595869685039369
20
1.1618344488188976
11
1.4614617322834644
21
1.1599596850393701
0
LINE
8
BLACK
6
CONTINUOUS
10
1.4614617322834644
20
1.1599596850393701
11
1.4616474803149606
21
1.1597333464566928
0
LINE
8
BLACK
6
CONTINUOUS
10
1.4616474803149606
20
1.1597333464566928
11
1.4617064960629922
21
1.1596821653543308
0
LINE
8
BLACK
6
CONTINUOUS
10
1.4617064960629922
20
1.1596821653543308
11
1.4617624409448819
21
1.1595932283464567
0
LINE
8
BLACK
6
CONTINUOUS
10
1.4617624409448819
20
1.1595932283464567
11
1.4618289370078741
21
1.1595122440944881
0
LINE
8
BLACK
6
CONTINUOUS
10
1.4618289370078741
20
1.1595122440944881
11
1.4618587401574803
21
1.1594403149606298
0
LINE
8
BLACK
6
CONTINUOUS
10
1.4618587401574803
20
1.1594403149606298
11
1.4620148425196851
21
1.1591922834645669
0
LINE
8
BLACK
6
CONTINUOUS
10
1.4620148425196851
20
1.1591922834645669
11
1.4638896062992126
21
1.1554427559055118
0
LINE
8
BLACK
6
CONTINUOUS
10
1.4638896062992126
20
1.1554427559055118
11
1.4640964960629921
21
1.1549021653543308
0
LINE
8
BLACK
6
CONTINUOUS
10
1.4640964960629921
20
1.1549021653543308
11
1.4641040157480314
21
1.1547962992125984
0
LINE
8
BLACK
6
CONTINUOUS
10
1.4641040157480314
20
1.1547962992125984
11
1.4641446062992125
21
1.1546983070866141
0
LINE
8
BLACK
6
CONTINUOUS
10
1.4641446062992125
20
1.1546983070866141
11
1.4642013385826771
21
1.1541222440944883
0
LINE
8
BLACK
6
CONTINUOUS
10
1.4642013385826771
20
1.1541222440944883
11
1.4642013385826771
21
1.1484979527559054
0
LINE
8
BLACK
6
CONTINUOUS
10
1.4642013385826771
20
1.1484979527559054
11
1.4641446062992125
21
1.1479218897637795
0
LINE
8
BLACK
6
CONTINUOUS
10
1.4641446062992125
20
1.1479218897637795
11
1.4641040157480314
21
1.147823937007874
0
LINE
8
BLACK
6
CONTINUOUS
10
1.4641040157480314
20
1.147823937007874
11
1.4640964960629921
21
1.1477180314960629
0
LINE
8
BLACK
6
CONTINUOUS
10
1.4640964960629921
20
1.1477180314960629
11
1.4638896062992126
21
1.1471774409448818
0
LINE
8
BLACK
6
CONTINUOUS
10
1.4638896062992126
20
1.1471774409448818
11
1.4620148425196851
21
1.1434279133858267
0
LINE
8
BLACK
6
CONTINUOUS
10
1.4620148425196851
20
1.1434279133858267
11
1.4618587401574803
21
1.1431799212598426
0
LINE
8
BLACK
6
CONTINUOUS
10
1.4618587401574803
20
1.1431799212598426
11
1.4618289370078741
21
1.1431079527559054
0
LINE
8
BLACK
6
CONTINUOUS
10
1.4618289370078741
20
1.1431079527559054
11
1.4617624409448819
21
1.1430270078740157
0
LINE
8
BLACK
6
CONTINUOUS
10
1.4617624409448819
20
1.1430270078740157
11
1.4617064960629922
21
1.1429380314960629
0
LINE
8
BLACK
6
CONTINUOUS
10
1.4617064960629922
20
1.1429380314960629
11
1.4616474803149606
21
1.1428868897637796
0
LINE
8
BLACK
6
CONTINUOUS
10
1.4616474803149606
20
1.1428868897637796
11
1.4614617322834644
21
1.1426605118110236
0
LINE
8
BLACK
6
CONTINUOUS
10
1.4614617322834644
20
1.1426605118110236
11
1.4595869685039369
21
1.140785748031496
0
LINE
8
BLACK
6
CONTINUOUS
10
1.4595869685039369
20
1.140785748031496
11
1.4593605905511811
21
1.1406000000000001
0
LINE
8
BLACK
6
CONTINUOUS
10
1.4593605905511811
20
1.1406000000000001
11
1.4593094488188976
21
1.1405409842519685
0
LINE
8
BLACK
6
CONTINUOUS
10
1.4593094488188976
20
1.1405409842519685
11
1.4592204724409448
21
1.1404850393700787
0
LINE
8
BLACK
6
CONTINUOUS
10
1.4592204724409448
20
1.1404850393700787
11
1.4591395275590551
21
1.1404185433070866
0
LINE
8
BLACK
6
CONTINUOUS
10
1.4591395275590551
20
1.1404185433070866
11
1.4590675590551181
21
1.1403887401574804
0
LINE
8
BLACK
6
CONTINUOUS
10
1.4590675590551181
20
1.1403887401574804
11
1.4588195669291337
21
1.1402326377952756
0
LINE
8
BLACK
6
CONTINUOUS
10
1.4588195669291337
20
1.1402326377952756
11
1.4550700393700786
21
1.1383578740157481
0
LINE
8
BLACK
6
CONTINUOUS
10
1.4550700393700786
20
1.1383578740157481
11
1.4545294094488188
21
1.1381509842519684
0
LINE
8
BLACK
6
CONTINUOUS
10
1.4545294094488188
20
1.1381509842519684
11
1.4544235826771654
21
1.1381435039370078
0
LINE
8
BLACK
6
CONTINUOUS
10
1.4544235826771654
20
1.1381435039370078
11
1.4543255905511812
21
1.1381028740157479
0
LINE
8
BLACK
6
CONTINUOUS
10
1.4543255905511812
20
1.1381028740157479
11
1.4537495275590551
21
1.1380461417322834
0
LINE
8
BLACK
6
CONTINUOUS
10
1.4537495275590551
20
1.1380461417322834
11
1.4417041732283464
21
1.1380461417322834
0
LINE
8
BLACK
6
CONTINUOUS
10
1.4417041732283464
20
1.1380461417322834
11
1.4417041732283464
21
1.1222512204724409
0
LINE
8
BLACK
6
CONTINUOUS
10
1.4417041732283464
20
1.1222512204724409
11
1.4416474409448818
21
1.121675157480315
0
LINE
8
BLACK
6
CONTINUOUS
10
1.4416474409448818
20
1.121675157480315
11
1.4412065354330708
21
1.120610748031496
0
LINE
8
BLACK
6
CONTINUOUS
10
1.4412065354330708
20
1.120610748031496
11
1.4403918897637795
21
1.1197961023622047
0
LINE
8
BLACK
6
CONTINUOUS
10
1.4403918897637795
20
1.1197961023622047
11
1.4393274803149605
21
1.1193551968503936
0
LINE
8
BLACK
6
CONTINUOUS
10
1.4393274803149605
20
1.1193551968503936
11
1.4381753543307085
21
1.1193551968503936
0
LINE
8
BLACK
6
CONTINUOUS
10
1.4381753543307085
20
1.1193551968503936
11
1.4371109448818897
21
1.1197961023622047
0
LINE
8
BLACK
6
CONTINUOUS
10
1.4371109448818897
20
1.1197961023622047
11
1.4362962992125985
21
1.120610748031496
0
LINE
8
BLACK
6
CONTINUOUS
10
1.4362962992125985
20
1.120610748031496
11
1.4358553937007874
21
1.121675157480315
0
LINE
8
BLACK
6
CONTINUOUS
10
1.4358553937007874
20
1.121675157480315
11
1.4357986614173228
21
1.1222512204724409
0
LINE
8
BLACK
6
CONTINUOUS
10
1.4357986614173228
20
1.1222512204724409
11
1.4357986614173228
21
1.1616212992125985
0
LINE
8
BLACK
6
CONTINUOUS
10
1.4357986614173228
20
1.1616212992125985
11
1.4358553937007874
21
1.1621973622047244
0
LINE
8
BLACK
6
CONTINUOUS
10
1.4358553937007874
20
1.1621973622047244
11
1.4362962992125985
21
1.1632617716535434
0
LINE
8
BLACK
6
CONTINUOUS
10
1.4362962992125985
20
1.1632617716535434
11
1.4371109448818897
21
1.1640764173228346
0
LINE
8
BLACK
6
CONTINUOUS
10
1.4371109448818897
20
1.1640764173228346
11
1.4381753543307085
21
1.1645173228346457
0
LINE
8
BLACK
6
CONTINUOUS
10
1.4381753543307085
20
1.1645173228346457
11
1.4387514173228346
21
1.1645740551181103
0
LINE
8
BLACK
6
CONTINUOUS
10
1.4387514173228346
20
1.1645740551181103
11
1.4537495275590551
21
1.1645740551181103
0
LINE
8
BLACK
6
CONTINUOUS
10
1.4537495275590551
20
1.1645740551181103
11
1.4543255905511812
21
1.1645173228346457
0
LINE
8
BLACK
6
CONTINUOUS
10
1.4417041732283464
20
1.143951653543307
11
1.4530524803149607
21
1.143951653543307
0
LINE
8
BLACK
6
CONTINUOUS
10
1.4530524803149607
20
1.143951653543307
11
1.4557499606299211
21
1.1453003937007873
0
LINE
8
BLACK
6
CONTINUOUS
10
1.4557499606299211
20
1.1453003937007873
11
1.4569470866141732
21
1.1464975196850393
0
LINE
8
BLACK
6
CONTINUOUS
10
1.4569470866141732
20
1.1464975196850393
11
1.4582958267716535
21
1.149195
0
LINE
8
BLACK
6
CONTINUOUS
10
1.4582958267716535
20
1.149195
11
1.4582958267716535
21
1.1534251968503937
0
LINE
8
BLACK
6
CONTINUOUS
10
1.4582958267716535
20
1.1534251968503937
11
1.4569470866141732
21
1.1561226771653543
0
LINE
8
BLACK
6
CONTINUOUS
10
1.4569470866141732
20
1.1561226771653543
11
1.4557499606299211
21
1.1573198031496064
0
LINE
8
BLACK
6
CONTINUOUS
10
1.4557499606299211
20
1.1573198031496064
11
1.4530524803149607
21
1.1586685433070867
0
LINE
8
BLACK
6
CONTINUOUS
10
1.4530524803149607
20
1.1586685433070867
11
1.4417041732283464
21
1.1586685433070867
0
LINE
8
BLACK
6
CONTINUOUS
10
1.4417041732283464
20
1.1586685433070867
11
1.4417041732283464
21
1.143951653543307
0
LINE
8
BLACK
6
CONTINUOUS
10
1.5780601181102363
20
1.1645173228346457
11
1.5791245275590551
21
1.1640764173228346
0
LINE
8
BLACK
6
CONTINUOUS
10
1.5791245275590551
20
1.1640764173228346
11
1.5799391732283463
21
1.1632617716535434
0
LINE
8
BLACK
6
CONTINUOUS
10
1.5799391732283463
20
1.1632617716535434
11
1.5803800787401574
21
1.1621973622047244
0
LINE
8
BLACK
6
CONTINUOUS
10
1.5803800787401574
20
1.1621973622047244
11
1.5803800787401574
21
1.1610452362204724
0
LINE
8
BLACK
6
CONTINUOUS
10
1.5803800787401574
20
1.1610452362204724
11
1.5799391732283463
21
1.1599808267716536
0
LINE
8
BLACK
6
CONTINUOUS
10
1.5799391732283463
20
1.1599808267716536
11
1.5791245275590551
21
1.1591661811023621
0
LINE
8
BLACK
6
CONTINUOUS
10
1.5791245275590551
20
1.1591661811023621
11
1.5780601181102363
21
1.1587252755905511
0
LINE
8
BLACK
6
CONTINUOUS
10
1.5780601181102363
20
1.1587252755905511
11
1.5774840551181102
21
1.1586685433070867
0
LINE
8
BLACK
6
CONTINUOUS
10
1.5774840551181102
20
1.1586685433070867
11
1.5691882283464567
21
1.1586685433070867
0
LINE
8
BLACK
6
CONTINUOUS
10
1.5691882283464567
20
1.1586685433070867
11
1.5691882283464567
21
1.1222512204724409
0
LINE
8
BLACK
6
CONTINUOUS
10
1.5691882283464567
20
1.1222512204724409
11
1.5691314960629921
21
1.121675157480315
0
LINE
8
BLACK
6
CONTINUOUS
10
1.5691314960629921
20
1.121675157480315
11
1.568690590551181
21
1.120610748031496
0
LINE
8
BLACK
6
CONTINUOUS
10
1.568690590551181
20
1.120610748031496
11
1.5678759448818897
21
1.1197961023622047
0
LINE
8
BLACK
6
CONTINUOUS
10
1.5678759448818897
20
1.1197961023622047
11
1.5668115354330707
21
1.1193551968503936
0
LINE
8
BLACK
6
CONTINUOUS
10
1.5668115354330707
20
1.1193551968503936
11
1.5656594094488188
21
1.1193551968503936
0
LINE
8
BLACK
6
CONTINUOUS
10
1.5656594094488188
20
1.1193551968503936
11
1.564595
21
1.1197961023622047
0
LINE
8
BLACK
6
CONTINUOUS
10
1.564595
20
1.1197961023622047
11
1.5637803543307087
21
1.120610748031496
0
LINE
8
BLACK
6
CONTINUOUS
10
1.5637803543307087
20
1.120610748031496
11
1.5633394488188976
21
1.121675157480315
0
LINE
8
BLACK
6
CONTINUOUS
10
1.5633394488188976
20
1.121675157480315
11
1.563282716535433
21
1.1222512204724409
0
LINE
8
BLACK
6
CONTINUOUS
10
1.563282716535433
20
1.1222512204724409
11
1.563282716535433
21
1.1586685433070867
0
LINE
8
BLACK
6
CONTINUOUS
10
1.563282716535433
20
1.1586685433070867
11
1.5549868897637795
21
1.1586685433070867
0
LINE
8
BLACK
6
CONTINUOUS
10
1.5549868897637795
20
1.1586685433070867
11
1.5544108267716534
21
1.1587252755905511
0
LINE
8
BLACK
6
CONTINUOUS
10
1.5544108267716534
20
1.1587252755905511
11
1.5533464173228346
21
1.1591661811023621
0
LINE
8
BLACK
6
CONTINUOUS
10
1.5533464173228346
20
1.1591661811023621
11
1.5525317716535432
21
1.1599808267716536
0
LINE
8
BLACK
6
CONTINUOUS
10
1.5525317716535432
20
1.1599808267716536
11
1.5520908661417323
21
1.1610452362204724
0
LINE
8
BLACK
6
CONTINUOUS
10
1.5520908661417323
20
1.1610452362204724
11
1.5520908661417323
21
1.1621973622047244
0
LINE
8
BLACK
6
CONTINUOUS
10
1.5520908661417323
20
1.1621973622047244
11
1.5525317716535432
21
1.1632617716535434
0
LINE
8
BLACK
6
CONTINUOUS
10
1.5525317716535432
20
1.1632617716535434
11
1.5533464173228346
21
1.1640764173228346
0
LINE
8
BLACK
6
CONTINUOUS
10
1.5533464173228346
20
1.1640764173228346
11
1.5544108267716534
21
1.1645173228346457
0
LINE
8
BLACK
6
CONTINUOUS
10
1.5544108267716534
20
1.1645173228346457
11
1.5549868897637795
21
1.1645740551181103
0
LINE
8
BLACK
6
CONTINUOUS
10
1.5549868897637795
20
1.1645740551181103
11
1.5774840551181102
21
1.1645740551181103
0
LINE
8
BLACK
6
CONTINUOUS
10
1.5774840551181102
20
1.1645740551181103
11
1.5780601181102363
21
1.1645173228346457
0
LINE
8
BLACK
6
CONTINUOUS
10
0.2140627559055118
20
3.5248102362204725
11
0.2279486220472441
21
3.5224509448818897
0
LINE
8
BLACK
6
CONTINUOUS
10
0.2279486220472441
20
3.5224509448818897
11
0.241483031496063
21
3.5185517322834645
0
LINE
8
BLACK
6
CONTINUOUS
10
0.241483031496063
20
3.5185517322834645
11
0.2544957874015748
21
3.5131616929133855
0
LINE
8
BLACK
6
CONTINUOUS
10
0.2544957874015748
20
3.5131616929133855
11
0.2668232283464567
21
3.5063485433070865
0
LINE
8
BLACK
6
CONTINUOUS
10
0.2668232283464567
20
3.5063485433070865
11
0.2783103149606299
21
3.498198031496063
0
LINE
8
BLACK
6
CONTINUOUS
10
0.2783103149606299
20
3.498198031496063
11
0.2888125984251969
21
3.4888125984251968
0
LINE
8
BLACK
6
CONTINUOUS
10
0.2888125984251969
20
3.4888125984251968
11
0.298198031496063
21
3.47831031496063
0
LINE
8
BLACK
6
CONTINUOUS
10
0.298198031496063
20
3.47831031496063
11
0.3063485433070866
21
3.4668232283464566
0
LINE
8
BLACK
6
CONTINUOUS
10
0.3063485433070866
20
3.4668232283464566
11
0.3131616929133858
21
3.4544957874015747
0
LINE
8
BLACK
6
CONTINUOUS
10
0.3131616929133858
20
3.4544957874015747
11
0.3185517322834646
21
3.4414830314960629
0
LINE
8
BLACK
6
CONTINUOUS
10
0.3185517322834646
20
3.4414830314960629
11
0.3224509448818897
21
3.4279486220472442
0
LINE
8
BLACK
6
CONTINUOUS
10
0.3224509448818897
20
3.4279486220472442
11
0.3248102362204724
21
3.4140627559055119
0
LINE
8
BLACK
6
CONTINUOUS
10
0.3248102362204724
20
3.4140627559055119
11
0.3256
21
3.3999999999999999
0
LINE
8
BLACK
6
CONTINUOUS
10
0.3256
20
3.3999999999999999
11
0.3248102362204724
21
3.3859372440944879
0
LINE
8
BLACK
6
CONTINUOUS
10
0.3248102362204724
20
3.3859372440944879
11
0.3224509448818897
21
3.3720513779527557
0
LINE
8
BLACK
6
CONTINUOUS
10
0.3224509448818897
20
3.3720513779527557
11
0.3185517322834646
21
3.3585169685039369
0
LINE
8
BLACK
6
CONTINUOUS
10
0.3185517322834646
20
3.3585169685039369
11
0.3131616929133858
21
3.3455042125984251
0
LINE
8
BLACK
6
CONTINUOUS
10
0.3131616929133858
20
3.3455042125984251
11
0.3063485433070866
21
3.3331767716535432
0
LINE
8
BLACK
6
CONTINUOUS
10
0.3063485433070866
20
3.3331767716535432
11
0.298198031496063
21
3.3216896850393698
0
LINE
8
BLACK
6
CONTINUOUS
10
0.298198031496063
20
3.3216896850393698
11
0.2888125984251969
21
3.3111874015748031
0
LINE
8
BLACK
6
CONTINUOUS
10
0.2888125984251969
20
3.3111874015748031
11
0.2783103149606299
21
3.3018019685039368
0
LINE
8
BLACK
6
CONTINUOUS
10
0.2783103149606299
20
3.3018019685039368
11
0.2668232283464567
21
3.2936514566929134
0
LINE
8
BLACK
6
CONTINUOUS
10
0.2668232283464567
20
3.2936514566929134
11
0.2544957874015748
21
3.2868383070866143
0
LINE
8
BLACK
6
CONTINUOUS
10
0.2544957874015748
20
3.2868383070866143
11
0.241483031496063
21
3.2814482677165353
0
LINE
8
BLACK
6
CONTINUOUS
10
0.241483031496063
20
3.2814482677165353
11
0.2279486220472441
21
3.2775490551181101
0
LINE
8
BLACK
6
CONTINUOUS
10
0.2279486220472441
20
3.2775490551181101
11
0.2140627559055118
21
3.2751897637795273
0
LINE
8
BLACK
6
CONTINUOUS
10
0.2140627559055118
20
3.2751897637795273
11
0.2
21
3.2744
0
LINE
8
BLACK
6
CONTINUOUS
10
0.2
20
3.2744
11
0.1859372440944882
21
3.2751897637795273
0
LINE
8
BLACK
6
CONTINUOUS
10
0.1859372440944882
20
3.2751897637795273
11
0.1720513779527559
21
3.2775490551181101
0
LINE
8
BLACK
6
CONTINUOUS
10
0.1720513779527559
20
3.2775490551181101
11
0.158516968503937
21
3.2814482677165353
0
LINE
8
BLACK
6
CONTINUOUS
10
0.158516968503937
20
3.2814482677165353
11
0.1455042125984252
21
3.2868383070866143
0
LINE
8
BLACK
6
CONTINUOUS
10
0.1455042125984252
20
3.2868383070866143
11
0.1331767716535433
21
3.2936514566929134
0
LINE
8
BLACK
6
CONTINUOUS
10
0.1331767716535433
20
3.2936514566929134
11
0.1216896850393701
21
3.3018019685039368
0
LINE
8
BLACK
6
CONTINUOUS
10
0.1216896850393701
20
3.3018019685039368
11
0.1111874015748031
21
3.3111874015748031
0
LINE
8
BLACK
6
CONTINUOUS
10
0.1111874015748031
20
3.3111874015748031
11
0.101801968503937
21
3.3216896850393698
0
LINE
8
BLACK
6
CONTINUOUS
10
0.101801968503937
20
3.3216896850393698
11
0.0936514566929134
21
3.3331767716535432
0
LINE
8
BLACK
6
CONTINUOUS
10
0.0936514566929134
20
3.3331767716535432
11
0.0868383070866142
21
3.3455042125984251
0
LINE
8
BLACK
6
CONTINUOUS
10
0.0868383070866142
20
3.3455042125984251
11
0.0814482677165354
21
3.3585169685039369
0
LINE
8
BLACK
6
CONTINUOUS
10
0.0814482677165354
20
3.3585169685039369
11
0.0775490551181102
21
3.3720513779527557
0
LINE
8
BLACK
6
CONTINUOUS
10
0.0775490551181102
20
3.3720513779527557
11
0.0751897637795276
21
3.3859372440944879
0
LINE
8
BLACK
6
CONTINUOUS
10
0.0751897637795276
20
3.3859372440944879
11
0.0744
21
3.3999999999999999
0
LINE
8
BLACK
6
CONTINUOUS
10
0.0744
20
3.3999999999999999
11
0.0751897637795276
21
3.4140627559055119
0
LINE
8
BLACK
6
CONTINUOUS
10
0.0751897637795276
20
3.4140627559055119
11
0.0775490551181102
21
3.4279486220472442
0
LINE
8
BLACK
6
CONTINUOUS
10
0.0775490551181102
20
3.4279486220472442
11
0.0814482677165354
21
3.4414830314960629
0
LINE
8
BLACK
6
CONTINUOUS
10
0.0814482677165354
20
3.4414830314960629
11
0.0868383070866142
21
3.4544957874015747
0
LINE
8
BLACK
6
CONTINUOUS
10
0.0868383070866142
20
3.4544957874015747
11
0.0936514566929134
21
3.4668232283464566
0
LINE
8
BLACK
6
CONTINUOUS
10
0.0936514566929134
20
3.4668232283464566
11
0.101801968503937
21
3.47831031496063
0
LINE
8
BLACK
6
CONTINUOUS
10
0.101801968503937
20
3.47831031496063
11
0.1111874015748031
21
3.4888125984251968
0
LINE
8
BLACK
6
CONTINUOUS
10
0.1111874015748031
20
3.4888125984251968
11
0.1216896850393701
21
3.498198031496063
0
LINE
8
BLACK
6
CONTINUOUS
10
0.1216896850393701
20
3.498198031496063
11
0.1331767716535433
21
3.5063485433070865
0
LINE
8
BLACK
6
CONTINUOUS
10
0.1331767716535433
20
3.5063485433070865
11
0.1455042125984252
21
3.5131616929133855
0
LINE
8
BLACK
6
CONTINUOUS
10
0.1455042125984252
20
3.5131616929133855
11
0.158516968503937
21
3.5185517322834645
0
LINE
8
BLACK
6
CONTINUOUS
10
0.158516968503937
20
3.5185517322834645
11
0.1720513779527559
21
3.5224509448818897
0
LINE
8
BLACK
6
CONTINUOUS
10
0.1720513779527559
20
3.5224509448818897
11
0.1859372440944882
21
3.5248102362204725
0
LINE
8
BLACK
6
CONTINUOUS
10
0.1859372440944882
20
3.5248102362204725
11
0.2
21
3.5255999999999998
0
LINE
8
BLACK
6
CONTINUOUS
10
0.2
20
3.5255999999999998
11
0.2140627559055118
21
3.5248102362204725
0
LINE
8
BLACK
6
CONTINUOUS
10
0.0899616535433071
20
3.3871383464566929
11
0.0921988582677165
21
3.3744506692913383
0
LINE
8
BLACK
6
CONTINUOUS
10
0.0921988582677165
20
3.3744506692913383
11
0.0958938582677165
21
3.362108464566929
0
LINE
8
BLACK
6
CONTINUOUS
10
0.0958938582677165
20
3.362108464566929
11
0.1009967322834646
21
3.3502787007874013
0
LINE
8
BLACK
6
CONTINUOUS
10
0.1009967322834646
20
3.3502787007874013
11
0.1074384251968504
21
3.3391212992125983
0
LINE
8
BLACK
6
CONTINUOUS
10
0.1074384251968504
20
3.3391212992125983
11
0.1151318897637795
21
3.3287872047244096
0
LINE
8
BLACK
6
CONTINUOUS
10
0.1151318897637795
20
3.3287872047244096
11
0.123973031496063
21
3.3194161417322836
0
LINE
8
BLACK
6
CONTINUOUS
10
0.123973031496063
20
3.3194161417322836
11
0.1338423228346457
21
3.3111348425196852
0
LINE
8
BLACK
6
CONTINUOUS
10
0.1338423228346457
20
3.3111348425196852
11
0.1446062598425197
21
3.3040552755905512
0
LINE
8
BLACK
6
CONTINUOUS
10
0.1446062598425197
20
3.3040552755905512
11
0.1561193307086614
21
3.2982731889763777
0
LINE
8
BLACK
6
CONTINUOUS
10
0.1561193307086614
20
3.2982731889763777
11
0.1682257874015748
21
3.293866811023622
0
LINE
8
BLACK
6
CONTINUOUS
10
0.1682257874015748
20
3.293866811023622
11
0.180761968503937
21
3.2908956692913387
0
LINE
8
BLACK
6
CONTINUOUS
10
0.180761968503937
20
3.2908956692913387
11
0.1935582677165354
21
3.2894000000000001
0
LINE
8
BLACK
6
CONTINUOUS
10
0.1935582677165354
20
3.2894000000000001
11
0.2064417322834646
21
3.2894000000000001
0
LINE
8
BLACK
6
CONTINUOUS
10
0.2064417322834646
20
3.2894000000000001
11
0.219238031496063
21
3.2908956692913387
0
LINE
8
BLACK
6
CONTINUOUS
10
0.219238031496063
20
3.2908956692913387
11
0.2317742125984252
21
3.293866811023622
0
LINE
8
BLACK
6
CONTINUOUS
10
0.2317742125984252
20
3.293866811023622
11
0.2438806692913386
21
3.2982731889763777
0
LINE
8
BLACK
6
CONTINUOUS
10
0.2438806692913386
20
3.2982731889763777
11
0.2553937401574803
21
3.3040552755905512
0
LINE
8
BLACK
6
CONTINUOUS
10
0.2553937401574803
20
3.3040552755905512
11
0.2661576771653543
21
3.3111348425196852
0
LINE
8
BLACK
6
CONTINUOUS
10
0.2661576771653543
20
3.3111348425196852
11
0.276026968503937
21
3.3194161417322836
0
LINE
8
BLACK
6
CONTINUOUS
10
0.276026968503937
20
3.3194161417322836
11
0.2848681102362204
21
3.3287872047244096
0
LINE
8
BLACK
6
CONTINUOUS
10
0.2848681102362204
20
3.3287872047244096
11
0.2925615748031496
21
3.3391212992125983
0
LINE
8
BLACK
6
CONTINUOUS
10
0.2925615748031496
20
3.3391212992125983
11
0.2990032677165354
21
3.3502787007874013
0
LINE
8
BLACK
6
CONTINUOUS
10
0.2990032677165354
20
3.3502787007874013
11
0.3041061417322835
21
3.362108464566929
0
LINE
8
BLACK
6
CONTINUOUS
10
0.3041061417322835
20
3.362108464566929
11
0.3078011417322835
21
3.3744506692913383
0
LINE
8
BLACK
6
CONTINUOUS
10
0.3078011417322835
20
3.3744506692913383
11
0.3100383464566929
21
3.3871383464566929
0
LINE
8
BLACK
6
CONTINUOUS
10
0.3100383464566929
20
3.3871383464566929
11
0.3107874409448819
21
3.3999999999999999
0
LINE
8
BLACK
6
CONTINUOUS
10
0.3107874409448819
20
3.3999999999999999
11
0.3100383464566929
21
3.412861653543307
0
LINE
8
BLACK
6
CONTINUOUS
10
0.3100383464566929
20
3.412861653543307
11
0.3078011417322835
21
3.4255493307086615
0
LINE
8
BLACK
6
CONTINUOUS
10
0.3078011417322835
20
3.4255493307086615
11
0.3041061417322835
21
3.4378915354330708
0
LINE
8
BLACK
6
CONTINUOUS
10
0.3041061417322835
20
3.4378915354330708
11
0.2990032677165354
21
3.4497212992125985
0
LINE
8
BLACK
6
CONTINUOUS
10
0.2990032677165354
20
3.4497212992125985
11
0.2925615748031496
21
3.4608787007874016
0
LINE
8
BLACK
6
CONTINUOUS
10
0.2925615748031496
20
3.4608787007874016
11
0.2848681102362204
21
3.4712127952755907
0
LINE
8
BLACK
6
CONTINUOUS
10
0.2848681102362204
20
3.4712127952755907
11
0.276026968503937
21
3.4805838582677167
0
LINE
8
BLACK
6
CONTINUOUS
10
0.276026968503937
20
3.4805838582677167
11
0.2661576771653543
21
3.4888651574803147
0
LINE
8
BLACK
6
CONTINUOUS
10
0.2661576771653543
20
3.4888651574803147
11
0.2553937401574803
21
3.4959447244094486
0
LINE
8
BLACK
6
CONTINUOUS
10
0.2553937401574803
20
3.4959447244094486
11
0.2438806692913386
21
3.5017268110236222
0
LINE
8
BLACK
6
CONTINUOUS
10
0.2438806692913386
20
3.5017268110236222
11
0.2317742125984252
21
3.5061331889763778
0
LINE
8
BLACK
6
CONTINUOUS
10
0.2317742125984252
20
3.5061331889763778
11
0.219238031496063
21
3.5091043307086611
0
LINE
8
BLACK
6
CONTINUOUS
10
0.219238031496063
20
3.5091043307086611
11
0.2064417322834646
21
3.5105999999999997
0
LINE
8
BLACK
6
CONTINUOUS
10
0.2064417322834646
20
3.5105999999999997
11
0.1935582677165354
21
3.5105999999999997
0
LINE
8
BLACK
6
CONTINUOUS
10
0.1935582677165354
20
3.5105999999999997
11
0.180761968503937
21
3.5091043307086611
0
LINE
8
BLACK
6
CONTINUOUS
10
0.180761968503937
20
3.5091043307086611
11
0.1682257874015748
21
3.5061331889763778
0
LINE
8
BLACK
6
CONTINUOUS
10
0.1682257874015748
20
3.5061331889763778
11
0.1561193307086614
21
3.5017268110236222
0
LINE
8
BLACK
6
CONTINUOUS
10
0.1561193307086614
20
3.5017268110236222
11
0.1446062598425197
21
3.4959447244094486
0
LINE
8
BLACK
6
CONTINUOUS
10
0.1446062598425197
20
3.4959447244094486
11
0.1338423228346457
21
3.4888651574803147
0
LINE
8
BLACK
6
CONTINUOUS
10
0.1338423228346457
20
3.4888651574803147
11
0.123973031496063
21
3.4805838582677167
0
LINE
8
BLACK
6
CONTINUOUS
10
0.123973031496063
20
3.4805838582677167
11
0.1151318897637795
21
3.4712127952755907
0
LINE
8
BLACK
6
CONTINUOUS
10
0.1151318897637795
20
3.4712127952755907
11
0.1074384251968504
21
3.4608787007874016
0
LINE
8
BLACK
6
CONTINUOUS
10
0.1074384251968504
20
3.4608787007874016
11
0.1009967322834646
21
3.4497212992125985
0
LINE
8
BLACK
6
CONTINUOUS
10
0.1009967322834646
20
3.4497212992125985
11
0.0958938582677165
21
3.4378915354330708
0
LINE
8
BLACK
6
CONTINUOUS
10
0.0958938582677165
20
3.4378915354330708
11
0.0921988582677165
21
3.4255493307086615
0
LINE
8
BLACK
6
CONTINUOUS
10
0.0921988582677165
20
3.4255493307086615
11
0.0899616535433071
21
3.412861653543307
0
LINE
8
BLACK
6
CONTINUOUS
10
0.0899616535433071
20
3.412861653543307
11
0.0892125590551181
21
3.3999999999999999
0
LINE
8
BLACK
6
CONTINUOUS
10
0.0892125590551181
20
3.3999999999999999
11
0.0899616535433071
21
3.3871383464566929
0
LINE
8
BLACK
6
CONTINUOUS
10
3.0140627559055115
20
3.9122118110236221
11
3.0279486220472442
21
3.9098525196850393
0
LINE
8
BLACK
6
CONTINUOUS
10
3.0279486220472442
20
3.9098525196850393
11
3.041483031496063
21
3.9059533070866141
0
LINE
8
BLACK
6
CONTINUOUS
10
3.041483031496063
20
3.9059533070866141
11
3.0544957874015748
21
3.9005632677165352
0
LINE
8
BLACK
6
CONTINUOUS
10
3.0544957874015748
20
3.9005632677165352
11
3.0668232283464567
21
3.8937501181102361
0
LINE
8
BLACK
6
CONTINUOUS
10
3.0668232283464567
20
3.8937501181102361
11
3.0783103149606297
21
3.8855996062992126
0
LINE
8
BLACK
6
CONTINUOUS
10
3.0783103149606297
20
3.8855996062992126
11
3.0888125984251968
21
3.8762141732283464
0
LINE
8
BLACK
6
CONTINUOUS
10
3.0888125984251968
20
3.8762141732283464
11
3.0981980314960631
21
3.8657118897637792
0
LINE
8
BLACK
6
CONTINUOUS
10
3.0981980314960631
20
3.8657118897637792
11
3.1063485433070865
21
3.8542248031496062
0
LINE
8
BLACK
6
CONTINUOUS
10
3.1063485433070865
20
3.8542248031496062
11
3.1131616929133856
21
3.8418973622047243
0
LINE
8
BLACK
6
CONTINUOUS
10
3.1131616929133856
20
3.8418973622047243
11
3.1185517322834646
21
3.8288846062992126
0
LINE
8
BLACK
6
CONTINUOUS
10
3.1185517322834646
20
3.8288846062992126
11
3.1224509448818898
21
3.8153501968503938
0
LINE
8
BLACK
6
CONTINUOUS
10
3.1224509448818898
20
3.8153501968503938
11
3.1248102362204722
21
3.8014643307086615
0
LINE
8
BLACK
6
CONTINUOUS
10
3.1248102362204722
20
3.8014643307086615
11
3.1255999999999999
21
3.7874015748031495
0
LINE
8
BLACK
6
CONTINUOUS
10
3.1255999999999999
20
3.7874015748031495
11
3.1248102362204722
21
3.7733388188976376
0
LINE
8
BLACK
6
CONTINUOUS
10
3.1248102362204722
20
3.7733388188976376
11
3.1224509448818898
21
3.7594529527559053
0
LINE
8
BLACK
6
CONTINUOUS
10
3.1224509448818898
20
3.7594529527559053
11
3.1185517322834646
21
3.7459185433070865
0
LINE
8
BLACK
6
CONTINUOUS
10
3.1185517322834646
20
3.7459185433070865
11
3.1131616929133856
21
3.7329057874015747
0
LINE
8
BLACK
6
CONTINUOUS
10
3.1131616929133856
20
3.7329057874015747
11
3.1063485433070865
21
3.7205783464566928
0
LINE
8
BLACK
6
CONTINUOUS
10
3.1063485433070865
20
3.7205783464566928
11
3.0981980314960631
21
3.7090912598425194
0
LINE
8
BLACK
6
CONTINUOUS
10
3.0981980314960631
20
3.7090912598425194
11
3.0888125984251968
21
3.6985889763779527
0
LINE
8
BLACK
6
CONTINUOUS
10
3.0888125984251968
20
3.6985889763779527
11
3.0783103149606297
21
3.6892035433070864
0
LINE
8
BLACK
6
CONTINUOUS
10
3.0783103149606297
20
3.6892035433070864
11
3.0668232283464567
21
3.681053031496063
0
LINE
8
BLACK
6
CONTINUOUS
10
3.0668232283464567
20
3.681053031496063
11
3.0544957874015748
21
3.6742398818897639
0
LINE
8
BLACK
6
CONTINUOUS
10
3.0544957874015748
20
3.6742398818897639
11
3.041483031496063
21
3.6688498425196849
0
LINE
8
BLACK
6
CONTINUOUS
10
3.041483031496063
20
3.6688498425196849
11
3.0279486220472442
21
3.6649506299212598
0
LINE
8
BLACK
6
CONTINUOUS
10
3.0279486220472442
20
3.6649506299212598
11
3.0140627559055115
21
3.6625913385826769
0
LINE
8
BLACK
6
CONTINUOUS
10
3.0140627559055115
20
3.6625913385826769
11
3.
21
3.6618015748031496
0
LINE
8
BLACK
6
CONTINUOUS
10
3.
20
3.6618015748031496
11
2.985937244094488
21
3.6625913385826769
0
LINE
8
BLACK
6
CONTINUOUS
10
2.985937244094488
20
3.6625913385826769
11
2.9720513779527558
21
3.6649506299212598
0
LINE
8
BLACK
6
CONTINUOUS
10
2.9720513779527558
20
3.6649506299212598
11
2.958516968503937
21
3.6688498425196849
0
LINE
8
BLACK
6
CONTINUOUS
10
2.958516968503937
20
3.6688498425196849
11
2.9455042125984252
21
3.6742398818897639
0
LINE
8
BLACK
6
CONTINUOUS
10
2.9455042125984252
20
3.6742398818897639
11
2.9331767716535433
21
3.681053031496063
0
LINE
8
BLACK
6
CONTINUOUS
10
2.9331767716535433
20
3.681053031496063
11
2.9216896850393699
21
3.6892035433070864
0
LINE
8
BLACK
6
CONTINUOUS
10
2.9216896850393699
20
3.6892035433070864
11
2.9111874015748032
21
3.6985889763779527
0
LINE
8
BLACK
6
CONTINUOUS
10
2.9111874015748032
20
3.6985889763779527
11
2.9018019685039369
21
3.7090912598425194
0
LINE
8
BLACK
6
CONTINUOUS
10
2.9018019685039369
20
3.7090912598425194
11
2.8936514566929135
21
3.7205783464566928
0
LINE
8
BLACK
6
CONTINUOUS
10
2.8936514566929135
20
3.7205783464566928
11
2.8868383070866139
21
3.7329057874015747
0
LINE
8
BLACK
6
CONTINUOUS
10
2.8868383070866139
20
3.7329057874015747
11
2.8814482677165354
21
3.7459185433070865
0
LINE
8
BLACK
6
CONTINUOUS
10
2.8814482677165354
20
3.7459185433070865
11
2.8775490551181102
21
3.7594529527559053
0
LINE
8
BLACK
6
CONTINUOUS
10
2.8775490551181102
20
3.7594529527559053
11
2.8751897637795274
21
3.7733388188976376
0
LINE
8
BLACK
6
CONTINUOUS
10
2.8751897637795274
20
3.7733388188976376
11
2.8744000000000001
21
3.7874015748031495
0
LINE
8
BLACK
6
CONTINUOUS
10
2.8744000000000001
20
3.7874015748031495
11
2.8751897637795274
21
3.8014643307086615
0
LINE
8
BLACK
6
CONTINUOUS
10
2.8751897637795274
20
3.8014643307086615
11
2.8775490551181102
21
3.8153501968503938
0
LINE
8
BLACK
6
CONTINUOUS
10
2.8775490551181102
20
3.8153501968503938
11
2.8814482677165354
21
3.8288846062992126
0
LINE
8
BLACK
6
CONTINUOUS
10
2.8814482677165354
20
3.8288846062992126
11
2.8868383070866139
21
3.8418973622047243
0
LINE
8
BLACK
6
CONTINUOUS
10
2.8868383070866139
20
3.8418973622047243
11
2.8936514566929135
21
3.8542248031496062
0
LINE
8
BLACK
6
CONTINUOUS
10
2.8936514566929135
20
3.8542248031496062
11
2.9018019685039369
21
3.8657118897637792
0
LINE
8
BLACK
6
CONTINUOUS
10
2.9018019685039369
20
3.8657118897637792
11
2.9111874015748032
21
3.8762141732283464
0
LINE
8
BLACK
6
CONTINUOUS
10
2.9111874015748032
20
3.8762141732283464
11
2.9216896850393699
21
3.8855996062992126
0
LINE
8
BLACK
6
CONTINUOUS
10
2.9216896850393699
20
3.8855996062992126
11
2.9331767716535433
21
3.8937501181102361
0
LINE
8
BLACK
6
CONTINUOUS
10
2.9331767716535433
20
3.8937501181102361
11
2.9455042125984252
21
3.9005632677165352
0
LINE
8
BLACK
6
CONTINUOUS
10
2.9455042125984252
20
3.9005632677165352
11
2.958516968503937
21
3.9059533070866141
0
LINE
8
BLACK
6
CONTINUOUS
10
2.958516968503937
20
3.9059533070866141
11
2.9720513779527558
21
3.9098525196850393
0
LINE
8
BLACK
6
CONTINUOUS
10
2.9720513779527558
20
3.9098525196850393
11
2.985937244094488
21
3.9122118110236221
0
LINE
8
BLACK
6
CONTINUOUS
10
2.985937244094488
20
3.9122118110236221
11
3.
21
3.9130015748031495
0
LINE
8
BLACK
6
CONTINUOUS
10
3.
20
3.9130015748031495
11
3.0140627559055115
21
3.9122118110236221
0
LINE
8
BLACK
6
CONTINUOUS
10
2.889961653543307
20
3.7745399212598425
11
2.8921988582677165
21
3.7618522440944879
0
LINE
8
BLACK
6
CONTINUOUS
10
2.8921988582677165
20
3.7618522440944879
11
2.8958938582677165
21
3.7495100393700787
0
LINE
8
BLACK
6
CONTINUOUS
10
2.8958938582677165
20
3.7495100393700787
11
2.9009967322834647
21
3.7376802755905509
0
LINE
8
BLACK
6
CONTINUOUS
10
2.9009967322834647
20
3.7376802755905509
11
2.9074384251968501
21
3.7265228740157479
0
LINE
8
BLACK
6
CONTINUOUS
10
2.9074384251968501
20
3.7265228740157479
11
2.9151318897637797
21
3.7161887795275588
0
LINE
8
BLACK
6
CONTINUOUS
10
2.9151318897637797
20
3.7161887795275588
11
2.9239730314960628
21
3.7068177165354328
0
LINE
8
BLACK
6
CONTINUOUS
10
2.9239730314960628
20
3.7068177165354328
11
2.9338423228346455
21
3.6985364173228348
0
LINE
8
BLACK
6
CONTINUOUS
10
2.9338423228346455
20
3.6985364173228348
11
2.9446062598425198
21
3.6914568503937009
0
LINE
8
BLACK
6
CONTINUOUS
10
2.9446062598425198
20
3.6914568503937009
11
2.9561193307086615
21
3.6856747637795273
0
LINE
8
BLACK
6
CONTINUOUS
10
2.9561193307086615
20
3.6856747637795273
11
2.9682257874015749
21
3.6812683858267716
0
LINE
8
BLACK
6
CONTINUOUS
10
2.9682257874015749
20
3.6812683858267716
11
2.9807619685039368
21
3.6782972440944879
0
LINE
8
BLACK
6
CONTINUOUS
10
2.9807619685039368
20
3.6782972440944879
11
2.9935582677165353
21
3.6768015748031497
0
LINE
8
BLACK
6
CONTINUOUS
10
2.9935582677165353
20
3.6768015748031497
11
3.0064417322834647
21
3.6768015748031497
0
LINE
8
BLACK
6
CONTINUOUS
10
3.0064417322834647
20
3.6768015748031497
11
3.0192380314960627
21
3.6782972440944879
0
LINE
8
BLACK
6
CONTINUOUS
10
3.0192380314960627
20
3.6782972440944879
11
3.0317742125984251
21
3.6812683858267716
0
LINE
8
BLACK
6
CONTINUOUS
10
3.0317742125984251
20
3.6812683858267716
11
3.0438806692913385
21
3.6856747637795273
0
LINE
8
BLACK
6
CONTINUOUS
10
3.0438806692913385
20
3.6856747637795273
11
3.0553937401574802
21
3.6914568503937009
0
LINE
8
BLACK
6
CONTINUOUS
10
3.0553937401574802
20
3.6914568503937009
11
3.0661576771653545
21
3.6985364173228348
0
LINE
8
BLACK
6
CONTINUOUS
10
3.0661576771653545
20
3.6985364173228348
11
3.0760269685039368
21
3.7068177165354328
0
LINE
8
BLACK
6
CONTINUOUS
10
3.0760269685039368
20
3.7068177165354328
11
3.0848681102362203
21
3.7161887795275588
0
LINE
8
BLACK
6
CONTINUOUS
10
3.0848681102362203
20
3.7161887795275588
11
3.0925615748031494
21
3.7265228740157479
0
LINE
8
BLACK
6
CONTINUOUS
10
3.0925615748031494
20
3.7265228740157479
11
3.0990032677165353
21
3.7376802755905509
0
LINE
8
BLACK
6
CONTINUOUS
10
3.0990032677165353
20
3.7376802755905509
11
3.1041061417322835
21
3.7495100393700787
0
LINE
8
BLACK
6
CONTINUOUS
10
3.1041061417322835
20
3.7495100393700787
11
3.1078011417322835
21
3.7618522440944879
0
LINE
8
BLACK
6
CONTINUOUS
10
3.1078011417322835
20
3.7618522440944879
11
3.110038346456693
21
3.7745399212598425
0
LINE
8
BLACK
6
CONTINUOUS
10
3.110038346456693
20
3.7745399212598425
11
3.1107874409448817
21
3.7874015748031495
0
LINE
8
BLACK
6
CONTINUOUS
10
3.1107874409448817
20
3.7874015748031495
11
3.110038346456693
21
3.8002632283464566
0
LINE
8
BLACK
6
CONTINUOUS
10
3.110038346456693
20
3.8002632283464566
11
3.1078011417322835
21
3.8129509055118112
0
LINE
8
BLACK
6
CONTINUOUS
10
3.1078011417322835
20
3.8129509055118112
11
3.1041061417322835
21
3.8252931102362204
0
LINE
8
BLACK
6
CONTINUOUS
10
3.1041061417322835
20
3.8252931102362204
11
3.0990032677165353
21
3.8371228740157481
0
LINE
8
BLACK
6
CONTINUOUS
10
3.0990032677165353
20
3.8371228740157481
11
3.0925615748031494
21
3.8482802755905512
0
LINE
8
BLACK
6
CONTINUOUS
10
3.0925615748031494
20
3.8482802755905512
11
3.0848681102362203
21
3.8586143700787399
0
LINE
8
BLACK
6
CONTINUOUS
10
3.0848681102362203
20
3.8586143700787399
11
3.0760269685039368
21
3.8679854330708658
0
LINE
8
BLACK
6
CONTINUOUS
10
3.0760269685039368
20
3.8679854330708658
11
3.0661576771653545
21
3.8762667322834643
0
LINE
8
BLACK
6
CONTINUOUS
10
3.0661576771653545
20
3.8762667322834643
11
3.0553937401574802
21
3.8833462992125982
0
LINE
8
BLACK
6
CONTINUOUS
10
3.0553937401574802
20
3.8833462992125982
11
3.0438806692913385
21
3.8891283858267718
0
LINE
8
BLACK
6
CONTINUOUS
10
3.0438806692913385
20
3.8891283858267718
11
3.0317742125984251
21
3.8935347637795275
0
LINE
8
BLACK
6
CONTINUOUS
10
3.0317742125984251
20
3.8935347637795275
11
3.0192380314960627
21
3.8965059055118108
0
LINE
8
BLACK
6
CONTINUOUS
10
3.0192380314960627
20
3.8965059055118108
11
3.0064417322834647
21
3.8980015748031493
0
LINE
8
BLACK
6
CONTINUOUS
10
3.0064417322834647
20
3.8980015748031493
11
2.9935582677165353
21
3.8980015748031493
0
LINE
8
BLACK
6
CONTINUOUS
10
2.9935582677165353
20
3.8980015748031493
11
2.9807619685039368
21
3.8965059055118108
0
LINE
8
BLACK
6
CONTINUOUS
10
2.9807619685039368
20
3.8965059055118108
11
2.9682257874015749
21
3.8935347637795275
0
LINE
8
BLACK
6
CONTINUOUS
10
2.9682257874015749
20
3.8935347637795275
11
2.9561193307086615
21
3.8891283858267718
0
LINE
8
BLACK
6
CONTINUOUS
10
2.9561193307086615
20
3.8891283858267718
11
2.9446062598425198
21
3.8833462992125982
0
LINE
8
BLACK
6
CONTINUOUS
10
2.9446062598425198
20
3.8833462992125982
11
2.9338423228346455
21
3.8762667322834643
0
LINE
8
BLACK
6
CONTINUOUS
10
2.9338423228346455
20
3.8762667322834643
11
2.9239730314960628
21
3.8679854330708658
0
LINE
8
BLACK
6
CONTINUOUS
10
2.9239730314960628
20
3.8679854330708658
11
2.9151318897637797
21
3.8586143700787399
0
LINE
8
BLACK
6
CONTINUOUS
10
2.9151318897637797
20
3.8586143700787399
11
2.9074384251968501
21
3.8482802755905512
0
LINE
8
BLACK
6
CONTINUOUS
10
2.9074384251968501
20
3.8482802755905512
11
2.9009967322834647
21
3.8371228740157481
0
LINE
8
BLACK
6
CONTINUOUS
10
2.9009967322834647
20
3.8371228740157481
11
2.8958938582677165
21
3.8252931102362204
0
LINE
8
BLACK
6
CONTINUOUS
10
2.8958938582677165
20
3.8252931102362204
11
2.8921988582677165
21
3.8129509055118112
0
LINE
8
BLACK
6
CONTINUOUS
10
2.8921988582677165
20
3.8129509055118112
11
2.889961653543307
21
3.8002632283464566
0
LINE
8
BLACK
6
CONTINUOUS
10
2.889961653543307
20
3.8002632283464566
11
2.8892125590551179
21
3.7874015748031495
0
LINE
8
BLACK
6
CONTINUOUS
10
2.8892125590551179
20
3.7874015748031495
11
2.889961653543307
21
3.7745399212598425
0
CIRCLE
8
BLACK
10
2.1749999999999998
20
3.6499999999999999
40
0.0068897637795276
0
CIRCLE
8
BLACK
10
2.1749999999999998
20
3.75
40
0.0068897637795276
0
CIRCLE
8
BLACK
10
2.1257874015748031
20
2.7999999999999998
40
0.0068897637795276
0
CIRCLE
8
BLACK
10
0.7242125984251968
20
2.7999999999999998
40
0.0068897637795276
0
CIRCLE
8
BLACK
10
2.7537401574803151
20
2.7999999999999998
40
0.0068897637795276
0
CIRCLE
8
BLACK
10
0.096259842519685
20
2.7999999999999998
40
0.0068897637795276
0
CIRCLE
8
BLACK
10
1.9749999999999999
20
3.6499999999999999
40
0.0068897637795276
0
CIRCLE
8
BLACK
10
1.9749999999999999
20
3.75
40
0.0068897637795276
0
CIRCLE
8
BLACK
10
3.
20
1.825
40
0.0068897637795276
0
CIRCLE
8
BLACK
10
2.8999999999999999
20
1.825
40
0.0068897637795276
0
CIRCLE
8
BLACK
10
1.875
20
3.6499999999999999
40
0.0068897637795276
0
CIRCLE
8
BLACK
10
1.875
20
3.75
40
0.0068897637795276
0
CIRCLE
8
BLACK
10
2.8999999999999999
20
2.2749999999999999
40
0.0068897637795276
0
CIRCLE
8
BLACK
10
3.
20
2.2749999999999999
40
0.0068897637795276
0
CIRCLE
8
BLACK
10
2.8999999999999999
20
2.5749999999999997
40
0.0068897637795276
0
CIRCLE
8
BLACK
10
3.
20
2.5749999999999997
40
0.0068897637795276
0
CIRCLE
8
BLACK
10
2.8999999999999999
20
2.375
40
0.0068897637795276
0
CIRCLE
8
BLACK
10
3.
20
2.375
40
0.0068897637795276
0
CIRCLE
8
BLACK
10
2.8999999999999999
20
2.4750000000000001
40
0.0068897637795276
0
CIRCLE
8
BLACK
10
3.
20
2.4750000000000001
40
0.0068897637795276
0
CIRCLE
8
BLACK
10
3.
20
1.7249999999999999
40
0.0068897637795276
0
CIRCLE
8
BLACK
10
2.8999999999999999
20
1.7249999999999999
40
0.0068897637795276
0
CIRCLE
8
BLACK
10
3.
20
2.0249999999999999
40
0.0068897637795276
0
CIRCLE
8
BLACK
10
2.8999999999999999
20
2.0249999999999999
40
0.0068897637795276
0
CIRCLE
8
BLACK
10
3.
20
2.125
40
0.0068897637795276
0
CIRCLE
8
BLACK
10
2.8999999999999999
20
2.125
40
0.0068897637795276
0
CIRCLE
8
BLACK
10
2.8999999999999999
20
0.85
40
0.0068897637795276
0
CIRCLE
8
BLACK
10
2.8999999999999999
20
0.95
40
0.0068897637795276
0
CIRCLE
8
BLACK
10
3.
20
0.85
40
0.0068897637795276
0
CIRCLE
8
BLACK
10
3.
20
0.95
40
0.0068897637795276
0
CIRCLE
8
BLACK
10
3.1000000000000001
20
0.85
40
0.0068897637795276
0
CIRCLE
8
BLACK
10
3.1000000000000001
20
0.95
40
0.0068897637795276
0
CIRCLE
8
BLACK
10
3.
20
3.1999999999999997
40
0.0068897637795276
0
CIRCLE
8
BLACK
10
2.8999999999999999
20
3.1999999999999997
40
0.0068897637795276
0
CIRCLE
8
BLACK
10
1.575
20
3.6499999999999999
40
0.0068897637795276
0
CIRCLE
8
BLACK
10
1.575
20
3.75
40
0.0068897637795276
0
CIRCLE
8
BLACK
10
3.
20
1.1499999999999999
40
0.0068897637795276
0
CIRCLE
8
BLACK
10
2.8999999999999999
20
1.1499999999999999
40
0.0068897637795276
0
CIRCLE
8
BLACK
10
3.
20
1.25
40
0.0068897637795276
0
CIRCLE
8
BLACK
10
2.8999999999999999
20
1.25
40
0.0068897637795276
0
CIRCLE
8
BLACK
10
3.
20
1.3499999999999999
40
0.0068897637795276
0
CIRCLE
8
BLACK
10
2.8999999999999999
20
1.3499999999999999
40
0.0068897637795276
0
CIRCLE
8
BLACK
10
0.775
20
0.35
40
0.0068897637795276
0
CIRCLE
8
BLACK
10
0.775
20
0.25
40
0.0068897637795276
0
CIRCLE
8
BLACK
10
2.8999999999999999
20
1.4749999999999999
40
0.0068897637795276
0
CIRCLE
8
BLACK
10
3.
20
1.4749999999999999
40
0.0068897637795276
0
CIRCLE
8
BLACK
10
1.7749999999999999
20
3.6499999999999999
40
0.0068897637795276
0
CIRCLE
8
BLACK
10
1.7749999999999999
20
3.75
40
0.0068897637795276
0
CIRCLE
8
BLACK
10
2.0749999999999997
20
3.6499999999999999
40
0.0068897637795276
0
CIRCLE
8
BLACK
10
2.0749999999999997
20
3.75
40
0.0068897637795276
0
CIRCLE
8
BLACK
10
2.5749999999999997
20
3.6499999999999999
40
0.0068897637795276
0
CIRCLE
8
BLACK
10
2.5749999999999997
20
3.75
40
0.0068897637795276
0
CIRCLE
8
BLACK
10
2.6749999999999998
20
3.6499999999999999
40
0.0068897637795276
0
CIRCLE
8
BLACK
10
2.6749999999999998
20
3.75
40
0.0068897637795276
0
CIRCLE
8
BLACK
10
2.4750000000000001
20
3.6499999999999999
40
0.0068897637795276
0
CIRCLE
8
BLACK
10
2.4750000000000001
20
3.75
40
0.0068897637795276
0
CIRCLE
8
BLACK
10
2.8999999999999999
20
1.575
40
0.0068897637795276
0
CIRCLE
8
BLACK
10
3.
20
1.575
40
0.0068897637795276
0
CIRCLE
8
BLACK
10
3.
20
3.3500000000000001
40
0.0068897637795276
0
CIRCLE
8
BLACK
10
2.8999999999999999
20
3.3500000000000001
40
0.0068897637795276
0
CIRCLE
8
BLACK
10
3.
20
3.4499999999999997
40
0.0068897637795276
0
CIRCLE
8
BLACK
10
2.8999999999999999
20
3.4499999999999997
40
0.0068897637795276
0
CIRCLE
8
BLACK
10
3.
20
3.5499999999999998
40
0.0068897637795276
0
CIRCLE
8
BLACK
10
2.8999999999999999
20
3.5499999999999998
40
0.0068897637795276
0
CIRCLE
8
BLACK
10
0.2
20
3.7999999999999998
40
0.0068897637795276
0
CIRCLE
8
BLACK
10
0.2
20
0.2
40
0.0068897637795276
0
CIRCLE
8
BLACK
10
3.
20
3.7874015748031495
40
0.0068897637795276
0
CIRCLE
8
BLACK
10
3.
20
0.65
40
0.0068897637795276
0
CIRCLE
8
BLACK
10
3.
20
0.75
40
0.0068897637795276
0
CIRCLE
8
BLACK
10
2.8999999999999999
20
0.45
40
0.0068897637795276
0
CIRCLE
8
BLACK
10
2.8999999999999999
20
0.5499999999999999
40
0.0068897637795276
0
CIRCLE
8
BLACK
10
3.
20
0.45
40
0.0068897637795276
0
CIRCLE
8
BLACK
10
3.
20
0.5499999999999999
40
0.0068897637795276
0
CIRCLE
8
BLACK
10
3.1000000000000001
20
0.45
40
0.0068897637795276
0
CIRCLE
8
BLACK
10
3.1000000000000001
20
0.5499999999999999
40
0.0068897637795276
0
CIRCLE
8
BLACK
10
2.1257874015748031
20
1.3
40
0.0068897637795276
0
CIRCLE
8
BLACK
10
0.7242125984251968
20
1.3
40
0.0068897637795276
0
CIRCLE
8
BLACK
10
2.7537401574803151
20
1.3
40
0.0068897637795276
0
CIRCLE
8
BLACK
10
0.096259842519685
20
1.3
40
0.0068897637795276
0
CIRCLE
8
BLACK
10
0.475
20
0.2
40
0.0068897637795276
0
CIRCLE
8
BLACK
10
0.575
20
0.2
40
0.0068897637795276
0
CIRCLE
8
BLACK
10
3.
20
1.925
40
0.0068897637795276
0
CIRCLE
8
BLACK
10
2.8999999999999999
20
1.925
40
0.0068897637795276
0
CIRCLE
8
BLACK
10
2.9499999999999997
20
2.9960999999999998
40
0.0068897637795276
0
CIRCLE
8
BLACK
10
2.9499999999999997
20
2.8039000000000001
40
0.0068897637795276
0
CIRCLE
8
BLACK
10
0.5
20
3.6499999999999999
40
0.0068897637795276
0
CIRCLE
8
BLACK
10
0.5
20
3.75
40
0.0068897637795276
0
CIRCLE
8
BLACK
10
0.9
20
3.6499999999999999
40
0.0068897637795276
0
CIRCLE
8
BLACK
10
0.9
20
3.75
40
0.0068897637795276
0
CIRCLE
8
BLACK
10
0.7999999999999999
20
3.6499999999999999
40
0.0068897637795276
0
CIRCLE
8
BLACK
10
0.7999999999999999
20
3.75
40
0.0068897637795276
0
CIRCLE
8
BLACK
10
0.7
20
3.6499999999999999
40
0.0068897637795276
0
CIRCLE
8
BLACK
10
0.7
20
3.75
40
0.0068897637795276
0
CIRCLE
8
BLACK
10
0.6
20
3.6499999999999999
40
0.0068897637795276
0
CIRCLE
8
BLACK
10
0.6
20
3.75
40
0.0068897637795276
0
CIRCLE
8
BLACK
10
2.2899606299212598
20
0.4651968503937008
40
0.0068897637795276
0
CIRCLE
8
BLACK
10
2.4750000000000001
20
0.4651968503937008
40
0.0068897637795276
0
CIRCLE
8
BLACK
10
2.6600393700787399
20
0.4651968503937008
40
0.0068897637795276
0
CIRCLE
8
BLACK
10
2.2149606299212596
20
0.09
40
0.0068897637795276
0
CIRCLE
8
BLACK
10
2.7350393700787401
20
0.09
40
0.0068897637795276
0
CIRCLE
8
BLACK
10
1.9027559055118111
20
1.3612204724409449
40
0.0068897637795276
0
CIRCLE
8
BLACK
10
1.0759842519685039
20
1.3612204724409449
40
0.0068897637795276
0
CIRCLE
8
BLACK
10
2.5749999999999997
20
1.3946850393700787
40
0.0049212598425197
0
CIRCLE
8
BLACK
10
2.5749999999999997
20
1.3553149606299213
40
0.0049212598425197
0
CIRCLE
8
BLACK
10
1.9027559055118111
20
0.9112204724409448
40
0.0068897637795276
0
CIRCLE
8
BLACK
10
1.0759842519685039
20
0.9112204724409448
40
0.0068897637795276
  0
ENDSEC
  0
EOF
