  0
SECTION
  2
HEADER
  9
$ANGBASE
  50
0.0
  9
$ANGDIR
  70
1
  9
$MEASUREMENT
  70
0
  0
ENDSEC
  0
SECTION
  2
TABLES
  0
TABLE
  2
LTYPE
  70
4
  0
LTYPE
  5
40F
  2
CONTINUOUS
  70
0
  3
Solid line
  72
65
  73
0
  40
0.0
  0
LTYPE
  5
410
  2
DASHDOT
 70
0
  3
Dash Dot ____ _ ____ _
 72
65
 73
4
 40
2.0
 49
1.25
 49
-0.25
 49
0.25
 49
-0.25
  0
LTYPE
  5
411
  2
DASHED
 70
0
  3
Dashed __ __ __ __ __
 72
65
 73
2
 40
0.75
 49
0.5
 49
-0.25
  0
LTYPE
  5
43B
  2
DOTTED
 70
0
  3
Dotted .  .  .  .
 72
65
 73
2
 40
0.2
 49
0.0
 49
-0.2
  0
ENDTAB
  0
TABLE
  2
STYLE
  70
4
  0
STYLE
  2
KICAD
  70
0
  40
0
  41
1
  42
1
  50
0
  71
0
  3
isocp.shx
  0
STYLE
  2
KICADB
  70
0
  40
0
  41
1
  42
1
  50
0
  71
0
  3
isocp.shx
  0
STYLE
  2
KICADI
  70
0
  40
0
  41
1
  42
1
  50
15
  71
0
  3
isocp.shx
  0
STYLE
  2
KICADBI
  70
0
  40
0
  41
1
  42
1
  50
15
  71
0
  3
isocp.shx
  0
ENDTAB
  0
TABLE
  2
LAYER
  70
1
  0
LAYER
  2
BLACK
  70
0
  62
7
  6
CONTINUOUS
  0
ENDTAB
  0
ENDSEC
  0
SECTION
  2
ENTITIES
0
LINE
8
BLACK
6
CONTINUOUS
10
1.6806299212598426
20
2.3153543307086615
11
1.6845838976377951
21
2.3147280708661415
0
LINE
8
BLACK
6
CONTINUOUS
10
1.6845838976377951
20
2.3147280708661415
11
1.6881507874015749
21
2.3129106692913384
0
LINE
8
BLACK
6
CONTINUOUS
10
1.6881507874015749
20
2.3129106692913384
11
1.6909815354330708
21
2.3100799212598426
0
LINE
8
BLACK
6
CONTINUOUS
10
1.6909815354330708
20
2.3100799212598426
11
1.692798937007874
21
2.3065130314960629
0
LINE
8
BLACK
6
CONTINUOUS
10
1.692798937007874
20
2.3065130314960629
11
1.6934251968503937
21
2.3025590551181101
0
LINE
8
BLACK
6
CONTINUOUS
10
1.6934251968503937
20
2.3025590551181101
11
1.6934251968503937
21
2.2474409448818897
0
LINE
8
BLACK
6
CONTINUOUS
10
1.6934251968503937
20
2.2474409448818897
11
1.692798937007874
21
2.2434869685039369
0
LINE
8
BLACK
6
CONTINUOUS
10
1.692798937007874
20
2.2434869685039369
11
1.6909815354330708
21
2.2399200787401576
0
LINE
8
BLACK
6
CONTINUOUS
10
1.6909815354330708
20
2.2399200787401576
11
1.6881507874015749
21
2.2370893307086614
0
LINE
8
BLACK
6
CONTINUOUS
10
1.6881507874015749
20
2.2370893307086614
11
1.6845838976377951
21
2.2352719291338583
0
LINE
8
BLACK
6
CONTINUOUS
10
1.6845838976377951
20
2.2352719291338583
11
1.6806299212598426
21
2.2346456692913383
0
LINE
8
BLACK
6
CONTINUOUS
10
1.6806299212598426
20
2.2346456692913383
11
1.6176377952755905
21
2.2346456692913383
0
LINE
8
BLACK
6
CONTINUOUS
10
1.6176377952755905
20
2.2346456692913383
11
1.6136838188976377
21
2.2352719291338583
0
LINE
8
BLACK
6
CONTINUOUS
10
1.6136838188976377
20
2.2352719291338583
11
1.6101169291338582
21
2.2370893307086614
0
LINE
8
BLACK
6
CONTINUOUS
10
1.6101169291338582
20
2.2370893307086614
11
1.6072861811023622
21
2.2399200787401576
0
LINE
8
BLACK
6
CONTINUOUS
10
1.6072861811023622
20
2.2399200787401576
11
1.6054687795275591
21
2.2434869685039369
0
LINE
8
BLACK
6
CONTINUOUS
10
1.6054687795275591
20
2.2434869685039369
11
1.6048425196850393
21
2.2474409448818897
0
LINE
8
BLACK
6
CONTINUOUS
10
1.6048425196850393
20
2.2474409448818897
11
1.6048425196850393
21
2.3025590551181101
0
LINE
8
BLACK
6
CONTINUOUS
10
1.6048425196850393
20
2.3025590551181101
11
1.6054687795275591
21
2.3065130314960629
0
LINE
8
BLACK
6
CONTINUOUS
10
1.6054687795275591
20
2.3065130314960629
11
1.6072861811023622
21
2.3100799212598426
0
LINE
8
BLACK
6
CONTINUOUS
10
1.6072861811023622
20
2.3100799212598426
11
1.6101169291338582
21
2.3129106692913384
0
LINE
8
BLACK
6
CONTINUOUS
10
1.6101169291338582
20
2.3129106692913384
11
1.6136838188976377
21
2.3147280708661415
0
LINE
8
BLACK
6
CONTINUOUS
10
1.6136838188976377
20
2.3147280708661415
11
1.6176377952755905
21
2.3153543307086615
0
LINE
8
BLACK
6
CONTINUOUS
10
1.6176377952755905
20
2.3153543307086615
11
1.6806299212598426
21
2.3153543307086615
0
LINE
8
BLACK
6
CONTINUOUS
10
1.6176377952755905
20
2.3133858267716536
11
1.6159229921259841
21
2.3133858267716536
0
LINE
8
BLACK
6
CONTINUOUS
10
1.6159229921259841
20
2.3133858267716536
11
1.6126612598425196
21
2.3123260236220471
0
LINE
8
BLACK
6
CONTINUOUS
10
1.6126612598425196
20
2.3123260236220471
11
1.6098866929133857
21
2.3103101574803149
0
LINE
8
BLACK
6
CONTINUOUS
10
1.6098866929133857
20
2.3103101574803149
11
1.6078708267716535
21
2.307535590551181
0
LINE
8
BLACK
6
CONTINUOUS
10
1.6078708267716535
20
2.307535590551181
11
1.6068110236220472
21
2.3042738582677167
0
LINE
8
BLACK
6
CONTINUOUS
10
1.6068110236220472
20
2.3042738582677167
11
1.6068110236220472
21
2.3025590551181101
0
LINE
8
BLACK
6
CONTINUOUS
10
1.6068110236220472
20
2.3025590551181101
11
1.6068110236220472
21
2.2474409448818897
0
LINE
8
BLACK
6
CONTINUOUS
10
1.6068110236220472
20
2.2474409448818897
11
1.6068110236220472
21
2.2457261417322836
0
LINE
8
BLACK
6
CONTINUOUS
10
1.6068110236220472
20
2.2457261417322836
11
1.6078708267716535
21
2.2424644094488189
0
LINE
8
BLACK
6
CONTINUOUS
10
1.6078708267716535
20
2.2424644094488189
11
1.6098866929133857
21
2.2396898425196849
0
LINE
8
BLACK
6
CONTINUOUS
10
1.6098866929133857
20
2.2396898425196849
11
1.6126612598425196
21
2.2376739763779527
0
LINE
8
BLACK
6
CONTINUOUS
10
1.6126612598425196
20
2.2376739763779527
11
1.6159229921259841
21
2.2366141732283462
0
LINE
8
BLACK
6
CONTINUOUS
10
1.6159229921259841
20
2.2366141732283462
11
1.6176377952755905
21
2.2366141732283462
0
LINE
8
BLACK
6
CONTINUOUS
10
1.6176377952755905
20
2.2366141732283462
11
1.6806299212598426
21
2.2366141732283462
0
LINE
8
BLACK
6
CONTINUOUS
10
1.6806299212598426
20
2.2366141732283462
11
1.6823447244094487
21
2.2366141732283462
0
LINE
8
BLACK
6
CONTINUOUS
10
1.6823447244094487
20
2.2366141732283462
11
1.6856064566929134
21
2.2376739763779527
0
LINE
8
BLACK
6
CONTINUOUS
10
1.6856064566929134
20
2.2376739763779527
11
1.6883810236220471
21
2.2396898425196849
0
LINE
8
BLACK
6
CONTINUOUS
10
1.6883810236220471
20
2.2396898425196849
11
1.6903968897637796
21
2.2424644094488189
0
LINE
8
BLACK
6
CONTINUOUS
10
1.6903968897637796
20
2.2424644094488189
11
1.6914566929133859
21
2.2457261417322836
0
LINE
8
BLACK
6
CONTINUOUS
10
1.6914566929133859
20
2.2457261417322836
11
1.6914566929133859
21
2.2474409448818897
0
LINE
8
BLACK
6
CONTINUOUS
10
1.6914566929133859
20
2.2474409448818897
11
1.6914566929133859
21
2.3025590551181101
0
LINE
8
BLACK
6
CONTINUOUS
10
1.6914566929133859
20
2.3025590551181101
11
1.6914566929133859
21
2.3042738582677167
0
LINE
8
BLACK
6
CONTINUOUS
10
1.6914566929133859
20
2.3042738582677167
11
1.6903968897637796
21
2.307535590551181
0
LINE
8
BLACK
6
CONTINUOUS
10
1.6903968897637796
20
2.307535590551181
11
1.6883810236220471
21
2.3103101574803149
0
LINE
8
BLACK
6
CONTINUOUS
10
1.6883810236220471
20
2.3103101574803149
11
1.6856064566929134
21
2.3123260236220471
0
LINE
8
BLACK
6
CONTINUOUS
10
1.6856064566929134
20
2.3123260236220471
11
1.6823447244094487
21
2.3133858267716536
0
LINE
8
BLACK
6
CONTINUOUS
10
1.6823447244094487
20
2.3133858267716536
11
1.6806299212598426
21
2.3133858267716536
0
LINE
8
BLACK
6
CONTINUOUS
10
1.6806299212598426
20
2.3133858267716536
11
1.6176377952755905
21
2.3133858267716536
0
LINE
8
BLACK
6
CONTINUOUS
10
1.
20
2.8159842519685037
11
1.3999999999999999
21
2.8159842519685037
0
LINE
8
BLACK
6
CONTINUOUS
10
1.3999999999999999
20
2.8159842519685037
11
1.8
21
2.8159842519685037
0
LINE
8
BLACK
6
CONTINUOUS
10
1.8
20
2.8159842519685037
11
1.800376653543307
21
2.8159093307086613
0
LINE
8
BLACK
6
CONTINUOUS
10
1.800376653543307
20
2.8159093307086613
11
1.8009093307086614
21
2.8153766535433071
0
LINE
8
BLACK
6
CONTINUOUS
10
1.8009093307086614
20
2.8153766535433071
11
1.800984251968504
21
2.8149999999999999
0
LINE
8
BLACK
6
CONTINUOUS
10
1.800984251968504
20
2.8149999999999999
11
1.800984251968504
21
0.835
0
LINE
8
BLACK
6
CONTINUOUS
10
1.800984251968504
20
0.835
11
1.800984251968504
21
0.435
0
LINE
8
BLACK
6
CONTINUOUS
10
1.800984251968504
20
0.435
11
1.8009093307086614
21
0.4346233464566929
0
LINE
8
BLACK
6
CONTINUOUS
10
1.8009093307086614
20
0.4346233464566929
11
1.800376653543307
21
0.4340906692913385
0
LINE
8
BLACK
6
CONTINUOUS
10
1.800376653543307
20
0.4340906692913385
11
1.8
21
0.4340157480314961
0
LINE
8
BLACK
6
CONTINUOUS
10
1.8
20
0.4340157480314961
11
-2.1800000000000002
21
0.4340157480314961
0
LINE
8
BLACK
6
CONTINUOUS
10
-2.1800000000000002
20
0.4340157480314961
11
-2.1803766535433069
21
0.4340906692913385
0
LINE
8
BLACK
6
CONTINUOUS
10
-2.1803766535433069
20
0.4340906692913385
11
-2.1809093307086616
21
0.4346233464566929
0
LINE
8
BLACK
6
CONTINUOUS
10
-2.1809093307086616
20
0.4346233464566929
11
-2.1809842519685039
21
0.435
0
LINE
8
BLACK
6
CONTINUOUS
10
-2.1809842519685039
20
0.435
11
-2.1809842519685039
21
0.445
0
LINE
8
BLACK
6
CONTINUOUS
10
-2.1809842519685039
20
0.445
11
-2.1809842519685039
21
0.835
0
LINE
8
BLACK
6
CONTINUOUS
10
-2.1809842519685039
20
0.835
11
-2.1809842519685039
21
2.8149999999999999
0
LINE
8
BLACK
6
CONTINUOUS
10
-2.1809842519685039
20
2.8149999999999999
11
-2.1809093307086616
21
2.8153766535433071
0
LINE
8
BLACK
6
CONTINUOUS
10
-2.1809093307086616
20
2.8153766535433071
11
-2.1803766535433069
21
2.8159093307086613
0
LINE
8
BLACK
6
CONTINUOUS
10
-2.1803766535433069
20
2.8159093307086613
11
-2.1800000000000002
21
2.8159842519685037
0
LINE
8
BLACK
6
CONTINUOUS
10
-2.1800000000000002
20
2.8159842519685037
11
1.
21
2.8159842519685037
0
LINE
8
BLACK
6
CONTINUOUS
10
-2.179015748031496
20
2.8140157480314958
11
-2.179015748031496
21
0.835
0
LINE
8
BLACK
6
CONTINUOUS
10
-2.179015748031496
20
0.835
11
-2.179015748031496
21
0.445
0
LINE
8
BLACK
6
CONTINUOUS
10
-2.179015748031496
20
0.445
11
-2.179015748031496
21
0.4359842519685039
0
LINE
8
BLACK
6
CONTINUOUS
10
-2.179015748031496
20
0.4359842519685039
11
1.7990157480314961
21
0.4359842519685039
0
LINE
8
BLACK
6
CONTINUOUS
10
1.7990157480314961
20
0.4359842519685039
11
1.7990157480314961
21
0.835
0
LINE
8
BLACK
6
CONTINUOUS
10
1.7990157480314961
20
0.835
11
1.7990157480314961
21
2.8140157480314958
0
LINE
8
BLACK
6
CONTINUOUS
10
1.7990157480314961
20
2.8140157480314958
11
1.3999999999999999
21
2.8140157480314958
0
LINE
8
BLACK
6
CONTINUOUS
10
1.3999999999999999
20
2.8140157480314958
11
1.
21
2.8140157480314958
0
LINE
8
BLACK
6
CONTINUOUS
10
1.
20
2.8140157480314958
11
-2.179015748031496
21
2.8140157480314958
0
CIRCLE
8
BLACK
10
1.1499999999999999
20
0.535
40
0.0068897637795276
0
CIRCLE
8
BLACK
10
1.25
20
0.535
40
0.0068897637795276
0
CIRCLE
8
BLACK
10
1.3499999999999999
20
0.535
40
0.0068897637795276
0
CIRCLE
8
BLACK
10
1.7
20
1.9450000000000001
40
0.0068897637795276
0
CIRCLE
8
BLACK
10
1.5999999999999999
20
1.9450000000000001
40
0.0068897637795276
0
CIRCLE
8
BLACK
10
1.7
20
2.0449999999999999
40
0.0068897637795276
0
CIRCLE
8
BLACK
10
1.5999999999999999
20
2.0449999999999999
40
0.0068897637795276
0
CIRCLE
8
BLACK
10
1.7
20
2.145
40
0.0068897637795276
0
CIRCLE
8
BLACK
10
1.5999999999999999
20
2.145
40
0.0068897637795276
0
CIRCLE
8
BLACK
10
-0.24
20
0.635
40
0.0068897637795276
0
CIRCLE
8
BLACK
10
-0.24
20
0.535
40
0.0068897637795276
0
CIRCLE
8
BLACK
10
-0.34
20
0.635
40
0.0068897637795276
0
CIRCLE
8
BLACK
10
-0.34
20
0.535
40
0.0068897637795276
0
CIRCLE
8
BLACK
10
-0.44
20
0.635
40
0.0068897637795276
0
CIRCLE
8
BLACK
10
-0.44
20
0.535
40
0.0068897637795276
0
CIRCLE
8
BLACK
10
-0.54
20
0.635
40
0.0068897637795276
0
CIRCLE
8
BLACK
10
-0.54
20
0.535
40
0.0068897637795276
0
CIRCLE
8
BLACK
10
-0.64
20
0.635
40
0.0068897637795276
0
CIRCLE
8
BLACK
10
-0.64
20
0.535
40
0.0068897637795276
0
CIRCLE
8
BLACK
10
-1.99
20
2.625
40
0.0068897637795276
0
CIRCLE
8
BLACK
10
1.6099999999999999
20
2.625
40
0.0068897637795276
0
CIRCLE
8
BLACK
10
0.82
20
0.535
40
0.0068897637795276
0
CIRCLE
8
BLACK
10
0.9199999999999999
20
0.535
40
0.0068897637795276
0
CIRCLE
8
BLACK
10
1.02
20
0.535
40
0.0068897637795276
0
CIRCLE
8
BLACK
10
-1.24
20
2.6149999999999998
40
0.0068897637795276
0
CIRCLE
8
BLACK
10
-1.24
20
2.7149999999999999
40
0.0068897637795276
0
CIRCLE
8
BLACK
10
-1.1399999999999999
20
2.6149999999999998
40
0.0068897637795276
0
CIRCLE
8
BLACK
10
-1.1399999999999999
20
2.7149999999999999
40
0.0068897637795276
0
CIRCLE
8
BLACK
10
-1.04
20
2.6149999999999998
40
0.0068897637795276
0
CIRCLE
8
BLACK
10
-1.04
20
2.7149999999999999
40
0.0068897637795276
0
CIRCLE
8
BLACK
10
-0.9399999999999999
20
2.6149999999999998
40
0.0068897637795276
0
CIRCLE
8
BLACK
10
-0.9399999999999999
20
2.7149999999999999
40
0.0068897637795276
0
CIRCLE
8
BLACK
10
-0.84
20
2.6149999999999998
40
0.0068897637795276
0
CIRCLE
8
BLACK
10
-0.84
20
2.7149999999999999
40
0.0068897637795276
0
CIRCLE
8
BLACK
10
-0.74
20
2.6149999999999998
40
0.0068897637795276
0
CIRCLE
8
BLACK
10
-0.74
20
2.7149999999999999
40
0.0068897637795276
0
CIRCLE
8
BLACK
10
-0.64
20
2.6149999999999998
40
0.0068897637795276
0
CIRCLE
8
BLACK
10
-0.64
20
2.7149999999999999
40
0.0068897637795276
0
CIRCLE
8
BLACK
10
-0.51
20
2.6149999999999998
40
0.0068897637795276
0
CIRCLE
8
BLACK
10
-0.51
20
2.7149999999999999
40
0.0068897637795276
0
CIRCLE
8
BLACK
10
-0.41
20
2.6149999999999998
40
0.0068897637795276
0
CIRCLE
8
BLACK
10
-0.41
20
2.7149999999999999
40
0.0068897637795276
0
CIRCLE
8
BLACK
10
-0.31
20
2.6149999999999998
40
0.0068897637795276
0
CIRCLE
8
BLACK
10
-0.31
20
2.7149999999999999
40
0.0068897637795276
0
CIRCLE
8
BLACK
10
-1.99
20
0.625
40
0.0068897637795276
0
CIRCLE
8
BLACK
10
-1.2793700787401574
20
1.8277559055118109
40
0.0068897637795276
0
CIRCLE
8
BLACK
10
-1.2793700787401574
20
1.0009842519685039
40
0.0068897637795276
0
CIRCLE
8
BLACK
10
-1.99
20
2.2050000000000001
40
0.0068897637795276
0
CIRCLE
8
BLACK
10
-2.0899999999999999
20
2.3050000000000002
40
0.0068897637795276
0
CIRCLE
8
BLACK
10
-2.0899999999999999
20
2.105
40
0.0068897637795276
0
CIRCLE
8
BLACK
10
-1.8899999999999999
20
2.3050000000000002
40
0.0068897637795276
0
CIRCLE
8
BLACK
10
-1.8899999999999999
20
2.105
40
0.0068897637795276
0
CIRCLE
8
BLACK
10
0.9399999999999999
20
2.4049999999999998
40
0.0068897637795276
0
CIRCLE
8
BLACK
10
1.235275590551181
20
2.4049999999999998
40
0.0068897637795276
0
CIRCLE
8
BLACK
10
0.37
20
2.6149999999999998
40
0.0068897637795276
0
CIRCLE
8
BLACK
10
0.37
20
2.7149999999999999
40
0.0068897637795276
0
CIRCLE
8
BLACK
10
0.47
20
2.6149999999999998
40
0.0068897637795276
0
CIRCLE
8
BLACK
10
0.47
20
2.7149999999999999
40
0.0068897637795276
0
CIRCLE
8
BLACK
10
0.57
20
2.6149999999999998
40
0.0068897637795276
0
CIRCLE
8
BLACK
10
0.57
20
2.7149999999999999
40
0.0068897637795276
0
CIRCLE
8
BLACK
10
-1.0069291338582678
20
1.776496062992126
40
0.0068897637795276
0
CIRCLE
8
BLACK
10
-0.9069291338582677
20
1.776496062992126
40
0.0068897637795276
0
CIRCLE
8
BLACK
10
1.6099999999999999
20
0.625
40
0.0068897637795276
0
CIRCLE
8
BLACK
10
-1.47
20
2.6149999999999998
40
0.0068897637795276
0
CIRCLE
8
BLACK
10
-1.47
20
2.7149999999999999
40
0.0068897637795276
0
CIRCLE
8
BLACK
10
-1.3699999999999999
20
2.6149999999999998
40
0.0068897637795276
0
CIRCLE
8
BLACK
10
-1.3699999999999999
20
2.7149999999999999
40
0.0068897637795276
0
CIRCLE
8
BLACK
10
0.33
20
2.0049999999999999
40
0.0068897637795276
0
CIRCLE
8
BLACK
10
0.43
20
2.0049999999999999
40
0.0068897637795276
0
CIRCLE
8
BLACK
10
-1.1699999999999999
20
0.535
40
0.0068897637795276
0
CIRCLE
8
BLACK
10
-1.1699999999999999
20
0.635
40
0.0068897637795276
0
CIRCLE
8
BLACK
10
-1.0700000000000001
20
0.535
40
0.0068897637795276
0
CIRCLE
8
BLACK
10
-1.0700000000000001
20
0.635
40
0.0068897637795276
0
CIRCLE
8
BLACK
10
-0.97
20
0.535
40
0.0068897637795276
0
CIRCLE
8
BLACK
10
-0.97
20
0.635
40
0.0068897637795276
0
CIRCLE
8
BLACK
10
-0.87
20
0.535
40
0.0068897637795276
0
CIRCLE
8
BLACK
10
-0.87
20
0.635
40
0.0068897637795276
0
CIRCLE
8
BLACK
10
-0.77
20
0.535
40
0.0068897637795276
0
CIRCLE
8
BLACK
10
-0.77
20
0.635
40
0.0068897637795276
0
CIRCLE
8
BLACK
10
1.5999999999999999
20
1.7249999999999999
40
0.0068897637795276
0
CIRCLE
8
BLACK
10
1.7
20
1.7249999999999999
40
0.0068897637795276
0
CIRCLE
8
BLACK
10
1.5999999999999999
20
1.625
40
0.0068897637795276
0
CIRCLE
8
BLACK
10
1.7
20
1.625
40
0.0068897637795276
0
CIRCLE
8
BLACK
10
1.5999999999999999
20
1.5249999999999999
40
0.0068897637795276
0
CIRCLE
8
BLACK
10
1.7
20
1.5249999999999999
40
0.0068897637795276
0
CIRCLE
8
BLACK
10
1.1893700787401575
20
1.7790157480314961
40
0.0068897637795276
0
CIRCLE
8
BLACK
10
1.2393700787401574
20
1.7790157480314961
40
0.0068897637795276
0
CIRCLE
8
BLACK
10
1.2893700787401574
20
1.7790157480314961
40
0.0068897637795276
0
CIRCLE
8
BLACK
10
-0.9194488188976377
20
2.2426181102362204
40
0.0039370078740157
0
CIRCLE
8
BLACK
10
-0.9607874015748031
20
2.2426181102362204
40
0.0039370078740157
0
CIRCLE
8
BLACK
10
-1.0021259842519685
20
2.2426181102362204
40
0.0039370078740157
0
CIRCLE
8
BLACK
10
-0.9194488188976377
20
2.2012795275590551
40
0.0039370078740157
0
CIRCLE
8
BLACK
10
-0.9607874015748031
20
2.2012795275590551
40
0.0039370078740157
0
CIRCLE
8
BLACK
10
-1.0021259842519685
20
2.2012795275590551
40
0.0039370078740157
0
CIRCLE
8
BLACK
10
-0.9194488188976377
20
2.1599409448818898
40
0.0039370078740157
0
CIRCLE
8
BLACK
10
-0.9607874015748031
20
2.1599409448818898
40
0.0039370078740157
0
CIRCLE
8
BLACK
10
-1.0021259842519685
20
2.1599409448818898
40
0.0039370078740157
0
CIRCLE
8
BLACK
10
1.1893700787401575
20
1.4949999999999999
40
0.0068897637795276
0
CIRCLE
8
BLACK
10
1.2393700787401574
20
1.4949999999999999
40
0.0068897637795276
0
CIRCLE
8
BLACK
10
1.2893700787401574
20
1.4949999999999999
40
0.0068897637795276
0
CIRCLE
8
BLACK
10
-0.4301574803149606
20
2.3624015748031497
40
0.0049212598425197
0
CIRCLE
8
BLACK
10
-0.3907874015748031
20
2.3624015748031497
40
0.0049212598425197
  0
ENDSEC
  0
EOF
