  0
SECTION
  2
HEADER
  9
$ANGBASE
  50
0.0
  9
$ANGDIR
  70
1
  9
$MEASUREMENT
  70
0
  0
ENDSEC
  0
SECTION
  2
TABLES
  0
TABLE
  2
LTYPE
  70
4
  0
LTYPE
  5
40F
  2
CONTINUOUS
  70
0
  3
Solid line
  72
65
  73
0
  40
0.0
  0
LTYPE
  5
410
  2
DASHDOT
 70
0
  3
Dash Dot ____ _ ____ _
 72
65
 73
4
 40
2.0
 49
1.25
 49
-0.25
 49
0.25
 49
-0.25
  0
LTYPE
  5
411
  2
DASHED
 70
0
  3
Dashed __ __ __ __ __
 72
65
 73
2
 40
0.75
 49
0.5
 49
-0.25
  0
LTYPE
  5
43B
  2
DOTTED
 70
0
  3
Dotted .  .  .  .
 72
65
 73
2
 40
0.2
 49
0.0
 49
-0.2
  0
ENDTAB
  0
TABLE
  2
STYLE
  70
4
  0
STYLE
  2
KICAD
  70
0
  40
0
  41
1
  42
1
  50
0
  71
0
  3
isocp.shx
  0
STYLE
  2
KICADB
  70
0
  40
0
  41
1
  42
1
  50
0
  71
0
  3
isocp.shx
  0
STYLE
  2
KICADI
  70
0
  40
0
  41
1
  42
1
  50
15
  71
0
  3
isocp.shx
  0
STYLE
  2
KICADBI
  70
0
  40
0
  41
1
  42
1
  50
15
  71
0
  3
isocp.shx
  0
ENDTAB
  0
TABLE
  2
LAYER
  70
1
  0
LAYER
  2
BLACK
  70
0
  62
7
  6
CONTINUOUS
  0
ENDTAB
  0
ENDSEC
  0
SECTION
  2
ENTITIES
0
LINE
8
BLACK
6
CONTINUOUS
10
0.2108097244094488
20
0.7118935826771653
11
0.2113424015748031
21
0.711360905511811
0
LINE
8
BLACK
6
CONTINUOUS
10
0.2113424015748031
20
0.711360905511811
11
0.2114173228346457
21
0.7109842519685039
0
LINE
8
BLACK
6
CONTINUOUS
10
0.2114173228346457
20
0.7109842519685039
11
0.2114173228346457
21
0.459015748031496
0
LINE
8
BLACK
6
CONTINUOUS
10
0.2114173228346457
20
0.459015748031496
11
0.2113424015748031
21
0.458639094488189
0
LINE
8
BLACK
6
CONTINUOUS
10
0.2113424015748031
20
0.458639094488189
11
0.2108097244094488
21
0.4581064173228346
0
LINE
8
BLACK
6
CONTINUOUS
10
0.2108097244094488
20
0.4581064173228346
11
0.2104330708661417
21
0.4580314960629921
0
LINE
8
BLACK
6
CONTINUOUS
10
0.2104330708661417
20
0.4580314960629921
11
-0.1612204724409449
21
0.4580314960629921
0
LINE
8
BLACK
6
CONTINUOUS
10
-0.1612204724409449
20
0.4580314960629921
11
-0.161597125984252
21
0.4581064173228346
0
LINE
8
BLACK
6
CONTINUOUS
10
-0.161597125984252
20
0.4581064173228346
11
-0.1621298031496063
21
0.458639094488189
0
LINE
8
BLACK
6
CONTINUOUS
10
-0.1621298031496063
20
0.458639094488189
11
-0.1622047244094488
21
0.459015748031496
0
LINE
8
BLACK
6
CONTINUOUS
10
-0.1622047244094488
20
0.459015748031496
11
-0.1622047244094488
21
0.7109842519685039
0
LINE
8
BLACK
6
CONTINUOUS
10
-0.1622047244094488
20
0.7109842519685039
11
-0.1621298031496063
21
0.711360905511811
0
LINE
8
BLACK
6
CONTINUOUS
10
-0.1621298031496063
20
0.711360905511811
11
-0.161597125984252
21
0.7118935826771653
0
LINE
8
BLACK
6
CONTINUOUS
10
-0.161597125984252
20
0.7118935826771653
11
-0.1612204724409449
21
0.7119685039370078
0
LINE
8
BLACK
6
CONTINUOUS
10
-0.1612204724409449
20
0.7119685039370078
11
0.2104330708661417
21
0.7119685039370078
0
LINE
8
BLACK
6
CONTINUOUS
10
0.2104330708661417
20
0.7119685039370078
11
0.2108097244094488
21
0.7118935826771653
0
LINE
8
BLACK
6
CONTINUOUS
10
-0.1602362204724409
20
0.71
11
-0.1602362204724409
21
0.46
0
LINE
8
BLACK
6
CONTINUOUS
10
-0.1602362204724409
20
0.46
11
0.2094488188976378
21
0.46
0
LINE
8
BLACK
6
CONTINUOUS
10
0.2094488188976378
20
0.46
11
0.2094488188976378
21
0.71
0
LINE
8
BLACK
6
CONTINUOUS
10
0.2094488188976378
20
0.71
11
-0.1602362204724409
21
0.71
0
LINE
8
BLACK
6
CONTINUOUS
10
0.7004160236220472
20
0.7118935826771653
11
0.7009487007874016
21
0.711360905511811
0
LINE
8
BLACK
6
CONTINUOUS
10
0.7009487007874016
20
0.711360905511811
11
0.7010236220472441
21
0.7109842519685039
0
LINE
8
BLACK
6
CONTINUOUS
10
0.7010236220472441
20
0.7109842519685039
11
0.7010236220472441
21
0.459015748031496
0
LINE
8
BLACK
6
CONTINUOUS
10
0.7010236220472441
20
0.459015748031496
11
0.7009487007874016
21
0.458639094488189
0
LINE
8
BLACK
6
CONTINUOUS
10
0.7009487007874016
20
0.458639094488189
11
0.7004160236220472
21
0.4581064173228346
0
LINE
8
BLACK
6
CONTINUOUS
10
0.7004160236220472
20
0.4581064173228346
11
0.7000393700787402
21
0.4580314960629921
0
LINE
8
BLACK
6
CONTINUOUS
10
0.7000393700787402
20
0.4580314960629921
11
0.2291732283464567
21
0.4580314960629921
0
LINE
8
BLACK
6
CONTINUOUS
10
0.2291732283464567
20
0.4580314960629921
11
0.2287965748031496
21
0.4581064173228346
0
LINE
8
BLACK
6
CONTINUOUS
10
0.2287965748031496
20
0.4581064173228346
11
0.2282638976377953
21
0.458639094488189
0
LINE
8
BLACK
6
CONTINUOUS
10
0.2282638976377953
20
0.458639094488189
11
0.2281889763779527
21
0.459015748031496
0
LINE
8
BLACK
6
CONTINUOUS
10
0.2281889763779527
20
0.459015748031496
11
0.2281889763779527
21
0.7109842519685039
0
LINE
8
BLACK
6
CONTINUOUS
10
0.2281889763779527
20
0.7109842519685039
11
0.2282638976377953
21
0.711360905511811
0
LINE
8
BLACK
6
CONTINUOUS
10
0.2282638976377953
20
0.711360905511811
11
0.2287965748031496
21
0.7118935826771653
0
LINE
8
BLACK
6
CONTINUOUS
10
0.2287965748031496
20
0.7118935826771653
11
0.2291732283464567
21
0.7119685039370078
0
LINE
8
BLACK
6
CONTINUOUS
10
0.2291732283464567
20
0.7119685039370078
11
0.7000393700787402
21
0.7119685039370078
0
LINE
8
BLACK
6
CONTINUOUS
10
0.7000393700787402
20
0.7119685039370078
11
0.7004160236220472
21
0.7118935826771653
0
LINE
8
BLACK
6
CONTINUOUS
10
0.2301574803149606
20
0.71
11
0.2301574803149606
21
0.46
0
LINE
8
BLACK
6
CONTINUOUS
10
0.2301574803149606
20
0.46
11
0.6990551181102362
21
0.46
0
LINE
8
BLACK
6
CONTINUOUS
10
0.6990551181102362
20
0.46
11
0.6990551181102362
21
0.71
0
LINE
8
BLACK
6
CONTINUOUS
10
0.6990551181102362
20
0.71
11
0.2301574803149606
21
0.71
0
LINE
8
BLACK
6
CONTINUOUS
10
-1.1291902755905512
20
1.9526809842519686
11
-1.1286575984251968
21
1.9521483070866141
0
LINE
8
BLACK
6
CONTINUOUS
10
-1.1286575984251968
20
1.9521483070866141
11
-1.1285826771653542
21
1.951771653543307
0
LINE
8
BLACK
6
CONTINUOUS
10
-1.1285826771653542
20
1.951771653543307
11
-1.1285826771653542
21
0.7982283464566929
0
LINE
8
BLACK
6
CONTINUOUS
10
-1.1285826771653542
20
0.7982283464566929
11
-1.1286575984251968
21
0.7978516929133858
0
LINE
8
BLACK
6
CONTINUOUS
10
-1.1286575984251968
20
0.7978516929133858
11
-1.1291902755905512
21
0.7973190157480314
0
LINE
8
BLACK
6
CONTINUOUS
10
-1.1291902755905512
20
0.7973190157480314
11
-1.1295669291338581
21
0.797244094488189
0
LINE
8
BLACK
6
CONTINUOUS
10
-1.1295669291338581
20
0.797244094488189
11
-2.1791732283464564
21
0.797244094488189
0
LINE
8
BLACK
6
CONTINUOUS
10
-2.1791732283464564
20
0.797244094488189
11
-2.1795498818897636
21
0.7973190157480314
0
LINE
8
BLACK
6
CONTINUOUS
10
-2.1795498818897636
20
0.7973190157480314
11
-2.1800825590551183
21
0.7978516929133858
0
LINE
8
BLACK
6
CONTINUOUS
10
-2.1800825590551183
20
0.7978516929133858
11
-2.1801574803149606
21
0.7982283464566929
0
LINE
8
BLACK
6
CONTINUOUS
10
-2.1801574803149606
20
0.7982283464566929
11
-2.1801574803149606
21
1.951771653543307
0
LINE
8
BLACK
6
CONTINUOUS
10
-2.1801574803149606
20
1.951771653543307
11
-2.1800825590551183
21
1.9521483070866141
0
LINE
8
BLACK
6
CONTINUOUS
10
-2.1800825590551183
20
1.9521483070866141
11
-2.1795498818897636
21
1.9526809842519686
0
LINE
8
BLACK
6
CONTINUOUS
10
-2.1795498818897636
20
1.9526809842519686
11
-2.1791732283464564
21
1.9527559055118109
0
LINE
8
BLACK
6
CONTINUOUS
10
-2.1791732283464564
20
1.9527559055118109
11
-1.1295669291338581
21
1.9527559055118109
0
LINE
8
BLACK
6
CONTINUOUS
10
-1.1295669291338581
20
1.9527559055118109
11
-1.1291902755905512
21
1.9526809842519686
0
LINE
8
BLACK
6
CONTINUOUS
10
-2.1781889763779527
20
1.950787401574803
11
-2.1781889763779527
21
0.7992125984251969
0
LINE
8
BLACK
6
CONTINUOUS
10
-2.1781889763779527
20
0.7992125984251969
11
-1.1305511811023621
21
0.7992125984251969
0
LINE
8
BLACK
6
CONTINUOUS
10
-1.1305511811023621
20
0.7992125984251969
11
-1.1305511811023621
21
1.950787401574803
0
LINE
8
BLACK
6
CONTINUOUS
10
-1.1305511811023621
20
1.950787401574803
11
-2.1781889763779527
21
1.950787401574803
0
LINE
8
BLACK
6
CONTINUOUS
10
-0.7090721653543307
20
0.9551219291338583
11
-0.7085394881889764
21
0.9545892519685039
0
LINE
8
BLACK
6
CONTINUOUS
10
-0.7085394881889764
20
0.9545892519685039
11
-0.7084645669291338
21
0.9542125984251968
0
LINE
8
BLACK
6
CONTINUOUS
10
-0.7084645669291338
20
0.9542125984251968
11
-0.7084645669291338
21
0.8557874015748032
0
LINE
8
BLACK
6
CONTINUOUS
10
-0.7084645669291338
20
0.8557874015748032
11
-0.7085394881889764
21
0.8554107480314961
0
LINE
8
BLACK
6
CONTINUOUS
10
-0.7085394881889764
20
0.8554107480314961
11
-0.7090721653543307
21
0.8548780708661418
0
LINE
8
BLACK
6
CONTINUOUS
10
-0.7090721653543307
20
0.8548780708661418
11
-0.7094488188976378
21
0.8548031496062992
0
LINE
8
BLACK
6
CONTINUOUS
10
-0.7094488188976378
20
0.8548031496062992
11
-0.8905511811023622
21
0.8548031496062992
0
LINE
8
BLACK
6
CONTINUOUS
10
-0.8905511811023622
20
0.8548031496062992
11
-0.8909278346456693
21
0.8548780708661418
0
LINE
8
BLACK
6
CONTINUOUS
10
-0.8909278346456693
20
0.8548780708661418
11
-0.8914605118110236
21
0.8554107480314961
0
LINE
8
BLACK
6
CONTINUOUS
10
-0.8914605118110236
20
0.8554107480314961
11
-0.8915354330708661
21
0.8557874015748032
0
LINE
8
BLACK
6
CONTINUOUS
10
-0.8915354330708661
20
0.8557874015748032
11
-0.8915354330708661
21
0.9542125984251968
0
LINE
8
BLACK
6
CONTINUOUS
10
-0.8915354330708661
20
0.9542125984251968
11
-0.8914605118110236
21
0.9545892519685039
0
LINE
8
BLACK
6
CONTINUOUS
10
-0.8914605118110236
20
0.9545892519685039
11
-0.8909278346456693
21
0.9551219291338583
0
LINE
8
BLACK
6
CONTINUOUS
10
-0.8909278346456693
20
0.9551219291338583
11
-0.8905511811023622
21
0.9551968503937007
0
LINE
8
BLACK
6
CONTINUOUS
10
-0.8905511811023622
20
0.9551968503937007
11
-0.7094488188976378
21
0.9551968503937007
0
LINE
8
BLACK
6
CONTINUOUS
10
-0.7094488188976378
20
0.9551968503937007
11
-0.7090721653543307
21
0.9551219291338583
0
LINE
8
BLACK
6
CONTINUOUS
10
-0.8895669291338583
20
0.9532283464566929
11
-0.8895669291338583
21
0.8567716535433071
0
LINE
8
BLACK
6
CONTINUOUS
10
-0.8895669291338583
20
0.8567716535433071
11
-0.7104330708661417
21
0.8567716535433071
0
LINE
8
BLACK
6
CONTINUOUS
10
-0.7104330708661417
20
0.8567716535433071
11
-0.7104330708661417
21
0.9532283464566929
0
LINE
8
BLACK
6
CONTINUOUS
10
-0.7104330708661417
20
0.9532283464566929
11
-0.8895669291338583
21
0.9532283464566929
0
LINE
8
BLACK
6
CONTINUOUS
10
0.5297467322834646
20
1.0451219291338583
11
0.5302794094488189
21
1.0445892519685038
0
LINE
8
BLACK
6
CONTINUOUS
10
0.5302794094488189
20
1.0445892519685038
11
0.5303543307086614
21
1.0442125984251969
0
LINE
8
BLACK
6
CONTINUOUS
10
0.5303543307086614
20
1.0442125984251969
11
0.5303543307086614
21
0.9457874015748031
0
LINE
8
BLACK
6
CONTINUOUS
10
0.5303543307086614
20
0.9457874015748031
11
0.5302794094488189
21
0.9454107480314961
0
LINE
8
BLACK
6
CONTINUOUS
10
0.5302794094488189
20
0.9454107480314961
11
0.5297467322834646
21
0.9448780708661417
0
LINE
8
BLACK
6
CONTINUOUS
10
0.5297467322834646
20
0.9448780708661417
11
0.5293700787401575
21
0.9448031496062992
0
LINE
8
BLACK
6
CONTINUOUS
10
0.5293700787401575
20
0.9448031496062992
11
0.348267716535433
21
0.9448031496062992
0
LINE
8
BLACK
6
CONTINUOUS
10
0.348267716535433
20
0.9448031496062992
11
0.347891062992126
21
0.9448780708661417
0
LINE
8
BLACK
6
CONTINUOUS
10
0.347891062992126
20
0.9448780708661417
11
0.3473583858267716
21
0.9454107480314961
0
LINE
8
BLACK
6
CONTINUOUS
10
0.3473583858267716
20
0.9454107480314961
11
0.3472834645669291
21
0.9457874015748031
0
LINE
8
BLACK
6
CONTINUOUS
10
0.3472834645669291
20
0.9457874015748031
11
0.3472834645669291
21
1.0442125984251969
0
LINE
8
BLACK
6
CONTINUOUS
10
0.3472834645669291
20
1.0442125984251969
11
0.3473583858267716
21
1.0445892519685038
0
LINE
8
BLACK
6
CONTINUOUS
10
0.3473583858267716
20
1.0445892519685038
11
0.347891062992126
21
1.0451219291338583
0
LINE
8
BLACK
6
CONTINUOUS
10
0.347891062992126
20
1.0451219291338583
11
0.348267716535433
21
1.0451968503937008
0
LINE
8
BLACK
6
CONTINUOUS
10
0.348267716535433
20
1.0451968503937008
11
0.5293700787401575
21
1.0451968503937008
0
LINE
8
BLACK
6
CONTINUOUS
10
0.5293700787401575
20
1.0451968503937008
11
0.5297467322834646
21
1.0451219291338583
0
LINE
8
BLACK
6
CONTINUOUS
10
0.349251968503937
20
1.0432283464566929
11
0.349251968503937
21
0.9467716535433071
0
LINE
8
BLACK
6
CONTINUOUS
10
0.349251968503937
20
0.9467716535433071
11
0.5283858267716536
21
0.9467716535433071
0
LINE
8
BLACK
6
CONTINUOUS
10
0.5283858267716536
20
0.9467716535433071
11
0.5283858267716536
21
1.0432283464566929
0
LINE
8
BLACK
6
CONTINUOUS
10
0.5283858267716536
20
1.0432283464566929
11
0.349251968503937
21
1.0432283464566929
0
LINE
8
BLACK
6
CONTINUOUS
10
0.7421089370078739
20
1.0451219291338583
11
0.7426416141732284
21
1.0445892519685038
0
LINE
8
BLACK
6
CONTINUOUS
10
0.7426416141732284
20
1.0445892519685038
11
0.7427165354330708
21
1.0442125984251969
0
LINE
8
BLACK
6
CONTINUOUS
10
0.7427165354330708
20
1.0442125984251969
11
0.7427165354330708
21
0.9457874015748031
0
LINE
8
BLACK
6
CONTINUOUS
10
0.7427165354330708
20
0.9457874015748031
11
0.7426416141732284
21
0.9454107480314961
0
LINE
8
BLACK
6
CONTINUOUS
10
0.7426416141732284
20
0.9454107480314961
11
0.7421089370078739
21
0.9448780708661417
0
LINE
8
BLACK
6
CONTINUOUS
10
0.7421089370078739
20
0.9448780708661417
11
0.7417322834645669
21
0.9448031496062992
0
LINE
8
BLACK
6
CONTINUOUS
10
0.7417322834645669
20
0.9448031496062992
11
0.5606299212598425
21
0.9448031496062992
0
LINE
8
BLACK
6
CONTINUOUS
10
0.5606299212598425
20
0.9448031496062992
11
0.5602532677165354
21
0.9448780708661417
0
LINE
8
BLACK
6
CONTINUOUS
10
0.5602532677165354
20
0.9448780708661417
11
0.5597205905511811
21
0.9454107480314961
0
LINE
8
BLACK
6
CONTINUOUS
10
0.5597205905511811
20
0.9454107480314961
11
0.5596456692913385
21
0.9457874015748031
0
LINE
8
BLACK
6
CONTINUOUS
10
0.5596456692913385
20
0.9457874015748031
11
0.5596456692913385
21
1.0442125984251969
0
LINE
8
BLACK
6
CONTINUOUS
10
0.5596456692913385
20
1.0442125984251969
11
0.5597205905511811
21
1.0445892519685038
0
LINE
8
BLACK
6
CONTINUOUS
10
0.5597205905511811
20
1.0445892519685038
11
0.5602532677165354
21
1.0451219291338583
0
LINE
8
BLACK
6
CONTINUOUS
10
0.5602532677165354
20
1.0451219291338583
11
0.5606299212598425
21
1.0451968503937008
0
LINE
8
BLACK
6
CONTINUOUS
10
0.5606299212598425
20
1.0451968503937008
11
0.7417322834645669
21
1.0451968503937008
0
LINE
8
BLACK
6
CONTINUOUS
10
0.7417322834645669
20
1.0451968503937008
11
0.7421089370078739
21
1.0451219291338583
0
LINE
8
BLACK
6
CONTINUOUS
10
0.5616141732283464
20
1.0432283464566929
11
0.5616141732283464
21
0.9467716535433071
0
LINE
8
BLACK
6
CONTINUOUS
10
0.5616141732283464
20
0.9467716535433071
11
0.7407480314960629
21
0.9467716535433071
0
LINE
8
BLACK
6
CONTINUOUS
10
0.7407480314960629
20
0.9467716535433071
11
0.7407480314960629
21
1.0432283464566929
0
LINE
8
BLACK
6
CONTINUOUS
10
0.7407480314960629
20
1.0432283464566929
11
0.5616141732283464
21
1.0432283464566929
0
LINE
8
BLACK
6
CONTINUOUS
10
0.1697467322834646
20
1.2251219291338582
11
0.1702794094488189
21
1.224589251968504
0
LINE
8
BLACK
6
CONTINUOUS
10
0.1702794094488189
20
1.224589251968504
11
0.1703543307086614
21
1.2242125984251968
0
LINE
8
BLACK
6
CONTINUOUS
10
0.1703543307086614
20
1.2242125984251968
11
0.1703543307086614
21
1.1257874015748031
0
LINE
8
BLACK
6
CONTINUOUS
10
0.1703543307086614
20
1.1257874015748031
11
0.1702794094488189
21
1.1254107480314961
0
LINE
8
BLACK
6
CONTINUOUS
10
0.1702794094488189
20
1.1254107480314961
11
0.1697467322834646
21
1.1248780708661417
0
LINE
8
BLACK
6
CONTINUOUS
10
0.1697467322834646
20
1.1248780708661417
11
0.1693700787401575
21
1.1248031496062991
0
LINE
8
BLACK
6
CONTINUOUS
10
0.1693700787401575
20
1.1248031496062991
11
-0.0117322834645669
21
1.1248031496062991
0
LINE
8
BLACK
6
CONTINUOUS
10
-0.0117322834645669
20
1.1248031496062991
11
-0.012108937007874
21
1.1248780708661417
0
LINE
8
BLACK
6
CONTINUOUS
10
-0.012108937007874
20
1.1248780708661417
11
-0.0126416141732283
21
1.1254107480314961
0
LINE
8
BLACK
6
CONTINUOUS
10
-0.0126416141732283
20
1.1254107480314961
11
-0.0127165354330709
21
1.1257874015748031
0
LINE
8
BLACK
6
CONTINUOUS
10
-0.0127165354330709
20
1.1257874015748031
11
-0.0127165354330709
21
1.2242125984251968
0
LINE
8
BLACK
6
CONTINUOUS
10
-0.0127165354330709
20
1.2242125984251968
11
-0.0126416141732283
21
1.224589251968504
0
LINE
8
BLACK
6
CONTINUOUS
10
-0.0126416141732283
20
1.224589251968504
11
-0.012108937007874
21
1.2251219291338582
0
LINE
8
BLACK
6
CONTINUOUS
10
-0.012108937007874
20
1.2251219291338582
11
-0.0117322834645669
21
1.2251968503937007
0
LINE
8
BLACK
6
CONTINUOUS
10
-0.0117322834645669
20
1.2251968503937007
11
0.1693700787401575
21
1.2251968503937007
0
LINE
8
BLACK
6
CONTINUOUS
10
0.1693700787401575
20
1.2251968503937007
11
0.1697467322834646
21
1.2251219291338582
0
LINE
8
BLACK
6
CONTINUOUS
10
-0.010748031496063
20
1.2232283464566929
11
-0.010748031496063
21
1.126771653543307
0
LINE
8
BLACK
6
CONTINUOUS
10
-0.010748031496063
20
1.126771653543307
11
0.1683858267716535
21
1.126771653543307
0
LINE
8
BLACK
6
CONTINUOUS
10
0.1683858267716535
20
1.126771653543307
11
0.1683858267716535
21
1.2232283464566929
0
LINE
8
BLACK
6
CONTINUOUS
10
0.1683858267716535
20
1.2232283464566929
11
-0.010748031496063
21
1.2232283464566929
0
LINE
8
BLACK
6
CONTINUOUS
10
0.4087165748031496
20
1.4644342519685039
11
0.4171683464566929
21
1.4621696062992127
0
LINE
8
BLACK
6
CONTINUOUS
10
0.4171683464566929
20
1.4621696062992127
11
0.4250984251968504
21
1.4584717322834646
0
LINE
8
BLACK
6
CONTINUOUS
10
0.4250984251968504
20
1.4584717322834646
11
0.432265905511811
21
1.453453031496063
0
LINE
8
BLACK
6
CONTINUOUS
10
0.432265905511811
20
1.453453031496063
11
0.438453031496063
21
1.4472659055118109
0
LINE
8
BLACK
6
CONTINUOUS
10
0.438453031496063
20
1.4472659055118109
11
0.4434717322834645
21
1.4400984251968503
0
LINE
8
BLACK
6
CONTINUOUS
10
0.4434717322834645
20
1.4400984251968503
11
0.4471696062992126
21
1.4321683464566928
0
LINE
8
BLACK
6
CONTINUOUS
10
0.4471696062992126
20
1.4321683464566928
11
0.449434251968504
21
1.4237165748031495
0
LINE
8
BLACK
6
CONTINUOUS
10
0.449434251968504
20
1.4237165748031495
11
0.4501968503937008
21
1.415
0
LINE
8
BLACK
6
CONTINUOUS
10
0.4501968503937008
20
1.415
11
0.449434251968504
21
1.4062834251968503
0
LINE
8
BLACK
6
CONTINUOUS
10
0.449434251968504
20
1.4062834251968503
11
0.4471696062992126
21
1.3978316535433071
0
LINE
8
BLACK
6
CONTINUOUS
10
0.4471696062992126
20
1.3978316535433071
11
0.4434717322834645
21
1.3899015748031496
0
LINE
8
BLACK
6
CONTINUOUS
10
0.4434717322834645
20
1.3899015748031496
11
0.438453031496063
21
1.382734094488189
0
LINE
8
BLACK
6
CONTINUOUS
10
0.438453031496063
20
1.382734094488189
11
0.432265905511811
21
1.3765469685039369
0
LINE
8
BLACK
6
CONTINUOUS
10
0.432265905511811
20
1.3765469685039369
11
0.4250984251968504
21
1.3715282677165355
0
LINE
8
BLACK
6
CONTINUOUS
10
0.4250984251968504
20
1.3715282677165355
11
0.4171683464566929
21
1.3678303937007874
0
LINE
8
BLACK
6
CONTINUOUS
10
0.4171683464566929
20
1.3678303937007874
11
0.4087165748031496
21
1.365565748031496
0
LINE
8
BLACK
6
CONTINUOUS
10
0.4087165748031496
20
1.365565748031496
11
0.4
21
1.3648031496062991
0
LINE
8
BLACK
6
CONTINUOUS
10
0.4
20
1.3648031496062991
11
0.3912834251968504
21
1.365565748031496
0
LINE
8
BLACK
6
CONTINUOUS
10
0.3912834251968504
20
1.365565748031496
11
0.3828316535433071
21
1.3678303937007874
0
LINE
8
BLACK
6
CONTINUOUS
10
0.3828316535433071
20
1.3678303937007874
11
0.3749015748031496
21
1.3715282677165355
0
LINE
8
BLACK
6
CONTINUOUS
10
0.3749015748031496
20
1.3715282677165355
11
0.3677340944881889
21
1.3765469685039369
0
LINE
8
BLACK
6
CONTINUOUS
10
0.3677340944881889
20
1.3765469685039369
11
0.361546968503937
21
1.382734094488189
0
LINE
8
BLACK
6
CONTINUOUS
10
0.361546968503937
20
1.382734094488189
11
0.3565282677165355
21
1.3899015748031496
0
LINE
8
BLACK
6
CONTINUOUS
10
0.3565282677165355
20
1.3899015748031496
11
0.3528303937007874
21
1.3978316535433071
0
LINE
8
BLACK
6
CONTINUOUS
10
0.3528303937007874
20
1.3978316535433071
11
0.350565748031496
21
1.4062834251968503
0
LINE
8
BLACK
6
CONTINUOUS
10
0.350565748031496
20
1.4062834251968503
11
0.3498031496062992
21
1.415
0
LINE
8
BLACK
6
CONTINUOUS
10
0.3498031496062992
20
1.415
11
0.350565748031496
21
1.4237165748031495
0
LINE
8
BLACK
6
CONTINUOUS
10
0.350565748031496
20
1.4237165748031495
11
0.3528303937007874
21
1.4321683464566928
0
LINE
8
BLACK
6
CONTINUOUS
10
0.3528303937007874
20
1.4321683464566928
11
0.3565282677165355
21
1.4400984251968503
0
LINE
8
BLACK
6
CONTINUOUS
10
0.3565282677165355
20
1.4400984251968503
11
0.361546968503937
21
1.4472659055118109
0
LINE
8
BLACK
6
CONTINUOUS
10
0.361546968503937
20
1.4472659055118109
11
0.3677340944881889
21
1.453453031496063
0
LINE
8
BLACK
6
CONTINUOUS
10
0.3677340944881889
20
1.453453031496063
11
0.3749015748031496
21
1.4584717322834646
0
LINE
8
BLACK
6
CONTINUOUS
10
0.3749015748031496
20
1.4584717322834646
11
0.3828316535433071
21
1.4621696062992127
0
LINE
8
BLACK
6
CONTINUOUS
10
0.3828316535433071
20
1.4621696062992127
11
0.3912834251968504
21
1.4644342519685039
0
LINE
8
BLACK
6
CONTINUOUS
10
0.3912834251968504
20
1.4644342519685039
11
0.4
21
1.4651968503937007
0
LINE
8
BLACK
6
CONTINUOUS
10
0.4
20
1.4651968503937007
11
0.4087165748031496
21
1.4644342519685039
0
LINE
8
BLACK
6
CONTINUOUS
10
0.3523229527559055
20
1.4065932283464566
11
0.3545070866141732
21
1.3984419291338583
0
LINE
8
BLACK
6
CONTINUOUS
10
0.3545070866141732
20
1.3984419291338583
11
0.3580735039370079
21
1.3907937007874016
0
LINE
8
BLACK
6
CONTINUOUS
10
0.3580735039370079
20
1.3907937007874016
11
0.3629138188976378
21
1.3838810236220471
0
LINE
8
BLACK
6
CONTINUOUS
10
0.3629138188976378
20
1.3838810236220471
11
0.3688810236220472
21
1.3779138188976379
0
LINE
8
BLACK
6
CONTINUOUS
10
0.3688810236220472
20
1.3779138188976379
11
0.3757937007874015
21
1.3730735039370079
0
LINE
8
BLACK
6
CONTINUOUS
10
0.3757937007874015
20
1.3730735039370079
11
0.3834419291338583
21
1.3695070866141732
0
LINE
8
BLACK
6
CONTINUOUS
10
0.3834419291338583
20
1.3695070866141732
11
0.3915932283464567
21
1.3673229527559054
0
LINE
8
BLACK
6
CONTINUOUS
10
0.3915932283464567
20
1.3673229527559054
11
0.4
21
1.3665874409448819
0
LINE
8
BLACK
6
CONTINUOUS
10
0.4
20
1.3665874409448819
11
0.4084067716535433
21
1.3673229527559054
0
LINE
8
BLACK
6
CONTINUOUS
10
0.4084067716535433
20
1.3673229527559054
11
0.4165580708661417
21
1.3695070866141732
0
LINE
8
BLACK
6
CONTINUOUS
10
0.4165580708661417
20
1.3695070866141732
11
0.4242062992125984
21
1.3730735039370079
0
LINE
8
BLACK
6
CONTINUOUS
10
0.4242062992125984
20
1.3730735039370079
11
0.4311189763779528
21
1.3779138188976379
0
LINE
8
BLACK
6
CONTINUOUS
10
0.4311189763779528
20
1.3779138188976379
11
0.4370861811023622
21
1.3838810236220471
0
LINE
8
BLACK
6
CONTINUOUS
10
0.4370861811023622
20
1.3838810236220471
11
0.4419264960629921
21
1.3907937007874016
0
LINE
8
BLACK
6
CONTINUOUS
10
0.4419264960629921
20
1.3907937007874016
11
0.4454929133858267
21
1.3984419291338583
0
LINE
8
BLACK
6
CONTINUOUS
10
0.4454929133858267
20
1.3984419291338583
11
0.4476770472440945
21
1.4065932283464566
0
LINE
8
BLACK
6
CONTINUOUS
10
0.4476770472440945
20
1.4065932283464566
11
0.4484125590551181
21
1.415
0
LINE
8
BLACK
6
CONTINUOUS
10
0.4484125590551181
20
1.415
11
0.4476770472440945
21
1.4234067716535432
0
LINE
8
BLACK
6
CONTINUOUS
10
0.4476770472440945
20
1.4234067716535432
11
0.4454929133858267
21
1.4315580708661417
0
LINE
8
BLACK
6
CONTINUOUS
10
0.4454929133858267
20
1.4315580708661417
11
0.4419264960629921
21
1.4392062598425197
0
LINE
8
BLACK
6
CONTINUOUS
10
0.4419264960629921
20
1.4392062598425197
11
0.4370861811023622
21
1.4461189763779527
0
LINE
8
BLACK
6
CONTINUOUS
10
0.4370861811023622
20
1.4461189763779527
11
0.4311189763779528
21
1.4520861811023622
0
LINE
8
BLACK
6
CONTINUOUS
10
0.4311189763779528
20
1.4520861811023622
11
0.4242062992125984
21
1.4569264960629922
0
LINE
8
BLACK
6
CONTINUOUS
10
0.4242062992125984
20
1.4569264960629922
11
0.4165580708661417
21
1.4604929133858267
0
LINE
8
BLACK
6
CONTINUOUS
10
0.4165580708661417
20
1.4604929133858267
11
0.4084067716535433
21
1.4626770472440944
0
LINE
8
BLACK
6
CONTINUOUS
10
0.4084067716535433
20
1.4626770472440944
11
0.4
21
1.4634125590551181
0
LINE
8
BLACK
6
CONTINUOUS
10
0.4
20
1.4634125590551181
11
0.3915932283464567
21
1.4626770472440944
0
LINE
8
BLACK
6
CONTINUOUS
10
0.3915932283464567
20
1.4626770472440944
11
0.3834419291338583
21
1.4604929133858267
0
LINE
8
BLACK
6
CONTINUOUS
10
0.3834419291338583
20
1.4604929133858267
11
0.3757937401574803
21
1.4569264960629922
0
LINE
8
BLACK
6
CONTINUOUS
10
0.3757937401574803
20
1.4569264960629922
11
0.3688810236220472
21
1.4520861811023622
0
LINE
8
BLACK
6
CONTINUOUS
10
0.3688810236220472
20
1.4520861811023622
11
0.3629138188976378
21
1.4461189763779527
0
LINE
8
BLACK
6
CONTINUOUS
10
0.3629138188976378
20
1.4461189763779527
11
0.3580735039370079
21
1.4392062598425197
0
LINE
8
BLACK
6
CONTINUOUS
10
0.3580735039370079
20
1.4392062598425197
11
0.3545070866141732
21
1.4315580708661417
0
LINE
8
BLACK
6
CONTINUOUS
10
0.3545070866141732
20
1.4315580708661417
11
0.3523229527559055
21
1.4234067716535432
0
LINE
8
BLACK
6
CONTINUOUS
10
0.3523229527559055
20
1.4234067716535432
11
0.3515874409448819
21
1.415
0
LINE
8
BLACK
6
CONTINUOUS
10
0.3515874409448819
20
1.415
11
0.3523229527559055
21
1.4065932283464566
0
LINE
8
BLACK
6
CONTINUOUS
10
-0.285692874015748
20
1.7904185039370077
11
-0.2772411023622047
21
1.7881538582677166
0
LINE
8
BLACK
6
CONTINUOUS
10
-0.2772411023622047
20
1.7881538582677166
11
-0.2693110236220472
21
1.7844559842519685
0
LINE
8
BLACK
6
CONTINUOUS
10
-0.2693110236220472
20
1.7844559842519685
11
-0.2621435433070866
21
1.7794372834645669
0
LINE
8
BLACK
6
CONTINUOUS
10
-0.2621435433070866
20
1.7794372834645669
11
-0.2559564173228346
21
1.773250157480315
0
LINE
8
BLACK
6
CONTINUOUS
10
-0.2559564173228346
20
1.773250157480315
11
-0.2509377165354331
21
1.7660826771653544
0
LINE
8
BLACK
6
CONTINUOUS
10
-0.2509377165354331
20
1.7660826771653544
11
-0.247239842519685
21
1.7581525984251969
0
LINE
8
BLACK
6
CONTINUOUS
10
-0.247239842519685
20
1.7581525984251969
11
-0.2449751968503937
21
1.7497008267716534
0
LINE
8
BLACK
6
CONTINUOUS
10
-0.2449751968503937
20
1.7497008267716534
11
-0.2442125984251969
21
1.7409842519685039
0
LINE
8
BLACK
6
CONTINUOUS
10
-0.2442125984251969
20
1.7409842519685039
11
-0.2449751968503937
21
1.7322676771653542
0
LINE
8
BLACK
6
CONTINUOUS
10
-0.2449751968503937
20
1.7322676771653542
11
-0.247239842519685
21
1.723815905511811
0
LINE
8
BLACK
6
CONTINUOUS
10
-0.247239842519685
20
1.723815905511811
11
-0.2509377165354331
21
1.7158858267716535
0
LINE
8
BLACK
6
CONTINUOUS
10
-0.2509377165354331
20
1.7158858267716535
11
-0.2559564173228346
21
1.7087183464566928
0
LINE
8
BLACK
6
CONTINUOUS
10
-0.2559564173228346
20
1.7087183464566928
11
-0.2621435433070866
21
1.702531220472441
0
LINE
8
BLACK
6
CONTINUOUS
10
-0.2621435433070866
20
1.702531220472441
11
-0.2693110236220472
21
1.6975125196850394
0
LINE
8
BLACK
6
CONTINUOUS
10
-0.2693110236220472
20
1.6975125196850394
11
-0.2772411023622047
21
1.6938146456692913
0
LINE
8
BLACK
6
CONTINUOUS
10
-0.2772411023622047
20
1.6938146456692913
11
-0.285692874015748
21
1.6915499999999999
0
LINE
8
BLACK
6
CONTINUOUS
10
-0.285692874015748
20
1.6915499999999999
11
-0.2944094488188976
21
1.690787401574803
0
LINE
8
BLACK
6
CONTINUOUS
10
-0.2944094488188976
20
1.690787401574803
11
-0.3031260236220472
21
1.6915499999999999
0
LINE
8
BLACK
6
CONTINUOUS
10
-0.3031260236220472
20
1.6915499999999999
11
-0.3115777952755905
21
1.6938146456692913
0
LINE
8
BLACK
6
CONTINUOUS
10
-0.3115777952755905
20
1.6938146456692913
11
-0.319507874015748
21
1.6975125196850394
0
LINE
8
BLACK
6
CONTINUOUS
10
-0.319507874015748
20
1.6975125196850394
11
-0.3266753543307087
21
1.702531220472441
0
LINE
8
BLACK
6
CONTINUOUS
10
-0.3266753543307087
20
1.702531220472441
11
-0.3328624803149606
21
1.7087183464566928
0
LINE
8
BLACK
6
CONTINUOUS
10
-0.3328624803149606
20
1.7087183464566928
11
-0.3378811811023622
21
1.7158858267716535
0
LINE
8
BLACK
6
CONTINUOUS
10
-0.3378811811023622
20
1.7158858267716535
11
-0.3415790551181102
21
1.723815905511811
0
LINE
8
BLACK
6
CONTINUOUS
10
-0.3415790551181102
20
1.723815905511811
11
-0.3438437007874016
21
1.7322676771653542
0
LINE
8
BLACK
6
CONTINUOUS
10
-0.3438437007874016
20
1.7322676771653542
11
-0.3446062992125984
21
1.7409842519685039
0
LINE
8
BLACK
6
CONTINUOUS
10
-0.3446062992125984
20
1.7409842519685039
11
-0.3438437007874016
21
1.7497008267716534
0
LINE
8
BLACK
6
CONTINUOUS
10
-0.3438437007874016
20
1.7497008267716534
11
-0.3415790551181102
21
1.7581525984251969
0
LINE
8
BLACK
6
CONTINUOUS
10
-0.3415790551181102
20
1.7581525984251969
11
-0.3378811811023622
21
1.7660826771653544
0
LINE
8
BLACK
6
CONTINUOUS
10
-0.3378811811023622
20
1.7660826771653544
11
-0.3328624803149606
21
1.773250157480315
0
LINE
8
BLACK
6
CONTINUOUS
10
-0.3328624803149606
20
1.773250157480315
11
-0.3266753543307087
21
1.7794372834645669
0
LINE
8
BLACK
6
CONTINUOUS
10
-0.3266753543307087
20
1.7794372834645669
11
-0.319507874015748
21
1.7844559842519685
0
LINE
8
BLACK
6
CONTINUOUS
10
-0.319507874015748
20
1.7844559842519685
11
-0.3115777952755905
21
1.7881538582677166
0
LINE
8
BLACK
6
CONTINUOUS
10
-0.3115777952755905
20
1.7881538582677166
11
-0.3031260236220472
21
1.7904185039370077
0
LINE
8
BLACK
6
CONTINUOUS
10
-0.3031260236220472
20
1.7904185039370077
11
-0.2944094488188976
21
1.7911811023622046
0
LINE
8
BLACK
6
CONTINUOUS
10
-0.2944094488188976
20
1.7911811023622046
11
-0.285692874015748
21
1.7904185039370077
0
LINE
8
BLACK
6
CONTINUOUS
10
-0.3420864960629921
20
1.7325774803149605
11
-0.3399023622047244
21
1.7244261811023622
0
LINE
8
BLACK
6
CONTINUOUS
10
-0.3399023622047244
20
1.7244261811023622
11
-0.3363359448818898
21
1.7167779527559055
0
LINE
8
BLACK
6
CONTINUOUS
10
-0.3363359448818898
20
1.7167779527559055
11
-0.3314956299212599
21
1.7098652755905512
0
LINE
8
BLACK
6
CONTINUOUS
10
-0.3314956299212599
20
1.7098652755905512
11
-0.3255284251968504
21
1.7038980708661418
0
LINE
8
BLACK
6
CONTINUOUS
10
-0.3255284251968504
20
1.7038980708661418
11
-0.3186157480314961
21
1.6990577559055118
0
LINE
8
BLACK
6
CONTINUOUS
10
-0.3186157480314961
20
1.6990577559055118
11
-0.3109675196850394
21
1.6954913385826771
0
LINE
8
BLACK
6
CONTINUOUS
10
-0.3109675196850394
20
1.6954913385826771
11
-0.3028162204724409
21
1.6933072047244093
0
LINE
8
BLACK
6
CONTINUOUS
10
-0.3028162204724409
20
1.6933072047244093
11
-0.2944094488188976
21
1.6925716929133858
0
LINE
8
BLACK
6
CONTINUOUS
10
-0.2944094488188976
20
1.6925716929133858
11
-0.2860026771653543
21
1.6933072047244093
0
LINE
8
BLACK
6
CONTINUOUS
10
-0.2860026771653543
20
1.6933072047244093
11
-0.2778513779527559
21
1.6954913385826771
0
LINE
8
BLACK
6
CONTINUOUS
10
-0.2778513779527559
20
1.6954913385826771
11
-0.2702031496062992
21
1.6990577559055118
0
LINE
8
BLACK
6
CONTINUOUS
10
-0.2702031496062992
20
1.6990577559055118
11
-0.2632904724409449
21
1.7038980708661418
0
LINE
8
BLACK
6
CONTINUOUS
10
-0.2632904724409449
20
1.7038980708661418
11
-0.2573232677165354
21
1.7098652755905512
0
LINE
8
BLACK
6
CONTINUOUS
10
-0.2573232677165354
20
1.7098652755905512
11
-0.2524829527559055
21
1.7167779527559055
0
LINE
8
BLACK
6
CONTINUOUS
10
-0.2524829527559055
20
1.7167779527559055
11
-0.2489165354330709
21
1.7244261811023622
0
LINE
8
BLACK
6
CONTINUOUS
10
-0.2489165354330709
20
1.7244261811023622
11
-0.2467324015748031
21
1.7325774803149605
0
LINE
8
BLACK
6
CONTINUOUS
10
-0.2467324015748031
20
1.7325774803149605
11
-0.2459968897637795
21
1.7409842519685039
0
LINE
8
BLACK
6
CONTINUOUS
10
-0.2459968897637795
20
1.7409842519685039
11
-0.2467324015748031
21
1.7493910236220471
0
LINE
8
BLACK
6
CONTINUOUS
10
-0.2467324015748031
20
1.7493910236220471
11
-0.2489165354330709
21
1.7575423228346456
0
LINE
8
BLACK
6
CONTINUOUS
10
-0.2489165354330709
20
1.7575423228346456
11
-0.2524829527559055
21
1.7651905118110236
0
LINE
8
BLACK
6
CONTINUOUS
10
-0.2524829527559055
20
1.7651905118110236
11
-0.2573232677165354
21
1.7721032283464566
0
LINE
8
BLACK
6
CONTINUOUS
10
-0.2573232677165354
20
1.7721032283464566
11
-0.2632904724409449
21
1.7780704330708661
0
LINE
8
BLACK
6
CONTINUOUS
10
-0.2632904724409449
20
1.7780704330708661
11
-0.2702031496062992
21
1.7829107480314961
0
LINE
8
BLACK
6
CONTINUOUS
10
-0.2702031496062992
20
1.7829107480314961
11
-0.2778513779527559
21
1.7864771653543308
0
LINE
8
BLACK
6
CONTINUOUS
10
-0.2778513779527559
20
1.7864771653543308
11
-0.2860026771653543
21
1.7886612992125983
0
LINE
8
BLACK
6
CONTINUOUS
10
-0.2860026771653543
20
1.7886612992125983
11
-0.2944094488188976
21
1.789396811023622
0
LINE
8
BLACK
6
CONTINUOUS
10
-0.2944094488188976
20
1.789396811023622
11
-0.3028162204724409
21
1.7886612992125983
0
LINE
8
BLACK
6
CONTINUOUS
10
-0.3028162204724409
20
1.7886612992125983
11
-0.3109675196850394
21
1.7864771653543308
0
LINE
8
BLACK
6
CONTINUOUS
10
-0.3109675196850394
20
1.7864771653543308
11
-0.3186157086614173
21
1.7829107480314961
0
LINE
8
BLACK
6
CONTINUOUS
10
-0.3186157086614173
20
1.7829107480314961
11
-0.3255284251968504
21
1.7780704330708661
0
LINE
8
BLACK
6
CONTINUOUS
10
-0.3255284251968504
20
1.7780704330708661
11
-0.3314956299212599
21
1.7721032283464566
0
LINE
8
BLACK
6
CONTINUOUS
10
-0.3314956299212599
20
1.7721032283464566
11
-0.3363359448818898
21
1.7651905118110236
0
LINE
8
BLACK
6
CONTINUOUS
10
-0.3363359448818898
20
1.7651905118110236
11
-0.3399023622047244
21
1.7575423228346456
0
LINE
8
BLACK
6
CONTINUOUS
10
-0.3399023622047244
20
1.7575423228346456
11
-0.3420864960629921
21
1.7493910236220471
0
LINE
8
BLACK
6
CONTINUOUS
10
-0.3420864960629921
20
1.7493910236220471
11
-0.3428220078740157
21
1.7409842519685039
0
LINE
8
BLACK
6
CONTINUOUS
10
-0.3428220078740157
20
1.7409842519685039
11
-0.3420864960629921
21
1.7325774803149605
0
LINE
8
BLACK
6
CONTINUOUS
10
1.1100046456692914
20
2.7319918503937006
11
1.1322672047244093
21
2.7297031889763779
0
LINE
8
BLACK
6
CONTINUOUS
10
1.1322672047244093
20
2.7297031889763779
11
1.1543216929133857
21
2.7259005905511811
0
LINE
8
BLACK
6
CONTINUOUS
10
1.1543216929133857
20
2.7259005905511811
11
1.1760652755905512
21
2.7206018110236219
0
LINE
8
BLACK
6
CONTINUOUS
10
1.1760652755905512
20
2.7206018110236219
11
1.1973965748031496
21
2.7138315748031494
0
LINE
8
BLACK
6
CONTINUOUS
10
1.1973965748031496
20
2.7138315748031494
11
1.2182161023622047
21
2.7056214173228348
0
LINE
8
BLACK
6
CONTINUOUS
10
1.2182161023622047
20
2.7056214173228348
11
1.2384268110236221
21
2.6960096062992127
0
LINE
8
BLACK
6
CONTINUOUS
10
1.2384268110236221
20
2.6960096062992127
11
1.2579344881889762
21
2.685041023622047
0
LINE
8
BLACK
6
CONTINUOUS
10
1.2579344881889762
20
2.685041023622047
11
1.2766481889763779
21
2.672766692913386
0
LINE
8
BLACK
6
CONTINUOUS
10
1.2766481889763779
20
2.672766692913386
11
1.2944805905511811
21
2.659243937007874
0
LINE
8
BLACK
6
CONTINUOUS
10
1.2944805905511811
20
2.659243937007874
11
1.3113486220472441
21
2.6445357874015749
0
LINE
8
BLACK
6
CONTINUOUS
10
1.3113486220472441
20
2.6445357874015749
11
1.3271735826771653
21
2.6287108267716537
0
LINE
8
BLACK
6
CONTINUOUS
10
1.3271735826771653
20
2.6287108267716537
11
1.3418817322834646
21
2.6118427952755905
0
LINE
8
BLACK
6
CONTINUOUS
10
1.3418817322834646
20
2.6118427952755905
11
1.3554044881889764
21
2.5940103937007875
0
LINE
8
BLACK
6
CONTINUOUS
10
1.3554044881889764
20
2.5940103937007875
11
1.3676788188976379
21
2.5752966929133856
0
LINE
8
BLACK
6
CONTINUOUS
10
1.3676788188976379
20
2.5752966929133856
11
1.3786474015748031
21
2.5557890157480316
0
LINE
8
BLACK
6
CONTINUOUS
10
1.3786474015748031
20
2.5557890157480316
11
1.3882592125984252
21
2.535578307086614
0
LINE
8
BLACK
6
CONTINUOUS
10
1.3882592125984252
20
2.535578307086614
11
1.3964693700787401
21
2.514758779527559
0
LINE
8
BLACK
6
CONTINUOUS
10
1.3964693700787401
20
2.514758779527559
11
1.4032396062992125
21
2.4934274803149608
0
LINE
8
BLACK
6
CONTINUOUS
10
1.4032396062992125
20
2.4934274803149608
11
1.4085383858267717
21
2.4716838976377953
0
LINE
8
BLACK
6
CONTINUOUS
10
1.4085383858267717
20
2.4716838976377953
11
1.4123409842519685
21
2.4496294094488187
0
LINE
8
BLACK
6
CONTINUOUS
10
1.4123409842519685
20
2.4496294094488187
11
1.4146296456692913
21
2.4273668503937009
0
LINE
8
BLACK
6
CONTINUOUS
10
1.4146296456692913
20
2.4273668503937009
11
1.4153937007874016
21
2.4049999999999998
0
LINE
8
BLACK
6
CONTINUOUS
10
1.4153937007874016
20
2.4049999999999998
11
1.4146296456692913
21
2.3826331496062991
0
LINE
8
BLACK
6
CONTINUOUS
10
1.4146296456692913
20
2.3826331496062991
11
1.4123409842519685
21
2.3603705905511809
0
LINE
8
BLACK
6
CONTINUOUS
10
1.4123409842519685
20
2.3603705905511809
11
1.4085383858267717
21
2.3383161023622048
0
LINE
8
BLACK
6
CONTINUOUS
10
1.4085383858267717
20
2.3383161023622048
11
1.4032396062992125
21
2.3165725196850393
0
LINE
8
BLACK
6
CONTINUOUS
10
1.4032396062992125
20
2.3165725196850393
11
1.3964693700787401
21
2.2952412204724411
0
LINE
8
BLACK
6
CONTINUOUS
10
1.3964693700787401
20
2.2952412204724411
11
1.3882592125984252
21
2.2744216929133856
0
LINE
8
BLACK
6
CONTINUOUS
10
1.3882592125984252
20
2.2744216929133856
11
1.3786474015748031
21
2.2542109842519684
0
LINE
8
BLACK
6
CONTINUOUS
10
1.3786474015748031
20
2.2542109842519684
11
1.3676788188976379
21
2.234703307086614
0
LINE
8
BLACK
6
CONTINUOUS
10
1.3676788188976379
20
2.234703307086614
11
1.3554044881889764
21
2.2159896062992126
0
LINE
8
BLACK
6
CONTINUOUS
10
1.3554044881889764
20
2.2159896062992126
11
1.3418817322834646
21
2.1981572047244096
0
LINE
8
BLACK
6
CONTINUOUS
10
1.3418817322834646
20
2.1981572047244096
11
1.3271735826771653
21
2.1812891732283464
0
LINE
8
BLACK
6
CONTINUOUS
10
1.3271735826771653
20
2.1812891732283464
11
1.3113486220472441
21
2.1654642125984251
0
LINE
8
BLACK
6
CONTINUOUS
10
1.3113486220472441
20
2.1654642125984251
11
1.2944805905511811
21
2.1507560629921261
0
LINE
8
BLACK
6
CONTINUOUS
10
1.2944805905511811
20
2.1507560629921261
11
1.2766481889763779
21
2.1372333070866141
0
LINE
8
BLACK
6
CONTINUOUS
10
1.2766481889763779
20
2.1372333070866141
11
1.2579344881889762
21
2.1249589763779526
0
LINE
8
BLACK
6
CONTINUOUS
10
1.2579344881889762
20
2.1249589763779526
11
1.2384268110236221
21
2.1139903937007873
0
LINE
8
BLACK
6
CONTINUOUS
10
1.2384268110236221
20
2.1139903937007873
11
1.2182161023622047
21
2.1043785826771653
0
LINE
8
BLACK
6
CONTINUOUS
10
1.2182161023622047
20
2.1043785826771653
11
1.1973965748031496
21
2.0961684251968502
0
LINE
8
BLACK
6
CONTINUOUS
10
1.1973965748031496
20
2.0961684251968502
11
1.1760652755905512
21
2.0893981889763777
0
LINE
8
BLACK
6
CONTINUOUS
10
1.1760652755905512
20
2.0893981889763777
11
1.1543216929133857
21
2.084099409448819
0
LINE
8
BLACK
6
CONTINUOUS
10
1.1543216929133857
20
2.084099409448819
11
1.1322672047244093
21
2.0802968110236222
0
LINE
8
BLACK
6
CONTINUOUS
10
1.1322672047244093
20
2.0802968110236222
11
1.1100046456692914
21
2.078008149606299
0
LINE
8
BLACK
6
CONTINUOUS
10
1.1100046456692914
20
2.078008149606299
11
1.0876377952755905
21
2.0772440944881891
0
LINE
8
BLACK
6
CONTINUOUS
10
1.0876377952755905
20
2.0772440944881891
11
1.0652709448818898
21
2.078008149606299
0
LINE
8
BLACK
6
CONTINUOUS
10
1.0652709448818898
20
2.078008149606299
11
1.0430083858267716
21
2.0802968110236222
0
LINE
8
BLACK
6
CONTINUOUS
10
1.0430083858267716
20
2.0802968110236222
11
1.0209538976377952
21
2.084099409448819
0
LINE
8
BLACK
6
CONTINUOUS
10
1.0209538976377952
20
2.084099409448819
11
0.99921031496063
21
2.0893981889763777
0
LINE
8
BLACK
6
CONTINUOUS
10
0.99921031496063
20
2.0893981889763777
11
0.9778790157480315
21
2.0961684251968502
0
LINE
8
BLACK
6
CONTINUOUS
10
0.9778790157480315
20
2.0961684251968502
11
0.9570594881889763
21
2.1043785826771653
0
LINE
8
BLACK
6
CONTINUOUS
10
0.9570594881889763
20
2.1043785826771653
11
0.9368487795275591
21
2.1139903937007873
0
LINE
8
BLACK
6
CONTINUOUS
10
0.9368487795275591
20
2.1139903937007873
11
0.9173411023622047
21
2.1249589763779526
0
LINE
8
BLACK
6
CONTINUOUS
10
0.9173411023622047
20
2.1249589763779526
11
0.8986274015748031
21
2.1372333070866141
0
LINE
8
BLACK
6
CONTINUOUS
10
0.8986274015748031
20
2.1372333070866141
11
0.880795
21
2.1507560629921261
0
LINE
8
BLACK
6
CONTINUOUS
10
0.880795
20
2.1507560629921261
11
0.863926968503937
21
2.1654642125984251
0
LINE
8
BLACK
6
CONTINUOUS
10
0.863926968503937
20
2.1654642125984251
11
0.8481020078740157
21
2.1812891732283464
0
LINE
8
BLACK
6
CONTINUOUS
10
0.8481020078740157
20
2.1812891732283464
11
0.8333938582677165
21
2.1981572047244096
0
LINE
8
BLACK
6
CONTINUOUS
10
0.8333938582677165
20
2.1981572047244096
11
0.8198711023622047
21
2.2159896062992126
0
LINE
8
BLACK
6
CONTINUOUS
10
0.8198711023622047
20
2.2159896062992126
11
0.8075967716535433
21
2.234703307086614
0
LINE
8
BLACK
6
CONTINUOUS
10
0.8075967716535433
20
2.234703307086614
11
0.7966281889763779
21
2.2542109842519684
0
LINE
8
BLACK
6
CONTINUOUS
10
0.7966281889763779
20
2.2542109842519684
11
0.7870163779527559
21
2.2744216929133856
0
LINE
8
BLACK
6
CONTINUOUS
10
0.7870163779527559
20
2.2744216929133856
11
0.778806220472441
21
2.2952412204724411
0
LINE
8
BLACK
6
CONTINUOUS
10
0.778806220472441
20
2.2952412204724411
11
0.7720359842519685
21
2.3165725196850393
0
LINE
8
BLACK
6
CONTINUOUS
10
0.7720359842519685
20
2.3165725196850393
11
0.7667372047244094
21
2.3383161023622048
0
LINE
8
BLACK
6
CONTINUOUS
10
0.7667372047244094
20
2.3383161023622048
11
0.7629346062992126
21
2.3603705905511809
0
LINE
8
BLACK
6
CONTINUOUS
10
0.7629346062992126
20
2.3603705905511809
11
0.7606459448818897
21
2.3826331496062991
0
LINE
8
BLACK
6
CONTINUOUS
10
0.7606459448818897
20
2.3826331496062991
11
0.7598818897637795
21
2.4049999999999998
0
LINE
8
BLACK
6
CONTINUOUS
10
0.7598818897637795
20
2.4049999999999998
11
0.7606459448818897
21
2.4273668503937009
0
LINE
8
BLACK
6
CONTINUOUS
10
0.7606459448818897
20
2.4273668503937009
11
0.7629346062992126
21
2.4496294094488187
0
LINE
8
BLACK
6
CONTINUOUS
10
0.7629346062992126
20
2.4496294094488187
11
0.7667372047244094
21
2.4716838976377953
0
LINE
8
BLACK
6
CONTINUOUS
10
0.7667372047244094
20
2.4716838976377953
11
0.7720359842519685
21
2.4934274803149608
0
LINE
8
BLACK
6
CONTINUOUS
10
0.7720359842519685
20
2.4934274803149608
11
0.778806220472441
21
2.514758779527559
0
LINE
8
BLACK
6
CONTINUOUS
10
0.778806220472441
20
2.514758779527559
11
0.7870163779527559
21
2.535578307086614
0
LINE
8
BLACK
6
CONTINUOUS
10
0.7870163779527559
20
2.535578307086614
11
0.7966281889763779
21
2.5557890157480316
0
LINE
8
BLACK
6
CONTINUOUS
10
0.7966281889763779
20
2.5557890157480316
11
0.8075967716535433
21
2.5752966929133856
0
LINE
8
BLACK
6
CONTINUOUS
10
0.8075967716535433
20
2.5752966929133856
11
0.8198711023622047
21
2.5940103937007875
0
LINE
8
BLACK
6
CONTINUOUS
10
0.8198711023622047
20
2.5940103937007875
11
0.8333938582677165
21
2.6118427952755905
0
LINE
8
BLACK
6
CONTINUOUS
10
0.8333938582677165
20
2.6118427952755905
11
0.8481020078740157
21
2.6287108267716537
0
LINE
8
BLACK
6
CONTINUOUS
10
0.8481020078740157
20
2.6287108267716537
11
0.863926968503937
21
2.6445357874015749
0
LINE
8
BLACK
6
CONTINUOUS
10
0.863926968503937
20
2.6445357874015749
11
0.880795
21
2.659243937007874
0
LINE
8
BLACK
6
CONTINUOUS
10
0.880795
20
2.659243937007874
11
0.8986274015748031
21
2.672766692913386
0
LINE
8
BLACK
6
CONTINUOUS
10
0.8986274015748031
20
2.672766692913386
11
0.9173411023622047
21
2.685041023622047
0
LINE
8
BLACK
6
CONTINUOUS
10
0.9173411023622047
20
2.685041023622047
11
0.9368487795275591
21
2.6960096062992127
0
LINE
8
BLACK
6
CONTINUOUS
10
0.9368487795275591
20
2.6960096062992127
11
0.9570594881889763
21
2.7056214173228348
0
LINE
8
BLACK
6
CONTINUOUS
10
0.9570594881889763
20
2.7056214173228348
11
0.9778790157480315
21
2.7138315748031494
0
LINE
8
BLACK
6
CONTINUOUS
10
0.9778790157480315
20
2.7138315748031494
11
0.99921031496063
21
2.7206018110236219
0
LINE
8
BLACK
6
CONTINUOUS
10
0.99921031496063
20
2.7206018110236219
11
1.0209538976377952
21
2.7259005905511811
0
LINE
8
BLACK
6
CONTINUOUS
10
1.0209538976377952
20
2.7259005905511811
11
1.0430083858267716
21
2.7297031889763779
0
LINE
8
BLACK
6
CONTINUOUS
10
1.0430083858267716
20
2.7297031889763779
11
1.0652709448818898
21
2.7319918503937006
0
LINE
8
BLACK
6
CONTINUOUS
10
1.0652709448818898
20
2.7319918503937006
11
1.0876377952755905
21
2.7327559055118109
0
LINE
8
BLACK
6
CONTINUOUS
10
1.0876377952755905
20
2.7327559055118109
11
1.1100046456692914
21
2.7319918503937006
0
LINE
8
BLACK
6
CONTINUOUS
10
0.762445905511811
20
2.3822603543307088
11
0.7648242913385827
21
2.359631535433071
0
LINE
8
BLACK
6
CONTINUOUS
10
0.7648242913385827
20
2.359631535433071
11
0.7687753937007874
21
2.3372237007874017
0
LINE
8
BLACK
6
CONTINUOUS
10
0.7687753937007874
20
2.3372237007874017
11
0.7742799606299212
21
2.3151461023622049
0
LINE
8
BLACK
6
CONTINUOUS
10
0.7742799606299212
20
2.3151461023622049
11
0.7813111811023622
21
2.293506220472441
0
LINE
8
BLACK
6
CONTINUOUS
10
0.7813111811023622
20
2.293506220472441
11
0.7898347637795275
21
2.272409566929134
0
LINE
8
BLACK
6
CONTINUOUS
10
0.7898347637795275
20
2.272409566929134
11
0.7998092519685039
21
2.2519588582677166
0
LINE
8
BLACK
6
CONTINUOUS
10
0.7998092519685039
20
2.2519588582677166
11
0.8111859842519685
21
2.2322537401574802
0
LINE
8
BLACK
6
CONTINUOUS
10
0.8111859842519685
20
2.2322537401574802
11
0.8239096062992126
21
2.2133902362204725
0
LINE
8
BLACK
6
CONTINUOUS
10
0.8239096062992126
20
2.2133902362204725
11
0.8379180314960629
21
2.1954602362204723
0
LINE
8
BLACK
6
CONTINUOUS
10
0.8379180314960629
20
2.1954602362204723
11
0.8531431102362205
21
2.1785511023622046
0
LINE
8
BLACK
6
CONTINUOUS
10
0.8531431102362205
20
2.1785511023622046
11
0.8695105905511811
21
2.1627451968503935
0
LINE
8
BLACK
6
CONTINUOUS
10
0.8695105905511811
20
2.1627451968503935
11
0.8869407874015748
21
2.148119527559055
0
LINE
8
BLACK
6
CONTINUOUS
10
0.8869407874015748
20
2.148119527559055
11
0.9053487401574803
21
2.1347453543307084
0
LINE
8
BLACK
6
CONTINUOUS
10
0.9053487401574803
20
2.1347453543307084
11
0.9246448031496063
21
2.1226878740157478
0
LINE
8
BLACK
6
CONTINUOUS
10
0.9246448031496063
20
2.1226878740157478
11
0.9447349606299212
21
2.1120057480314962
0
LINE
8
BLACK
6
CONTINUOUS
10
0.9447349606299212
20
2.1120057480314962
11
0.9655212992125984
21
2.1027510629921258
0
LINE
8
BLACK
6
CONTINUOUS
10
0.9655212992125984
20
2.1027510629921258
11
0.9869025984251968
21
2.0949688976377954
0
LINE
8
BLACK
6
CONTINUOUS
10
0.9869025984251968
20
2.0949688976377954
11
1.0087746456692914
21
2.0886972047244092
0
LINE
8
BLACK
6
CONTINUOUS
10
1.0087746456692914
20
2.0886972047244092
11
1.031030905511811
21
2.0839664566929135
0
LINE
8
BLACK
6
CONTINUOUS
10
1.031030905511811
20
2.0839664566929135
11
1.0535629921259841
21
2.0807998031496062
0
LINE
8
BLACK
6
CONTINUOUS
10
1.0535629921259841
20
2.0807998031496062
11
1.0762610629921259
21
2.079212598425197
0
LINE
8
BLACK
6
CONTINUOUS
10
1.0762610629921259
20
2.079212598425197
11
1.099014527559055
21
2.079212598425197
0
LINE
8
BLACK
6
CONTINUOUS
10
1.099014527559055
20
2.079212598425197
11
1.1217125984251968
21
2.0807998031496062
0
LINE
8
BLACK
6
CONTINUOUS
10
1.1217125984251968
20
2.0807998031496062
11
1.1442446850393702
21
2.0839664566929135
0
LINE
8
BLACK
6
CONTINUOUS
10
1.1442446850393702
20
2.0839664566929135
11
1.1665009448818897
21
2.0886972047244092
0
LINE
8
BLACK
6
CONTINUOUS
10
1.1665009448818897
20
2.0886972047244092
11
1.1883729921259842
21
2.0949688976377954
0
LINE
8
BLACK
6
CONTINUOUS
10
1.1883729921259842
20
2.0949688976377954
11
1.2097542913385826
21
2.1027510629921258
0
LINE
8
BLACK
6
CONTINUOUS
10
1.2097542913385826
20
2.1027510629921258
11
1.2305406299212598
21
2.1120057480314962
0
LINE
8
BLACK
6
CONTINUOUS
10
1.2305406299212598
20
2.1120057480314962
11
1.2506307874015747
21
2.1226878740157478
0
LINE
8
BLACK
6
CONTINUOUS
10
1.2506307874015747
20
2.1226878740157478
11
1.2699268503937007
21
2.1347453543307084
0
LINE
8
BLACK
6
CONTINUOUS
10
1.2699268503937007
20
2.1347453543307084
11
1.2883348031496062
21
2.148119527559055
0
LINE
8
BLACK
6
CONTINUOUS
10
1.2883348031496062
20
2.148119527559055
11
1.3057650000000001
21
2.1627451968503935
0
LINE
8
BLACK
6
CONTINUOUS
10
1.3057650000000001
20
2.1627451968503935
11
1.3221324803149606
21
2.1785511023622046
0
LINE
8
BLACK
6
CONTINUOUS
10
1.3221324803149606
20
2.1785511023622046
11
1.3373575590551181
21
2.1954602362204723
0
LINE
8
BLACK
6
CONTINUOUS
10
1.3373575590551181
20
2.1954602362204723
11
1.3513659842519685
21
2.2133902362204725
0
LINE
8
BLACK
6
CONTINUOUS
10
1.3513659842519685
20
2.2133902362204725
11
1.3640896062992125
21
2.2322537401574802
0
LINE
8
BLACK
6
CONTINUOUS
10
1.3640896062992125
20
2.2322537401574802
11
1.3754663385826771
21
2.2519588582677166
0
LINE
8
BLACK
6
CONTINUOUS
10
1.3754663385826771
20
2.2519588582677166
11
1.3854408267716536
21
2.272409566929134
0
LINE
8
BLACK
6
CONTINUOUS
10
1.3854408267716536
20
2.272409566929134
11
1.3939644094488188
21
2.293506220472441
0
LINE
8
BLACK
6
CONTINUOUS
10
1.3939644094488188
20
2.293506220472441
11
1.4009956299212598
21
2.3151461023622049
0
LINE
8
BLACK
6
CONTINUOUS
10
1.4009956299212598
20
2.3151461023622049
11
1.4065001968503936
21
2.3372237007874017
0
LINE
8
BLACK
6
CONTINUOUS
10
1.4065001968503936
20
2.3372237007874017
11
1.4104512992125984
21
2.359631535433071
0
LINE
8
BLACK
6
CONTINUOUS
10
1.4104512992125984
20
2.359631535433071
11
1.41282968503937
21
2.3822603543307088
0
LINE
8
BLACK
6
CONTINUOUS
10
1.41282968503937
20
2.3822603543307088
11
1.413623779527559
21
2.4049999999999998
0
LINE
8
BLACK
6
CONTINUOUS
10
1.413623779527559
20
2.4049999999999998
11
1.41282968503937
21
2.4277396456692912
0
LINE
8
BLACK
6
CONTINUOUS
10
1.41282968503937
20
2.4277396456692912
11
1.4104512992125984
21
2.450368464566929
0
LINE
8
BLACK
6
CONTINUOUS
10
1.4104512992125984
20
2.450368464566929
11
1.4065001968503936
21
2.4727762992125983
0
LINE
8
BLACK
6
CONTINUOUS
10
1.4065001968503936
20
2.4727762992125983
11
1.4009956299212598
21
2.4948538976377952
0
LINE
8
BLACK
6
CONTINUOUS
10
1.4009956299212598
20
2.4948538976377952
11
1.3939644094488188
21
2.516493779527559
0
LINE
8
BLACK
6
CONTINUOUS
10
1.3939644094488188
20
2.516493779527559
11
1.3854408267716536
21
2.5375904330708661
0
LINE
8
BLACK
6
CONTINUOUS
10
1.3854408267716536
20
2.5375904330708661
11
1.3754663385826771
21
2.5580411417322835
0
LINE
8
BLACK
6
CONTINUOUS
10
1.3754663385826771
20
2.5580411417322835
11
1.3640896062992125
21
2.5777462598425198
0
LINE
8
BLACK
6
CONTINUOUS
10
1.3640896062992125
20
2.5777462598425198
11
1.3513659842519685
21
2.5966097637795276
0
LINE
8
BLACK
6
CONTINUOUS
10
1.3513659842519685
20
2.5966097637795276
11
1.3373575590551181
21
2.6145397637795273
0
LINE
8
BLACK
6
CONTINUOUS
10
1.3373575590551181
20
2.6145397637795273
11
1.3221324803149606
21
2.6314488976377954
0
LINE
8
BLACK
6
CONTINUOUS
10
1.3221324803149606
20
2.6314488976377954
11
1.3057650000000001
21
2.6472548031496062
0
LINE
8
BLACK
6
CONTINUOUS
10
1.3057650000000001
20
2.6472548031496062
11
1.2883348031496062
21
2.6618804724409446
0
LINE
8
BLACK
6
CONTINUOUS
10
1.2883348031496062
20
2.6618804724409446
11
1.2699268503937007
21
2.6752546456692912
0
LINE
8
BLACK
6
CONTINUOUS
10
1.2699268503937007
20
2.6752546456692912
11
1.2506307874015747
21
2.6873121259842518
0
LINE
8
BLACK
6
CONTINUOUS
10
1.2506307874015747
20
2.6873121259842518
11
1.2305406299212598
21
2.6979942519685038
0
LINE
8
BLACK
6
CONTINUOUS
10
1.2305406299212598
20
2.6979942519685038
11
1.2097542913385826
21
2.7072489370078738
0
LINE
8
BLACK
6
CONTINUOUS
10
1.2097542913385826
20
2.7072489370078738
11
1.1883729921259842
21
2.7150311023622047
0
LINE
8
BLACK
6
CONTINUOUS
10
1.1883729921259842
20
2.7150311023622047
11
1.1665009448818897
21
2.7213027952755904
0
LINE
8
BLACK
6
CONTINUOUS
10
1.1665009448818897
20
2.7213027952755904
11
1.1442446850393702
21
2.7260335433070866
0
LINE
8
BLACK
6
CONTINUOUS
10
1.1442446850393702
20
2.7260335433070866
11
1.1217125984251968
21
2.7292001968503938
0
LINE
8
BLACK
6
CONTINUOUS
10
1.1217125984251968
20
2.7292001968503938
11
1.099014527559055
21
2.730787401574803
0
LINE
8
BLACK
6
CONTINUOUS
10
1.099014527559055
20
2.730787401574803
11
1.0762610629921259
21
2.730787401574803
0
LINE
8
BLACK
6
CONTINUOUS
10
1.0762610629921259
20
2.730787401574803
11
1.0535629921259841
21
2.7292001968503938
0
LINE
8
BLACK
6
CONTINUOUS
10
1.0535629921259841
20
2.7292001968503938
11
1.031030905511811
21
2.7260335433070866
0
LINE
8
BLACK
6
CONTINUOUS
10
1.031030905511811
20
2.7260335433070866
11
1.0087746456692914
21
2.7213027952755904
0
LINE
8
BLACK
6
CONTINUOUS
10
1.0087746456692914
20
2.7213027952755904
11
0.9869025984251968
21
2.7150311023622047
0
LINE
8
BLACK
6
CONTINUOUS
10
0.9869025984251968
20
2.7150311023622047
11
0.9655212992125984
21
2.7072489370078738
0
LINE
8
BLACK
6
CONTINUOUS
10
0.9655212992125984
20
2.7072489370078738
11
0.9447349606299212
21
2.6979942519685038
0
LINE
8
BLACK
6
CONTINUOUS
10
0.9447349606299212
20
2.6979942519685038
11
0.9246448031496063
21
2.6873121259842518
0
LINE
8
BLACK
6
CONTINUOUS
10
0.9246448031496063
20
2.6873121259842518
11
0.9053487401574803
21
2.6752546456692912
0
LINE
8
BLACK
6
CONTINUOUS
10
0.9053487401574803
20
2.6752546456692912
11
0.8869407874015748
21
2.6618804724409446
0
LINE
8
BLACK
6
CONTINUOUS
10
0.8869407874015748
20
2.6618804724409446
11
0.8695105905511811
21
2.6472548031496062
0
LINE
8
BLACK
6
CONTINUOUS
10
0.8695105905511811
20
2.6472548031496062
11
0.8531431102362205
21
2.6314488976377954
0
LINE
8
BLACK
6
CONTINUOUS
10
0.8531431102362205
20
2.6314488976377954
11
0.8379180314960629
21
2.6145397637795273
0
LINE
8
BLACK
6
CONTINUOUS
10
0.8379180314960629
20
2.6145397637795273
11
0.8239096062992126
21
2.5966097637795276
0
LINE
8
BLACK
6
CONTINUOUS
10
0.8239096062992126
20
2.5966097637795276
11
0.8111859842519685
21
2.5777462598425198
0
LINE
8
BLACK
6
CONTINUOUS
10
0.8111859842519685
20
2.5777462598425198
11
0.7998092519685039
21
2.5580411417322835
0
LINE
8
BLACK
6
CONTINUOUS
10
0.7998092519685039
20
2.5580411417322835
11
0.7898347637795275
21
2.5375904330708661
0
LINE
8
BLACK
6
CONTINUOUS
10
0.7898347637795275
20
2.5375904330708661
11
0.7813111811023622
21
2.516493779527559
0
LINE
8
BLACK
6
CONTINUOUS
10
0.7813111811023622
20
2.516493779527559
11
0.7742799606299212
21
2.4948538976377952
0
LINE
8
BLACK
6
CONTINUOUS
10
0.7742799606299212
20
2.4948538976377952
11
0.7687753937007874
21
2.4727762992125983
0
LINE
8
BLACK
6
CONTINUOUS
10
0.7687753937007874
20
2.4727762992125983
11
0.7648242913385827
21
2.450368464566929
0
LINE
8
BLACK
6
CONTINUOUS
10
0.7648242913385827
20
2.450368464566929
11
0.762445905511811
21
2.4277396456692912
0
LINE
8
BLACK
6
CONTINUOUS
10
0.762445905511811
20
2.4277396456692912
11
0.761651811023622
21
2.4049999999999998
0
LINE
8
BLACK
6
CONTINUOUS
10
0.761651811023622
20
2.4049999999999998
11
0.762445905511811
21
2.3822603543307088
0
LINE
8
BLACK
6
CONTINUOUS
10
0.2902191732283464
20
2.7918935826771651
11
0.2907518503937008
21
2.7913609055118109
0
LINE
8
BLACK
6
CONTINUOUS
10
0.2907518503937008
20
2.7913609055118109
11
0.2908267716535433
21
2.7909842519685037
0
LINE
8
BLACK
6
CONTINUOUS
10
0.2908267716535433
20
2.7909842519685037
11
0.2908267716535433
21
2.5390157480314959
0
LINE
8
BLACK
6
CONTINUOUS
10
0.2908267716535433
20
2.5390157480314959
11
0.2907518503937008
21
2.5386390944881887
0
LINE
8
BLACK
6
CONTINUOUS
10
0.2907518503937008
20
2.5386390944881887
11
0.2902191732283464
21
2.5381064173228345
0
LINE
8
BLACK
6
CONTINUOUS
10
0.2902191732283464
20
2.5381064173228345
11
0.2898425196850394
21
2.5380314960629922
0
LINE
8
BLACK
6
CONTINUOUS
10
0.2898425196850394
20
2.5380314960629922
11
-0.2298425196850394
21
2.5380314960629922
0
LINE
8
BLACK
6
CONTINUOUS
10
-0.2298425196850394
20
2.5380314960629922
11
-0.2302191732283465
21
2.5381064173228345
0
LINE
8
BLACK
6
CONTINUOUS
10
-0.2302191732283465
20
2.5381064173228345
11
-0.2307518503937008
21
2.5386390944881887
0
LINE
8
BLACK
6
CONTINUOUS
10
-0.2307518503937008
20
2.5386390944881887
11
-0.2308267716535433
21
2.5390157480314959
0
LINE
8
BLACK
6
CONTINUOUS
10
-0.2308267716535433
20
2.5390157480314959
11
-0.2308267716535433
21
2.7909842519685037
0
LINE
8
BLACK
6
CONTINUOUS
10
-0.2308267716535433
20
2.7909842519685037
11
-0.2307518503937008
21
2.7913609055118109
0
LINE
8
BLACK
6
CONTINUOUS
10
-0.2307518503937008
20
2.7913609055118109
11
-0.2302191732283465
21
2.7918935826771651
0
LINE
8
BLACK
6
CONTINUOUS
10
-0.2302191732283465
20
2.7918935826771651
11
-0.2298425196850394
21
2.7919685039370079
0
LINE
8
BLACK
6
CONTINUOUS
10
-0.2298425196850394
20
2.7919685039370079
11
0.2898425196850394
21
2.7919685039370079
0
LINE
8
BLACK
6
CONTINUOUS
10
0.2898425196850394
20
2.7919685039370079
11
0.2902191732283464
21
2.7918935826771651
0
LINE
8
BLACK
6
CONTINUOUS
10
-0.2288582677165354
20
2.79
11
-0.2288582677165354
21
2.54
0
LINE
8
BLACK
6
CONTINUOUS
10
-0.2288582677165354
20
2.54
11
0.2888582677165354
21
2.54
0
LINE
8
BLACK
6
CONTINUOUS
10
0.2888582677165354
20
2.54
11
0.2888582677165354
21
2.79
0
LINE
8
BLACK
6
CONTINUOUS
10
0.2888582677165354
20
2.79
11
-0.2288582677165354
21
2.79
0
CIRCLE
8
BLACK
10
1.1499999999999999
20
0.535
40
0.0068897637795276
0
CIRCLE
8
BLACK
10
1.25
20
0.535
40
0.0068897637795276
0
CIRCLE
8
BLACK
10
1.3499999999999999
20
0.535
40
0.0068897637795276
0
CIRCLE
8
BLACK
10
1.7
20
1.9450000000000001
40
0.0068897637795276
0
CIRCLE
8
BLACK
10
1.5999999999999999
20
1.9450000000000001
40
0.0068897637795276
0
CIRCLE
8
BLACK
10
1.7
20
2.0449999999999999
40
0.0068897637795276
0
CIRCLE
8
BLACK
10
1.5999999999999999
20
2.0449999999999999
40
0.0068897637795276
0
CIRCLE
8
BLACK
10
1.7
20
2.145
40
0.0068897637795276
0
CIRCLE
8
BLACK
10
1.5999999999999999
20
2.145
40
0.0068897637795276
0
CIRCLE
8
BLACK
10
-0.24
20
0.635
40
0.0068897637795276
0
CIRCLE
8
BLACK
10
-0.24
20
0.535
40
0.0068897637795276
0
CIRCLE
8
BLACK
10
-0.34
20
0.635
40
0.0068897637795276
0
CIRCLE
8
BLACK
10
-0.34
20
0.535
40
0.0068897637795276
0
CIRCLE
8
BLACK
10
-0.44
20
0.635
40
0.0068897637795276
0
CIRCLE
8
BLACK
10
-0.44
20
0.535
40
0.0068897637795276
0
CIRCLE
8
BLACK
10
-0.54
20
0.635
40
0.0068897637795276
0
CIRCLE
8
BLACK
10
-0.54
20
0.535
40
0.0068897637795276
0
CIRCLE
8
BLACK
10
-0.64
20
0.635
40
0.0068897637795276
0
CIRCLE
8
BLACK
10
-0.64
20
0.535
40
0.0068897637795276
0
CIRCLE
8
BLACK
10
-1.99
20
2.625
40
0.0068897637795276
0
CIRCLE
8
BLACK
10
1.6099999999999999
20
2.625
40
0.0068897637795276
0
CIRCLE
8
BLACK
10
0.82
20
0.535
40
0.0068897637795276
0
CIRCLE
8
BLACK
10
0.9199999999999999
20
0.535
40
0.0068897637795276
0
CIRCLE
8
BLACK
10
1.02
20
0.535
40
0.0068897637795276
0
CIRCLE
8
BLACK
10
-1.24
20
2.6149999999999998
40
0.0068897637795276
0
CIRCLE
8
BLACK
10
-1.24
20
2.7149999999999999
40
0.0068897637795276
0
CIRCLE
8
BLACK
10
-1.1399999999999999
20
2.6149999999999998
40
0.0068897637795276
0
CIRCLE
8
BLACK
10
-1.1399999999999999
20
2.7149999999999999
40
0.0068897637795276
0
CIRCLE
8
BLACK
10
-1.04
20
2.6149999999999998
40
0.0068897637795276
0
CIRCLE
8
BLACK
10
-1.04
20
2.7149999999999999
40
0.0068897637795276
0
CIRCLE
8
BLACK
10
-0.9399999999999999
20
2.6149999999999998
40
0.0068897637795276
0
CIRCLE
8
BLACK
10
-0.9399999999999999
20
2.7149999999999999
40
0.0068897637795276
0
CIRCLE
8
BLACK
10
-0.84
20
2.6149999999999998
40
0.0068897637795276
0
CIRCLE
8
BLACK
10
-0.84
20
2.7149999999999999
40
0.0068897637795276
0
CIRCLE
8
BLACK
10
-0.74
20
2.6149999999999998
40
0.0068897637795276
0
CIRCLE
8
BLACK
10
-0.74
20
2.7149999999999999
40
0.0068897637795276
0
CIRCLE
8
BLACK
10
-0.64
20
2.6149999999999998
40
0.0068897637795276
0
CIRCLE
8
BLACK
10
-0.64
20
2.7149999999999999
40
0.0068897637795276
0
CIRCLE
8
BLACK
10
-0.51
20
2.6149999999999998
40
0.0068897637795276
0
CIRCLE
8
BLACK
10
-0.51
20
2.7149999999999999
40
0.0068897637795276
0
CIRCLE
8
BLACK
10
-0.41
20
2.6149999999999998
40
0.0068897637795276
0
CIRCLE
8
BLACK
10
-0.41
20
2.7149999999999999
40
0.0068897637795276
0
CIRCLE
8
BLACK
10
-0.31
20
2.6149999999999998
40
0.0068897637795276
0
CIRCLE
8
BLACK
10
-0.31
20
2.7149999999999999
40
0.0068897637795276
0
CIRCLE
8
BLACK
10
-1.99
20
0.625
40
0.0068897637795276
0
CIRCLE
8
BLACK
10
-1.2793700787401574
20
1.8277559055118109
40
0.0068897637795276
0
CIRCLE
8
BLACK
10
-1.2793700787401574
20
1.0009842519685039
40
0.0068897637795276
0
CIRCLE
8
BLACK
10
-1.99
20
2.2050000000000001
40
0.0068897637795276
0
CIRCLE
8
BLACK
10
-2.0899999999999999
20
2.3050000000000002
40
0.0068897637795276
0
CIRCLE
8
BLACK
10
-2.0899999999999999
20
2.105
40
0.0068897637795276
0
CIRCLE
8
BLACK
10
-1.8899999999999999
20
2.3050000000000002
40
0.0068897637795276
0
CIRCLE
8
BLACK
10
-1.8899999999999999
20
2.105
40
0.0068897637795276
0
CIRCLE
8
BLACK
10
0.9399999999999999
20
2.4049999999999998
40
0.0068897637795276
0
CIRCLE
8
BLACK
10
1.235275590551181
20
2.4049999999999998
40
0.0068897637795276
0
CIRCLE
8
BLACK
10
0.37
20
2.6149999999999998
40
0.0068897637795276
0
CIRCLE
8
BLACK
10
0.37
20
2.7149999999999999
40
0.0068897637795276
0
CIRCLE
8
BLACK
10
0.47
20
2.6149999999999998
40
0.0068897637795276
0
CIRCLE
8
BLACK
10
0.47
20
2.7149999999999999
40
0.0068897637795276
0
CIRCLE
8
BLACK
10
0.57
20
2.6149999999999998
40
0.0068897637795276
0
CIRCLE
8
BLACK
10
0.57
20
2.7149999999999999
40
0.0068897637795276
0
CIRCLE
8
BLACK
10
-1.0069291338582678
20
1.776496062992126
40
0.0068897637795276
0
CIRCLE
8
BLACK
10
-0.9069291338582677
20
1.776496062992126
40
0.0068897637795276
0
CIRCLE
8
BLACK
10
1.6099999999999999
20
0.625
40
0.0068897637795276
0
CIRCLE
8
BLACK
10
-1.47
20
2.6149999999999998
40
0.0068897637795276
0
CIRCLE
8
BLACK
10
-1.47
20
2.7149999999999999
40
0.0068897637795276
0
CIRCLE
8
BLACK
10
-1.3699999999999999
20
2.6149999999999998
40
0.0068897637795276
0
CIRCLE
8
BLACK
10
-1.3699999999999999
20
2.7149999999999999
40
0.0068897637795276
0
CIRCLE
8
BLACK
10
0.33
20
2.0049999999999999
40
0.0068897637795276
0
CIRCLE
8
BLACK
10
0.43
20
2.0049999999999999
40
0.0068897637795276
0
CIRCLE
8
BLACK
10
-1.1699999999999999
20
0.535
40
0.0068897637795276
0
CIRCLE
8
BLACK
10
-1.1699999999999999
20
0.635
40
0.0068897637795276
0
CIRCLE
8
BLACK
10
-1.0700000000000001
20
0.535
40
0.0068897637795276
0
CIRCLE
8
BLACK
10
-1.0700000000000001
20
0.635
40
0.0068897637795276
0
CIRCLE
8
BLACK
10
-0.97
20
0.535
40
0.0068897637795276
0
CIRCLE
8
BLACK
10
-0.97
20
0.635
40
0.0068897637795276
0
CIRCLE
8
BLACK
10
-0.87
20
0.535
40
0.0068897637795276
0
CIRCLE
8
BLACK
10
-0.87
20
0.635
40
0.0068897637795276
0
CIRCLE
8
BLACK
10
-0.77
20
0.535
40
0.0068897637795276
0
CIRCLE
8
BLACK
10
-0.77
20
0.635
40
0.0068897637795276
0
CIRCLE
8
BLACK
10
1.5999999999999999
20
1.7249999999999999
40
0.0068897637795276
0
CIRCLE
8
BLACK
10
1.7
20
1.7249999999999999
40
0.0068897637795276
0
CIRCLE
8
BLACK
10
1.5999999999999999
20
1.625
40
0.0068897637795276
0
CIRCLE
8
BLACK
10
1.7
20
1.625
40
0.0068897637795276
0
CIRCLE
8
BLACK
10
1.5999999999999999
20
1.5249999999999999
40
0.0068897637795276
0
CIRCLE
8
BLACK
10
1.7
20
1.5249999999999999
40
0.0068897637795276
0
CIRCLE
8
BLACK
10
-0.9194488188976377
20
2.2426181102362204
40
0.0039370078740157
0
CIRCLE
8
BLACK
10
-0.9607874015748031
20
2.2426181102362204
40
0.0039370078740157
0
CIRCLE
8
BLACK
10
-1.0021259842519685
20
2.2426181102362204
40
0.0039370078740157
0
CIRCLE
8
BLACK
10
-0.9194488188976377
20
2.2012795275590551
40
0.0039370078740157
0
CIRCLE
8
BLACK
10
-0.9607874015748031
20
2.2012795275590551
40
0.0039370078740157
0
CIRCLE
8
BLACK
10
-1.0021259842519685
20
2.2012795275590551
40
0.0039370078740157
0
CIRCLE
8
BLACK
10
-0.9194488188976377
20
2.1599409448818898
40
0.0039370078740157
0
CIRCLE
8
BLACK
10
-0.9607874015748031
20
2.1599409448818898
40
0.0039370078740157
0
CIRCLE
8
BLACK
10
-1.0021259842519685
20
2.1599409448818898
40
0.0039370078740157
0
CIRCLE
8
BLACK
10
-0.4301574803149606
20
2.3624015748031497
40
0.0049212598425197
0
CIRCLE
8
BLACK
10
-0.3907874015748031
20
2.3624015748031497
40
0.0049212598425197
  0
ENDSEC
  0
EOF
