  0
SECTION
  2
HEADER
  9
$ANGBASE
  50
0.0
  9
$ANGDIR
  70
1
  9
$MEASUREMENT
  70
0
  0
ENDSEC
  0
SECTION
  2
TABLES
  0
TABLE
  2
LTYPE
  70
4
  0
LTYPE
  5
40F
  2
CONTINUOUS
  70
0
  3
Solid line
  72
65
  73
0
  40
0.0
  0
LTYPE
  5
410
  2
DASHDOT
 70
0
  3
Dash Dot ____ _ ____ _
 72
65
 73
4
 40
2.0
 49
1.25
 49
-0.25
 49
0.25
 49
-0.25
  0
LTYPE
  5
411
  2
DASHED
 70
0
  3
Dashed __ __ __ __ __
 72
65
 73
2
 40
0.75
 49
0.5
 49
-0.25
  0
LTYPE
  5
43B
  2
DOTTED
 70
0
  3
Dotted .  .  .  .
 72
65
 73
2
 40
0.2
 49
0.0
 49
-0.2
  0
ENDTAB
  0
TABLE
  2
STYLE
  70
4
  0
STYLE
  2
KICAD
  70
0
  40
0
  41
1
  42
1
  50
0
  71
0
  3
isocp.shx
  0
STYLE
  2
KICADB
  70
0
  40
0
  41
1
  42
1
  50
0
  71
0
  3
isocp.shx
  0
STYLE
  2
KICADI
  70
0
  40
0
  41
1
  42
1
  50
15
  71
0
  3
isocp.shx
  0
STYLE
  2
KICADBI
  70
0
  40
0
  41
1
  42
1
  50
15
  71
0
  3
isocp.shx
  0
ENDTAB
  0
TABLE
  2
LAYER
  70
1
  0
LAYER
  2
BLACK
  70
0
  62
7
  6
CONTINUOUS
  0
ENDTAB
  0
ENDSEC
  0
SECTION
  2
ENTITIES
0
LINE
8
BLACK
6
CONTINUOUS
10
3.1907680708661417
20
3.9938613779527556
11
3.192187283464567
21
3.993273503937008
0
LINE
8
BLACK
6
CONTINUOUS
10
3.192187283464567
20
3.993273503937008
11
3.1932735039370077
21
3.9921872834645669
0
LINE
8
BLACK
6
CONTINUOUS
10
3.1932735039370077
20
3.9921872834645669
11
3.1938613779527558
21
3.9907680708661415
0
LINE
8
BLACK
6
CONTINUOUS
10
3.1938613779527558
20
3.9907680708661415
11
3.1939370078740157
21
3.9899999999999998
0
LINE
8
BLACK
6
CONTINUOUS
10
3.1939370078740157
20
3.9899999999999998
11
3.1939370078740157
21
0.01
0
LINE
8
BLACK
6
CONTINUOUS
10
3.1939370078740157
20
0.01
11
3.1938613779527558
21
0.0092319291338583
0
LINE
8
BLACK
6
CONTINUOUS
10
3.1938613779527558
20
0.0092319291338583
11
3.1932735039370077
21
0.0078127165354331
0
LINE
8
BLACK
6
CONTINUOUS
10
3.1932735039370077
20
0.0078127165354331
11
3.192187283464567
21
0.0067264960629921
0
LINE
8
BLACK
6
CONTINUOUS
10
3.192187283464567
20
0.0067264960629921
11
3.1907680708661417
21
0.0061386220472441
0
LINE
8
BLACK
6
CONTINUOUS
10
3.1907680708661417
20
0.0061386220472441
11
3.1899999999999999
21
0.0060629921259843
0
LINE
8
BLACK
6
CONTINUOUS
10
3.1899999999999999
20
0.0060629921259843
11
0.01
21
0.0060629921259843
0
LINE
8
BLACK
6
CONTINUOUS
10
0.01
20
0.0060629921259843
11
0.0092319291338583
21
0.0061386220472441
0
LINE
8
BLACK
6
CONTINUOUS
10
0.0092319291338583
20
0.0061386220472441
11
0.0078127165354331
21
0.0067264960629921
0
LINE
8
BLACK
6
CONTINUOUS
10
0.0078127165354331
20
0.0067264960629921
11
0.0067264960629921
21
0.0078127165354331
0
LINE
8
BLACK
6
CONTINUOUS
10
0.0067264960629921
20
0.0078127165354331
11
0.0061386220472441
21
0.0092319291338583
0
LINE
8
BLACK
6
CONTINUOUS
10
0.0061386220472441
20
0.0092319291338583
11
0.0060629921259843
21
0.01
0
LINE
8
BLACK
6
CONTINUOUS
10
0.0060629921259843
20
0.01
11
0.0060629921259843
21
3.9899999999999998
0
LINE
8
BLACK
6
CONTINUOUS
10
0.0060629921259843
20
3.9899999999999998
11
0.0061386220472441
21
3.9907680708661415
0
LINE
8
BLACK
6
CONTINUOUS
10
0.0061386220472441
20
3.9907680708661415
11
0.0067264960629921
21
3.9921872834645669
0
LINE
8
BLACK
6
CONTINUOUS
10
0.0067264960629921
20
3.9921872834645669
11
0.0078127165354331
21
3.993273503937008
0
LINE
8
BLACK
6
CONTINUOUS
10
0.0078127165354331
20
3.993273503937008
11
0.0092319291338583
21
3.9938613779527556
0
LINE
8
BLACK
6
CONTINUOUS
10
0.0092319291338583
20
3.9938613779527556
11
0.01
21
3.9939370078740155
0
LINE
8
BLACK
6
CONTINUOUS
10
0.01
20
3.9939370078740155
11
3.1899999999999999
21
3.9939370078740155
0
LINE
8
BLACK
6
CONTINUOUS
10
3.1899999999999999
20
3.9939370078740155
11
3.1907680708661417
21
3.9938613779527556
0
LINE
8
BLACK
6
CONTINUOUS
10
0.0139370078740157
20
3.986062992125984
11
0.0139370078740157
21
0.0139370078740157
0
LINE
8
BLACK
6
CONTINUOUS
10
0.0139370078740157
20
0.0139370078740157
11
3.1860629921259842
21
0.0139370078740157
0
LINE
8
BLACK
6
CONTINUOUS
10
3.1860629921259842
20
0.0139370078740157
11
3.1860629921259842
21
3.986062992125984
0
LINE
8
BLACK
6
CONTINUOUS
10
3.1860629921259842
20
3.986062992125984
11
0.0139370078740157
21
3.986062992125984
0
CIRCLE
8
BLACK
10
2.1749999999999998
20
3.6499999999999999
40
0.0068897637795276
0
CIRCLE
8
BLACK
10
2.1749999999999998
20
3.75
40
0.0068897637795276
0
CIRCLE
8
BLACK
10
2.1257874015748031
20
2.7999999999999998
40
0.0068897637795276
0
CIRCLE
8
BLACK
10
0.7242125984251968
20
2.7999999999999998
40
0.0068897637795276
0
CIRCLE
8
BLACK
10
2.7537401574803151
20
2.7999999999999998
40
0.0068897637795276
0
CIRCLE
8
BLACK
10
0.096259842519685
20
2.7999999999999998
40
0.0068897637795276
0
CIRCLE
8
BLACK
10
1.9749999999999999
20
3.6499999999999999
40
0.0068897637795276
0
CIRCLE
8
BLACK
10
1.9749999999999999
20
3.75
40
0.0068897637795276
0
CIRCLE
8
BLACK
10
3.
20
1.825
40
0.0068897637795276
0
CIRCLE
8
BLACK
10
2.8999999999999999
20
1.825
40
0.0068897637795276
0
CIRCLE
8
BLACK
10
1.875
20
3.6499999999999999
40
0.0068897637795276
0
CIRCLE
8
BLACK
10
1.875
20
3.75
40
0.0068897637795276
0
CIRCLE
8
BLACK
10
2.8999999999999999
20
2.2749999999999999
40
0.0068897637795276
0
CIRCLE
8
BLACK
10
3.
20
2.2749999999999999
40
0.0068897637795276
0
CIRCLE
8
BLACK
10
2.8999999999999999
20
2.5749999999999997
40
0.0068897637795276
0
CIRCLE
8
BLACK
10
3.
20
2.5749999999999997
40
0.0068897637795276
0
CIRCLE
8
BLACK
10
2.8999999999999999
20
2.375
40
0.0068897637795276
0
CIRCLE
8
BLACK
10
3.
20
2.375
40
0.0068897637795276
0
CIRCLE
8
BLACK
10
2.8999999999999999
20
2.4750000000000001
40
0.0068897637795276
0
CIRCLE
8
BLACK
10
3.
20
2.4750000000000001
40
0.0068897637795276
0
CIRCLE
8
BLACK
10
3.
20
1.7249999999999999
40
0.0068897637795276
0
CIRCLE
8
BLACK
10
2.8999999999999999
20
1.7249999999999999
40
0.0068897637795276
0
CIRCLE
8
BLACK
10
3.
20
2.0249999999999999
40
0.0068897637795276
0
CIRCLE
8
BLACK
10
2.8999999999999999
20
2.0249999999999999
40
0.0068897637795276
0
CIRCLE
8
BLACK
10
3.
20
2.125
40
0.0068897637795276
0
CIRCLE
8
BLACK
10
2.8999999999999999
20
2.125
40
0.0068897637795276
0
CIRCLE
8
BLACK
10
2.8999999999999999
20
0.85
40
0.0068897637795276
0
CIRCLE
8
BLACK
10
2.8999999999999999
20
0.95
40
0.0068897637795276
0
CIRCLE
8
BLACK
10
3.
20
0.85
40
0.0068897637795276
0
CIRCLE
8
BLACK
10
3.
20
0.95
40
0.0068897637795276
0
CIRCLE
8
BLACK
10
3.1000000000000001
20
0.85
40
0.0068897637795276
0
CIRCLE
8
BLACK
10
3.1000000000000001
20
0.95
40
0.0068897637795276
0
CIRCLE
8
BLACK
10
3.
20
3.1999999999999997
40
0.0068897637795276
0
CIRCLE
8
BLACK
10
2.8999999999999999
20
3.1999999999999997
40
0.0068897637795276
0
CIRCLE
8
BLACK
10
1.575
20
3.6499999999999999
40
0.0068897637795276
0
CIRCLE
8
BLACK
10
1.575
20
3.75
40
0.0068897637795276
0
CIRCLE
8
BLACK
10
3.
20
1.1499999999999999
40
0.0068897637795276
0
CIRCLE
8
BLACK
10
2.8999999999999999
20
1.1499999999999999
40
0.0068897637795276
0
CIRCLE
8
BLACK
10
3.
20
1.25
40
0.0068897637795276
0
CIRCLE
8
BLACK
10
2.8999999999999999
20
1.25
40
0.0068897637795276
0
CIRCLE
8
BLACK
10
3.
20
1.3499999999999999
40
0.0068897637795276
0
CIRCLE
8
BLACK
10
2.8999999999999999
20
1.3499999999999999
40
0.0068897637795276
0
CIRCLE
8
BLACK
10
0.775
20
0.35
40
0.0068897637795276
0
CIRCLE
8
BLACK
10
0.775
20
0.25
40
0.0068897637795276
0
CIRCLE
8
BLACK
10
2.8999999999999999
20
1.4749999999999999
40
0.0068897637795276
0
CIRCLE
8
BLACK
10
3.
20
1.4749999999999999
40
0.0068897637795276
0
CIRCLE
8
BLACK
10
1.7749999999999999
20
3.6499999999999999
40
0.0068897637795276
0
CIRCLE
8
BLACK
10
1.7749999999999999
20
3.75
40
0.0068897637795276
0
CIRCLE
8
BLACK
10
2.0749999999999997
20
3.6499999999999999
40
0.0068897637795276
0
CIRCLE
8
BLACK
10
2.0749999999999997
20
3.75
40
0.0068897637795276
0
CIRCLE
8
BLACK
10
2.5749999999999997
20
3.6499999999999999
40
0.0068897637795276
0
CIRCLE
8
BLACK
10
2.5749999999999997
20
3.75
40
0.0068897637795276
0
CIRCLE
8
BLACK
10
2.6749999999999998
20
3.6499999999999999
40
0.0068897637795276
0
CIRCLE
8
BLACK
10
2.6749999999999998
20
3.75
40
0.0068897637795276
0
CIRCLE
8
BLACK
10
2.4750000000000001
20
3.6499999999999999
40
0.0068897637795276
0
CIRCLE
8
BLACK
10
2.4750000000000001
20
3.75
40
0.0068897637795276
0
CIRCLE
8
BLACK
10
2.8999999999999999
20
1.575
40
0.0068897637795276
0
CIRCLE
8
BLACK
10
3.
20
1.575
40
0.0068897637795276
0
CIRCLE
8
BLACK
10
3.
20
3.3500000000000001
40
0.0068897637795276
0
CIRCLE
8
BLACK
10
2.8999999999999999
20
3.3500000000000001
40
0.0068897637795276
0
CIRCLE
8
BLACK
10
3.
20
3.4499999999999997
40
0.0068897637795276
0
CIRCLE
8
BLACK
10
2.8999999999999999
20
3.4499999999999997
40
0.0068897637795276
0
CIRCLE
8
BLACK
10
3.
20
3.5499999999999998
40
0.0068897637795276
0
CIRCLE
8
BLACK
10
2.8999999999999999
20
3.5499999999999998
40
0.0068897637795276
0
CIRCLE
8
BLACK
10
0.2
20
3.7999999999999998
40
0.0068897637795276
0
CIRCLE
8
BLACK
10
0.2
20
0.2
40
0.0068897637795276
0
CIRCLE
8
BLACK
10
3.
20
3.7874015748031495
40
0.0068897637795276
0
CIRCLE
8
BLACK
10
3.
20
0.65
40
0.0068897637795276
0
CIRCLE
8
BLACK
10
3.
20
0.75
40
0.0068897637795276
0
CIRCLE
8
BLACK
10
2.8999999999999999
20
0.45
40
0.0068897637795276
0
CIRCLE
8
BLACK
10
2.8999999999999999
20
0.5499999999999999
40
0.0068897637795276
0
CIRCLE
8
BLACK
10
3.
20
0.45
40
0.0068897637795276
0
CIRCLE
8
BLACK
10
3.
20
0.5499999999999999
40
0.0068897637795276
0
CIRCLE
8
BLACK
10
3.1000000000000001
20
0.45
40
0.0068897637795276
0
CIRCLE
8
BLACK
10
3.1000000000000001
20
0.5499999999999999
40
0.0068897637795276
0
CIRCLE
8
BLACK
10
2.1257874015748031
20
1.3
40
0.0068897637795276
0
CIRCLE
8
BLACK
10
0.7242125984251968
20
1.3
40
0.0068897637795276
0
CIRCLE
8
BLACK
10
2.7537401574803151
20
1.3
40
0.0068897637795276
0
CIRCLE
8
BLACK
10
0.096259842519685
20
1.3
40
0.0068897637795276
0
CIRCLE
8
BLACK
10
0.475
20
0.2
40
0.0068897637795276
0
CIRCLE
8
BLACK
10
0.575
20
0.2
40
0.0068897637795276
0
CIRCLE
8
BLACK
10
3.
20
1.925
40
0.0068897637795276
0
CIRCLE
8
BLACK
10
2.8999999999999999
20
1.925
40
0.0068897637795276
0
CIRCLE
8
BLACK
10
2.9499999999999997
20
2.9960999999999998
40
0.0068897637795276
0
CIRCLE
8
BLACK
10
2.9499999999999997
20
2.8039000000000001
40
0.0068897637795276
0
CIRCLE
8
BLACK
10
0.5
20
3.6499999999999999
40
0.0068897637795276
0
CIRCLE
8
BLACK
10
0.5
20
3.75
40
0.0068897637795276
0
CIRCLE
8
BLACK
10
0.9
20
3.6499999999999999
40
0.0068897637795276
0
CIRCLE
8
BLACK
10
0.9
20
3.75
40
0.0068897637795276
0
CIRCLE
8
BLACK
10
0.7999999999999999
20
3.6499999999999999
40
0.0068897637795276
0
CIRCLE
8
BLACK
10
0.7999999999999999
20
3.75
40
0.0068897637795276
0
CIRCLE
8
BLACK
10
0.7
20
3.6499999999999999
40
0.0068897637795276
0
CIRCLE
8
BLACK
10
0.7
20
3.75
40
0.0068897637795276
0
CIRCLE
8
BLACK
10
0.6
20
3.6499999999999999
40
0.0068897637795276
0
CIRCLE
8
BLACK
10
0.6
20
3.75
40
0.0068897637795276
0
CIRCLE
8
BLACK
10
2.2899606299212598
20
0.4651968503937008
40
0.0068897637795276
0
CIRCLE
8
BLACK
10
2.4750000000000001
20
0.4651968503937008
40
0.0068897637795276
0
CIRCLE
8
BLACK
10
2.6600393700787399
20
0.4651968503937008
40
0.0068897637795276
0
CIRCLE
8
BLACK
10
2.2149606299212596
20
0.09
40
0.0068897637795276
0
CIRCLE
8
BLACK
10
2.7350393700787401
20
0.09
40
0.0068897637795276
0
CIRCLE
8
BLACK
10
1.9027559055118111
20
1.3612204724409449
40
0.0068897637795276
0
CIRCLE
8
BLACK
10
1.0759842519685039
20
1.3612204724409449
40
0.0068897637795276
0
CIRCLE
8
BLACK
10
2.5749999999999997
20
1.3946850393700787
40
0.0049212598425197
0
CIRCLE
8
BLACK
10
2.5749999999999997
20
1.3553149606299213
40
0.0049212598425197
0
CIRCLE
8
BLACK
10
1.9027559055118111
20
0.9112204724409448
40
0.0068897637795276
0
CIRCLE
8
BLACK
10
1.0759842519685039
20
0.9112204724409448
40
0.0068897637795276
  0
ENDSEC
  0
EOF
