  0
SECTION
  2
HEADER
  9
$ANGBASE
  50
0.0
  9
$ANGDIR
  70
1
  9
$MEASUREMENT
  70
0
  0
ENDSEC
  0
SECTION
  2
TABLES
  0
TABLE
  2
LTYPE
  70
4
  0
LTYPE
  5
40F
  2
CONTINUOUS
  70
0
  3
Solid line
  72
65
  73
0
  40
0.0
  0
LTYPE
  5
410
  2
DASHDOT
 70
0
  3
Dash Dot ____ _ ____ _
 72
65
 73
4
 40
2.0
 49
1.25
 49
-0.25
 49
0.25
 49
-0.25
  0
LTYPE
  5
411
  2
DASHED
 70
0
  3
Dashed __ __ __ __ __
 72
65
 73
2
 40
0.75
 49
0.5
 49
-0.25
  0
LTYPE
  5
43B
  2
DOTTED
 70
0
  3
Dotted .  .  .  .
 72
65
 73
2
 40
0.2
 49
0.0
 49
-0.2
  0
ENDTAB
  0
TABLE
  2
STYLE
  70
4
  0
STYLE
  2
KICAD
  70
0
  40
0
  41
1
  42
1
  50
0
  71
0
  3
isocp.shx
  0
STYLE
  2
KICADB
  70
0
  40
0
  41
1
  42
1
  50
0
  71
0
  3
isocp.shx
  0
STYLE
  2
KICADI
  70
0
  40
0
  41
1
  42
1
  50
15
  71
0
  3
isocp.shx
  0
STYLE
  2
KICADBI
  70
0
  40
0
  41
1
  42
1
  50
15
  71
0
  3
isocp.shx
  0
ENDTAB
  0
TABLE
  2
LAYER
  70
1
  0
LAYER
  2
BLACK
  70
0
  62
7
  6
CONTINUOUS
  0
ENDTAB
  0
ENDSEC
  0
SECTION
  2
ENTITIES
0
LINE
8
BLACK
6
CONTINUOUS
10
2.0271483070866143
20
1.5119329527559056
11
2.0276809842519685
21
1.5114002755905511
0
LINE
8
BLACK
6
CONTINUOUS
10
2.0276809842519685
20
1.5114002755905511
11
2.0277559055118108
21
1.5110236220472442
0
LINE
8
BLACK
6
CONTINUOUS
10
2.0277559055118108
20
1.5110236220472442
11
2.0277559055118108
21
1.061023622047244
0
LINE
8
BLACK
6
CONTINUOUS
10
2.0277559055118108
20
1.061023622047244
11
2.0277559055118108
21
0.0114173228346457
0
LINE
8
BLACK
6
CONTINUOUS
10
2.0277559055118108
20
0.0114173228346457
11
2.0276809842519685
21
0.0110406692913386
0
LINE
8
BLACK
6
CONTINUOUS
10
2.0276809842519685
20
0.0110406692913386
11
2.0271483070866143
21
0.0105079921259843
0
LINE
8
BLACK
6
CONTINUOUS
10
2.0271483070866143
20
0.0105079921259843
11
2.0267716535433071
21
0.0104330708661417
0
LINE
8
BLACK
6
CONTINUOUS
10
2.0267716535433071
20
0.0104330708661417
11
0.8732283464566929
21
0.0104330708661417
0
LINE
8
BLACK
6
CONTINUOUS
10
0.8732283464566929
20
0.0104330708661417
11
0.8728516929133858
21
0.0105079921259843
0
LINE
8
BLACK
6
CONTINUOUS
10
0.8728516929133858
20
0.0105079921259843
11
0.8723190157480315
21
0.0110406692913386
0
LINE
8
BLACK
6
CONTINUOUS
10
0.8723190157480315
20
0.0110406692913386
11
0.872244094488189
21
0.0114173228346457
0
LINE
8
BLACK
6
CONTINUOUS
10
0.872244094488189
20
0.0114173228346457
11
0.872244094488189
21
1.061023622047244
0
LINE
8
BLACK
6
CONTINUOUS
10
0.872244094488189
20
1.061023622047244
11
0.872244094488189
21
1.5110236220472442
0
LINE
8
BLACK
6
CONTINUOUS
10
0.872244094488189
20
1.5110236220472442
11
0.8723190157480315
21
1.5114002755905511
0
LINE
8
BLACK
6
CONTINUOUS
10
0.8723190157480315
20
1.5114002755905511
11
0.8728516929133858
21
1.5119329527559056
0
LINE
8
BLACK
6
CONTINUOUS
10
0.8728516929133858
20
1.5119329527559056
11
0.8732283464566929
21
1.5120078740157481
0
LINE
8
BLACK
6
CONTINUOUS
10
0.8732283464566929
20
1.5120078740157481
11
2.0267716535433071
21
1.5120078740157481
0
LINE
8
BLACK
6
CONTINUOUS
10
2.0267716535433071
20
1.5120078740157481
11
2.0271483070866143
21
1.5119329527559056
0
LINE
8
BLACK
6
CONTINUOUS
10
0.8742125984251968
20
0.4604330708661417
11
0.8742125984251968
21
0.0124015748031496
0
LINE
8
BLACK
6
CONTINUOUS
10
0.8742125984251968
20
0.0124015748031496
11
2.025787401574803
21
0.0124015748031496
0
LINE
8
BLACK
6
CONTINUOUS
10
2.025787401574803
20
0.0124015748031496
11
2.025787401574803
21
0.4604330708661417
0
LINE
8
BLACK
6
CONTINUOUS
10
2.025787401574803
20
0.4604330708661417
11
0.8742125984251968
21
0.4604330708661417
0
LINE
8
BLACK
6
CONTINUOUS
10
0.8742125984251968
20
1.0600393700787401
11
0.8742125984251968
21
0.4624015748031496
0
LINE
8
BLACK
6
CONTINUOUS
10
0.8742125984251968
20
0.4624015748031496
11
2.025787401574803
21
0.4624015748031496
0
LINE
8
BLACK
6
CONTINUOUS
10
2.025787401574803
20
0.4624015748031496
11
2.025787401574803
21
1.0600393700787401
0
LINE
8
BLACK
6
CONTINUOUS
10
2.025787401574803
20
1.0600393700787401
11
0.8742125984251968
21
1.0600393700787401
0
LINE
8
BLACK
6
CONTINUOUS
10
0.8742125984251968
20
1.5100393700787402
11
0.8742125984251968
21
1.0620078740157479
0
LINE
8
BLACK
6
CONTINUOUS
10
0.8742125984251968
20
1.0620078740157479
11
2.025787401574803
21
1.0620078740157479
0
LINE
8
BLACK
6
CONTINUOUS
10
2.025787401574803
20
1.0620078740157479
11
2.025787401574803
21
1.5100393700787402
0
LINE
8
BLACK
6
CONTINUOUS
10
2.025787401574803
20
1.5100393700787402
11
0.8742125984251968
21
1.5100393700787402
0
LINE
8
BLACK
6
CONTINUOUS
10
2.6383687795275592
20
1.4251219291338582
11
2.6389014566929134
21
1.4245892519685039
0
LINE
8
BLACK
6
CONTINUOUS
10
2.6389014566929134
20
1.4245892519685039
11
2.6389763779527557
21
1.4242125984251968
0
LINE
8
BLACK
6
CONTINUOUS
10
2.6389763779527557
20
1.4242125984251968
11
2.6389763779527557
21
1.325787401574803
0
LINE
8
BLACK
6
CONTINUOUS
10
2.6389763779527557
20
1.325787401574803
11
2.6389014566929134
21
1.3254107480314961
0
LINE
8
BLACK
6
CONTINUOUS
10
2.6389014566929134
20
1.3254107480314961
11
2.6383687795275592
21
1.3248780708661416
0
LINE
8
BLACK
6
CONTINUOUS
10
2.6383687795275592
20
1.3248780708661416
11
2.637992125984252
21
1.3248031496062991
0
LINE
8
BLACK
6
CONTINUOUS
10
2.637992125984252
20
1.3248031496062991
11
2.5120078740157479
21
1.3248031496062991
0
LINE
8
BLACK
6
CONTINUOUS
10
2.5120078740157479
20
1.3248031496062991
11
2.5116312204724407
21
1.3248780708661416
0
LINE
8
BLACK
6
CONTINUOUS
10
2.5116312204724407
20
1.3248780708661416
11
2.5110985433070865
21
1.3254107480314961
0
LINE
8
BLACK
6
CONTINUOUS
10
2.5110985433070865
20
1.3254107480314961
11
2.5110236220472442
21
1.325787401574803
0
LINE
8
BLACK
6
CONTINUOUS
10
2.5110236220472442
20
1.325787401574803
11
2.5110236220472442
21
1.4242125984251968
0
LINE
8
BLACK
6
CONTINUOUS
10
2.5110236220472442
20
1.4242125984251968
11
2.5110985433070865
21
1.4245892519685039
0
LINE
8
BLACK
6
CONTINUOUS
10
2.5110985433070865
20
1.4245892519685039
11
2.5116312204724407
21
1.4251219291338582
0
LINE
8
BLACK
6
CONTINUOUS
10
2.5116312204724407
20
1.4251219291338582
11
2.5120078740157479
21
1.4251968503937007
0
LINE
8
BLACK
6
CONTINUOUS
10
2.5120078740157479
20
1.4251968503937007
11
2.637992125984252
21
1.4251968503937007
0
LINE
8
BLACK
6
CONTINUOUS
10
2.637992125984252
20
1.4251968503937007
11
2.6383687795275592
21
1.4251219291338582
0
LINE
8
BLACK
6
CONTINUOUS
10
2.512992125984252
20
1.4232283464566928
11
2.512992125984252
21
1.326771653543307
0
LINE
8
BLACK
6
CONTINUOUS
10
2.512992125984252
20
1.326771653543307
11
2.6370078740157479
21
1.326771653543307
0
LINE
8
BLACK
6
CONTINUOUS
10
2.6370078740157479
20
1.326771653543307
11
2.6370078740157479
21
1.4232283464566928
0
LINE
8
BLACK
6
CONTINUOUS
10
2.6370078740157479
20
1.4232283464566928
11
2.512992125984252
21
1.4232283464566928
0
LINE
8
BLACK
6
CONTINUOUS
10
2.5915183858267716
20
2.0467754724409448
11
2.5920510629921258
21
2.0462427952755906
0
LINE
8
BLACK
6
CONTINUOUS
10
2.5920510629921258
20
2.0462427952755906
11
2.5921259842519686
21
2.0458661417322834
0
LINE
8
BLACK
6
CONTINUOUS
10
2.5921259842519686
20
2.0458661417322834
11
2.5921259842519686
21
1.9041338582677165
0
LINE
8
BLACK
6
CONTINUOUS
10
2.5921259842519686
20
1.9041338582677165
11
2.5920510629921258
21
1.9037572047244093
0
LINE
8
BLACK
6
CONTINUOUS
10
2.5920510629921258
20
1.9037572047244093
11
2.5915183858267716
21
1.9032245275590551
0
LINE
8
BLACK
6
CONTINUOUS
10
2.5915183858267716
20
1.9032245275590551
11
2.5911417322834644
21
1.9031496062992126
0
LINE
8
BLACK
6
CONTINUOUS
10
2.5911417322834644
20
1.9031496062992126
11
2.3588582677165353
21
1.9031496062992126
0
LINE
8
BLACK
6
CONTINUOUS
10
2.3588582677165353
20
1.9031496062992126
11
2.3584816141732281
21
1.9032245275590551
0
LINE
8
BLACK
6
CONTINUOUS
10
2.3584816141732281
20
1.9032245275590551
11
2.3579489370078739
21
1.9037572047244093
0
LINE
8
BLACK
6
CONTINUOUS
10
2.3579489370078739
20
1.9037572047244093
11
2.3578740157480316
21
1.9041338582677165
0
LINE
8
BLACK
6
CONTINUOUS
10
2.3578740157480316
20
1.9041338582677165
11
2.3578740157480316
21
2.0458661417322834
0
LINE
8
BLACK
6
CONTINUOUS
10
2.3578740157480316
20
2.0458661417322834
11
2.3579489370078739
21
2.0462427952755906
0
LINE
8
BLACK
6
CONTINUOUS
10
2.3579489370078739
20
2.0462427952755906
11
2.3584816141732281
21
2.0467754724409448
0
LINE
8
BLACK
6
CONTINUOUS
10
2.3584816141732281
20
2.0467754724409448
11
2.3588582677165353
21
2.0468503937007871
0
LINE
8
BLACK
6
CONTINUOUS
10
2.3588582677165353
20
2.0468503937007871
11
2.5911417322834644
21
2.0468503937007871
0
LINE
8
BLACK
6
CONTINUOUS
10
2.5911417322834644
20
2.0468503937007871
11
2.5915183858267716
21
2.0467754724409448
0
LINE
8
BLACK
6
CONTINUOUS
10
2.3598425196850394
20
2.0448818897637793
11
2.3598425196850394
21
1.9051181102362205
0
LINE
8
BLACK
6
CONTINUOUS
10
2.3598425196850394
20
1.9051181102362205
11
2.5901574803149607
21
1.9051181102362205
0
LINE
8
BLACK
6
CONTINUOUS
10
2.5901574803149607
20
1.9051181102362205
11
2.5901574803149607
21
2.0448818897637793
0
LINE
8
BLACK
6
CONTINUOUS
10
2.5901574803149607
20
2.0448818897637793
11
2.3598425196850394
21
2.0448818897637793
0
LINE
8
BLACK
6
CONTINUOUS
10
2.6972270472440942
20
2.3072085433070866
11
2.6977597244094489
21
2.3066758661417324
0
LINE
8
BLACK
6
CONTINUOUS
10
2.6977597244094489
20
2.3066758661417324
11
2.6978346456692912
21
2.3062992125984252
0
LINE
8
BLACK
6
CONTINUOUS
10
2.6978346456692912
20
2.3062992125984252
11
2.6978346456692912
21
2.0937007874015747
0
LINE
8
BLACK
6
CONTINUOUS
10
2.6978346456692912
20
2.0937007874015747
11
2.6977597244094489
21
2.0933241338582675
0
LINE
8
BLACK
6
CONTINUOUS
10
2.6977597244094489
20
2.0933241338582675
11
2.6972270472440942
21
2.0927914566929133
0
LINE
8
BLACK
6
CONTINUOUS
10
2.6972270472440942
20
2.0927914566929133
11
2.6968503937007875
21
2.092716535433071
0
LINE
8
BLACK
6
CONTINUOUS
10
2.6968503937007875
20
2.092716535433071
11
2.4031496062992126
21
2.092716535433071
0
LINE
8
BLACK
6
CONTINUOUS
10
2.4031496062992126
20
2.092716535433071
11
2.4027729527559054
21
2.0927914566929133
0
LINE
8
BLACK
6
CONTINUOUS
10
2.4027729527559054
20
2.0927914566929133
11
2.4022402755905512
21
2.0933241338582675
0
LINE
8
BLACK
6
CONTINUOUS
10
2.4022402755905512
20
2.0933241338582675
11
2.4021653543307084
21
2.0937007874015747
0
LINE
8
BLACK
6
CONTINUOUS
10
2.4021653543307084
20
2.0937007874015747
11
2.4021653543307084
21
2.3062992125984252
0
LINE
8
BLACK
6
CONTINUOUS
10
2.4021653543307084
20
2.3062992125984252
11
2.4022402755905512
21
2.3066758661417324
0
LINE
8
BLACK
6
CONTINUOUS
10
2.4022402755905512
20
2.3066758661417324
11
2.4027729527559054
21
2.3072085433070866
0
LINE
8
BLACK
6
CONTINUOUS
10
2.4027729527559054
20
2.3072085433070866
11
2.4031496062992126
21
2.3072834645669289
0
LINE
8
BLACK
6
CONTINUOUS
10
2.4031496062992126
20
2.3072834645669289
11
2.6968503937007875
21
2.3072834645669289
0
LINE
8
BLACK
6
CONTINUOUS
10
2.6968503937007875
20
2.3072834645669289
11
2.6972270472440942
21
2.3072085433070866
0
LINE
8
BLACK
6
CONTINUOUS
10
2.4041338582677163
20
2.305314960629921
11
2.4041338582677163
21
2.0946850393700789
0
LINE
8
BLACK
6
CONTINUOUS
10
2.4041338582677163
20
2.0946850393700789
11
2.6958661417322833
21
2.0946850393700789
0
LINE
8
BLACK
6
CONTINUOUS
10
2.6958661417322833
20
2.0946850393700789
11
2.6958661417322833
21
2.305314960629921
0
LINE
8
BLACK
6
CONTINUOUS
10
2.6958661417322833
20
2.305314960629921
11
2.4041338582677163
21
2.305314960629921
0
LINE
8
BLACK
6
CONTINUOUS
10
2.6374999999999997
20
2.4421064173228344
11
2.6375984251968503
21
2.4421259842519683
0
LINE
8
BLACK
6
CONTINUOUS
10
2.6375984251968503
20
2.4421259842519683
11
2.7124015748031494
21
2.4421259842519683
0
LINE
8
BLACK
6
CONTINUOUS
10
2.7124015748031494
20
2.4421259842519683
11
2.7127782283464565
21
2.4420510629921259
0
LINE
8
BLACK
6
CONTINUOUS
10
2.7127782283464565
20
2.4420510629921259
11
2.7133109055118108
21
2.4415183858267717
0
LINE
8
BLACK
6
CONTINUOUS
10
2.7133109055118108
20
2.4415183858267717
11
2.7133858267716535
21
2.4411417322834645
0
LINE
8
BLACK
6
CONTINUOUS
10
2.7133858267716535
20
2.4411417322834645
11
2.7133858267716535
21
2.3088582677165355
0
LINE
8
BLACK
6
CONTINUOUS
10
2.7133858267716535
20
2.3088582677165355
11
2.7133109055118108
21
2.3084816141732283
0
LINE
8
BLACK
6
CONTINUOUS
10
2.7133109055118108
20
2.3084816141732283
11
2.7127782283464565
21
2.3079489370078741
0
LINE
8
BLACK
6
CONTINUOUS
10
2.7127782283464565
20
2.3079489370078741
11
2.7124015748031494
21
2.3078740157480313
0
LINE
8
BLACK
6
CONTINUOUS
10
2.7124015748031494
20
2.3078740157480313
11
2.6375984251968503
21
2.3078740157480313
0
LINE
8
BLACK
6
CONTINUOUS
10
2.6375984251968503
20
2.3078740157480313
11
2.6374999999999997
21
2.3078936220472439
0
LINE
8
BLACK
6
CONTINUOUS
10
2.6374999999999997
20
2.3078936220472439
11
2.6374015748031496
21
2.3078740157480313
0
LINE
8
BLACK
6
CONTINUOUS
10
2.6374015748031496
20
2.3078740157480313
11
2.5625984251968505
21
2.3078740157480313
0
LINE
8
BLACK
6
CONTINUOUS
10
2.5625984251968505
20
2.3078740157480313
11
2.5622217716535434
21
2.3079489370078741
0
LINE
8
BLACK
6
CONTINUOUS
10
2.5622217716535434
20
2.3079489370078741
11
2.5616890944881887
21
2.3084816141732283
0
LINE
8
BLACK
6
CONTINUOUS
10
2.5616890944881887
20
2.3084816141732283
11
2.5616141732283464
21
2.3088582677165355
0
LINE
8
BLACK
6
CONTINUOUS
10
2.5616141732283464
20
2.3088582677165355
11
2.5616141732283464
21
2.4411417322834645
0
LINE
8
BLACK
6
CONTINUOUS
10
2.5616141732283464
20
2.4411417322834645
11
2.5616890944881887
21
2.4415183858267717
0
LINE
8
BLACK
6
CONTINUOUS
10
2.5616890944881887
20
2.4415183858267717
11
2.5622217716535434
21
2.4420510629921259
0
LINE
8
BLACK
6
CONTINUOUS
10
2.5622217716535434
20
2.4420510629921259
11
2.5625984251968505
21
2.4421259842519683
0
LINE
8
BLACK
6
CONTINUOUS
10
2.5625984251968505
20
2.4421259842519683
11
2.6374015748031496
21
2.4421259842519683
0
LINE
8
BLACK
6
CONTINUOUS
10
2.6374015748031496
20
2.4421259842519683
11
2.6374999999999997
21
2.4421064173228344
0
LINE
8
BLACK
6
CONTINUOUS
10
2.6385826771653544
20
2.4401574803149604
11
2.6385826771653544
21
2.3098425196850392
0
LINE
8
BLACK
6
CONTINUOUS
10
2.6385826771653544
20
2.3098425196850392
11
2.7114173228346456
21
2.3098425196850392
0
LINE
8
BLACK
6
CONTINUOUS
10
2.7114173228346456
20
2.3098425196850392
11
2.7114173228346456
21
2.4401574803149604
0
LINE
8
BLACK
6
CONTINUOUS
10
2.7114173228346456
20
2.4401574803149604
11
2.6385826771653544
21
2.4401574803149604
0
LINE
8
BLACK
6
CONTINUOUS
10
2.5635826771653543
20
2.4401574803149604
11
2.5635826771653543
21
2.3098425196850392
0
LINE
8
BLACK
6
CONTINUOUS
10
2.5635826771653543
20
2.3098425196850392
11
2.6364173228346455
21
2.3098425196850392
0
LINE
8
BLACK
6
CONTINUOUS
10
2.6364173228346455
20
2.3098425196850392
11
2.6364173228346455
21
2.4401574803149604
0
LINE
8
BLACK
6
CONTINUOUS
10
2.6364173228346455
20
2.4401574803149604
11
2.5635826771653543
21
2.4401574803149604
0
LINE
8
BLACK
6
CONTINUOUS
10
2.5290183858267716
20
2.388310905511811
11
2.5295510629921258
21
2.3877782283464568
0
LINE
8
BLACK
6
CONTINUOUS
10
2.5295510629921258
20
2.3877782283464568
11
2.5296259842519686
21
2.3874015748031496
0
LINE
8
BLACK
6
CONTINUOUS
10
2.5296259842519686
20
2.3874015748031496
11
2.5296259842519686
21
2.3125984251968505
0
LINE
8
BLACK
6
CONTINUOUS
10
2.5296259842519686
20
2.3125984251968505
11
2.5295510629921258
21
2.3122217716535434
0
LINE
8
BLACK
6
CONTINUOUS
10
2.5295510629921258
20
2.3122217716535434
11
2.5290183858267716
21
2.3116890944881887
0
LINE
8
BLACK
6
CONTINUOUS
10
2.5290183858267716
20
2.3116890944881887
11
2.5286417322834644
21
2.3116141732283464
0
LINE
8
BLACK
6
CONTINUOUS
10
2.5286417322834644
20
2.3116141732283464
11
2.3963582677165354
21
2.3116141732283464
0
LINE
8
BLACK
6
CONTINUOUS
10
2.3963582677165354
20
2.3116141732283464
11
2.3959816141732282
21
2.3116890944881887
0
LINE
8
BLACK
6
CONTINUOUS
10
2.3959816141732282
20
2.3116890944881887
11
2.395448937007874
21
2.3122217716535434
0
LINE
8
BLACK
6
CONTINUOUS
10
2.395448937007874
20
2.3122217716535434
11
2.3953740157480317
21
2.3125984251968505
0
LINE
8
BLACK
6
CONTINUOUS
10
2.3953740157480317
20
2.3125984251968505
11
2.3953740157480317
21
2.3874015748031496
0
LINE
8
BLACK
6
CONTINUOUS
10
2.3953740157480317
20
2.3874015748031496
11
2.395448937007874
21
2.3877782283464568
0
LINE
8
BLACK
6
CONTINUOUS
10
2.395448937007874
20
2.3877782283464568
11
2.3959816141732282
21
2.388310905511811
0
LINE
8
BLACK
6
CONTINUOUS
10
2.3959816141732282
20
2.388310905511811
11
2.3963582677165354
21
2.3883858267716533
0
LINE
8
BLACK
6
CONTINUOUS
10
2.3963582677165354
20
2.3883858267716533
11
2.5286417322834644
21
2.3883858267716533
0
LINE
8
BLACK
6
CONTINUOUS
10
2.5286417322834644
20
2.3883858267716533
11
2.5290183858267716
21
2.388310905511811
0
LINE
8
BLACK
6
CONTINUOUS
10
2.3973425196850395
20
2.3864173228346455
11
2.3973425196850395
21
2.3135826771653543
0
LINE
8
BLACK
6
CONTINUOUS
10
2.3973425196850395
20
2.3135826771653543
11
2.5276574803149607
21
2.3135826771653543
0
LINE
8
BLACK
6
CONTINUOUS
10
2.5276574803149607
20
2.3135826771653543
11
2.5276574803149607
21
2.3864173228346455
0
LINE
8
BLACK
6
CONTINUOUS
10
2.5276574803149607
20
2.3864173228346455
11
2.3973425196850395
21
2.3864173228346455
0
LINE
8
BLACK
6
CONTINUOUS
10
2.5127782283464568
20
2.5295510629921258
11
2.513310905511811
21
2.5290183858267716
0
LINE
8
BLACK
6
CONTINUOUS
10
2.513310905511811
20
2.5290183858267716
11
2.5133858267716533
21
2.5286417322834644
0
LINE
8
BLACK
6
CONTINUOUS
10
2.5133858267716533
20
2.5286417322834644
11
2.5133858267716533
21
2.3963582677165354
0
LINE
8
BLACK
6
CONTINUOUS
10
2.5133858267716533
20
2.3963582677165354
11
2.513310905511811
21
2.3959816141732282
0
LINE
8
BLACK
6
CONTINUOUS
10
2.513310905511811
20
2.3959816141732282
11
2.5127782283464568
21
2.395448937007874
0
LINE
8
BLACK
6
CONTINUOUS
10
2.5127782283464568
20
2.395448937007874
11
2.5124015748031496
21
2.3953740157480317
0
LINE
8
BLACK
6
CONTINUOUS
10
2.5124015748031496
20
2.3953740157480317
11
2.4375984251968505
21
2.3953740157480317
0
LINE
8
BLACK
6
CONTINUOUS
10
2.4375984251968505
20
2.3953740157480317
11
2.4372217716535434
21
2.395448937007874
0
LINE
8
BLACK
6
CONTINUOUS
10
2.4372217716535434
20
2.395448937007874
11
2.4366890944881887
21
2.3959816141732282
0
LINE
8
BLACK
6
CONTINUOUS
10
2.4366890944881887
20
2.3959816141732282
11
2.4366141732283464
21
2.3963582677165354
0
LINE
8
BLACK
6
CONTINUOUS
10
2.4366141732283464
20
2.3963582677165354
11
2.4366141732283464
21
2.5286417322834644
0
LINE
8
BLACK
6
CONTINUOUS
10
2.4366141732283464
20
2.5286417322834644
11
2.4366890944881887
21
2.5290183858267716
0
LINE
8
BLACK
6
CONTINUOUS
10
2.4366890944881887
20
2.5290183858267716
11
2.4372217716535434
21
2.5295510629921258
0
LINE
8
BLACK
6
CONTINUOUS
10
2.4372217716535434
20
2.5295510629921258
11
2.4375984251968505
21
2.5296259842519686
0
LINE
8
BLACK
6
CONTINUOUS
10
2.4375984251968505
20
2.5296259842519686
11
2.5124015748031496
21
2.5296259842519686
0
LINE
8
BLACK
6
CONTINUOUS
10
2.5124015748031496
20
2.5296259842519686
11
2.5127782283464568
21
2.5295510629921258
0
LINE
8
BLACK
6
CONTINUOUS
10
2.4385826771653543
20
2.5276574803149607
11
2.4385826771653543
21
2.3973425196850395
0
LINE
8
BLACK
6
CONTINUOUS
10
2.4385826771653543
20
2.3973425196850395
11
2.5114173228346455
21
2.3973425196850395
0
LINE
8
BLACK
6
CONTINUOUS
10
2.5114173228346455
20
2.3973425196850395
11
2.5114173228346455
21
2.5276574803149607
0
LINE
8
BLACK
6
CONTINUOUS
10
2.5114173228346455
20
2.5276574803149607
11
2.4385826771653543
21
2.5276574803149607
0
LINE
8
BLACK
6
CONTINUOUS
10
2.4127782283464567
20
2.5545510629921258
11
2.4133109055118109
21
2.5540183858267715
0
LINE
8
BLACK
6
CONTINUOUS
10
2.4133109055118109
20
2.5540183858267715
11
2.4133858267716537
21
2.5536417322834644
0
LINE
8
BLACK
6
CONTINUOUS
10
2.4133858267716537
20
2.5536417322834644
11
2.4133858267716537
21
2.4213582677165353
0
LINE
8
BLACK
6
CONTINUOUS
10
2.4133858267716537
20
2.4213582677165353
11
2.4133109055118109
21
2.4209816141732281
0
LINE
8
BLACK
6
CONTINUOUS
10
2.4133109055118109
20
2.4209816141732281
11
2.4127782283464567
21
2.4204489370078739
0
LINE
8
BLACK
6
CONTINUOUS
10
2.4127782283464567
20
2.4204489370078739
11
2.4124015748031495
21
2.4203740157480316
0
LINE
8
BLACK
6
CONTINUOUS
10
2.4124015748031495
20
2.4203740157480316
11
2.3375984251968505
21
2.4203740157480316
0
LINE
8
BLACK
6
CONTINUOUS
10
2.3375984251968505
20
2.4203740157480316
11
2.3372217716535433
21
2.4204489370078739
0
LINE
8
BLACK
6
CONTINUOUS
10
2.3372217716535433
20
2.4204489370078739
11
2.3366890944881891
21
2.4209816141732281
0
LINE
8
BLACK
6
CONTINUOUS
10
2.3366890944881891
20
2.4209816141732281
11
2.3366141732283463
21
2.4213582677165353
0
LINE
8
BLACK
6
CONTINUOUS
10
2.3366141732283463
20
2.4213582677165353
11
2.3366141732283463
21
2.5536417322834644
0
LINE
8
BLACK
6
CONTINUOUS
10
2.3366141732283463
20
2.5536417322834644
11
2.3366890944881891
21
2.5540183858267715
0
LINE
8
BLACK
6
CONTINUOUS
10
2.3366890944881891
20
2.5540183858267715
11
2.3372217716535433
21
2.5545510629921258
0
LINE
8
BLACK
6
CONTINUOUS
10
2.3372217716535433
20
2.5545510629921258
11
2.3375984251968505
21
2.5546259842519685
0
LINE
8
BLACK
6
CONTINUOUS
10
2.3375984251968505
20
2.5546259842519685
11
2.4124015748031495
21
2.5546259842519685
0
LINE
8
BLACK
6
CONTINUOUS
10
2.4124015748031495
20
2.5546259842519685
11
2.4127782283464567
21
2.5545510629921258
0
LINE
8
BLACK
6
CONTINUOUS
10
2.3385826771653542
20
2.5526574803149606
11
2.3385826771653542
21
2.4223425196850394
0
LINE
8
BLACK
6
CONTINUOUS
10
2.3385826771653542
20
2.4223425196850394
11
2.4114173228346458
21
2.4223425196850394
0
LINE
8
BLACK
6
CONTINUOUS
10
2.4114173228346458
20
2.4223425196850394
11
2.4114173228346458
21
2.5526574803149606
0
LINE
8
BLACK
6
CONTINUOUS
10
2.4114173228346458
20
2.5526574803149606
11
2.3385826771653542
21
2.5526574803149606
0
LINE
8
BLACK
6
CONTINUOUS
10
2.4891561811023624
20
3.4896888582677166
11
2.4896888582677166
21
3.4891561811023619
0
LINE
8
BLACK
6
CONTINUOUS
10
2.4896888582677166
20
3.4891561811023619
11
2.4897637795275589
21
3.4887795275590552
0
LINE
8
BLACK
6
CONTINUOUS
10
2.4897637795275589
20
3.4887795275590552
11
2.4897637795275589
21
2.961220472440945
0
LINE
8
BLACK
6
CONTINUOUS
10
2.4897637795275589
20
2.961220472440945
11
2.4896888582677166
21
2.9608438188976378
0
LINE
8
BLACK
6
CONTINUOUS
10
2.4896888582677166
20
2.9608438188976378
11
2.4891561811023624
21
2.9603111417322836
0
LINE
8
BLACK
6
CONTINUOUS
10
2.4891561811023624
20
2.9603111417322836
11
2.4887795275590552
21
2.9602362204724408
0
LINE
8
BLACK
6
CONTINUOUS
10
2.4887795275590552
20
2.9602362204724408
11
1.9612204724409448
21
2.9602362204724408
0
LINE
8
BLACK
6
CONTINUOUS
10
1.9612204724409448
20
2.9602362204724408
11
1.9608438188976378
21
2.9603111417322836
0
LINE
8
BLACK
6
CONTINUOUS
10
1.9608438188976378
20
2.9603111417322836
11
1.9603111417322834
21
2.9608438188976378
0
LINE
8
BLACK
6
CONTINUOUS
10
1.9603111417322834
20
2.9608438188976378
11
1.9602362204724408
21
2.961220472440945
0
LINE
8
BLACK
6
CONTINUOUS
10
1.9602362204724408
20
2.961220472440945
11
1.9602362204724408
21
3.4887795275590552
0
LINE
8
BLACK
6
CONTINUOUS
10
1.9602362204724408
20
3.4887795275590552
11
1.9603111417322834
21
3.4891561811023619
0
LINE
8
BLACK
6
CONTINUOUS
10
1.9603111417322834
20
3.4891561811023619
11
1.9608438188976378
21
3.4896888582677166
0
LINE
8
BLACK
6
CONTINUOUS
10
1.9608438188976378
20
3.4896888582677166
11
1.9612204724409448
21
3.4897637795275589
0
LINE
8
BLACK
6
CONTINUOUS
10
1.9612204724409448
20
3.4897637795275589
11
2.4887795275590552
21
3.4897637795275589
0
LINE
8
BLACK
6
CONTINUOUS
10
2.4887795275590552
20
3.4897637795275589
11
2.4891561811023624
21
3.4896888582677166
0
LINE
8
BLACK
6
CONTINUOUS
10
1.9622047244094487
20
3.487795275590551
11
1.9622047244094487
21
2.9622047244094487
0
LINE
8
BLACK
6
CONTINUOUS
10
1.9622047244094487
20
2.9622047244094487
11
2.487795275590551
21
2.9622047244094487
0
LINE
8
BLACK
6
CONTINUOUS
10
2.487795275590551
20
2.9622047244094487
11
2.487795275590551
21
3.487795275590551
0
LINE
8
BLACK
6
CONTINUOUS
10
2.487795275590551
20
3.487795275590551
11
1.9622047244094487
21
3.487795275590551
0
LINE
8
BLACK
6
CONTINUOUS
10
1.2191758661417322
20
3.4323069685039371
11
1.2197085433070867
21
3.4317742913385825
0
LINE
8
BLACK
6
CONTINUOUS
10
1.2197085433070867
20
3.4317742913385825
11
1.2197834645669292
21
3.4313976377952753
0
LINE
8
BLACK
6
CONTINUOUS
10
1.2197834645669292
20
3.4313976377952753
11
1.2197834645669292
21
3.2936023622047244
0
LINE
8
BLACK
6
CONTINUOUS
10
1.2197834645669292
20
3.2936023622047244
11
1.2197085433070867
21
3.2932257086614172
0
LINE
8
BLACK
6
CONTINUOUS
10
1.2197085433070867
20
3.2932257086614172
11
1.2191758661417322
21
3.292693031496063
0
LINE
8
BLACK
6
CONTINUOUS
10
1.2191758661417322
20
3.292693031496063
11
1.2187992125984253
21
3.2926181102362202
0
LINE
8
BLACK
6
CONTINUOUS
10
1.2187992125984253
20
3.2926181102362202
11
1.0849409448818896
21
3.2926181102362202
0
LINE
8
BLACK
6
CONTINUOUS
10
1.0849409448818896
20
3.2926181102362202
11
1.0845642913385827
21
3.292693031496063
0
LINE
8
BLACK
6
CONTINUOUS
10
1.0845642913385827
20
3.292693031496063
11
1.0840316141732282
21
3.2932257086614172
0
LINE
8
BLACK
6
CONTINUOUS
10
1.0840316141732282
20
3.2932257086614172
11
1.0839566929133857
21
3.2936023622047244
0
LINE
8
BLACK
6
CONTINUOUS
10
1.0839566929133857
20
3.2936023622047244
11
1.0839566929133857
21
3.4313976377952753
0
LINE
8
BLACK
6
CONTINUOUS
10
1.0839566929133857
20
3.4313976377952753
11
1.0840316141732282
21
3.4317742913385825
0
LINE
8
BLACK
6
CONTINUOUS
10
1.0840316141732282
20
3.4317742913385825
11
1.0845642913385827
21
3.4323069685039371
0
LINE
8
BLACK
6
CONTINUOUS
10
1.0845642913385827
20
3.4323069685039371
11
1.0849409448818896
21
3.4323818897637794
0
LINE
8
BLACK
6
CONTINUOUS
10
1.0849409448818896
20
3.4323818897637794
11
1.2187992125984253
21
3.4323818897637794
0
LINE
8
BLACK
6
CONTINUOUS
10
1.2187992125984253
20
3.4323818897637794
11
1.2191758661417322
21
3.4323069685039371
0
LINE
8
BLACK
6
CONTINUOUS
10
1.0859251968503936
20
3.4304133858267716
11
1.0859251968503936
21
3.2945866141732281
0
LINE
8
BLACK
6
CONTINUOUS
10
1.0859251968503936
20
3.2945866141732281
11
1.2178149606299213
21
3.2945866141732281
0
LINE
8
BLACK
6
CONTINUOUS
10
1.2178149606299213
20
3.2945866141732281
11
1.2178149606299213
21
3.4304133858267716
0
LINE
8
BLACK
6
CONTINUOUS
10
1.2178149606299213
20
3.4304133858267716
11
1.0859251968503936
21
3.4304133858267716
0
LINE
8
BLACK
6
CONTINUOUS
10
1.5048057874015748
20
3.4323069685039371
11
1.505338464566929
21
3.4317742913385825
0
LINE
8
BLACK
6
CONTINUOUS
10
1.505338464566929
20
3.4317742913385825
11
1.5054133858267715
21
3.4313976377952753
0
LINE
8
BLACK
6
CONTINUOUS
10
1.5054133858267715
20
3.4313976377952753
11
1.5054133858267715
21
3.2936023622047244
0
LINE
8
BLACK
6
CONTINUOUS
10
1.5054133858267715
20
3.2936023622047244
11
1.505338464566929
21
3.2932257086614172
0
LINE
8
BLACK
6
CONTINUOUS
10
1.505338464566929
20
3.2932257086614172
11
1.5048057874015748
21
3.292693031496063
0
LINE
8
BLACK
6
CONTINUOUS
10
1.5048057874015748
20
3.292693031496063
11
1.5044291338582676
21
3.2926181102362202
0
LINE
8
BLACK
6
CONTINUOUS
10
1.5044291338582676
20
3.2926181102362202
11
1.3705708661417322
21
3.2926181102362202
0
LINE
8
BLACK
6
CONTINUOUS
10
1.3705708661417322
20
3.2926181102362202
11
1.3701942125984252
21
3.292693031496063
0
LINE
8
BLACK
6
CONTINUOUS
10
1.3701942125984252
20
3.292693031496063
11
1.3696615354330708
21
3.2932257086614172
0
LINE
8
BLACK
6
CONTINUOUS
10
1.3696615354330708
20
3.2932257086614172
11
1.3695866141732282
21
3.2936023622047244
0
LINE
8
BLACK
6
CONTINUOUS
10
1.3695866141732282
20
3.2936023622047244
11
1.3695866141732282
21
3.4313976377952753
0
LINE
8
BLACK
6
CONTINUOUS
10
1.3695866141732282
20
3.4313976377952753
11
1.3696615354330708
21
3.4317742913385825
0
LINE
8
BLACK
6
CONTINUOUS
10
1.3696615354330708
20
3.4317742913385825
11
1.3701942125984252
21
3.4323069685039371
0
LINE
8
BLACK
6
CONTINUOUS
10
1.3701942125984252
20
3.4323069685039371
11
1.3705708661417322
21
3.4323818897637794
0
LINE
8
BLACK
6
CONTINUOUS
10
1.3705708661417322
20
3.4323818897637794
11
1.5044291338582676
21
3.4323818897637794
0
LINE
8
BLACK
6
CONTINUOUS
10
1.5044291338582676
20
3.4323818897637794
11
1.5048057874015748
21
3.4323069685039371
0
LINE
8
BLACK
6
CONTINUOUS
10
1.3715551181102361
20
3.4304133858267716
11
1.3715551181102361
21
3.2945866141732281
0
LINE
8
BLACK
6
CONTINUOUS
10
1.3715551181102361
20
3.2945866141732281
11
1.5034448818897637
21
3.2945866141732281
0
LINE
8
BLACK
6
CONTINUOUS
10
1.5034448818897637
20
3.2945866141732281
11
1.5034448818897637
21
3.4304133858267716
0
LINE
8
BLACK
6
CONTINUOUS
10
1.5034448818897637
20
3.4304133858267716
11
1.3715551181102361
21
3.4304133858267716
0
CIRCLE
8
BLACK
10
2.1749999999999998
20
3.6499999999999999
40
0.0068897637795276
0
CIRCLE
8
BLACK
10
2.1749999999999998
20
3.75
40
0.0068897637795276
0
CIRCLE
8
BLACK
10
2.1257874015748031
20
2.7999999999999998
40
0.0068897637795276
0
CIRCLE
8
BLACK
10
0.7242125984251968
20
2.7999999999999998
40
0.0068897637795276
0
CIRCLE
8
BLACK
10
2.7537401574803151
20
2.7999999999999998
40
0.0068897637795276
0
CIRCLE
8
BLACK
10
0.096259842519685
20
2.7999999999999998
40
0.0068897637795276
0
CIRCLE
8
BLACK
10
1.9749999999999999
20
3.6499999999999999
40
0.0068897637795276
0
CIRCLE
8
BLACK
10
1.9749999999999999
20
3.75
40
0.0068897637795276
0
CIRCLE
8
BLACK
10
3.
20
1.825
40
0.0068897637795276
0
CIRCLE
8
BLACK
10
2.8999999999999999
20
1.825
40
0.0068897637795276
0
CIRCLE
8
BLACK
10
1.875
20
3.6499999999999999
40
0.0068897637795276
0
CIRCLE
8
BLACK
10
1.875
20
3.75
40
0.0068897637795276
0
CIRCLE
8
BLACK
10
2.8999999999999999
20
2.2749999999999999
40
0.0068897637795276
0
CIRCLE
8
BLACK
10
3.
20
2.2749999999999999
40
0.0068897637795276
0
CIRCLE
8
BLACK
10
2.8999999999999999
20
2.5749999999999997
40
0.0068897637795276
0
CIRCLE
8
BLACK
10
3.
20
2.5749999999999997
40
0.0068897637795276
0
CIRCLE
8
BLACK
10
2.8999999999999999
20
2.375
40
0.0068897637795276
0
CIRCLE
8
BLACK
10
3.
20
2.375
40
0.0068897637795276
0
CIRCLE
8
BLACK
10
2.8999999999999999
20
2.4750000000000001
40
0.0068897637795276
0
CIRCLE
8
BLACK
10
3.
20
2.4750000000000001
40
0.0068897637795276
0
CIRCLE
8
BLACK
10
3.
20
1.7249999999999999
40
0.0068897637795276
0
CIRCLE
8
BLACK
10
2.8999999999999999
20
1.7249999999999999
40
0.0068897637795276
0
CIRCLE
8
BLACK
10
3.
20
2.0249999999999999
40
0.0068897637795276
0
CIRCLE
8
BLACK
10
2.8999999999999999
20
2.0249999999999999
40
0.0068897637795276
0
CIRCLE
8
BLACK
10
3.
20
2.125
40
0.0068897637795276
0
CIRCLE
8
BLACK
10
2.8999999999999999
20
2.125
40
0.0068897637795276
0
CIRCLE
8
BLACK
10
2.8999999999999999
20
0.85
40
0.0068897637795276
0
CIRCLE
8
BLACK
10
2.8999999999999999
20
0.95
40
0.0068897637795276
0
CIRCLE
8
BLACK
10
3.
20
0.85
40
0.0068897637795276
0
CIRCLE
8
BLACK
10
3.
20
0.95
40
0.0068897637795276
0
CIRCLE
8
BLACK
10
3.1000000000000001
20
0.85
40
0.0068897637795276
0
CIRCLE
8
BLACK
10
3.1000000000000001
20
0.95
40
0.0068897637795276
0
CIRCLE
8
BLACK
10
3.
20
3.1999999999999997
40
0.0068897637795276
0
CIRCLE
8
BLACK
10
2.8999999999999999
20
3.1999999999999997
40
0.0068897637795276
0
CIRCLE
8
BLACK
10
1.575
20
3.6499999999999999
40
0.0068897637795276
0
CIRCLE
8
BLACK
10
1.575
20
3.75
40
0.0068897637795276
0
CIRCLE
8
BLACK
10
3.
20
1.1499999999999999
40
0.0068897637795276
0
CIRCLE
8
BLACK
10
2.8999999999999999
20
1.1499999999999999
40
0.0068897637795276
0
CIRCLE
8
BLACK
10
3.
20
1.25
40
0.0068897637795276
0
CIRCLE
8
BLACK
10
2.8999999999999999
20
1.25
40
0.0068897637795276
0
CIRCLE
8
BLACK
10
3.
20
1.3499999999999999
40
0.0068897637795276
0
CIRCLE
8
BLACK
10
2.8999999999999999
20
1.3499999999999999
40
0.0068897637795276
0
CIRCLE
8
BLACK
10
0.775
20
0.35
40
0.0068897637795276
0
CIRCLE
8
BLACK
10
0.775
20
0.25
40
0.0068897637795276
0
CIRCLE
8
BLACK
10
2.8999999999999999
20
1.4749999999999999
40
0.0068897637795276
0
CIRCLE
8
BLACK
10
3.
20
1.4749999999999999
40
0.0068897637795276
0
CIRCLE
8
BLACK
10
1.7749999999999999
20
3.6499999999999999
40
0.0068897637795276
0
CIRCLE
8
BLACK
10
1.7749999999999999
20
3.75
40
0.0068897637795276
0
CIRCLE
8
BLACK
10
2.0749999999999997
20
3.6499999999999999
40
0.0068897637795276
0
CIRCLE
8
BLACK
10
2.0749999999999997
20
3.75
40
0.0068897637795276
0
CIRCLE
8
BLACK
10
2.5749999999999997
20
3.6499999999999999
40
0.0068897637795276
0
CIRCLE
8
BLACK
10
2.5749999999999997
20
3.75
40
0.0068897637795276
0
CIRCLE
8
BLACK
10
2.6749999999999998
20
3.6499999999999999
40
0.0068897637795276
0
CIRCLE
8
BLACK
10
2.6749999999999998
20
3.75
40
0.0068897637795276
0
CIRCLE
8
BLACK
10
2.4750000000000001
20
3.6499999999999999
40
0.0068897637795276
0
CIRCLE
8
BLACK
10
2.4750000000000001
20
3.75
40
0.0068897637795276
0
CIRCLE
8
BLACK
10
2.8999999999999999
20
1.575
40
0.0068897637795276
0
CIRCLE
8
BLACK
10
3.
20
1.575
40
0.0068897637795276
0
CIRCLE
8
BLACK
10
3.
20
3.3500000000000001
40
0.0068897637795276
0
CIRCLE
8
BLACK
10
2.8999999999999999
20
3.3500000000000001
40
0.0068897637795276
0
CIRCLE
8
BLACK
10
3.
20
3.4499999999999997
40
0.0068897637795276
0
CIRCLE
8
BLACK
10
2.8999999999999999
20
3.4499999999999997
40
0.0068897637795276
0
CIRCLE
8
BLACK
10
3.
20
3.5499999999999998
40
0.0068897637795276
0
CIRCLE
8
BLACK
10
2.8999999999999999
20
3.5499999999999998
40
0.0068897637795276
0
CIRCLE
8
BLACK
10
0.2
20
3.7999999999999998
40
0.0068897637795276
0
CIRCLE
8
BLACK
10
0.2
20
0.2
40
0.0068897637795276
0
CIRCLE
8
BLACK
10
3.
20
3.7874015748031495
40
0.0068897637795276
0
CIRCLE
8
BLACK
10
3.
20
0.65
40
0.0068897637795276
0
CIRCLE
8
BLACK
10
3.
20
0.75
40
0.0068897637795276
0
CIRCLE
8
BLACK
10
2.8999999999999999
20
0.45
40
0.0068897637795276
0
CIRCLE
8
BLACK
10
2.8999999999999999
20
0.5499999999999999
40
0.0068897637795276
0
CIRCLE
8
BLACK
10
3.
20
0.45
40
0.0068897637795276
0
CIRCLE
8
BLACK
10
3.
20
0.5499999999999999
40
0.0068897637795276
0
CIRCLE
8
BLACK
10
3.1000000000000001
20
0.45
40
0.0068897637795276
0
CIRCLE
8
BLACK
10
3.1000000000000001
20
0.5499999999999999
40
0.0068897637795276
0
CIRCLE
8
BLACK
10
2.1257874015748031
20
1.3
40
0.0068897637795276
0
CIRCLE
8
BLACK
10
0.7242125984251968
20
1.3
40
0.0068897637795276
0
CIRCLE
8
BLACK
10
2.7537401574803151
20
1.3
40
0.0068897637795276
0
CIRCLE
8
BLACK
10
0.096259842519685
20
1.3
40
0.0068897637795276
0
CIRCLE
8
BLACK
10
0.475
20
0.2
40
0.0068897637795276
0
CIRCLE
8
BLACK
10
0.575
20
0.2
40
0.0068897637795276
0
CIRCLE
8
BLACK
10
3.
20
1.925
40
0.0068897637795276
0
CIRCLE
8
BLACK
10
2.8999999999999999
20
1.925
40
0.0068897637795276
0
CIRCLE
8
BLACK
10
2.9499999999999997
20
2.9960999999999998
40
0.0068897637795276
0
CIRCLE
8
BLACK
10
2.9499999999999997
20
2.8039000000000001
40
0.0068897637795276
0
CIRCLE
8
BLACK
10
0.5
20
3.6499999999999999
40
0.0068897637795276
0
CIRCLE
8
BLACK
10
0.5
20
3.75
40
0.0068897637795276
0
CIRCLE
8
BLACK
10
0.9
20
3.6499999999999999
40
0.0068897637795276
0
CIRCLE
8
BLACK
10
0.9
20
3.75
40
0.0068897637795276
0
CIRCLE
8
BLACK
10
0.7999999999999999
20
3.6499999999999999
40
0.0068897637795276
0
CIRCLE
8
BLACK
10
0.7999999999999999
20
3.75
40
0.0068897637795276
0
CIRCLE
8
BLACK
10
0.7
20
3.6499999999999999
40
0.0068897637795276
0
CIRCLE
8
BLACK
10
0.7
20
3.75
40
0.0068897637795276
0
CIRCLE
8
BLACK
10
0.6
20
3.6499999999999999
40
0.0068897637795276
0
CIRCLE
8
BLACK
10
0.6
20
3.75
40
0.0068897637795276
0
CIRCLE
8
BLACK
10
2.2899606299212598
20
0.4651968503937008
40
0.0068897637795276
0
CIRCLE
8
BLACK
10
2.4750000000000001
20
0.4651968503937008
40
0.0068897637795276
0
CIRCLE
8
BLACK
10
2.6600393700787399
20
0.4651968503937008
40
0.0068897637795276
0
CIRCLE
8
BLACK
10
2.2149606299212596
20
0.09
40
0.0068897637795276
0
CIRCLE
8
BLACK
10
2.7350393700787401
20
0.09
40
0.0068897637795276
0
CIRCLE
8
BLACK
10
1.9027559055118111
20
1.3612204724409449
40
0.0068897637795276
0
CIRCLE
8
BLACK
10
1.0759842519685039
20
1.3612204724409449
40
0.0068897637795276
0
CIRCLE
8
BLACK
10
2.5749999999999997
20
1.3946850393700787
40
0.0049212598425197
0
CIRCLE
8
BLACK
10
2.5749999999999997
20
1.3553149606299213
40
0.0049212598425197
0
CIRCLE
8
BLACK
10
1.9027559055118111
20
0.9112204724409448
40
0.0068897637795276
0
CIRCLE
8
BLACK
10
1.0759842519685039
20
0.9112204724409448
40
0.0068897637795276
  0
ENDSEC
  0
EOF
