  0
SECTION
  2
HEADER
  9
$ANGBASE
  50
0.0
  9
$ANGDIR
  70
1
  9
$MEASUREMENT
  70
0
  0
ENDSEC
  0
SECTION
  2
TABLES
  0
TABLE
  2
LTYPE
  70
4
  0
LTYPE
  5
40F
  2
CONTINUOUS
  70
0
  3
Solid line
  72
65
  73
0
  40
0.0
  0
LTYPE
  5
410
  2
DASHDOT
 70
0
  3
Dash Dot ____ _ ____ _
 72
65
 73
4
 40
2.0
 49
1.25
 49
-0.25
 49
0.25
 49
-0.25
  0
LTYPE
  5
411
  2
DASHED
 70
0
  3
Dashed __ __ __ __ __
 72
65
 73
2
 40
0.75
 49
0.5
 49
-0.25
  0
LTYPE
  5
43B
  2
DOTTED
 70
0
  3
Dotted .  .  .  .
 72
65
 73
2
 40
0.2
 49
0.0
 49
-0.2
  0
ENDTAB
  0
TABLE
  2
STYLE
  70
4
  0
STYLE
  2
KICAD
  70
0
  40
0
  41
1
  42
1
  50
0
  71
0
  3
isocp.shx
  0
STYLE
  2
KICADB
  70
0
  40
0
  41
1
  42
1
  50
0
  71
0
  3
isocp.shx
  0
STYLE
  2
KICADI
  70
0
  40
0
  41
1
  42
1
  50
15
  71
0
  3
isocp.shx
  0
STYLE
  2
KICADBI
  70
0
  40
0
  41
1
  42
1
  50
15
  71
0
  3
isocp.shx
  0
ENDTAB
  0
TABLE
  2
LAYER
  70
1
  0
LAYER
  2
BLACK
  70
0
  62
7
  6
CONTINUOUS
  0
ENDTAB
  0
ENDSEC
  0
SECTION
  2
ENTITIES
0
LINE
8
BLACK
6
CONTINUOUS
10
1.3735262598425197
20
0.783310905511811
11
1.374058937007874
21
0.7827782283464567
0
LINE
8
BLACK
6
CONTINUOUS
10
1.374058937007874
20
0.7827782283464567
11
1.3741338582677165
21
0.7824015748031495
0
LINE
8
BLACK
6
CONTINUOUS
10
1.3741338582677165
20
0.7824015748031495
11
1.3741338582677165
21
0.6288582677165354
0
LINE
8
BLACK
6
CONTINUOUS
10
1.3741338582677165
20
0.6288582677165354
11
1.374058937007874
21
0.6284816141732283
0
LINE
8
BLACK
6
CONTINUOUS
10
1.374058937007874
20
0.6284816141732283
11
1.3735262598425197
21
0.627948937007874
0
LINE
8
BLACK
6
CONTINUOUS
10
1.3735262598425197
20
0.627948937007874
11
1.3731496062992126
21
0.6278740157480315
0
LINE
8
BLACK
6
CONTINUOUS
10
1.3731496062992126
20
0.6278740157480315
11
1.2668503937007873
21
0.6278740157480315
0
LINE
8
BLACK
6
CONTINUOUS
10
1.2668503937007873
20
0.6278740157480315
11
1.2664737401574804
21
0.627948937007874
0
LINE
8
BLACK
6
CONTINUOUS
10
1.2664737401574804
20
0.627948937007874
11
1.2659410629921259
21
0.6284816141732283
0
LINE
8
BLACK
6
CONTINUOUS
10
1.2659410629921259
20
0.6284816141732283
11
1.2658661417322834
21
0.6288582677165354
0
LINE
8
BLACK
6
CONTINUOUS
10
1.2658661417322834
20
0.6288582677165354
11
1.2658661417322834
21
0.7824015748031495
0
LINE
8
BLACK
6
CONTINUOUS
10
1.2658661417322834
20
0.7824015748031495
11
1.2659410629921259
21
0.7827782283464567
0
LINE
8
BLACK
6
CONTINUOUS
10
1.2659410629921259
20
0.7827782283464567
11
1.2664737401574804
21
0.783310905511811
0
LINE
8
BLACK
6
CONTINUOUS
10
1.2664737401574804
20
0.783310905511811
11
1.2668503937007873
21
0.7833858267716535
0
LINE
8
BLACK
6
CONTINUOUS
10
1.2668503937007873
20
0.7833858267716535
11
1.3731496062992126
21
0.7833858267716535
0
LINE
8
BLACK
6
CONTINUOUS
10
1.3731496062992126
20
0.7833858267716535
11
1.3735262598425197
21
0.783310905511811
0
LINE
8
BLACK
6
CONTINUOUS
10
1.2678346456692913
20
0.7814173228346456
11
1.2678346456692913
21
0.6298425196850393
0
LINE
8
BLACK
6
CONTINUOUS
10
1.2678346456692913
20
0.6298425196850393
11
1.3721653543307086
21
0.6298425196850393
0
LINE
8
BLACK
6
CONTINUOUS
10
1.3721653543307086
20
0.6298425196850393
11
1.3721653543307086
21
0.7814173228346456
0
LINE
8
BLACK
6
CONTINUOUS
10
1.3721653543307086
20
0.7814173228346456
11
1.2678346456692913
21
0.7814173228346456
0
LINE
8
BLACK
6
CONTINUOUS
10
1.2532112992125983
20
0.7572479133858268
11
1.2537439763779528
21
0.7567152362204724
0
LINE
8
BLACK
6
CONTINUOUS
10
1.2537439763779528
20
0.7567152362204724
11
1.2538188976377953
21
0.7563385826771654
0
LINE
8
BLACK
6
CONTINUOUS
10
1.2538188976377953
20
0.7563385826771654
11
1.2538188976377953
21
0.6539763779527559
0
LINE
8
BLACK
6
CONTINUOUS
10
1.2538188976377953
20
0.6539763779527559
11
1.2537439763779528
21
0.6535997244094488
0
LINE
8
BLACK
6
CONTINUOUS
10
1.2537439763779528
20
0.6535997244094488
11
1.2532112992125983
21
0.6530670472440945
0
LINE
8
BLACK
6
CONTINUOUS
10
1.2532112992125983
20
0.6530670472440945
11
1.2528346456692914
21
0.6529921259842519
0
LINE
8
BLACK
6
CONTINUOUS
10
1.2528346456692914
20
0.6529921259842519
11
1.1488976377952755
21
0.6529921259842519
0
LINE
8
BLACK
6
CONTINUOUS
10
1.1488976377952755
20
0.6529921259842519
11
1.1485209842519686
21
0.6530670472440945
0
LINE
8
BLACK
6
CONTINUOUS
10
1.1485209842519686
20
0.6530670472440945
11
1.1479883070866141
21
0.6535997244094488
0
LINE
8
BLACK
6
CONTINUOUS
10
1.1479883070866141
20
0.6535997244094488
11
1.1479133858267716
21
0.6539763779527559
0
LINE
8
BLACK
6
CONTINUOUS
10
1.1479133858267716
20
0.6539763779527559
11
1.1479133858267716
21
0.7563385826771654
0
LINE
8
BLACK
6
CONTINUOUS
10
1.1479133858267716
20
0.7563385826771654
11
1.1479883070866141
21
0.7567152362204724
0
LINE
8
BLACK
6
CONTINUOUS
10
1.1479883070866141
20
0.7567152362204724
11
1.1485209842519686
21
0.7572479133858268
0
LINE
8
BLACK
6
CONTINUOUS
10
1.1485209842519686
20
0.7572479133858268
11
1.1488976377952755
21
0.7573228346456693
0
LINE
8
BLACK
6
CONTINUOUS
10
1.1488976377952755
20
0.7573228346456693
11
1.2528346456692914
21
0.7573228346456693
0
LINE
8
BLACK
6
CONTINUOUS
10
1.2528346456692914
20
0.7573228346456693
11
1.2532112992125983
21
0.7572479133858268
0
LINE
8
BLACK
6
CONTINUOUS
10
1.1498818897637795
20
0.7553543307086614
11
1.1498818897637795
21
0.6549606299212598
0
LINE
8
BLACK
6
CONTINUOUS
10
1.1498818897637795
20
0.6549606299212598
11
1.2518503937007874
21
0.6549606299212598
0
LINE
8
BLACK
6
CONTINUOUS
10
1.2518503937007874
20
0.6549606299212598
11
1.2518503937007874
21
0.7553543307086614
0
LINE
8
BLACK
6
CONTINUOUS
10
1.2518503937007874
20
0.7553543307086614
11
1.1498818897637795
21
0.7553543307086614
0
LINE
8
BLACK
6
CONTINUOUS
10
-0.2307453937007874
20
1.0988620866141732
11
-0.2302127165354331
21
1.098329409448819
0
LINE
8
BLACK
6
CONTINUOUS
10
-0.2302127165354331
20
1.098329409448819
11
-0.2301377952755906
21
1.0979527559055118
0
LINE
8
BLACK
6
CONTINUOUS
10
-0.2301377952755906
20
1.0979527559055118
11
-0.2301377952755906
21
0.8223622047244095
0
LINE
8
BLACK
6
CONTINUOUS
10
-0.2301377952755906
20
0.8223622047244095
11
-0.2302127165354331
21
0.8219855511811024
0
LINE
8
BLACK
6
CONTINUOUS
10
-0.2302127165354331
20
0.8219855511811024
11
-0.2307453937007874
21
0.821452874015748
0
LINE
8
BLACK
6
CONTINUOUS
10
-0.2307453937007874
20
0.821452874015748
11
-0.2311220472440945
21
0.8213779527559055
0
LINE
8
BLACK
6
CONTINUOUS
10
-0.2311220472440945
20
0.8213779527559055
11
-0.5342716535433071
21
0.8213779527559055
0
LINE
8
BLACK
6
CONTINUOUS
10
-0.5342716535433071
20
0.8213779527559055
11
-0.5346483070866141
21
0.821452874015748
0
LINE
8
BLACK
6
CONTINUOUS
10
-0.5346483070866141
20
0.821452874015748
11
-0.5351809842519685
21
0.8219855511811024
0
LINE
8
BLACK
6
CONTINUOUS
10
-0.5351809842519685
20
0.8219855511811024
11
-0.535255905511811
21
0.8223622047244095
0
LINE
8
BLACK
6
CONTINUOUS
10
-0.535255905511811
20
0.8223622047244095
11
-0.535255905511811
21
1.0979527559055118
0
LINE
8
BLACK
6
CONTINUOUS
10
-0.535255905511811
20
1.0979527559055118
11
-0.5351809842519685
21
1.098329409448819
0
LINE
8
BLACK
6
CONTINUOUS
10
-0.5351809842519685
20
1.098329409448819
11
-0.5346483070866141
21
1.0988620866141732
0
LINE
8
BLACK
6
CONTINUOUS
10
-0.5346483070866141
20
1.0988620866141732
11
-0.5342716535433071
21
1.0989370078740157
0
LINE
8
BLACK
6
CONTINUOUS
10
-0.5342716535433071
20
1.0989370078740157
11
-0.2311220472440945
21
1.0989370078740157
0
LINE
8
BLACK
6
CONTINUOUS
10
-0.2311220472440945
20
1.0989370078740157
11
-0.2307453937007874
21
1.0988620866141732
0
LINE
8
BLACK
6
CONTINUOUS
10
-0.5332874015748031
20
1.0969685039370078
11
-0.5332874015748031
21
0.8233464566929134
0
LINE
8
BLACK
6
CONTINUOUS
10
-0.5332874015748031
20
0.8233464566929134
11
-0.2321062992125984
21
0.8233464566929134
0
LINE
8
BLACK
6
CONTINUOUS
10
-0.2321062992125984
20
0.8233464566929134
11
-0.2321062992125984
21
1.0969685039370078
0
LINE
8
BLACK
6
CONTINUOUS
10
-0.2321062992125984
20
1.0969685039370078
11
-0.5332874015748031
21
1.0969685039370078
0
LINE
8
BLACK
6
CONTINUOUS
10
1.7911640551181103
20
1.2932321653543306
11
1.7916967322834645
21
1.2926994881889764
0
LINE
8
BLACK
6
CONTINUOUS
10
1.7916967322834645
20
1.2926994881889764
11
1.791771653543307
21
1.2923228346456692
0
LINE
8
BLACK
6
CONTINUOUS
10
1.791771653543307
20
1.2923228346456692
11
1.791771653543307
21
0.827755905511811
0
LINE
8
BLACK
6
CONTINUOUS
10
1.791771653543307
20
0.827755905511811
11
1.7916967322834645
21
0.8273792519685039
0
LINE
8
BLACK
6
CONTINUOUS
10
1.7916967322834645
20
0.8273792519685039
11
1.7911640551181103
21
0.8268465748031496
0
LINE
8
BLACK
6
CONTINUOUS
10
1.7911640551181103
20
0.8268465748031496
11
1.7907874015748031
21
0.8267716535433071
0
LINE
8
BLACK
6
CONTINUOUS
10
1.7907874015748031
20
0.8267716535433071
11
1.4010236220472441
21
0.8267716535433071
0
LINE
8
BLACK
6
CONTINUOUS
10
1.4010236220472441
20
0.8267716535433071
11
1.4006469685039369
21
0.8268465748031496
0
LINE
8
BLACK
6
CONTINUOUS
10
1.4006469685039369
20
0.8268465748031496
11
1.4001142913385827
21
0.8273792519685039
0
LINE
8
BLACK
6
CONTINUOUS
10
1.4001142913385827
20
0.8273792519685039
11
1.4000393700787401
21
0.827755905511811
0
LINE
8
BLACK
6
CONTINUOUS
10
1.4000393700787401
20
0.827755905511811
11
1.4000393700787401
21
1.2923228346456692
0
LINE
8
BLACK
6
CONTINUOUS
10
1.4000393700787401
20
1.2923228346456692
11
1.4001142913385827
21
1.2926994881889764
0
LINE
8
BLACK
6
CONTINUOUS
10
1.4001142913385827
20
1.2926994881889764
11
1.4006469685039369
21
1.2932321653543306
0
LINE
8
BLACK
6
CONTINUOUS
10
1.4006469685039369
20
1.2932321653543306
11
1.4010236220472441
21
1.2933070866141732
0
LINE
8
BLACK
6
CONTINUOUS
10
1.4010236220472441
20
1.2933070866141732
11
1.7907874015748031
21
1.2933070866141732
0
LINE
8
BLACK
6
CONTINUOUS
10
1.7907874015748031
20
1.2933070866141732
11
1.7911640551181103
21
1.2932321653543306
0
LINE
8
BLACK
6
CONTINUOUS
10
1.402007874015748
20
1.2913385826771653
11
1.402007874015748
21
0.8287401574803149
0
LINE
8
BLACK
6
CONTINUOUS
10
1.402007874015748
20
0.8287401574803149
11
1.7898031496062992
21
0.8287401574803149
0
LINE
8
BLACK
6
CONTINUOUS
10
1.7898031496062992
20
0.8287401574803149
11
1.7898031496062992
21
1.2913385826771653
0
LINE
8
BLACK
6
CONTINUOUS
10
1.7898031496062992
20
1.2913385826771653
11
1.402007874015748
21
1.2913385826771653
0
LINE
8
BLACK
6
CONTINUOUS
10
0.1420301968503937
20
1.1059880708661418
11
0.142562874015748
21
1.1054553937007874
0
LINE
8
BLACK
6
CONTINUOUS
10
0.142562874015748
20
1.1054553937007874
11
0.1426377952755905
21
1.1050787401574802
0
LINE
8
BLACK
6
CONTINUOUS
10
0.1426377952755905
20
1.1050787401574802
11
0.1426377952755905
21
0.9436614173228346
0
LINE
8
BLACK
6
CONTINUOUS
10
0.1426377952755905
20
0.9436614173228346
11
0.142562874015748
21
0.9432847637795275
0
LINE
8
BLACK
6
CONTINUOUS
10
0.142562874015748
20
0.9432847637795275
11
0.1420301968503937
21
0.9427520866141732
0
LINE
8
BLACK
6
CONTINUOUS
10
0.1420301968503937
20
0.9427520866141732
11
0.1416535433070866
21
0.9426771653543307
0
LINE
8
BLACK
6
CONTINUOUS
10
0.1416535433070866
20
0.9426771653543307
11
-0.0197637795275591
21
0.9426771653543307
0
LINE
8
BLACK
6
CONTINUOUS
10
-0.0197637795275591
20
0.9426771653543307
11
-0.0201404330708661
21
0.9427520866141732
0
LINE
8
BLACK
6
CONTINUOUS
10
-0.0201404330708661
20
0.9427520866141732
11
-0.0206731102362205
21
0.9432847637795275
0
LINE
8
BLACK
6
CONTINUOUS
10
-0.0206731102362205
20
0.9432847637795275
11
-0.020748031496063
21
0.9436614173228346
0
LINE
8
BLACK
6
CONTINUOUS
10
-0.020748031496063
20
0.9436614173228346
11
-0.020748031496063
21
1.1050787401574802
0
LINE
8
BLACK
6
CONTINUOUS
10
-0.020748031496063
20
1.1050787401574802
11
-0.0206731102362205
21
1.1054553937007874
0
LINE
8
BLACK
6
CONTINUOUS
10
-0.0206731102362205
20
1.1054553937007874
11
-0.0201404330708661
21
1.1059880708661418
0
LINE
8
BLACK
6
CONTINUOUS
10
-0.0201404330708661
20
1.1059880708661418
11
-0.0197637795275591
21
1.1060629921259841
0
LINE
8
BLACK
6
CONTINUOUS
10
-0.0197637795275591
20
1.1060629921259841
11
0.1416535433070866
21
1.1060629921259841
0
LINE
8
BLACK
6
CONTINUOUS
10
0.1416535433070866
20
1.1060629921259841
11
0.1420301968503937
21
1.1059880708661418
0
LINE
8
BLACK
6
CONTINUOUS
10
-0.0187795275590551
20
1.1040944881889763
11
-0.0187795275590551
21
0.9446456692913385
0
LINE
8
BLACK
6
CONTINUOUS
10
-0.0187795275590551
20
0.9446456692913385
11
0.1406692913385827
21
0.9446456692913385
0
LINE
8
BLACK
6
CONTINUOUS
10
0.1406692913385827
20
0.9446456692913385
11
0.1406692913385827
21
1.1040944881889763
0
LINE
8
BLACK
6
CONTINUOUS
10
0.1406692913385827
20
1.1040944881889763
11
-0.0187795275590551
21
1.1040944881889763
0
LINE
8
BLACK
6
CONTINUOUS
10
-0.7310800393700787
20
1.1779959448818897
11
-0.7305473622047244
21
1.1774632677165353
0
LINE
8
BLACK
6
CONTINUOUS
10
-0.7305473622047244
20
1.1774632677165353
11
-0.7304724409448818
21
1.1770866141732284
0
LINE
8
BLACK
6
CONTINUOUS
10
-0.7304724409448818
20
1.1770866141732284
11
-0.7304724409448818
21
0.9605511811023622
0
LINE
8
BLACK
6
CONTINUOUS
10
-0.7304724409448818
20
0.9605511811023622
11
-0.7305473622047244
21
0.9601745275590551
0
LINE
8
BLACK
6
CONTINUOUS
10
-0.7305473622047244
20
0.9601745275590551
11
-0.7310800393700787
21
0.9596418503937008
0
LINE
8
BLACK
6
CONTINUOUS
10
-0.7310800393700787
20
0.9596418503937008
11
-0.7314566929133858
21
0.9595669291338582
0
LINE
8
BLACK
6
CONTINUOUS
10
-0.7314566929133858
20
0.9595669291338582
11
-0.8731889763779528
21
0.9595669291338582
0
LINE
8
BLACK
6
CONTINUOUS
10
-0.8731889763779528
20
0.9595669291338582
11
-0.8735656299212599
21
0.9596418503937008
0
LINE
8
BLACK
6
CONTINUOUS
10
-0.8735656299212599
20
0.9596418503937008
11
-0.8740983070866142
21
0.9601745275590551
0
LINE
8
BLACK
6
CONTINUOUS
10
-0.8740983070866142
20
0.9601745275590551
11
-0.8741732283464567
21
0.9605511811023622
0
LINE
8
BLACK
6
CONTINUOUS
10
-0.8741732283464567
20
0.9605511811023622
11
-0.8741732283464567
21
1.1770866141732284
0
LINE
8
BLACK
6
CONTINUOUS
10
-0.8741732283464567
20
1.1770866141732284
11
-0.8740983070866142
21
1.1774632677165353
0
LINE
8
BLACK
6
CONTINUOUS
10
-0.8740983070866142
20
1.1774632677165353
11
-0.8735656299212599
21
1.1779959448818897
0
LINE
8
BLACK
6
CONTINUOUS
10
-0.8735656299212599
20
1.1779959448818897
11
-0.8731889763779528
21
1.1780708661417323
0
LINE
8
BLACK
6
CONTINUOUS
10
-0.8731889763779528
20
1.1780708661417323
11
-0.7314566929133858
21
1.1780708661417323
0
LINE
8
BLACK
6
CONTINUOUS
10
-0.7314566929133858
20
1.1780708661417323
11
-0.7310800393700787
21
1.1779959448818897
0
LINE
8
BLACK
6
CONTINUOUS
10
-0.8722047244094489
20
1.1761023622047244
11
-0.8722047244094489
21
0.9615354330708661
0
LINE
8
BLACK
6
CONTINUOUS
10
-0.8722047244094489
20
0.9615354330708661
11
-0.7324409448818897
21
0.9615354330708661
0
LINE
8
BLACK
6
CONTINUOUS
10
-0.7324409448818897
20
0.9615354330708661
11
-0.7324409448818897
21
1.1761023622047244
0
LINE
8
BLACK
6
CONTINUOUS
10
-0.7324409448818897
20
1.1761023622047244
11
-0.8722047244094489
21
1.1761023622047244
0
LINE
8
BLACK
6
CONTINUOUS
10
1.2235262598425196
20
1.1633109055118109
11
1.224058937007874
21
1.1627782283464567
0
LINE
8
BLACK
6
CONTINUOUS
10
1.224058937007874
20
1.1627782283464567
11
1.2241338582677166
21
1.1624015748031495
0
LINE
8
BLACK
6
CONTINUOUS
10
1.2241338582677166
20
1.1624015748031495
11
1.2241338582677166
21
1.0088582677165354
0
LINE
8
BLACK
6
CONTINUOUS
10
1.2241338582677166
20
1.0088582677165354
11
1.224058937007874
21
1.0084816141732282
0
LINE
8
BLACK
6
CONTINUOUS
10
1.224058937007874
20
1.0084816141732282
11
1.2235262598425196
21
1.007948937007874
0
LINE
8
BLACK
6
CONTINUOUS
10
1.2235262598425196
20
1.007948937007874
11
1.2231496062992127
21
1.0078740157480315
0
LINE
8
BLACK
6
CONTINUOUS
10
1.2231496062992127
20
1.0078740157480315
11
1.1168503937007874
21
1.0078740157480315
0
LINE
8
BLACK
6
CONTINUOUS
10
1.1168503937007874
20
1.0078740157480315
11
1.1164737401574802
21
1.007948937007874
0
LINE
8
BLACK
6
CONTINUOUS
10
1.1164737401574802
20
1.007948937007874
11
1.115941062992126
21
1.0084816141732282
0
LINE
8
BLACK
6
CONTINUOUS
10
1.115941062992126
20
1.0084816141732282
11
1.1158661417322835
21
1.0088582677165354
0
LINE
8
BLACK
6
CONTINUOUS
10
1.1158661417322835
20
1.0088582677165354
11
1.1158661417322835
21
1.1624015748031495
0
LINE
8
BLACK
6
CONTINUOUS
10
1.1158661417322835
20
1.1624015748031495
11
1.115941062992126
21
1.1627782283464567
0
LINE
8
BLACK
6
CONTINUOUS
10
1.115941062992126
20
1.1627782283464567
11
1.1164737401574802
21
1.1633109055118109
0
LINE
8
BLACK
6
CONTINUOUS
10
1.1164737401574802
20
1.1633109055118109
11
1.1168503937007874
21
1.1633858267716535
0
LINE
8
BLACK
6
CONTINUOUS
10
1.1168503937007874
20
1.1633858267716535
11
1.2231496062992127
21
1.1633858267716535
0
LINE
8
BLACK
6
CONTINUOUS
10
1.2231496062992127
20
1.1633858267716535
11
1.2235262598425196
21
1.1633109055118109
0
LINE
8
BLACK
6
CONTINUOUS
10
1.1178346456692914
20
1.1614173228346456
11
1.1178346456692914
21
1.0098425196850394
0
LINE
8
BLACK
6
CONTINUOUS
10
1.1178346456692914
20
1.0098425196850394
11
1.2221653543307087
21
1.0098425196850394
0
LINE
8
BLACK
6
CONTINUOUS
10
1.2221653543307087
20
1.0098425196850394
11
1.2221653543307087
21
1.1614173228346456
0
LINE
8
BLACK
6
CONTINUOUS
10
1.2221653543307087
20
1.1614173228346456
11
1.1178346456692914
21
1.1614173228346456
0
LINE
8
BLACK
6
CONTINUOUS
10
1.1132112992125984
20
1.1349250787401575
11
1.1137439763779526
21
1.134392401574803
0
LINE
8
BLACK
6
CONTINUOUS
10
1.1137439763779526
20
1.134392401574803
11
1.1138188976377952
21
1.1340157480314961
0
LINE
8
BLACK
6
CONTINUOUS
10
1.1138188976377952
20
1.1340157480314961
11
1.1138188976377952
21
1.0316535433070866
0
LINE
8
BLACK
6
CONTINUOUS
10
1.1138188976377952
20
1.0316535433070866
11
1.1137439763779526
21
1.0312768897637794
0
LINE
8
BLACK
6
CONTINUOUS
10
1.1137439763779526
20
1.0312768897637794
11
1.1132112992125984
21
1.0307442125984252
0
LINE
8
BLACK
6
CONTINUOUS
10
1.1132112992125984
20
1.0307442125984252
11
1.1128346456692912
21
1.0306692913385826
0
LINE
8
BLACK
6
CONTINUOUS
10
1.1128346456692912
20
1.0306692913385826
11
1.0088976377952756
21
1.0306692913385826
0
LINE
8
BLACK
6
CONTINUOUS
10
1.0088976377952756
20
1.0306692913385826
11
1.0085209842519685
21
1.0307442125984252
0
LINE
8
BLACK
6
CONTINUOUS
10
1.0085209842519685
20
1.0307442125984252
11
1.0079883070866142
21
1.0312768897637794
0
LINE
8
BLACK
6
CONTINUOUS
10
1.0079883070866142
20
1.0312768897637794
11
1.0079133858267717
21
1.0316535433070866
0
LINE
8
BLACK
6
CONTINUOUS
10
1.0079133858267717
20
1.0316535433070866
11
1.0079133858267717
21
1.1340157480314961
0
LINE
8
BLACK
6
CONTINUOUS
10
1.0079133858267717
20
1.1340157480314961
11
1.0079883070866142
21
1.134392401574803
0
LINE
8
BLACK
6
CONTINUOUS
10
1.0079883070866142
20
1.134392401574803
11
1.0085209842519685
21
1.1349250787401575
0
LINE
8
BLACK
6
CONTINUOUS
10
1.0085209842519685
20
1.1349250787401575
11
1.0088976377952756
21
1.135
0
LINE
8
BLACK
6
CONTINUOUS
10
1.0088976377952756
20
1.135
11
1.1128346456692912
21
1.135
0
LINE
8
BLACK
6
CONTINUOUS
10
1.1128346456692912
20
1.135
11
1.1132112992125984
21
1.1349250787401575
0
LINE
8
BLACK
6
CONTINUOUS
10
1.0098818897637796
20
1.1330314960629921
11
1.0098818897637796
21
1.0326377952755905
0
LINE
8
BLACK
6
CONTINUOUS
10
1.0098818897637796
20
1.0326377952755905
11
1.1118503937007873
21
1.0326377952755905
0
LINE
8
BLACK
6
CONTINUOUS
10
1.1118503937007873
20
1.0326377952755905
11
1.1118503937007873
21
1.1330314960629921
0
LINE
8
BLACK
6
CONTINUOUS
10
1.1118503937007873
20
1.1330314960629921
11
1.0098818897637796
21
1.1330314960629921
0
LINE
8
BLACK
6
CONTINUOUS
10
1.6569120866141731
20
1.4548069685039369
11
1.6574447637795275
21
1.4542742913385827
0
LINE
8
BLACK
6
CONTINUOUS
10
1.6574447637795275
20
1.4542742913385827
11
1.6575196850393701
21
1.4538976377952755
0
LINE
8
BLACK
6
CONTINUOUS
10
1.6575196850393701
20
1.4538976377952755
11
1.6575196850393701
21
1.3161023622047243
0
LINE
8
BLACK
6
CONTINUOUS
10
1.6575196850393701
20
1.3161023622047243
11
1.6574447637795275
21
1.3157257086614174
0
LINE
8
BLACK
6
CONTINUOUS
10
1.6574447637795275
20
1.3157257086614174
11
1.6569120866141731
21
1.3151930314960629
0
LINE
8
BLACK
6
CONTINUOUS
10
1.6569120866141731
20
1.3151930314960629
11
1.6565354330708661
21
1.3151181102362204
0
LINE
8
BLACK
6
CONTINUOUS
10
1.6565354330708661
20
1.3151181102362204
11
1.3809448818897638
21
1.3151181102362204
0
LINE
8
BLACK
6
CONTINUOUS
10
1.3809448818897638
20
1.3151181102362204
11
1.3805682283464566
21
1.3151930314960629
0
LINE
8
BLACK
6
CONTINUOUS
10
1.3805682283464566
20
1.3151930314960629
11
1.3800355511811024
21
1.3157257086614174
0
LINE
8
BLACK
6
CONTINUOUS
10
1.3800355511811024
20
1.3157257086614174
11
1.3799606299212599
21
1.3161023622047243
0
LINE
8
BLACK
6
CONTINUOUS
10
1.3799606299212599
20
1.3161023622047243
11
1.3799606299212599
21
1.4538976377952755
0
LINE
8
BLACK
6
CONTINUOUS
10
1.3799606299212599
20
1.4538976377952755
11
1.3800355511811024
21
1.4542742913385827
0
LINE
8
BLACK
6
CONTINUOUS
10
1.3800355511811024
20
1.4542742913385827
11
1.3805682283464566
21
1.4548069685039369
0
LINE
8
BLACK
6
CONTINUOUS
10
1.3805682283464566
20
1.4548069685039369
11
1.3809448818897638
21
1.4548818897637794
0
LINE
8
BLACK
6
CONTINUOUS
10
1.3809448818897638
20
1.4548818897637794
11
1.6565354330708661
21
1.4548818897637794
0
LINE
8
BLACK
6
CONTINUOUS
10
1.6565354330708661
20
1.4548818897637794
11
1.6569120866141731
21
1.4548069685039369
0
LINE
8
BLACK
6
CONTINUOUS
10
1.3819291338582678
20
1.4529133858267715
11
1.3819291338582678
21
1.3170866141732283
0
LINE
8
BLACK
6
CONTINUOUS
10
1.3819291338582678
20
1.3170866141732283
11
1.6555511811023622
21
1.3170866141732283
0
LINE
8
BLACK
6
CONTINUOUS
10
1.6555511811023622
20
1.3170866141732283
11
1.6555511811023622
21
1.4529133858267715
0
LINE
8
BLACK
6
CONTINUOUS
10
1.6555511811023622
20
1.4529133858267715
11
1.3819291338582678
21
1.4529133858267715
0
LINE
8
BLACK
6
CONTINUOUS
10
-1.3009422440944882
20
1.462838464566929
11
-1.3004095669291338
21
1.4623057874015748
0
LINE
8
BLACK
6
CONTINUOUS
10
-1.3004095669291338
20
1.4623057874015748
11
-1.3003346456692912
21
1.4619291338582676
0
LINE
8
BLACK
6
CONTINUOUS
10
-1.3003346456692912
20
1.4619291338582676
11
-1.3003346456692912
21
1.3280708661417322
0
LINE
8
BLACK
6
CONTINUOUS
10
-1.3003346456692912
20
1.3280708661417322
11
-1.3004095669291338
21
1.3276942125984252
0
LINE
8
BLACK
6
CONTINUOUS
10
-1.3004095669291338
20
1.3276942125984252
11
-1.3009422440944882
21
1.3271615354330708
0
LINE
8
BLACK
6
CONTINUOUS
10
-1.3009422440944882
20
1.3271615354330708
11
-1.3013188976377952
21
1.3270866141732283
0
LINE
8
BLACK
6
CONTINUOUS
10
-1.3013188976377952
20
1.3270866141732283
11
-1.4524999999999999
21
1.3270866141732283
0
LINE
8
BLACK
6
CONTINUOUS
10
-1.4524999999999999
20
1.3270866141732283
11
-1.4528766535433071
21
1.3271615354330708
0
LINE
8
BLACK
6
CONTINUOUS
10
-1.4528766535433071
20
1.3271615354330708
11
-1.4534093307086613
21
1.3276942125984252
0
LINE
8
BLACK
6
CONTINUOUS
10
-1.4534093307086613
20
1.3276942125984252
11
-1.4534842519685038
21
1.3280708661417322
0
LINE
8
BLACK
6
CONTINUOUS
10
-1.4534842519685038
20
1.3280708661417322
11
-1.4534842519685038
21
1.4619291338582676
0
LINE
8
BLACK
6
CONTINUOUS
10
-1.4534842519685038
20
1.4619291338582676
11
-1.4534093307086613
21
1.4623057874015748
0
LINE
8
BLACK
6
CONTINUOUS
10
-1.4534093307086613
20
1.4623057874015748
11
-1.4528766535433071
21
1.462838464566929
0
LINE
8
BLACK
6
CONTINUOUS
10
-1.4528766535433071
20
1.462838464566929
11
-1.4524999999999999
21
1.4629133858267716
0
LINE
8
BLACK
6
CONTINUOUS
10
-1.4524999999999999
20
1.4629133858267716
11
-1.3013188976377952
21
1.4629133858267716
0
LINE
8
BLACK
6
CONTINUOUS
10
-1.3013188976377952
20
1.4629133858267716
11
-1.3009422440944882
21
1.462838464566929
0
LINE
8
BLACK
6
CONTINUOUS
10
-1.451515748031496
20
1.4609448818897637
11
-1.451515748031496
21
1.3290551181102361
0
LINE
8
BLACK
6
CONTINUOUS
10
-1.451515748031496
20
1.3290551181102361
11
-1.3023031496062991
21
1.3290551181102361
0
LINE
8
BLACK
6
CONTINUOUS
10
-1.3023031496062991
20
1.3290551181102361
11
-1.3023031496062991
21
1.4609448818897637
0
LINE
8
BLACK
6
CONTINUOUS
10
-1.3023031496062991
20
1.4609448818897637
11
-1.451515748031496
21
1.4609448818897637
0
LINE
8
BLACK
6
CONTINUOUS
10
1.3472270472440944
20
1.5750431889763779
11
1.3477597244094488
21
1.5745105118110236
0
LINE
8
BLACK
6
CONTINUOUS
10
1.3477597244094488
20
1.5745105118110236
11
1.3478346456692913
21
1.5741338582677165
0
LINE
8
BLACK
6
CONTINUOUS
10
1.3478346456692913
20
1.5741338582677165
11
1.3478346456692913
21
1.3875196850393701
0
LINE
8
BLACK
6
CONTINUOUS
10
1.3478346456692913
20
1.3875196850393701
11
1.3477597244094488
21
1.3871430314960629
0
LINE
8
BLACK
6
CONTINUOUS
10
1.3477597244094488
20
1.3871430314960629
11
1.3472270472440944
21
1.3866103543307087
0
LINE
8
BLACK
6
CONTINUOUS
10
1.3472270472440944
20
1.3866103543307087
11
1.3468503937007874
21
1.3865354330708661
0
LINE
8
BLACK
6
CONTINUOUS
10
1.3468503937007874
20
1.3865354330708661
11
1.1318897637795275
21
1.3865354330708661
0
LINE
8
BLACK
6
CONTINUOUS
10
1.1318897637795275
20
1.3865354330708661
11
1.1315131102362204
21
1.3866103543307087
0
LINE
8
BLACK
6
CONTINUOUS
10
1.1315131102362204
20
1.3866103543307087
11
1.1309804330708662
21
1.3871430314960629
0
LINE
8
BLACK
6
CONTINUOUS
10
1.1309804330708662
20
1.3871430314960629
11
1.1309055118110236
21
1.3875196850393701
0
LINE
8
BLACK
6
CONTINUOUS
10
1.1309055118110236
20
1.3875196850393701
11
1.1309055118110236
21
1.5741338582677165
0
LINE
8
BLACK
6
CONTINUOUS
10
1.1309055118110236
20
1.5741338582677165
11
1.1309804330708662
21
1.5745105118110236
0
LINE
8
BLACK
6
CONTINUOUS
10
1.1309804330708662
20
1.5745105118110236
11
1.1315131102362204
21
1.5750431889763779
0
LINE
8
BLACK
6
CONTINUOUS
10
1.1315131102362204
20
1.5750431889763779
11
1.1318897637795275
21
1.5751181102362204
0
LINE
8
BLACK
6
CONTINUOUS
10
1.1318897637795275
20
1.5751181102362204
11
1.3468503937007874
21
1.5751181102362204
0
LINE
8
BLACK
6
CONTINUOUS
10
1.3468503937007874
20
1.5751181102362204
11
1.3472270472440944
21
1.5750431889763779
0
LINE
8
BLACK
6
CONTINUOUS
10
1.1328740157480315
20
1.5731496062992125
11
1.1328740157480315
21
1.388503937007874
0
LINE
8
BLACK
6
CONTINUOUS
10
1.1328740157480315
20
1.388503937007874
11
1.3458661417322835
21
1.388503937007874
0
LINE
8
BLACK
6
CONTINUOUS
10
1.3458661417322835
20
1.388503937007874
11
1.3458661417322835
21
1.5731496062992125
0
LINE
8
BLACK
6
CONTINUOUS
10
1.3458661417322835
20
1.5731496062992125
11
1.1328740157480315
21
1.5731496062992125
0
LINE
8
BLACK
6
CONTINUOUS
10
-0.7606272834645669
20
1.5229368897637794
11
-0.7600946062992125
21
1.5224042125984252
0
LINE
8
BLACK
6
CONTINUOUS
10
-0.7600946062992125
20
1.5224042125984252
11
-0.76001968503937
21
1.522027559055118
0
LINE
8
BLACK
6
CONTINUOUS
10
-0.76001968503937
20
1.522027559055118
11
-0.76001968503937
21
1.3881692913385826
0
LINE
8
BLACK
6
CONTINUOUS
10
-0.76001968503937
20
1.3881692913385826
11
-0.7600946062992125
21
1.3877926377952756
0
LINE
8
BLACK
6
CONTINUOUS
10
-0.7600946062992125
20
1.3877926377952756
11
-0.7606272834645669
21
1.3872599606299212
0
LINE
8
BLACK
6
CONTINUOUS
10
-0.7606272834645669
20
1.3872599606299212
11
-0.7610039370078741
21
1.3871850393700786
0
LINE
8
BLACK
6
CONTINUOUS
10
-0.7610039370078741
20
1.3871850393700786
11
-0.9224212598425197
21
1.3871850393700786
0
LINE
8
BLACK
6
CONTINUOUS
10
-0.9224212598425197
20
1.3871850393700786
11
-0.9227979133858267
21
1.3872599606299212
0
LINE
8
BLACK
6
CONTINUOUS
10
-0.9227979133858267
20
1.3872599606299212
11
-0.9233305905511811
21
1.3877926377952756
0
LINE
8
BLACK
6
CONTINUOUS
10
-0.9233305905511811
20
1.3877926377952756
11
-0.9234055118110236
21
1.3881692913385826
0
LINE
8
BLACK
6
CONTINUOUS
10
-0.9234055118110236
20
1.3881692913385826
11
-0.9234055118110236
21
1.522027559055118
0
LINE
8
BLACK
6
CONTINUOUS
10
-0.9234055118110236
20
1.522027559055118
11
-0.9233305905511811
21
1.5224042125984252
0
LINE
8
BLACK
6
CONTINUOUS
10
-0.9233305905511811
20
1.5224042125984252
11
-0.9227979133858267
21
1.5229368897637794
0
LINE
8
BLACK
6
CONTINUOUS
10
-0.9227979133858267
20
1.5229368897637794
11
-0.9224212598425197
21
1.5230118110236219
0
LINE
8
BLACK
6
CONTINUOUS
10
-0.9224212598425197
20
1.5230118110236219
11
-0.7610039370078741
21
1.5230118110236219
0
LINE
8
BLACK
6
CONTINUOUS
10
-0.7610039370078741
20
1.5230118110236219
11
-0.7606272834645669
21
1.5229368897637794
0
LINE
8
BLACK
6
CONTINUOUS
10
-0.9214370078740157
20
1.5210433070866141
11
-0.9214370078740157
21
1.3891535433070865
0
LINE
8
BLACK
6
CONTINUOUS
10
-0.9214370078740157
20
1.3891535433070865
11
-0.761988188976378
21
1.3891535433070865
0
LINE
8
BLACK
6
CONTINUOUS
10
-0.761988188976378
20
1.3891535433070865
11
-0.761988188976378
21
1.5210433070866141
0
LINE
8
BLACK
6
CONTINUOUS
10
-0.761988188976378
20
1.5210433070866141
11
-0.9214370078740157
21
1.5210433070866141
0
LINE
8
BLACK
6
CONTINUOUS
10
-0.0302532677165354
20
2.0056731102362204
11
-0.0297205905511811
21
2.0051404330708662
0
LINE
8
BLACK
6
CONTINUOUS
10
-0.0297205905511811
20
2.0051404330708662
11
-0.0296456692913386
21
2.004763779527559
0
LINE
8
BLACK
6
CONTINUOUS
10
-0.0296456692913386
20
2.004763779527559
11
-0.0296456692913386
21
1.4772047244094488
0
LINE
8
BLACK
6
CONTINUOUS
10
-0.0296456692913386
20
1.4772047244094488
11
-0.0297205905511811
21
1.4768280708661417
0
LINE
8
BLACK
6
CONTINUOUS
10
-0.0297205905511811
20
1.4768280708661417
11
-0.0302532677165354
21
1.4762953937007874
0
LINE
8
BLACK
6
CONTINUOUS
10
-0.0302532677165354
20
1.4762953937007874
11
-0.0306299212598425
21
1.4762204724409449
0
LINE
8
BLACK
6
CONTINUOUS
10
-0.0306299212598425
20
1.4762204724409449
11
-0.5581889763779527
21
1.4762204724409449
0
LINE
8
BLACK
6
CONTINUOUS
10
-0.5581889763779527
20
1.4762204724409449
11
-0.5585656299212598
21
1.4762953937007874
0
LINE
8
BLACK
6
CONTINUOUS
10
-0.5585656299212598
20
1.4762953937007874
11
-0.5590983070866141
21
1.4768280708661417
0
LINE
8
BLACK
6
CONTINUOUS
10
-0.5590983070866141
20
1.4768280708661417
11
-0.5591732283464567
21
1.4772047244094488
0
LINE
8
BLACK
6
CONTINUOUS
10
-0.5591732283464567
20
1.4772047244094488
11
-0.5591732283464567
21
2.004763779527559
0
LINE
8
BLACK
6
CONTINUOUS
10
-0.5591732283464567
20
2.004763779527559
11
-0.5590983070866141
21
2.0051404330708662
0
LINE
8
BLACK
6
CONTINUOUS
10
-0.5590983070866141
20
2.0051404330708662
11
-0.5585656299212598
21
2.0056731102362204
0
LINE
8
BLACK
6
CONTINUOUS
10
-0.5585656299212598
20
2.0056731102362204
11
-0.5581889763779527
21
2.0057480314960627
0
LINE
8
BLACK
6
CONTINUOUS
10
-0.5581889763779527
20
2.0057480314960627
11
-0.0306299212598425
21
2.0057480314960627
0
LINE
8
BLACK
6
CONTINUOUS
10
-0.0306299212598425
20
2.0057480314960627
11
-0.0302532677165354
21
2.0056731102362204
0
LINE
8
BLACK
6
CONTINUOUS
10
-0.5572047244094488
20
2.0037795275590549
11
-0.5572047244094488
21
1.4781889763779528
0
LINE
8
BLACK
6
CONTINUOUS
10
-0.5572047244094488
20
1.4781889763779528
11
-0.0316141732283465
21
1.4781889763779528
0
LINE
8
BLACK
6
CONTINUOUS
10
-0.0316141732283465
20
1.4781889763779528
11
-0.0316141732283465
21
2.0037795275590549
0
LINE
8
BLACK
6
CONTINUOUS
10
-0.0316141732283465
20
2.0037795275590549
11
-0.5572047244094488
21
2.0037795275590549
0
LINE
8
BLACK
6
CONTINUOUS
10
-0.8971233464566929
20
1.7154368897637795
11
-0.8965906692913386
21
1.7149042125984251
0
LINE
8
BLACK
6
CONTINUOUS
10
-0.8965906692913386
20
1.7149042125984251
11
-0.896515748031496
21
1.7145275590551181
0
LINE
8
BLACK
6
CONTINUOUS
10
-0.896515748031496
20
1.7145275590551181
11
-0.896515748031496
21
1.5806692913385827
0
LINE
8
BLACK
6
CONTINUOUS
10
-0.896515748031496
20
1.5806692913385827
11
-0.8965906692913386
21
1.5802926377952755
0
LINE
8
BLACK
6
CONTINUOUS
10
-0.8965906692913386
20
1.5802926377952755
11
-0.8971233464566929
21
1.5797599606299213
0
LINE
8
BLACK
6
CONTINUOUS
10
-0.8971233464566929
20
1.5797599606299213
11
-0.8975
21
1.5796850393700788
0
LINE
8
BLACK
6
CONTINUOUS
10
-0.8975
20
1.5796850393700788
11
-1.0486811023622047
21
1.5796850393700788
0
LINE
8
BLACK
6
CONTINUOUS
10
-1.0486811023622047
20
1.5796850393700788
11
-1.0490577559055119
21
1.5797599606299213
0
LINE
8
BLACK
6
CONTINUOUS
10
-1.0490577559055119
20
1.5797599606299213
11
-1.0495904330708661
21
1.5802926377952755
0
LINE
8
BLACK
6
CONTINUOUS
10
-1.0495904330708661
20
1.5802926377952755
11
-1.0496653543307086
21
1.5806692913385827
0
LINE
8
BLACK
6
CONTINUOUS
10
-1.0496653543307086
20
1.5806692913385827
11
-1.0496653543307086
21
1.7145275590551181
0
LINE
8
BLACK
6
CONTINUOUS
10
-1.0496653543307086
20
1.7145275590551181
11
-1.0495904330708661
21
1.7149042125984251
0
LINE
8
BLACK
6
CONTINUOUS
10
-1.0495904330708661
20
1.7149042125984251
11
-1.0490577559055119
21
1.7154368897637795
0
LINE
8
BLACK
6
CONTINUOUS
10
-1.0490577559055119
20
1.7154368897637795
11
-1.0486811023622047
21
1.715511811023622
0
LINE
8
BLACK
6
CONTINUOUS
10
-1.0486811023622047
20
1.715511811023622
11
-0.8975
21
1.715511811023622
0
LINE
8
BLACK
6
CONTINUOUS
10
-0.8975
20
1.715511811023622
11
-0.8971233464566929
21
1.7154368897637795
0
LINE
8
BLACK
6
CONTINUOUS
10
-1.0476968503937008
20
1.7135433070866142
11
-1.0476968503937008
21
1.5816535433070866
0
LINE
8
BLACK
6
CONTINUOUS
10
-1.0476968503937008
20
1.5816535433070866
11
-0.8984842519685039
21
1.5816535433070866
0
LINE
8
BLACK
6
CONTINUOUS
10
-0.8984842519685039
20
1.5816535433070866
11
-0.8984842519685039
21
1.7135433070866142
0
LINE
8
BLACK
6
CONTINUOUS
10
-0.8984842519685039
20
1.7135433070866142
11
-1.0476968503937008
21
1.7135433070866142
0
LINE
8
BLACK
6
CONTINUOUS
10
0.1829750787401575
20
1.7789801968503938
11
0.1835077559055118
21
1.7784475196850393
0
LINE
8
BLACK
6
CONTINUOUS
10
0.1835077559055118
20
1.7784475196850393
11
0.1835826771653543
21
1.7780708661417322
0
LINE
8
BLACK
6
CONTINUOUS
10
0.1835826771653543
20
1.7780708661417322
11
0.1835826771653543
21
1.6127165354330708
0
LINE
8
BLACK
6
CONTINUOUS
10
0.1835826771653543
20
1.6127165354330708
11
0.1835077559055118
21
1.6123398818897638
0
LINE
8
BLACK
6
CONTINUOUS
10
0.1835077559055118
20
1.6123398818897638
11
0.1829750787401575
21
1.6118072047244094
0
LINE
8
BLACK
6
CONTINUOUS
10
0.1829750787401575
20
1.6118072047244094
11
0.1825984251968504
21
1.6117322834645669
0
LINE
8
BLACK
6
CONTINUOUS
10
0.1825984251968504
20
1.6117322834645669
11
0.048740157480315
21
1.6117322834645669
0
LINE
8
BLACK
6
CONTINUOUS
10
0.048740157480315
20
1.6117322834645669
11
0.0483635039370079
21
1.6118072047244094
0
LINE
8
BLACK
6
CONTINUOUS
10
0.0483635039370079
20
1.6118072047244094
11
0.0478308267716535
21
1.6123398818897638
0
LINE
8
BLACK
6
CONTINUOUS
10
0.0478308267716535
20
1.6123398818897638
11
0.047755905511811
21
1.6127165354330708
0
LINE
8
BLACK
6
CONTINUOUS
10
0.047755905511811
20
1.6127165354330708
11
0.047755905511811
21
1.7780708661417322
0
LINE
8
BLACK
6
CONTINUOUS
10
0.047755905511811
20
1.7780708661417322
11
0.0478308267716535
21
1.7784475196850393
0
LINE
8
BLACK
6
CONTINUOUS
10
0.0478308267716535
20
1.7784475196850393
11
0.0483635039370079
21
1.7789801968503938
0
LINE
8
BLACK
6
CONTINUOUS
10
0.0483635039370079
20
1.7789801968503938
11
0.048740157480315
21
1.7790551181102361
0
LINE
8
BLACK
6
CONTINUOUS
10
0.048740157480315
20
1.7790551181102361
11
0.1825984251968504
21
1.7790551181102361
0
LINE
8
BLACK
6
CONTINUOUS
10
0.1825984251968504
20
1.7790551181102361
11
0.1829750787401575
21
1.7789801968503938
0
LINE
8
BLACK
6
CONTINUOUS
10
0.0497244094488189
20
1.7770866141732282
11
0.0497244094488189
21
1.6137007874015747
0
LINE
8
BLACK
6
CONTINUOUS
10
0.0497244094488189
20
1.6137007874015747
11
0.1816141732283464
21
1.6137007874015747
0
LINE
8
BLACK
6
CONTINUOUS
10
0.1816141732283464
20
1.6137007874015747
11
0.1816141732283464
21
1.7770866141732282
0
LINE
8
BLACK
6
CONTINUOUS
10
0.1816141732283464
20
1.7770866141732282
11
0.0497244094488189
21
1.7770866141732282
0
LINE
8
BLACK
6
CONTINUOUS
10
0.8934475196850393
20
1.8776022440944882
11
0.8939801968503936
21
1.8770695669291337
0
LINE
8
BLACK
6
CONTINUOUS
10
0.8939801968503936
20
1.8770695669291337
11
0.8940551181102362
21
1.8766929133858268
0
LINE
8
BLACK
6
CONTINUOUS
10
0.8940551181102362
20
1.8766929133858268
11
0.8940551181102362
21
1.630236220472441
0
LINE
8
BLACK
6
CONTINUOUS
10
0.8940551181102362
20
1.630236220472441
11
0.8939801968503936
21
1.6298595669291338
0
LINE
8
BLACK
6
CONTINUOUS
10
0.8939801968503936
20
1.6298595669291338
11
0.8934475196850393
21
1.6293268897637796
0
LINE
8
BLACK
6
CONTINUOUS
10
0.8934475196850393
20
1.6293268897637796
11
0.8930708661417323
21
1.6292519685039371
0
LINE
8
BLACK
6
CONTINUOUS
10
0.8930708661417323
20
1.6292519685039371
11
0.6859842519685039
21
1.6292519685039371
0
LINE
8
BLACK
6
CONTINUOUS
10
0.6859842519685039
20
1.6292519685039371
11
0.6856075984251968
21
1.6293268897637796
0
LINE
8
BLACK
6
CONTINUOUS
10
0.6856075984251968
20
1.6293268897637796
11
0.6850749212598425
21
1.6298595669291338
0
LINE
8
BLACK
6
CONTINUOUS
10
0.6850749212598425
20
1.6298595669291338
11
0.6849999999999999
21
1.630236220472441
0
LINE
8
BLACK
6
CONTINUOUS
10
0.6849999999999999
20
1.630236220472441
11
0.6849999999999999
21
1.8766929133858268
0
LINE
8
BLACK
6
CONTINUOUS
10
0.6849999999999999
20
1.8766929133858268
11
0.6850749212598425
21
1.8770695669291337
0
LINE
8
BLACK
6
CONTINUOUS
10
0.6850749212598425
20
1.8770695669291337
11
0.6856075984251968
21
1.8776022440944882
0
LINE
8
BLACK
6
CONTINUOUS
10
0.6856075984251968
20
1.8776022440944882
11
0.6859842519685039
21
1.8776771653543307
0
LINE
8
BLACK
6
CONTINUOUS
10
0.6859842519685039
20
1.8776771653543307
11
0.8930708661417323
21
1.8776771653543307
0
LINE
8
BLACK
6
CONTINUOUS
10
0.8930708661417323
20
1.8776771653543307
11
0.8934475196850393
21
1.8776022440944882
0
LINE
8
BLACK
6
CONTINUOUS
10
0.6869685039370078
20
1.8757086614173228
11
0.6869685039370078
21
1.6312204724409449
0
LINE
8
BLACK
6
CONTINUOUS
10
0.6869685039370078
20
1.6312204724409449
11
0.8920866141732283
21
1.6312204724409449
0
LINE
8
BLACK
6
CONTINUOUS
10
0.8920866141732283
20
1.6312204724409449
11
0.8920866141732283
21
1.8757086614173228
0
LINE
8
BLACK
6
CONTINUOUS
10
0.8920866141732283
20
1.8757086614173228
11
0.6869685039370078
21
1.8757086614173228
0
LINE
8
BLACK
6
CONTINUOUS
10
1.3472270472440944
20
1.8590589370078741
11
1.3477597244094488
21
1.8585262598425196
0
LINE
8
BLACK
6
CONTINUOUS
10
1.3477597244094488
20
1.8585262598425196
11
1.3478346456692913
21
1.8581496062992127
0
LINE
8
BLACK
6
CONTINUOUS
10
1.3478346456692913
20
1.8581496062992127
11
1.3478346456692913
21
1.6715354330708661
0
LINE
8
BLACK
6
CONTINUOUS
10
1.3478346456692913
20
1.6715354330708661
11
1.3477597244094488
21
1.6711587795275591
0
LINE
8
BLACK
6
CONTINUOUS
10
1.3477597244094488
20
1.6711587795275591
11
1.3472270472440944
21
1.6706261023622047
0
LINE
8
BLACK
6
CONTINUOUS
10
1.3472270472440944
20
1.6706261023622047
11
1.3468503937007874
21
1.6705511811023621
0
LINE
8
BLACK
6
CONTINUOUS
10
1.3468503937007874
20
1.6705511811023621
11
1.1318897637795275
21
1.6705511811023621
0
LINE
8
BLACK
6
CONTINUOUS
10
1.1318897637795275
20
1.6705511811023621
11
1.1315131102362204
21
1.6706261023622047
0
LINE
8
BLACK
6
CONTINUOUS
10
1.1315131102362204
20
1.6706261023622047
11
1.1309804330708662
21
1.6711587795275591
0
LINE
8
BLACK
6
CONTINUOUS
10
1.1309804330708662
20
1.6711587795275591
11
1.1309055118110236
21
1.6715354330708661
0
LINE
8
BLACK
6
CONTINUOUS
10
1.1309055118110236
20
1.6715354330708661
11
1.1309055118110236
21
1.8581496062992127
0
LINE
8
BLACK
6
CONTINUOUS
10
1.1309055118110236
20
1.8581496062992127
11
1.1309804330708662
21
1.8585262598425196
0
LINE
8
BLACK
6
CONTINUOUS
10
1.1309804330708662
20
1.8585262598425196
11
1.1315131102362204
21
1.8590589370078741
0
LINE
8
BLACK
6
CONTINUOUS
10
1.1315131102362204
20
1.8590589370078741
11
1.1318897637795275
21
1.8591338582677166
0
LINE
8
BLACK
6
CONTINUOUS
10
1.1318897637795275
20
1.8591338582677166
11
1.3468503937007874
21
1.8591338582677166
0
LINE
8
BLACK
6
CONTINUOUS
10
1.3468503937007874
20
1.8591338582677166
11
1.3472270472440944
21
1.8590589370078741
0
LINE
8
BLACK
6
CONTINUOUS
10
1.1328740157480315
20
1.8571653543307087
11
1.1328740157480315
21
1.67251968503937
0
LINE
8
BLACK
6
CONTINUOUS
10
1.1328740157480315
20
1.67251968503937
11
1.3458661417322835
21
1.67251968503937
0
LINE
8
BLACK
6
CONTINUOUS
10
1.3458661417322835
20
1.67251968503937
11
1.3458661417322835
21
1.8571653543307087
0
LINE
8
BLACK
6
CONTINUOUS
10
1.3458661417322835
20
1.8571653543307087
11
1.1328740157480315
21
1.8571653543307087
0
LINE
8
BLACK
6
CONTINUOUS
10
-0.8971233464566929
20
1.9702400393700787
11
-0.8965906692913386
21
1.9697073622047243
0
LINE
8
BLACK
6
CONTINUOUS
10
-0.8965906692913386
20
1.9697073622047243
11
-0.896515748031496
21
1.9693307086614174
0
LINE
8
BLACK
6
CONTINUOUS
10
-0.896515748031496
20
1.9693307086614174
11
-0.896515748031496
21
1.8354724409448819
0
LINE
8
BLACK
6
CONTINUOUS
10
-0.896515748031496
20
1.8354724409448819
11
-0.8965906692913386
21
1.8350957874015748
0
LINE
8
BLACK
6
CONTINUOUS
10
-0.8965906692913386
20
1.8350957874015748
11
-0.8971233464566929
21
1.8345631102362205
0
LINE
8
BLACK
6
CONTINUOUS
10
-0.8971233464566929
20
1.8345631102362205
11
-0.8975
21
1.834488188976378
0
LINE
8
BLACK
6
CONTINUOUS
10
-0.8975
20
1.834488188976378
11
-1.0486811023622047
21
1.834488188976378
0
LINE
8
BLACK
6
CONTINUOUS
10
-1.0486811023622047
20
1.834488188976378
11
-1.0490577559055119
21
1.8345631102362205
0
LINE
8
BLACK
6
CONTINUOUS
10
-1.0490577559055119
20
1.8345631102362205
11
-1.0495904330708661
21
1.8350957874015748
0
LINE
8
BLACK
6
CONTINUOUS
10
-1.0495904330708661
20
1.8350957874015748
11
-1.0496653543307086
21
1.8354724409448819
0
LINE
8
BLACK
6
CONTINUOUS
10
-1.0496653543307086
20
1.8354724409448819
11
-1.0496653543307086
21
1.9693307086614174
0
LINE
8
BLACK
6
CONTINUOUS
10
-1.0496653543307086
20
1.9693307086614174
11
-1.0495904330708661
21
1.9697073622047243
0
LINE
8
BLACK
6
CONTINUOUS
10
-1.0495904330708661
20
1.9697073622047243
11
-1.0490577559055119
21
1.9702400393700787
0
LINE
8
BLACK
6
CONTINUOUS
10
-1.0490577559055119
20
1.9702400393700787
11
-1.0486811023622047
21
1.9703149606299213
0
LINE
8
BLACK
6
CONTINUOUS
10
-1.0486811023622047
20
1.9703149606299213
11
-0.8975
21
1.9703149606299213
0
LINE
8
BLACK
6
CONTINUOUS
10
-0.8975
20
1.9703149606299213
11
-0.8971233464566929
21
1.9702400393700787
0
LINE
8
BLACK
6
CONTINUOUS
10
-1.0476968503937008
20
1.9683464566929134
11
-1.0476968503937008
21
1.8364566929133859
0
LINE
8
BLACK
6
CONTINUOUS
10
-1.0476968503937008
20
1.8364566929133859
11
-0.8984842519685039
21
1.8364566929133859
0
LINE
8
BLACK
6
CONTINUOUS
10
-0.8984842519685039
20
1.8364566929133859
11
-0.8984842519685039
21
1.9683464566929134
0
LINE
8
BLACK
6
CONTINUOUS
10
-0.8984842519685039
20
1.9683464566929134
11
-1.0476968503937008
21
1.9683464566929134
0
LINE
8
BLACK
6
CONTINUOUS
10
0.9553202362204725
20
2.2253225984251968
11
0.9563855905511811
21
2.2242572440944883
0
LINE
8
BLACK
6
CONTINUOUS
10
0.9563855905511811
20
2.2242572440944883
11
0.9565354330708661
21
2.223503937007874
0
LINE
8
BLACK
6
CONTINUOUS
10
0.9565354330708661
20
2.223503937007874
11
0.9565354330708661
21
1.8864960629921259
0
LINE
8
BLACK
6
CONTINUOUS
10
0.9565354330708661
20
1.8864960629921259
11
0.9563855905511811
21
1.8857427559055118
0
LINE
8
BLACK
6
CONTINUOUS
10
0.9563855905511811
20
1.8857427559055118
11
0.9553202362204725
21
1.8846774015748031
0
LINE
8
BLACK
6
CONTINUOUS
10
0.9553202362204725
20
1.8846774015748031
11
0.9545669291338582
21
1.884527559055118
0
LINE
8
BLACK
6
CONTINUOUS
10
0.9545669291338582
20
1.884527559055118
11
0.6254330708661417
21
1.884527559055118
0
LINE
8
BLACK
6
CONTINUOUS
10
0.6254330708661417
20
1.884527559055118
11
0.6246797637795275
21
1.8846774015748031
0
LINE
8
BLACK
6
CONTINUOUS
10
0.6246797637795275
20
1.8846774015748031
11
0.6236144094488189
21
1.8857427559055118
0
LINE
8
BLACK
6
CONTINUOUS
10
0.6236144094488189
20
1.8857427559055118
11
0.6234645669291339
21
1.8864960629921259
0
LINE
8
BLACK
6
CONTINUOUS
10
0.6234645669291339
20
1.8864960629921259
11
0.6234645669291339
21
2.223503937007874
0
LINE
8
BLACK
6
CONTINUOUS
10
0.6234645669291339
20
2.223503937007874
11
0.6236144094488189
21
2.2242572440944883
0
LINE
8
BLACK
6
CONTINUOUS
10
0.6236144094488189
20
2.2242572440944883
11
0.6246797637795275
21
2.2253225984251968
0
LINE
8
BLACK
6
CONTINUOUS
10
0.6246797637795275
20
2.2253225984251968
11
0.6254330708661417
21
2.2254724409448818
0
LINE
8
BLACK
6
CONTINUOUS
10
0.6254330708661417
20
2.2254724409448818
11
0.9545669291338582
21
2.2254724409448818
0
LINE
8
BLACK
6
CONTINUOUS
10
0.9545669291338582
20
2.2254724409448818
11
0.9553202362204725
21
2.2253225984251968
0
LINE
8
BLACK
6
CONTINUOUS
10
0.6274015748031496
20
2.2215354330708661
11
0.6274015748031496
21
1.8884645669291338
0
LINE
8
BLACK
6
CONTINUOUS
10
0.6274015748031496
20
1.8884645669291338
11
0.9525984251968503
21
1.8884645669291338
0
LINE
8
BLACK
6
CONTINUOUS
10
0.9525984251968503
20
1.8884645669291338
11
0.9525984251968503
21
2.2215354330708661
0
LINE
8
BLACK
6
CONTINUOUS
10
0.9525984251968503
20
2.2215354330708661
11
0.6274015748031496
21
2.2215354330708661
0
LINE
8
BLACK
6
CONTINUOUS
10
-1.2411194094488189
20
2.0541179921259842
11
-1.2405867322834645
21
2.05358531496063
0
LINE
8
BLACK
6
CONTINUOUS
10
-1.2405867322834645
20
2.05358531496063
11
-1.240511811023622
21
2.0532086614173228
0
LINE
8
BLACK
6
CONTINUOUS
10
-1.240511811023622
20
2.0532086614173228
11
-1.240511811023622
21
1.9799803149606299
0
LINE
8
BLACK
6
CONTINUOUS
10
-1.240511811023622
20
1.9799803149606299
11
-1.2405867322834645
21
1.9796036614173227
0
LINE
8
BLACK
6
CONTINUOUS
10
-1.2405867322834645
20
1.9796036614173227
11
-1.2411194094488189
21
1.9790709842519685
0
LINE
8
BLACK
6
CONTINUOUS
10
-1.2411194094488189
20
1.9790709842519685
11
-1.2414960629921259
21
1.9789960629921259
0
LINE
8
BLACK
6
CONTINUOUS
10
-1.2414960629921259
20
1.9789960629921259
11
-1.2785039370078739
21
1.9789960629921259
0
LINE
8
BLACK
6
CONTINUOUS
10
-1.2785039370078739
20
1.9789960629921259
11
-1.2788805905511811
21
1.9790709842519685
0
LINE
8
BLACK
6
CONTINUOUS
10
-1.2788805905511811
20
1.9790709842519685
11
-1.2794132677165353
21
1.9796036614173227
0
LINE
8
BLACK
6
CONTINUOUS
10
-1.2794132677165353
20
1.9796036614173227
11
-1.2794881889763778
21
1.9799803149606299
0
LINE
8
BLACK
6
CONTINUOUS
10
-1.2794881889763778
20
1.9799803149606299
11
-1.2794881889763778
21
2.0532086614173228
0
LINE
8
BLACK
6
CONTINUOUS
10
-1.2794881889763778
20
2.0532086614173228
11
-1.2794132677165353
21
2.05358531496063
0
LINE
8
BLACK
6
CONTINUOUS
10
-1.2794132677165353
20
2.05358531496063
11
-1.2788805905511811
21
2.0541179921259842
0
LINE
8
BLACK
6
CONTINUOUS
10
-1.2788805905511811
20
2.0541179921259842
11
-1.2785039370078739
21
2.0541929133858265
0
LINE
8
BLACK
6
CONTINUOUS
10
-1.2785039370078739
20
2.0541929133858265
11
-1.2414960629921259
21
2.0541929133858265
0
LINE
8
BLACK
6
CONTINUOUS
10
-1.2414960629921259
20
2.0541929133858265
11
-1.2411194094488189
21
2.0541179921259842
0
LINE
8
BLACK
6
CONTINUOUS
10
-1.27751968503937
20
2.0522244094488187
11
-1.27751968503937
21
1.9809645669291338
0
LINE
8
BLACK
6
CONTINUOUS
10
-1.27751968503937
20
1.9809645669291338
11
-1.2424803149606298
21
1.9809645669291338
0
LINE
8
BLACK
6
CONTINUOUS
10
-1.2424803149606298
20
1.9809645669291338
11
-1.2424803149606298
21
2.0522244094488187
0
LINE
8
BLACK
6
CONTINUOUS
10
-1.2424803149606298
20
2.0522244094488187
11
-1.27751968503937
21
2.0522244094488187
0
LINE
8
BLACK
6
CONTINUOUS
10
-0.8580485433070866
20
2.3045510629921258
11
-0.8575158661417323
21
2.3040183858267715
0
LINE
8
BLACK
6
CONTINUOUS
10
-0.8575158661417323
20
2.3040183858267715
11
-0.8574409448818897
21
2.3036417322834644
0
LINE
8
BLACK
6
CONTINUOUS
10
-0.8574409448818897
20
2.3036417322834644
11
-0.8574409448818897
21
2.0989173228346458
0
LINE
8
BLACK
6
CONTINUOUS
10
-0.8574409448818897
20
2.0989173228346458
11
-0.8575158661417323
21
2.0985406692913386
0
LINE
8
BLACK
6
CONTINUOUS
10
-0.8575158661417323
20
2.0985406692913386
11
-0.8580485433070866
21
2.098007992125984
0
LINE
8
BLACK
6
CONTINUOUS
10
-0.8580485433070866
20
2.098007992125984
11
-0.8584251968503936
21
2.0979330708661417
0
LINE
8
BLACK
6
CONTINUOUS
10
-0.8584251968503936
20
2.0979330708661417
11
-1.0631496062992125
21
2.0979330708661417
0
LINE
8
BLACK
6
CONTINUOUS
10
-1.0631496062992125
20
2.0979330708661417
11
-1.0635262598425197
21
2.098007992125984
0
LINE
8
BLACK
6
CONTINUOUS
10
-1.0635262598425197
20
2.098007992125984
11
-1.0640589370078739
21
2.0985406692913386
0
LINE
8
BLACK
6
CONTINUOUS
10
-1.0640589370078739
20
2.0985406692913386
11
-1.0641338582677164
21
2.0989173228346458
0
LINE
8
BLACK
6
CONTINUOUS
10
-1.0641338582677164
20
2.0989173228346458
11
-1.0641338582677164
21
2.3036417322834644
0
LINE
8
BLACK
6
CONTINUOUS
10
-1.0641338582677164
20
2.3036417322834644
11
-1.0640589370078739
21
2.3040183858267715
0
LINE
8
BLACK
6
CONTINUOUS
10
-1.0640589370078739
20
2.3040183858267715
11
-1.0635262598425197
21
2.3045510629921258
0
LINE
8
BLACK
6
CONTINUOUS
10
-1.0635262598425197
20
2.3045510629921258
11
-1.0631496062992125
21
2.3046259842519685
0
LINE
8
BLACK
6
CONTINUOUS
10
-1.0631496062992125
20
2.3046259842519685
11
-0.8584251968503936
21
2.3046259842519685
0
LINE
8
BLACK
6
CONTINUOUS
10
-0.8584251968503936
20
2.3046259842519685
11
-0.8580485433070866
21
2.3045510629921258
0
LINE
8
BLACK
6
CONTINUOUS
10
-1.0621653543307086
20
2.3026574803149606
11
-1.0621653543307086
21
2.0999015748031495
0
LINE
8
BLACK
6
CONTINUOUS
10
-1.0621653543307086
20
2.0999015748031495
11
-0.8594094488188976
21
2.0999015748031495
0
LINE
8
BLACK
6
CONTINUOUS
10
-0.8594094488188976
20
2.0999015748031495
11
-0.8594094488188976
21
2.3026574803149606
0
LINE
8
BLACK
6
CONTINUOUS
10
-0.8594094488188976
20
2.3026574803149606
11
-1.0621653543307086
21
2.3026574803149606
0
LINE
8
BLACK
6
CONTINUOUS
10
0.6017152362204724
20
2.3291770472440945
11
0.6022479133858267
21
2.3286443700787403
0
LINE
8
BLACK
6
CONTINUOUS
10
0.6022479133858267
20
2.3286443700787403
11
0.6023228346456693
21
2.3282677165354331
0
LINE
8
BLACK
6
CONTINUOUS
10
0.6023228346456693
20
2.3282677165354331
11
0.6023228346456693
21
2.1117322834645669
0
LINE
8
BLACK
6
CONTINUOUS
10
0.6023228346456693
20
2.1117322834645669
11
0.6022479133858267
21
2.1113556299212597
0
LINE
8
BLACK
6
CONTINUOUS
10
0.6022479133858267
20
2.1113556299212597
11
0.6017152362204724
21
2.1108229527559055
0
LINE
8
BLACK
6
CONTINUOUS
10
0.6017152362204724
20
2.1108229527559055
11
0.6013385826771653
21
2.1107480314960632
0
LINE
8
BLACK
6
CONTINUOUS
10
0.6013385826771653
20
2.1107480314960632
11
0.3060629921259843
21
2.1107480314960632
0
LINE
8
BLACK
6
CONTINUOUS
10
0.3060629921259843
20
2.1107480314960632
11
0.3056863385826771
21
2.1108229527559055
0
LINE
8
BLACK
6
CONTINUOUS
10
0.3056863385826771
20
2.1108229527559055
11
0.3051536614173228
21
2.1113556299212597
0
LINE
8
BLACK
6
CONTINUOUS
10
0.3051536614173228
20
2.1113556299212597
11
0.3050787401574803
21
2.1117322834645669
0
LINE
8
BLACK
6
CONTINUOUS
10
0.3050787401574803
20
2.1117322834645669
11
0.3050787401574803
21
2.3282677165354331
0
LINE
8
BLACK
6
CONTINUOUS
10
0.3050787401574803
20
2.3282677165354331
11
0.3051536614173228
21
2.3286443700787403
0
LINE
8
BLACK
6
CONTINUOUS
10
0.3051536614173228
20
2.3286443700787403
11
0.3056863385826771
21
2.3291770472440945
0
LINE
8
BLACK
6
CONTINUOUS
10
0.3056863385826771
20
2.3291770472440945
11
0.3060629921259843
21
2.3292519685039368
0
LINE
8
BLACK
6
CONTINUOUS
10
0.3060629921259843
20
2.3292519685039368
11
0.6013385826771653
21
2.3292519685039368
0
LINE
8
BLACK
6
CONTINUOUS
10
0.6013385826771653
20
2.3292519685039368
11
0.6017152362204724
21
2.3291770472440945
0
LINE
8
BLACK
6
CONTINUOUS
10
0.3070472440944882
20
2.3272834645669289
11
0.3070472440944882
21
2.112716535433071
0
LINE
8
BLACK
6
CONTINUOUS
10
0.3070472440944882
20
2.112716535433071
11
0.6003543307086614
21
2.112716535433071
0
LINE
8
BLACK
6
CONTINUOUS
10
0.6003543307086614
20
2.112716535433071
11
0.6003543307086614
21
2.3272834645669289
0
LINE
8
BLACK
6
CONTINUOUS
10
0.6003543307086614
20
2.3272834645669289
11
0.3070472440944882
21
2.3272834645669289
0
LINE
8
BLACK
6
CONTINUOUS
10
-1.4392296456692912
20
2.2591179921259843
11
-1.438696968503937
21
2.2585853149606301
0
LINE
8
BLACK
6
CONTINUOUS
10
-1.438696968503937
20
2.2585853149606301
11
-1.4386220472440945
21
2.2582086614173229
0
LINE
8
BLACK
6
CONTINUOUS
10
-1.4386220472440945
20
2.2582086614173229
11
-1.4386220472440945
21
2.1479724409448817
0
LINE
8
BLACK
6
CONTINUOUS
10
-1.4386220472440945
20
2.1479724409448817
11
-1.438696968503937
21
2.147595787401575
0
LINE
8
BLACK
6
CONTINUOUS
10
-1.438696968503937
20
2.147595787401575
11
-1.4392296456692912
21
2.1470631102362203
0
LINE
8
BLACK
6
CONTINUOUS
10
-1.4392296456692912
20
2.1470631102362203
11
-1.4396062992125984
21
2.146988188976378
0
LINE
8
BLACK
6
CONTINUOUS
10
-1.4396062992125984
20
2.146988188976378
11
-1.5655905511811024
21
2.146988188976378
0
LINE
8
BLACK
6
CONTINUOUS
10
-1.5655905511811024
20
2.146988188976378
11
-1.5659672047244093
21
2.1470631102362203
0
LINE
8
BLACK
6
CONTINUOUS
10
-1.5659672047244093
20
2.1470631102362203
11
-1.5664998818897637
21
2.147595787401575
0
LINE
8
BLACK
6
CONTINUOUS
10
-1.5664998818897637
20
2.147595787401575
11
-1.5665748031496063
21
2.1479724409448817
0
LINE
8
BLACK
6
CONTINUOUS
10
-1.5665748031496063
20
2.1479724409448817
11
-1.5665748031496063
21
2.2582086614173229
0
LINE
8
BLACK
6
CONTINUOUS
10
-1.5665748031496063
20
2.2582086614173229
11
-1.5664998818897637
21
2.2585853149606301
0
LINE
8
BLACK
6
CONTINUOUS
10
-1.5664998818897637
20
2.2585853149606301
11
-1.5659672047244093
21
2.2591179921259843
0
LINE
8
BLACK
6
CONTINUOUS
10
-1.5659672047244093
20
2.2591179921259843
11
-1.5655905511811024
21
2.2591929133858266
0
LINE
8
BLACK
6
CONTINUOUS
10
-1.5655905511811024
20
2.2591929133858266
11
-1.4396062992125984
21
2.2591929133858266
0
LINE
8
BLACK
6
CONTINUOUS
10
-1.4396062992125984
20
2.2591929133858266
11
-1.4392296456692912
21
2.2591179921259843
0
LINE
8
BLACK
6
CONTINUOUS
10
-1.5646062992125984
20
2.2572244094488187
11
-1.5646062992125984
21
2.1489566929133859
0
LINE
8
BLACK
6
CONTINUOUS
10
-1.5646062992125984
20
2.1489566929133859
11
-1.4405905511811024
21
2.1489566929133859
0
LINE
8
BLACK
6
CONTINUOUS
10
-1.4405905511811024
20
2.1489566929133859
11
-1.4405905511811024
21
2.2572244094488187
0
LINE
8
BLACK
6
CONTINUOUS
10
-1.4405905511811024
20
2.2572244094488187
11
-1.5646062992125984
21
2.2572244094488187
0
LINE
8
BLACK
6
CONTINUOUS
10
-1.7330091732283464
20
2.2294132677165353
11
-1.7324764960629921
21
2.228880590551181
0
LINE
8
BLACK
6
CONTINUOUS
10
-1.7324764960629921
20
2.228880590551181
11
-1.7324015748031496
21
2.2285039370078739
0
LINE
8
BLACK
6
CONTINUOUS
10
-1.7324015748031496
20
2.2285039370078739
11
-1.7324015748031496
21
2.1914960629921261
0
LINE
8
BLACK
6
CONTINUOUS
10
-1.7324015748031496
20
2.1914960629921261
11
-1.7324764960629921
21
2.1911194094488189
0
LINE
8
BLACK
6
CONTINUOUS
10
-1.7324764960629921
20
2.1911194094488189
11
-1.7330091732283464
21
2.1905867322834647
0
LINE
8
BLACK
6
CONTINUOUS
10
-1.7330091732283464
20
2.1905867322834647
11
-1.7333858267716535
21
2.1905118110236219
0
LINE
8
BLACK
6
CONTINUOUS
10
-1.7333858267716535
20
2.1905118110236219
11
-1.8066141732283465
21
2.1905118110236219
0
LINE
8
BLACK
6
CONTINUOUS
10
-1.8066141732283465
20
2.1905118110236219
11
-1.8069908267716535
21
2.1905867322834647
0
LINE
8
BLACK
6
CONTINUOUS
10
-1.8069908267716535
20
2.1905867322834647
11
-1.8075235039370079
21
2.1911194094488189
0
LINE
8
BLACK
6
CONTINUOUS
10
-1.8075235039370079
20
2.1911194094488189
11
-1.8075984251968504
21
2.1914960629921261
0
LINE
8
BLACK
6
CONTINUOUS
10
-1.8075984251968504
20
2.1914960629921261
11
-1.8075984251968504
21
2.2285039370078739
0
LINE
8
BLACK
6
CONTINUOUS
10
-1.8075984251968504
20
2.2285039370078739
11
-1.8075235039370079
21
2.228880590551181
0
LINE
8
BLACK
6
CONTINUOUS
10
-1.8075235039370079
20
2.228880590551181
11
-1.8069908267716535
21
2.2294132677165353
0
LINE
8
BLACK
6
CONTINUOUS
10
-1.8069908267716535
20
2.2294132677165353
11
-1.8066141732283465
21
2.229488188976378
0
LINE
8
BLACK
6
CONTINUOUS
10
-1.8066141732283465
20
2.229488188976378
11
-1.7333858267716535
21
2.229488188976378
0
LINE
8
BLACK
6
CONTINUOUS
10
-1.7333858267716535
20
2.229488188976378
11
-1.7330091732283464
21
2.2294132677165353
0
LINE
8
BLACK
6
CONTINUOUS
10
-1.8056299212598426
20
2.2275196850393701
11
-1.8056299212598426
21
2.1924803149606298
0
LINE
8
BLACK
6
CONTINUOUS
10
-1.8056299212598426
20
2.1924803149606298
11
-1.7343700787401575
21
2.1924803149606298
0
LINE
8
BLACK
6
CONTINUOUS
10
-1.7343700787401575
20
2.1924803149606298
11
-1.7343700787401575
21
2.2275196850393701
0
LINE
8
BLACK
6
CONTINUOUS
10
-1.7343700787401575
20
2.2275196850393701
11
-1.8056299212598426
21
2.2275196850393701
0
LINE
8
BLACK
6
CONTINUOUS
10
-0.7811194094488189
20
2.271617992125984
11
-0.7805867322834645
21
2.2710853149606298
0
LINE
8
BLACK
6
CONTINUOUS
10
-0.7805867322834645
20
2.2710853149606298
11
-0.780511811023622
21
2.2707086614173226
0
LINE
8
BLACK
6
CONTINUOUS
10
-0.780511811023622
20
2.2707086614173226
11
-0.780511811023622
21
2.1974803149606297
0
LINE
8
BLACK
6
CONTINUOUS
10
-0.780511811023622
20
2.1974803149606297
11
-0.7805867322834645
21
2.1971036614173229
0
LINE
8
BLACK
6
CONTINUOUS
10
-0.7805867322834645
20
2.1971036614173229
11
-0.7811194094488189
21
2.1965709842519683
0
LINE
8
BLACK
6
CONTINUOUS
10
-0.7811194094488189
20
2.1965709842519683
11
-0.7814960629921259
21
2.196496062992126
0
LINE
8
BLACK
6
CONTINUOUS
10
-0.7814960629921259
20
2.196496062992126
11
-0.818503937007874
21
2.196496062992126
0
LINE
8
BLACK
6
CONTINUOUS
10
-0.818503937007874
20
2.196496062992126
11
-0.8188805905511811
21
2.1965709842519683
0
LINE
8
BLACK
6
CONTINUOUS
10
-0.8188805905511811
20
2.1965709842519683
11
-0.8194132677165354
21
2.1971036614173229
0
LINE
8
BLACK
6
CONTINUOUS
10
-0.8194132677165354
20
2.1971036614173229
11
-0.819488188976378
21
2.1974803149606297
0
LINE
8
BLACK
6
CONTINUOUS
10
-0.819488188976378
20
2.1974803149606297
11
-0.819488188976378
21
2.2707086614173226
0
LINE
8
BLACK
6
CONTINUOUS
10
-0.819488188976378
20
2.2707086614173226
11
-0.8194132677165354
21
2.2710853149606298
0
LINE
8
BLACK
6
CONTINUOUS
10
-0.8194132677165354
20
2.2710853149606298
11
-0.8188805905511811
21
2.271617992125984
0
LINE
8
BLACK
6
CONTINUOUS
10
-0.8188805905511811
20
2.271617992125984
11
-0.818503937007874
21
2.2716929133858268
0
LINE
8
BLACK
6
CONTINUOUS
10
-0.818503937007874
20
2.2716929133858268
11
-0.7814960629921259
21
2.2716929133858268
0
LINE
8
BLACK
6
CONTINUOUS
10
-0.7814960629921259
20
2.2716929133858268
11
-0.7811194094488189
21
2.271617992125984
0
LINE
8
BLACK
6
CONTINUOUS
10
-0.8175196850393701
20
2.2697244094488189
11
-0.8175196850393701
21
2.1984645669291338
0
LINE
8
BLACK
6
CONTINUOUS
10
-0.8175196850393701
20
2.1984645669291338
11
-0.7824803149606299
21
2.1984645669291338
0
LINE
8
BLACK
6
CONTINUOUS
10
-0.7824803149606299
20
2.1984645669291338
11
-0.7824803149606299
21
2.2697244094488189
0
LINE
8
BLACK
6
CONTINUOUS
10
-0.7824803149606299
20
2.2697244094488189
11
-0.8175196850393701
21
2.2697244094488189
0
LINE
8
BLACK
6
CONTINUOUS
10
-1.35391468503937
20
2.2444132677165354
11
-1.3533820078740157
21
2.2438805905511812
0
LINE
8
BLACK
6
CONTINUOUS
10
-1.3533820078740157
20
2.2438805905511812
11
-1.3533070866141732
21
2.243503937007874
0
LINE
8
BLACK
6
CONTINUOUS
10
-1.3533070866141732
20
2.243503937007874
11
-1.3533070866141732
21
2.2064960629921258
0
LINE
8
BLACK
6
CONTINUOUS
10
-1.3533070866141732
20
2.2064960629921258
11
-1.3533820078740157
21
2.206119409448819
0
LINE
8
BLACK
6
CONTINUOUS
10
-1.3533820078740157
20
2.206119409448819
11
-1.35391468503937
21
2.2055867322834644
0
LINE
8
BLACK
6
CONTINUOUS
10
-1.35391468503937
20
2.2055867322834644
11
-1.3542913385826771
21
2.205511811023622
0
LINE
8
BLACK
6
CONTINUOUS
10
-1.3542913385826771
20
2.205511811023622
11
-1.4275196850393701
21
2.205511811023622
0
LINE
8
BLACK
6
CONTINUOUS
10
-1.4275196850393701
20
2.205511811023622
11
-1.4278963385826771
21
2.2055867322834644
0
LINE
8
BLACK
6
CONTINUOUS
10
-1.4278963385826771
20
2.2055867322834644
11
-1.4284290157480315
21
2.206119409448819
0
LINE
8
BLACK
6
CONTINUOUS
10
-1.4284290157480315
20
2.206119409448819
11
-1.428503937007874
21
2.2064960629921258
0
LINE
8
BLACK
6
CONTINUOUS
10
-1.428503937007874
20
2.2064960629921258
11
-1.428503937007874
21
2.243503937007874
0
LINE
8
BLACK
6
CONTINUOUS
10
-1.428503937007874
20
2.243503937007874
11
-1.4284290157480315
21
2.2438805905511812
0
LINE
8
BLACK
6
CONTINUOUS
10
-1.4284290157480315
20
2.2438805905511812
11
-1.4278963385826771
21
2.2444132677165354
0
LINE
8
BLACK
6
CONTINUOUS
10
-1.4278963385826771
20
2.2444132677165354
11
-1.4275196850393701
21
2.2444881889763777
0
LINE
8
BLACK
6
CONTINUOUS
10
-1.4275196850393701
20
2.2444881889763777
11
-1.3542913385826771
21
2.2444881889763777
0
LINE
8
BLACK
6
CONTINUOUS
10
-1.3542913385826771
20
2.2444881889763777
11
-1.35391468503937
21
2.2444132677165354
0
LINE
8
BLACK
6
CONTINUOUS
10
-1.4265354330708662
20
2.2425196850393698
11
-1.4265354330708662
21
2.2074803149606299
0
LINE
8
BLACK
6
CONTINUOUS
10
-1.4265354330708662
20
2.2074803149606299
11
-1.3552755905511811
21
2.2074803149606299
0
LINE
8
BLACK
6
CONTINUOUS
10
-1.3552755905511811
20
2.2074803149606299
11
-1.3552755905511811
21
2.2425196850393698
0
LINE
8
BLACK
6
CONTINUOUS
10
-1.3552755905511811
20
2.2425196850393698
11
-1.4265354330708662
21
2.2425196850393698
0
LINE
8
BLACK
6
CONTINUOUS
10
-1.1821036614173228
20
2.2544132677165352
11
-1.1815709842519684
21
2.253880590551181
0
LINE
8
BLACK
6
CONTINUOUS
10
-1.1815709842519684
20
2.253880590551181
11
-1.1814960629921261
21
2.2535039370078738
0
LINE
8
BLACK
6
CONTINUOUS
10
-1.1814960629921261
20
2.2535039370078738
11
-1.1814960629921261
21
2.216496062992126
0
LINE
8
BLACK
6
CONTINUOUS
10
-1.1814960629921261
20
2.216496062992126
11
-1.1815709842519684
21
2.2161194094488188
0
LINE
8
BLACK
6
CONTINUOUS
10
-1.1815709842519684
20
2.2161194094488188
11
-1.1821036614173228
21
2.2155867322834646
0
LINE
8
BLACK
6
CONTINUOUS
10
-1.1821036614173228
20
2.2155867322834646
11
-1.18248031496063
21
2.2155118110236218
0
LINE
8
BLACK
6
CONTINUOUS
10
-1.18248031496063
20
2.2155118110236218
11
-1.2557086614173227
21
2.2155118110236218
0
LINE
8
BLACK
6
CONTINUOUS
10
-1.2557086614173227
20
2.2155118110236218
11
-1.2560853149606299
21
2.2155867322834646
0
LINE
8
BLACK
6
CONTINUOUS
10
-1.2560853149606299
20
2.2155867322834646
11
-1.2566179921259841
21
2.2161194094488188
0
LINE
8
BLACK
6
CONTINUOUS
10
-1.2566179921259841
20
2.2161194094488188
11
-1.2566929133858267
21
2.216496062992126
0
LINE
8
BLACK
6
CONTINUOUS
10
-1.2566929133858267
20
2.216496062992126
11
-1.2566929133858267
21
2.2535039370078738
0
LINE
8
BLACK
6
CONTINUOUS
10
-1.2566929133858267
20
2.2535039370078738
11
-1.2566179921259841
21
2.253880590551181
0
LINE
8
BLACK
6
CONTINUOUS
10
-1.2566179921259841
20
2.253880590551181
11
-1.2560853149606299
21
2.2544132677165352
0
LINE
8
BLACK
6
CONTINUOUS
10
-1.2560853149606299
20
2.2544132677165352
11
-1.2557086614173227
21
2.2544881889763779
0
LINE
8
BLACK
6
CONTINUOUS
10
-1.2557086614173227
20
2.2544881889763779
11
-1.18248031496063
21
2.2544881889763779
0
LINE
8
BLACK
6
CONTINUOUS
10
-1.18248031496063
20
2.2544881889763779
11
-1.1821036614173228
21
2.2544132677165352
0
LINE
8
BLACK
6
CONTINUOUS
10
-1.2547244094488188
20
2.2525196850393701
11
-1.2547244094488188
21
2.2174803149606297
0
LINE
8
BLACK
6
CONTINUOUS
10
-1.2547244094488188
20
2.2174803149606297
11
-1.1834645669291339
21
2.2174803149606297
0
LINE
8
BLACK
6
CONTINUOUS
10
-1.1834645669291339
20
2.2174803149606297
11
-1.1834645669291339
21
2.2525196850393701
0
LINE
8
BLACK
6
CONTINUOUS
10
-1.1834645669291339
20
2.2525196850393701
11
-1.2547244094488188
21
2.2525196850393701
0
LINE
8
BLACK
6
CONTINUOUS
10
-1.0921036614173227
20
2.2544132677165352
11
-1.0915709842519685
21
2.253880590551181
0
LINE
8
BLACK
6
CONTINUOUS
10
-1.0915709842519685
20
2.253880590551181
11
-1.091496062992126
21
2.2535039370078738
0
LINE
8
BLACK
6
CONTINUOUS
10
-1.091496062992126
20
2.2535039370078738
11
-1.091496062992126
21
2.216496062992126
0
LINE
8
BLACK
6
CONTINUOUS
10
-1.091496062992126
20
2.216496062992126
11
-1.0915709842519685
21
2.2161194094488188
0
LINE
8
BLACK
6
CONTINUOUS
10
-1.0915709842519685
20
2.2161194094488188
11
-1.0921036614173227
21
2.2155867322834646
0
LINE
8
BLACK
6
CONTINUOUS
10
-1.0921036614173227
20
2.2155867322834646
11
-1.0924803149606299
21
2.2155118110236218
0
LINE
8
BLACK
6
CONTINUOUS
10
-1.0924803149606299
20
2.2155118110236218
11
-1.1657086614173229
21
2.2155118110236218
0
LINE
8
BLACK
6
CONTINUOUS
10
-1.1657086614173229
20
2.2155118110236218
11
-1.1660853149606298
21
2.2155867322834646
0
LINE
8
BLACK
6
CONTINUOUS
10
-1.1660853149606298
20
2.2155867322834646
11
-1.1666179921259843
21
2.2161194094488188
0
LINE
8
BLACK
6
CONTINUOUS
10
-1.1666179921259843
20
2.2161194094488188
11
-1.1666929133858268
21
2.216496062992126
0
LINE
8
BLACK
6
CONTINUOUS
10
-1.1666929133858268
20
2.216496062992126
11
-1.1666929133858268
21
2.2535039370078738
0
LINE
8
BLACK
6
CONTINUOUS
10
-1.1666929133858268
20
2.2535039370078738
11
-1.1666179921259843
21
2.253880590551181
0
LINE
8
BLACK
6
CONTINUOUS
10
-1.1666179921259843
20
2.253880590551181
11
-1.1660853149606298
21
2.2544132677165352
0
LINE
8
BLACK
6
CONTINUOUS
10
-1.1660853149606298
20
2.2544132677165352
11
-1.1657086614173229
21
2.2544881889763779
0
LINE
8
BLACK
6
CONTINUOUS
10
-1.1657086614173229
20
2.2544881889763779
11
-1.0924803149606299
21
2.2544881889763779
0
LINE
8
BLACK
6
CONTINUOUS
10
-1.0924803149606299
20
2.2544881889763779
11
-1.0921036614173227
21
2.2544132677165352
0
LINE
8
BLACK
6
CONTINUOUS
10
-1.1647244094488189
20
2.2525196850393701
11
-1.1647244094488189
21
2.2174803149606297
0
LINE
8
BLACK
6
CONTINUOUS
10
-1.1647244094488189
20
2.2174803149606297
11
-1.0934645669291339
21
2.2174803149606297
0
LINE
8
BLACK
6
CONTINUOUS
10
-1.0934645669291339
20
2.2174803149606297
11
-1.0934645669291339
21
2.2525196850393701
0
LINE
8
BLACK
6
CONTINUOUS
10
-1.0934645669291339
20
2.2525196850393701
11
-1.1647244094488189
21
2.2525196850393701
0
LINE
8
BLACK
6
CONTINUOUS
10
-1.0921036614173227
20
2.3044132677165354
11
-1.0915709842519685
21
2.3038805905511812
0
LINE
8
BLACK
6
CONTINUOUS
10
-1.0915709842519685
20
2.3038805905511812
11
-1.091496062992126
21
2.303503937007874
0
LINE
8
BLACK
6
CONTINUOUS
10
-1.091496062992126
20
2.303503937007874
11
-1.091496062992126
21
2.2664960629921258
0
LINE
8
BLACK
6
CONTINUOUS
10
-1.091496062992126
20
2.2664960629921258
11
-1.0915709842519685
21
2.2661194094488191
0
LINE
8
BLACK
6
CONTINUOUS
10
-1.0915709842519685
20
2.2661194094488191
11
-1.0921036614173227
21
2.2655867322834644
0
LINE
8
BLACK
6
CONTINUOUS
10
-1.0921036614173227
20
2.2655867322834644
11
-1.0924803149606299
21
2.2655118110236221
0
LINE
8
BLACK
6
CONTINUOUS
10
-1.0924803149606299
20
2.2655118110236221
11
-1.1657086614173229
21
2.2655118110236221
0
LINE
8
BLACK
6
CONTINUOUS
10
-1.1657086614173229
20
2.2655118110236221
11
-1.1660853149606298
21
2.2655867322834644
0
LINE
8
BLACK
6
CONTINUOUS
10
-1.1660853149606298
20
2.2655867322834644
11
-1.1666179921259843
21
2.2661194094488191
0
LINE
8
BLACK
6
CONTINUOUS
10
-1.1666179921259843
20
2.2661194094488191
11
-1.1666929133858268
21
2.2664960629921258
0
LINE
8
BLACK
6
CONTINUOUS
10
-1.1666929133858268
20
2.2664960629921258
11
-1.1666929133858268
21
2.303503937007874
0
LINE
8
BLACK
6
CONTINUOUS
10
-1.1666929133858268
20
2.303503937007874
11
-1.1666179921259843
21
2.3038805905511812
0
LINE
8
BLACK
6
CONTINUOUS
10
-1.1666179921259843
20
2.3038805905511812
11
-1.1660853149606298
21
2.3044132677165354
0
LINE
8
BLACK
6
CONTINUOUS
10
-1.1660853149606298
20
2.3044132677165354
11
-1.1657086614173229
21
2.3044881889763777
0
LINE
8
BLACK
6
CONTINUOUS
10
-1.1657086614173229
20
2.3044881889763777
11
-1.0924803149606299
21
2.3044881889763777
0
LINE
8
BLACK
6
CONTINUOUS
10
-1.0924803149606299
20
2.3044881889763777
11
-1.0921036614173227
21
2.3044132677165354
0
LINE
8
BLACK
6
CONTINUOUS
10
-1.1647244094488189
20
2.3025196850393699
11
-1.1647244094488189
21
2.26748031496063
0
LINE
8
BLACK
6
CONTINUOUS
10
-1.1647244094488189
20
2.26748031496063
11
-1.0934645669291339
21
2.26748031496063
0
LINE
8
BLACK
6
CONTINUOUS
10
-1.0934645669291339
20
2.26748031496063
11
-1.0934645669291339
21
2.3025196850393699
0
LINE
8
BLACK
6
CONTINUOUS
10
-1.0934645669291339
20
2.3025196850393699
11
-1.1647244094488189
21
2.3025196850393699
0
LINE
8
BLACK
6
CONTINUOUS
10
-0.3608831889763779
20
2.426303031496063
11
-0.3603505118110236
21
2.4257703543307088
0
LINE
8
BLACK
6
CONTINUOUS
10
-0.3603505118110236
20
2.4257703543307088
11
-0.3602755905511811
21
2.4253937007874016
0
LINE
8
BLACK
6
CONTINUOUS
10
-0.3602755905511811
20
2.4253937007874016
11
-0.3602755905511811
21
2.2994094488188974
0
LINE
8
BLACK
6
CONTINUOUS
10
-0.3602755905511811
20
2.2994094488188974
11
-0.3603505118110236
21
2.2990327952755907
0
LINE
8
BLACK
6
CONTINUOUS
10
-0.3603505118110236
20
2.2990327952755907
11
-0.3608831889763779
21
2.298500118110236
0
LINE
8
BLACK
6
CONTINUOUS
10
-0.3608831889763779
20
2.298500118110236
11
-0.361259842519685
21
2.2984251968503937
0
LINE
8
BLACK
6
CONTINUOUS
10
-0.361259842519685
20
2.2984251968503937
11
-0.4596850393700787
21
2.2984251968503937
0
LINE
8
BLACK
6
CONTINUOUS
10
-0.4596850393700787
20
2.2984251968503937
11
-0.4600616929133858
21
2.298500118110236
0
LINE
8
BLACK
6
CONTINUOUS
10
-0.4600616929133858
20
2.298500118110236
11
-0.4605943700787402
21
2.2990327952755907
0
LINE
8
BLACK
6
CONTINUOUS
10
-0.4605943700787402
20
2.2990327952755907
11
-0.4606692913385826
21
2.2994094488188974
0
LINE
8
BLACK
6
CONTINUOUS
10
-0.4606692913385826
20
2.2994094488188974
11
-0.4606692913385826
21
2.4253937007874016
0
LINE
8
BLACK
6
CONTINUOUS
10
-0.4606692913385826
20
2.4253937007874016
11
-0.4605943700787402
21
2.4257703543307088
0
LINE
8
BLACK
6
CONTINUOUS
10
-0.4605943700787402
20
2.4257703543307088
11
-0.4600616929133858
21
2.426303031496063
0
LINE
8
BLACK
6
CONTINUOUS
10
-0.4600616929133858
20
2.426303031496063
11
-0.4596850393700787
21
2.4263779527559053
0
LINE
8
BLACK
6
CONTINUOUS
10
-0.4596850393700787
20
2.4263779527559053
11
-0.361259842519685
21
2.4263779527559053
0
LINE
8
BLACK
6
CONTINUOUS
10
-0.361259842519685
20
2.4263779527559053
11
-0.3608831889763779
21
2.426303031496063
0
LINE
8
BLACK
6
CONTINUOUS
10
-0.4587007874015748
20
2.4244094488188974
11
-0.4587007874015748
21
2.3003937007874016
0
LINE
8
BLACK
6
CONTINUOUS
10
-0.4587007874015748
20
2.3003937007874016
11
-0.362244094488189
21
2.3003937007874016
0
LINE
8
BLACK
6
CONTINUOUS
10
-0.362244094488189
20
2.3003937007874016
11
-0.362244094488189
21
2.4244094488188974
0
LINE
8
BLACK
6
CONTINUOUS
10
-0.362244094488189
20
2.4244094488188974
11
-0.4587007874015748
21
2.4244094488188974
0
LINE
8
BLACK
6
CONTINUOUS
10
-0.8929698031496063
20
2.4554762598425195
11
-0.892437125984252
21
2.4549435826771653
0
LINE
8
BLACK
6
CONTINUOUS
10
-0.892437125984252
20
2.4549435826771653
11
-0.8923622047244094
21
2.4545669291338581
0
LINE
8
BLACK
6
CONTINUOUS
10
-0.8923622047244094
20
2.4545669291338581
11
-0.8923622047244094
21
2.3340944881889762
0
LINE
8
BLACK
6
CONTINUOUS
10
-0.8923622047244094
20
2.3340944881889762
11
-0.892437125984252
21
2.3337178346456691
0
LINE
8
BLACK
6
CONTINUOUS
10
-0.892437125984252
20
2.3337178346456691
11
-0.8929698031496063
21
2.3331851574803149
0
LINE
8
BLACK
6
CONTINUOUS
10
-0.8929698031496063
20
2.3331851574803149
11
-0.8933464566929133
21
2.3331102362204725
0
LINE
8
BLACK
6
CONTINUOUS
10
-0.8933464566929133
20
2.3331102362204725
11
-1.033503937007874
21
2.3331102362204725
0
LINE
8
BLACK
6
CONTINUOUS
10
-1.033503937007874
20
2.3331102362204725
11
-1.033880590551181
21
2.3331851574803149
0
LINE
8
BLACK
6
CONTINUOUS
10
-1.033880590551181
20
2.3331851574803149
11
-1.0344132677165354
21
2.3337178346456691
0
LINE
8
BLACK
6
CONTINUOUS
10
-1.0344132677165354
20
2.3337178346456691
11
-1.034488188976378
21
2.3340944881889762
0
LINE
8
BLACK
6
CONTINUOUS
10
-1.034488188976378
20
2.3340944881889762
11
-1.034488188976378
21
2.4545669291338581
0
LINE
8
BLACK
6
CONTINUOUS
10
-1.034488188976378
20
2.4545669291338581
11
-1.0344132677165354
21
2.4549435826771653
0
LINE
8
BLACK
6
CONTINUOUS
10
-1.0344132677165354
20
2.4549435826771653
11
-1.033880590551181
21
2.4554762598425195
0
LINE
8
BLACK
6
CONTINUOUS
10
-1.033880590551181
20
2.4554762598425195
11
-1.033503937007874
21
2.4555511811023623
0
LINE
8
BLACK
6
CONTINUOUS
10
-1.033503937007874
20
2.4555511811023623
11
-0.8933464566929133
21
2.4555511811023623
0
LINE
8
BLACK
6
CONTINUOUS
10
-0.8933464566929133
20
2.4555511811023623
11
-0.8929698031496063
21
2.4554762598425195
0
LINE
8
BLACK
6
CONTINUOUS
10
-1.0325196850393701
20
2.4535826771653544
11
-1.0325196850393701
21
2.3350787401574804
0
LINE
8
BLACK
6
CONTINUOUS
10
-1.0325196850393701
20
2.3350787401574804
11
-0.8943307086614173
21
2.3350787401574804
0
LINE
8
BLACK
6
CONTINUOUS
10
-0.8943307086614173
20
2.3350787401574804
11
-0.8943307086614173
21
2.4535826771653544
0
LINE
8
BLACK
6
CONTINUOUS
10
-0.8943307086614173
20
2.4535826771653544
11
-1.0325196850393701
21
2.4535826771653544
0
CIRCLE
8
BLACK
10
1.1499999999999999
20
0.535
40
0.0068897637795276
0
CIRCLE
8
BLACK
10
1.25
20
0.535
40
0.0068897637795276
0
CIRCLE
8
BLACK
10
1.3499999999999999
20
0.535
40
0.0068897637795276
0
CIRCLE
8
BLACK
10
1.7
20
1.9450000000000001
40
0.0068897637795276
0
CIRCLE
8
BLACK
10
1.5999999999999999
20
1.9450000000000001
40
0.0068897637795276
0
CIRCLE
8
BLACK
10
1.7
20
2.0449999999999999
40
0.0068897637795276
0
CIRCLE
8
BLACK
10
1.5999999999999999
20
2.0449999999999999
40
0.0068897637795276
0
CIRCLE
8
BLACK
10
1.7
20
2.145
40
0.0068897637795276
0
CIRCLE
8
BLACK
10
1.5999999999999999
20
2.145
40
0.0068897637795276
0
CIRCLE
8
BLACK
10
-0.24
20
0.635
40
0.0068897637795276
0
CIRCLE
8
BLACK
10
-0.24
20
0.535
40
0.0068897637795276
0
CIRCLE
8
BLACK
10
-0.34
20
0.635
40
0.0068897637795276
0
CIRCLE
8
BLACK
10
-0.34
20
0.535
40
0.0068897637795276
0
CIRCLE
8
BLACK
10
-0.44
20
0.635
40
0.0068897637795276
0
CIRCLE
8
BLACK
10
-0.44
20
0.535
40
0.0068897637795276
0
CIRCLE
8
BLACK
10
-0.54
20
0.635
40
0.0068897637795276
0
CIRCLE
8
BLACK
10
-0.54
20
0.535
40
0.0068897637795276
0
CIRCLE
8
BLACK
10
-0.64
20
0.635
40
0.0068897637795276
0
CIRCLE
8
BLACK
10
-0.64
20
0.535
40
0.0068897637795276
0
CIRCLE
8
BLACK
10
-1.99
20
2.625
40
0.0068897637795276
0
CIRCLE
8
BLACK
10
1.6099999999999999
20
2.625
40
0.0068897637795276
0
CIRCLE
8
BLACK
10
0.82
20
0.535
40
0.0068897637795276
0
CIRCLE
8
BLACK
10
0.9199999999999999
20
0.535
40
0.0068897637795276
0
CIRCLE
8
BLACK
10
1.02
20
0.535
40
0.0068897637795276
0
CIRCLE
8
BLACK
10
-1.24
20
2.6149999999999998
40
0.0068897637795276
0
CIRCLE
8
BLACK
10
-1.24
20
2.7149999999999999
40
0.0068897637795276
0
CIRCLE
8
BLACK
10
-1.1399999999999999
20
2.6149999999999998
40
0.0068897637795276
0
CIRCLE
8
BLACK
10
-1.1399999999999999
20
2.7149999999999999
40
0.0068897637795276
0
CIRCLE
8
BLACK
10
-1.04
20
2.6149999999999998
40
0.0068897637795276
0
CIRCLE
8
BLACK
10
-1.04
20
2.7149999999999999
40
0.0068897637795276
0
CIRCLE
8
BLACK
10
-0.9399999999999999
20
2.6149999999999998
40
0.0068897637795276
0
CIRCLE
8
BLACK
10
-0.9399999999999999
20
2.7149999999999999
40
0.0068897637795276
0
CIRCLE
8
BLACK
10
-0.84
20
2.6149999999999998
40
0.0068897637795276
0
CIRCLE
8
BLACK
10
-0.84
20
2.7149999999999999
40
0.0068897637795276
0
CIRCLE
8
BLACK
10
-0.74
20
2.6149999999999998
40
0.0068897637795276
0
CIRCLE
8
BLACK
10
-0.74
20
2.7149999999999999
40
0.0068897637795276
0
CIRCLE
8
BLACK
10
-0.64
20
2.6149999999999998
40
0.0068897637795276
0
CIRCLE
8
BLACK
10
-0.64
20
2.7149999999999999
40
0.0068897637795276
0
CIRCLE
8
BLACK
10
-0.51
20
2.6149999999999998
40
0.0068897637795276
0
CIRCLE
8
BLACK
10
-0.51
20
2.7149999999999999
40
0.0068897637795276
0
CIRCLE
8
BLACK
10
-0.41
20
2.6149999999999998
40
0.0068897637795276
0
CIRCLE
8
BLACK
10
-0.41
20
2.7149999999999999
40
0.0068897637795276
0
CIRCLE
8
BLACK
10
-0.31
20
2.6149999999999998
40
0.0068897637795276
0
CIRCLE
8
BLACK
10
-0.31
20
2.7149999999999999
40
0.0068897637795276
0
CIRCLE
8
BLACK
10
-1.99
20
0.625
40
0.0068897637795276
0
CIRCLE
8
BLACK
10
-1.2793700787401574
20
1.8277559055118109
40
0.0068897637795276
0
CIRCLE
8
BLACK
10
-1.2793700787401574
20
1.0009842519685039
40
0.0068897637795276
0
CIRCLE
8
BLACK
10
-1.99
20
2.2050000000000001
40
0.0068897637795276
0
CIRCLE
8
BLACK
10
-2.0899999999999999
20
2.3050000000000002
40
0.0068897637795276
0
CIRCLE
8
BLACK
10
-2.0899999999999999
20
2.105
40
0.0068897637795276
0
CIRCLE
8
BLACK
10
-1.8899999999999999
20
2.3050000000000002
40
0.0068897637795276
0
CIRCLE
8
BLACK
10
-1.8899999999999999
20
2.105
40
0.0068897637795276
0
CIRCLE
8
BLACK
10
0.9399999999999999
20
2.4049999999999998
40
0.0068897637795276
0
CIRCLE
8
BLACK
10
1.235275590551181
20
2.4049999999999998
40
0.0068897637795276
0
CIRCLE
8
BLACK
10
0.37
20
2.6149999999999998
40
0.0068897637795276
0
CIRCLE
8
BLACK
10
0.37
20
2.7149999999999999
40
0.0068897637795276
0
CIRCLE
8
BLACK
10
0.47
20
2.6149999999999998
40
0.0068897637795276
0
CIRCLE
8
BLACK
10
0.47
20
2.7149999999999999
40
0.0068897637795276
0
CIRCLE
8
BLACK
10
0.57
20
2.6149999999999998
40
0.0068897637795276
0
CIRCLE
8
BLACK
10
0.57
20
2.7149999999999999
40
0.0068897637795276
0
CIRCLE
8
BLACK
10
-1.0069291338582678
20
1.776496062992126
40
0.0068897637795276
0
CIRCLE
8
BLACK
10
-0.9069291338582677
20
1.776496062992126
40
0.0068897637795276
0
CIRCLE
8
BLACK
10
1.6099999999999999
20
0.625
40
0.0068897637795276
0
CIRCLE
8
BLACK
10
-1.47
20
2.6149999999999998
40
0.0068897637795276
0
CIRCLE
8
BLACK
10
-1.47
20
2.7149999999999999
40
0.0068897637795276
0
CIRCLE
8
BLACK
10
-1.3699999999999999
20
2.6149999999999998
40
0.0068897637795276
0
CIRCLE
8
BLACK
10
-1.3699999999999999
20
2.7149999999999999
40
0.0068897637795276
0
CIRCLE
8
BLACK
10
0.33
20
2.0049999999999999
40
0.0068897637795276
0
CIRCLE
8
BLACK
10
0.43
20
2.0049999999999999
40
0.0068897637795276
0
CIRCLE
8
BLACK
10
-1.1699999999999999
20
0.535
40
0.0068897637795276
0
CIRCLE
8
BLACK
10
-1.1699999999999999
20
0.635
40
0.0068897637795276
0
CIRCLE
8
BLACK
10
-1.0700000000000001
20
0.535
40
0.0068897637795276
0
CIRCLE
8
BLACK
10
-1.0700000000000001
20
0.635
40
0.0068897637795276
0
CIRCLE
8
BLACK
10
-0.97
20
0.535
40
0.0068897637795276
0
CIRCLE
8
BLACK
10
-0.97
20
0.635
40
0.0068897637795276
0
CIRCLE
8
BLACK
10
-0.87
20
0.535
40
0.0068897637795276
0
CIRCLE
8
BLACK
10
-0.87
20
0.635
40
0.0068897637795276
0
CIRCLE
8
BLACK
10
-0.77
20
0.535
40
0.0068897637795276
0
CIRCLE
8
BLACK
10
-0.77
20
0.635
40
0.0068897637795276
0
CIRCLE
8
BLACK
10
1.5999999999999999
20
1.7249999999999999
40
0.0068897637795276
0
CIRCLE
8
BLACK
10
1.7
20
1.7249999999999999
40
0.0068897637795276
0
CIRCLE
8
BLACK
10
1.5999999999999999
20
1.625
40
0.0068897637795276
0
CIRCLE
8
BLACK
10
1.7
20
1.625
40
0.0068897637795276
0
CIRCLE
8
BLACK
10
1.5999999999999999
20
1.5249999999999999
40
0.0068897637795276
0
CIRCLE
8
BLACK
10
1.7
20
1.5249999999999999
40
0.0068897637795276
0
CIRCLE
8
BLACK
10
1.1893700787401575
20
1.7790157480314961
40
0.0068897637795276
0
CIRCLE
8
BLACK
10
1.2393700787401574
20
1.7790157480314961
40
0.0068897637795276
0
CIRCLE
8
BLACK
10
1.2893700787401574
20
1.7790157480314961
40
0.0068897637795276
0
CIRCLE
8
BLACK
10
-0.9194488188976377
20
2.2426181102362204
40
0.0039370078740157
0
CIRCLE
8
BLACK
10
-0.9607874015748031
20
2.2426181102362204
40
0.0039370078740157
0
CIRCLE
8
BLACK
10
-1.0021259842519685
20
2.2426181102362204
40
0.0039370078740157
0
CIRCLE
8
BLACK
10
-0.9194488188976377
20
2.2012795275590551
40
0.0039370078740157
0
CIRCLE
8
BLACK
10
-0.9607874015748031
20
2.2012795275590551
40
0.0039370078740157
0
CIRCLE
8
BLACK
10
-1.0021259842519685
20
2.2012795275590551
40
0.0039370078740157
0
CIRCLE
8
BLACK
10
-0.9194488188976377
20
2.1599409448818898
40
0.0039370078740157
0
CIRCLE
8
BLACK
10
-0.9607874015748031
20
2.1599409448818898
40
0.0039370078740157
0
CIRCLE
8
BLACK
10
-1.0021259842519685
20
2.1599409448818898
40
0.0039370078740157
0
CIRCLE
8
BLACK
10
1.1893700787401575
20
1.4949999999999999
40
0.0068897637795276
0
CIRCLE
8
BLACK
10
1.2393700787401574
20
1.4949999999999999
40
0.0068897637795276
0
CIRCLE
8
BLACK
10
1.2893700787401574
20
1.4949999999999999
40
0.0068897637795276
0
CIRCLE
8
BLACK
10
-0.4301574803149606
20
2.3624015748031497
40
0.0049212598425197
0
CIRCLE
8
BLACK
10
-0.3907874015748031
20
2.3624015748031497
40
0.0049212598425197
  0
ENDSEC
  0
EOF
